<svg xmlns="http://www.w3.org/2000/svg" width="154.684" height="154.682" viewBox="0 0 154.684 154.682"><g transform="translate(-257.121 -7900.051)"><path d="M334.461,7900.051q3.8,0,7.58.374t7.507,1.113q3.727.739,7.363,1.843t7.146,2.557q3.51,1.452,6.861,3.244t6.51,3.9q3.157,2.11,6.1,4.521a75.668,75.668,0,0,1,5.623,5.1q2.686,2.687,5.1,5.623a75.608,75.608,0,0,1,4.521,6.1q2.11,3.157,3.9,6.509t3.245,6.861q1.453,3.508,2.557,7.145t1.844,7.362q.741,3.726,1.114,7.506t.373,7.581q0,3.8-.373,7.58t-1.114,7.508q-.742,3.726-1.844,7.361t-2.557,7.146q-1.455,3.509-3.245,6.86t-3.9,6.51q-2.111,3.159-4.521,6.1a75.51,75.51,0,0,1-5.1,5.623q-2.687,2.689-5.623,5.1t-6.1,4.521q-3.159,2.112-6.51,3.9t-6.861,3.244q-3.51,1.455-7.146,2.558t-7.363,1.844q-3.725.743-7.507,1.114t-7.58.373q-3.8,0-7.58-.373t-7.507-1.114q-3.725-.743-7.362-1.844t-7.146-2.558q-3.51-1.455-6.86-3.244t-6.51-3.9q-3.159-2.109-6.1-4.521t-5.624-5.1q-2.687-2.687-5.1-5.623a74.968,74.968,0,0,1-4.521-6.1q-2.112-3.16-3.9-6.51t-3.244-6.86q-1.455-3.508-2.557-7.146t-1.844-7.361q-.741-3.727-1.113-7.508t-.372-7.58q0-3.8.372-7.581t1.113-7.506q.741-3.725,1.844-7.362t2.557-7.145q1.454-3.511,3.244-6.861t3.9-6.509q2.111-3.157,4.521-6.1a75.27,75.27,0,0,1,5.1-5.623q2.688-2.688,5.624-5.1t6.1-4.521q3.158-2.109,6.51-3.9t6.86-3.244q3.51-1.455,7.146-2.557t7.362-1.843q3.726-.743,7.507-1.113T334.461,7900.051Z" fill="#a0a603"/><circle cx="72.641" cy="72.641" r="72.641" transform="translate(261.821 7904.745)" fill="#fff"/><path d="M334.461,7911.3a66.08,66.08,0,1,1-66.08,66.08,66.08,66.08,0,0,1,66.08-66.08Z" fill="#aaaf31"/><path d="M309.7,7951.309a2.769,2.769,0,1,1,2.769-2.769h2.769a5.538,5.538,0,1,0-5.538,5.538,2.769,2.769,0,1,1-2.769,2.769h-2.769a5.538,5.538,0,1,0,5.538-5.538Z" fill="#fff"/><rect width="2.769" height="4.154" transform="translate(308.311 7940.233)" fill="#fff"/><rect width="2.769" height="4.154" transform="translate(308.311 7961.001)" fill="#fff"/><path d="M291.7,8010.843v8.307h24.921v-8.307Zm22.152,5.538H294.466v-2.769h19.383Z" fill="#fff"/><path d="M291.7,8005.305v8.307h24.921v-8.307Zm22.152,5.538H294.466v-2.769h19.383Z" fill="#fff"/><path d="M291.7,7999.767v8.307h24.921v-8.307Zm22.152,5.538H294.466v-2.769h19.383Z" fill="#fff"/><path d="M327.694,8010.843v2.769H341.54v2.769H322.156v-2.769h2.769v-2.769h-5.538v8.307h24.921v-8.307Z" fill="#fff"/><path d="M319.387,8005.305v6.922h2.769v-4.153H341.54v4.153h2.769v-6.922Z" fill="#fff"/><path d="M319.387,7999.767v8.307h24.922v-8.307Zm22.153,5.538H322.156v-2.769H341.54Z" fill="#fff"/><path d="M319.387,7994.229v8.307h24.922v-8.307Zm22.153,5.538H322.156V7997H341.54Z" fill="#fff"/><path d="M319.387,7988.691V7997h24.922v-8.307Zm22.153,5.538H322.156v-2.769H341.54Z" fill="#fff"/><path d="M347.078,8010.843v8.307H372v-8.307Zm22.152,5.538H349.847v-2.769H369.23Z" fill="#fff"/><path d="M347.078,8005.305v8.307H372v-8.307Zm22.152,5.538H349.847v-2.769H369.23Z" fill="#fff"/><path d="M347.078,7999.767v8.307H372v-8.307Zm22.152,5.538H349.847v-2.769H369.23Z" fill="#fff"/><path d="M347.078,7994.229v8.307H372v-8.307Zm22.152,5.538H349.847V7997H369.23Z" fill="#fff"/><path d="M366.461,7988.691v2.769h2.769v2.769H349.847v-2.769h13.845v-2.769H347.078V7997H372v-8.307Z" fill="#fff"/><path d="M347.078,7983.153v6.923h2.769v-4.154H369.23v4.154H372v-6.923Z" fill="#fff"/><path d="M347.078,7977.615v8.307H372v-8.307Zm22.152,5.538H349.847v-2.769H369.23Z" fill="#fff"/><path d="M356.769,7933.311a4.154,4.154,0,0,0,0,8.307h6.349l-20.393,20.4-10.967-6.855-39.532,31.051,1.711,2.177,38-29.848,11.185,6.99,26.68-26.679H356.769a1.385,1.385,0,0,1,0-2.769h18v18a1.385,1.385,0,1,1-2.769,0v-11.649l-27.931,27.93-12.36-6.866-35.338,28.27,1.731,2.163,33.887-27.11,12.561,6.979,24.681-24.682v4.965a4.153,4.153,0,1,0,8.307,0v-20.767Z" fill="#fff"/><rect width="2.769" height="2.769" transform="translate(297.235 7951.309)" fill="#fff"/><rect width="2.769" height="2.769" transform="translate(319.387 7951.309)" fill="#fff"/><path d="M309.7,7934.695a18,18,0,1,0,18,18A18.02,18.02,0,0,0,309.7,7934.695Zm0,33.228a15.229,15.229,0,1,1,15.229-15.229A15.248,15.248,0,0,1,309.7,7967.923Z" fill="#fff"/></g></svg>