<svg xmlns="http://www.w3.org/2000/svg" width="283.665" height="181.595" viewBox="0 0 283.665 181.595"><g transform="translate(0 0)"><g transform="translate(0 37.648)"><path d="M814.873,4018.247a14.893,14.893,0,0,1,7.5,1.643,8.345,8.345,0,0,0,3.4.834l3.039-.07.036-33.787a5.8,5.8,0,0,0-5.813-5.777l-32.117.119v-.693a8.935,8.935,0,0,1,.942-3.9,17.765,17.765,0,0,0,1.526-10.852,18.061,18.061,0,0,0-35.833,3.093,17.7,17.7,0,0,0,1.533,7.218,8.917,8.917,0,0,1,.8,3.618l.19,1.52H721.38a5.8,5.8,0,0,0-5.813,5.777v33.035h-2.76a8.456,8.456,0,0,1-3.694-.891,17.414,17.414,0,0,0-10.459-1.444,17.089,17.089,0,0,0,2.927,33.906,16.75,16.75,0,0,0,6.831-1.451,8.427,8.427,0,0,1,3.424-.759h3.542l.071,40.409a4.719,4.719,0,0,0,4.734,4.7h103.6c2.615,0,4.663-3.282,4.663-5.88v-36.727h-4.193a7.574,7.574,0,0,0-2.825.552,15.684,15.684,0,0,1-21.527-15.1C800.211,4029.487,806.99,4018.793,814.873,4018.247Z" transform="translate(-684.495 -3950.818)" fill="#e1e1e1"/><path d="M814.839,4018.218s-.092.013-.274.036a7.489,7.489,0,0,0-.811.122,11.059,11.059,0,0,0-3.039,1.081c-2.528,1.29-5.845,4.236-8.343,9.156a21.823,21.823,0,0,0-2.455,8.769,16.1,16.1,0,0,0,.715,5.192,15.412,15.412,0,0,0,2.659,5.017A15.571,15.571,0,0,0,814.2,4053.4a15.339,15.339,0,0,0,6.855-.944,8.174,8.174,0,0,1,3.593-.678l3.76,0h.081v.081q0,8.712.009,18.5,0,4.887,0,10.027,0,2.569,0,5.2,0,1.315,0,2.646a7.452,7.452,0,0,1-.091,1.346,7.2,7.2,0,0,1-.372,1.306,6.865,6.865,0,0,1-1.443,2.311,4.239,4.239,0,0,1-2.4,1.339,13.739,13.739,0,0,1-1.39.036h-4.175l-11.442,0-24.159.006-52.859.01h-6.985c-1.176-.011-2.332.025-3.533-.024a4.858,4.858,0,0,1-4.371-4.967q0-1.783-.007-3.575-.007-3.585-.013-7.2-.026-14.476-.054-29.468l.128.129h-2.209c-.739.012-1.484-.033-2.207.051a8.516,8.516,0,0,0-2.129.544,21.945,21.945,0,0,1-2.107.814,16.994,16.994,0,0,1-17.131-4.163,16.49,16.49,0,0,1-3.878-5.866c-.136-.371-.3-.731-.414-1.111l-.312-1.146a17.2,17.2,0,0,1,8.832-19.456,17.194,17.194,0,0,1,5.4-1.708,17.79,17.79,0,0,1,5.628.132,17.225,17.225,0,0,1,2.713.735c.441.16.876.333,1.3.532a13,13,0,0,0,1.266.544c1.722.68,3.6.432,5.442.479l-.128.128q0-10.718,0-21.16,0-5.218,0-10.362a16.029,16.029,0,0,1,.1-2.584,5.716,5.716,0,0,1,1.023-2.377,5.917,5.917,0,0,1,4.4-2.433l39.122-.014-.117.131c-.065-.521-.128-1.02-.189-1.519l0-.007v-.008a8.5,8.5,0,0,0-.463-2.729c-.145-.439-.337-.856-.521-1.292s-.339-.875-.484-1.32a17.863,17.863,0,0,1-.864-5.49l.075-1.382c.018-.229.015-.461.048-.688l.111-.679c.085-.451.125-.911.247-1.352l.365-1.319a4.224,4.224,0,0,1,.221-.646l.251-.634a8.924,8.924,0,0,1,.551-1.242l.629-1.2.745-1.127a17.654,17.654,0,0,1,3.663-3.873l.516-.417.553-.365c.372-.237.734-.489,1.112-.712a19.235,19.235,0,0,1,2.372-1.122,17.961,17.961,0,0,1,5.032-1.205,17.768,17.768,0,0,1,2.563-.041c.425.029.851.037,1.273.083l1.256.19a18.285,18.285,0,0,1,8.813,4.406,17.942,17.942,0,0,1,5.482,17.2,18.884,18.884,0,0,1-1.517,4.229,9.187,9.187,0,0,0-.653,2.081,10.573,10.573,0,0,0-.137,2.161l-.093-.093,24.433-.078,5.558-.018,1.354,0c.448,0,.9-.005,1.346.027a5.9,5.9,0,0,1,2.508.845,5.828,5.828,0,0,1,2.74,4.17,22.666,22.666,0,0,1,.059,2.465q0,1.215,0,2.4c-.025,12.63-.046,22.67-.061,29.731v.038h-.038c-1.224.017-2.363.073-3.429.052a8.612,8.612,0,0,1-2.844-.745,18.9,18.9,0,0,0-4.2-1.489,12.853,12.853,0,0,0-2.612-.281c-.289,0-.505.005-.648.012s-.215.006-.215.006a8.21,8.21,0,0,1,.863-.038,12.587,12.587,0,0,1,2.62.262,18.844,18.844,0,0,1,4.214,1.475,8.55,8.55,0,0,0,2.825.729c1.056.019,2.2-.041,3.423-.06l-.037.038c0-7.061,0-17.1,0-29.731q0-1.184,0-2.4a22.8,22.8,0,0,0-.062-2.445,5.685,5.685,0,0,0-2.677-4.063,5.761,5.761,0,0,0-2.445-.821c-.435-.031-.882-.029-1.331-.025l-1.354.006-5.558.023-24.433.1H790.8v-.092a10.72,10.72,0,0,1,.138-2.194,9.367,9.367,0,0,1,.664-2.124,18.687,18.687,0,0,0,1.5-4.195,17.744,17.744,0,0,0-5.433-17.009,18.08,18.08,0,0,0-8.713-4.35l-1.242-.187c-.417-.045-.838-.051-1.258-.079a17.44,17.44,0,0,0-7.5,1.235,19.176,19.176,0,0,0-2.344,1.109c-.372.221-.73.471-1.1.706l-.546.36-.51.412a17.417,17.417,0,0,0-3.615,3.827l-.736,1.113-.621,1.185a8.777,8.777,0,0,0-.544,1.227l-.247.626a4.014,4.014,0,0,0-.218.637l-.36,1.3c-.121.435-.159.889-.243,1.333l-.11.671c-.033.224-.031.453-.048.679l-.073,1.364a17.631,17.631,0,0,0,.855,5.418c.145.439.3.875.479,1.3s.379.857.528,1.306a8.752,8.752,0,0,1,.476,2.8v-.015c.062.5.125,1,.191,1.52l.016.131h-.133l-39.105.027a5.67,5.67,0,0,0-4.212,2.332,5.464,5.464,0,0,0-.979,2.277,15.741,15.741,0,0,0-.1,2.538q0,5.142,0,10.362,0,10.438,0,21.16v.128h-2.894a8.274,8.274,0,0,1-2.762-.492,13.425,13.425,0,0,1-1.289-.554c-.416-.2-.845-.366-1.278-.524a17.139,17.139,0,0,0-2.673-.723,17.532,17.532,0,0,0-5.546-.13,16.862,16.862,0,0,0-12.976,9.7,17.167,17.167,0,0,0-1.035,11.149l.308,1.128c.108.374.274.729.408,1.094a16.225,16.225,0,0,0,3.819,5.777,16.736,16.736,0,0,0,16.87,4.1,21.493,21.493,0,0,0,2.09-.809,8.709,8.709,0,0,1,2.195-.56,22.211,22.211,0,0,1,2.237-.053h2.339v.129q.025,14.979.049,29.468.006,3.617.012,7.2,0,1.792.005,3.575a4.608,4.608,0,0,0,4.146,4.72c1.15.046,2.343.013,3.507.024h6.985l52.859.01,24.159.007,11.442,0h4.175a13.473,13.473,0,0,0,1.362-.033,4.035,4.035,0,0,0,2.283-1.277,6.67,6.67,0,0,0,1.4-2.244,6.992,6.992,0,0,0,.362-1.269,7.3,7.3,0,0,0,.088-1.311q0-1.33,0-2.646,0-2.63,0-5.2,0-5.138,0-10.027,0-9.774.009-18.5l.08.08-3.76,0a8.025,8.025,0,0,0-3.539.665,15.475,15.475,0,0,1-6.92.944,15.7,15.7,0,0,1-11-5.877,15.512,15.512,0,0,1-2.672-5.061,16.212,16.212,0,0,1-.711-5.231,21.89,21.89,0,0,1,2.484-8.8c2.518-4.928,5.856-7.874,8.4-9.155a10.91,10.91,0,0,1,3.055-1.063,7.057,7.057,0,0,1,.815-.111C814.747,4018.223,814.839,4018.218,814.839,4018.218Z" transform="translate(-684.462 -3950.789)" fill="#1a2e35"/><g transform="translate(110.311 30.512)"><path d="M983.729,4028.8a17.318,17.318,0,0,0-7.053,1.5,9.083,9.083,0,0,1-2.362.694v-35.515a4.734,4.734,0,0,0-4.734-4.734H932.628v4.194a7.539,7.539,0,0,0,.556,2.824,15.674,15.674,0,0,1-15.2,21.528,15.819,15.819,0,0,1-15.016-14.577,15.557,15.557,0,0,1,1.44-7.726,7.783,7.783,0,0,0,.767-3.3v-2.94l-37.438-.119a5.813,5.813,0,0,0-5.813,5.813l-.036,32.937h-2.552c-.29,0-.584-.007-.877-.029a19.127,19.127,0,1,0-1.772,32.06,7.332,7.332,0,0,1,1.55-.17h3.276V4098a5.812,5.812,0,0,0,5.813,5.813H969.581a4.734,4.734,0,0,0,4.734-4.734v-37.428a9.416,9.416,0,0,1,1.833.671,17.354,17.354,0,0,0,10.6,1.491,17.646,17.646,0,0,0-3.022-35.01Z" transform="translate(-827.951 -3990.506)" fill="#f5f5f5"/><path d="M983.693,4028.767s.375.014,1.111.049a8.709,8.709,0,0,1,1.367.131l.877.14a6.371,6.371,0,0,1,.994.227l1.11.3c.384.129.777.3,1.2.458.208.084.424.162.639.256l.639.333a11.367,11.367,0,0,1,1.338.751,17.661,17.661,0,0,1,8.246,13.806c.018.427.056.858.058,1.295q-.036.655-.072,1.324c-.017.222-.013.448-.048.671s-.067.448-.1.674-.07.452-.105.68l-.16.676a17.605,17.605,0,0,1-2.242,5.33,17.518,17.518,0,0,1-10.121,7.587c-.55.168-1.126.257-1.693.39-.577.09-1.16.173-1.751.21a17.348,17.348,0,0,1-7.2-.985,36.559,36.559,0,0,0-3.52-1.381l.1-.079q0,8.624.009,18.283,0,4.823,0,9.891,0,2.532,0,5.124,0,1.3,0,2.607,0,.655,0,1.313c0,.217-.013.443-.023.668a5.066,5.066,0,0,1-.113.665,4.844,4.844,0,0,1-3.712,3.611,6.615,6.615,0,0,1-1.37.1H967.8l-2.747,0-11.256,0-23.745.007-51.893.01-6.853,0h-3.454a8.64,8.64,0,0,1-1.752-.12,6.486,6.486,0,0,1-1.661-.612,6,6,0,0,1-2.438-2.526,5.684,5.684,0,0,1-.555-1.693,9.9,9.9,0,0,1-.089-1.772v-7.066q0-14.2,0-28.908l.128.129h-2.362c-.4,0-.823-.007-1.224.007a7.349,7.349,0,0,0-1.212.16l.037-.014a19.192,19.192,0,0,1-7.781,2.458,19.279,19.279,0,0,1-21.021-19.007,20.526,20.526,0,0,1,.927-6.084,19.2,19.2,0,0,1,2.8-5.444,20.717,20.717,0,0,1,1.985-2.326l1.13-1.027c.381-.337.807-.618,1.209-.93a19.936,19.936,0,0,1,5.406-2.722,21.185,21.185,0,0,1,5.953-.887,19.167,19.167,0,0,1,11.179,3.693l-.066-.024c1.13.057,2.285.017,3.42.029l-.128.127q.011-10.555.025-20.833.006-5.136.012-10.2l0-1.264c-.005-.417,0-.842.035-1.273a5.951,5.951,0,0,1,4.893-5.213,16.06,16.06,0,0,1,2.5-.087l2.475.008,4.916.017,9.7.032,18.856.063h.116v2.754a7.824,7.824,0,0,1-.371,2.618,9.992,9.992,0,0,1-.491,1.221c-.181.391-.338.792-.485,1.2a15.376,15.376,0,0,0,.849,12.286,15.642,15.642,0,0,0,2.923,3.97,16.181,16.181,0,0,0,3.947,2.837,15.357,15.357,0,0,0,9.269,1.505,15.564,15.564,0,0,0,8.226-3.928,15.312,15.312,0,0,0,2.841-3.485,14.849,14.849,0,0,0,1.706-4.077,15.322,15.322,0,0,0-.184-8.525c-.193-.681-.509-1.313-.7-2.006a7.6,7.6,0,0,1-.286-2.1q0-2.093,0-4.146v-.092h.092l27.045.013,6.078,0h2.932c.483,0,.961-.012,1.446.034a4.98,4.98,0,0,1,1.387.376,4.816,4.816,0,0,1,2.867,4.429q0,2.677,0,5.206c-.015,13.481-.026,23.738-.034,30.277l-.036-.03a24.524,24.524,0,0,0,4.1-1.352,17.262,17.262,0,0,1,2.958-.665,16.314,16.314,0,0,1,1.776-.141c.391-.009.583,0,.583,0l-.582.02a17.432,17.432,0,0,0-4.721.836,24.358,24.358,0,0,1-4.107,1.367l-.036,0v-.036c-.007-6.539-.018-16.8-.033-30.277q0-2.527,0-5.206a4.677,4.677,0,0,0-2.788-4.3,4.818,4.818,0,0,0-1.346-.363c-.464-.045-.947-.03-1.43-.032h-2.932l-6.078,0-27.045.013.093-.093q0,2.052,0,4.146a7.4,7.4,0,0,0,.281,2.052c.185.666.506,1.311.7,2a15.509,15.509,0,0,1,.193,8.632,15.044,15.044,0,0,1-1.725,4.132,15.51,15.51,0,0,1-2.876,3.533,15.778,15.778,0,0,1-8.333,3.986,15.565,15.565,0,0,1-9.4-1.521,16.4,16.4,0,0,1-4-2.874,15.832,15.832,0,0,1-2.966-4.024,15.6,15.6,0,0,1-.867-12.467c.149-.409.308-.815.491-1.212a9.9,9.9,0,0,0,.481-1.2,7.583,7.583,0,0,0,.358-2.546v-2.638l.116.117-18.856-.056-9.7-.029-4.917-.015-2.474-.008a16.034,16.034,0,0,0-2.458.083,5.7,5.7,0,0,0-4.687,5c-.032.408-.038.824-.033,1.247l0,1.264q0,5.06-.01,10.2-.01,10.273-.021,20.833v.129h-.128c-1.143-.014-2.272.028-3.439-.03h-.035l-.031-.023a18.913,18.913,0,0,0-11.03-3.642,20.927,20.927,0,0,0-5.873.876,19.681,19.681,0,0,0-5.333,2.686c-.4.308-.816.585-1.192.917l-1.116,1.014a20.347,20.347,0,0,0-1.957,2.295,18.93,18.93,0,0,0-2.76,5.37,20.28,20.28,0,0,0-.914,6,19.1,19.1,0,0,0,5.5,13.211,19.143,19.143,0,0,0,15.235,5.539,18.923,18.923,0,0,0,7.676-2.424l.018-.01.02,0a7.607,7.607,0,0,1,1.254-.165c.424-.015.827,0,1.236-.008h2.491v.129q0,14.695,0,28.908,0,3.549,0,7.066a9.6,9.6,0,0,0,.085,1.73,5.445,5.445,0,0,0,.531,1.622,5.754,5.754,0,0,0,2.335,2.421,6.261,6.261,0,0,0,1.59.587,8.553,8.553,0,0,0,1.7.116h10.307l51.893.011,23.745.007,11.256,0h4.11a6.506,6.506,0,0,0,1.329-.1,4.645,4.645,0,0,0,3.561-3.461,5.115,5.115,0,0,0,.132-1.287v-3.92q0-2.592,0-5.124,0-5.065,0-9.891,0-9.647.009-18.283v-.1l.1.023a36.337,36.337,0,0,1,3.533,1.39,17.22,17.22,0,0,0,7.132.985c.586-.038,1.165-.118,1.736-.208.564-.131,1.134-.217,1.679-.384a17.586,17.586,0,0,0,12.29-12.805l.16-.671c.035-.226.071-.451.105-.675s.068-.447.1-.669.031-.446.048-.667q.037-.665.074-1.315c0-.434-.039-.863-.056-1.288a17.594,17.594,0,0,0-8.174-13.757,11.458,11.458,0,0,0-1.33-.753l-.636-.333c-.214-.1-.429-.173-.636-.257-.417-.161-.807-.332-1.19-.462l-1.106-.309a6.334,6.334,0,0,0-.99-.23l-.874-.147a8.975,8.975,0,0,0-1.364-.142C984.068,4028.8,983.693,4028.767,983.693,4028.767Z" transform="translate(-827.914 -3990.469)" fill="#1a2e35"/></g></g><g transform="translate(127.342 112.398)"><path d="M868.453,4048.611a5.494,5.494,0,0,1,3.161-.541c1.482.325,6.863,3.833,6.863,3.833l4.335-.81,2.555,12.242-16.914,7.029Z" transform="translate(-854.31 -4047.997)" fill="#c17560"/><path d="M851.692,4052.9a24.873,24.873,0,0,0,5.278-1.191c1.4-.7,4.751-3.67,5.452-3.616s3.239.54,3.239.54l-1.025,3.076s5.074,3.078,6.586,4.211,6.262,6.208,6.478,7.449a3.84,3.84,0,0,1-.756,3.186c-.594.485-2.753-.486-2.753-.486a2.7,2.7,0,0,1-.486,2.214c-.81,1.08-2.7.7-2.7.7s-.161,1.782-1.026,2.105-2.807-.647-2.807-.647-.587,1.511-1.292,1.673-2.7-1.026-2.7-1.026-8.637-6.208-10.58-7.125a9.944,9.944,0,0,0-2.537-.972Z" transform="translate(-850.061 -4048.019)" fill="#ffc19d"/><g transform="translate(15.848 19.948)"><path d="M871.934,4076.413c-.039,0-.063-.153-.155-.379a6.71,6.71,0,0,0-.435-.862,5.531,5.531,0,0,1-.668-1.231,3.034,3.034,0,0,1,.894,1.1,3.223,3.223,0,0,1,.386.94C872.009,4076.245,871.967,4076.415,871.934,4076.413Z" transform="translate(-870.67 -4073.938)" fill="#ff9c6a"/></g><g transform="translate(18.432 18.182)"><path d="M876.3,4074.832a13.634,13.634,0,0,1-1.089-1.63c-.591-.9-1.224-1.5-1.178-1.555a3.809,3.809,0,0,1,1.393,1.409A5.236,5.236,0,0,1,876.3,4074.832Z" transform="translate(-874.03 -4071.642)" fill="#ff9c6a"/></g><g transform="translate(22.02 14.593)"><path d="M880.843,4070.638c-.077.02-.318-.915-.914-1.922s-1.284-1.68-1.23-1.738a5.3,5.3,0,0,1,2.144,3.66Z" transform="translate(-878.696 -4066.975)" fill="#ff9c6a"/></g><g transform="translate(21.605 11.519)"><path d="M878.189,4062.977a4.874,4.874,0,0,1,.129,2.914,29.478,29.478,0,0,1-.129-2.914Z" transform="translate(-878.157 -4062.977)" fill="#ff9c6a"/></g><path d="M861.854,4054.678a33.812,33.812,0,0,1,1.836-4.858c.486-.54,5-1.728,5-1.728l1.4,3.617-1,1.06-2.159-.141A3.7,3.7,0,0,1,861.854,4054.678Z" transform="translate(-852.785 -4048.019)" fill="#c17560"/><path d="M851,4067.763s-.618.476,0,1.609,2.291.323,2.831,0c0,0-.81,1.889.216,2.483a4.038,4.038,0,0,0,2.267.432,2.206,2.206,0,0,0,1.4,1.89c1.458.755,1.836,0,1.836,0s.162,1.889,1.836,2.051a2.916,2.916,0,0,0,2.262-.413l-.751-1.116s.971-1.98.215-2.844a2.586,2.586,0,0,0-2-.756s.331-1.754-.632-2.242a1.771,1.771,0,0,0-2.553.785s-.108-1.922-1.511-1.878a3.121,3.121,0,0,0-2.159.907Z" transform="translate(-850.215 -4052.563)" fill="#c17560"/><g transform="translate(6.123 17.077)"><path d="M859.62,4070.206a7.1,7.1,0,0,1-1.59,2.7,5.863,5.863,0,0,1,.722-1.394A5.786,5.786,0,0,1,859.62,4070.206Z" transform="translate(-858.023 -4070.205)" fill="#7c4236"/></g><g transform="translate(9.073 18.777)"><path d="M863.726,4072.417a5.881,5.881,0,0,1-1.861,2.722,56,56,0,0,1,1.861-2.722Z" transform="translate(-861.86 -4072.416)" fill="#7c4236"/></g></g><g transform="translate(51.27 11.142)"><g transform="translate(2.444 140.406)"><g transform="translate(40.844)"><path d="M817.714,4098.908h-8.189l-2.1,29.777h8.21c1.4-4.535,4.891-28.167,4.891-28.167Z" transform="translate(-807.429 -4098.908)" fill="#1a2e35"/></g><path d="M759.067,4098.908s-5.241,12.289-4.716,17.263,3.466,12.514,3.466,12.514h40.556a93.141,93.141,0,0,0,2.005-10.3c.873-6.144,3.231-19.478,3.231-19.478Z" transform="translate(-754.314 -4098.908)" fill="#1a2e35"/></g><g transform="translate(8.837)"><path d="M814.581,3938.133c-1.369-1.729-3.063-3.394-3.413-5.571-.322-2,.553-4.194-.344-6.012-1.1-2.238-4.279-2.675-5.656-4.755-.667-1.007-.824-2.284-1.483-3.3-1.12-1.728-3.423-2.282-5.477-2.164s-4.06.757-6.119.8c-2.823.059-5.683-1-8.424-.324-3.026.746-4.978,3.3-7.042,5.755l-2.673,2.839a11.052,11.052,0,0,1-1.752,1.284,20.172,20.172,0,0,0-3.295,1.884,4.988,4.988,0,0,0-.022,7.193,5.331,5.331,0,0,0-3.844,5.049,15.33,15.33,0,0,0,.789,3.662,5.329,5.329,0,0,1-.078,3.676,2.342,2.342,0,0,1-3.12,1.171,5.605,5.605,0,0,0,2.874,3.882,3.359,3.359,0,0,1-2.3.893c2.024,5.471,8.1,8.586,13.922,8.895s11.507-1.633,17.016-3.551l15.882-3.332c1.392-.25,2.045-1.9,2.093-3.311s-.241-2.9.326-4.2c.778-1.777,2.927-2.638,3.737-4.4C817.1,3942.2,815.95,3939.861,814.581,3938.133Z" transform="translate(-762.628 -3916.32)" fill="#1a2e35"/><g transform="translate(8.147 1.266)"><g transform="translate(0 1.101)"><g transform="translate(3.634 6.193)"><path d="M780.325,3953.252a64.686,64.686,0,0,1-2.255-10.935,22.6,22.6,0,0,1,1.451-10.969c.224-.519,2.082-3.98,2.641-3.9.4.06-.8,3.316-.619,3.675a19.164,19.164,0,0,1,1.579,11.271,50.443,50.443,0,0,1-2.8,10.852" transform="translate(-777.948 -3927.453)" fill="#1a2e35"/></g><g transform="translate(4.671 1.164)"><path d="M781,3937.523c.177-9.345,5.763-17.031,15.1-16.594l.861.09a16.709,16.709,0,0,1,14.955,17.024c-.2,8.1-.523,17.044-1.03,21.347-1.05,8.907-10.117,9.354-10.117,9.354-.02,0-.244,14.712-.244,14.712L779.3,3968.748Z" transform="translate(-779.297 -3920.912)" fill="#ffc19d"/></g><g transform="translate(14.894 44.34)"><path d="M803.841,3981.716a21.667,21.667,0,0,1-11.25-4.657s2.09,7.538,11.074,7.673Z" transform="translate(-792.591 -3977.059)" fill="#ff9c6a"/></g><g transform="translate(31.642 23.919)"><path d="M816.929,3951.792a1.28,1.28,0,0,1-1.364,1.156,1.225,1.225,0,0,1-1.192-1.286,1.282,1.282,0,0,1,1.363-1.157A1.226,1.226,0,0,1,816.929,3951.792Z" transform="translate(-814.37 -3950.503)" fill="#1a2e35"/></g><g transform="translate(29.968 20.177)"><path d="M817.221,3947.257c-.175.149-1.065-.667-2.436-.807-1.367-.161-2.448.438-2.578.254-.065-.082.127-.365.6-.638a3.519,3.519,0,0,1,2.086-.409,3.376,3.376,0,0,1,1.917.85C817.195,3946.875,817.306,3947.19,817.221,3947.257Z" transform="translate(-812.194 -3945.636)" fill="#1a2e35"/></g><g transform="translate(19.239 23.919)"><path d="M800.8,3951.792a1.281,1.281,0,0,1-1.364,1.155,1.223,1.223,0,0,1-1.191-1.286,1.281,1.281,0,0,1,1.363-1.157A1.227,1.227,0,0,1,800.8,3951.792Z" transform="translate(-798.241 -3950.503)" fill="#1a2e35"/></g><g transform="translate(16.484 19.316)"><path d="M799.686,3946.137c-.175.15-1.066-.666-2.437-.807-1.366-.161-2.447.438-2.578.255-.065-.082.126-.365.6-.637a3.521,3.521,0,0,1,2.086-.411,3.38,3.38,0,0,1,1.917.851C799.659,3945.755,799.771,3946.071,799.686,3946.137Z" transform="translate(-794.658 -3944.517)" fill="#1a2e35"/></g><g transform="translate(25.318 20.501)"><path d="M806.146,3957.543a9.178,9.178,0,0,1,2.269-.167c.354,0,.692-.034.777-.267a1.79,1.79,0,0,0-.125-1.062q-.36-1.323-.754-2.774a46.005,46.005,0,0,1-1.59-7.215,46.125,46.125,0,0,1,2.167,7.07c.247.973.484,1.9.709,2.786a2.036,2.036,0,0,1,.036,1.393.881.881,0,0,1-.629.451,2.34,2.34,0,0,1-.6.02A8.933,8.933,0,0,1,806.146,3957.543Z" transform="translate(-806.146 -3946.058)" fill="#1a2e35"/></g><g transform="translate(20.869 32.509)"><path d="M800.676,3961.674c.225.01.071,1.5,1.233,2.688s2.763,1.193,2.753,1.4c.011.1-.384.252-1.055.2a3.726,3.726,0,0,1-2.307-1.087,3.241,3.241,0,0,1-.937-2.244C800.37,3962.005,800.576,3961.654,800.676,3961.674Z" transform="translate(-800.361 -3961.673)" fill="#1a2e35"/></g><g transform="translate(15.703 14.029)"><path d="M799.962,3938.979c-.175.358-1.524.038-3.153.063-1.629-.009-2.975.325-3.153-.032-.078-.169.185-.5.747-.8a5.482,5.482,0,0,1,4.8-.023C799.772,3938.485,800.038,3938.809,799.962,3938.979Z" transform="translate(-793.642 -3937.642)" fill="#1a2e35"/></g><g transform="translate(30.267 15.491)"><path d="M817.224,3941.233c-.274.286-1.184-.137-2.318-.271-1.128-.175-2.119-.012-2.305-.361-.08-.168.1-.464.555-.715a3.379,3.379,0,0,1,3.726.511C817.248,3940.758,817.347,3941.093,817.224,3941.233Z" transform="translate(-812.582 -3939.543)" fill="#1a2e35"/></g><g transform="translate(0 23.935)"><path d="M779.63,3951.045c-.145-.082-5.936-2.458-6.385,3.66s5.786,5.306,5.81,5.131S779.63,3951.045,779.63,3951.045Z" transform="translate(-773.222 -3950.523)" fill="#ffc19d"/></g><g transform="translate(1.561 25.865)"><path d="M777.825,3957.961c-.025-.021-.112.067-.3.136a1.064,1.064,0,0,1-.8-.042,2.644,2.644,0,0,1-1.047-2.456,3.535,3.535,0,0,1,.41-1.5,1.238,1.238,0,0,1,.862-.76.545.545,0,0,1,.607.338c.069.177.022.3.054.309.015.017.138-.092.108-.349a.681.681,0,0,0-.213-.4.807.807,0,0,0-.578-.2,1.5,1.5,0,0,0-1.183.867,3.629,3.629,0,0,0-.494,1.678,2.772,2.772,0,0,0,1.361,2.755,1.142,1.142,0,0,0,.987-.09C777.8,3958.108,777.846,3957.974,777.825,3957.961Z" transform="translate(-775.252 -3953.034)" fill="#ff9c6a"/></g><g transform="translate(3.818)"><path d="M808.353,3927.3c1.026-.483-1.741-3.883-4.1-5.145-3.573-1.907-9.125-3.3-12.58-2.552-4.159.9-7.684,2.709-9.974,6.3a24.124,24.124,0,0,0-3.493,12.119,7.324,7.324,0,0,0,.621,3.8c.768,1.409,2.354,2.367,2.162,4.229a2.566,2.566,0,0,0,.516,1.909c1.043,1.265,2.485.233,3.188-.85,1.5-2.311,1.834-5.164,2.129-7.9a17.926,17.926,0,0,0-.012-5.847c-.234-1.04-.653-2.035-.829-3.086a3.685,3.685,0,0,1,.631-3.028,3.748,3.748,0,0,1,.53-.471,6.4,6.4,0,0,1,6.411-.8c3.369,1.442,9.139,3.642,10.752,2.571a9.454,9.454,0,0,0,2.92-2.6Z" transform="translate(-778.188 -3919.398)" fill="#1a2e35"/></g></g><g transform="translate(8.66)"><path d="M793.5,3918.46a13.478,13.478,0,0,1,10.306,1.234,7.011,7.011,0,0,1,3.429,4.3,4.02,4.02,0,0,1-2.314,4.624l-.125.067c-2.668.711-4.343.252-6.889-.817-2.142-.9-4-2.377-6.15-3.266a12.469,12.469,0,0,0-7.268-.681A20.365,20.365,0,0,1,793.5,3918.46Z" transform="translate(-784.484 -3917.966)" fill="#1a2e35"/></g></g><g transform="translate(27.368 0.692)"><path d="M798.218,3917.226a2.675,2.675,0,0,1,.623.063,9.979,9.979,0,0,1,1.647.448,10.466,10.466,0,0,1,2.254,1.162,8.719,8.719,0,0,1,2.246,2.15,8.324,8.324,0,0,1,1.236,2.854,15.018,15.018,0,0,1,.376,2.5c.051.719.052,1.3.045,1.7a2.753,2.753,0,0,1-.044.624,3.083,3.083,0,0,1-.057-.621c-.024-.4-.053-.979-.127-1.688a16.67,16.67,0,0,0-.425-2.46,8.4,8.4,0,0,0-1.216-2.764,8.85,8.85,0,0,0-2.17-2.1,11.171,11.171,0,0,0-2.185-1.188A22.214,22.214,0,0,0,798.218,3917.226Z" transform="translate(-798.218 -3917.22)" fill="#375a64"/></g><g transform="translate(33.001 0.355)"><path d="M805.543,3916.785a2.191,2.191,0,0,1,.529.146,4.439,4.439,0,0,1,.6.227l.764.387a7.892,7.892,0,0,1,3.174,3.733,8.034,8.034,0,0,1,.65,2.651,9.139,9.139,0,0,1,.023,1.195,8.771,8.771,0,0,1-.14,1.031,5.292,5.292,0,0,1-.228.827,3.746,3.746,0,0,1-.246.6,2.169,2.169,0,0,1-.283.472,11.2,11.2,0,0,0,.576-1.929,9.548,9.548,0,0,0,.105-1.008,9.386,9.386,0,0,0-.047-1.162,8.144,8.144,0,0,0-.651-2.573,8.111,8.111,0,0,0-3.03-3.677l-.731-.413a5.412,5.412,0,0,0-.578-.263A2.284,2.284,0,0,1,805.543,3916.785Z" transform="translate(-805.543 -3916.781)" fill="#375a64"/></g></g><g transform="translate(0 47.823)"><path d="M796.965,3995.287c0,.84,4.208,19.324,5.819,23.864s6.712,50.072,6.04,53.314-2.416,3.113-2.416,3.113-41.208-2.593-45.637-2.2-6.309.259-7.383-4.8.031-31.352-.907-37.708-.948-9.437-1.311-18.881c-.315-8.185,1.547-14.75,5.44-19.488s12.51-9.529,12.51-9.529l3.056-4.457L793.8,3989.95l.495-2.6,1.313,4.053Z" transform="translate(-751.135 -3978.511)" fill="#97c2e8"/><g transform="translate(4.847 33.658)" opacity="0.3"><path d="M807.717,4061.737c-.36-.918-1.528-1.149-2.508-1.258-9.165-1.016-18.7-3.3-25.4-9.646a47.568,47.568,0,0,1-6.674-8.487c-4.349-6.577-8.439-13.323-12.527-20.065l-3.174,1.2a128.3,128.3,0,0,0,7.034,24.218c3.173,7.813,5.632,15.375,13.669,17.932,5.194,1.652,15.06.385,20.494-.04a31.8,31.8,0,0,0,6.732-1.055,4.387,4.387,0,0,0,1.822-.927A1.793,1.793,0,0,0,807.717,4061.737Z" transform="translate(-757.438 -4022.281)"/></g><g transform="translate(3.246 11.527)"><path d="M755.84,4014.524c.238.421,18.577,39.591,26.764,41.2s33.636,1.986,38.6,1.047,9.826-1.814,9.826-1.814,3.6-8.542.313-15.819l-6.835.216s-19.005-1.025-21.69-1.759-5-3.252-7.421-3.118l-14.458-33.646s-9.4-8.725-16.108-6.04S753.873,4011.025,755.84,4014.524Z" transform="translate(-755.357 -3993.68)" fill="#97c2e8"/><g transform="translate(68.98 45.91)"><path d="M845.759,4069.93a3.363,3.363,0,0,1,.136-.658c.108-.417.244-1.027.386-1.782s.271-1.664.363-2.675a28.74,28.74,0,0,0,.071-3.3,26.946,26.946,0,0,0-.93-5.92c-.2-.742-.39-1.338-.532-1.745a.337.337,0,1,1,.095-.035,17.912,17.912,0,0,1,.614,1.728,24.138,24.138,0,0,1,1.013,5.962,26.213,26.213,0,0,1-.092,3.333,23.349,23.349,0,0,1-.421,2.69,17.76,17.76,0,0,1-.468,1.772A3.3,3.3,0,0,1,845.759,4069.93Z" transform="translate(-845.061 -4053.204)" fill="#1a2e35"/></g><g transform="translate(0.483 7.152)"><path d="M781.086,4002.8s.1.2.273.6.435.99.771,1.757c.674,1.552,1.661,3.825,2.925,6.737l10.583,24.516-.1-.062a6.262,6.262,0,0,1,3.205.982c1,.55,1.963,1.189,3.023,1.673a10.168,10.168,0,0,0,3.44.8c1.2.143,2.433.248,3.679.356,4.988.413,10.273.736,15.776,1.043h-.011l6.835-.218.085,0,.034.078a17.6,17.6,0,0,1,1.369,7.844,25.67,25.67,0,0,1-1.678,8.077l-.025.064-.072.013-4.345.8-4.758.879a31.853,31.853,0,0,1-4.762.49c-3.162.144-6.279.156-9.34.14s-6.068-.088-9.011-.2-5.824-.257-8.629-.471c-1.4-.1-2.788-.235-4.151-.385a28.978,28.978,0,0,1-4.019-.667,6.974,6.974,0,0,1-1.74-1,14.648,14.648,0,0,1-1.478-1.3,31.925,31.925,0,0,1-2.538-2.862,105.034,105.034,0,0,1-7.7-11.589c-4.3-7.345-7.4-13.5-9.531-17.75-1.06-2.129-1.862-3.793-2.4-4.924s-.807-1.73-.807-1.73.081.143.225.431.355.719.63,1.277l2.443,4.9c2.158,4.237,5.284,10.374,9.6,17.7a105.678,105.678,0,0,0,7.714,11.548,31.913,31.913,0,0,0,2.525,2.838,14.429,14.429,0,0,0,1.459,1.275,6.769,6.769,0,0,0,1.682.97,29.419,29.419,0,0,0,3.968.65c1.359.146,2.741.28,4.142.378q4.2.315,8.62.461c2.941.106,5.945.175,9,.19s6.173,0,9.326-.144a31.347,31.347,0,0,0,4.727-.488l4.758-.879,4.347-.8-.1.077a25.477,25.477,0,0,0,1.66-7.986,17.36,17.36,0,0,0-1.343-7.73l.119.075-6.836.214h-.011c-5.505-.312-10.79-.643-15.781-1.063-1.248-.11-2.478-.218-3.686-.362-.605-.069-1.2-.147-1.8-.26a6.707,6.707,0,0,1-1.707-.565c-1.08-.5-2.048-1.14-3.034-1.687a6.072,6.072,0,0,0-3.091-.962l-.072,0-.028-.066-10.5-24.55-2.874-6.758c-.325-.773-.574-1.365-.744-1.77S781.086,4002.8,781.086,4002.8Z" transform="translate(-755.985 -4002.801)" fill="#1a2e35"/></g><g transform="translate(2.547)"><path d="M779.79,3998.011c-.017.016-.255-.236-.711-.659a13.757,13.757,0,0,0-5.658-3.123,12.732,12.732,0,0,0-9.255.925,13.73,13.73,0,0,0-4.928,4.182c-.364.5-.547.8-.568.787a.916.916,0,0,1,.111-.226c.085-.142.193-.361.374-.619a12.065,12.065,0,0,1,1.7-2.041,13.067,13.067,0,0,1,16.225-1.623,12.1,12.1,0,0,1,2.07,1.665c.228.216.377.41.488.531A.9.9,0,0,1,779.79,3998.011Z" transform="translate(-758.669 -3993.501)" fill="#1a2e35"/></g><g transform="translate(37.886 40.828)"><path d="M806.726,4046.594a34.288,34.288,0,0,1-2.094,5.592,34.273,34.273,0,0,1,2.094-5.592Z" transform="translate(-804.625 -4046.594)" fill="#1a2e35"/></g></g><g transform="translate(75.457 58.755)"><path d="M850.259,4054.97c0-.015.07-.035.188.008a.71.71,0,0,1,.368.359.785.785,0,0,1-.019.778.9.9,0,0,1-.867.4.841.841,0,0,1-.654-.7.8.8,0,0,1,.25-.736.657.657,0,0,1,.491-.161c.12.011.178.043.176.059.008.049-.291-.018-.54.234a.639.639,0,0,0-.142.559.623.623,0,0,0,.462.487.687.687,0,0,0,.625-.278.615.615,0,0,0,.049-.571C850.519,4055.053,850.249,4055,850.259,4054.97Z" transform="translate(-849.263 -4054.918)" fill="#1a2e35"/></g><g transform="translate(19.342 5.051)"><path d="M800.132,3992.77a3.453,3.453,0,0,1-.493-.254l-1.364-.781.1-.041c-.269,1.363-.531,3.37-.988,5.775l-.031.159-.139-.087c-2.008-1.265-4.417-2.711-6.987-4.265-1.916-1.147-3.708-2.305-5.358-3.306s-3.174-1.852-4.45-2.567l-3.028-1.685-.821-.461a.166.166,0,1,1,.024-.047l.844.419c.73.371,1.781.918,3.069,1.613s2.815,1.539,4.485,2.522l5.37,3.29c2.568,1.552,4.974,3.012,6.972,4.3l-.169.072c.477-2.387.773-4.4,1.082-5.757l.02-.089.075.047,1.333.832A3.28,3.28,0,0,1,800.132,3992.77Z" transform="translate(-776.288 -3985.079)" fill="#1a2e35"/></g><g transform="translate(22.382 6.667)" opacity="0.3"><path d="M780.242,3987.181l11.287,8.41a28.267,28.267,0,0,0,7.975,4.679q-.082-3.922-.164-7.845l-1.155,5.506Z" transform="translate(-780.242 -3987.181)"/></g></g></g><g transform="translate(153.793 5.732)"><g transform="translate(31.516)"><path d="M930.013,3929.9a4.046,4.046,0,0,1-1.863-7.832,4.208,4.208,0,0,1,3.531-7.166,5.037,5.037,0,0,1,7.514-4.272,5.663,5.663,0,0,1,6.969-.275,4.028,4.028,0,0,1,3.686,6.764" transform="translate(-925.443 -3909.285)" fill="#1a2e35"/><g transform="translate(3.166 1.826)"><g transform="translate(0 2.12)"><g transform="translate(0 1.097)"><path d="M930.388,3931.991a17.165,17.165,0,0,1,16.785-16.13l.889-.018c9.593.364,14.644,8.716,14.014,18.3l.57,34.179h0l-23.312,8.368-.2-12.308s-9.241-1.245-9.542-10.453C929.443,3949.477,929.888,3940.3,930.388,3931.991Z" transform="translate(-929.561 -3915.843)" fill="#c17560"/></g><g transform="translate(9.493 45.842)"><path d="M941.906,3977.808a22.35,22.35,0,0,0,12-3.778s-2.7,6.686-11.911,6.043Z" transform="translate(-941.906 -3974.03)" fill="#7c4236"/></g><g transform="translate(3.414 24.357)"><path d="M934,3947.306a1.314,1.314,0,0,0,1.295,1.3,1.259,1.259,0,0,0,1.332-1.214,1.316,1.316,0,0,0-1.294-1.3A1.259,1.259,0,0,0,934,3947.306Z" transform="translate(-934.001 -3946.091)" fill="#1a2e35"/></g><g transform="translate(2.877 20.275)"><path d="M933.324,3942.218c.166.168,1.147-.59,2.563-.614,1.413-.046,2.468.661,2.617.485.075-.078-.1-.385-.557-.7a3.6,3.6,0,0,0-2.1-.6,3.463,3.463,0,0,0-2.035.7C933.384,3941.83,933.242,3942.142,933.324,3942.218Z" transform="translate(-933.302 -3940.782)" fill="#1a2e35"/></g><g transform="translate(16.31 24.357)"><path d="M950.771,3947.307a1.314,1.314,0,0,0,1.295,1.3,1.258,1.258,0,0,0,1.332-1.214,1.317,1.317,0,0,0-1.294-1.3A1.258,1.258,0,0,0,950.771,3947.307Z" transform="translate(-950.771 -3946.091)" fill="#1a2e35"/></g><g transform="translate(16.795 20.256)"><path d="M951.423,3942.193c.166.168,1.149-.589,2.564-.614,1.413-.045,2.467.661,2.617.485.074-.079-.1-.384-.558-.7a3.608,3.608,0,0,0-2.1-.6,3.467,3.467,0,0,0-2.036.7C951.483,3941.8,951.342,3942.117,951.423,3942.193Z" transform="translate(-951.401 -3940.758)" fill="#1a2e35"/></g><g transform="translate(8.267 20.485)"><path d="M943.938,3952.863a9.358,9.358,0,0,0-2.307-.369c-.362-.029-.706-.095-.772-.34a1.851,1.851,0,0,1,.219-1.077q.483-1.322,1.013-2.774c1.405-3.948,2.413-7.192,2.254-7.248s-1.427,3.1-2.831,7.049q-.506,1.46-.967,2.79a2.087,2.087,0,0,0-.158,1.422.9.9,0,0,0,.6.516,2.448,2.448,0,0,0,.616.073A9.244,9.244,0,0,0,943.938,3952.863Z" transform="translate(-940.311 -3941.056)" fill="#1a2e35"/></g><g transform="translate(16.271 15.305)"><path d="M950.738,3935.9c.194.354,1.4-.059,2.891-.138,1.49-.112,2.754.144,2.884-.232.055-.179-.217-.5-.76-.772a4.479,4.479,0,0,0-2.251-.425,4.32,4.32,0,0,0-2.149.707C950.864,3935.379,950.651,3935.726,950.738,3935.9Z" transform="translate(-950.719 -3934.32)" fill="#1a2e35"/></g><g transform="translate(2.579 15.176)"><path d="M932.961,3935.679c.3.316,1.466-.042,2.871-.086,1.4-.085,2.6.163,2.865-.178.117-.167-.077-.484-.6-.778a4.572,4.572,0,0,0-2.345-.479,4.5,4.5,0,0,0-2.278.693C932.982,3935.191,932.826,3935.525,932.961,3935.679Z" transform="translate(-932.914 -3934.152)" fill="#1a2e35"/></g><g transform="translate(1.602)"><path d="M931.669,3927.418s2.312-5.817,5.065-7.22c3.334-1.7,4.858,1.968,8.049,1.007s6.373-2.592,9.7-.178c3.644,2.641,2,4.581,2.306,8.662,1.236,16.55,4.358,21.174,5.059,13.352.077-.856,2.436-1.585,2.714-5.2.361-4.693.424-10.384-.688-13.687-.939-2.784-2.575-4.687-5.484-6.763-4.591-3.277-10.8-3.223-15.014-2.712S931.138,3920.2,931.669,3927.418Z" transform="translate(-931.644 -3914.416)" fill="#1a2e35"/></g><g transform="translate(31.087 25.917)"><path d="M970.118,3950.59a2.5,2.5,0,0,1,2.651-2.464c1.721.127,3.652,1.064,3.611,4.616-.073,6.3-6.384,4.928-6.393,4.747C969.981,3957.367,970.064,3953.226,970.118,3950.59Z" transform="translate(-969.987 -3948.119)" fill="#c17560"/></g><g transform="translate(32.479 27.961)"><path d="M971.8,3955.749c.029-.02.109.079.294.166a1.1,1.1,0,0,0,.821.026,2.715,2.715,0,0,0,1.285-2.422,3.636,3.636,0,0,0-.289-1.575,1.271,1.271,0,0,0-.816-.852.559.559,0,0,0-.651.294c-.087.175-.048.3-.082.311-.018.016-.134-.107-.08-.366a.7.7,0,0,1,.252-.392.83.83,0,0,1,.609-.154,1.543,1.543,0,0,1,1.135.991,3.724,3.724,0,0,1,.36,1.76,2.85,2.85,0,0,1-1.633,2.7,1.18,1.18,0,0,1-1-.179C971.813,3955.9,971.782,3955.76,971.8,3955.749Z" transform="translate(-971.797 -3950.777)" fill="#7c4236"/></g></g><g transform="translate(5.711)"><path d="M962.123,3929.969a5.972,5.972,0,0,1-2.641,1.286,2.055,2.055,0,0,1-2.308-1.4c-.084-.437.013-.947-.282-1.28-.352-.4-.984-.257-1.51-.19a4.02,4.02,0,0,1-4.23-2.8,1.688,1.688,0,0,1-2.259.259,9.021,9.021,0,0,1-1.752-1.8,2.594,2.594,0,0,0-2.183-1.037,6.153,6.153,0,0,1-1.363.33c-.829-.057-1.252-1.016-1.394-1.834s-.258-1.773-.967-2.206a3.3,3.3,0,0,0-2.253-.017c-.759.128-1.746-.03-1.955-.771a1.5,1.5,0,0,1,.258-1.147,4.08,4.08,0,0,1,4.783-1.642,50.946,50.946,0,0,0,15.123-2.7,5.708,5.708,0,0,1,4.019,3.28,4.066,4.066,0,0,1,4.7,5.821,3.861,3.861,0,0,1,2.187,3.032,2.211,2.211,0,0,1-2.458,2.31,2.252,2.252,0,0,1-3.849,2.325" transform="translate(-936.987 -3911.66)" fill="#1a2e35"/></g><g transform="translate(10.354 5.926)"><path d="M943.029,3919.366a.323.323,0,0,0,0,.115c.01.075.017.19.047.336a3.967,3.967,0,0,0,.482,1.2,4.5,4.5,0,0,0,1.426,1.46,4.187,4.187,0,0,0,2.594.683l-.11-.137a2.278,2.278,0,0,0,.162,1.735,6.52,6.52,0,0,0,1.109,1.527,4.715,4.715,0,0,0,.72.708,2.2,2.2,0,0,0,1.005.35,2.3,2.3,0,0,0,2.012-.768l-.236-.063a4.724,4.724,0,0,0,2.069,3.228,3.446,3.446,0,0,0,2.082.635,6.214,6.214,0,0,0,2.029-.489l-.17-.07a4.965,4.965,0,0,0,1.53,1.913,2.643,2.643,0,0,0,2.205.552,3.468,3.468,0,0,0,2.615-2.769l-.141.069a3.245,3.245,0,0,0,2.17.273,3.522,3.522,0,0,0,1.495-.7,3.051,3.051,0,0,0,.688-.784,1.526,1.526,0,0,0,.153-.329,3.789,3.789,0,0,1-.907,1.029,3.49,3.49,0,0,1-1.46.638,3.1,3.1,0,0,1-2.048-.294l-.119-.065-.022.135a3.271,3.271,0,0,1-2.476,2.566,2.4,2.4,0,0,1-2-.524,4.735,4.735,0,0,1-1.438-1.816l-.052-.115-.119.044a5.975,5.975,0,0,1-1.94.465,3.176,3.176,0,0,1-1.922-.591,4.475,4.475,0,0,1-1.957-3.041l-.045-.3-.192.234a2.044,2.044,0,0,1-1.776.677,1.956,1.956,0,0,1-.891-.3,4.559,4.559,0,0,1-.678-.664,6.342,6.342,0,0,1-1.083-1.46,2.066,2.066,0,0,1-.169-1.571l.048-.151-.158.013a4.041,4.041,0,0,1-2.485-.616,4.469,4.469,0,0,1-1.416-1.38A4.9,4.9,0,0,1,943.029,3919.366Z" transform="translate(-943.026 -3919.366)" fill="#375a64"/></g></g><g transform="translate(16.221 36.723)"><path d="M950.256,3957.042c-.224.027.035,1.512-1.05,2.79s-2.693,1.395-2.668,1.6c0,.1.4.226,1.075.126a3.752,3.752,0,0,0,2.242-1.255,3.272,3.272,0,0,0,.784-2.322C950.587,3957.354,950.356,3957.017,950.256,3957.042Z" transform="translate(-946.538 -3957.041)" fill="#1a2e35"/></g></g><g transform="translate(0 49.49)"><g transform="translate(0 46.347)"><path d="M884.459,4046.462c.8-.32,27.17-3.488,27.17-3.488l10.7-9.059-1,26.224-33.672,3.246Z" transform="translate(-884.459 -4033.915)" fill="#c6ca68"/><path d="M926.663,4039.123c-.321.161-2.963,2.509-2.963,2.509l.806,20.193Z" transform="translate(-893.525 -4035.118)" opacity="0.3"/></g><g transform="translate(28.355)"><path d="M972.6,4100.88H928.057s2.359,12.568,3.231,18.36a74.2,74.2,0,0,0,2.15,9.9H973.78s3.012-7.3,3.536-11.989S972.6,4100.88,972.6,4100.88Z" transform="translate(-922.886 -4003.039)" fill="#1a2e35"/><path d="M923.575,4102.853a168.655,168.655,0,0,0,0,26.743H939v-11.44Z" transform="translate(-921.723 -4003.494)" fill="#1a2e35"/><path d="M934.889,4002.777l4.8-10.512.6-6.493s9.205-5.784,13.572-7.968a95.437,95.437,0,0,1,10.25-4.16v6.125Z" transform="translate(-924.464 -3973.644)" fill="#ececec"/><path d="M971.88,4057.123s2.607-35.038,2.784-37.642c0,0,1.54-18.722-1.785-25.851s-10.763-13.394-10.763-13.394l-.685-3.743-14.529,9.158-6.716,5.841a67.142,67.142,0,0,0-6.337,7.885,27.827,27.827,0,0,0-4.97,10.3c-.345,1.56-4.342,20.212-4.461,33.213,0,0-.614,11.342-1.27,17.767-.811,7.952-2.047,26.08-1.779,36.82l47.082-1.438c11.635-1.776,9.588-2.932,9.588-2.932Z" transform="translate(-921.332 -3974.302)" fill="#c6ca68"/><g transform="translate(2.753 6.126)"><path d="M961.8,3981.61s-.109.057-.326.149l-.961.4c-.411.2-.91.458-1.5.763-.563.348-1.233.708-1.928,1.2a53.406,53.406,0,0,0-10.344,9.561l-.027.031-.039.007-4.517.832.1-.113c-.071,2.1-.145,4.3-.222,6.581l0,.052-.039.037a62.515,62.515,0,0,0-6.643,7.281,28.627,28.627,0,0,0-2.277,3.442l-.246.444-.188.463a8.061,8.061,0,0,0-.341.94c-.2.637-.4,1.271-.564,1.91-.7,2.544-1.273,5.028-1.811,7.394-1.073,4.735-1.965,9.015-2.705,12.611-1.478,7.193-2.311,11.658-2.311,11.658a7.239,7.239,0,0,1,.1-.819c.082-.534.219-1.32.4-2.332.364-2.021.916-4.941,1.631-8.544s1.591-7.887,2.651-12.627c.533-2.369,1.1-4.855,1.8-7.409.164-.641.363-1.279.566-1.923a8.169,8.169,0,0,1,.349-.961l.2-.479.248-.45a28.679,28.679,0,0,1,2.3-3.475,62.142,62.142,0,0,1,6.679-7.309l-.04.088c.081-2.279.161-4.481.236-6.58l0-.1.094-.018,4.52-.815-.065.039a52.278,52.278,0,0,1,10.444-9.528c.7-.489,1.382-.843,1.951-1.182.594-.3,1.1-.55,1.516-.738l.977-.372C961.685,3981.645,961.8,3981.61,961.8,3981.61Z" transform="translate(-924.913 -3981.61)" fill="#1a2e35"/></g><g transform="translate(17.132 21.217)"><path d="M950.361,4013.831l.565,46.754-7.12,45.535h18.77s8.529-34.574,10.516-41.84c1.929-7.054,4.819-42.567,5.075-44.311.1-.684,2.135-12.948-3.855-18.733" transform="translate(-943.656 -4001.235)" fill="#c6ca68"/><path d="M974.268,4001.235s.136.129.392.391a10.259,10.259,0,0,1,1.026,1.26,15.69,15.69,0,0,1,2.345,5.761,32.214,32.214,0,0,1,.356,9.865c-.281,1.916-.423,3.962-.63,6.145s-.407,4.482-.627,6.9c-.448,4.839-.953,10.141-1.564,15.829-.313,2.844-.638,5.785-1.04,8.809a71.907,71.907,0,0,1-1.653,9.269c-3.136,12.489-6.587,26.234-10.215,40.687l-.025.1H943.611l.023-.149c2.635-16.794,5.065-32.3,7.141-45.531l0,.018c-.151-14.158-.278-25.844-.365-34-.037-4.071-.066-7.258-.085-9.434-.006-1.082-.011-1.911-.014-2.476s.005-.847.005-.847.015.288.027.847.025,1.394.045,2.475c.033,2.176.082,5.363.143,9.434.109,8.153.266,19.84.456,34v.018c-2.063,13.237-4.479,28.742-7.1,45.539l-.127-.149H962.53l-.125.1c3.636-14.452,7.094-28.2,10.237-40.687a71.822,71.822,0,0,0,1.658-9.235c.405-3.02.734-5.959,1.053-8.8.62-5.686,1.135-10.985,1.595-15.823q.339-3.629.645-6.9c.213-2.173.364-4.244.651-6.146a32.319,32.319,0,0,0-.311-9.829,15.825,15.825,0,0,0-2.289-5.752,11.052,11.052,0,0,0-1-1.271C974.392,4001.376,974.268,4001.235,974.268,4001.235Z" transform="translate(-943.611 -4001.235)" fill="#1a2e35"/></g><g transform="translate(24.374 80.997)"><path d="M962.418,4083.145a7.669,7.669,0,0,1-1.451-.419c-.882-.3-2.087-.76-3.388-1.336s-2.45-1.165-3.265-1.617a7.7,7.7,0,0,1-1.284-.794,9.911,9.911,0,0,1,1.37.632c.834.409,1.99.965,3.285,1.542s2.484,1.058,3.347,1.4A10.1,10.1,0,0,1,962.418,4083.145Z" transform="translate(-953.029 -4078.975)" fill="#1a2e35"/></g><g transform="translate(1.626 41.223)"><path d="M923.451,4074.3a.411.411,0,0,1,0-.123l.013-.358.074-1.375c.077-1.216.187-2.937.321-5.054.288-4.267.7-10.161,1.274-16.662s1.24-12.376,1.781-16.618c.272-2.121.5-3.835.677-5.019q.128-.863.2-1.362l.06-.354a.469.469,0,0,1,.028-.119.412.412,0,0,1,0,.123l-.034.356q-.057.5-.156,1.369c-.143,1.209-.345,2.921-.594,5.028-.495,4.247-1.129,10.12-1.7,16.619s-1.015,12.388-1.35,16.652c-.169,2.115-.307,3.833-.4,5.048q-.077.869-.122,1.372l-.038.356A.417.417,0,0,1,923.451,4074.3Z" transform="translate(-923.446 -4027.252)" fill="#1a2e35"/></g><g transform="translate(35.284 8.386)"><path d="M971.575,3991.481a17.457,17.457,0,0,0-4.357-6.93,4.185,4.185,0,0,1,.951.769,12.456,12.456,0,0,1,3.124,4.97A4.189,4.189,0,0,1,971.575,3991.481Z" transform="translate(-967.217 -3984.55)" fill="#1a2e35"/></g><g transform="translate(3.829 71.941)"><path d="M929.006,4068.664c.013,0,.06.116.045.34a1.359,1.359,0,0,1-.407.847,1.293,1.293,0,0,1-1.354.307,1.493,1.493,0,0,1-.7-.5,1.372,1.372,0,0,1-.281-.876,1.818,1.818,0,0,1,.361-1.088,1.12,1.12,0,0,1,.438-.346c.18-.066.31-.1.459-.145l.018-.005h.017a1.568,1.568,0,0,1,.905.261,1.168,1.168,0,0,1,.419.594,1.193,1.193,0,0,1,.077.609c-.032.007-.059-.219-.2-.561a1.087,1.087,0,0,0-.4-.49,1.431,1.431,0,0,0-.8-.187l.035,0c-.136.048-.308.1-.431.149a.9.9,0,0,0-.336.279,1.613,1.613,0,0,0-.3.936,1.188,1.188,0,0,0,.8,1.146,1.109,1.109,0,0,0,1.147-.216,1.364,1.364,0,0,0,.434-.727C928.995,4068.787,928.983,4068.666,929.006,4068.664Z" transform="translate(-926.312 -4067.199)" fill="#1a2e35"/></g><g transform="translate(3.131 88.473)"><path d="M928.1,4090.163c.013,0,.061.114.045.34a1.355,1.355,0,0,1-.407.846,1.294,1.294,0,0,1-1.354.308,1.5,1.5,0,0,1-.7-.5,1.373,1.373,0,0,1-.281-.877,1.816,1.816,0,0,1,.361-1.087,1.12,1.12,0,0,1,.437-.345c.18-.067.31-.1.459-.145l.018-.006h.016a1.568,1.568,0,0,1,.905.26,1.172,1.172,0,0,1,.419.6,1.191,1.191,0,0,1,.077.61c-.031.006-.058-.22-.2-.562a1.08,1.08,0,0,0-.4-.49,1.427,1.427,0,0,0-.8-.187l.035-.005c-.136.048-.308.1-.431.15a.878.878,0,0,0-.336.278,1.6,1.6,0,0,0-.3.935,1.19,1.19,0,0,0,.8,1.148,1.111,1.111,0,0,0,1.148-.216,1.372,1.372,0,0,0,.433-.728C928.087,4090.285,928.075,4090.165,928.1,4090.163Z" transform="translate(-925.404 -4088.697)" fill="#1a2e35"/></g></g><g transform="translate(61.641 16.632)"><path d="M977.008,3997.091c-.026.045-.646-.353-1.741-.772a12.125,12.125,0,0,0-1.976-.562,12.209,12.209,0,0,0-4.994.069,12.189,12.189,0,0,0-1.959.616c-1.083.45-1.692.864-1.719.82a2,2,0,0,1,.412-.31,4.509,4.509,0,0,1,.518-.315,7.232,7.232,0,0,1,.717-.363,10.952,10.952,0,0,1,1.978-.682,11.591,11.591,0,0,1,5.1-.071,11,11,0,0,1,2,.627,7.135,7.135,0,0,1,.727.344,4.4,4.4,0,0,1,.526.3A1.972,1.972,0,0,1,977.008,3997.091Z" transform="translate(-964.619 -3995.273)" fill="#1a2e35"/></g><g transform="translate(32.918 14.465)" opacity="0.3"><path d="M927.266,4040.173c2.033-2.958,2.779-5.749,3.866-9.17,1.614-5.084,2.065-10.83,4.6-15.525,1.492-2.764,3.246-5.6,5.84-7.374,2.53-1.729,2.9-3.927,2.854-9.873a6.953,6.953,0,0,0,3.947-1.62,10.068,10.068,0,0,0,2.218-4.156c-1.268,1.38-3.383,3.667-3.383,3.667s-4.586.853-4.519.823c-.113,2.287-.117,4.293-.23,6.58,0,0-8.8,9.335-9.483,11.212S927.266,4040.173,927.266,4040.173Z" transform="translate(-927.266 -3992.455)"/></g><g transform="translate(65.583 45.178)" opacity="0.3"><path d="M969.745,4107.679c11.149-21.1,14.615-48.853,13.952-75.284,0,0-3.2,32.127-4.279,37.642C978.346,4075.513,969.745,4107.679,969.745,4107.679Z" transform="translate(-969.745 -4032.395)"/></g><g transform="translate(44.099 2.728)"><path d="M964.992,3977.193a1.46,1.46,0,0,1-.25.191l-.743.5-2.759,1.813-9.152,5.9-3.949,2.519.009-.006-1.262.976a10.112,10.112,0,0,0-1.127.962c-.691.668-1.307,1.317-1.86,1.906l-.1.106-.057-.132c-.6-1.382-1.087-2.512-1.44-3.328l-.379-.912a1.664,1.664,0,0,1-.115-.325,1.585,1.585,0,0,1,.165.3l.425.891c.373.808.888,1.926,1.518,3.294l-.157-.025c.545-.6,1.153-1.259,1.844-1.939a10.248,10.248,0,0,1,1.141-.992l1.251-.98,0,0,0,0,3.944-2.529,9.2-5.836,2.8-1.743.769-.463A1.4,1.4,0,0,1,964.992,3977.193Z" transform="translate(-941.807 -3977.192)" fill="#1a2e35"/></g></g></g><g transform="translate(118.72)"><g transform="translate(15.73)"><g transform="translate(0.115 0.12)"><path d="M899.944,3936.78l-6.234-.728a20.04,20.04,0,1,1,4.04-5.936l.007-.009Z" transform="translate(-859.454 -3901.987)" fill="#fff"/></g><path d="M899.91,3936.744s-.056-.151-.155-.44l-.434-1.279c-.378-1.126-.934-2.782-1.658-4.933l.108.019-.008.009a.062.062,0,0,1-.088.01.064.064,0,0,1-.018-.075,20.009,20.009,0,0,0,1.62-9.723,19.632,19.632,0,0,0-.5-3.045,22.563,22.563,0,0,0-1.063-3.123,19.871,19.871,0,0,0-37.971,5.22,20.231,20.231,0,0,0,.92,9.1,19.572,19.572,0,0,0,4.525,7.329,19.958,19.958,0,0,0,13.676,6.031l.853.011a5.517,5.517,0,0,0,.839-.027l1.632-.144a27.624,27.624,0,0,0,3.032-.666,19.931,19.931,0,0,0,8.409-5.042.063.063,0,0,1,.049-.017l4.613.575,1.2.153c.271.036.415.057.415.057s-.128-.008-.392-.036l-1.185-.125-4.664-.507.049-.017a19.938,19.938,0,0,1-8.44,5.136,27.787,27.787,0,0,1-3.058.685l-1.649.153a5.439,5.439,0,0,1-.847.03l-.863-.008a20.144,20.144,0,0,1-13.853-6.065,19.8,19.8,0,0,1-4.6-7.418,20.491,20.491,0,0,1-.941-9.224,20.021,20.021,0,0,1,3.545-9.037,9.063,9.063,0,0,1,.739-.969l.774-.936.854-.856a8.281,8.281,0,0,1,.882-.815q.464-.383.924-.762c.3-.263.651-.456.973-.685s.649-.454.991-.648l1.039-.557a19.83,19.83,0,0,1,8.806-2.247,20.205,20.205,0,0,1,14.941,6.2,20.009,20.009,0,0,1,3.978,6.046,22.6,22.6,0,0,1,1.062,3.16,19.641,19.641,0,0,1,.489,3.077,20.01,20.01,0,0,1-1.693,9.791l-.105-.065.007-.01a.063.063,0,0,1,.088-.01.064.064,0,0,1,.02.03c.7,2.181,1.234,3.859,1.6,5,.175.553.308.975.4,1.27S899.91,3936.744,899.91,3936.744Z" transform="translate(-859.305 -3901.831)" fill="#1a2e35"/></g><g transform="translate(26.641 13.361)"><path d="M873.494,3926.441l2.394-2.648,5.08,4.077,7.545-8.665,2.468,2.4-10.128,11.142Z" transform="translate(-873.494 -3919.206)" fill="#1a2e35"/></g><g transform="translate(0 6.996)"><path d="M840.289,3940.614l3.955-.494a.053.053,0,0,1,.042.016,17.106,17.106,0,0,0,7.21,4.322,23.735,23.735,0,0,0,2.6.571l1.4.124a4.636,4.636,0,0,0,.719.022l.732-.009a17.077,17.077,0,0,0,6.07-1.319,16.8,16.8,0,0,0,1.543-.741c-.155-.06-.311-.117-.466-.181a19.838,19.838,0,0,1-6.556-4.443,19.4,19.4,0,0,1-4.506-7.271,20.084,20.084,0,0,1-.923-9.041,19.635,19.635,0,0,1,3.475-8.857,8.793,8.793,0,0,1,.724-.949l.758-.918.326-.327c-.187-.009-.374-.021-.561-.024a17.043,17.043,0,0,0-16.046,10.339,19.287,19.287,0,0,0-.912,2.678,16.776,16.776,0,0,0-.427,2.611,17.162,17.162,0,0,0,1.388,8.337.053.053,0,0,1-.015.063c-.614,1.829-1.088,3.238-1.41,4.2l-.372,1.1c-.085.247-.132.377-.132.377s.124-.019.356-.049Z" transform="translate(-838.862 -3910.966)" fill="#f5f5f5"/><path d="M840.276,3940.576s-.116.025-.347.06l-1.033.15-.048.007.015-.046c.386-1.167,1.027-3.1,1.88-5.684l.02-.029c-.009,0,0,.032-.011,0l-.035-.08-.069-.164-.137-.334c-.092-.226-.176-.459-.261-.7-.168-.478-.318-.982-.452-1.51a16.94,16.94,0,0,1-.5-3.448,16.332,16.332,0,0,1,.813-5.924,14.568,14.568,0,0,1,.8-2.043,17.172,17.172,0,0,1,16.474-9.877l.284.016-.2.2-.325.327.008-.008a20.158,20.158,0,0,0-4.738,9.441,19.572,19.572,0,0,0,12.174,22.035l.242.092-.23.109a21.07,21.07,0,0,1-2.7,1.174,17.544,17.544,0,0,1-2.714.67,18.085,18.085,0,0,1-5.113.07h-.01c-.575-.116-1.143-.212-1.692-.335a14.469,14.469,0,0,1-1.577-.462,17.367,17.367,0,0,1-2.735-1.231,17.09,17.09,0,0,1-3.8-2.9c-.008-.047-.112,0-.188,0l-.233.027-.447.053-.808.095-1.265.146-.777.084c-.175.018-.266.02-.266.02s.088-.02.262-.046l.775-.109,1.262-.17.807-.107.445-.059.234-.03.119-.016a.259.259,0,0,1,.075,0,.1.1,0,0,1,.053.028l.022.021a17.175,17.175,0,0,0,9.771,4.818l-.01,0a21.537,21.537,0,0,0,2.46.136,16.716,16.716,0,0,0,2.6-.227,17.329,17.329,0,0,0,2.678-.671,21,21,0,0,0,2.66-1.167l.013.2a19.783,19.783,0,0,1-12.348-22.291,20.374,20.374,0,0,1,4.8-9.555l.006-.008h0l.326-.326.084.216a16.971,16.971,0,0,0-16.271,9.712,14.372,14.372,0,0,0-.8,2.014,16.216,16.216,0,0,0-.831,5.856,16.877,16.877,0,0,0,.475,3.418c.129.524.275,1.026.438,1.5.083.237.165.47.255.693l.133.333.068.163.034.081c.016.014.033.122-.026.155l.02-.029c-.882,2.583-1.538,4.521-1.949,5.661l-.032-.039,1.038-.122C840.158,3940.582,840.276,3940.576,840.276,3940.576Z" transform="translate(-838.849 -3910.928)" fill="#1a2e35"/></g></g></g></svg>