<svg xmlns="http://www.w3.org/2000/svg" width="283" height="245.369" viewBox="0 0 283 245.369"><g transform="translate(-196.984 -849.569)"><path d="M449.254,914.835l-.519-.784-17.662-18.4a2.928,2.928,0,0,1,1.549-4.412,18.636,18.636,0,0,0,7.414-4.332c7.364-7.025,7.692-18.582.661-25.6a17.877,17.877,0,0,0-25.6-.486,18.388,18.388,0,0,0-4.653,7.208,2.929,2.929,0,0,1-4.474,1.349l-17.6-18.473-.763-.55a2.912,2.912,0,0,0-4.039.054l-20.411,19.58a2.755,2.755,0,0,1-2.9-1.969c-1.734-6-6.724-11.177-15.186-12.813a7.326,7.326,0,0,0-2.666-.024c-17.329,3.048-21.791,21.063-12.478,30.837a16.981,16.981,0,0,0,6.889,4.394,2.728,2.728,0,0,1,1.736,3.172l-20.529,19.7a2.914,2.914,0,0,0-.149,4.133l18.565,19.356.33.256.111.116a2.926,2.926,0,0,0,4.9-1.49c1.7-6.54,7.108-12.378,16.135-14.155a18.082,18.082,0,0,1,5.039.335,18.071,18.071,0,0,1,13.781,14.426,17.709,17.709,0,0,1,.119,5.045c-2.189,8.938-8.263,14.077-14.873,15.472a2.932,2.932,0,0,0-1.7,4.838l.11.115.245.35,18.492,19.41a2.924,2.924,0,0,0,4.139.039l20.6-19.635a2.741,2.741,0,0,1,3.094,1.884,17.021,17.021,0,0,0,4.085,7.085c9.346,9.743,27.531,6.092,31.362-11.078a7.314,7.314,0,0,0,.092-2.666c-1.255-8.527-6.208-13.752-12.112-15.751a2.743,2.743,0,0,1-1.836-2.984l20.471-19.513A2.931,2.931,0,0,0,449.254,914.835Z" transform="translate(30.034 0)" fill="#c1df59"/><path d="M365.792,1071.216h.155l.424.061,26.808.116a2.932,2.932,0,0,0,2.9-2.96l.115-28.458a2.739,2.739,0,0,1,3.5-.921,17.057,17.057,0,0,0,7.936,1.961c13.5.016,23.47-15.629,13.737-30.293a7.44,7.44,0,0,0-1.854-1.915c-7.022-5-14.208-5.047-19.746-2.171a2.752,2.752,0,0,1-3.424-.751l.113-28.278a2.916,2.916,0,0,0-2.744-2.962l-.929-.179-25.507-.015a2.921,2.921,0,0,1-2.1-4.17,18.634,18.634,0,0,0,2.005-8.341,18.044,18.044,0,1,0-36.087-.093,18.447,18.447,0,0,0,1.98,8.354,2.937,2.937,0,0,1-2.136,4.165l-25.515-.118-.92.17a2.879,2.879,0,0,0-2.469,1.706,4.265,4.265,0,0,1,.254,1.419l-.049,29.2-1.6-.318a2.635,2.635,0,0,1-2.346-.046l-.494-.218a19.7,19.7,0,0,0-2.66.2l-.232.03-.233-.039a15.625,15.625,0,0,0-2.773-.349,16.345,16.345,0,0,0-15.981,14.542,16.933,16.933,0,0,0-.153,2.155,19.712,19.712,0,0,0,2.491,9.279c.365.69.731,1.388,1.19,2.085a5.878,5.878,0,0,0,1.489,1.525,18.689,18.689,0,0,0,10.878,3.738,18.037,18.037,0,0,0,2.7-.224l.233-.048.233.039c.745.124,1.326.24,1.865.3.453-.186.91-.373,1.349-.606a2.622,2.622,0,0,1,2.706.2l1.278-.256-.048,29.642a4.725,4.725,0,0,1-.153,1.109,2.857,2.857,0,0,0,2.566,1.681l26.814.018.41-.056h.162a2.926,2.926,0,0,0,2.321-4.573c-3.536-5.752-3.994-13.69.981-21.433a17.918,17.918,0,0,1,3.728-3.4,18.091,18.091,0,0,1,19.951.047,18.081,18.081,0,0,1,3.714,3.425c4.938,7.767,4.428,15.7.859,21.441A2.933,2.933,0,0,0,365.792,1071.216Z" transform="translate(19.701 23.545)" fill="#6f7302"/><path d="M290.6,989.8l-.06.155-.026.056-.154.611a1.533,1.533,0,0,0,1.163,1.434l25.32-.046a3.967,3.967,0,0,1,.985.179v-.007a4.222,4.222,0,0,1,2.37.853l.163-.8.115-28.456a2.748,2.748,0,0,1,3.5-.922,17.02,17.02,0,0,0,7.933,1.96c13.507.016,23.473-15.627,13.741-30.293a7.556,7.556,0,0,0-1.853-1.914c-7.019-5-14.212-5.048-19.753-2.171a2.754,2.754,0,0,1-3.423-.752l.12-28.278a2.926,2.926,0,0,0-2.75-2.96l-.928-.178-25.507-.017a2.922,2.922,0,0,1-2.109-4.169,18.553,18.553,0,0,0,2.014-8.343,17.875,17.875,0,0,0-18-18.216c-9.936-.261-18.079,7.947-18.091,18.125a18.473,18.473,0,0,0,1.98,8.357,2.922,2.922,0,0,1-2.129,4.154l-25.518-.109-.923.17a2.918,2.918,0,0,0-2.759,2.955L226,929.455a2.752,2.752,0,0,1-3.428.729c-5.524-2.9-12.72-2.893-19.764,2.076a7.5,7.5,0,0,0-1.865,1.908c-9.809,14.612.089,30.3,13.592,30.355a16.912,16.912,0,0,0,7.939-1.923,2.732,2.732,0,0,1,3.494.948L225.945,992a3,3,0,0,0,.2,1.008,4.265,4.265,0,0,1,2.355-.829v.007a3.945,3.945,0,0,1,.988-.179l25.322.046a1.518,1.518,0,0,0,1.156-1.425l-.149-.62-.029-.07-.034-.07-.033-.085a19.872,19.872,0,0,1-2.056-8.683h-.005v-.147a19.984,19.984,0,0,1,.865-5.534,19.108,19.108,0,0,1,18.221-14.053l.459.008.386-.008A19.11,19.11,0,0,1,291.8,975.421a20,20,0,0,1,.859,5.543V981A19.834,19.834,0,0,1,290.6,989.8Z" transform="translate(0 4.489)" fill="#6f7302"/><path d="M299.071,1007.384a18.719,18.719,0,0,1,12.456-4.813l.006,1.426v-1.426a17.582,17.582,0,0,1,3.116.364,24.1,24.1,0,0,1,2.884-.216q.709,0,1.424.068l.035-25.75a1.448,1.448,0,0,0-1.258-1.479l-.1-.025-.22-.008-.21-.076-.429-.085-25.635.045-.124-.024a4.385,4.385,0,0,1-3.573-3.944l-.071-.388a4.21,4.21,0,0,1,.43-1.821h-.013l.058-.148.033-.047a17.037,17.037,0,0,0,1.8-7.6v-.039a17.146,17.146,0,0,0-.745-4.729,16.2,16.2,0,0,0-15.414-11.945l-.373.008h-.081l-.389-.008a15.5,15.5,0,0,0-9.181,3.039,16.757,16.757,0,0,0-6.227,8.906,19.138,19.138,0,0,0-.573,2.675,13.494,13.494,0,0,0-.185,2.038v.055a16.88,16.88,0,0,0,1.806,7.6l.035.064.025.07.035.085-.011.006a4.343,4.343,0,0,1,.418,1.808l-.068.349a4.382,4.382,0,0,1-3.573,3.975l-.123.024-25.634-.045-.209.039-.224.046-.209.076-.224.008a1.468,1.468,0,0,0-1.36,1.5l.049,28.8-.335.411a4.3,4.3,0,0,1-3.291,1.574,4.127,4.127,0,0,1-1.938-.481,15.65,15.65,0,0,0-7.242-1.774,18.9,18.9,0,0,0-10.992,3.805,5.808,5.808,0,0,0-1.489,1.528,20.356,20.356,0,0,0-3.682,11.357c0,9.238,7.248,16.681,16.117,16.695h.029a15.6,15.6,0,0,0,7.247-1.774,4.091,4.091,0,0,1,1.879-.465,4.319,4.319,0,0,1,3.481,1.836l.278.389.045,28.921a1.465,1.465,0,0,0,1.419,1.5l26.707-.045.424-.064h.264a1.256,1.256,0,0,0,.946-.4,1.6,1.6,0,0,0,.381-1.046l-.253-.891a19.851,19.851,0,0,1-2.959-10.466,23.25,23.25,0,0,1,3.879-12.536l.051-.076.051-.061a19.533,19.533,0,0,1,4.036-3.69l.036-.024.03-.022a21.468,21.468,0,0,1,10.708-3.218h.045a21.425,21.425,0,0,1,10.7,3.218l.035.015.037.031a19.419,19.419,0,0,1,4.033,3.69l.055.07.049.068a23.208,23.208,0,0,1,3.875,12.545,19.831,19.831,0,0,1-2.956,10.464l-.258.884a1.582,1.582,0,0,0,.388,1.046,1.248,1.248,0,0,0,.948.4h.258l.1.016.32.048,26.716.045a1.471,1.471,0,0,0,1.421-1.5l.046-26.117a14.572,14.572,0,0,1-1.874.134h-.009a14.918,14.918,0,0,1-2.7-.373,19.375,19.375,0,0,1-2.856.239,21.549,21.549,0,0,1-12.117-3.99l-.459-.28a9.046,9.046,0,0,1-2.223-2.294,25.255,25.255,0,0,1-3.263-6.93c-.209-.72-.366-1.441-.5-2.154a21.008,21.008,0,0,1-.408-3.9A19.767,19.767,0,0,1,299.071,1007.384Z" transform="translate(0.324 23.796)" fill="#6f7302"/></g></svg>