<svg xmlns="http://www.w3.org/2000/svg" width="48.931" height="48.931" viewBox="0 0 48.931 48.931"><g transform="translate(-1541.434 -993.95)"><rect width="48.931" height="48.931" transform="translate(1541.434 993.95)" fill="none"/><path d="M1563.179,1018.415h-16.321a2.724,2.724,0,0,1-2.721-2.72V999.373a2.724,2.724,0,0,1,2.721-2.72h16.321a2.724,2.724,0,0,1,2.72,2.72V1015.7A2.723,2.723,0,0,1,1563.179,1018.415Zm-16.321-19.948a.908.908,0,0,0-.907.906V1015.7a.908.908,0,0,0,.907.907h16.321a.908.908,0,0,0,.907-.907V999.373a.908.908,0,0,0-.907-.906Z" fill="#529ad9"/><path d="M1557.739,1005.721H1552.3a.908.908,0,0,1-.907-.907V997.56a.908.908,0,0,1,.907-.907h5.441a.907.907,0,0,1,.906.907v7.254A.907.907,0,0,1,1557.739,1005.721Zm-4.534-1.814h3.627v-5.44H1553.2Z" fill="#529ad9"/><path d="M1561.366,1012.975h-3.627a.907.907,0,1,1,0-1.814h3.627a.907.907,0,0,1,0,1.814Z" fill="#529ad9"/><path d="M1553.908,1036.551h-5.237a.908.908,0,0,1-.907-.907v-14.418a.907.907,0,0,1,1.814,0v13.511h4.33a.907.907,0,0,1,0,1.814Z" fill="#529ad9"/><path d="M1574.06,1036.551h-12.694a.907.907,0,0,1,0-1.814h11.788V1016.6h-4.534a.907.907,0,0,1,0-1.814h5.44a.908.908,0,0,1,.907.907v19.949A.908.908,0,0,1,1574.06,1036.551Z" fill="#529ad9"/><path d="M1586.755,1036.551h-3.627a.907.907,0,1,1,0-1.814h2.72v-6.311a5.391,5.391,0,0,0-5.386-5.386h-5.495v11.7h.907a.907.907,0,0,1,0,1.814h-1.814a.907.907,0,0,1-.906-.907v-13.511a.907.907,0,0,1,.906-.907h6.4a7.21,7.21,0,0,1,7.2,7.2v7.218A.908.908,0,0,1,1586.755,1036.551Z" fill="#529ad9"/><path d="M1557.739,1040.178a4.534,4.534,0,1,1,4.533-4.534A4.539,4.539,0,0,1,1557.739,1040.178Zm0-7.254a2.72,2.72,0,1,0,2.72,2.72A2.724,2.724,0,0,0,1557.739,1032.924Z" fill="#529ad9"/><path d="M1579.5,1040.178a4.534,4.534,0,1,1,4.534-4.534A4.539,4.539,0,0,1,1579.5,1040.178Zm0-7.254a2.72,2.72,0,1,0,2.72,2.72A2.723,2.723,0,0,0,1579.5,1032.924Z" fill="#529ad9"/></g></svg>