<svg xmlns="http://www.w3.org/2000/svg" width="198.65" height="175.048" viewBox="0 0 198.65 175.048"><g transform="translate(-100.858 -39.702)"><path d="M130.509,108.3v15H119.467V109.136Z" transform="translate(10.579 38.999)" fill="#fdfee6"/><g transform="translate(112.699 39.702)"><path d="M178.8,54.243,176.515,99.02l22.193,1.959-2.284-46.736a10.453,10.453,0,0,0-17.625,0Z" transform="translate(-69.689 -34.182)" fill="#d4edcd"/><path d="M159.177,66.8,161.462,97.8s-18.278,1.957-18.6,0,0-31.006,0-31.006,2.693-2.61,8.486-2.61C156.975,64.186,159.177,66.8,159.177,66.8Z" transform="translate(-88.905 -25.783)" fill="#d4edcd"/><path d="M210.744,55.477s5.005-8.051.108-11.314-7.505.979-12.728,0-2.936-3.929-7.179-3.917c-1.959,0-2.1,2.318-2.938,2.936-8.594-7.941-11.586.328-18.276-.652s-13.382-4.569-19.474-1.631a16.39,16.39,0,0,0-7.433,6.654s-2.357,3.885,6.128,9.108S162.21,52,166.623,50.689s12.79,5.44,18.664,5.44c9.791,0,8.594-10.335,17.732-7.712,5.358,1.537,2.285,6.516,2.285,6.516Z" transform="translate(-89.014 -39.702)" fill="#d4edcd"/><g transform="translate(53.509)" opacity="0.7"><path d="M210.744,55.477s5.005-8.051.108-11.314-7.505.979-12.728,0-2.936-3.929-7.179-3.917c-1.959,0-2.1,2.318-2.938,2.936-8.594-7.941-11.586.328-18.276-.652s-13.382-4.569-19.474-1.631a16.39,16.39,0,0,0-7.433,6.654s-2.357,3.885,6.128,9.108S162.21,52,166.623,50.689s12.79,5.44,18.664,5.44c9.791,0,8.594-10.335,17.732-7.712,5.358,1.537,2.285,6.516,2.285,6.516Z" transform="translate(-142.522 -39.702)" fill="#225c59"/></g><g transform="translate(54.04 6.47)" opacity="0.7"><path d="M206.743,52.587s2.448-4.08-2.447-7.344-11.368-.325-13.87,3.1c-3.1,4.243-6.978.14-10.281-1.754-1.8-1.031-3.262-1.016-7.344,0-2.99.745-4.161-3.794-8.159,0-4.9,4.655-4.048,4.295-10.808,4.069-5.789-.193-12.1-3.978-10.8-1.625.808,1.467,2.467,3.275,5.727,5.281,8.486,5.222,13.258-4.665,17.672-5.971s12.79,5.44,18.664,5.44c9.791,0,8.594-10.335,17.732-7.712,5.358,1.537,2.285,6.516,2.285,6.516Z" transform="translate(-142.861 -43.827)" fill="#225c59"/></g><path d="M210.33,55.477s5.005-8.051.108-11.314-7.505.979-12.728,0-2.936-3.929-7.179-3.917c-1.959,0-2.1,2.318-2.938,2.936-8.594-7.941-11.586.328-18.276-.652s-13.382-4.569-19.474-1.631a17.726,17.726,0,0,0-6.553,5.283c-.613.823,6.164,6.9,12.106,1.024,2.023-2,6.2,2.919,9.292-.158,5.192-5.17,9.4,2.775,12.416-.069,4.833-4.556,6.682,4.364,13.908.828,7.162-3.5,12.388-1.91,14.532-.816,3.808,1.945,2.081,7.941,2.081,7.941Z" transform="translate(-88.6 -39.702)" fill="#d4edcd" opacity="0.2"/><path d="M190.255,64.532s5.4-11.235.593-15.045c-6.31-5-9.243-.125-13.091.218s-5.179-1.648-10.089-2.624c-8.693-1.727-10.107,1.007-14.245,0s-15.448-8.037-23.716-1.074c-6.359,5.355-4.351,13.489,2.339,16.5,4.276,1.92,7.656,1.463,12.15-3.041s5.877-2.521,11.4,2.428c6.073,5.44,8.05-5.573,13.337-2.6,3.336,1.874,6.028,2.169,10.379-1.377,2.815-2.295,5-3.833,6.525,0s-.867,7.9-.867,7.9Z" transform="translate(-98.491 -37.847)" fill="#d4edcd"/><g transform="translate(27.359 5.118)" opacity="0.3"><path d="M190.255,64.532s5.4-11.235.593-15.045c-6.31-5-9.243-.125-13.091.218s-5.179-1.648-10.089-2.624c-8.693-1.727-10.107,1.007-14.245,0s-15.448-8.037-23.716-1.074c-6.359,5.355-4.351,13.489,2.339,16.5,4.276,1.92,7.656,1.463,12.15-3.041s5.877-2.521,11.4,2.428c6.073,5.44,8.05-5.573,13.337-2.6,3.336,1.874,6.028,2.169,10.379-1.377,2.815-2.295,5-3.833,6.525,0s-.867,7.9-.867,7.9Z" transform="translate(-125.851 -42.965)" fill="#225c59"/></g><g transform="translate(27.358 15.775)" opacity="0.3"><path d="M185.851,62.409s3.733-6.82.359-10.307c-4.445-4.591-8.2,2.384-12.052,2.728s-2.513.819-6.875-1.636c-7.938-4.469-9.342,6.512-16.529-.74-8.9-8.986-15.607,10.8-24.9-2.695a9.926,9.926,0,0,0,6.2,8.881c4.276,1.92,7.656,1.463,12.15-3.041s5.877-2.521,11.4,2.428c6.073,5.44,8.05-5.573,13.337-2.6,3.336,1.874,6.028,2.169,10.379-1.377,2.815-2.295,5-3.833,6.525,0s-.867,7.9-.867,7.9Z" transform="translate(-125.85 -49.759)" fill="#225c59"/></g><g transform="translate(30.66 5.118)" opacity="0.2"><path d="M189.059,64.532s5.4-11.235.593-15.045c-6.31-5-9.243-.125-13.091.218s-5.179-1.648-10.089-2.624c-8.693-1.727-10.107,1.007-14.245,0s-15.448-8.037-23.716-1.074c-2.1,1.766,1.849,9.958,9.842,2.312,2.99-2.859,7.864-.463,9.794,2.149,3.824,5.173,6.163,4.856,11.961,1.3,5.733-3.512,4.847,8.812,14.8,3.264,8.119-4.528,9.96-2.72,12.173.929,1.568,2.588-.627,9.2-.627,9.2Z" transform="translate(-127.955 -42.965)" fill="#d4edcd"/></g><path d="M174,71.864c.543-6.636,4.993-7.527,2.383-12.422S167.732,57.4,162.217,56.2c-6.492-1.415-8.015-6.1-12.584-4.677-2.282.712-1.6,4.345-1.6,4.345s-8.264-3.826-12.833-3.433-2.753,4.833-7.322,5.833S122,55.654,117.322,57.5c-2.593,1.026-8.219,5.258-8.812,8.813-1.3,7.831,10.158,14.807,16.319,11.422,3.895-2.138,3.156-3.48,6.745-4.459s7.072,2.828,10.663.869,6.745-7.831,6.745-7.831,1.3,5,6.528,4.351,5.4-8.117,10.443-8.268,4.243,9.138,4.243,9.138A9.808,9.808,0,0,1,174,71.864Z" transform="translate(-108.408 -33.135)" fill="#d4edcd"/><g transform="translate(0 27.828)" opacity="0.2"><path d="M170.847,68.019c.136-1.659,2.848-9.336-3.217-10.445-2.528-.461-6.737,0-10.76,6.406-1.8,2.87-5.893,1.936-7.89-1.183-1.888,2.986-8.029,8.388-11.913,3.426-2.938-3.753-8.2-.226-11.586,3.1-5.385,5.3-8.649,1.3-8.159-.979-7.832,4.569-8.68-6.335-8.812-5.548-1.3,7.831,10.158,14.807,16.319,11.422,3.895-2.138,3.156-3.48,6.745-4.459s7.072,2.828,10.663.869S148.98,62.8,148.98,62.8s1.3,5,6.528,4.351,5.4-8.117,10.443-8.268,4.243,9.138,4.243,9.138S168.82,67.424,170.847,68.019Z" transform="translate(-108.408 -57.444)" fill="#225c59"/></g><path d="M173.971,71.864c.543-6.636,4.993-7.527,2.383-12.422S167.7,57.4,162.185,56.2c-6.492-1.415-8.015-6.1-12.584-4.677-2.282.712-1.6,4.345-1.6,4.345s-8.264-3.826-12.833-3.433-2.753,4.833-7.322,5.833-5.874-2.612-10.553-.762c-2.593,1.026-8.219,5.258-8.812,8.813-.376,2.257,6.963,7.831,10.1,2.67,1.537,3.857,9.188,2.812,11.436-1.909,2.177-4.569,7.008-4.089,10.009-1.089,5.9,4.244,11.5-7.51,14.579-4.429,3.374,3.374,8.834-2.461,12.992-2.067,10.071.957,4.345,11.778,4.345,11.778Z" transform="translate(-108.375 -33.135)" fill="#fff" opacity="0.3"/><path d="M196.2,57.55s-2.806-3.357-9.171-3.352a13.927,13.927,0,0,0-9.19,3.424l-.292,5.73a14.437,14.437,0,0,1,9.34-3.443c6.588,0,9.6,3.443,9.6,3.443Z" transform="translate(-69.104 -31.461)" fill="#fd8356"/><path d="M197.033,65.452s-2.993-3.357-9.78-3.352a15.345,15.345,0,0,0-9.8,3.424l-.312,5.73a15.926,15.926,0,0,1,9.96-3.443c7.025,0,10.233,3.443,10.233,3.443Z" transform="translate(-69.333 -26.968)" fill="#fd8356"/><path d="M197.872,73.671s-3.181-3.357-10.4-3.352a16.889,16.889,0,0,0-10.421,3.424l-.331,5.73a17.536,17.536,0,0,1,10.59-3.443c7.471,0,10.881,3.443,10.881,3.443Z" transform="translate(-69.571 -22.296)" fill="#fd8356"/><path d="M176.06,59.751c0,3.59,2.612,37.206,2.612,37.206s-19.256,1.3-19.583,0,0-37.206,0-37.206,2.6-3.264,8.73-3.264C173.531,56.487,176.06,59.751,176.06,59.751Z" transform="translate(-79.678 -30.159)" fill="#d4edcd"/><path d="M159.038,63.013a17.469,17.469,0,0,1,8.795-2.365,18.077,18.077,0,0,1,8.545,2.041l.344,5.058a16.317,16.317,0,0,0-8.889-2.2,15.444,15.444,0,0,0-8.889,2.61Z" transform="translate(-79.678 -27.794)" fill="#fd8356"/><path d="M159.041,70.377a18.667,18.667,0,0,1,9.14-2.365,19.352,19.352,0,0,1,8.881,2.041l.358,5.057a17.452,17.452,0,0,0-9.238-2.2,16.471,16.471,0,0,0-9.237,2.612Z" transform="translate(-79.678 -23.608)" fill="#fd8356"/><path d="M142.784,70.242a18.827,18.827,0,0,1,8.57-1.841,19.83,19.83,0,0,1,8.235,1.841l.334,4.522a17.833,17.833,0,0,0-8.569-1.876c-5.661,0-8.608,1.877-8.608,1.877C142.749,74.276,142.784,70.242,142.784,70.242Z" transform="translate(-88.886 -23.389)" fill="#fd8356"/><path d="M142.785,76.587a20.292,20.292,0,0,1,8.936-1.84,21.372,21.372,0,0,1,8.587,1.84l.347,4.522a19.223,19.223,0,0,0-8.934-1.874c-5.9,0-8.975,1.876-8.975,1.876C142.751,80.623,142.785,76.587,142.785,76.587Z" transform="translate(-88.886 -19.781)" fill="#fd8356"/><g transform="translate(53.954 38.378)" opacity="0.2"><path d="M151.618,64.2c-.11,0-.213,0-.326-.009-4.08-.326-8.486,2.61-8.486,2.61V98.622s6.076.085,8.812-.047Z" transform="translate(-142.806 -64.17)" fill="#225c59"/></g><g transform="translate(56.79 38.489)" opacity="0.4"><path d="M148.874,64.241l-2.777.534-1.483,33.748,4.1.059Z" transform="translate(-144.614 -64.241)" fill="#225c59"/></g><g transform="translate(79.41 26.357)" opacity="0.2"><path d="M166.841,56.506a13.886,13.886,0,0,0-7.8,3.234V96.946s6.632.594,9.588.5C168.141,91.457,167.584,66.05,166.841,56.506Z" transform="translate(-159.036 -56.506)" fill="#225c59"/></g><g transform="translate(83.327 26.518)" opacity="0.4"><path d="M164.148,56.609l-2.562.7-.053,40.1,3.961.016Z" transform="translate(-161.533 -56.609)" fill="#225c59"/></g><g transform="translate(107.151 15.23)" opacity="0.2"><path d="M187.527,49.414l-.022,0c-5.723,0-8.824,4.831-8.824,4.831l-1.959,45.634,11.874.22Z" transform="translate(-176.722 -49.412)" fill="#215c59"/></g><g transform="translate(111.395 15.356)" opacity="0.4"><path d="M184.343,49.492l-4.329,1.78-.586,48.106,5.133.453Z" transform="translate(-179.428 -49.492)" fill="#215c59"/></g></g><path d="M245.671,86.471c-.489.163-69.026-12.4-69.026-12.4l-8.8,11.039-21.876-2.389-6.376,9.568H121.815l-2.938,27.8Z" transform="translate(10.244 19.538)" fill="#ff8158"/><path d="M224.733,86.145c-.489.163-69.026-12.4-69.026-12.4l3.264,93.994,71.148.373Z" transform="translate(31.181 19.352)" fill="#d4edcd"/><path d="M222.4,86.264c-1.776.226-66.694-12.521-66.694-12.521l3.264,93.994,68.863.361Z" transform="translate(31.181 19.352)" fill="#fdfee6"/><path d="M100.858,132.713c2.166,1.3,37.021,28.721,100.5,29.155S299.508,135.1,299.508,135.1Z" transform="translate(0 52.876)" fill="#83b465"/><path d="M101.4,132.713c1.256.758,13.516,10.3,35.984,18.27,14.276-3.91,52.466-17.208,52.466-17.208Z" transform="translate(0.308 52.876)" fill="#225c59" opacity="0.4"/><path d="M152.813,105.073v13.381h-10.1V106.7Z" transform="translate(23.795 37.163)" fill="#00b5a0"/><path d="M140.916,106.5v14.2h-10.97v-13.02Z" transform="translate(16.536 37.976)" fill="#fdfee6"/><path d="M121.074,110.125v13.617h-10.4V111.466Z" transform="translate(5.579 40.035)" fill="#fdfee6"/><rect width="11.242" height="11.749" transform="translate(166.508 162.308)" fill="#00b5a0"/><path d="M141.476,117.86v14.717h-11.7V117.86Z" transform="translate(16.441 44.433)" fill="#fdfee6"/><path d="M130.331,118.9v13.085H119.779V120.167Z" transform="translate(10.756 45.024)" fill="#fdfee6"/><path d="M120.779,119.665v12.192h-9.587V120.944Z" transform="translate(5.874 45.459)" fill="#fdfee6"/><path d="M152.813,105.073v13.381h-10.1V106.7Z" transform="translate(23.795 37.163)" fill="#00b5a0"/><path d="M154.2,104.212v16.083H142.064V106.173Z" transform="translate(23.425 36.674)" fill="#fdfee6"/><rect width="13.526" height="14.137" transform="translate(165.366 161.114)" fill="#fdfee6"/><path d="M111.907,129.558v0Z" transform="translate(6.281 46.331)" fill="#00b5a0"/><path d="M162.047,105.073v12.565l11.705.816v-11.9Z" transform="translate(34.785 37.163)" fill="#00b5a0"/><path d="M162.047,105.073v1.2l10.618,1.2,0,10.912,1.083.076v-11.9Z" transform="translate(34.785 37.163)" fill="#225c59"/><path d="M162.047,118.13v11.341h10.215V118.538Z" transform="translate(34.785 44.586)" fill="#00b5a0"/><path d="M162.047,118.13v1.061l9.271.367-.041,9.914h.985V118.538Z" transform="translate(34.785 44.586)" fill="#225c59"/><path d="M175.266,106.6v42.179l32.477.561-2.94-39.966Z" transform="translate(42.301 38.031)" fill="#ff8258"/><path d="M175.266,110.037v3.481L204.2,116.24l-.1-3.429Z" transform="translate(42.301 39.985)" fill="#225c59" opacity="0.5"/><path d="M175.266,113.6v3.59l30.5,2.522-.253-3.44Z" transform="translate(42.301 42.013)" fill="#225c59" opacity="0.5"/><path d="M175.266,117.246v3.59l30.5,2.1-.253-3.44Z" transform="translate(42.301 44.083)" fill="#225c59" opacity="0.5"/><path d="M175.266,121.1v3.427l30.5,1.645-.253-3.44Z" transform="translate(42.301 46.272)" fill="#225c59" opacity="0.5"/><path d="M175.266,125.049v3.508l30.5,1.06-.253-3.44Z" transform="translate(42.301 48.519)" fill="#225c59" opacity="0.5"/><path d="M175.266,129v3.807h30.5l-.253-3.44Z" transform="translate(42.301 50.767)" fill="#225c59" opacity="0.5"/><path d="M175.266,104.819V92.172l29.482,4.651v11.152Z" transform="translate(42.301 29.829)" fill="#00b5a0"/><path d="M201.7,99.189l-26.436-3.965V92.172l29.482,4.651v11.152l-3.139-.362Z" transform="translate(42.301 29.829)" fill="#225c59"/><path d="M175.266,97.478v2.578L204.2,103.19v-1.984Z" transform="translate(42.301 32.846)" fill="#225c59" opacity="0.5"/><path d="M175.266,94.987v2.521l28.937,3.617V99.358Z" transform="translate(42.301 31.429)" fill="#225c59" opacity="0.5"/><path d="M105.664,125.732l23.662-33.023.544,23.722,23.608-33.29.326,28.068,30.352-37.882L254.611,86v1.591L184.219,75.14l-30.425,37.448L153.5,85.1l-24.174,33.779.065-23.331-21.932,30.185Z" transform="translate(2.732 19.116)" fill="#e35c55"/><g transform="translate(108.396 92.442)" opacity="0.3"><path d="M105.664,125.732l23.662-33.023.544,23.722,23.608-33.29.326,28.068,30.352-37.882L254.611,86v1.591L184.219,75.14l-30.425,37.448L153.5,85.1l-24.174,33.779.065-23.331-21.932,30.185Z" transform="translate(-105.664 -73.327)"/></g><rect width="79.96" height="3.794" transform="translate(110.192 184.82)"/><g transform="translate(110.192 93.607)" opacity="0.3"><path d="M183.505,74.069c.326.987,3.264,94.626,3.264,94.626s-79.96.987-79.96,0V125.654c0-.987,21.54-32.2,21.54-32.2l.326,25.3,23.559-33.141-.224,28.213Z" transform="translate(-106.809 -74.069)" fill="#245e59"/></g><path d="M183.505,74.069c.326.987,3.264,94.626,3.264,94.626s-79.96.987-79.96,0V125.654c0-.987,21.866-31.409,21.866-31.409v24.509l23.559-33.141-.224,28.213Z" transform="translate(3.383 19.538)" fill="#d4edcd"/><g transform="translate(196.026 140.79)" opacity="0.4"><path d="M162.339,104.151c-.48.3-.806,34.736-.806,34.736l7.833.326L164.8,104.184Z" transform="translate(-161.533 -104.151)" fill="#fdfee6"/></g><path d="M152.813,105.073v13.381h-10.1V106.7Z" transform="translate(23.795 37.163)" fill="#00b5a0"/><path d="M152.813,105.073v.816l-10.1,1.578V106.7Z" transform="translate(23.795 37.163)" fill="#225c59"/><path d="M143.675,117.919h-.961V106.17l.961-.155Z" transform="translate(23.795 37.698)" fill="#225c59"/><rect width="11.242" height="11.749" transform="translate(166.508 162.308)" fill="#00b5a0"/><path d="M142.714,117.87h11.242v.775l-11.242.04Z" transform="translate(23.795 44.438)" fill="#225c59"/><path d="M142.714,117.87h.961l-.027,11.749h-.934Z" transform="translate(23.795 44.438)" fill="#225c59"/><path d="M139.668,107.258v11.825H130.53V108.237Z" transform="translate(16.868 38.405)" fill="#00b5a0"/><path d="M139.668,107.258v.707L130.53,109v-.762Z" transform="translate(16.868 38.405)" fill="#225c59"/><path d="M131.346,118.76h-.816V107.914l.816-.087Z" transform="translate(16.868 38.729)" fill="#225c59"/><path d="M128.879,109.339v11.749H120.23v-11.1Z" transform="translate(11.013 39.588)" fill="#00b5a0"/><path d="M128.879,109.339l-7.622.575h0l-1.027.078v11.1h1.027V110.781l7.622-.6Z" transform="translate(11.013 39.588)" fill="#225c59"/><path d="M119.546,111.061v10.679h-8.159v-9.628Z" transform="translate(5.985 40.567)" fill="#00b5a0"/><path d="M119.546,111.061l-7.343.946h0l-.816.105v9.628h.816v-9l7.343-.98Z" transform="translate(5.985 40.567)" fill="#225c59"/><path d="M119.25,120.575v9.338h-7.343v-8.359Z" transform="translate(6.281 45.976)" fill="#00b5a0"/><path d="M119.25,120.575l-7.343.979v8.359h.876v-7.6l6.467-1.042Z" transform="translate(6.281 45.976)" fill="#225c59"/><path d="M128.7,119.847v10.117h-8.159v-9.138Z" transform="translate(11.19 45.562)" fill="#00b5a0"/><path d="M128.7,119.847l-8.159.979v9.138h.87v-8.229l7.289-.974Z" transform="translate(11.19 45.562)" fill="#225c59"/><path d="M139.869,118.806v11.75H130.53v-11.75Z" transform="translate(16.868 44.97)" fill="#00b5a0"/><path d="M139.869,118.806H130.53v11.75h.816v-10.9l8.523-.074Z" transform="translate(16.868 44.97)" fill="#225c59"/><path d="M175.266,106.6v3.481l25.783,2.339,2.119,36.865,4.574.055-2.94-39.966Z" transform="translate(42.301 38.031)" fill="#225c59"/><path d="M175.266,108.368v.707l25.783,2.339,2.119,36.865.655,0L201.7,110.629Z" transform="translate(42.301 39.036)"/><path d="M201.7,98.381l-26.436-3.965v-.822l27.2,4.134-.112,9.162-.743-.086Z" transform="translate(42.301 30.638)"/><rect width="154.393" height="3.794" transform="translate(110.192 184.82)" opacity="0.7"/><rect width="154.393" height="3.794" transform="translate(110.192 183.575)" fill="#e35c55"/><path d="M183.505,74.069c.326.987,3.264,95.008,3.264,95.008s-79.96.6-79.96-.383V125.654c0-.987,21.866-31.409,21.866-31.409v24.211l23.559-32.843-.38,27.551Z" transform="translate(3.383 19.538)" fill="#225c59" opacity="0.4"/><g transform="translate(110.192 93.607)" opacity="0.5"><path d="M106.809,125.309l21.867-31.065.486,23.533,23.666-33.1.317,27.489,30.362-38.1.063.648,68.964,12.243.147,1.306L183.832,76.109l-30.141,36.96-1.835.094.364-25.647-22.112,30.9-1.426.042-.431-20.7L108.231,125.31Z" transform="translate(-106.809 -74.069)" fill="#225c59"/></g><path d="M237.706,137.078c0,1.118-8.5,2.025-18.994,2.025s-19-.907-19-2.025,8.5-2.026,19-2.026S237.706,135.96,237.706,137.078Z" transform="translate(56.2 54.206)" fill="#225c59"/><g transform="translate(253.229 150.686)"><path d="M204.264,110.46s-12.537,9.748-2.132,29.574c9.085,17.308,25.054,9.932,25.054,9.932s7.985-9.549,0-22.737C217.374,111.026,203.874,112.46,204.264,110.46Z" transform="translate(-198.003 -110.46)" fill="#225c59"/><path d="M230.677,118.55s-11.731,1.139-16.383,11.3c-6.189,13.522,1.131,15.859,1.131,15.859S232.62,129.357,230.677,118.55Z" transform="translate(-190.154 -105.861)" fill="#225c59"/><path d="M203.942,110.46s-10.961,11.869-1.565,29.009,25.052,9.93,25.052,9.93,7.438-9.231,0-22.735S203.551,112.46,203.942,110.46Z" transform="translate(-197.68 -110.46)" fill="#83b465"/><g transform="translate(0.891)" opacity="0.2"><path d="M203.942,110.46a23.536,23.536,0,0,0-5.2,12.3c-.549,4.6.111,10.283,3.634,16.711,4.7,8.57,10.961,11.053,16.049,11.392a20.36,20.36,0,0,0,9-1.462S194.938,125.326,203.942,110.46Z" transform="translate(-198.571 -110.46)" fill="#225c59"/></g><g transform="translate(7.722 4.662)" opacity="0.5"><path d="M203,113.432s-.75,4.748,2.579,10.832,18.593,19.509,18.593,19.509,3.768-10-2.544-18.8A27.823,27.823,0,0,0,203,113.432Z" transform="translate(-202.926 -113.432)" fill="#d0f3d3"/></g><path d="M230.612,118.55s7.645,8.277,1.092,20.234-17.475,6.926-17.475,6.926-5.189-6.439,0-15.859S230.885,119.944,230.612,118.55Z" transform="translate(-190.089 -105.861)" fill="#83b465"/><g transform="translate(23.907 15.939)" opacity="0.5"><path d="M228.792,120.622a12.924,12.924,0,0,1-1.8,7.555c-2.321,4.244-12.97,13.608-12.97,13.608s-2.627-6.977,1.776-13.113A19.407,19.407,0,0,1,228.792,120.622Z" transform="translate(-213.245 -120.622)" fill="#d0f3d3"/></g></g></g></svg>