<svg xmlns="http://www.w3.org/2000/svg" width="295" height="260.699" viewBox="0 0 295 260.699"><g transform="translate(-576.981 -1787.436)"><path d="M800.271,2027.229l10.277-1.139-10.277-92.668V1795.675H784.995l-.442-3.983-35.911,3.983H621.131v14.141l-14.626,1.622,14.626,131.886v88.185h9.78l1.589,14.326,129.18-14.326h38.592Z" transform="translate(15.955 2.3)" opacity="0.36"/><path d="M794.777,1872.755l1.359,5.485-10.623,2.74.809,3.138-5.251,1.611a9.06,9.06,0,0,1-7.451-.973l-24.368-15.2a12.814,12.814,0,0,0-10.992-1.229L725,1872.945l-9.284-1.988a10.187,10.187,0,0,0-8.193,1.768L686.167,1888.5a5.839,5.839,0,0,1-5.445.8l-8.463-3.042.7-2.722-10.623-2.739,1.359-5.485-86.715-21.481v64.59l71.625,17.742.171-.689.015,0,1.99-8.038,10.177,2.625,1.485-5.758,19.952,8.228-.011.011.921.38.011-.011.025.011h0l0,0,8.891-9.17-9.116,9.481c-5.008,5.209-.71,14.027,6.442,12.995a14.734,14.734,0,0,0,4.064-1.268s1.317,10.979,12.872,10.113c0,0,1.573,11.106,14.364,8.389h0a5.25,5.25,0,0,0,.382.572l.092.12a8.663,8.663,0,0,0,7.164,3.253h.019a12.1,12.1,0,0,0,1.739-.168l.168-.029a20.222,20.222,0,0,0,6.693-2.7l2.422,2.436c3.292,3.312,8.4,3.486,11.419.388l.109-.113c3.015-3.1,2.791-8.289-.5-11.6l.607.61a7.44,7.44,0,0,0,10.644-.054l1.325-1.359a7.715,7.715,0,0,0,2.075-6.574,8.437,8.437,0,0,0,6.8-2.539l.122-.125a8.794,8.794,0,0,0,1.471-10.179,7.431,7.431,0,0,0,6.939-2.087,7.7,7.7,0,0,0,2.147-5.977l13.667-4.27,1.148,4.45,10.177-2.625,1.99,8.038.015,0,.171.689,62.114-15.387v-64.588Z" transform="translate(0 35.773)" opacity="0.36"/><rect width="179.14" height="235.834" transform="translate(621.845 1807.181) rotate(-6.328)" fill="#ede2d9"/><path d="M683.991,1794.263l-68.4,7.585v133.508L626.1,2030.1h70.929l97.7-10.835v-93.808l-14.549-131.191Z" transform="translate(20.866 3.689)" fill="#b7ac9a" opacity="0.66"/><rect width="179.14" height="235.834" transform="translate(636.471 1791.418)" fill="#fff"/><rect width="117.883" height="2.294" transform="translate(667.001 1851.674)" fill="#b9c9bc"/><rect width="137.55" height="2.294" transform="translate(657.168 1871.34)" fill="#b9c9bc"/><rect width="137.55" height="2.294" transform="translate(657.168 1861.507)" fill="#b9c9bc"/><rect width="137.55" height="2.294" transform="translate(657.168 1889.988)" fill="#b9c9bc"/><rect width="137.55" height="2.294" transform="translate(657.168 1880.155)" fill="#b9c9bc"/><rect width="32.661" height="2.294" transform="translate(761.689 1995.896)" fill="#b9c9bc"/><rect width="32.661" height="2.294" transform="translate(761.689 1986.063)" fill="#b9c9bc"/><g transform="translate(656.693 1962.951)"><path d="M675.965,1933.411a24.258,24.258,0,1,1-15.2-30.753A24.283,24.283,0,0,1,675.965,1933.411ZM631,1918.194a23.213,23.213,0,1,0,29.428-14.548A23.24,23.24,0,0,0,631,1918.194Z" transform="translate(-628.728 -1901.376)" fill="#4893c1"/></g><g transform="translate(692.988 1981.185)"><path d="M660.128,1925.963a20.861,20.861,0,0,1-7.154,9.963l-.684-.9a19.859,19.859,0,0,0,6.981-21.489l1.081-.325A20.826,20.826,0,0,1,660.128,1925.963Z" transform="translate(-652.29 -1913.213)" fill="#4893c1"/></g><g transform="translate(659.964 1970.522)"><path d="M632.824,1928.68l-1.081.325a20.986,20.986,0,0,1,7.378-22.714l.684.9a19.859,19.859,0,0,0-6.981,21.489Z" transform="translate(-630.852 -1906.291)" fill="#4893c1"/></g><g transform="translate(663.791 1969.62)"><path d="M667.381,1928.793a17.483,17.483,0,1,1-10.957-22.163A17.5,17.5,0,0,1,667.381,1928.793Zm-32.05-10.844a16.352,16.352,0,1,0,20.731-10.248A16.369,16.369,0,0,0,635.331,1917.948Z" transform="translate(-633.336 -1905.705)" fill="#4893c1"/></g><rect width="137.55" height="2.294" transform="translate(657.266 1898.692)" fill="#b9c9bc"/><rect width="137.55" height="2.294" transform="translate(657.266 1917.34)" fill="#b9c9bc"/><rect width="137.55" height="2.294" transform="translate(657.266 1907.506)" fill="#b9c9bc"/><g transform="translate(658.86 1817.936)"><path d="M638.484,1807.3c3.372,0,7.023,1.838,7.651,6.187h-4.093a3.417,3.417,0,0,0-3.558-2.4c-2.442,0-4.047,1.838-4.047,4.535a4.223,4.223,0,0,0,4.047,4.512,3.465,3.465,0,0,0,3.628-2.628H646.2c-.6,4.6-4.255,6.417-7.721,6.417a8.314,8.314,0,1,1,0-16.627Z" transform="translate(-630.135 -1807.203)" fill="#5294db"/><path d="M641.985,1815.678c0-11.256,16.7-11.256,16.7,0C658.682,1826.957,641.985,1826.957,641.985,1815.678Zm12.442,0a4.093,4.093,0,1,0-8.163,0A4.093,4.093,0,1,0,654.427,1815.678Z" transform="translate(-623.731 -1807.236)" fill="#5294db"/><path d="M659.163,1815.72v8h-4.3v-16.349h1.513l8.232,8.046v-7.976h4.255v16.3h-1.488Z" transform="translate(-616.773 -1807.162)" fill="#5294db"/><path d="M665.594,1811.137v-3.72h12.092v3.72H673.71V1823.7h-4.116v-12.559Z" transform="translate(-610.972 -1807.138)" fill="#5294db"/><path d="M688.871,1823.091v.6H684.22l-2.791-4.791h-2.163v4.791H675.1v-16.279h7.14c6.394.023,7.557,7.72,3.441,10.512Zm-6.627-11.954c-.977-.023-2,0-2.978,0v4.07h2.978C684.5,1815.207,684.616,1811.162,682.244,1811.137Z" transform="translate(-605.833 -1807.138)" fill="#5294db"/><path d="M696.267,1821.722h-6.419l-.954,2.047h-4.07v-.605l7.326-15.883h1.79l7.349,15.883v.605h-4.07Zm-3.233-7.836-1.836,4.278h3.72Z" transform="translate(-600.58 -1807.211)" fill="#5294db"/><path d="M704.375,1807.3c3.372,0,7.023,1.838,7.651,6.187h-4.093a3.417,3.417,0,0,0-3.558-2.4c-2.441,0-4.047,1.838-4.047,4.535a4.222,4.222,0,0,0,4.047,4.512,3.465,3.465,0,0,0,3.628-2.628H712.1c-.605,4.6-4.256,6.417-7.721,6.417a8.314,8.314,0,1,1,0-16.627Z" transform="translate(-594.526 -1807.203)" fill="#5294db"/><path d="M707.483,1811.137v-3.72h12.094v3.72H715.6V1823.7h-4.116v-12.559Z" transform="translate(-588.335 -1807.138)" fill="#5294db"/></g><circle cx="13.669" cy="13.669" r="13.669" transform="translate(667.284 1973.541)" fill="#4893c1"/><g transform="translate(748.681 1976.509)"><path d="M740.49,1923.258a37.385,37.385,0,0,1-9.2,6.094,10.409,10.409,0,0,1-2.414.772c-1.191.194-1.978.042-2.482-1.125-.545-1.255.011-2.5-.16-3.853-.025-.2-.12-.541-.365-.558-.989-.066-1.912,1-2.617,1.616-.531.464-1.034.953-1.514,1.46a6.493,6.493,0,0,0-.159-4.124c-.06-.129-.211-.288-.368-.194-2.14,1.274-3.891,3.44-5.533,5.282-.394.444-.781.9-1.166,1.347a2.447,2.447,0,0,0-.092-.444,6.09,6.09,0,0,0,1.188-1.239c.841-1.228,1.4-3.2.669-4.617-1.081-2.1-3.364-.727-4.6.468-.344.331-.117,1.792.382,1.311.47-.454,1.836-1.734,2.625-1.394l1.044,1.833q-.159.391-.322.781a4.5,4.5,0,0,1-1.137,1.343,6.187,6.187,0,0,1-1.215.793,2.78,2.78,0,0,0-.461.134.273.273,0,0,0-.092.062,1.479,1.479,0,0,1-.4.044c-1.41-.075-1.017-2.13-.662-3.172.08-.233-.123-1.6-.519-1.038a17.318,17.318,0,0,1-1.482,1.975c-.695.738-1.927,2.19-2.975,2.425-.447.1-1,.106-1.128-.622a3.668,3.668,0,0,1,.361-1.032,20.086,20.086,0,0,0,1.043-2.785c.071-.3.126-1.086-.328-1.142-1.192-.148-2.754.73-3.868,1.086-.921.293-1.824.615-2.713.973.034-.38.055-.758.062-1.13.054-3.044-.824-6.528.194-9.471a4.69,4.69,0,0,1,3.344-2.908c.8-.26,3.237-.912,4.289-.259.056.253.176.441.353.412l.151-.026c.547-.094.41-1.1.191-1.414-.85-1.215-3.424-.65-4.554-.355a5.862,5.862,0,0,0-4.027,2.788c-1.964,3.9-.362,8.488-.816,12.7-.347.153-.69.311-1.032.482a31.662,31.662,0,0,0-7.265,4.808c-1.24,1.134-2.69,2.966-2.158,4.8.558,1.927,2.637,1.469,4.073.9,3.9-1.554,6.2-5.619,6.97-9.687.913-.39,1.844-.733,2.8-1.04a25.751,25.751,0,0,1,3.24-1.1c-.752,1.742-2.013,4.3-.853,5.541,1.253,1.339,3.669-1.064,5.221-2.932a2.437,2.437,0,0,0,.767,2.507,2.368,2.368,0,0,0,2.4-.014c.35-.014.513.222.552.605-1.154,1.406-2.261,2.848-3.307,4.338a30.139,30.139,0,0,0-3.683,6.3c-.333.863-1,2.343-.5,3.253,1.249,2.275,6.3-7.221,6.756-8.288a25.3,25.3,0,0,0,1.411-4.652c.687-.824,1.386-1.639,2.109-2.432a46.336,46.336,0,0,1,3.74-3.8c1.406-1.221.884.745.639,1.673a10.1,10.1,0,0,1-1.114,2.8c-.253.39.035,1.839.384,1.31a17.889,17.889,0,0,1,2.522-3.035c.621-.6,1.813-2.029,2.851-2.253-.037,1.333-.642,2.668-.046,3.976.715,1.565,2.412,1.769,3.928,1.419,4.321-1,8.155-4.171,11.459-6.966C741.237,1924.261,741.029,1922.8,740.49,1923.258Zm-41.849,4.712a12.176,12.176,0,0,1-4.724,6.836,6.086,6.086,0,0,1-3.448,1.248c-2.4-.316-.046-2.778.628-3.394a31.008,31.008,0,0,1,7.084-4.656c.171-.085.344-.16.514-.242C698.678,1927.831,698.661,1927.9,698.641,1927.97Zm13.68,7.792a30.57,30.57,0,0,1-2.862,5.088,18.128,18.128,0,0,1-1.9,2.391c-.607.618-.744.83-.482-.035a19.387,19.387,0,0,1,2.6-4.991q1.705-2.554,3.615-4.957C712.927,1934.366,712.462,1935.44,712.322,1935.762Z" transform="translate(-688.445 -1910.177)" fill="#001d4f"/><path d="M700.2,1917.166a1.983,1.983,0,0,0,.564,2.466c.431.407.63-.838.328-1.123a2.349,2.349,0,0,1-.451-.457c.04.014.12-.108.143-.12a3.7,3.7,0,0,0,.385-.345,3.689,3.689,0,0,1,1.34-.766c.47-.106.393-1.389,0-1.3A3.937,3.937,0,0,0,700.2,1917.166Z" transform="translate(-682.217 -1907.292)" fill="#001d4f"/></g><path d="M794.74,1863.116l-20.833,5.162,1.359,5.484-10.623,2.74.809,3.138-5.251,1.611a9.055,9.055,0,0,1-7.451-.974l-24.368-15.2a12.808,12.808,0,0,0-10.992-1.229l-13.261,4.615-9.284-1.99a10.188,10.188,0,0,0-8.194,1.768L665.3,1884.018a5.84,5.84,0,0,1-5.445.8l-8.463-3.044.7-2.72-10.623-2.741,1.359-5.485-27.225-6.744v64.59l12.135,3.005.171-.689.015,0,1.99-8.038,10.178,2.625,1.485-5.757,19.951,8.228-.011.009.921.38.011-.01.025.01,0,0,8.891-9.17-9.116,9.48c-5.008,5.21-.71,14.029,6.442,13a14.847,14.847,0,0,0,4.064-1.268s1.317,10.979,12.872,10.113c0,0,1.573,11.1,14.364,8.387h0a5.268,5.268,0,0,0,.382.571l.092.12a8.658,8.658,0,0,0,7.164,3.253h.019a11.86,11.86,0,0,0,1.739-.168c.055-.009.112-.018.168-.029a20.206,20.206,0,0,0,6.693-2.7l2.422,2.436c3.292,3.31,8.4,3.484,11.419.388l.109-.114c3.015-3.1,2.791-8.289-.5-11.6l.607.61a7.441,7.441,0,0,0,10.644-.054l1.325-1.36a7.714,7.714,0,0,0,2.075-6.573,8.438,8.438,0,0,0,6.8-2.54l.122-.125a8.792,8.792,0,0,0,1.471-10.177,7.432,7.432,0,0,0,6.94-2.089,7.7,7.7,0,0,0,2.147-5.975l13.667-4.27,1.148,4.45,10.178-2.625,1.99,8.038.015,0,.171.69,9.931-3.108Z" transform="translate(20.87 40.899)" fill="#6d645b" opacity="0.4"/><path d="M687.505,1872.981l-42.235,43.925c-5.008,5.209-.71,14.029,6.442,12.995a14.752,14.752,0,0,0,4.064-1.268s1.317,10.978,12.872,10.115c0,0,1.573,11.1,14.365,8.387,0,0,6.208,11.478,23.753-4.711,8.657-7.987,37.294-31.167,37.294-31.167Z" transform="translate(35.732 46.23)" fill="#e67e4b"/><path d="M807.861,1856.48,744.595,1875.9a9.06,9.06,0,0,1-7.453-.974l-24.366-15.2a12.809,12.809,0,0,0-10.992-1.229l-27.229,9.477,14.326,11.491-42.235,43.927c-5.008,5.208-.71,14.027,6.442,12.995a14.8,14.8,0,0,0,4.064-1.268s1.317,10.978,12.872,10.113c0,0,1.573,11.1,14.364,8.388,0,0,6.208,11.478,23.753-4.711,8.657-7.987,37.293-31.167,37.293-31.167l73.5-22.963Z" transform="translate(36.476 37.313)" fill="#ffa97d"/><path d="M710.857,1892.643c5.8-2.7,4.812-7.7,2.462-9.524l-17.7-14.093a15.71,15.71,0,0,0-6.5-3.073l-17.669-3.787-7.165,2.494,14.326,11.492-11.619,12.086c1.714-.094,10.276-.708,17.333-4C684.325,1884.236,698.394,1898.45,710.857,1892.643Z" transform="translate(47.181 40.385)" fill="#ea8f68"/><path d="M739.515,1881.8l-17.7-14.093a15.713,15.713,0,0,0-6.5-3.073l-23.619-5.062a10.2,10.2,0,0,0-8.193,1.768l-21.353,15.772a5.84,5.84,0,0,1-5.445.8l-32.132-11.553-3.152,39.547,37.9,15.629,33.552-34.6s9.763-.339,17.644-4.016c0,0,14.07,14.215,26.532,8.408C742.852,1888.623,741.866,1883.628,739.515,1881.8Z" transform="translate(24.017 38.861)" fill="#ffc692"/><path d="M733.41,1885.475c-9.991.1-21.854-11.878-22.143-11.947,0,0-8.626,8.146-24.292,4.4,0,0-2.546,9.237-17.116,25.862a9.814,9.814,0,0,1-10.979,2.653c-1.448-.57-3.07-1.158-4.806-1.767a10.041,10.041,0,0,1-6.718-9.825l.886-25.294c-11.167-3.879-26.175,23.47-25.8,18.252l-1.018,12.785,36.958,15.24-.011.01.921.379.011-.011.025.011,6.114-6.342,27.4-28.259s9.765-.339,17.646-4.016c-.065-.019,13.9,14.166,26.532,8.407a7.14,7.14,0,0,0,3.968-3.74C740.213,1883.747,737.56,1885.433,733.41,1885.475Z" transform="translate(24.017 44.174)" fill="#de7540"/><path d="M681.784,1947.373c-10.652-10.367-8.329-16.862-8.329-16.862l56.415-26.712.077-.017a9.316,9.316,0,0,0,7.291-9.594l-1.393-26.15,68.716,19.221.368,1.272-73.5,22.963s-28.635,23.18-37.292,31.167c-17.545,16.188-23.753,4.71-23.753,4.71S675.275,1952.616,681.784,1947.373Z" transform="translate(50.477 43.559)" fill="#e67e4b"/><g transform="translate(691.811 1948.189)"><path d="M652.939,1918.253q13.39-12.538,26.782-25.073c.773-.724-.388-1.881-1.158-1.158q-13.392,12.535-26.782,25.073c-.773.722.388,1.879,1.158,1.158Z" transform="translate(-651.526 -1891.793)" fill="#e67e4b"/></g><g transform="translate(704.687 1958.431)"><path d="M661.292,1924.773l25.763-24.938c.761-.736-.4-1.894-1.158-1.159l-25.763,24.938c-.761.736.4,1.893,1.158,1.158Z" transform="translate(-659.885 -1898.441)" fill="#e67e4b"/></g><g transform="translate(719.052 1969.731)"><path d="M670.618,1929.2l22.8-22.025c.761-.736-.4-1.893-1.16-1.158l-22.8,22.025c-.762.736.4,1.893,1.158,1.159Z" transform="translate(-669.21 -1905.778)" fill="#e67e4b"/></g><path d="M674.458,1915.88l.109-.114c3.015-3.1,8.127-2.922,11.419.388l-.609-.612a7.741,7.741,0,0,1-.057-10.82l1.323-1.36a7.429,7.429,0,0,1,6.445-2.178,8.74,8.74,0,0,1,2.426-6.935l.122-.125a8.441,8.441,0,0,1,12.075-.06l1.594,1.6a7.71,7.71,0,0,1,2.1-6.408,7.441,7.441,0,0,1,10.644-.054l6.913,6.953a7.741,7.741,0,0,1,.057,10.82,7.428,7.428,0,0,1-6.94,2.089,8.794,8.794,0,0,1-1.471,10.179l-.122.123a8.437,8.437,0,0,1-6.8,2.54,7.713,7.713,0,0,1-2.075,6.573l-1.325,1.36a7.44,7.44,0,0,1-10.644.054l-7.135-7.178,6.527,6.565c3.292,3.312,3.515,8.506.5,11.6l-.109.114c-3.015,3.1-8.127,2.922-11.419-.388l-13.053-13.131C671.666,1924.171,671.443,1918.977,674.458,1915.88Z" transform="translate(51.531 53.802)" fill="#de7540"/><path d="M786.15,1903.718l-61.795,15.939-12-46.528,78.77-20.317Z" transform="translate(73.158 35.33)" fill="#fff"/><rect width="48.05" height="81.348" transform="translate(582.19 1937.219) rotate(-75.537)" fill="#fff"/><g transform="translate(736.09 1968.196)"><path d="M695.939,1919.378l-14.27-14.355a.82.82,0,0,0-1.158,1.158l14.27,14.355a.82.82,0,0,0,1.158-1.158Z" transform="translate(-680.27 -1904.781)" fill="#de7540"/></g><path d="M596.434,1899.244l61.795,15.939,1.453-49.268-77.728,18.479Z" transform="translate(2.687 42.411)" fill="#869e9a" opacity="0.4"/><path d="M576.981,1848.372v63.858l71.811,17.789,14.9-60.166Z" transform="translate(0 32.93)" fill="#4f455e"/><path d="M782.5,1897.551,720.7,1913.49l-1.453-49.268,53.705,12.768Z" transform="translate(76.885 41.497)" fill="#869e9a" opacity="0.4"/><path d="M576.981,1881.533v13.507l71.625,17.743,3.152-12.727Z" transform="translate(0 50.851)" fill="#302c3d"/><path d="M795.573,1848.246l-77.2,19.125,14.9,60.166,62.3-15.433Z" transform="translate(76.408 32.863)" fill="#546982"/><path d="M791.385,1881.407l-65.267,16.168,3.152,12.727,62.115-15.387Z" transform="translate(80.596 50.784)" fill="#384559"/><g transform="translate(724.281 1966.885)"><path d="M674.716,1916.482l11.9,11.548c2.77,2.69,7.708,2.965,10.43,0a7.5,7.5,0,0,0,0-10.43l-11.9-11.548c-2.77-2.69-7.708-2.966-10.429,0a7.5,7.5,0,0,0,0,10.43Z" transform="translate(-672.604 -1903.929)" fill="#ffc692"/></g><g transform="translate(734.604 1955.045)"><path d="M681.356,1908.367l12.291,11.131c2.763,2.5,7.389,2.933,10.082,0,2.506-2.729,2.952-7.408,0-10.082l-12.291-11.131c-2.763-2.5-7.389-2.933-10.082,0-2.506,2.73-2.951,7.408,0,10.082Z" transform="translate(-679.306 -1896.244)" fill="#ffc692"/></g><g transform="translate(746.289 1944.385)"><path d="M689.012,1901.865,701.3,1913c2.859,2.59,7.645,3.033,10.43,0,2.592-2.825,3.053-7.665,0-10.43q-6.146-5.566-12.291-11.131c-2.859-2.589-7.644-3.034-10.43,0-2.593,2.824-3.053,7.664,0,10.429Z" transform="translate(-686.891 -1889.324)" fill="#ffc692"/></g><g transform="translate(762.829 1940.047)"><path d="M699.185,1895.7l9.039,8.132c2.1,1.892,5.6,2.231,7.648,0,1.9-2.065,2.248-5.627,0-7.648l-9.039-8.134c-2.1-1.892-5.6-2.229-7.648,0-1.9,2.066-2.246,5.629,0,7.65Z" transform="translate(-697.629 -1886.507)" fill="#ffc692"/></g><g transform="translate(670.318 1990.421)"><path d="M643.987,1924.228a9.813,9.813,0,0,1-4.281-4.429c-.659-1.338-2.66-.165-2,1.169a11.915,11.915,0,0,0,5.112,5.262c1.317.7,2.489-1.3,1.171-2Z" transform="translate(-637.573 -1919.209)" fill="#fff"/></g><g transform="translate(679.811 1995.901)"><path d="M647.806,1922.826a10.161,10.161,0,0,1-2.95.475,1.16,1.16,0,0,0,0,2.318,12.384,12.384,0,0,0,3.566-.558c1.419-.445.812-2.685-.616-2.235Z" transform="translate(-643.736 -1922.767)" fill="#fff"/></g><g transform="translate(685.226 1976.937)"><path d="M647.792,1912.644a9.495,9.495,0,0,1,4.323,9.785c-.26,1.459,1.973,2.086,2.235.616a11.9,11.9,0,0,0-5.387-12.4c-1.263-.8-2.428,1.2-1.171,2Z" transform="translate(-647.251 -1910.455)" fill="#fff"/></g><g transform="translate(675.705 1975.456)"><path d="M642.536,1912.59a10.207,10.207,0,0,1,3.76-.778,1.16,1.16,0,0,0,0-2.318,12.027,12.027,0,0,0-4.376.86,1.2,1.2,0,0,0-.809,1.427,1.166,1.166,0,0,0,1.425.81Z" transform="translate(-641.07 -1909.494)" fill="#fff"/></g><g transform="translate(669.318 1979.581)"><path d="M639.25,1918.736a9.81,9.81,0,0,1,2.013-4.9c.9-1.192-1.114-2.348-2-1.171a12.045,12.045,0,0,0-2.331,6.072c-.16,1.48,2.16,1.469,2.318,0Z" transform="translate(-636.924 -1912.172)" fill="#fff"/></g></g></svg>