<svg xmlns="http://www.w3.org/2000/svg" width="48.931" height="48.931" viewBox="0 0 48.931 48.931"><g transform="translate(-1600.737 -993.95)" opacity="0.997"><rect width="48.931" height="48.931" transform="translate(1600.737 993.95)" fill="none"/><path d="M1643.032,1030.192a.675.675,0,0,1-.572-1.033,20.344,20.344,0,0,0,.056-21.4.676.676,0,0,1,1.151-.709,21.7,21.7,0,0,1-.061,22.821A.674.674,0,0,1,1643.032,1030.192Z" fill="#529ad9"/><path d="M1625.2,1040.092a21.677,21.677,0,1,1,8.182-41.755.676.676,0,0,1-.51,1.251,20.325,20.325,0,1,0-.111,37.7.676.676,0,1,1,.5,1.254A21.575,21.575,0,0,1,1625.2,1040.092Z" fill="#529ad9"/><path d="M1620.934,1019.091a.676.676,0,0,1,0-1.351h25.27a.676.676,0,0,1,0,1.351Z" fill="#529ad9"/><path d="M1606.649,1019.091H1604.2a.676.676,0,0,1,0-1.351h2.447a.676.676,0,0,1,0,1.351Z" fill="#529ad9"/><path d="M1625.2,1040.092a.677.677,0,0,1-.676-.676v-42a.676.676,0,1,1,1.351,0v42A.676.676,0,0,1,1625.2,1040.092Z" fill="#529ad9"/><path d="M1630.031,1002.454a.674.674,0,0,1-.522-.246,19.593,19.593,0,0,0-4.644-4.209.675.675,0,0,1,.675-1.17,20.508,20.508,0,0,1,5.012,4.52.675.675,0,0,1-.521,1.1Z" fill="#529ad9"/><path d="M1635.017,1025.452a.7.7,0,0,1-.149-.017.676.676,0,0,1-.51-.808,29.129,29.129,0,0,0,.02-12.33.675.675,0,1,1,1.319-.292,30.479,30.479,0,0,1-.021,12.92A.676.676,0,0,1,1635.017,1025.452Z" fill="#529ad9"/><path d="M1625.2,1040.092a.676.676,0,0,1-.339-1.261,19.7,19.7,0,0,0,4.792-4.388.676.676,0,0,1,1.052.849,20.647,20.647,0,0,1-5.169,4.71A.673.673,0,0,1,1625.2,1040.092Z" fill="#529ad9"/><path d="M1615.527,1012.157a.662.662,0,0,1-.164-.021.676.676,0,0,1-.492-.819,23.753,23.753,0,0,1,9.995-14.488.675.675,0,0,1,.675,1.17,22.827,22.827,0,0,0-9.359,13.645A.677.677,0,0,1,1615.527,1012.157Z" fill="#529ad9"/><path d="M1625.2,1040.092a.673.673,0,0,1-.336-.09,23.731,23.731,0,0,1-9.995-14.481.676.676,0,0,1,1.312-.327,22.807,22.807,0,0,0,9.357,13.637.676.676,0,0,1-.338,1.261Z" fill="#529ad9"/><path d="M1609.559,1033.1a.676.676,0,0,1-.316-1.273,33.8,33.8,0,0,1,15.96-3.59,42,42,0,0,1,4.68.256.676.676,0,1,1-.151,1.343,40.737,40.737,0,0,0-4.529-.248,32.469,32.469,0,0,0-15.328,3.433A.667.667,0,0,1,1609.559,1033.1Z" fill="#529ad9"/><path d="M1625.2,1008.591a33.816,33.816,0,0,1-15.959-3.589.675.675,0,1,1,.631-1.194,32.493,32.493,0,0,0,15.328,3.432,40.777,40.777,0,0,0,4.42-.236.676.676,0,0,1,.148,1.343A42.219,42.219,0,0,1,1625.2,1008.591Z" fill="#529ad9"/><path d="M1636.366,1007.709a3.182,3.182,0,1,1,3.182-3.182A3.186,3.186,0,0,1,1636.366,1007.709Zm0-5.013a1.831,1.831,0,1,0,1.831,1.831A1.833,1.833,0,0,0,1636.366,1002.7Z" fill="#529ad9"/><path d="M1640.8,1010.6a.676.676,0,0,1-.672-.615c-.168-1.866-.437-1.924-.923-2.028l-1.771-.517a.676.676,0,1,1,.38-1.3l1.722.505c1.553.331,1.791,1.6,1.937,3.216a.674.674,0,0,1-.612.733Z" fill="#529ad9"/><path d="M1631.934,1010.6l-.061,0a.674.674,0,0,1-.612-.733c.146-1.619.384-2.885,1.985-3.228l1.674-.493a.676.676,0,1,1,.38,1.3l-1.722.505c-.535.116-.8.174-.972,2.04A.675.675,0,0,1,1631.934,1010.6Z" fill="#529ad9"/><path d="M1636.366,1012.826a7.615,7.615,0,1,1,7.614-7.614A7.623,7.623,0,0,1,1636.366,1012.826Zm0-13.878a6.263,6.263,0,1,0,6.263,6.264A6.271,6.271,0,0,0,1636.366,998.948Z" fill="#529ad9"/><path d="M1636.366,1034.212a3.182,3.182,0,1,1,3.182-3.182A3.186,3.186,0,0,1,1636.366,1034.212Zm0-5.013a1.831,1.831,0,1,0,1.831,1.831A1.833,1.833,0,0,0,1636.366,1029.2Z" fill="#529ad9"/><path d="M1640.8,1037.1a.676.676,0,0,1-.672-.615c-.168-1.866-.437-1.924-.923-2.028l-1.771-.517a.676.676,0,0,1,.379-1.3l1.723.505c1.553.331,1.791,1.6,1.937,3.215a.675.675,0,0,1-.612.734A.6.6,0,0,1,1640.8,1037.1Z" fill="#529ad9"/><path d="M1631.934,1037.1c-.02,0-.04,0-.061,0a.675.675,0,0,1-.612-.733c.146-1.619.384-2.885,1.985-3.228l1.675-.493a.676.676,0,1,1,.379,1.3l-1.723.505c-.534.116-.8.174-.971,2.04A.675.675,0,0,1,1631.934,1037.1Z" fill="#529ad9"/><path d="M1636.366,1039.329a7.614,7.614,0,1,1,7.614-7.615A7.624,7.624,0,0,1,1636.366,1039.329Zm0-13.877a6.263,6.263,0,1,0,6.263,6.262A6.27,6.27,0,0,0,1636.366,1025.452Z" fill="#529ad9"/><path d="M1613.825,1020.917a3.182,3.182,0,1,1,3.182-3.182A3.186,3.186,0,0,1,1613.825,1020.917Zm0-5.013a1.831,1.831,0,1,0,1.831,1.831A1.833,1.833,0,0,0,1613.825,1015.9Z" fill="#529ad9"/><path d="M1618.256,1023.809a.675.675,0,0,1-.672-.615c-.168-1.866-.437-1.923-.924-2.028l-1.77-.517a.676.676,0,0,1,.379-1.3l1.723.505c1.553.332,1.792,1.6,1.937,3.216a.674.674,0,0,1-.612.733Z" fill="#529ad9"/><path d="M1609.393,1023.809l-.061,0a.675.675,0,0,1-.612-.733c.145-1.619.384-2.884,1.985-3.228l1.675-.493a.676.676,0,1,1,.379,1.3l-1.722.505c-.535.117-.8.174-.972,2.04A.675.675,0,0,1,1609.393,1023.809Z" fill="#529ad9"/><path d="M1613.825,1026.034a7.614,7.614,0,1,1,7.614-7.614A7.623,7.623,0,0,1,1613.825,1026.034Zm0-13.877a6.263,6.263,0,1,0,6.263,6.263A6.27,6.27,0,0,0,1613.825,1012.157Z" fill="#529ad9"/></g></svg>