<svg xmlns="http://www.w3.org/2000/svg" width="299.152" height="287.288" viewBox="0 0 299.152 287.288"><g transform="translate(-852.459 -7861.661)"><g opacity="0.3" style="mix-blend-mode:multiply;isolation:isolate"><path d="M1151.611,8076.319l-.007-.029s-.029.058-.072.141c-1.2,1.7-17.732,24.208-52.409,30.3-39.957,7.022-62.8-2.685-62.8-2.685l0,.029c-.265-.274-.571-.609-.889-.986-10.931-33.572-30.674-35.8-35.48-34.832-2.946.594-4.821,3.768-6.051,8.114l-12.67-36.855,64.765-22.3v-.119a28.426,28.426,0,0,0,15.219-35.181c-2.287-6.639-6.466-10.485-11.224-14.423l-99.362-86.3c-6.206-6.1-13.509-9.324-21.13-9.324a28.077,28.077,0,0,0-9.146,1.565c-10.077,3.47-17.139,12.067-18.9,23l-26.111,133.474a28.406,28.406,0,0,0,35.625,33.764l.028.025,61.329-21.119,15.3,44.516a46.771,46.771,0,0,0-7.888,1.378c-10.819,2.824-16.375,7.649-14.49,13.59,1.353,4.264,3.771,5.041,5.476,4.987-2.96,2.62-4.243,5.333-3.613,7.825,1.384,5.47,9.182,8.247,12.349,7.385a8.1,8.1,0,0,1,.572-.738,9.155,9.155,0,0,0-1.152,4.83c1.023,4.838,2.905,6.577,8.621,8.019,2.834.715,10.113.451,17.213-.321l5.615,14.892,8.893-3.106-4.972-13.187c.662-.129,1.3-.262,1.891-.4,7.75-1.772,15.747-5.277,20.042-11.929,10.888,5.33,49.249,11.743,77.439,3.829,20.193-5.67,31.852-13.372,37.994-18.7v-29.141Z" fill="#1c1c1b"/></g><path d="M1007.978,8107.125l-40.4-117.531-8.929,3.012,40.2,116.935Z" fill="#294d6d"/><path d="M903.008,8054.611a28.425,28.425,0,0,1-27.673-34.9l26.111-133.474c1.763-10.938,8.825-19.536,18.9-23.006a28.077,28.077,0,0,1,9.146-1.565c7.621,0,14.925,3.224,21.13,9.325l99.362,86.3c4.758,3.938,8.937,7.784,11.224,14.422a28.426,28.426,0,0,1-15.219,35.181v.119l-135,46.488-.028-.025A28.282,28.282,0,0,1,903.008,8054.611Z" fill="#fccc09"/><path d="M1047.582,7960.052l-99.45-86.374c-7.405-7.324-16.845-10.34-26.59-6.985-9.173,3.159-15.026,11.005-16.486,20.181l-26.136,133.6a24.753,24.753,0,0,0,32.149,29.111c.253-.09.5-.185.75-.282l.018.017,130.488-44.931v0l.071-.022a24.757,24.757,0,0,0,15.348-31.469C1055.839,7967.37,1052.415,7964.053,1047.582,7960.052Z" fill="#294d6d"/><path d="M908.552,8042.281a17.023,17.023,0,0,1-22.114-20.016l25.246-129.435,1.034-4.942c1.322-6.7,5.2-11.774,11.337-13.887,6.53-2.25,12.463-.594,18.295,4.805l101.1,87.775c2.4,2.153,5.715,5.143,6.986,8.836a17.047,17.047,0,0,1-10.455,21.61S908.665,8042.244,908.552,8042.281Z" fill="#fbb316"/><path d="M1035.321,7971.349l0-.009-111.249-97.283-27.767,145.138a11.9,11.9,0,0,0,15.438,14.1c.164-.057.316-.129.476-.193l.02.018,118.674-40.861.011-.051c.3-.079.595-.156.891-.257a11.9,11.9,0,0,0,3.5-20.6Z" fill="#fccc09"/><path d="M912.67,8040.826a13.809,13.809,0,0,1-16.7-18.379,11.928,11.928,0,0,1,.339-3.252l27.762-145.1-.025-.092c-6.135,2.117-10.007,7.186-11.327,13.883l-1.034,4.942-25.246,129.435a17.023,17.023,0,0,0,22.114,20.016c.014,0,1.495-.513,4.126-1.419Z" fill="#fce400"/><path d="M969.653,8004.931a13.327,13.327,0,1,1,8.271-16.937A13.331,13.331,0,0,1,969.653,8004.931ZM949.7,7905.243c-2.006-5.678-7.314-2.454-14.409-.015-7.114,2.446-13.312,3.211-11.342,8.939a8.358,8.358,0,0,0,.484,1.133l22.991,51.123a8.507,8.507,0,1,0,16.089-5.533l-13.333-54.574A6.533,6.533,0,0,0,949.7,7905.243Z" fill="#294d6d"/><path d="M1151.611,8066.108s-16.446,24.081-52.488,30.415c-39.957,7.022-62.8-2.686-62.8-2.686l-1.7,15.416c8.184,5.448,49.26,13.043,79,4.694,20.193-5.669,31.852-13.372,37.994-18.7Z" fill="#294d6d"/><path d="M1037.16,8094.687a16.711,16.711,0,0,1-3.53-4.492c-5.174-10.8-25.417-26.276-40.287-6.776-10.138,13.295.011,18.547-6.255,21.024s-8.642,9.674-8.213,11.705c1.024,4.838,2.905,6.578,8.621,8.019,4.507,1.137,20.25-.2,28.64-2.119s17.081-5.859,21.037-13.636" fill="#294d6d"/><path d="M1037.28,8095.129s-2.067-.894-5.485-6.986c-6.029-10.748-23.629-22.917-39.827-8.228-5.256,4.766-4.436,10.128-4.3,14.527.175,5.453.782,11.05-.341,18.952.77,3.9-4.727,7.2-.508,8.3s20.191.772,28.563-1.214,18.113-6.5,22.4-13.054" fill="#fcd5b6"/><path d="M965.243,8091.859c-1.885-5.941,3.671-10.766,14.49-13.59s19.787-1.507,21.234,2.469c2.081,5.72-1.2,8.666-1.2,8.666a32.917,32.917,0,0,0-15.03,1.413c-8.617,2.711-12.082,5.6-12.082,5.6S967.485,8098.923,965.243,8091.859Z" fill="#294d6d"/><path d="M1013.277,8093.637c-2.108-2.984-10.246-9.513-25.028-5.245s-22.527,10.81-21.143,16.279,9.182,8.247,12.349,7.385c0,0,3.776-6.031,16.8-9.334s18.3-1.2,18.3-1.2S1017.369,8099.43,1013.277,8093.637Z" fill="#294d6d"/><path d="M967.955,8090.889c-1.545-4.768,3.683-8.055,13.647-10.67s17.54-1.054,18.434,2.229a7.067,7.067,0,0,1-.484,5.421,34.127,34.127,0,0,0-13.767,1.594c-7.951,2.459-11.2,4.91-11.2,4.91S969.792,8096.56,967.955,8090.889Z" fill="#fcd5b6"/><path d="M1012.032,8095.931c-1.376-2.614-9.073-7.422-22.7-3.516s-20.014,7.8-18.912,12.2,7.342,6.22,10.261,5.426c0,0,2.082-5.418,14.1-8.386,14.121-3.485,17.1-1.962,17.1-1.962S1013.656,8099.014,1012.032,8095.931Z" fill="#fcd5b6"/><path d="M988.946,8117.261s5.6,1.6,13.863-.416c9.293-2.266,16.555-5.69,15.66-10.749-1.194-6.745-9.437-6.917-19.837-5.181s-18.464,10.462-17.1,16.676c.731,3.329,4.671,6.777,8.211,6.889" fill="#294d6d"/><path d="M1036.8,8097.393c-10.562-37.91-31.839-40.357-36.853-39.345s-6.944,9.473-7.828,18.532,1.4,19.18,7.737,18.7c3.217-.242,5.447-2.122,6.825-7.494,0,0,5.94,8.863,13.417,7.906" fill="#294d6d"/><path d="M1037.745,8099.073s-8.436-20.038-17.643-28.525c-10.193-9.4-16.7-10.8-19.232-9.753s-7.44,19.307-5.308,26.486,6.115,6.271,8.132,2.019,5.244-13.773,5.439-18.235c0,0,.972,5.492-1.588,14.138,0,0,3.893,9.219,13.174,10.923" fill="#fcd5b6"/><path d="M994.232,8118s5.256-1.375,8.785-2.553c10.459-3.49,13.115-6.635,12.665-9.554-.778-5.043-8.484-4.6-18.216-2.664-10.322,2.053-17.235,8.378-16.2,13.391.556,2.685,4.71,6.04,10.422,5.648" fill="#fcd5b6"/><path d="M1151.611,8066.108l-.007-.028s-12.149,25.2-50.255,31.961c-48.886,8.676-64.856-3.565-64.856-3.565l-3.722,13.534c7.8,4.047,49.03,11.822,79.4,3.552,19.562-5.326,32.616-14.042,39.437-19.576Z" fill="#fcd5b6"/><path d="M867.651,8025.693a55.2,55.2,0,0,0,1.933,14.758,35.437,35.437,0,0,0,6.481,12.891,28.025,28.025,0,0,0,5.171,5,32.363,32.363,0,0,0,2.983,2.06c.519.314,1.066.58,1.6.88l.8.449.83.388a60.83,60.83,0,0,0,14.218,4.427,39.146,39.146,0,0,1-15.064-2.455,29.862,29.862,0,0,1-12.663-9.012,31.98,31.98,0,0,1-4.1-6.7,34.214,34.214,0,0,1-2.331-7.429A37.016,37.016,0,0,1,867.651,8025.693Z" fill="#294d6d"/><path d="M855.778,8016.839a75.387,75.387,0,0,0-1.336,10.609,65.157,65.157,0,0,0,.209,10.572c.742,6.954,2.9,13.782,7.065,19.241.541.661,1.036,1.362,1.633,1.977l.865.949.944.9c.64.591,1.234,1.236,1.91,1.782l2,1.676a43.074,43.074,0,0,0,8.891,5.4A41.55,41.55,0,0,0,888,8072.958a72.982,72.982,0,0,0,10.645.829,51.235,51.235,0,0,1-10.806.511,37.926,37.926,0,0,1-10.691-2.368,40.824,40.824,0,0,1-9.658-5.314l-2.151-1.732c-.722-.572-1.356-1.239-2.039-1.855l-1.006-.943-.956-1.023c-.658-.667-1.215-1.42-1.809-2.142a34.143,34.143,0,0,1-5.086-9.894,42.457,42.457,0,0,1-1.919-10.841,54.714,54.714,0,0,1,.587-10.879A52.505,52.505,0,0,1,855.778,8016.839Z" fill="#294d6d"/><path d="M1060.635,7953.046a39.778,39.778,0,0,1,6.137,6.133,41.755,41.755,0,0,1,4.794,7.342,30.762,30.762,0,0,1,2.863,8.428,27.181,27.181,0,0,1,.423,4.494l-.026,2.2-.105,2.2a44.4,44.4,0,0,1-1.546,8.715,33.307,33.307,0,0,1-3.6,8.115,31.716,31.716,0,0,1-5.625,6.785,37.01,37.01,0,0,1-7.139,4.955,55.285,55.285,0,0,0,6.175-5.9,36.026,36.026,0,0,0,4.726-6.9,40.322,40.322,0,0,0,4.268-15.972l.131-2.1.056-2.1a28.939,28.939,0,0,0-.3-4.068,32.6,32.6,0,0,0-2.241-7.949A58.727,58.727,0,0,0,1060.635,7953.046Z" fill="#294d6d"/><path d="M1070.294,8024.283a61.7,61.7,0,0,0,6.832-8.4,60.619,60.619,0,0,0,5.305-9.315,52.912,52.912,0,0,0,3.525-10.028c.486-1.7.719-3.459,1.041-5.195.149-.87.175-1.757.269-2.634.061-.882.2-1.751.187-2.644a58.21,58.21,0,0,0-.438-10.625,54.568,54.568,0,0,0-2.334-10.365,52.979,52.979,0,0,0-10.765-18.47,43.567,43.567,0,0,1,12.781,17.733,53.48,53.48,0,0,1,3.5,21.838,49.6,49.6,0,0,1-5.853,21.341c-.852,1.644-1.827,3.216-2.831,4.762l-1.611,2.246c-.551.738-1.136,1.449-1.707,2.167A46.029,46.029,0,0,1,1070.294,8024.283Z" fill="#294d6d"/><path d="M1001.888,8116.366l8.436,22.372,8.893-3.105-8.412-22.311Z" fill="#294d6d"/></g></svg>