<svg xmlns="http://www.w3.org/2000/svg" xmlns:xlink="http://www.w3.org/1999/xlink" width="382.741" height="318.386" viewBox="0 0 382.741 318.386"><defs><clipPath id="a"><path d="M626.874,9038.945l14.477,8.358,2.188,4.393,5.139-14.845-1.037-1.667-11.8-8.989Z" transform="translate(-626.874 -9026.195)" fill="none"/></clipPath></defs><g transform="translate(-609.488 -3017.998)"><path d="M498.612,8946.811H840.761c11.21,0,20.3,11.017,20.3,24.6v269.181c0,13.588-9.087,24.6-20.3,24.6H498.612c-11.21,0-20.3-11.015-20.3-24.6V8971.413C478.316,8957.827,487.4,8946.811,498.612,8946.811Z" transform="translate(131.172 -5928.813)" fill="#97c2e8" opacity="0.25" style="isolation:isolate"/><g transform="translate(746.889 3052.325)"><g transform="translate(11.557 81.274)"><path d="M734.877,9091.021H623.787v7.446c-.142,8.323,5.268,16.675,16.268,23.025,21.692,12.524,56.862,12.524,78.554,0,11-6.351,16.41-14.7,16.254-23.025C734.877,9098.468,734.877,9091.021,734.877,9091.021Z" transform="translate(-623.784 -9058.952)" fill="#ff9238"/><ellipse cx="55.545" cy="32.069" rx="55.545" ry="32.069" transform="translate(0.002)" fill="#ffc366"/><path d="M729.665,9091.671c0,.408-.021.816-.051,1.213-.529,6.486-5.335,12.728-13.664,17.717-9.735,5.825-22.779,9.022-36.739,9.022s-27-3.2-36.727-9.022c-8.329-4.989-13.145-11.23-13.674-17.717-.031-.4-.051-.8-.051-1.213,0-6.9,4.877-13.623,13.726-18.918,9.725-5.823,22.768-9.021,36.727-9.021s27,3.2,36.739,9.021C724.8,9078.048,729.665,9084.769,729.665,9091.671Z" transform="translate(-623.665 -9059.606)" fill="#ff9238"/><path d="M729.612,9092.828c-.529,6.486-5.335,12.727-13.664,17.717-9.735,5.824-22.779,9.021-36.739,9.021s-27-3.2-36.727-9.021c-8.329-4.99-13.145-11.23-13.674-17.717.529-6.486,5.345-12.729,13.674-17.719,9.725-5.812,22.768-9.021,36.727-9.021s27,3.209,36.739,9.021C724.277,9080.1,729.083,9086.342,729.612,9092.828Z" transform="translate(-623.664 -9059.55)" fill="#ffc366"/><g transform="translate(26.038 12.439)"><path d="M701.839,9106.884a33.131,33.131,0,0,1-6.687,2.744,39.023,39.023,0,0,1-6.474,1.3,25.513,25.513,0,0,1-5.458.068,8.842,8.842,0,0,1-3.573-.989,3.692,3.692,0,0,1-1-.9,2.565,2.565,0,0,1-.515-1.125,1.964,1.964,0,0,1,.129-1.132,1.833,1.833,0,0,1,.86-.883,5.426,5.426,0,0,1,2.43-.482q1.591-.028,3.764-.145a39.386,39.386,0,0,0,4.769-.573,22.323,22.323,0,0,0,5.445-1.772l-15.366-9.471q-3.158.8-6.446,1.52a37.992,37.992,0,0,1-6.612.853,28.2,28.2,0,0,1-6.6-.515,19.337,19.337,0,0,1-6.417-2.583,10.985,10.985,0,0,1-4.112-3.866,5.75,5.75,0,0,1-.659-3.88,7.558,7.558,0,0,1,2-3.655,22.23,22.23,0,0,1,3.873-3.266l-1.9-1.17a.88.88,0,0,1-.487-.947q.1-.582,1.008-1.073a4.586,4.586,0,0,1,1.893-.489,2.943,2.943,0,0,1,1.72.292l1.783,1.1a37.509,37.509,0,0,1,4.063-1.856,39.136,39.136,0,0,1,4.588-1.494,19.515,19.515,0,0,1,4.271-.637,5.707,5.707,0,0,1,3.185.669,5,5,0,0,1,.941.782,3.061,3.061,0,0,1,.689,1.07,1.648,1.648,0,0,1,.008,1.136,1.912,1.912,0,0,1-.968.979,5.459,5.459,0,0,1-1.654.516q-1.025.177-2.392.424t-3.086.724a24.09,24.09,0,0,0-3.664,1.376l13.274,8.181q3.087-.762,6.37-1.364a37.94,37.94,0,0,1,6.665-.617,29.019,29.019,0,0,1,6.79.791,22.956,22.956,0,0,1,6.74,2.862q6.016,3.708,5.858,7.689t-5.091,7.483l2.223,1.37a.792.792,0,0,1,.383,1,1.882,1.882,0,0,1-.973,1.056,4.13,4.13,0,0,1-1.928.508,2.944,2.944,0,0,1-1.615-.349Zm-41.427-18.263a9.373,9.373,0,0,0,2.91,1.188,12.74,12.74,0,0,0,3.164.294,23.151,23.151,0,0,0,3.4-.364q1.775-.319,3.63-.792l-11.9-7.334a7.555,7.555,0,0,0-3.182,3.611Q657.861,9087.049,660.411,9088.621Zm38.354,4.98a12.308,12.308,0,0,0-6.455-1.919,33.467,33.467,0,0,0-7.01.728l13.8,8.5q2.338-1.871,2.409-3.726T698.766,9093.6Z" transform="translate(-649.212 -9071.852)" fill="#ff9238"/></g></g><g transform="translate(15.334 72.076)"><path d="M738.567,9082.039H627.476v7.445c-.142,8.324,5.268,16.675,16.269,23.026,21.691,12.524,56.861,12.524,78.553,0,11-6.352,16.41-14.7,16.254-23.026C738.567,9089.484,738.567,9082.039,738.567,9082.039Z" transform="translate(-627.473 -9049.971)" fill="#ff9238"/><ellipse cx="55.545" cy="32.069" rx="55.545" ry="32.069" transform="translate(0.003)" fill="#ffc366"/><path d="M733.354,9082.689c0,.406-.021.814-.051,1.212-.529,6.485-5.335,12.728-13.664,17.718-9.735,5.823-22.779,9.021-36.739,9.021s-27-3.2-36.727-9.021c-8.329-4.99-13.145-11.232-13.674-17.718-.031-.4-.051-.806-.051-1.212,0-6.9,4.877-13.623,13.725-18.919,9.725-5.824,22.768-9.021,36.727-9.021s27,3.2,36.739,9.021C728.487,9069.066,733.354,9075.785,733.354,9082.689Z" transform="translate(-627.354 -9050.624)" fill="#ff9238"/><path d="M733.3,9083.845c-.529,6.485-5.335,12.728-13.664,17.718-9.735,5.823-22.779,9.021-36.739,9.021s-27-3.2-36.727-9.021c-8.329-4.99-13.145-11.232-13.674-17.718.529-6.487,5.345-12.729,13.674-17.717,9.725-5.814,22.768-9.022,36.727-9.022s27,3.208,36.739,9.022C727.966,9071.116,732.772,9077.357,733.3,9083.845Z" transform="translate(-627.353 -9050.567)" fill="#ffc366"/><g transform="translate(26.038 12.438)"><path d="M705.528,9097.9a33,33,0,0,1-6.687,2.744,39.028,39.028,0,0,1-6.474,1.3,25.576,25.576,0,0,1-5.458.068,8.809,8.809,0,0,1-3.573-.99,3.691,3.691,0,0,1-1-.9,2.555,2.555,0,0,1-.514-1.123,1.96,1.96,0,0,1,.128-1.134,1.847,1.847,0,0,1,.861-.883,5.422,5.422,0,0,1,2.429-.481q1.591-.028,3.764-.145a39.206,39.206,0,0,0,4.769-.574,22.382,22.382,0,0,0,5.446-1.771l-15.366-9.47q-3.159.8-6.446,1.518a37.922,37.922,0,0,1-6.613.854,28.147,28.147,0,0,1-6.6-.516,19.355,19.355,0,0,1-6.417-2.582,11,11,0,0,1-4.112-3.866,5.752,5.752,0,0,1-.659-3.88,7.553,7.553,0,0,1,2-3.654,22.189,22.189,0,0,1,3.873-3.267l-1.9-1.169a.882.882,0,0,1-.487-.948q.1-.583,1.008-1.074a4.585,4.585,0,0,1,1.893-.488,2.936,2.936,0,0,1,1.72.292l1.783,1.1a37.7,37.7,0,0,1,4.063-1.856,39.14,39.14,0,0,1,4.589-1.494,19.588,19.588,0,0,1,4.271-.638,5.7,5.7,0,0,1,3.185.67,4.965,4.965,0,0,1,.941.782,3.063,3.063,0,0,1,.689,1.069,1.646,1.646,0,0,1,.008,1.138,1.913,1.913,0,0,1-.968.978,5.457,5.457,0,0,1-1.654.517q-1.024.174-2.392.424t-3.086.723a24.191,24.191,0,0,0-3.664,1.376l13.274,8.181q3.087-.762,6.37-1.363a37.674,37.674,0,0,1,6.665-.618,28.91,28.91,0,0,1,6.79.792,22.939,22.939,0,0,1,6.74,2.861q6.016,3.709,5.859,7.689t-5.092,7.482l2.223,1.37a.793.793,0,0,1,.383,1,1.892,1.892,0,0,1-.973,1.057,4.176,4.176,0,0,1-1.927.508,2.965,2.965,0,0,1-1.616-.351ZM664.1,9079.639a9.421,9.421,0,0,0,2.91,1.188,12.929,12.929,0,0,0,3.164.294,23.293,23.293,0,0,0,3.4-.366q1.776-.318,3.631-.791l-11.9-7.334a7.565,7.565,0,0,0-3.182,3.611Q661.551,9078.068,664.1,9079.639Zm38.354,4.981A12.272,12.272,0,0,0,696,9082.7a33.335,33.335,0,0,0-7.01.727l13.8,8.5q2.338-1.869,2.409-3.724T702.455,9084.62Z" transform="translate(-652.901 -9062.868)" fill="#ff9238"/></g></g><g transform="translate(11.557 61.878)"><path d="M734.877,9072.08H623.787v7.446c-.142,8.323,5.268,16.675,16.268,23.025,21.692,12.524,56.862,12.524,78.554,0,11-6.351,16.41-14.7,16.254-23.025C734.877,9079.526,734.877,9072.08,734.877,9072.08Z" transform="translate(-623.784 -9040.011)" fill="#ff9238"/><ellipse cx="55.546" cy="32.069" rx="55.546" ry="32.069" transform="translate(0.002)" fill="#ffc366"/><path d="M729.665,9072.731c0,.407-.021.815-.051,1.211-.529,6.487-5.335,12.729-13.664,17.719-9.735,5.823-22.779,9.021-36.739,9.021s-27-3.2-36.727-9.021c-8.329-4.99-13.145-11.231-13.674-17.719-.031-.4-.051-.8-.051-1.211,0-6.9,4.877-13.624,13.726-18.919,9.725-5.823,22.768-9.021,36.727-9.021s27,3.2,36.739,9.021C724.8,9059.107,729.665,9065.827,729.665,9072.731Z" transform="translate(-623.665 -9040.666)" fill="#ff9238"/><path d="M729.612,9073.886c-.529,6.487-5.335,12.729-13.664,17.719-9.735,5.823-22.779,9.021-36.739,9.021s-27-3.2-36.727-9.021c-8.329-4.99-13.145-11.231-13.674-17.719.529-6.485,5.345-12.727,13.674-17.717,9.725-5.813,22.768-9.021,36.727-9.021s27,3.207,36.739,9.021C724.277,9061.159,729.083,9067.4,729.612,9073.886Z" transform="translate(-623.664 -9040.609)" fill="#ffc366"/><g transform="translate(26.038 12.438)"><path d="M701.839,9087.942a33.07,33.07,0,0,1-6.687,2.743,38.93,38.93,0,0,1-6.474,1.3,25.444,25.444,0,0,1-5.458.067,8.778,8.778,0,0,1-3.573-.99,3.7,3.7,0,0,1-1-.9,2.565,2.565,0,0,1-.515-1.125,1.967,1.967,0,0,1,.129-1.133,1.841,1.841,0,0,1,.86-.883,5.441,5.441,0,0,1,2.43-.481q1.591-.026,3.764-.144a39.22,39.22,0,0,0,4.769-.575,22.323,22.323,0,0,0,5.445-1.772l-15.366-9.47q-3.158.8-6.446,1.52a37.8,37.8,0,0,1-6.612.852,28.094,28.094,0,0,1-6.6-.515,19.353,19.353,0,0,1-6.417-2.581,11.01,11.01,0,0,1-4.112-3.867,5.754,5.754,0,0,1-.659-3.881,7.548,7.548,0,0,1,2-3.653,22.2,22.2,0,0,1,3.873-3.268l-1.9-1.168a.882.882,0,0,1-.487-.948q.1-.582,1.008-1.074a4.616,4.616,0,0,1,1.893-.488,2.943,2.943,0,0,1,1.72.293l1.783,1.1a37.7,37.7,0,0,1,4.063-1.856,39.127,39.127,0,0,1,4.588-1.493,19.528,19.528,0,0,1,4.271-.64,5.714,5.714,0,0,1,3.185.671,4.961,4.961,0,0,1,.941.782,3.052,3.052,0,0,1,.689,1.07,1.648,1.648,0,0,1,.008,1.136,1.917,1.917,0,0,1-.968.979,5.487,5.487,0,0,1-1.654.516q-1.025.174-2.392.423t-3.086.724a24.09,24.09,0,0,0-3.664,1.376l13.274,8.182q3.087-.765,6.37-1.365a37.755,37.755,0,0,1,6.665-.617,28.865,28.865,0,0,1,6.79.792,22.93,22.93,0,0,1,6.74,2.862q6.016,3.708,5.858,7.688t-5.091,7.482l2.223,1.37a.792.792,0,0,1,.383,1,1.893,1.893,0,0,1-.973,1.057,4.165,4.165,0,0,1-1.928.508,2.961,2.961,0,0,1-1.615-.35Zm-41.427-18.263a9.447,9.447,0,0,0,2.91,1.188,12.833,12.833,0,0,0,3.164.293,23.157,23.157,0,0,0,3.4-.365q1.775-.318,3.63-.791l-11.9-7.334a7.559,7.559,0,0,0-3.182,3.611Q657.861,9068.109,660.411,9069.68Zm38.354,4.98a12.289,12.289,0,0,0-6.455-1.918,33.334,33.334,0,0,0-7.01.727l13.8,8.5q2.338-1.871,2.409-3.725T698.766,9074.66Z" transform="translate(-649.212 -9052.908)" fill="#ff9238"/></g></g><g transform="translate(11.557 52.18)"><path d="M734.877,9062.61H623.787v7.445c-.142,8.323,5.268,16.676,16.268,23.026,21.692,12.523,56.862,12.523,78.554,0,11-6.351,16.41-14.7,16.254-23.026C734.877,9070.056,734.877,9062.61,734.877,9062.61Z" transform="translate(-623.784 -9030.541)" fill="#ff9238"/><ellipse cx="55.546" cy="32.069" rx="55.546" ry="32.069" transform="translate(0.002)" fill="#ffc366"/><path d="M729.665,9063.26c0,.407-.021.815-.051,1.212-.529,6.486-5.335,12.728-13.664,17.717-9.735,5.825-22.779,9.022-36.739,9.022s-27-3.2-36.727-9.022c-8.329-4.989-13.145-11.23-13.674-17.717-.031-.4-.051-.8-.051-1.212,0-6.9,4.877-13.623,13.726-18.918,9.725-5.824,22.768-9.021,36.727-9.021s27,3.2,36.739,9.021C724.8,9049.637,729.665,9056.357,729.665,9063.26Z" transform="translate(-623.665 -9031.194)" fill="#ff9238"/><path d="M729.612,9064.415c-.529,6.486-5.335,12.728-13.664,17.717-9.735,5.825-22.779,9.022-36.739,9.022s-27-3.2-36.727-9.022c-8.329-4.989-13.145-11.23-13.674-17.717.529-6.485,5.345-12.728,13.674-17.716,9.725-5.815,22.768-9.023,36.727-9.023s27,3.208,36.739,9.023C724.277,9051.688,729.083,9057.93,729.612,9064.415Z" transform="translate(-623.664 -9031.138)" fill="#ffc366"/><g transform="translate(26.038 12.439)"><path d="M701.839,9078.472a33.131,33.131,0,0,1-6.687,2.744,39.023,39.023,0,0,1-6.474,1.3,25.454,25.454,0,0,1-5.458.069,8.84,8.84,0,0,1-3.573-.99,3.692,3.692,0,0,1-1-.9,2.555,2.555,0,0,1-.515-1.125,1.964,1.964,0,0,1,.129-1.132,1.833,1.833,0,0,1,.86-.883,5.44,5.44,0,0,1,2.43-.482q1.591-.028,3.764-.143a39.612,39.612,0,0,0,4.769-.575,22.239,22.239,0,0,0,5.445-1.772l-15.366-9.469q-3.158.8-6.446,1.518a37.992,37.992,0,0,1-6.612.853,28.146,28.146,0,0,1-6.6-.515,19.355,19.355,0,0,1-6.417-2.582,10.994,10.994,0,0,1-4.112-3.867,5.749,5.749,0,0,1-.659-3.88,7.56,7.56,0,0,1,2-3.654,22.319,22.319,0,0,1,3.873-3.267l-1.9-1.169a.88.88,0,0,1-.487-.946q.1-.584,1.008-1.075a4.571,4.571,0,0,1,1.893-.488,2.936,2.936,0,0,1,1.72.291l1.783,1.1a37.144,37.144,0,0,1,4.063-1.855,38.6,38.6,0,0,1,4.588-1.5,19.578,19.578,0,0,1,4.271-.638,5.707,5.707,0,0,1,3.185.669,5.006,5.006,0,0,1,.941.783,3.052,3.052,0,0,1,.689,1.07,1.645,1.645,0,0,1,.008,1.135,1.909,1.909,0,0,1-.968.979,5.4,5.4,0,0,1-1.654.516q-1.025.177-2.392.424t-3.086.724a24,24,0,0,0-3.664,1.377l13.274,8.18q3.087-.762,6.37-1.364a37.847,37.847,0,0,1,6.665-.616,28.915,28.915,0,0,1,6.79.791,22.953,22.953,0,0,1,6.74,2.861q6.016,3.708,5.858,7.69t-5.091,7.482l2.223,1.37a.793.793,0,0,1,.383,1,1.883,1.883,0,0,1-.973,1.055,4.143,4.143,0,0,1-1.928.509,2.953,2.953,0,0,1-1.615-.35Zm-41.427-18.262a9.4,9.4,0,0,0,2.91,1.187,12.74,12.74,0,0,0,3.164.294,23.019,23.019,0,0,0,3.4-.364q1.775-.318,3.63-.792l-11.9-7.334a7.555,7.555,0,0,0-3.182,3.611Q657.861,9058.64,660.411,9060.21Zm38.354,4.979a12.308,12.308,0,0,0-6.455-1.919,33.532,33.532,0,0,0-7.01.728l13.8,8.5q2.338-1.871,2.409-3.726T698.766,9065.189Z" transform="translate(-649.212 -9043.439)" fill="#ff9238"/></g></g><g transform="translate(12.885 42.646)"><path d="M736.174,9053.3H625.084v7.445c-.142,8.324,5.268,16.676,16.268,23.026,21.692,12.523,56.862,12.523,78.554,0,11-6.351,16.41-14.7,16.254-23.026C736.174,9060.745,736.174,9053.3,736.174,9053.3Z" transform="translate(-625.081 -9021.23)" fill="#ff9238"/><ellipse cx="55.545" cy="32.069" rx="55.545" ry="32.069" transform="translate(0.002)" fill="#ffc366"/><path d="M730.962,9053.95c0,.408-.021.813-.051,1.211-.529,6.486-5.336,12.729-13.665,17.718-9.734,5.823-22.778,9.021-36.738,9.021s-27-3.2-36.727-9.021c-8.329-4.989-13.145-11.231-13.674-17.718-.031-.4-.051-.8-.051-1.211,0-6.9,4.877-13.624,13.725-18.919,9.724-5.825,22.767-9.021,36.727-9.021s27,3.2,36.738,9.021C726.095,9040.326,730.962,9047.046,730.962,9053.95Z" transform="translate(-624.962 -9021.885)" fill="#ff9238"/><path d="M730.909,9055.1c-.529,6.486-5.336,12.729-13.665,17.718-9.734,5.823-22.778,9.021-36.738,9.021s-27-3.2-36.727-9.021c-8.329-4.989-13.145-11.231-13.674-17.718.529-6.486,5.345-12.729,13.674-17.717,9.724-5.814,22.767-9.021,36.727-9.021s27,3.207,36.738,9.021C725.573,9042.376,730.38,9048.618,730.909,9055.1Z" transform="translate(-624.961 -9021.827)" fill="#ffc366"/><g transform="translate(26.038 12.438)"><path d="M703.135,9069.161a33.127,33.127,0,0,1-6.686,2.745,38.817,38.817,0,0,1-6.474,1.3,25.391,25.391,0,0,1-5.458.069,8.792,8.792,0,0,1-3.573-.991,3.67,3.67,0,0,1-1-.9,2.564,2.564,0,0,1-.515-1.125,1.971,1.971,0,0,1,.129-1.134,1.843,1.843,0,0,1,.86-.882,5.438,5.438,0,0,1,2.43-.481q1.591-.028,3.764-.145a39.58,39.58,0,0,0,4.769-.573,22.341,22.341,0,0,0,5.445-1.773l-15.366-9.47q-3.158.8-6.446,1.52a37.819,37.819,0,0,1-6.612.853,28.1,28.1,0,0,1-6.6-.516,19.337,19.337,0,0,1-6.417-2.583,10.993,10.993,0,0,1-4.112-3.866,5.748,5.748,0,0,1-.659-3.879,7.551,7.551,0,0,1,2-3.654,22.2,22.2,0,0,1,3.873-3.268l-1.9-1.168a.882.882,0,0,1-.487-.947c.067-.388.4-.748,1.008-1.075a4.581,4.581,0,0,1,1.893-.489,2.939,2.939,0,0,1,1.719.293l1.783,1.1a37.522,37.522,0,0,1,4.064-1.857,39.143,39.143,0,0,1,4.588-1.494,19.584,19.584,0,0,1,4.27-.639,5.724,5.724,0,0,1,3.186.671,4.954,4.954,0,0,1,.941.781,3.055,3.055,0,0,1,.689,1.071,1.648,1.648,0,0,1,.008,1.136,1.909,1.909,0,0,1-.969.978,5.412,5.412,0,0,1-1.653.518q-1.025.174-2.393.423t-3.085.723a24.2,24.2,0,0,0-3.664,1.377l13.274,8.181q3.087-.763,6.369-1.364a37.868,37.868,0,0,1,6.666-.617,28.872,28.872,0,0,1,6.79.792,22.955,22.955,0,0,1,6.74,2.862q6.016,3.708,5.858,7.688t-5.091,7.482l2.223,1.37a.791.791,0,0,1,.383,1,1.886,1.886,0,0,1-.973,1.057,4.13,4.13,0,0,1-1.928.508,2.98,2.98,0,0,1-1.615-.348ZM661.708,9050.9a9.383,9.383,0,0,0,2.909,1.188,12.75,12.75,0,0,0,3.164.294,23.014,23.014,0,0,0,3.4-.366q1.777-.316,3.631-.79l-11.9-7.335a7.552,7.552,0,0,0-3.182,3.613Q659.158,9049.328,661.708,9050.9Zm38.354,4.981a12.281,12.281,0,0,0-6.455-1.919,33.337,33.337,0,0,0-7.01.728l13.8,8.5q2.338-1.869,2.409-3.724T700.063,9055.88Z" transform="translate(-650.509 -9034.128)" fill="#ff9238"/></g></g><g transform="translate(15.332 32.45)"><path d="M738.565,9043.34H627.474v7.447c-.141,8.324,5.269,16.676,16.269,23.025,21.692,12.524,56.861,12.524,78.553,0,11-6.35,16.41-14.7,16.255-23.025C738.565,9050.787,738.565,9043.34,738.565,9043.34Z" transform="translate(-627.471 -9011.271)" fill="#ff9238"/><ellipse cx="55.545" cy="32.069" rx="55.545" ry="32.069" transform="translate(0.003)" fill="#ffc366"/><path d="M733.352,9043.991c0,.407-.02.814-.051,1.212-.529,6.486-5.335,12.729-13.664,17.717-9.734,5.824-22.778,9.021-36.738,9.021s-27-3.2-36.727-9.021c-8.329-4.988-13.146-11.23-13.675-17.717-.031-.4-.051-.8-.051-1.212,0-6.9,4.877-13.624,13.727-18.919,9.724-5.824,22.767-9.021,36.727-9.021s27,3.2,36.738,9.021C728.485,9030.367,733.352,9037.088,733.352,9043.991Z" transform="translate(-627.352 -9011.926)" fill="#ff9238"/><path d="M733.3,9045.147c-.529,6.486-5.335,12.729-13.664,17.717-9.734,5.824-22.778,9.021-36.738,9.021s-27-3.2-36.727-9.021c-8.329-4.988-13.146-11.23-13.675-17.717.529-6.486,5.346-12.729,13.675-17.718,9.724-5.813,22.767-9.021,36.727-9.021s27,3.207,36.738,9.021C727.964,9032.419,732.77,9038.661,733.3,9045.147Z" transform="translate(-627.351 -9011.87)" fill="#ffc366"/><g transform="translate(26.037 12.438)"><path d="M705.526,9059.2a33.006,33.006,0,0,1-6.686,2.743,38.826,38.826,0,0,1-6.475,1.3,25.448,25.448,0,0,1-5.458.068,8.85,8.85,0,0,1-3.573-.99,3.64,3.64,0,0,1-1-.9,2.56,2.56,0,0,1-.515-1.124,1.95,1.95,0,0,1,.129-1.133,1.83,1.83,0,0,1,.86-.882,5.421,5.421,0,0,1,2.429-.482q1.593-.028,3.764-.144a39.771,39.771,0,0,0,4.769-.574,22.306,22.306,0,0,0,5.446-1.773l-15.366-9.47q-3.158.8-6.446,1.521a38.11,38.11,0,0,1-6.612.852,28.155,28.155,0,0,1-6.6-.515,19.353,19.353,0,0,1-6.416-2.583,11,11,0,0,1-4.113-3.867,5.746,5.746,0,0,1-.659-3.879,7.56,7.56,0,0,1,2-3.654,22.278,22.278,0,0,1,3.873-3.268l-1.9-1.168a.881.881,0,0,1-.487-.947c.068-.389.4-.748,1.009-1.074a4.562,4.562,0,0,1,1.893-.489,2.924,2.924,0,0,1,1.719.293l1.783,1.1a37.074,37.074,0,0,1,4.064-1.856,38.768,38.768,0,0,1,4.587-1.5,19.533,19.533,0,0,1,4.271-.639,5.706,5.706,0,0,1,3.185.671,4.891,4.891,0,0,1,.941.781,3.064,3.064,0,0,1,.689,1.071,1.642,1.642,0,0,1,.008,1.136,1.911,1.911,0,0,1-.968.979,5.45,5.45,0,0,1-1.654.516q-1.025.177-2.392.424t-3.085.724a24.054,24.054,0,0,0-3.664,1.376l13.274,8.181q3.087-.762,6.369-1.364a37.867,37.867,0,0,1,6.666-.618,28.873,28.873,0,0,1,6.79.793,22.948,22.948,0,0,1,6.739,2.861q6.016,3.708,5.859,7.688t-5.092,7.484l2.223,1.37a.791.791,0,0,1,.383,1,1.885,1.885,0,0,1-.973,1.056,4.126,4.126,0,0,1-1.927.508,2.96,2.96,0,0,1-1.615-.348ZM664.1,9040.94a9.4,9.4,0,0,0,2.91,1.188,12.792,12.792,0,0,0,3.164.294,23.145,23.145,0,0,0,3.4-.366q1.777-.318,3.631-.791l-11.9-7.333a7.557,7.557,0,0,0-3.182,3.612Q661.549,9039.368,664.1,9040.94Zm38.355,4.98A12.3,12.3,0,0,0,696,9044a33.461,33.461,0,0,0-7.01.728l13.8,8.5q2.339-1.868,2.409-3.724T702.454,9045.921Z" transform="translate(-652.899 -9024.169)" fill="#ff9238"/></g></g><path d="M624.239,9104.178c2.7,13.99,21.285,22.241,29.355,24.349,9.479-11.108,11.309-32.884,11.9-54.413,0,0,22.818-12.622,26.944-21.569,4.84-10.5.806-15.35-13.117-14.867l-42.732,17.512Z" transform="translate(-612.217 -8978.959)" fill="#ff9238" opacity="0.4" style="mix-blend-mode:multiply;isolation:isolate"/><path d="M660.3,9017.952l-6.7,8.988-7.56,13.188c-2.1,2.4-8.464.123-7.185-3.981l6.4-15.036,12.134-21.5,3.685,7.861Z" transform="translate(-611.87 -8979.871)" fill="#3b5770"/><path d="M639.6,9087.785c.958,1.06,1.183,3.683,1.239,6.663-.544,3.063-3.4,3.077-5.789,3.664-4.611,1.135-6.631,4.852-12.851,5.38-3.7.315-6.23-.264-7.209-2.539-.208-1.069.327-2.219,1.541-3.443,0,0,8.142-4.531,8.349-4.7a44.1,44.1,0,0,0,3.81-3.567c.048-.3,1.7-6.989,1.7-6.989l8.3-.72Z" transform="translate(-612.44 -8977.905)"/><path d="M658.312,9098.267c1.075,2.623.545,3.25.364,5.278a29.78,29.78,0,0,0-.982,3.1c-.36,1.85-.02,4.858-2.551,6.895-2.981,2.806-9.157,3.457-11.339.93a14.226,14.226,0,0,1,1.924-6.783l3.62-7.413.334-5.485,8.618-1.8Z" transform="translate(-611.748 -8977.632)"/><path d="M685.694,9055.692c-4.616,4.416-13.561,11.079-23.04,17.394.884,5-1.523,16.448-3.556,27.161-1.836,3.546-10.6,2.109-10.6,0,.456-13.338.646-29.925,1.874-33.851,6.107-8.707,12.111-16.537,17.6-20.068l9.426-5.219,8.3,6.671Z" transform="translate(-611.635 -8978.875)" fill="#2a3d4f"/><path d="M670.115,9050.693c-4.616,4.416-20.628,5.459-28.2,9.835.884,5,.657,18.188-1.376,28.9-1.836,3.545-12.072,2.6-12.072.493.456-13.338-2.1-29.683-.874-33.608,2.181-9.934,14.135-13.445,29.159-19.165l4.446-1,4.465,1.313Z" transform="translate(-612.144 -8978.994)" fill="#2a3d4f"/><path d="M662.424,9047.572c.029.066.052.14.077.213a2.317,2.317,0,0,0,1.83,1.545c3.107.572,8.823-3.295,12.893-1.947,7.023,4.415,5.005,13.214,7.313,12.109,2.733-1.308,5.185-6.09,5.92-10.589,0,0,2.08-19.667.863-32.11a25.365,25.365,0,0,0-1.666-7.687c-5.109-7.478-11.451-11.507-17.427-14.775l-12.768,1.108c-2.69,2.994-3.918,7.535-4.319,12.94,0,0,1.629,13.556,5.744,22.947a3.37,3.37,0,0,1,.153,2.63c-1.068,2.829-6.134,3.893-6.134,3.893C654.456,9039.709,659.434,9039.163,662.424,9047.572Z" transform="translate(-611.482 -8979.997)" fill="#3b5770"/><path d="M667.139,9004.409l9.461-.833-12.683,28.044c-5.139-9.752-6.916-19.286-2.751-30.3Z" transform="translate(-611.387 -8979.83)" fill="#e6e6e6"/><path d="M667.283,9004.672l.581,3.55-1.975,3.561c-.355,5.2-1.244,10.91-.827,14.9l-1.4,5.19-2.314-4.938a153.4,153.4,0,0,1,2.808-16.441l-.237-4.4,2.319-1.754Z" transform="translate(-611.327 -8979.757)" fill="#ff4a51"/><path d="M670.684,8993.108l5.492,3.643c3.251,7.636-2.9,11.419-6.718,16.158l-3.058-6.651-5.994,1.717,1.274-11.377Z" transform="translate(-611.349 -8980.026)" fill="#fff"/><path d="M673.99,8995.3c4.04,2.568,2.5,8.424-1.466,14-3.575,5.03-9.06,16.033-9.092,23.785,3.3-7.876,9.535-17.84,13.157-20.854l-1.364-2.671,2.615.354c2.19-3.593,3.054-7.228,2.436-10.533Z" transform="translate(-611.277 -8979.974)" fill="#2a3d4f"/><path d="M664.958,8995.084c-5.075,5.8-6.391,28.031-1.051,37.275-5.472-5.554-7.814-14.454-7.041-28.81l1.393-1.038-.56-1.5,4.21-6.083Z" transform="translate(-611.438 -8979.983)" fill="#2a3d4f"/><g transform="translate(43.508)"><path d="M665.109,9005.62c.516.459.679.642,1.244.69,6.008.514,8.891-7.162,6.734-10.908a29.813,29.813,0,0,1-2.2-4.5l-8.515,6.024a4.3,4.3,0,0,0,.227,2.172C663.339,9001.257,663.569,9004.247,665.109,9005.62Z" transform="translate(-654.811 -8980.079)" fill="#ffb294"/><path d="M665.737,9006.041c2.771.63,6.628-1.934,4.754-10.9l-7.457,3.877C663.773,9001.178,663.441,9004.766,665.737,9006.041Z" transform="translate(-654.794 -8979.978)" fill="#ffb294" opacity="0.5" style="mix-blend-mode:multiply;isolation:isolate"/><path d="M670.945,8993.081s.58,4.48-.555,6.959a11.867,11.867,0,0,1-4.784,4.994,3.151,3.151,0,0,1-3.047.175c-1.052-.561-4.54-8.153-4.54-8.153a25,25,0,0,1-1.76-5.743c-.44-2.666-.8-8.815,6.757-10.646a7.422,7.422,0,0,1,8.418,3.667c1.308,2.278,1.059,7.347,1.059,7.347Z" transform="translate(-654.962 -8980.331)" fill="#ffb294"/><path d="M672.8,8992.152,670.1,8995.3l-1.056-1.936a1.782,1.782,0,0,0-2.437-.984,13.827,13.827,0,0,1-6.992,1.424,5.1,5.1,0,0,1-3.719-1.6c-2.886-3.968,1.6-9.665,6.048-11.239,5.4-1.913,8.962.818,10.21,3.974C673.292,8987.81,672.8,8992.152,672.8,8992.152Z" transform="translate(-654.987 -8980.333)"/><path d="M670.6,8989.491a1.261,1.261,0,0,1,1.524-.347,1.213,1.213,0,0,1,.509.776,3.116,3.116,0,0,1,.028.946,15.411,15.411,0,0,1-.223,1.638,1.763,1.763,0,0,1-.581,1.174c-.378.262-.765.745-1.131.47a3.753,3.753,0,0,1-.125-4.657Z" transform="translate(-654.631 -8980.126)" fill="#ffb294"/></g><g transform="translate(0 51.529)"><path d="M621.714,9049.184l28.65,16.542,17.943-10.36v-.881l-28.65-15.66Z" transform="translate(-612.277 -9030.459)" fill="#1a1a1a"/><path d="M621.714,9048.323l28.65,16.541,17.943-10.359-28.65-16.541Z" transform="translate(-612.277 -9030.479)" fill="#4d4d4d"/><g transform="translate(13.67 12.544)"><path d="M625.848,9048.764l1.84,1.062,1.4-.811-1.84-1.062Z" transform="translate(-625.848 -9042.785)" fill="#fff"/><path d="M627.938,9049.97l1.84,1.062,1.4-.81-1.839-1.062Z" transform="translate(-625.798 -9042.755)" fill="#fff"/><path d="M630.028,9051.177l1.839,1.063,1.4-.812-1.84-1.061Z" transform="translate(-625.748 -9042.728)" fill="#fff"/><path d="M632.118,9052.383l1.839,1.062,1.4-.81-1.839-1.062Z" transform="translate(-625.698 -9042.697)" fill="#fff"/><path d="M634.208,9053.59l1.839,1.062,1.4-.81-1.839-1.062Z" transform="translate(-625.648 -9042.668)" fill="#fff"/><path d="M636.3,9054.8l1.84,1.063,1.4-.812-1.839-1.062Z" transform="translate(-625.598 -9042.641)" fill="#fff"/><path d="M638.388,9056l1.839,1.062,1.4-.81-1.84-1.062Z" transform="translate(-625.547 -9042.61)" fill="#fff"/><path d="M640.478,9057.209l1.84,1.063,1.4-.812-1.84-1.062Z" transform="translate(-625.497 -9042.582)" fill="#fff"/><path d="M642.568,9058.416l1.84,1.063,1.4-.811-1.839-1.062Z" transform="translate(-625.447 -9042.554)" fill="#fff"/><path d="M644.657,9059.623l1.839,1.062,1.4-.81-1.84-1.063Z" transform="translate(-625.397 -9042.523)" fill="#fff"/><path d="M646.747,9060.829l1.839,1.063,1.4-.811-1.839-1.062Z" transform="translate(-625.347 -9042.496)" fill="#fff"/><path d="M628.306,9047.345l1.839,1.063,1.4-.811-1.84-1.062Z" transform="translate(-625.789 -9042.819)" fill="#fff"/><path d="M630.4,9048.551l1.84,1.062,1.4-.81-1.839-1.062Z" transform="translate(-625.739 -9042.789)" fill="#fff"/><path d="M632.485,9049.758l1.839,1.063,1.4-.811-1.839-1.062Z" transform="translate(-625.689 -9042.761)" fill="#fff"/><path d="M634.575,9050.965l1.839,1.063,1.4-.812-1.839-1.062Z" transform="translate(-625.639 -9042.732)" fill="#fff"/><path d="M636.665,9052.171l1.84,1.062,1.4-.81-1.839-1.062Z" transform="translate(-625.589 -9042.702)" fill="#fff"/><path d="M638.755,9053.378l1.84,1.063,1.4-.811-1.84-1.062Z" transform="translate(-625.539 -9042.675)" fill="#fff"/><path d="M640.845,9054.584l1.839,1.062,1.4-.81-1.84-1.062Z" transform="translate(-625.489 -9042.645)" fill="#fff"/><path d="M642.935,9055.791l1.839,1.062,1.4-.81-1.84-1.062Z" transform="translate(-625.438 -9042.615)" fill="#fff"/><path d="M645.025,9057l1.84,1.063,1.4-.812-1.839-1.062Z" transform="translate(-625.388 -9042.588)" fill="#fff"/><path d="M647.115,9058.2l1.839,1.062,1.4-.81-1.84-1.062Z" transform="translate(-625.338 -9042.558)" fill="#fff"/><path d="M649.2,9059.41l1.839,1.063,1.4-.811-1.839-1.062Z" transform="translate(-625.288 -9042.529)" fill="#fff"/><path d="M629.877,9046.438l1.84,1.062,1.4-.81-1.84-1.062Z" transform="translate(-625.752 -9042.84)" fill="#fff"/><path d="M631.967,9047.643l1.839,1.063,1.4-.811-1.839-1.062Z" transform="translate(-625.702 -9042.812)" fill="#fff"/><path d="M634.057,9048.851l1.84,1.063,1.4-.811-1.839-1.062Z" transform="translate(-625.651 -9042.783)" fill="#fff"/><path d="M636.147,9050.058l1.839,1.062,1.4-.811-1.84-1.062Z" transform="translate(-625.601 -9042.753)" fill="#fff"/><path d="M638.236,9051.264l1.84,1.063,1.4-.811-1.839-1.062Z" transform="translate(-625.551 -9042.726)" fill="#fff"/><path d="M640.326,9052.471l1.84,1.062,1.4-.81-1.839-1.062Z" transform="translate(-625.501 -9042.696)" fill="#fff"/><path d="M642.416,9053.677l1.84,1.062,1.4-.81-1.84-1.062Z" transform="translate(-625.451 -9042.666)" fill="#fff"/><path d="M644.506,9054.884l1.839,1.063,1.4-.811-1.839-1.062Z" transform="translate(-625.401 -9042.639)" fill="#fff"/><path d="M646.6,9056.09l1.839,1.063,1.4-.811L648,9055.279Z" transform="translate(-625.351 -9042.608)" fill="#fff"/><path d="M648.686,9057.3l1.84,1.062,1.4-.81-1.839-1.062Z" transform="translate(-625.3 -9042.579)" fill="#fff"/><path d="M631.448,9045.53l1.839,1.062,1.4-.81-1.84-1.062Z" transform="translate(-625.714 -9042.861)" fill="#fff"/><path d="M633.538,9046.737l1.84,1.063,1.4-.812-1.84-1.062Z" transform="translate(-625.664 -9042.834)" fill="#fff"/><path d="M635.628,9047.943l1.839,1.062,1.4-.81-1.839-1.062Z" transform="translate(-625.614 -9042.804)" fill="#fff"/><path d="M637.718,9049.149l1.839,1.063,1.4-.812-1.839-1.062Z" transform="translate(-625.564 -9042.775)" fill="#fff"/><path d="M639.808,9050.356l1.839,1.063,1.4-.811-1.84-1.062Z" transform="translate(-625.513 -9042.747)" fill="#fff"/><path d="M641.9,9051.563l1.84,1.062,1.4-.81-1.839-1.062Z" transform="translate(-625.463 -9042.717)" fill="#fff"/><path d="M643.987,9052.77l1.84,1.063,1.4-.811-1.839-1.062Z" transform="translate(-625.413 -9042.689)" fill="#fff"/><path d="M646.078,9053.977l1.839,1.062,1.4-.81-1.84-1.062Z" transform="translate(-625.363 -9042.66)" fill="#fff"/><path d="M648.167,9055.184l1.84,1.062,1.4-.811-1.84-1.062Z" transform="translate(-625.313 -9042.63)" fill="#fff"/><path d="M650.788,9058.555l1.609-.929-2.14-1.236,1.4-.81,2.14,1.234.537.311,1.3.752-1.195.689-.209.121-1.609.93Z" transform="translate(-625.263 -9042.603)" fill="#fff"/><path d="M635.72,9046.183l-.56-.323-2.14-1.236,1.4-.81,2.14,1.234.56.324,1.279.738-1.4.811Z" transform="translate(-625.676 -9042.885)" fill="#fff"/><path d="M637.2,9047.036l1.84,1.062,1.4-.81-1.839-1.062Z" transform="translate(-625.576 -9042.825)" fill="#fff"/><path d="M639.289,9048.243l1.839,1.063,1.4-.811-1.84-1.062Z" transform="translate(-625.526 -9042.798)" fill="#fff"/><path d="M641.379,9049.449l1.839,1.062,1.4-.81-1.839-1.062Z" transform="translate(-625.476 -9042.768)" fill="#fff"/><path d="M643.469,9050.655l1.839,1.063,1.4-.811-1.84-1.062Z" transform="translate(-625.426 -9042.739)" fill="#fff"/><path d="M645.559,9051.862l1.84,1.063,1.4-.811-1.839-1.062Z" transform="translate(-625.376 -9042.711)" fill="#fff"/><path d="M647.649,9053.069l1.839,1.062,1.4-.81-1.84-1.062Z" transform="translate(-625.325 -9042.681)" fill="#fff"/><path d="M649.739,9054.276l1.839,1.063,1.4-.812-1.84-1.062Z" transform="translate(-625.275 -9042.653)" fill="#fff"/><path d="M653.668,9056.544l-.315-.181-1.525-.881,1.4-.81,1.525.88.315.182,2.14,1.236-1.4.81Z" transform="translate(-625.225 -9042.624)" fill="#fff"/><path d="M634.591,9043.716l1.84,1.062,1.4-.81-1.839-1.062Z" transform="translate(-625.639 -9042.906)" fill="#fff"/><path d="M636.681,9044.923l1.839,1.062,1.4-.811-1.84-1.062Z" transform="translate(-625.589 -9042.876)" fill="#fff"/><path d="M638.771,9046.129l1.84,1.063,1.4-.811-1.839-1.062Z" transform="translate(-625.538 -9042.849)" fill="#fff"/><path d="M650.34,9052.809l-.92-.531-.3-.173-1.84-1.062-.3-.174-1.84-1.062-.3-.174L643,9048.571l-2.14-1.235,1.4-.812,2.14,1.236,1.84,1.063.3.174,1.839,1.062.3.173,1.839,1.063.3.174.92.531.92.53-1.4.811Z" transform="translate(-625.488 -9042.818)" fill="#fff"/><path d="M651.31,9053.369l1.839,1.063,1.4-.812-1.84-1.062Z" transform="translate(-625.238 -9042.675)" fill="#fff"/><path d="M653.4,9054.575l1.84,1.062,1.4-.81-1.84-1.062Z" transform="translate(-625.187 -9042.645)" fill="#fff"/><path d="M655.49,9055.782l1.84,1.063,1.4-.811-1.839-1.062Z" transform="translate(-625.137 -9042.617)" fill="#fff"/></g><path d="M644.592,9046.674l7.815,4.512,3.983-2.3-7.815-4.512Z" transform="translate(-611.729 -9030.327)" fill="#333"/><path d="M613.045,9030.656,641.7,9047.2l8.936,17.864-28.65-16.542-9.483-17.226Z" transform="translate(-612.498 -9030.656)" fill="#1a1a1a"/><path d="M612.5,9031.278l28.65,16.541,8.936,17.864-28.65-16.542Z" transform="translate(-612.498 -9030.641)" fill="#4d4d4d"/></g><path d="M662.424,9047.085l1.907,1.758c3.107.572,8.823-3.295,12.893-1.947,7.023,4.415,5.005,13.214,7.313,12.109,2.733-1.308,5.185-6.09,5.92-10.589,0,0,2.08-19.667.863-32.11,0,0-.51-1.652-.51-1.652l-11.022,1.5c-1.2,10.692-8.162,19.809-14.786,18.1l-3.966-.782c-1.068,2.829-6.134,3.893-6.134,3.893C654.456,9039.222,659.434,9038.676,662.424,9047.085Z" transform="translate(-611.482 -8979.511)" fill="#2a3d4f" opacity="0.3" style="mix-blend-mode:multiply;isolation:isolate"/><path d="M690.609,9033.147a13.672,13.672,0,0,1-6.17,9.271c-4.451,3.253-9.828,6.185-16.011,9.8-3.2,1.794-7.984-4.83-6.491-6.422a112.448,112.448,0,0,1,16.157-12.316l.806-15.639c.859-7,.807-14.66,7.555-12.891C693.058,9008.627,691.835,9025.972,690.609,9033.147Z" transform="translate(-611.319 -8979.749)" fill="#3b5770"/><path d="M666.156,9050.368l-2.109,1.079a9.889,9.889,0,0,1-6.432,2.1l-2.15,1.435-1.622,2.287c-1.162,1.415-1.672.509-1.12-.654l.876-1.481,1.834-2.187-.691-.432-1.554.448-2.227,1.226-.585.642a1.079,1.079,0,0,1-1.262.248l-.1-.049-.222.11a.723.723,0,0,1-.947-.285,1.132,1.132,0,0,1,.015-1.158l.993-1.621,1.8-1.485-1.454.23-1.17.838-.769.935c-.836.905-1.355.088-1-.816l.913-1.379,2.423-1.806,3.814-1.147,6.767-.464,2.482-1C664.86,9044.561,667.837,9049.065,666.156,9050.368Z" transform="translate(-611.692 -8978.766)" fill="#ffb294"/><g transform="translate(14.72 46.962)"><g clip-path="url(#a)"><path d="M644.52,9038.282l-.447.8.14,3.873-1.193,2.729-.612,1.688-1.5,1.66c-.772.685-1.494-.237-1.029-1.36l.977-1.746-.052-1.82a2.979,2.979,0,0,0-3.1.288s-.694,2.244-.712,2.348-.467,2.167-.467,2.167c-.262,1.776-1.638,1.643-1.6.193l.362-2.631.219-2.034-1.6,2.522-.809,2.16c-.515,1.234-1.685,1.114-1.495-.033l.565-1.985.7-1.94-1.594,1.844-.486,1.67a1.277,1.277,0,0,1-1,1.014.6.6,0,0,1-.476-.931c-.3-.186-.24-.784-.1-1.111l1.322-2.554,4.259-4.537,4.114-3.318,1.111-1.744C641.612,9033.821,645.3,9036.556,644.52,9038.282Z" transform="translate(-626.821 -9025.985)" fill="#ffb294"/></g></g></g><path d="M13.445,25.969H10.477V34H4.992V11.25h8.953a9.985,9.985,0,0,1,6.328,1.8,6.091,6.091,0,0,1,2.281,5.078,7.4,7.4,0,0,1-.961,3.938,6.822,6.822,0,0,1-3.008,2.531l4.75,9.172V34H17.461Zm-2.969-4.234h3.469a3.118,3.118,0,0,0,2.352-.82,3.166,3.166,0,0,0,.789-2.289,3.2,3.2,0,0,0-.8-2.3,3.089,3.089,0,0,0-2.344-.836H10.477ZM33.8,34.313a8.691,8.691,0,0,1-6.3-2.32A8.013,8.013,0,0,1,25.1,25.953v-.437a10.383,10.383,0,0,1,.961-4.578,7.031,7.031,0,0,1,2.8-3.07,8.467,8.467,0,0,1,4.375-1.086,7.318,7.318,0,0,1,5.625,2.211,8.688,8.688,0,0,1,2.063,6.164V27.2H30.461A3.8,3.8,0,0,0,31.7,29.438a3.673,3.673,0,0,0,2.469.813A4.732,4.732,0,0,0,38.07,28.5l2.406,2.844a6.726,6.726,0,0,1-2.789,2.164A9.425,9.425,0,0,1,33.8,34.313Zm-.594-13.469q-2.312,0-2.75,3.063h5.313V23.5a2.608,2.608,0,0,0-.641-1.961A2.549,2.549,0,0,0,33.211,20.844Zm14.672-3.75.172,1.984a5.733,5.733,0,0,1,4.828-2.3,4.823,4.823,0,0,1,3.945,1.578,7.513,7.513,0,0,1,1.352,4.75V34H52.9V23.328a2.853,2.853,0,0,0-.516-1.883,2.385,2.385,0,0,0-1.875-.6,2.511,2.511,0,0,0-2.3,1.219V34H42.945V17.094ZM60.43,25.422a10.327,10.327,0,0,1,1.734-6.328,5.709,5.709,0,0,1,4.844-2.312,4.855,4.855,0,0,1,3.813,1.781V10H76.1V34H71.367L71.1,32.188a4.986,4.986,0,0,1-4.125,2.125A5.7,5.7,0,0,1,62.2,32,10.655,10.655,0,0,1,60.43,25.422Zm5.266.328q0,4.5,2.625,4.5a2.592,2.592,0,0,0,2.5-1.469V22.344a2.522,2.522,0,0,0-2.469-1.5q-2.437,0-2.641,3.938ZM84.648,34H79.367V17.094h5.281ZM79.055,12.734a2.35,2.35,0,0,1,.813-1.844,3.455,3.455,0,0,1,4.219,0,2.35,2.35,0,0,1,.813,1.844,2.35,2.35,0,0,1-.812,1.844,3.455,3.455,0,0,1-4.219,0A2.35,2.35,0,0,1,79.055,12.734Zm13.813,4.359.172,1.984a5.813,5.813,0,0,1,4.828-2.3,4.279,4.279,0,0,1,4.328,2.547,5.626,5.626,0,0,1,4.969-2.547q5.141,0,5.281,6.219V34h-5.281V23.328a3.223,3.223,0,0,0-.437-1.891,1.862,1.862,0,0,0-1.594-.594,2.5,2.5,0,0,0-2.328,1.391l.016.219V34H97.539V23.359a3.388,3.388,0,0,0-.422-1.922,1.857,1.857,0,0,0-1.609-.594A2.525,2.525,0,0,0,93.2,22.234V34H87.93V17.094ZM121.008,34h-5.281V17.094h5.281Zm-5.594-21.266a2.35,2.35,0,0,1,.813-1.844,3.455,3.455,0,0,1,4.219,0,2.35,2.35,0,0,1,.813,1.844,2.35,2.35,0,0,1-.812,1.844,3.455,3.455,0,0,1-4.219,0A2.35,2.35,0,0,1,115.414,12.734ZM132.43,34.313a8.691,8.691,0,0,1-6.3-2.32,8.013,8.013,0,0,1-2.406-6.039v-.437a10.383,10.383,0,0,1,.961-4.578,7.031,7.031,0,0,1,2.8-3.07,8.467,8.467,0,0,1,4.375-1.086,7.318,7.318,0,0,1,5.625,2.211,8.688,8.688,0,0,1,2.063,6.164V27.2H129.086a3.8,3.8,0,0,0,1.234,2.234,3.673,3.673,0,0,0,2.469.813A4.732,4.732,0,0,0,136.7,28.5l2.406,2.844a6.726,6.726,0,0,1-2.789,2.164A9.425,9.425,0,0,1,132.43,34.313Zm-.594-13.469q-2.313,0-2.75,3.063H134.4V23.5a2.608,2.608,0,0,0-.641-1.961A2.549,2.549,0,0,0,131.836,20.844Zm14.672-3.75.172,1.984a5.733,5.733,0,0,1,4.828-2.3,4.823,4.823,0,0,1,3.945,1.578,7.513,7.513,0,0,1,1.352,4.75V34h-5.281V23.328a2.853,2.853,0,0,0-.516-1.883,2.385,2.385,0,0,0-1.875-.6,2.511,2.511,0,0,0-2.3,1.219V34H141.57V17.094Zm19.344-4.2v4.2h2.781V20.75h-2.781v7.734a1.975,1.975,0,0,0,.344,1.328,1.844,1.844,0,0,0,1.359.375,7.725,7.725,0,0,0,1.313-.094v3.766a9.718,9.718,0,0,1-2.969.453,5.516,5.516,0,0,1-4.016-1.281,5.252,5.252,0,0,1-1.3-3.891V20.75H158.43V17.094h2.156v-4.2Zm3.719,12.5a9.978,9.978,0,0,1,.984-4.508,7.039,7.039,0,0,1,2.828-3.039,8.518,8.518,0,0,1,4.328-1.062,7.774,7.774,0,0,1,5.984,2.352,9.024,9.024,0,0,1,2.188,6.4v.188a8.755,8.755,0,0,1-2.2,6.273,7.794,7.794,0,0,1-5.945,2.32,7.883,7.883,0,0,1-5.8-2.164,8.464,8.464,0,0,1-2.359-5.867Zm5.266.328a6.291,6.291,0,0,0,.734,3.438,2.447,2.447,0,0,0,2.172,1.094q2.813,0,2.875-4.328v-.531q0-4.547-2.906-4.547-2.641,0-2.859,3.922Z" transform="translate(705 3242.669)" fill="#12263f"/></g></svg>