<svg xmlns="http://www.w3.org/2000/svg" width="212.288" height="214.511" viewBox="0 0 212.288 214.511">
  <g id="Grupo_64822" data-name="Grupo 64822" transform="translate(-851.295 -4661.217)">
    <rect id="Rectángulo_19305" data-name="Rectángulo 19305" width="212.288" height="214.511" transform="translate(851.295 4661.217)" fill="none"/>
    <g id="Grupo_64821" data-name="Grupo 64821">
      <path id="Trazado_141451" data-name="Trazado 141451" d="M1012.353,4760.494l-.026.026-7.953,7.953-15.645,15.645-15.645,15.645-10.43,10.431H937.1l3.207,5.345a10.475,10.475,0,0,1,1.486,5.372v19.5a6.288,6.288,0,0,1-6.284,6.284h84.51V4758.46a25.034,25.034,0,0,1-7.666,2.034Z" fill="#ffeaa7"/>
      <path id="Trazado_141452" data-name="Trazado 141452" d="M1012.327,4760.52l-7.953,7.953-15.645,15.645-15.645,15.645-10.43,10.431H937.1l-3.129-5.215v-5.216h23.468l41.407-41.407.026-.026a25.76,25.76,0,0,0,10.717,2.32c.939,0,1.852-.052,2.738-.13Z" fill="#ccd1d9"/>
      <path id="Trazado_141453" data-name="Trazado 141453" d="M941.793,4820.911v19.5a6.288,6.288,0,0,1-6.284,6.284h-.469a6.288,6.288,0,0,1-6.284-6.284v-16.767a2.586,2.586,0,0,0-.391-1.382l-7.432-12.072h-2.607l-14,32.7a6.292,6.292,0,0,1-12.073-2.477v-.287a6.024,6.024,0,0,1,.5-2.425l12.542-30.117v-7.823h28.683v5.216l3.129,5.215,3.207,5.345A10.475,10.475,0,0,1,941.793,4820.911Z" fill="#cf9e76"/>
      <path id="Trazado_141454" data-name="Trazado 141454" d="M962.654,4737.235v16.245l-8.683,14.107a30.513,30.513,0,0,1-20,13.924v18.252H905.288v-15.645H902.68l-11.421,27.432a6.263,6.263,0,0,1-12.046-2.4v-.365a6.433,6.433,0,0,1,.443-2.321l9.961-24.876a20.85,20.85,0,0,1,19.374-13.116h16.427a20.864,20.864,0,0,0,17.34-9.283l12.881-19.295a6.067,6.067,0,0,1,5.059-2.712h1.069C962.08,4737.183,962.367,4737.209,962.654,4737.235Z" fill="#b4dd7f"/>
      <circle id="Elipse_4902" data-name="Elipse 4902" cx="15.645" cy="15.645" r="15.645" transform="translate(902.68 4737.183)" fill="#f0d0b4"/>
      <path id="Trazado_141455" data-name="Trazado 141455" d="M967.869,4737.183a24.387,24.387,0,0,0,5.215-.574v29.257a5.255,5.255,0,0,1-5.215,5.215,5.23,5.23,0,0,1-5.215-5.215v-29.257A24.38,24.38,0,0,0,967.869,4737.183Z" fill="#969faa"/>
      <path id="Trazado_141456" data-name="Trazado 141456" d="M1009.589,4708.5a26.067,26.067,0,0,1,10.43,49.96,25.034,25.034,0,0,1-7.666,2.034l-.026.026c-.886.078-1.8.131-2.738.131a25.761,25.761,0,0,1-10.717-2.321,26.059,26.059,0,0,1-15.358-23.755,23.651,23.651,0,0,1,.261-3.624,23.251,23.251,0,0,0,7.431-14.837v-.026A25.981,25.981,0,0,1,1009.589,4708.5Z" fill="#fcd770"/>
      <path id="Trazado_141457" data-name="Trazado 141457" d="M973.084,4736.609a23.968,23.968,0,0,1-10.43,0,23.474,23.474,0,1,1,28.683-22.894,23.746,23.746,0,0,1-.131,2.373v.026a23.551,23.551,0,0,1-18.122,20.5Z" fill="#e6e9ed"/>
      <circle id="Elipse_4903" data-name="Elipse 4903" cx="13.038" cy="13.038" r="13.038" transform="translate(954.831 4700.677)" fill="#69d6f4"/>
      <path id="Trazado_141458" data-name="Trazado 141458" d="M983.514,4713.715a15.645,15.645,0,1,0-15.645,15.645A15.661,15.661,0,0,0,983.514,4713.715Zm-26.075,0a10.43,10.43,0,1,1,10.43,10.43A10.44,10.44,0,0,1,957.439,4713.715Z" fill="#383a01"/>
      <path id="Trazado_141459" data-name="Trazado 141459" d="M1009.589,4726.753a2.609,2.609,0,0,1,2.608,2.607h5.215a7.813,7.813,0,0,0-5.215-7.343v-5.7h-5.215v5.216h-5.215v7.822a7.832,7.832,0,0,0,7.822,7.823,2.61,2.61,0,0,1,2.608,2.607v2.608h-2.608a2.61,2.61,0,0,1-2.607-2.608h-5.215a7.81,7.81,0,0,0,5.215,7.343v5.7h5.215v-5.215h5.215v-7.823a7.832,7.832,0,0,0-7.823-7.822,2.61,2.61,0,0,1-2.607-2.608v-2.607Z" fill="#383a01"/>
      <path id="Trazado_141460" data-name="Trazado 141460" d="M1038.272,4734.575a28.692,28.692,0,0,0-44.524-23.919,26.067,26.067,0,1,0-38.474,25.875,8.635,8.635,0,0,0-1.814,1.919L940.6,4757.735a18.2,18.2,0,0,1-8.235,6.736,18.261,18.261,0,1,0-26.531,1.629,23.315,23.315,0,0,0-18.644,14.516l-9.953,24.884a8.853,8.853,0,0,0-.634,3.291v.36a8.865,8.865,0,0,0,17.048,3.41l9.027-21.663v16.167l-12.351,29.65a8.8,8.8,0,0,0-.686,3.418v.279a8.892,8.892,0,0,0,17.066,3.5l13.1-30.571,6.336,10.292v16.774a8.9,8.9,0,0,0,8.892,8.9h87.587v-89.215A28.694,28.694,0,0,0,1038.272,4734.575Zm-91.264-20.86a20.861,20.861,0,1,1,20.861,20.86A20.885,20.885,0,0,1,947.008,4713.715ZM942.542,4814.2l-.837-1.4h13.126v31.29H943.582a8.805,8.805,0,0,0,.819-3.679V4820.9a13.034,13.034,0,0,0-1.859-6.709Zm17.5-1.4h3.687l6.743-6.743v38.033h-10.43Zm15.645-11.958,10.43-10.43v53.678h-10.43Zm15.646-15.645,10.43-10.43v69.323h-10.43Zm-29.763,22.388h-23l-2-3.33v-1.885h21.94l40.98-40.98a28.414,28.414,0,0,0,6.631,1.638Zm-5.215-10.43H936.578v-13.58a33.245,33.245,0,0,0,19.619-14.631l3.849-6.253v3.174a7.822,7.822,0,0,0,15.645,0v-27.278a25.978,25.978,0,0,0,5.3-2.375,28.653,28.653,0,0,0,13.567,22.745Zm8.9-57.5c.858.086,1.726.133,2.608.133s1.749-.047,2.607-.133v26.209a2.608,2.608,0,0,1-5.215,0Zm-59.973,13.171a13.037,13.037,0,1,1,13.038,13.038A13.053,13.053,0,0,1,905.288,4752.828Zm-4.347,28.683-12.1,29.045a3.651,3.651,0,0,1-7.02-1.405v-.36a3.614,3.614,0,0,1,.264-1.356l9.95-24.881a18.162,18.162,0,0,1,16.946-11.473h16.436a23.415,23.415,0,0,0,19.525-10.451l12.857-19.286a3.473,3.473,0,0,1,2.248-1.473v12.871l-8.289,13.47a28.01,28.01,0,0,1-18.3,12.743l-2.094.418v17.783H907.9v-15.645Zm34.386,62.58h-.287a3.683,3.683,0,0,1-3.677-3.679v-16.774a5.235,5.235,0,0,0-.774-2.733l-8.2-13.319h-5.784l-14.691,34.276a3.678,3.678,0,0,1-7.058-1.45v-.279a3.667,3.667,0,0,1,.281-1.413l12.757-30.612v-5.737h23.467v3.33l6.707,11.181a7.816,7.816,0,0,1,1.116,4.023v19.507a3.683,3.683,0,0,1-3.677,3.679Zm82.085,0h-10.43v-74.538l6.6-6.6a28.263,28.263,0,0,0,3.825-.8Zm-7.823-86.048a23.1,23.1,0,0,1-23.3-25.89,26.021,26.021,0,0,0,7.369-14.774,23.457,23.457,0,1,1,15.932,40.664Z" fill="#383a01"/>
    </g>
  </g>
</svg>
