<svg xmlns="http://www.w3.org/2000/svg" width="48.931" height="48.931" viewBox="0 0 48.931 48.931"><g transform="translate(-1846.687 -993.95)"><rect width="48.931" height="48.931" transform="translate(1846.687 993.95)" fill="none"/><path d="M1880.529,1024.658a1.727,1.727,0,0,1-1.249-.546c-1.145-1.161.254-3.765.71-4.535l.911-1.4a.647.647,0,1,1,1.083.708l-.9,1.371c-.708,1.2-1.155,2.671-.887,2.943a.424.424,0,0,0,.362.159,2.035,2.035,0,0,0,1.158-.847l3.162-3.709,1.165-2.377c.113-.231.207-.44.293-.632a4.91,4.91,0,0,1,1.424-2.039l.746-.639c.239-.205.485-.4.739-.582a.647.647,0,1,1,.76,1.047q-.339.246-.657.518l-.747.639a3.712,3.712,0,0,0-1.084,1.586c-.092.205-.191.426-.312.671l-1.184,2.416a.467.467,0,0,1-.043.075l-.339.509a.683.683,0,0,1-.052.067l-2.864,3.26a3.269,3.269,0,0,1-2.071,1.328C1880.614,1024.657,1880.571,1024.658,1880.529,1024.658Z" fill="#529ad9"/><path d="M1872.755,1008.251a.647.647,0,0,1-.324-1.207l4.44-2.57a20.093,20.093,0,0,1,3.26-1.514.569.569,0,0,1,.113-.03l2.092-.346a10.825,10.825,0,0,0,1.143-.37.647.647,0,0,1,.472,1.2,11.761,11.761,0,0,1-1.346.431l-2.091.348a18.863,18.863,0,0,0-2.994,1.4l-4.441,2.57A.646.646,0,0,1,1872.755,1008.251Z" fill="#529ad9"/><path d="M1890.1,1014.519a.648.648,0,0,1-.561-.323l-6.9-11.956a.646.646,0,0,1,.237-.884l4.365-2.52a.647.647,0,0,1,.884.237l6.9,11.955a.646.646,0,0,1-.237.884l-4.365,2.52A.642.642,0,0,1,1890.1,1014.519Zm-6.019-12.366,6.256,10.835,3.244-1.873-6.255-10.835Z" fill="#529ad9"/><path d="M1871.908,1007.4a.647.647,0,0,1-.241-1.248c.317-.128.453-.258.473-.33a.422.422,0,0,0-.044-.392,2.028,2.028,0,0,0-1.312-.579l-4.268-.851-.525-.034-2.641.18c-.257.017-.483.041-.693.062a4.9,4.9,0,0,1-2.478-.213l-.927-.327c-.3-.1-.588-.221-.874-.349a.647.647,0,1,1,.528-1.182q.381.171.776.31l.928.327a3.712,3.712,0,0,0,1.916.147c.222-.023.463-.048.736-.066l2.684-.183a.6.6,0,0,1,.085,0l.612.04a.472.472,0,0,1,.084.011l4.255.85a3.271,3.271,0,0,1,2.186,1.13,1.724,1.724,0,0,1,.22,1.463,1.886,1.886,0,0,1-1.239,1.187A.639.639,0,0,1,1871.908,1007.4Z" fill="#529ad9"/><path d="M1869.954,1008.022h-.017a7.478,7.478,0,0,1-.9-.065l-3.35-.209a.647.647,0,0,1,.08-1.292l3.384.211a.74.74,0,0,1,.084.011h0a6.178,6.178,0,0,0,.735.05.647.647,0,0,1-.017,1.294Z" fill="#529ad9"/><path d="M1861.08,1019.985a.641.641,0,0,1-.322-.087l-3.174-1.828a20.12,20.12,0,0,1-2.941-2.065.661.661,0,0,1-.083-.084l-1.344-1.639a11.029,11.029,0,0,0-.893-.8.647.647,0,1,1,.807-1.011,11.992,11.992,0,0,1,1.046.95l1.347,1.637a18.889,18.889,0,0,0,2.707,1.895l3.174,1.828a.647.647,0,0,1-.324,1.208Z" fill="#529ad9"/><path d="M1852.207,1014.519a.639.639,0,0,1-.323-.087l-4.365-2.52a.648.648,0,0,1-.237-.884l6.9-11.955a.648.648,0,0,1,.884-.237l4.364,2.52a.646.646,0,0,1,.237.884l-6.9,11.956a.647.647,0,0,1-.561.323Zm-3.48-3.4,3.244,1.873,6.255-10.835-3.244-1.873Z" fill="#529ad9"/><path d="M1866.125,1024.359a.647.647,0,0,1-.647-.647v-4.646a.647.647,0,1,1,1.294,0v4.646A.647.647,0,0,1,1866.125,1024.359Z" fill="#529ad9"/><path d="M1866.125,1019.065" fill="#529ad9"/><path d="M1869.588,1019.81h0a.645.645,0,0,1-.647-.647v-10.072a1.253,1.253,0,0,0-.434-.945,1.022,1.022,0,0,0-.852-.239,1.127,1.127,0,0,0-.884,1.139v10.02a.647.647,0,1,1-1.294,0v-10.02a2.431,2.431,0,0,1,1.968-2.416,2.314,2.314,0,0,1,1.9.529,2.529,2.529,0,0,1,.89,1.932v10.072A.647.647,0,0,1,1869.588,1019.81Z" fill="#529ad9"/><path d="M1873,1019.81a.646.646,0,0,1-.647-.647v-10.641a1.221,1.221,0,0,0-.423-.922,1,1,0,0,0-.831-.233,1.1,1.1,0,0,0-.863,1.11v.927a.647.647,0,1,1-1.294,0v-.927a2.4,2.4,0,0,1,1.946-2.387,2.287,2.287,0,0,1,1.879.523,2.5,2.5,0,0,1,.88,1.909v10.641A.647.647,0,0,1,1873,1019.81Z" fill="#529ad9"/><path d="M1876.261,1019.81a.647.647,0,0,1-.647-.647V1009.8a1.139,1.139,0,0,0-.394-.86.926.926,0,0,0-.772-.216,1.021,1.021,0,0,0-.8,1.033.647.647,0,1,1-1.294,0,2.325,2.325,0,0,1,1.885-2.31,2.21,2.21,0,0,1,1.819.507,2.413,2.413,0,0,1,.851,1.846v9.367A.647.647,0,0,1,1876.261,1019.81Z" fill="#529ad9"/><path d="M1866.193,1033.042a.647.647,0,0,1-.643-.58c-.029-.277-.069-.554-.12-.828l-.18-.966a3.726,3.726,0,0,0-.831-1.733c-.131-.181-.273-.378-.426-.605l-1.5-2.233a.719.719,0,0,1-.044-.075l-.27-.547a.627.627,0,0,1-.033-.08l-1.39-4.11a3.265,3.265,0,0,1-.115-2.458,1.717,1.717,0,0,1,1.157-.921c1.578-.41,3.134,2.1,3.573,2.883l1.331,2.631a.647.647,0,0,1-1.155.584l-1.317-2.606c-.686-1.214-1.733-2.33-2.106-2.24a.428.428,0,0,0-.318.234,2.03,2.03,0,0,0,.155,1.426l1.438,4.2.192.389,1.477,2.2c.143.213.277.4.4.569a4.9,4.9,0,0,1,1.054,2.252l.181.966q.086.463.134.932a.647.647,0,0,1-.577.71A.494.494,0,0,1,1866.193,1033.042Z" fill="#529ad9"/><path d="M1878.025,1033.042a.549.549,0,0,1-.1-.008.647.647,0,0,1-.543-.736,11.857,11.857,0,0,1,.3-1.381l.744-1.984a18.907,18.907,0,0,0,.287-3.292l-.013-12.95a1.14,1.14,0,0,0-.364-.868.76.76,0,0,0-.641-.166,1,1,0,0,0-.79.991.647.647,0,1,1-1.294,0,2.294,2.294,0,0,1,1.873-2.268,2.053,2.053,0,0,1,1.69.457,2.409,2.409,0,0,1,.82,1.853l.013,12.949a20.165,20.165,0,0,1-.318,3.58.6.6,0,0,1-.031.113l-.747,1.984a11.237,11.237,0,0,0-.25,1.176A.648.648,0,0,1,1878.025,1033.042Z" fill="#529ad9"/><path d="M1866.125,1019.065" fill="#529ad9"/><path d="M1879.063,1038.082h-13.8a.647.647,0,0,1-.647-.647v-5.041a.647.647,0,0,1,.647-.647h13.8a.647.647,0,0,1,.647.647v5.041A.647.647,0,0,1,1879.063,1038.082Zm-13.158-1.3h12.511v-3.745h-12.511Z" fill="#529ad9"/></g></svg>