<svg xmlns="http://www.w3.org/2000/svg" width="433.084" height="214.461" viewBox="0 0 433.084 214.461"><g transform="translate(-710.894 -3047.804)"><path d="M744.043,3261.728s-47.47-50.968-8.028-106.148c35-48.96,71.651-29.032,105.828-17.95,24.786,8.038,49.414-6.752,80.7-56.57,42.667-67.939,190.566-26.733,163.6,77.792-13.05,50.583,39.716,52.421,12.83,102.983Z" transform="translate(-1.765)" fill="#ebf3fa"/><path d="M1034.193,3306.79a1.176,1.176,0,0,0,.133.055H1060.7c-.246-.938-1.109-2.648-4.126-3.139-4.093-.665-11.185-3.042-12.768-8.278-.05-.167-.1-.34-.135-.515-1.256-5.593-10.39,1.714-10.39,1.714s-.029.222-.067.6C1033,3299.282,1032.459,3305.922,1034.193,3306.79Z" transform="translate(-60.118 -45.732)" fill="#2c3a64"/><path d="M1068.863,3193.5s-17.152,60.925-22.319,84.487c0,0-12.73,2.555-14.71-1.447,0,0,4.1-66.347,11.648-74.774C1052.869,3191.277,1068.863,3193.5,1068.863,3193.5Z" transform="translate(-59.907 -27.158)" fill="#294d6d"/><g transform="translate(911.771 3063.4)"><path d="M1077.8,3112.339a12.664,12.664,0,0,1,.252-5c.7-2.27,3.638-8.256,2.709-10.336s-4.293-7.677-6.368-7.661,2.181,5.99,1.6,7.855-.778,2.018-1.5,1.854-1.818-3.737-2.183-2.9-.152,6.362.534,7.742-.721,9.163-.721,9.163Z" transform="translate(-979.198 -3071.154)" fill="#ed975d"/><path d="M1071.1,3115.436s-4.592-2.608-8.144-1.509c0,0-7.048,20.3-10.93,35.229a313.724,313.724,0,0,1-12.036-36.723s-9.034,12.477-12.3,20.773,16.229,37.4,23.792,39.685c7.893,2.384,6.456,0,10.91-2.553C1063.827,3168.479,1068.409,3159.226,1071.1,3115.436Z" transform="translate(-970.837 -3075.463)" fill="#75aee1"/><path d="M1106.4,3307.958a1.391,1.391,0,0,0,.133.055h26.373c-.247-.939-1.109-2.648-4.127-3.139-4.092-.664-11.184-3.042-12.767-8.278-.05-.167-.1-.34-.135-.515-1.256-5.593-10.39,1.714-10.39,1.714s-.029.223-.067.6C1105.211,3300.45,1104.67,3307.09,1106.4,3307.958Z" transform="translate(-985.368 -3109.35)" fill="#2c3a64"/><path d="M1060.763,3190.581a34.285,34.285,0,0,0-5.74,3.48,16.049,16.049,0,0,0-.881-3.03c-22.632-5.894-83.214-5.413-83.214-5.413s-13.025,3.261-9.2,22.222c3.519,17.448,61.687,9.369,80.476,4.134q.659-.184,1.277-.385c-1.495,11.117,8.974,26.975,18.138,41.57,7.554,12.031,13.984,24.209,13.984,24.209,3.794,2.353,16.532.992,16.532.992C1084.085,3255.623,1060.763,3190.581,1060.763,3190.581Z" transform="translate(-958.461 -3089.123)" fill="#3e73a3"/><g transform="translate(52.355)"><path d="M1022.243,3102.582s6.5,20.8,16.257,25.453c0,0,.923-6.311-.656-11.11,1.289-.986,2.431-1.9,3.427-2.727a63.582,63.582,0,0,0,4.983-4.518l-1.451-10.142-.984-6.882a31.353,31.353,0,0,1-4.86,4.528A25.766,25.766,0,0,1,1022.243,3102.582Z" transform="translate(-1022.243 -3071.772)" fill="#ffb27d"/><path d="M1042.575,3098.223s-3.272,9,2.312,17.014a63.653,63.653,0,0,0,4.982-4.518l-1.451-10.142A20.406,20.406,0,0,0,1042.575,3098.223Z" transform="translate(-1025.86 -3072.811)" fill="#ed975d"/><path d="M1052.556,3108.938s-14.389-9.547-8.306-18.416,8.323-16.075,17.767-10.354,8.889,10.316,7.579,13.771S1056.456,3111.193,1052.556,3108.938Z" transform="translate(-1026.071 -3069.06)" fill="#ffb27d"/><path d="M1045.421,3069.875c-.063-.242-.333-.543-1.061-.952a3.344,3.344,0,0,1,1.6.285c.675-.981,2.146-2.582,4.163-2.159a2.54,2.54,0,0,0-1.9,1.113c3.138-1.148,8.359-.545,20.2,6.479,15.6,9.258,5.075,17.193,2.356,17.423s-6.319-5.815-10.391-7.418-7.632,3.78-9.347,3.917-.51-1-1.9-2.707-3.046,1.236-3.491,3.457-4.185,3.606-4.185,3.606l-1.159-3.954c-1.158-3.953,2.155-16.669,4.5-18.578C1045,3070.218,1045.21,3070.046,1045.421,3069.875Z" transform="translate(-1025.569 -3066.979)" fill="#2b478b"/></g><path d="M1027.735,3139.165a141.144,141.144,0,0,1-8.79,17.627c-1.863,3.078-3.862,5.9-5.69,8.371l-.173.235c-3.6,4.844-9.108,6.178-8.937,7.394.344,2.437-5.812,8.285-15.963,10.878-11.778,3.009-25.427,4.458-28.877.477-1.154-1.337-1.538-3.8-1.41-6.852.252-6.438,8.356-32.365,8.356-32.365,13.863-41.953,53.563-41.953,53.563-41.953s-.778,10.05,8.966,13.539C1028.794,3116.535,1031.071,3131.266,1027.735,3139.165Z" transform="translate(-957.872 -3073.698)" fill="#75aee1"/><path d="M1072.436,3184.173a67.692,67.692,0,0,1,7.6,3.131c1.635,1.024,5.4,6.175,5.823,7.981s.92,7.113.612,8-4.873-2.517-5.886-5.722-3.621-4.067-3.521-3.9,1.434,4.275,1.152,4.452-1.5.484-2.6-1.807-3.281-3.963-2.869-6.33A19.236,19.236,0,0,0,1072.436,3184.173Z" transform="translate(-979.257 -3088.854)" fill="#ffb27d"/><path d="M1010.734,3178.934c.344,2.437-6.01,7.946-16.16,10.539-8.468-16.845,7.632-55.406,7.632-55.406l17.44,36.9C1015.967,3175.935,1010.561,3177.7,1010.734,3178.934Z" transform="translate(-964.264 -3079.502)" fill="#3e73a3"/><path d="M1029.565,3163.854c-1.863,3.078-3.862,5.9-5.69,8.371l-.173.235a14.082,14.082,0,0,1-5.963-4.454c-2.747-3.879-2.974-27.2-2.974-27.2S1026.011,3154.7,1029.565,3163.854Z" transform="translate(-968.492 -3080.76)" fill="#97c2e8"/><path d="M1061.162,3170.605s-27.2-7.614-41.164-10.946c1.231-16.474,5.263-66.278-20.1-46.341,0,0-1.917,53.375,10.375,64.186,0,0,39.459.836,46.973.375a11.493,11.493,0,0,0,2.756-1.9A7.515,7.515,0,0,0,1061.162,3170.605Z" transform="translate(-965.696 -3074.763)" fill="#75aee1"/></g><g transform="translate(795.722 3167.385)"><path d="M870.962,3275.155l1-.09a16.173,16.173,0,0,0-5.913-11.395,18.636,18.636,0,0,1-5.13-7.2s6.534-7.622.4-12.464c0,0-4.478-2.711-8.129-2.49,0,0,5.174,8.675,3.5,9.538s-5.068-10.082-5.068-10.082-10.19-.988-13.467.588c0,0,8.711,7.128,6.876,7.552s-11.244-6.573-11.244-6.573-9.484,1.614-8.978,7.4,3.774,7.571,5.21,7.417,9.838-3.361,10.02-2.184-4.874,5.022-8.416,5.2c0,0,6.686,7.375,11.131,5.246s4.823-5.5,7.593-6.767,5.135-1.261,3.991.028-6.157,2.545-7.741,5.347-3.005,4.692,1.592,4,12.072-4.056,12.4-7.908l.041-.481a1.84,1.84,0,0,1-.041.481c.959.171,2.951,1.936,4.39,3.319.221.242.548.568,1.018,1,.176.177.322.327.431.439C869.354,3268.281,870.962,3275.155,870.962,3275.155Z" transform="translate(-816.983 -3203.385)" fill="#82b378"/><g transform="translate(59.95 16.589)"><path d="M895.731,3242.137s-10.393-5.82-5.543-13.719c0,0,3.88-4.85,8.037-6.1,0,0-2.217,11.778,0,12.055s1.524-13.3,1.524-13.3,10.947-5.266,15.243-4.85c0,0-6.79,11.5-4.573,11.224s9.839-11.917,9.839-11.917,11.223-2.078,13.025,4.573-1.109,9.977-2.771,10.393-12.333.277-12.055,1.663,7.483,3.6,11.5,2.355c0,0-4.434,10.947-10.254,10.393s-7.621-4.157-11.224-4.434-6.235.693-4.434,1.663,7.9.317,10.808,2.792,5.266,4-.138,5.107-15.1.416-17.043-3.741Z" transform="translate(-888.899 -3215.225)" fill="#a8d29f"/><path d="M928.464,3223.781s-29.1,9.423-32.425,19.954a22.1,22.1,0,0,1-2.772,10.115,19.2,19.2,0,0,0-1.929,15.11l1.155-.31s-1.009-8.23.9-13c.077-.176.191-.43.333-.739.345-.675.576-1.171.724-1.531,1.038-2.129,2.535-4.909,3.534-5.492C897.979,3247.892,891.466,3238.746,928.464,3223.781Z" transform="translate(-889.207 -3216.822)" fill="#82b378"/></g><path d="M865.438,3230.3s13.7-7.672,7.307-18.083c0,0-5.115-6.393-10.595-8.036,0,0,2.922,15.526,0,15.891s-2.009-17.535-2.009-17.535-14.43-6.941-20.093-6.393c0,0,8.951,15.16,6.028,14.794s-12.968-15.708-12.968-15.708-14.8-2.74-17.17,6.028,1.461,13.151,3.653,13.7,16.256.365,15.891,2.192-9.863,4.749-15.161,3.105c0,0,5.845,14.429,13.517,13.7s10.046-5.479,14.8-5.845,8.219.914,5.845,2.192-10.411.419-14.247,3.68-6.941,5.271.183,6.731,19.909.548,22.466-4.931Z" transform="translate(-815.19 -3194.828)" fill="#a8d29f"/><path d="M870.814,3245.742a29.143,29.143,0,0,1-3.654-13.334c-4.383-13.881-42.741-26.3-42.741-26.3,48.769,19.727,40.184,31.783,40.184,31.783,1.314.766,3.285,4.422,4.653,7.227.194.477.5,1.138.961,2.035.185.405.334.737.437.969,2.511,6.283,1.181,17.132,1.181,17.132l1.522.409A25.3,25.3,0,0,0,870.814,3245.742Z" transform="translate(-816.913 -3196.934)" fill="#82b378"/><path d="M844.545,3275.489a26.834,26.834,0,1,0,53.669,0Z" transform="translate(-820.669 -3209.885)" fill="#ed7d2b"/><path d="M866.262,3275.489c0,10.055,2.409,20.293,10.593,24.889,1.36.764,5.915-.063,7.409.457a26.845,26.845,0,0,0,18-25.346Z" transform="translate(-824.723 -3209.885)" fill="#f99746"/><path d="M876.752,3302.323c1.091.136-4.4,0-3.269,0a26.834,26.834,0,0,0,26.833-26.834H893.65C893.65,3289.181,890,3300.681,876.752,3302.323Z" transform="translate(-826.042 -3209.885)" fill="#ffb176"/><path d="M844.089,3309.4H898.5a3.311,3.311,0,0,0-3.312-3.312H847.4A3.311,3.311,0,0,0,844.089,3309.4Z" transform="translate(-820.584 -3215.597)" fill="#ed7d2b"/><path d="M875.434,3309.4h28.917a3.311,3.311,0,0,0-3.312-3.312h-22.3A3.311,3.311,0,0,0,875.434,3309.4Z" transform="translate(-826.435 -3215.597)" fill="#f99746"/><rect width="55.162" height="0.823" transform="translate(78.427 66.427) rotate(180)" fill="#db6a1f"/></g><g transform="translate(913.365 3188.072)"><rect width="69.907" height="18.369" rx="4.842" transform="translate(0.732)" fill="#f99746"/><path d="M1030.639,3235.622v1.911a3.95,3.95,0,0,1-3.938,3.938H964.67a3.95,3.95,0,0,1-3.938-3.938v-2.068h68.778A4.13,4.13,0,0,1,1030.639,3235.622Z" transform="translate(-960 -3223.101)" fill="#ed7d2b"/><g transform="translate(0 18.274)"><path d="M975.5,3242.827l-2.8,10.591,0,0L961.056,3297.5h-1.224l6.728-36.573c.006-.036.016-.072.023-.111l3.328-18.087Z" transform="translate(-959.832 -3242.732)" fill="#e8c6a7"/></g><path d="M977.046,3242.827l-2.8,10.591,0,0c-.161.079-5.251,2.711-6.115,7.4l3.328-18.087Z" transform="translate(-961.381 -3224.458)" fill="#c69d7b"/><g transform="translate(54.974 18.274)"><path d="M1043.088,3297.5h-1.224l-9.485-35.909v-.007l-2.156-8.166,0,0-2.8-10.591,5.586-.1,1.9,10.342,1.424,7.745c.007.04.017.076.024.111Z" transform="translate(-1027.423 -3242.732)" fill="#e8c6a7"/></g><path d="M1023.428,3259.892c-.007,0-.013,0-.02-.013C1023.381,3259.833,1023.388,3259.843,1023.428,3259.892Z" transform="translate(-971.696 -3227.653)" fill="#e8c6a7"/><path d="M1034.912,3253.074a15.418,15.418,0,0,0-2.534,8.514l-2.156-8.166,0,0-2.8-10.591,5.586-.1Z" transform="translate(-972.449 -3224.458)" fill="#c69d7b"/></g><rect width="433.084" height="1.149" rx="0.574" transform="translate(710.894 3261.117)" fill="#2e3552"/></g></svg>