<svg xmlns="http://www.w3.org/2000/svg" xmlns:xlink="http://www.w3.org/1999/xlink" width="315.001" height="260.271" viewBox="0 0 315.001 260.271"><defs><linearGradient id="a" x1="35.521" y1="-3.178" x2="34.978" y2="-1.696" gradientUnits="objectBoundingBox"><stop offset="0.059" stop-color="#bed0d4"/><stop offset="0.061" stop-color="#cbdee2"/><stop offset="0.294" stop-color="#cbdee2"/><stop offset="0.294" stop-color="#bacdd0"/><stop offset="0.354" stop-color="#bacdd0"/><stop offset="0.354" stop-color="#abbcbe"/></linearGradient><linearGradient id="b" x1="303.327" y1="-17.373" x2="303.206" y2="-17.798" gradientUnits="objectBoundingBox"><stop offset="0.035" stop-color="#3c3c3d"/><stop offset="1" stop-color="#ececed"/></linearGradient><linearGradient id="c" x1="311.387" y1="-18.355" x2="310.401" y2="-17.413" gradientUnits="objectBoundingBox"><stop offset="0.051" stop-color="#424a4c"/><stop offset="1" stop-color="#7a898e"/></linearGradient><linearGradient id="d" x1="1273.312" y1="-90.337" x2="1274.734" y2="-90.337" gradientUnits="objectBoundingBox"><stop offset="0.126" stop-color="#fff"/><stop offset="0.127" stop-color="#fff"/><stop offset="0.438" stop-color="#fff"/><stop offset="0.441" stop-color="#fff"/><stop offset="0.837" stop-color="#fff"/><stop offset="0.839" stop-color="#f0f1f0"/></linearGradient><linearGradient id="e" x1="1518.355" y1="-107.865" x2="1519.568" y2="-107.865" gradientUnits="objectBoundingBox"><stop offset="0.126" stop-color="#ecf0f0"/><stop offset="0.127" stop-color="#fdffff"/><stop offset="0.438" stop-color="#fdffff"/><stop offset="0.441" stop-color="#d6d9d7"/><stop offset="0.837" stop-color="#d6d9d7"/><stop offset="0.839" stop-color="#b8bab9"/></linearGradient><clipPath id="f"><path d="M237.953,205.284l.015-5.288,47.751,27.569-.015,5.288Z" transform="translate(-237.953 -199.996)" fill="none"/></clipPath></defs><g transform="translate(-72.226 -191.588)"><g transform="translate(72.226 191.588)"><g transform="translate(0 54.904)"><path d="M80.3,338.159c1.147-.664,1.913-.158,2.414,1.154L258.651,237.762a45.546,45.546,0,0,1,45.551-.007l76.185,44.03a13.3,13.3,0,0,1,1.53,1.01l.108-6.689a21.512,21.512,0,0,1,2.463,3.381,19.368,19.368,0,0,1,2.729,10.1l.006,12.868,0,2.466a10.641,10.641,0,0,1-1.344,5.284,24.062,24.062,0,0,1-4.421,5.736A15.976,15.976,0,0,1,376.775,320l-.219.126L196.324,424.191l-4.314,2.491a37.9,37.9,0,0,1-37.936.017l-70.9-40.929a14.883,14.883,0,0,1-4.16-2.915,20.92,20.92,0,0,1-2.007-1.9l-.318-.363a16.933,16.933,0,0,1-1.624-2.12c-.264-.395-.56-.844-.844-1.335-.185-.258-.342-.531-.516-.832a16.794,16.794,0,0,1-1.464-3.669l0-4.3-.014-17.18C73.552,345.7,76.1,340.586,80.3,338.159Z" transform="translate(-72.226 -226.411)" fill="url(#a)"/><path d="M260.417,235.613l2.327-1.344a45.589,45.589,0,0,1,45.565-.014l68.918,39.8a18.174,18.174,0,0,1,.011,31.467L191.259,412.9a39.6,39.6,0,0,1-39.611,0L82.537,373.013a20.027,20.027,0,0,1-2.112-33.285,16.71,16.71,0,0,1,2.115-1.417Z" transform="translate(-72.078 -228.162)" fill="#fff"/><path d="M266.964,233.62a37.94,37.94,0,0,1,37.942-.011l18.878,10.9L375.8,274.54a16.055,16.055,0,0,1,0,27.808L191.012,409.035a36.662,36.662,0,0,1-8.507,3.592,37.837,37.837,0,0,1-29.446-3.6l-3.851-2.225L82.168,368.1a16.061,16.061,0,0,1,0-27.807Z" transform="translate(-71.263 -227.976)" fill="#353b3c"/><path d="M318.8,244.141l38.947,22.488c10.7,6.167,14.34,19.505-.013,27.792L175.981,399.371a37.149,37.149,0,0,1-8.515,3.606,37.806,37.806,0,0,1-29.436-3.616l-3.863-2.211L104.22,379.843Z" transform="translate(-56.19 -220.153)" fill="#7a898e"/><path d="M251.516,237.6,357.23,298.816l-164.211,94.8L87.467,332.487a15.347,15.347,0,0,1,1.928-1.291Z" transform="translate(-64.587 -223.43)" fill="#0f0f11"/><path d="M252.036,237.037l108.859,63.036L191.767,397.715,83.073,334.767a15.578,15.578,0,0,1,1.986-1.33Z" transform="translate(-66.789 -223.713)" fill="#0f0f11"/><path d="M250.59,238.139,356.3,299.352l-164.211,94.8L86.539,333.023a15.184,15.184,0,0,1,1.928-1.291Z" transform="translate(-65.052 -223.161)" fill="#64b4d9"/><path d="M337.846,290.148l-58.182-33.691-156.381,99.33,50.35,29.159Z" transform="translate(-46.635 -213.979)" fill="#80d0f5"/><path d="M72.235,344.7a12.42,12.42,0,0,0,.691,1.387,42.715,42.715,0,0,0,5.97,8.132,15.611,15.611,0,0,0,4.071,3.33l70.9,40.93a37.842,37.842,0,0,0,37.936-.016l4.314-2.492L376.364,291.932l.218-.126a16.618,16.618,0,0,0,4.688-4.055,26.1,26.1,0,0,0,5.949-8.934l0,2.16a11.547,11.547,0,0,1-1.492,5.847,23.819,23.819,0,0,1-4.272,5.479,15.974,15.974,0,0,1-4.687,4.053l-.219.126L196.319,400.553,192,403.044a37.9,37.9,0,0,1-37.936.017l-70.9-40.929a14.882,14.882,0,0,1-4.16-2.915c-.483-.522-1.118-.992-2.007-1.9l-.318-.363a16.931,16.931,0,0,1-1.624-2.12c-.264-.395-.56-.844-.844-1.335-.185-.258-.342-.531-.516-.832A16.792,16.792,0,0,1,72.238,349Z" transform="translate(-72.221 -202.773)" fill="#fff" style="mix-blend-mode:multiply;isolation:isolate"/><g transform="translate(51.23 151.036)"><path d="M117.778,332.1c0,1.837-2.558,3.33-5.712,3.328s-5.714-1.491-5.714-3.328,2.558-3.328,5.714-3.328S117.778,330.262,117.778,332.1Z" transform="translate(-106.352 -328.771)" fill="#fff"/><path d="M116.921,331.1c-.689-1.192-2.749-2.025-5.01-2.025-2.9,0-5.251,1.293-5.253,2.878a1.7,1.7,0,0,0,.242.854c.688,1.192,2.747,2.025,5.008,2.024a7.75,7.75,0,0,0,3.759-.875,2.461,2.461,0,0,0,1.494-2A1.7,1.7,0,0,0,116.921,331.1Z" transform="translate(-106.198 -328.621)" fill="#4a5151"/><path d="M114.706,331.633a3.948,3.948,0,0,0-3.321-1.341c-1.922,0-3.483.856-3.484,1.907a1.134,1.134,0,0,0,.161.567,3.959,3.959,0,0,0,3.321,1.342,5.13,5.13,0,0,0,2.492-.582,1.632,1.632,0,0,0,.992-1.327A1.149,1.149,0,0,0,114.706,331.633Z" transform="translate(-105.576 -328.009)" fill="#849392"/><path d="M113.149,331.083a2.463,2.463,0,0,0-2.066-.835c-1.195,0-2.166.533-2.168,1.186a.721.721,0,0,0,.1.354,2.463,2.463,0,0,0,2.066.833,3.193,3.193,0,0,0,1.549-.362,1.014,1.014,0,0,0,.617-.826A.729.729,0,0,0,113.149,331.083Z" transform="translate(-105.067 -328.031)" fill="#afbfbf"/></g><path d="M107.445,324.3l20.819,11.546a2.82,2.82,0,0,0,2.818,0l.2-.117a.889.889,0,0,0,0-1.539l-20.571-11.9a2.82,2.82,0,0,0-2.818,0l-.2.117C107.1,322.749,106.854,323.96,107.445,324.3Z" transform="translate(-54.744 -181.172)" fill="#425455"/><path d="M107.625,324.293l20.143,11.655a2.764,2.764,0,0,0,2.761,0l.2-.114c.579-.335.083-1.177-.5-1.512l-20.145-11.655a1.915,1.915,0,0,0-2.262.006l-.2.114A.869.869,0,0,0,107.625,324.293Z" transform="translate(-54.701 -180.978)" fill="#0f0f11"/><path d="M108.021,323.688l20.142,11.685a1.311,1.311,0,0,0,1.315,0l.095-.054c.276-.159.039-.56-.237-.721l-20.143-11.684a.912.912,0,0,0-1.078,0l-.095.054A.414.414,0,0,0,108.021,323.688Z" transform="translate(-54.389 -180.758)" fill="#676b6c"/><g transform="translate(234.917 21.011)"><path d="M266.062,257.374c.92,1.594-1.588,4.771-3.181,5.693l-.887.51c-2.213,1.279-6.293,2.046-8.507.769l-23.308-13.439a3.328,3.328,0,0,1-1.225-1.216c-.92-1.594.961-4.411,2.555-5.331l.89-.512c2.211-1.276,6.919-2.408,9.13-1.129l23.311,13.439a3.335,3.335,0,0,1,1.222,1.213Z" transform="translate(-228.711 -242.158)" fill="#0f0f11"/><path d="M230.01,250.229l23.246,13.4c2.31,1.335,6.488.566,8.8-.769h0c2.042-1.178,4-5.257,1.961-6.436l-23.248-13.4c-2.309-1.333-7.114-.2-9.425,1.13h0C229.3,245.333,227.968,249.05,230.01,250.229Z" transform="translate(-228.571 -242.023)" fill="url(#b)"/><path d="M231.392,244.243c2.126-1.228,6.7-2.352,8.833-1.141l23.363,13.424.045.03a1.208,1.208,0,0,1,.407.411c.875,1.516-.718,4.6-2.4,5.571-2.126,1.228-6.075,1.991-8.206.779L239.011,255l-8.943-5.109a1.345,1.345,0,0,1-.44-.42C228.753,247.957,229.708,245.215,231.392,244.243Z" transform="translate(-228.417 -241.945)" fill="url(#c)"/><path d="M248.2,247.5l11.4,6.559.045.03a1.208,1.208,0,0,1,.407.411c.875,1.516-.718,4.6-2.4,5.571-2.126,1.228-6.075,1.991-8.206.779l-12.19-7.029Z" transform="translate(-224.429 -239.479)" fill="#6c797c"/></g><g transform="translate(72.41 186.617)"><path d="M126.942,354.62a7.563,7.563,0,0,1,1.716,2.5,2.706,2.706,0,0,1,.212.537,2.745,2.745,0,0,1-.368,2.876c-1.189,1.2-3.837.5-5.9-1.552a7.953,7.953,0,0,1-1.477-2.006c-.823-1.554-.905-3.094-.083-3.912C122.245,351.858,124.894,352.553,126.942,354.62Z" transform="translate(-120.46 -352.473)" fill="url(#d)"/><path d="M121.082,353.907c-.306,1.139.438,2.891,1.807,4.26,1.755,1.755,3.965,2.4,4.925,1.438a1.438,1.438,0,0,0,.371-.664c.3-1.138-.438-2.891-1.807-4.259a6.647,6.647,0,0,0-2.807-1.746,2.112,2.112,0,0,0-2.118.306A1.459,1.459,0,0,0,121.082,353.907Z" transform="translate(-120.183 -352.308)" fill="url(#e)"/></g><path d="M121.12,356.979a18.077,18.077,0,0,1,2.453-1.465c1.344-.621,2.869-.608,4.7,1.654-.026-.095-.033-.183-.065-.279a2.7,2.7,0,0,0-.212-.537,7.321,7.321,0,0,0-1.1-1.773c-2.042-2.033-4.66-2.713-5.859-1.512C120.215,353.885,120.3,355.426,121.12,356.979Z" transform="translate(-48.05 -165.855)" fill="#ededec" style="mix-blend-mode:multiply;isolation:isolate"/><path d="M301.917,233.511,320.8,244.387l13.071,7.565,38.947,22.488c10.7,6.167,14.282,19.538-.013,27.792L191.044,407.182a37.151,37.151,0,0,1-8.515,3.606,37.805,37.805,0,0,1-29.436-3.616l-3.863-2.211-29.948-17.306L82.2,366.242a15.831,15.831,0,0,1-7.982-13.277,15.885,15.885,0,0,0,7.944,15.119l67.04,38.707,3.851,2.225a37.837,37.837,0,0,0,29.446,3.6A36.665,36.665,0,0,0,191,409.022L375.787,302.335a16.055,16.055,0,0,0,0-27.808L323.773,244.5,304.9,233.6a37.793,37.793,0,0,0-19.687-5.032A37.49,37.49,0,0,1,301.917,233.511Z" transform="translate(-71.253 -227.963)" fill="#2e3233"/></g><g transform="translate(40.694)"><g transform="translate(0 9.726)"><g transform="translate(104.772)"><g transform="translate(6.613)"><g transform="translate(40.605)"><g transform="translate(9.971 19.527)"><g style="isolation:isolate"><g transform="translate(5.994 3.461)"><path d="M211.213,265.245l2.857-1.66.142-50.2-2.857,1.66Z" transform="translate(-211.213 -213.38)" fill="#001f33"/></g><g transform="translate(0.142)"><path d="M213.309,216.2l2.857-1.66-5.994-3.461-2.857,1.66Z" transform="translate(-207.316 -211.075)" fill="#003553"/></g><g transform="translate(0 1.66)"><path d="M207.363,212.181l-.142,50.2,5.994,3.461.142-50.2Z" transform="translate(-207.221 -212.181)" fill="#003b5b"/></g></g></g><g style="isolation:isolate"><g transform="translate(26.589 15.351)"><path d="M218.291,223.657l2.857-1.66.039-13.7-2.857,1.66Z" transform="translate(-218.291 -208.293)" fill="#001f33"/></g><g transform="translate(0.039)"><path d="M227.194,215.079l2.857-1.66-26.589-15.351-2.857,1.66Z" transform="translate(-200.605 -198.067)" fill="#003553"/></g><g transform="translate(0 1.66)"><path d="M200.618,199.173l-.039,13.7,26.589,15.352.039-13.7Z" transform="translate(-200.579 -199.173)" fill="#003b5b"/><path d="M216.066,218.511,202.013,210.4l.025-8.749,14.028,8.1Z" transform="translate(-199.86 -197.933)" fill="#f2fafd"/></g></g><g transform="translate(22.51 16.434)"><path d="M215.582,209.015l-.009,3.18,2.767,1.6.009-3.18Z" transform="translate(-215.573 -209.015)" fill="#2b94db"/></g><g transform="translate(19.221 14.584)"><path d="M213.391,207.782l-.009,3.18,2.767,1.6.009-3.18Z" transform="translate(-213.382 -207.782)" fill="#2b94db"/></g><g transform="translate(22.51 20.241)"><path d="M215.582,211.551l-.009,3.18,2.767,1.6.009-3.179Z" transform="translate(-215.573 -211.551)" fill="#ea3017"/></g><g transform="translate(19.221 18.391)"><path d="M213.391,210.318l-.009,3.18,2.767,1.6.009-3.179Z" transform="translate(-213.382 -210.318)" fill="#2b94db"/></g></g><g transform="translate(0 58.083)"><g style="isolation:isolate"><g transform="translate(0 22.173)"><path d="M173.53,251.528l.016,5.491,36.137,21-.016-5.491Z" transform="translate(-173.53 -251.528)" fill="#002439"/></g><g transform="translate(36.137 21)"><path d="M197.6,272.921l.016,5.491,38.405-22.173-.016-5.491Z" transform="translate(-197.602 -250.747)" fill="#002236"/></g><path d="M173.53,258.932l36.137,21,38.406-22.173-36.137-21Z" transform="translate(-173.53 -236.758)" fill="#00486d"/></g></g></g><g transform="translate(0 57.142)"><g transform="translate(0 18.192)"><g style="isolation:isolate"><g transform="translate(44.701 25.808)"><path d="M205.541,265.441l-.007,2.43-6.632,3.854.007-2.43Z" transform="translate(-198.902 -265.441)" fill="#803f1d"/></g><g transform="translate(0 3.854)"><path d="M213.833,276.625l-.007,2.43-44.7-25.808.007-2.43Z" transform="translate(-169.125 -250.817)" fill="#693317"/></g><g transform="translate(0.007)"><path d="M220.463,274.057l-6.632,3.854L169.13,252.1l6.632-3.854Z" transform="translate(-169.13 -248.25)" fill="#a05027"/></g></g></g><g transform="translate(16.842 8.894)"><g style="isolation:isolate"><g transform="translate(44.701 25.808)"><path d="M216.76,259.247l-.007,2.43-6.632,3.854.007-2.43Z" transform="translate(-210.121 -259.247)" fill="#803f1d"/></g><g transform="translate(0 3.854)"><path d="M225.052,270.431l-.007,2.43-44.7-25.808.007-2.43Z" transform="translate(-180.344 -244.623)" fill="#693317"/></g><g transform="translate(0.007)"><path d="M231.682,267.864l-6.632,3.854-44.7-25.808,6.632-3.854Z" transform="translate(-180.349 -242.056)" fill="#a05027"/></g></g></g><g transform="translate(31.215)"><g style="isolation:isolate"><g transform="translate(44.701 25.808)"><path d="M226.334,253.323l-.007,2.43-6.632,3.854.007-2.43Z" transform="translate(-219.695 -253.323)" fill="#803f1d"/></g><g transform="translate(0 3.854)"><path d="M234.626,264.507l-.007,2.43-44.7-25.808.007-2.43Z" transform="translate(-189.919 -238.699)" fill="#693317"/></g><g transform="translate(0.007)"><path d="M241.256,261.939l-6.632,3.854-44.7-25.808,6.632-3.854Z" transform="translate(-189.923 -236.132)" fill="#a05027"/></g></g></g><g transform="translate(3.339 1.927)"><g style="isolation:isolate"><g transform="translate(0 25.808)"><path d="M171.35,254.607l.007,2.43,6.632,3.854-.007-2.43Z" transform="translate(-171.35 -254.607)" fill="#803f1d"/></g><g transform="translate(6.632 3.854)"><path d="M175.767,265.791l.007,2.43,44.7-25.808-.007-2.43Z" transform="translate(-175.767 -239.983)" fill="#693317"/></g><path d="M171.35,263.223l6.632,3.854,44.7-25.808-6.632-3.854Z" transform="translate(-171.35 -237.415)" fill="#b55b2d"/></g></g><g transform="translate(21.686 12.904)"><g style="isolation:isolate"><g transform="translate(0 25.808)"><path d="M183.571,261.919l.007,2.43,6.632,3.854-.007-2.43Z" transform="translate(-183.571 -261.919)" fill="#803f1d"/></g><g transform="translate(6.632 3.854)"><path d="M187.989,273.1l.007,2.43,44.7-25.808-.007-2.43Z" transform="translate(-187.989 -247.295)" fill="#693317"/></g><path d="M183.571,270.535l6.632,3.854,44.7-25.808-6.632-3.854Z" transform="translate(-183.571 -244.727)" fill="#b55b2d"/></g></g></g><g transform="translate(17.266 39.675)"><g style="isolation:isolate"><g transform="translate(0 14.22)"><path d="M180.627,233.968l.47,30.193,23.708,13.349-.47-30.193Z" transform="translate(-180.627 -233.968)" fill="#b98347"/></g><g transform="translate(23.708 13.349)"><path d="M196.42,247.608l.47,30.193,23.844-14.22-.47-30.193Z" transform="translate(-196.42 -233.388)" fill="#e0b171"/></g><g transform="translate(40.458 37.486)"><g transform="translate(1.3 1.651)"><path d="M212.33,252.968v.51l-3.887,2.244v-.51Z" transform="translate(-208.443 -249.362)" fill="#553819"/><path d="M210.825,254.311l-.438.253v-2.737l-.436.252.655-1.512.655.756-.436.252Z" transform="translate(-207.687 -250.566)" fill="#553819"/><path d="M209.525,255.062l-.438.253v-2.737l-.436.252.655-1.512.655.756-.436.252Z" transform="translate(-208.338 -250.19)" fill="#553819"/></g><path d="M207.577,257.8v-3.818a2.772,2.772,0,0,1,1.335-2.1l3.818-2.2c.736-.425,1.335-.171,1.335.564v3.816a2.773,2.773,0,0,1-1.335,2.106l-3.818,2.2C208.176,258.788,207.577,258.534,207.577,257.8Zm1.335-5.654a2.217,2.217,0,0,0-1.066,1.681v3.818c0,.587.479.79,1.066.45l3.818-2.2a2.217,2.217,0,0,0,1.066-1.681v-3.818c0-.587-.479-.79-1.066-.45Z" transform="translate(-207.577 -249.467)" fill="#553819"/></g><g transform="translate(32.944 41.825)"><path d="M203.1,257.47a.043.043,0,0,0,.021-.033,2.121,2.121,0,0,1,.8-.635c.47-.272.8-.369.8-.285,0,.011.009.015.021.009a.046.046,0,0,0,.021-.033c0-.077.269-.312.665-.558v2.108l.011.249c.045.257.276.294.555.132a1.154,1.154,0,0,0,.564-.869c0-.077-.057-.1-.126-.063a.268.268,0,0,0-.126.209.624.624,0,0,1-.312.452c-.336.194-.3-.216-.3-.216v-2.153c.4-.215.667-.287.667-.21,0,.011.01.014.021.008a.043.043,0,0,0,.023-.032,2.09,2.09,0,0,1,.8-.637c.471-.272.8-.368.8-.284,0,.01.009.014.023.007a.05.05,0,0,0,.021-.033c-.038-.946-1.055-1.321-2.294-.7h0c0-.066-.083-.071-.182-.013s-.183.158-.183.225h0a5.166,5.166,0,0,0-2.3,3.343C203.082,257.473,203.091,257.478,203.1,257.47Z" transform="translate(-202.316 -251.734)" fill="#553819"/><path d="M202.572,260.689v-3.818a2.772,2.772,0,0,1,1.335-2.1l3.816-2.2c.737-.425,1.335-.173,1.335.564v3.816a2.771,2.771,0,0,1-1.335,2.106l-3.816,2.2C203.171,261.678,202.572,261.425,202.572,260.689Zm1.335-5.655a2.218,2.218,0,0,0-1.066,1.683v3.816c0,.588.477.791,1.066.452l3.816-2.2a2.215,2.215,0,0,0,1.067-1.683v-3.816c0-.588-.479-.79-1.067-.45Z" transform="translate(-202.572 -252.357)" fill="#553819"/></g><g transform="translate(25.429 46.162)"><path d="M199.055,258.9c.015.594.417.851.928.6v1.884l-.656.38v.243l1.476-.851v-.245l-.656.38V259.4a2.273,2.273,0,0,0,.926-1.675v-1.392l-2.018,1.165Z" transform="translate(-196.82 -254.699)" fill="#553819"/><path d="M197.566,263.579v-3.818a2.774,2.774,0,0,1,1.336-2.1l3.816-2.2c.736-.426,1.335-.173,1.335.564v3.816a2.777,2.777,0,0,1-1.335,2.106l-3.816,2.2C198.167,264.567,197.566,264.315,197.566,263.579Zm1.336-5.655a2.215,2.215,0,0,0-1.067,1.683v3.816c0,.588.479.791,1.067.452l3.816-2.2a2.213,2.213,0,0,0,1.066-1.683v-3.816c0-.588-.477-.791-1.066-.452Z" transform="translate(-197.566 -255.246)" fill="#553819"/></g><path d="M180.627,238.716l23.708,13.349,23.844-14.22L204.47,224.5Z" transform="translate(-180.627 -224.496)" fill="#f0cc8c"/></g><g transform="translate(9.225 5.194)"><path d="M210.615,227.956l4.906,2.762-23.843,14.22-4.906-2.762Z" transform="translate(-186.772 -227.956)" fill="#f8ecea"/></g><path d="M191.668,240.19l-4.9-2.762.067,4.912,4.9,2.738Z" transform="translate(-177.547 -218.014)" fill="#c0a899"/></g></g><g transform="translate(0 38.479)"><g transform="translate(96.259 65.583)"><path d="M166.572,270.8a18.191,18.191,0,0,0,3.4-3.415,4.274,4.274,0,0,1,.91.914L183.217,283a4.322,4.322,0,0,1-1.178,5.979,4.07,4.07,0,0,1-5.8-1L163.907,273.26a4.261,4.261,0,0,1-.453-.824A10.841,10.841,0,0,0,166.572,270.8Z" transform="translate(-163.454 -267.386)" fill="#043257"/></g><g transform="translate(0.948)"><g transform="translate(18.082 22.153)"><path d="M124.192,260.97a4.2,4.2,0,0,0,5.847,1.046h0a4.2,4.2,0,0,0,1.015-5.853l-11.415-15.905a4.2,4.2,0,0,0-5.849-1.046h0a4.2,4.2,0,0,0-1.013,5.852Z" transform="translate(-112.01 -238.456)" fill="#025285"/><path d="M125.259,269.9a3.89,3.89,0,0,0,4.678,2.879h0a3.569,3.569,0,0,0,2.765-4.151s-4.287-15.7-5.592-17.71l-2.476-1.192c-2.3-.293-4.316,5.945-4.316,5.945Z" transform="translate(-107.846 -232.81)" fill="#025285"/><path d="M129.291,262.522a21.987,21.987,0,0,1,1.025,2.463c.65,1.881,1.115,4.1.47,5.419-1.377,2.819-2.626,2.39-3.746,1.611-1.566-1.088-.935-6.388-2.3-8.381A10.326,10.326,0,0,1,129.291,262.522Z" transform="translate(-105.629 -226.394)" fill="#e5bb95"/></g><path d="M116.148,299.024s-6.572-1.615-4.811,5.765c.068.284.709,1.935,3.288,1.549,1.71-.257,3.312,1.272,3.809,1.645a11.645,11.645,0,0,0,8.889,1.821c5.335-.755-.665-5.729-4.351-7.483C119.112,300.482,116.148,299.024,116.148,299.024Z" transform="translate(-94.415 -186.021)" fill="#141618"/><path d="M105.061,298.611s-5.448-.565-4.978,4.154a4.959,4.959,0,0,0,3.454,3.159,16.614,16.614,0,0,1,3.809,1.647c2.962,2.226,6.662,4.086,8.019,3.8,5.274-1.114-1.109-6.819-3.481-9.464A10.393,10.393,0,0,0,105.061,298.611Z" transform="translate(-99.92 -186.163)" fill="#141618"/><path d="M117.207,323.183a13.45,13.45,0,0,1-5.508-2.055L109.587,260.5l12.05,1.683,2.061,59.371A10.148,10.148,0,0,1,117.207,323.183Z" transform="translate(-95.142 -205.255)" fill="#f78214"/><path d="M106.431,322.994a13.455,13.455,0,0,0,5.538-1.974l2.932-60.59-12.073,1.506-2.863,59.335A10.15,10.15,0,0,0,106.431,322.994Z" transform="translate(-99.965 -205.29)" fill="#f78214"/><path d="M126.4,283.275c0,.836-.013,1.686-.013,2.551-.545,2.231-8.462,1.115-10.986,1.913-6.694,2.085-13.448,3.705-13.58,2.324A.117.117,0,0,1,101.8,290c.677-14.691.257-11.8.682-23.366.068-1.792-2.683-20.283-1.593-22.129.531-.917,2.324-2.006,4.277-2.989.039-.027.08-.04.12-.068,1.129-.557,2.3-1.088,3.307-1.54a2.765,2.765,0,0,0,.291-.132c.638-.266,1.2-.506,1.608-.679a6.643,6.643,0,0,1,4.463-1.581,9.615,9.615,0,0,1,4.4.917c.159,0,.318.014.479.027a5.238,5.238,0,0,1,3.8,2.165c.134.159.254.332.372.5,2.112,3.135,2.43,8.143,2.551,10.109C126.887,256.534,126.542,266.643,126.4,283.275Z" transform="translate(-99.628 -216.776)" fill="#063963"/><g transform="translate(1.971 21.68)"><path d="M126.275,286.653l-25,5c0-.266.03-1.512.074-2.508.179-4.1.023-10.087.492-16.207.119-1.539.859-5.374.973-6.921.844-11.313,1.794-20.127,2.031-24.822.039-.027.08-.041.12-.068,1.129-.557,2.3-1.088,3.307-1.54a2.771,2.771,0,0,0,.291-.132l1.3,8.594,10.48-1.3-.836-8.606a5.238,5.238,0,0,1,3.8,2.165c.778,4.384,1.3,14.054,1.974,24.2.476,7.177.536,14.35.79,18.451C126.2,285.018,126.275,286.36,126.275,286.653Z" transform="translate(-101.278 -238.141)" fill="#f78214"/></g><path d="M113.17,242.279a5.485,5.485,0,0,1-2.863-.216,4.333,4.333,0,0,1-2.243-1.731l-.054-3.6,6.358-.531.21,4.432A1.989,1.989,0,0,1,113.17,242.279Z" transform="translate(-95.933 -217.432)" fill="#e5bb95"/><path d="M106.66,238.888c3.685,3.621,4.661,6.628,8.357,4.218s6.65-8.5,5.783-13.589c-.92-5.413-8.77-7.2-13.181-4.717C101.2,228.416,103.084,235.377,106.66,238.888Z" transform="translate(-98.251 -223.699)" fill="#39383b"/><path d="M106.143,235.406c.234,1.533,1.738,5.506,2.86,6.335,1.575,1.165,5.248,3.019,7.327,1.623,2.782-1.865,3.237-6.876,3.252-11.781s-3.726-5.844-6.918-3.762S105.4,230.554,106.143,235.406Z" transform="translate(-96.913 -222.156)" fill="#f0cfb1"/><path d="M106.092,234.509c-1.234,1.662.567-7.219.567-7.219.372-.291,8.2-1.4,8.372-1.4.1,0-.128-.087-.327-.147a5.314,5.314,0,0,1,3.09-.233c2.061.89,2.007,6.494,2.007,6.494s-.315-2.357-1.728-1.86c-.378.134-.192.9-2.744,1.142-2.309.216-2.831-.932-4.272.821-.6.736.264,2-1.753,3.064C107.963,235.881,108.385,231.424,106.092,234.509Z" transform="translate(-97.11 -222.866)" fill="#39383b"/></g><g transform="translate(7.296 18.038)"><g style="isolation:isolate"><g transform="translate(57.588 33.249)"><path d="M182.088,257.863l-.1,34.481-39.436,22.917.1-34.481Z" transform="translate(-142.554 -257.863)" fill="#b98347"/></g><g transform="translate(0 22.917)"><path d="M161.879,284.23l-.1,34.481-57.588-33.249.1-34.481Z" transform="translate(-104.193 -250.981)" fill="#e0b171"/></g><g transform="translate(0.098)"><path d="M201.282,268.964l-39.436,22.917-57.588-33.249,39.436-22.918Z" transform="translate(-104.258 -235.715)" fill="#f0cc8c"/></g></g><g transform="translate(16.029 8.917)"><path d="M123.031,241.655l-8.16,4.742,57.588,33.249,8.16-4.742Z" transform="translate(-114.871 -241.655)" fill="#f8ecea"/></g><path d="M153.243,268.543l8.143-4.74v8.235l-8.143,4.7Z" transform="translate(-79.609 -221.637)" fill="#c0a899"/><g transform="translate(84.705 57.406)"><g transform="translate(2.059 2.616)"><path d="M168.15,279.5v.808l-6.16,3.557v-.808Z" transform="translate(-161.99 -273.79)" fill="#553819"/><path d="M165.765,281.632l-.694.4V277.7l-.691.4,1.038-2.4,1.038,1.2-.691.4Z" transform="translate(-160.792 -275.697)" fill="#553819"/><path d="M163.706,282.821l-.694.4v-4.337l-.691.4,1.038-2.4,1.038,1.2-.691.4Z" transform="translate(-161.824 -275.102)" fill="#553819"/></g><path d="M160.618,287.158V281.11a4.39,4.39,0,0,1,2.115-3.336l6.048-3.492c1.166-.674,2.115-.273,2.115.893v6.048a4.4,4.4,0,0,1-2.115,3.337l-6.048,3.492C161.567,288.725,160.618,288.325,160.618,287.158Zm2.115-8.959a3.509,3.509,0,0,0-1.69,2.666v6.048c0,.931.758,1.252,1.69.713l6.048-3.492a3.509,3.509,0,0,0,1.69-2.665v-6.048c0-.932-.758-1.252-1.69-.715Z" transform="translate(-160.618 -273.955)" fill="#553819"/></g><g transform="translate(72.798 64.281)"><path d="M153.53,286.638a.068.068,0,0,0,.035-.051,3.322,3.322,0,0,1,1.264-1.009c.743-.429,1.263-.582,1.263-.45,0,.018.014.024.033.013a.075.075,0,0,0,.033-.051c0-.122.425-.5,1.054-.886v3.34l.015.393c.074.408.438.467.883.21a1.831,1.831,0,0,0,.893-1.375c0-.122-.089-.165-.2-.1a.427.427,0,0,0-.2.332.988.988,0,0,1-.494.716c-.533.308-.48-.344-.48-.344v-3.411c.632-.341,1.055-.455,1.055-.333,0,.017.015.022.033.012a.07.07,0,0,0,.035-.051,3.328,3.328,0,0,1,1.263-1.007c.746-.431,1.262-.582,1.262-.45,0,.018.015.023.035.01a.067.067,0,0,0,.035-.049c-.059-1.5-1.674-2.093-3.636-1.1h0c0-.105-.129-.113-.288-.021a.542.542,0,0,0-.29.356h0c-1.962,1.273-3.577,3.73-3.636,5.3C153.495,286.643,153.509,286.649,153.53,286.638Z" transform="translate(-152.281 -277.547)" fill="#553819"/><path d="M152.686,291.738V285.69a4.395,4.395,0,0,1,2.115-3.337l6.048-3.492c1.166-.673,2.115-.272,2.115.895V285.8a4.39,4.39,0,0,1-2.115,3.336l-6.048,3.492C153.635,293.306,152.686,292.9,152.686,291.738Zm2.115-8.961a3.516,3.516,0,0,0-1.689,2.666v6.048c0,.932.758,1.252,1.689.715l6.048-3.492a3.509,3.509,0,0,0,1.69-2.666V280c0-.931-.758-1.252-1.69-.713Z" transform="translate(-152.686 -278.535)" fill="#553819"/></g><g transform="translate(60.89 71.156)"><path d="M147.113,288.9c.024.943.662,1.35,1.471.956v2.986l-1.04.6v.387l2.337-1.35v-.387l-1.04.6V289.7a3.6,3.6,0,0,0,1.47-2.654v-2.205l-3.2,1.845Z" transform="translate(-143.572 -282.247)" fill="#553819"/><path d="M144.754,296.317v-6.048a4.388,4.388,0,0,1,2.117-3.336l6.047-3.492c1.166-.674,2.115-.273,2.115.893v6.048a4.4,4.4,0,0,1-2.115,3.337l-6.047,3.492C145.7,297.884,144.754,297.484,144.754,296.317Zm2.117-8.959a3.509,3.509,0,0,0-1.69,2.666v6.047c0,.932.758,1.253,1.69.715l6.047-3.492a3.509,3.509,0,0,0,1.69-2.665v-6.048c0-.932-.758-1.252-1.69-.715Z" transform="translate(-144.754 -283.114)" fill="#553819"/></g></g><g transform="translate(92.742 69.588)"><path d="M169.154,270.9a5.847,5.847,0,0,0-6.153.072,5.052,5.052,0,0,0-.006,7.877l15.368,8.675a4.3,4.3,0,0,0,6-.928h0a4.294,4.294,0,0,0-.961-6Z" transform="translate(-161.112 -270.054)" fill="#063963"/></g><g transform="translate(52.328 48.626)"><g transform="translate(25.413)"><path d="M173.322,325.017s1.211,3.845-.014,5.233c-.344.389-1.836.528-3.579.179-1.139-.228-2.375-.9-3.505-1.037a9.67,9.67,0,0,1-6.712-3.957c-2.984-3.836,2.342-2.758,5.832-1.585A27.821,27.821,0,0,0,173.322,325.017Z" transform="translate(-147.35 -222.675)" fill="#341500"/><path d="M164.554,342.131a7.2,7.2,0,0,1-3.806-4.016l-.608-40.153a6.235,6.235,0,1,1,12.469-.189l.653,43.145c0,.093-.008.183-.009.276C171.11,343.641,167.384,343.506,164.554,342.131Z" transform="translate(-146.597 -238.276)" fill="#e66811"/><path d="M165.8,327.651s1.21,3.845-.015,5.233c-.342.389-1.836.528-3.579.179-1.139-.228-2.375-.9-3.5-1.037a9.664,9.664,0,0,1-6.712-3.957c-2.986-3.836,2.34-2.758,5.831-1.585A27.836,27.836,0,0,0,165.8,327.651Z" transform="translate(-151.119 -221.355)" fill="#491f04"/><path d="M157.036,344.763a7.2,7.2,0,0,1-3.807-4.014l-.606-40.153a6.235,6.235,0,0,1,12.469-.189l.653,43.145c0,.093-.008.183-.011.276C163.592,346.275,159.866,346.14,157.036,344.763Z" transform="translate(-150.365 -236.956)" fill="#f78214"/><g transform="translate(2.274)"><path d="M155.938,275.01c-.591-.513,2.942-2.1,2.942-2.1l-.14-4.206,7.422-.755.111,3.244a2.714,2.714,0,0,1,.994-.263c1.12.3,3.286,3.279,3.286,3.279C170.538,274.223,155.986,278.186,155.938,275.01Z" transform="translate(-151.01 -250.149)" fill="#e5bb95"/><path d="M168.275,272.073c-3.426,3.7-5.4,2.474-8.908.078s-4.984-5.254-4.23-10.417c.8-5.488,4.54-6.449,11.457-5.1C174.105,258.1,172.529,267.475,168.275,272.073Z" transform="translate(-151.475 -256.09)" fill="#603b23"/><path d="M166.18,266.332c-.182,1.552-1.021,6.111-1.973,6.961-1.341,1.193-5.193,2.045-7,.655-2.412-1.86-2.318-5.993-2.393-10.956s3.3-5.82,6.068-3.747S166.759,261.416,166.18,266.332Z" transform="translate(-151.54 -255.037)" fill="#f0cfb1"/><path d="M172.028,261.78c-.51-2.109-5.532-1.788-5.532-1.788-.381-.291-.036-5.885-11.207-3.1-2.2.549-.164,5.847-.164,5.847a15.189,15.189,0,0,0,2.151-.347c1.371-.323.725,2.557,1.207,2.935a43.406,43.406,0,0,1,3.58,5.478c.192.324.38.646.558.953.763,1.315-.907,3.55-.763,3.92.257.66,3.861-.018,5.41-1.572C168.155,273.219,173.247,266.81,172.028,261.78Z" transform="translate(-151.815 -256.077)" fill="#603b23"/><path d="M160.327,265.24c-.431,1.306-1.043,2.082-1.866,1.988s-1.276-.964-1.12-2.33,1.335-2.384,2.163-2.289S160.815,263.761,160.327,265.24Z" transform="translate(-150.289 -252.827)" fill="#f0cfb1"/><path d="M152.7,310.183l24.462-.392c-.134-9.549-.8-23.506-1.2-28.616-.239-2.986-.643-11.256-7.1-11.244,0,0,2.169,2.822-2.764,3.984-4.84,1.139-7.065-1.314-7.065-1.314-2.156.973-6.47,4.429-6.131,16.221C153.081,295.2,152.887,304.087,152.7,310.183Z" transform="translate(-152.599 -249.153)" fill="#063963"/><path d="M152.908,291.815c-.008-1.854-.026-3.621-.072-5.238-.17-5.892.826-9.713,2.133-12.169a12.585,12.585,0,0,1,4,6.047c-.183.65-.356,1.309-.507,1.959a1.993,1.993,0,0,0-.584.527C155.731,285.615,153.522,288.366,152.908,291.815Z" transform="translate(-152.541 -246.909)" fill="#f78214"/><path d="M176.747,294.939c-1.174-1.138-2.963-2.27-3.882-3.454-4.769-6.152-2.806-14.491-1.762-17.256a21.762,21.762,0,0,1,1.449-3.083,5.6,5.6,0,0,0-3.642-1.211l.006.033a21.979,21.979,0,0,1-.03,3.746,10.727,10.727,0,0,1-.534,2.243c-.111.287-.294.707-.647.748a3.052,3.052,0,0,1-1.65-.474c-.7-.362-1.362-.79-2.024-1.216-.5-.324-4.971-2.412-4.971-2.412a7.648,7.648,0,0,0-2.481,1.861c2.927-.377,6.075,2.424,7.1,3.625,3.118,3.625,3.948,6.943,3.537,9.525-1.175,7.369-6.12,14.227-13.281,16.659a8.782,8.782,0,0,1-1.049.48c-.048,2.19-.227,4.226-.243,6.018-.033,3.736.135,6.313.135,6.313.9,1.2,14.527,1.049,20.7-.363,2.18-.5,3.234-1.938,3.748-4.2C177.209,307.691,177.007,301.034,176.747,294.939Z" transform="translate(-152.633 -249.152)" fill="#f78214"/></g></g><path d="M142.763,285.309c-.2.168-1.136.607-1.362.767-2.141-1.767-6.993-4.87-7.171-6.49-.173-1.551.077-3.041,3.664-2.887,1.36.059,4.85,3.136,6.206,4.447A4.09,4.09,0,0,1,142.763,285.309Z" transform="translate(-134.191 -245.766)" fill="#e5bb95"/><g transform="translate(5.19 33.25)"><path d="M140.027,282.6a18.134,18.134,0,0,0,2.04-4.366,4.3,4.3,0,0,1,1.166.552l16.588,9.651a4.321,4.321,0,0,1,.917,6.024,4.069,4.069,0,0,1-5.792,1.022l-16.593-9.668a4.332,4.332,0,0,1-.707-.621A10.865,10.865,0,0,0,140.027,282.6Z" transform="translate(-137.648 -278.239)" fill="#025285"/></g><g transform="translate(20.806 25.701)"><path d="M163.778,280.674a5.851,5.851,0,0,0-.911-6.087,5.054,5.054,0,0,0-7.8,1.069l-6.5,16.408a4.3,4.3,0,0,0,1.738,5.822h0a4.292,4.292,0,0,0,5.81-1.77Z" transform="translate(-148.05 -273.211)" fill="#025285"/></g></g><g transform="translate(0 25.013)"><path d="M105.383,267.342a4.7,4.7,0,0,0,5.738,3.337h0a4.691,4.691,0,0,0,3.306-5.754l-5.888-21.068a4.694,4.694,0,0,0-5.738-3.337h0a4.692,4.692,0,0,0-3.306,5.754Z" transform="translate(-99.333 -240.361)" fill="#025285"/><path d="M103.246,259.078a4.368,4.368,0,0,0,.089.91,4.481,4.481,0,0,0,.53,1.413,4.328,4.328,0,0,0,.959,1.187c.077.075.152.138.228.2l.075.051,14.251,10.944a3.214,3.214,0,0,0,2.828-.051,9.292,9.292,0,0,0,2.145-1.1,8.294,8.294,0,0,0,2.6-2.663,1.859,1.859,0,0,0,.2-1.7,1.344,1.344,0,0,0-.189-.266c-.013-.037-.051-.063-.089-.1a4.4,4.4,0,0,0-.7-.682l-14.15-10.881-1.186-.91a4.68,4.68,0,0,0-7.6,3.648Z" transform="translate(-97.372 -233.314)" fill="#025285"/><path d="M113.9,269.143a1.014,1.014,0,0,0,.227.24,3.214,3.214,0,0,0,2.828-.051.1.1,0,0,0,.05-.024,8.93,8.93,0,0,0,2.1-1.073,8.3,8.3,0,0,0,2.6-2.663c.026-.063.063-.126.077-.177a1.717,1.717,0,0,0,.126-1.527.27.27,0,0,0-.051-.128.484.484,0,0,0-.138-.138c-.013-.038-.051-.063-.089-.1-.631-.492-1.907-.366-3.333.264a2.371,2.371,0,0,0-.264.114,10.018,10.018,0,0,0-1.365.77,9.613,9.613,0,0,0-1.753,1.5,3.516,3.516,0,0,0-.354.443C113.775,267.591,113.509,268.55,113.9,269.143Z" transform="translate(-92.122 -228.914)" fill="#00355a"/><path d="M114.278,266.405a4.6,4.6,0,0,0,.922,1.351c.189.189.416.39.67.605.264.24.555.506.857.758,2.109,1.842,5.025,4.077,6.766,3.849,1.477-.2,2.8-.782,1.831-4.064-.417-1.389-2.1-2.689-3.825-3.7-.189-.114-.378-.215-.569-.315-.138-.077-.278-.14-.416-.2a22.846,22.846,0,0,0-2.5-1.111,2.371,2.371,0,0,0-.264.114,10.02,10.02,0,0,0-1.365.77,9.612,9.612,0,0,0-1.753,1.5A3.52,3.52,0,0,0,114.278,266.405Z" transform="translate(-91.843 -228.725)" fill="#e5bb95"/></g></g><g transform="translate(169.358 74.37)"><g transform="translate(0 10.943)"><g style="isolation:isolate"><path d="M213.493,270l39.41,22.9a7.289,7.289,0,0,0,6.58,0l29.661-17.126a2.32,2.32,0,0,0,1.366-1.918l.008,2.672a2.32,2.32,0,0,1-1.366,1.919l-29.662,17.126a7.276,7.276,0,0,1-6.578,0l-39.41-22.9a2.306,2.306,0,0,1-1.345-1.892l-.007-2.674A2.306,2.306,0,0,0,213.493,270Z" transform="translate(-212.147 -248.276)" fill="#d51e18"/><path d="M213.514,272.807c-1.813,1.048-1.824,2.764-.021,3.812l39.41,22.9a7.285,7.285,0,0,0,6.578,0l29.662-17.126c1.813-1.048,1.824-2.764.021-3.81l-39.41-22.9a7.276,7.276,0,0,0-6.578,0Z" transform="translate(-212.148 -254.896)" fill="#f25757"/></g><g transform="translate(3.378 0.73)"><g style="isolation:isolate"><g transform="translate(20.31 5.984)"><path d="M227.927,259.369l.007,2.593,1.043.606-.007-2.593Z" transform="translate(-227.927 -259.369)" fill="#8d8d8d"/></g><g transform="translate(21.353 6.59)" style="isolation:isolate"><g style="isolation:isolate"><path d="M228.622,259.773l.008,2.593a.482.482,0,0,1,.281.4l-.008-2.594a.482.482,0,0,0-.281-.395Z" transform="translate(-228.622 -259.773)" fill="#bdbdbd"/></g></g><g transform="translate(36.4 5.585)"><path d="M238.645,259.1l.007,2.593,2.435,1.415-.007-2.593Z" transform="translate(-238.645 -259.104)" fill="#8d8d8d"/></g><g transform="translate(11.372 6.551)" style="isolation:isolate"><g style="isolation:isolate"><path d="M221.973,260.438l.006,2.593a.6.6,0,0,1,.353-.491,1.86,1.86,0,0,1,1.68,0,.593.593,0,0,1,.347.486l-.006-2.593a.6.6,0,0,0-.348-.486,1.855,1.855,0,0,0-1.68,0,.6.6,0,0,0-.351.492Z" transform="translate(-221.973 -259.747)" fill="#ba7f27"/></g></g><g transform="translate(21.349 6.985)" style="isolation:isolate"><g style="isolation:isolate"><path d="M228.619,260.438l.007,2.593a.485.485,0,0,0,.285-.4l-.008-2.594a.489.489,0,0,1-.285.4Z" transform="translate(-228.619 -260.036)" fill="#ba7f27"/></g></g><g transform="translate(41.236 8.396)"><path d="M241.866,260.976l.007,2.593,2.428,1.411-.007-2.593Z" transform="translate(-241.866 -260.976)" fill="#8d8d8d"/></g><path d="M220.612,263.712a.742.742,0,0,1-.093-.332l-.008-2.593a.945.945,0,0,0,.546.785l1.07.622.007,2.594-.4-.231.008,2.435-1.016-.59a.491.491,0,0,1-.287-.4l-.008-2.594A.431.431,0,0,0,220.612,263.712Z" transform="translate(-211.372 -252.674)" fill="#895d1a"/><g transform="translate(10.366 11.726)"><path d="M221.3,263.194l.007,2.593,1.042.606-.007-2.593Z" transform="translate(-221.303 -263.194)" fill="#895d1a"/></g><g transform="translate(12.785 7.387)"><path d="M222.914,265.248l.007,2.593,8.564-4.944-.007-2.593Z" transform="translate(-222.914 -260.304)" fill="#8b5d1a"/></g><g transform="translate(11.408 12.331)" style="isolation:isolate"><g style="isolation:isolate"><path d="M222,263.6l.008,2.594a1.523,1.523,0,0,0,1.377,0l-.008-2.594a1.523,1.523,0,0,1-1.377,0Z" transform="translate(-221.997 -263.597)" fill="#ba7f27"/></g></g><g transform="translate(9.063 5.226)"><path d="M222.128,263.159l-1.07-.621c-.773-.449-.721-1.219.132-1.711l2.668-1.54a3.27,3.27,0,0,1,2.948-.066l1.069.621,1.408-.814a1.525,1.525,0,0,1,1.384,0l1.015.59,1.043.607a.422.422,0,0,1,0,.8l-8.564,4.943a1.523,1.523,0,0,1-1.377,0l-1.042-.6-1.016-.59a.424.424,0,0,1,0-.8Zm2.648-1.794a.515.515,0,0,0,0-.973,1.856,1.856,0,0,0-1.68,0,.517.517,0,0,0-.006.977,1.858,1.858,0,0,0,1.687,0Z" transform="translate(-220.435 -258.864)" fill="#ffbd00"/></g><g transform="translate(46.072 11.206)"><path d="M245.088,262.848l.007,2.593,2.428,1.411-.007-2.593Z" transform="translate(-245.088 -262.848)" fill="#8d8d8d"/></g><g transform="translate(51.157 14.161)"><path d="M248.475,264.816l.007,2.593,2.428,1.411-.007-2.593Z" transform="translate(-248.475 -264.816)" fill="#8d8d8d"/></g><g transform="translate(55.986 16.967)"><path d="M251.692,266.685l.007,2.593,2.435,1.415-.007-2.593Z" transform="translate(-251.692 -266.685)" fill="#8d8d8d"/></g><g transform="translate(9.625 5.585)"><path d="M220.809,274.562l.007,2.593L247.592,261.7l-.007-2.593Z" transform="translate(-220.809 -259.104)" fill="#8d8d8d"/></g><g transform="translate(12.06 7)"><path d="M222.431,275.5l.007,2.593,26.775-15.459-.007-2.593Z" transform="translate(-222.431 -260.046)" fill="#6c6c6d"/></g><g transform="translate(9.625 21.044)"><path d="M220.809,269.4l.007,2.593,2.435,1.415-.007-2.593Z" transform="translate(-220.809 -269.401)" fill="#6b6b6d"/></g><g transform="translate(14.461 8.396)"><path d="M224.031,276.434l.007,2.593,26.775-15.459-.007-2.593Z" transform="translate(-224.031 -260.976)" fill="#8d8d8d"/></g><g transform="translate(14.461 8.396)"><path d="M224.031,276.434l2.428,1.411,26.775-15.459-2.428-1.411Z" transform="translate(-224.031 -260.976)" fill="#c5c5c8"/></g><g transform="translate(14.461 23.854)"><path d="M224.031,271.273l.007,2.593,2.428,1.411-.007-2.593Z" transform="translate(-224.031 -271.273)" fill="#6b6b6d"/></g><g transform="translate(16.889 9.807)"><path d="M225.648,277.374l.007,2.593,26.775-15.459-.008-2.593Z" transform="translate(-225.648 -261.915)" fill="#6c6c6d"/></g><g transform="translate(19.297 11.206)"><path d="M227.252,278.306l.007,2.593,26.775-15.459-.007-2.593Z" transform="translate(-227.252 -262.848)" fill="#8d8d8d"/></g><g transform="translate(19.297 26.665)"><path d="M227.252,273.145l.007,2.593,2.428,1.411-.007-2.593Z" transform="translate(-227.252 -273.145)" fill="#6b6b6d"/></g><g transform="translate(21.725 12.617)"><path d="M228.869,279.246l.007,2.593,26.775-15.459-.007-2.593Z" transform="translate(-228.869 -263.788)" fill="#6c6c6d"/></g><g transform="translate(24.382 14.161)"><path d="M230.639,280.275l.007,2.593,26.775-15.459-.007-2.593Z" transform="translate(-230.639 -264.816)" fill="#8d8d8d"/></g><g transform="translate(24.382 29.619)"><path d="M230.639,275.113l.007,2.593,2.428,1.411-.008-2.593Z" transform="translate(-230.639 -275.113)" fill="#6b6b6d"/></g><g transform="translate(26.809 15.572)"><path d="M232.257,281.215l.008,2.593,26.775-15.459-.007-2.593Z" transform="translate(-232.257 -265.756)" fill="#6c6c6d"/></g><g transform="translate(29.211 16.967)"><path d="M233.856,282.144l.007,2.593,26.775-15.459-.007-2.593Z" transform="translate(-233.856 -266.685)" fill="#8d8d8d"/></g><g transform="translate(31.645 18.382)"><path d="M235.478,283.087l.008,2.593,26.775-15.459-.007-2.593Z" transform="translate(-235.478 -267.628)" fill="#6c6c6d"/></g><g transform="translate(29.211 32.426)"><path d="M233.856,276.983l.007,2.593,2.435,1.415-.008-2.593Z" transform="translate(-233.856 -276.983)" fill="#6b6b6d"/></g><path d="M225.806,267.714a1.523,1.523,0,0,0,1.377,0l8.564-4.944a.422.422,0,0,0,0-.8l-1.043-.607,10.366-5.984L285.718,279l-22.185,12.808-8.434-4.9-8.489,4.9L214.4,273.093l10.366-5.984Zm20.238,21.509,26.776-15.458-2.435-1.416-26.776,15.459,2.435,1.414Zm-19.586-11.382,26.776-15.458-2.435-1.414-26.776,15.458,2.435,1.414Zm4.829,2.807,26.776-15.46-2.429-1.41-26.774,15.458,2.427,1.411Zm4.835,2.81L262.9,268l-2.428-1.411-26.776,15.458,2.427,1.411Zm5.086,2.954,26.774-15.458-2.427-1.411L238.779,285l2.429,1.411Z" transform="translate(-214.398 -255.383)" fill="#fefefe"/><g transform="translate(9.625 5.585)"><path d="M220.809,274.562l2.435,1.415,26.775-15.459-2.435-1.415Z" transform="translate(-220.809 -259.104)" fill="#c5c5c8"/></g><g transform="translate(19.297 11.206)"><path d="M227.252,278.306l2.428,1.411,26.775-15.459-2.428-1.411Z" transform="translate(-227.252 -262.848)" fill="#c5c5c8"/></g><g transform="translate(24.382 14.161)"><path d="M230.639,280.275l2.428,1.411,26.775-15.459-2.428-1.411Z" transform="translate(-230.639 -264.816)" fill="#c5c5c8"/></g><g transform="translate(29.211 16.967)"><path d="M233.856,282.144l2.435,1.415L263.066,268.1l-2.435-1.415Z" transform="translate(-233.856 -266.685)" fill="#c5c5c8"/></g><g transform="translate(32.211 31.527)"><path d="M235.855,281.285l.007,2.593,8.49-4.9-.007-2.593Z" transform="translate(-235.855 -276.384)" fill="#8d8d8d"/></g><g transform="translate(40.701 31.527)"><path d="M241.51,276.384l.007,2.593,8.434,4.9-.007-2.593Z" transform="translate(-241.51 -276.384)" fill="#8d8d8d"/></g><g transform="translate(32.211 31.527)"><path d="M235.855,281.285h16.924l-8.434-4.9Z" transform="translate(-235.855 -276.384)" fill="#e3e3e3"/></g><path d="M214.4,267.18l32.21,18.719h16.924l.007,2.586-.007-2.586,22.185-12.809.007,2.593L263.54,288.492H246.616l-32.21-18.718Z" transform="translate(-214.398 -249.47)" fill="#8d8d8d"/></g></g><g transform="translate(60.755 6.226)"><path d="M254.936,259.3l23.033,13.3a2.933,2.933,0,0,1-1.336,2.177.927.927,0,0,1-.926.081l-21.55-12.525a.926.926,0,0,0,.926-.08c.011-.006.018-.017.029-.023l-1.345-.781A2.943,2.943,0,0,1,254.936,259.3Z" transform="translate(-252.042 -258.918)" fill="#02567d"/><path d="M254.157,261.608l21.55,12.525a.95.95,0,0,1-.39-.884l-21.55-12.523A.947.947,0,0,0,254.157,261.608Z" transform="translate(-252.042 -258.202)" fill="#003959"/><path d="M254.731,259.254a.932.932,0,0,1,.928-.079l21.55,12.523a.95.95,0,0,1,.39.884c0,.038-.018.078-.02.116l-23.033-13.3A2.34,2.34,0,0,1,254.731,259.254Z" transform="translate(-251.652 -259.024)" fill="#003959"/><path d="M268.717,270.814a1.116,1.116,0,0,1-.171-.634,2.928,2.928,0,0,1,1.354-2.292,1.1,1.1,0,0,1,.591-.152.713.713,0,0,0-.218-.251l.554.321.811.471.563.327.411.24c-.032-.02-.065-.036-.1-.054l.153.09.078.044c-.045-.026-.09-.054-.135-.08l.27.156c.021.014.044.027.063.042l-.075-.044,0,0,.012.008.021.012.044.026a.756.756,0,0,1,.219.285l.011.014a1.281,1.281,0,0,1,.1.456c0,.029,0,.057,0,.087a2.288,2.288,0,0,1-.11.65c-.023.074-.065.141-.093.215a3.464,3.464,0,0,1-.191.425c-.048.081-.108.147-.162.224a2.868,2.868,0,0,1-.254.336,2.605,2.605,0,0,1-.21.179,2.151,2.151,0,0,1-.257.218c-.026.017-.053.031-.078.047a1.241,1.241,0,0,1-.515.167c-.053,0-.09-.024-.138-.028a.682.682,0,0,1-.275-.059l-.682-.4h0l-.563-.326a.707.707,0,0,0,.275.057h0a.724.724,0,0,1-.27-.057l-.811-.471c-.165-.1-.387-.225-.552-.321A.717.717,0,0,0,268.717,270.814Z" transform="translate(-244.717 -254.813)" fill="#02567d"/><path d="M268.546,269.283v-.006l3.421,1.976-.05.029a1.24,1.24,0,0,1-.515.167c-.053,0-.09-.024-.138-.028a.682.682,0,0,1-.275-.059l-.682-.4h0l-.563-.326a.706.706,0,0,0,.275.057h0a.723.723,0,0,1-.27-.057l-.811-.471c-.165-.1-.387-.225-.552-.321a.717.717,0,0,0,.335.071A1.116,1.116,0,0,1,268.546,269.283Z" transform="translate(-244.717 -253.915)" fill="#003959"/><path d="M270.266,270.913l1.051.611a.914.914,0,0,1-.375-.854l-1.051-.611A.914.914,0,0,0,270.266,270.913Z" transform="translate(-243.961 -253.523)" fill="#bf8f00"/><path d="M273.144,269.174l-1.051-.611a.9.9,0,0,0-.895.077,2.83,2.83,0,0,0-1.308,2.213l1.051.611a2.825,2.825,0,0,1,1.308-2.213A.9.9,0,0,1,273.144,269.174Z" transform="translate(-243.961 -254.317)" fill="#f7bd00"/><path d="M270.963,272.114a1.817,1.817,0,0,0,2.648-2.132,1.838,1.838,0,0,0-.821-1.012.9.9,0,0,0-.895.077,2.873,2.873,0,0,0-1.279,1.9,3.731,3.731,0,0,0-.012.573A.8.8,0,0,0,270.963,272.114Z" transform="translate(-243.606 -254.113)" fill="#fac93a"/><path d="M252.618,259.044q.484.82.965,1.639a.633.633,0,0,1-.075-.33Z" transform="translate(-252.618 -259.044)" fill="#003959"/><path d="M254.52,259.071l-1.9-.027.89,1.309a1.526,1.526,0,0,1,.706-1.193A.616.616,0,0,1,254.52,259.071Z" transform="translate(-252.618 -259.044)" fill="#02567d"/><path d="M253.286,260.248l.905,1.519a1.208,1.208,0,0,1-.146-.637l-.835-1.214A.635.635,0,0,0,253.286,260.248Z" transform="translate(-252.321 -258.607)" fill="#bf8f00"/><path d="M255.993,259.1l-1.768-.033a.61.61,0,0,0-.308.089,1.526,1.526,0,0,0-.706,1.193l.835,1.215a2.937,2.937,0,0,1,1.354-2.294A1.2,1.2,0,0,1,255.993,259.1Z" transform="translate(-252.321 -259.035)" fill="#f7bd00"/><path d="M268.512,269.951l.552.321a.949.949,0,0,1-.389-.884l-.554-.321A.95.95,0,0,0,268.512,269.951Z" transform="translate(-244.847 -254.02)" fill="#bf8f00"/><path d="M270.958,267.837l-.554-.321a.927.927,0,0,0-.926.081,2.929,2.929,0,0,0-1.356,2.292l.554.321a2.932,2.932,0,0,1,1.354-2.292A.933.933,0,0,1,270.958,267.837Z" transform="translate(-244.847 -254.843)" fill="#f7bd00"/><path d="M271.874,268.371l-.561-.327a.933.933,0,0,0-.928.081,2.934,2.934,0,0,0-1.354,2.292l.561.327a2.934,2.934,0,0,1,1.356-2.294A.93.93,0,0,1,271.874,268.371Z" transform="translate(-244.392 -254.578)" fill="#f7bd00"/><path d="M269.42,270.479l.563.326a.947.947,0,0,1-.39-.883l-.561-.327A.949.949,0,0,0,269.42,270.479Z" transform="translate(-244.392 -253.756)" fill="#bf8f00"/><path d="M269.406,269.783l0,.045.066.038.01-.033Z" transform="translate(-244.204 -253.662)" fill="#02567d"/><g transform="translate(23.829 15.368)"><path d="M269.3,269.752a.949.949,0,0,0,.389.884l-.811-.471a.949.949,0,0,1-.389-.884Z" transform="translate(-268.491 -269.281)" fill="#003959"/></g><path d="M271.03,268.792c-.028.015-.051.045-.08.062l-.722-.417c.042-.027.078-.07.12-.095a.93.93,0,0,1,.926-.08h0l.411.24c-.032-.02-.065-.036-.1-.054l.153.09.078.044c-.045-.026-.09-.054-.135-.08l.27.156c.021.013.044.027.063.042l-.075-.043,0,0,.012.008.021.012.044.026a.7.7,0,0,1,.1.128l-.194-.113A.9.9,0,0,0,271.03,268.792Z" transform="translate(-243.792 -254.469)" fill="#003959"/><path d="M270.245,268.276c-.042.024-.08.068-.122.1l-.812-.47c.042-.029.08-.074.123-.1a1.226,1.226,0,0,1,.4-.134,1.322,1.322,0,0,1,.183-.018.722.722,0,0,1,.341.071l.811.471A.934.934,0,0,0,270.245,268.276Z" transform="translate(-244.251 -254.729)" fill="#003959"/><path d="M270.789,268.64a.9.9,0,0,1,.895-.077l.194.113.857.5a.8.8,0,0,0-.658,0,1.22,1.22,0,0,0-.237.078c-.027.015-.05.044-.077.06l-1.054-.609C270.738,268.685,270.76,268.655,270.789,268.64Z" transform="translate(-243.551 -254.317)" fill="#bf8f00"/><path d="M269.067,267.6a.927.927,0,0,1,.926-.081l.554.321a.722.722,0,0,0-.341-.071.991.991,0,0,0-.183.018,1.109,1.109,0,0,0-.4.134c-.044.024-.081.069-.123.1l-.555-.321C268.985,267.666,269.022,267.621,269.067,267.6Z" transform="translate(-244.437 -254.843)" fill="#bf8f00"/><path d="M269.393,267.8a1.109,1.109,0,0,1,.4-.134A1.225,1.225,0,0,0,269.393,267.8Z" transform="translate(-244.21 -254.723)" fill="#f7bd00"/><path d="M271.113,268.341h0l-.562-.327Z" transform="translate(-243.63 -254.548)" fill="#f7bd00"/><path d="M270.537,268.451c-.042.024-.078.068-.12.095l-.564-.324c.042-.029.08-.072.122-.1a.933.933,0,0,1,.928-.081l.561.327A.93.93,0,0,0,270.537,268.451Z" transform="translate(-243.98 -254.578)" fill="#bf8f00"/></g></g><g transform="translate(21.785)"><g style="isolation:isolate"><g transform="translate(0 9.765)"><path d="M226.659,254.112l.323,20.733,16.28,9.167-.323-20.734Z" transform="translate(-226.659 -254.112)" fill="#b98347"/></g><g transform="translate(16.28 9.167)"><path d="M237.5,263.478l.323,20.734,16.373-9.765-.323-20.734Z" transform="translate(-237.504 -253.713)" fill="#e0b171"/></g><g transform="translate(27.783 25.742)"><g transform="translate(0.892 1.133)"><path d="M248.43,267.159v.35l-2.67,1.541v-.35Z" transform="translate(-245.76 -264.683)" fill="#553819"/><path d="M247.4,268.081l-.3.174v-1.879l-.3.173.45-1.039.45.519-.3.173Z" transform="translate(-245.241 -265.51)" fill="#553819"/><path d="M246.5,268.6l-.3.174v-1.88l-.3.173.45-1.038.45.519-.3.173Z" transform="translate(-245.688 -265.252)" fill="#553819"/></g><path d="M245.166,270.476v-2.621a1.9,1.9,0,0,1,.916-1.446L248.7,264.9c.506-.291.917-.119.917.387V267.9a1.9,1.9,0,0,1-.917,1.446l-2.621,1.513C245.577,271.155,245.166,270.982,245.166,270.476Zm.916-3.882a1.519,1.519,0,0,0-.733,1.154v2.621c0,.4.329.543.733.309l2.621-1.513a1.519,1.519,0,0,0,.733-1.154V265.39c0-.4-.329-.542-.733-.309Z" transform="translate(-245.166 -264.755)" fill="#553819"/></g><g transform="translate(22.623 28.721)"><path d="M242.094,270.25a.028.028,0,0,0,.015-.022,1.45,1.45,0,0,1,.548-.437c.321-.186.546-.252.546-.2,0,.008.006.01.015.006a.03.03,0,0,0,.014-.023c0-.052.185-.215.458-.383v1.447l.006.171c.032.176.189.2.383.09a.793.793,0,0,0,.386-.6c0-.053-.037-.072-.086-.044a.184.184,0,0,0-.087.144.428.428,0,0,1-.213.309c-.231.134-.209-.149-.209-.149v-1.477c.273-.149.458-.2.458-.146,0,.008.006.011.014.006a.028.028,0,0,0,.015-.022,1.435,1.435,0,0,1,.548-.437c.323-.186.546-.252.546-.2,0,.008.006.011.015,0a.03.03,0,0,0,.015-.021c-.026-.65-.725-.907-1.576-.477h0c0-.047-.056-.05-.123-.009s-.126.108-.126.153h0a3.546,3.546,0,0,0-1.576,2.3C242.079,270.253,242.085,270.256,242.094,270.25Z" transform="translate(-241.554 -266.311)" fill="#553819"/><path d="M241.729,272.46v-2.62a1.9,1.9,0,0,1,.916-1.446l2.621-1.513c.506-.293.917-.119.917.387v2.62a1.906,1.906,0,0,1-.917,1.447l-2.621,1.512C242.139,273.14,241.729,272.966,241.729,272.46Zm.916-3.882a1.524,1.524,0,0,0-.733,1.156v2.62c0,.4.329.543.733.311l2.621-1.513a1.524,1.524,0,0,0,.733-1.156v-2.621c0-.4-.329-.542-.733-.309Z" transform="translate(-241.729 -266.739)" fill="#553819"/></g><g transform="translate(17.462 31.7)"><path d="M239.313,271.229c.012.408.288.584.638.414v1.294l-.45.26v.168l1.013-.585v-.168l-.452.261v-1.294a1.562,1.562,0,0,0,.638-1.15v-.956l-1.387.8Z" transform="translate(-237.779 -268.348)" fill="#553819"/><path d="M238.291,274.445v-2.621a1.9,1.9,0,0,1,.917-1.446l2.621-1.513c.506-.293.916-.119.916.387v2.621a1.9,1.9,0,0,1-.916,1.446l-2.621,1.513C238.7,275.124,238.291,274.95,238.291,274.445Zm.917-3.882a1.519,1.519,0,0,0-.733,1.154v2.621c0,.4.329.542.733.309l2.621-1.513a1.519,1.519,0,0,0,.733-1.154v-2.621c0-.4-.329-.543-.733-.309Z" transform="translate(-238.291 -268.723)" fill="#553819"/></g><path d="M226.659,257.372l16.28,9.166,16.373-9.765-16.281-9.167Z" transform="translate(-226.659 -247.607)" fill="#f0cc8c"/></g><g transform="translate(6.335 3.567)"><path d="M247.252,249.983l3.369,1.9-16.373,9.765-3.369-1.9Z" transform="translate(-230.879 -249.983)" fill="#f8ecea"/></g><path d="M234.241,258.384l-3.362-1.9.046,3.373,3.362,1.88Z" transform="translate(-224.544 -243.156)" fill="#c0a899"/></g></g></g><g transform="translate(69.351)"><g transform="translate(0 8.173)"><path d="M160.332,204.606l-1.51.874c-.338.2-.615.035-.615-.357v-3.568a1.368,1.368,0,0,1,.615-1.066l1.509-.874c.344-.2.618-.035.618.356v3.568A1.36,1.36,0,0,1,160.332,204.606Z" transform="translate(-139.177 -195.78)" fill="#498a7b"/><path d="M183.593,204.968l.835-.6-3.528-2.066,0,0c-3.723-2.5-9.048-2.328-14.966,1.091-11.27,6.5-20.4,22.326-20.4,35.339,0,6.5,2.277,11.068,5.96,13.2h0l4.577,2.677L156,253.274a17.807,17.807,0,0,0,9.929-2.755c11.27-6.5,20.4-22.331,20.4-35.344C186.334,210.879,185.335,207.433,183.593,204.968Z" transform="translate(-145.53 -195.238)" fill="#f7bd00"/><path d="M158.206,204.1l4.594,2.69v-2.737l-4.594-3.177Z" transform="translate(-139.177 -195.105)" fill="#f2ba11"/><path d="M163.388,206.4l-1.507.869c-.344.2-.614.036-.614-.354v-3.567a1.355,1.355,0,0,1,.614-1.069l1.507-.869c.342-.2.62-.036.62.354v3.567A1.365,1.365,0,0,1,163.388,206.4Z" transform="translate(-137.642 -194.883)" fill="#e18d01"/><path d="M164.686,197.087a.6.6,0,0,0-.6.062l-7.11,4.1a1.869,1.869,0,0,0-.853,1.47v1.4a.6.6,0,0,0,.251.546h0l4.646,2.707,8.228-7.614Z" transform="translate(-140.219 -197.033)" fill="#f7bd00"/><path d="M167.145,202.294l-7.113,4.1c-.467.273-.847.053-.847-.491v-1.393a1.894,1.894,0,0,1,.847-1.473l7.113-4.1c.468-.27.848-.05.848.491v1.395A1.886,1.886,0,0,1,167.145,202.294Z" transform="translate(-138.686 -196.136)" fill="#e18d01"/><path d="M189.4,216.969c0,13.011-9.133,28.835-20.4,35.34s-20.409,1.233-20.409-11.783,9.138-28.832,20.409-35.34S189.4,203.954,189.4,216.969Z" transform="translate(-143.999 -194.343)" fill="#e18d01"/><path d="M183.634,217.159c0,10.927-7.671,24.215-17.133,29.674-5.172,2.983-9.8,3.014-12.94.65,3.05,1.462,7.111,1.088,11.57-1.485,9.458-5.469,17.132-18.752,17.132-29.679,0-4.961-1.581-8.576-4.188-10.534C181.487,207.428,183.634,211.381,183.634,217.159Z" transform="translate(-141.505 -192.645)" fill="#f2ba11"/><path d="M183.663,216.606c0,10.927-7.674,24.21-17.132,29.679-4.459,2.573-8.519,2.947-11.57,1.485-2.614-1.956-4.2-5.577-4.2-10.543,0-10.92,7.667-24.212,17.136-29.674,4.46-2.576,8.525-2.951,11.573-1.48C182.082,208.03,183.663,211.645,183.663,216.606Z" transform="translate(-142.906 -192.932)" fill="#fff"/><g transform="translate(16.034 22.592)"><path d="M167.477,226.644v-3.122l-5.031,2.9v-2l4.3-10.471,3.25-1.874v7.688l1.365-.793v2.3l-1.365.785v3.127Zm0-5.427v-2.9c0-.787.038-1.614.084-2.492l-.065.041c-.368,1.057-.667,2-1.052,3.047l-1.516,3.74v.039Z" transform="translate(-153.086 -212.081)" fill="#ff523f"/><path d="M159.984,228.049v-.036l1.048-1.617c1.641-2.642,3.023-5.2,3.023-7.39a3.514,3.514,0,0,0-.342-1.647h.543l-1.16-.671h-.009c-.677-.384-1.689-.266-3.016.5a12.185,12.185,0,0,0-3.72,3.5l.749,1.765a8.408,8.408,0,0,1,2.429-2.489c1.312-.758,1.872-.234,1.872.838-.035,1.554-1.242,3.722-3.722,7.715l-1.468,2.382v1.853l8.054-4.646v-2.522Z" transform="translate(-156.211 -209.879)" fill="#ff523f"/><path d="M159.5,225.683l.542-1.657,2.579-1.483,1.159.67Z" transform="translate(-154.564 -206.838)" fill="#ff523f"/><path d="M156.983,233.2v-1.855l1.468-2.382c2.482-3.995,3.685-6.162,3.723-7.718,0-1.067-.56-1.59-1.869-.833a8.465,8.465,0,0,0-2.433,2.49l-.748-1.765a12.2,12.2,0,0,1,3.723-3.5c2.567-1.477,3.981-.563,3.981,1.818,0,2.195-1.381,4.747-3.023,7.387l-1.048,1.621v.038l4.28-2.47v2.518Z" transform="translate(-155.824 -209.656)" fill="#c12815"/><path d="M168.253,227.091v-3.126l-5.034,2.9v-2l4.3-10.469,3.25-1.875v7.683l1.366-.784v2.3l-1.366.785v3.129Zm0-5.425V218.76c0-.785.032-1.614.086-2.492l-.071.042c-.365,1.06-.661,2-1.046,3.046L165.7,223.1v.042Z" transform="translate(-152.699 -211.858)" fill="#c12815"/><path d="M157.37,228.608l-1.159-.672v-1.854l1.159.67Z" transform="translate(-156.211 -205.064)" fill="#eb3e2b"/><path d="M163.607,222.973l-1.161-.671v-2l1.161.668Z" transform="translate(-153.086 -207.96)" fill="#eb3e2b"/><path d="M166.962,223.273,165.8,222.6v-1.787l1.159-.668Z" transform="translate(-151.405 -208.039)" fill="#eb3e2b"/><path d="M168.247,218.133V216.8l.2-.121,1.163.673Z" transform="translate(-150.179 -209.779)" fill="#ff523f"/><path d="M158.213,221.718l-1.159-.671-.75-1.766,1.161.672Z" transform="translate(-156.165 -208.473)" fill="#eb3e2b"/><path d="M166.47,214.627l-1.162-.672,3.251-1.874,1.161.67Z" transform="translate(-151.652 -212.082)" fill="#ff4c38"/></g><path d="M163.845,207.943l-1.8,5.111-.772-.44v-4.077l1.8-1.036Z" transform="translate(-137.638 -191.785)" fill="#19699c"/><path d="M162.049,234.476l-.773-.444v-4.077l1.8-1.042.772.449Z" transform="translate(-137.638 -181.053)" fill="#19699c"/><path d="M170.088,217.26v-2.074l3.531-2.039.773.447-3.532,4.112Z" transform="translate(-133.221 -188.956)" fill="#19699c"/><path d="M151.411,228.058v-2.074l3.528-2.036.777.445-3.535,4.114Z" transform="translate(-142.583 -183.542)" fill="#19699c"/><rect width="3.123" height="0.918" transform="translate(33.734 17.689) rotate(-60.249)" fill="#19699c"/><rect width="1.589" height="1.804" transform="translate(13.326 28.754) rotate(-59.955)" fill="#19699c"/><rect width="1.591" height="1.804" transform="translate(33.728 40.661) rotate(-59.864)" fill="#19699c"/><rect width="3.123" height="0.92" transform="translate(13.047 53.493) rotate(-60.106)" fill="#19699c"/><path d="M163.587,211.874l-1.8,1.033v-4.07l1.8-1.041Z" transform="translate(-137.38 -191.638)" fill="#003553"/><path d="M163.587,233.286l-1.8,1.04v-4.077l1.8-1.036Z" transform="translate(-137.38 -180.903)" fill="#003553"/><path d="M170.6,217.557V215.48l3.531-2.036v2.074Z" transform="translate(-132.963 -188.807)" fill="#003553"/><path d="M151.923,228.358v-2.074l3.535-2.039v2.074Z" transform="translate(-142.326 -183.394)" fill="#003553"/><path d="M169.3,210.47l-.791-.46,1.561-2.7.794.456Z" transform="translate(-134.011 -191.882)" fill="#003553"/><rect width="1.59" height="1.802" transform="matrix(0.501, -0.865, 0.865, 0.501, 14.097, 29.2)" fill="#003553"/><rect width="1.59" height="1.804" transform="matrix(0.498, -0.867, 0.867, 0.498, 34.501, 41.112)" fill="#003553"/><path d="M156.3,231.159l.793.461-1.561,2.7-.8-.456Z" transform="translate(-140.918 -179.928)" fill="#003553"/></g><g transform="translate(125.925)"><path d="M229.412,191.588l72.9,42.334v49.2l-72.9-42.335Z" transform="translate(-229.412 -191.588)" fill="#fff"/><g transform="translate(7.273 12.622)"><g transform="translate(5.549)"><g style="isolation:isolate"><g clip-path="url(#f)"><g transform="translate(0.597 0.41)"><path d="M239.214,204.842l.009-3.25.266.153a1.707,1.707,0,0,1,.372.282,1.315,1.315,0,0,1,.242.357,1.655,1.655,0,0,1,.125.459,3.833,3.833,0,0,1,.039.59l0,.769a2.876,2.876,0,0,1-.042.545.635.635,0,0,1-.126.314.282.282,0,0,1-.248.074,1,1,0,0,1-.377-.146l-.257-.147Zm.276-3.921-1.126-.652-.014,4.889,1.117.646a1.972,1.972,0,0,0,.679.258.788.788,0,0,0,.522-.1.878.878,0,0,0,.333-.453,2.46,2.46,0,0,0,.12-.809v-.758a3.865,3.865,0,0,0-.114-.95,3.74,3.74,0,0,0-.335-.839,3.42,3.42,0,0,0-.515-.7,3,3,0,0,0-.67-.525Z" transform="translate(-238.351 -200.269)" fill="#003b5b"/><path d="M243.054,202.976l-2.437-1.407-.014,4.89,2.446,1.412,0-.815-1.585-.915,0-1.3,1.338.772,0-.794-1.338-.772,0-1.155,1.576.91,0-.825Z" transform="translate(-237.223 -199.617)" fill="#003b5b"/><path d="M243.432,203.195l-.857-.5-.014,4.89,2.366,1.366,0-.815-1.508-.871.012-4.075Z" transform="translate(-236.241 -199.051)" fill="#003b5b"/><path d="M245.368,204.313l-.862-.5-.014,4.89.862.5.014-4.89Z" transform="translate(-235.273 -198.492)" fill="#003b5b"/><path d="M248.708,206.244l-.956-.552-.728,3.134-.7-3.961-.952-.549,1.2,5.592.9.518,1.239-4.182Z" transform="translate(-234.834 -198.241)" fill="#003b5b"/><path d="M250.3,207.161l-2.437-1.407-.014,4.89,2.446,1.412,0-.815-1.584-.915,0-1.3,1.338.772,0-.794-1.338-.772,0-1.155,1.576.91,0-.825Z" transform="translate(-233.59 -197.52)" fill="#003b5b"/><path d="M250.678,209.667l0-1.459.51.3a.82.82,0,0,1,.221.177.964.964,0,0,1,.152.239,1.105,1.105,0,0,1,.09.284,1.931,1.931,0,0,1,.025.32.609.609,0,0,1-.132.446c-.086.084-.212.08-.386-.021l-.485-.281Zm.518-1.989-1.374-.793-.013,4.889.862.5,0-1.785.426.246.632,2.153.925.534,0-.047-.74-2.432a.6.6,0,0,0,.257-.063.513.513,0,0,0,.2-.18.981.981,0,0,0,.122-.306,2.137,2.137,0,0,0,.042-.456,2.666,2.666,0,0,0-.087-.692,2.61,2.61,0,0,0-.264-.611,2.523,2.523,0,0,0-.426-.53,2.926,2.926,0,0,0-.564-.425Z" transform="translate(-232.608 -196.953)" fill="#003b5b"/><path d="M254.886,209.81l-.934-.539L253.3,211.1l-.636-2.568-.934-.539,1.131,3.779-.005,1.769.871.5.005-1.769,1.149-2.462Z" transform="translate(-231.643 -196.399)" fill="#003b5b"/><path d="M256.386,210.425a1.691,1.691,0,0,0-.543-.21.744.744,0,0,0-.428.027.543.543,0,0,0-.279.273,1.109,1.109,0,0,0-.1.5,2,2,0,0,0,.093.617,2.955,2.955,0,0,0,.264.575,3.99,3.99,0,0,0,.38.536c.149.179.3.344.458.506.134.14.242.26.323.362a1.88,1.88,0,0,1,.188.285.725.725,0,0,1,.084.234,1.383,1.383,0,0,1,.023.245.659.659,0,0,1-.027.2.246.246,0,0,1-.078.132.211.211,0,0,1-.138.033.573.573,0,0,1-.212-.081,1.428,1.428,0,0,1-.264-.194,1.167,1.167,0,0,1-.194-.251,1.1,1.1,0,0,1-.111-.318,1.651,1.651,0,0,1-.039-.393l-.862-.5a2.455,2.455,0,0,0,.128.793,2.994,2.994,0,0,0,.33.692,3.158,3.158,0,0,0,.471.566,3.049,3.049,0,0,0,.537.4,2,2,0,0,0,.548.228.693.693,0,0,0,.414-.03.509.509,0,0,0,.266-.27,1.331,1.331,0,0,0,.092-.525,2.268,2.268,0,0,0-.071-.582,2.416,2.416,0,0,0-.218-.555,4.179,4.179,0,0,0-.372-.561,7.218,7.218,0,0,0-.519-.573c-.095-.1-.185-.2-.26-.294a2.656,2.656,0,0,1-.2-.276,1.284,1.284,0,0,1-.129-.257.692.692,0,0,1-.045-.242.583.583,0,0,1,.033-.2.221.221,0,0,1,.086-.131.205.205,0,0,1,.149-.035.5.5,0,0,1,.21.077.975.975,0,0,1,.225.18,1.061,1.061,0,0,1,.152.233,1.176,1.176,0,0,1,.09.275,1.77,1.77,0,0,1,.026.3l.857.5a2.349,2.349,0,0,0-.093-.664,2.816,2.816,0,0,0-.263-.628,3.028,3.028,0,0,0-.422-.558,2.653,2.653,0,0,0-.555-.435Z" transform="translate(-230.045 -195.293)" fill="#003b5b"/><path d="M259.607,212.533l-2.437-1.407-.014,4.89,2.442,1.41,0-.815-1.58-.912,0-1.3,1.338.772,0-.794-1.338-.772,0-1.155,1.576.91,0-.825Z" transform="translate(-228.926 -194.827)" fill="#003b5b"/><path d="M259.983,215.039l0-1.459.512.3a.872.872,0,0,1,.219.179.888.888,0,0,1,.152.237,1.12,1.12,0,0,1,.09.284,1.959,1.959,0,0,1,.025.32.6.6,0,0,1-.132.446c-.086.086-.216.077-.386-.021l-.485-.281Zm.518-1.989-1.374-.793-.013,4.889.862.5,0-1.783.426.246.634,2.153.925.533v-.047l-.74-2.43a.6.6,0,0,0,.257-.065.5.5,0,0,0,.2-.18.982.982,0,0,0,.122-.306,2.14,2.14,0,0,0,.042-.456,2.661,2.661,0,0,0-.087-.691,2.514,2.514,0,0,0-.689-1.142,3,3,0,0,0-.566-.425Z" transform="translate(-227.944 -194.26)" fill="#003b5b"/><path d="M264.445,215.33l-.956-.552-.728,3.134-.7-3.961-.952-.549,1.2,5.592.9.518,1.239-4.182Z" transform="translate(-226.946 -193.687)" fill="#003b5b"/><path d="M264.485,215.35l-.857-.495-.014,4.89.857.495.014-4.89Z" transform="translate(-225.689 -192.958)" fill="#003b5b"/><path d="M266.129,216.04a1.494,1.494,0,0,0-.624-.221.619.619,0,0,0-.477.128.969.969,0,0,0-.3.482,2.988,2.988,0,0,0-.105.842l0,.836a4.392,4.392,0,0,0,.1.962,3.318,3.318,0,0,0,.29.823,2.768,2.768,0,0,0,.465.668,2.678,2.678,0,0,0,.627.5c.458.264.814.329,1.066.185s.392-.48.416-1.024l-.862-.5a2.081,2.081,0,0,1-.047.407.374.374,0,0,1-.113.2.231.231,0,0,1-.185.027,1.049,1.049,0,0,1-.273-.116,1.087,1.087,0,0,1-.494-.579,1.946,1.946,0,0,1-.1-.456,5.858,5.858,0,0,1-.029-.6v-.841a3.441,3.441,0,0,1,.042-.575.733.733,0,0,1,.114-.327.233.233,0,0,1,.2-.1.7.7,0,0,1,.291.1,1.352,1.352,0,0,1,.278.207.906.906,0,0,1,.185.251,1.451,1.451,0,0,1,.1.344,3.275,3.275,0,0,1,.039.462l.862.5a3.544,3.544,0,0,0-.41-1.522,2.7,2.7,0,0,0-1.052-1.058Z" transform="translate(-225.187 -192.477)" fill="#003b5b"/><path d="M269.39,218.182l-2.437-1.407-.014,4.89,2.446,1.412,0-.815-1.585-.915,0-1.3,1.338.772,0-.794-1.338-.772,0-1.155,1.576.91,0-.825Z" transform="translate(-224.022 -191.996)" fill="#003b5b"/></g></g></g></g><g transform="translate(0 5.565)"><path d="M234.582,204.426l55.206,32.057v29.008l-55.206-32.058Z" transform="translate(-234.094 -203.34)" fill="#fff"/><path d="M234.257,203.7v30.14l56.3,32.62V236.23Zm48.4,50.935,6.852,3.971v6.024l-6.852-3.959Zm0-7.252,6.852,3.971v6.026l-6.852-3.959Zm0-7.251,6.852,3.971v6.026l-6.852-3.959Zm0-7.251,6.852,3.971v6.026l-6.852-3.959Zm-7.895,17.18,6.853,3.971v6.039l-6.853-3.96Zm0-7.251,6.853,3.971v6.038l-6.853-3.959Zm0-7.252,6.853,3.971v6.039l-6.853-3.959Zm0-7.251,6.853,3.971v6.039l-6.853-3.959Zm-7.893,17.18,6.853,3.971v6.053l-6.853-3.96Zm0-7.251,6.853,3.971v6.051l-6.853-3.959Zm0-7.252,6.853,3.972v6.051l-6.853-3.959Zm0-7.251,6.853,3.971v6.053l-6.853-3.959Zm-7.893,17.18,6.853,3.971v6.066l-6.853-3.96Zm0-7.251,6.853,3.971V243.7l-6.853-3.959Zm0-7.251,6.853,3.971v6.065l-6.853-3.959Zm0-7.252,6.853,3.971V229.2l-6.853-3.959Zm-7.893,17.18,6.853,3.971v6.08l-6.853-3.96Zm0-7.251,6.853,3.971v6.08l-6.853-3.96Zm0-7.251,6.853,3.971v6.078l-6.853-3.959Zm0-7.251,6.853,3.971v6.078l-6.853-3.959Zm-7.893,17.178,6.853,3.971v6.093l-6.853-3.959Zm0-7.251,6.853,3.971v6.093l-6.853-3.96Zm0-7.251,6.853,3.971v6.092l-6.853-3.959Zm0-7.251,6.853,3.971v6.092l-6.853-3.959ZM235.3,227.192l6.852,3.972v6.105l-6.852-3.959Zm0-7.251,6.852,3.971v6.107l-6.852-3.96Zm0-7.251,6.852,3.971v6.105l-6.852-3.959Zm0-7.251,6.852,3.971v6.105l-6.852-3.959Z" transform="translate(-234.257 -203.703)" fill="#363d3f"/><path d="M271.768,227.157v3.393l-4.576-2.656V224.5Z" transform="translate(-217.75 -193.278)" fill="#ea331f"/><path d="M266.442,228.9v3.393l-4.577-2.656v-3.39Z" transform="translate(-220.42 -192.405)" fill="#ea331f"/><path d="M261.265,230.686v3.393l-4.577-2.656v-3.39Z" transform="translate(-223.014 -191.509)" fill="#ea331f"/><path d="M256.06,232.474v3.393l-4.576-2.656v-3.39Z" transform="translate(-225.623 -190.613)" fill="#ea331f"/><path d="M256.06,218.076v3.393l-4.576-2.656v-3.39Z" transform="translate(-225.623 -197.829)" fill="#ea331f"/><path d="M250.734,219.817v3.393l-4.577-2.656v-3.39Z" transform="translate(-228.293 -196.957)" fill="#ea331f"/><path d="M245.557,221.6V225l-4.577-2.656v-3.39Z" transform="translate(-230.887 -196.061)" fill="#ea331f"/><path d="M240.352,223.392v3.393l-4.577-2.656v-3.39Z" transform="translate(-233.496 -195.165)" fill="#ea331f"/></g></g></g></g></g></g></g></svg>