<svg xmlns="http://www.w3.org/2000/svg" width="271.319" height="267.417" viewBox="0 0 271.319 267.417"><g transform="translate(-171.173 -8090.209)"><path d="M215.637,8260.421l-18.825,1.754,6.928,6.928-16.027,16.027a2.235,2.235,0,1,0,3.162,3.16l16.026-16.026,6.984,6.985Z" transform="translate(-1.191 -12.76)" fill="#01a157"/><path d="M314.6,8373.576c0,2.72-23.94,4.924-53.472,4.924s-53.472-2.2-53.472-4.924,23.94-4.922,53.472-4.922S314.6,8370.858,314.6,8373.576Z" transform="translate(-2.735 -20.873)" fill="#c8e0ad"/><ellipse cx="43.711" cy="4.906" rx="43.711" ry="4.906" transform="translate(326.139 8324.625)" fill="#c8e0ad"/><ellipse cx="19.626" cy="1.784" rx="19.626" ry="1.784" transform="translate(171.811 8332.654)" fill="#c8e0ad"/><g transform="translate(283.8 8195.205)"><path d="M309.4,8227.773a5.141,5.141,0,1,1,5.013-5.141A4.858,4.858,0,0,1,309.4,8227.773Zm0-7.7c-1.345,0-2.116.934-2.116,2.561s.771,2.561,2.116,2.561c1.324,0,2.083-.934,2.083-2.561S310.72,8220.072,309.4,8220.072Zm-14.371,7.351,13.734-23.391h3.52l-13.7,23.391Zm2.916-13.46a5.125,5.125,0,1,1,5.044-5.141A4.859,4.859,0,0,1,297.941,8213.963Zm0-7.7c-1.325,0-2.084.933-2.084,2.561,0,1.646.759,2.593,2.084,2.593s2.115-.97,2.115-2.593S299.285,8206.262,297.941,8206.262Z" transform="translate(-292.927 -8203.714)" fill="#ff9600"/></g><g transform="translate(254.739 8171.981)"><path d="M412.272,8178.607H324.378l17.4,17.4-80.268,82.511,42.82,48.172,84.66-83.472,23.281,23.281Z" transform="translate(-261.511 -8178.607)" fill="#a6bf54"/><g transform="translate(6.104 4.471)"><path d="M305.039,8320.565,268.11,8279.02l80.443-82.691-12.887-12.887H408.3v72.628l-18.787-18.788Zm-32.046-41.437,32.217,36.245,84.314-83.132,15.194,15.193v-60.417H344.3l9.276,9.275Z" transform="translate(-268.11 -8183.441)" fill="#859c29"/></g></g><path d="M328.068,8270.571l-27.432-27.433-39.125,40.219,42.82,48.172,1.759-1.734Z" transform="translate(-6.772 -11.464)" fill="#5c8220"/><rect width="66.767" height="113.769" transform="translate(274.085 8211.896) rotate(45)" fill="#bad17a"/><g transform="translate(258.94 8240.203)"><circle cx="17.024" cy="17.024" r="17.024" transform="translate(0)" fill="#799b36"/></g><circle cx="5.352" cy="5.352" r="5.352" transform="translate(236.005 8305.792)" fill="#a6bf54"/><circle cx="5.352" cy="5.352" r="5.352" transform="translate(215.488 8287.059)" fill="#a6bf54"/><path d="M318.194,8263.811l-75.007,74.5-35.83-35.831,75.008-74.5-2.529-2.528-77.545,77.024,40.888,40.889,77.545-77.025Z" transform="translate(-2.333 -10.138)" fill="#859c29"/><g transform="translate(332.077 8253.223)"><path d="M345.122,8294.7a27.752,27.752,0,1,1,28.26,27.241A27.751,27.751,0,0,1,345.122,8294.7Z" transform="translate(-345.117 -8266.434)" fill="#ffcd00"/><path d="M350.852,8295.028a22.45,22.45,0,1,1,22.859,22.038A22.443,22.443,0,0,1,350.852,8295.028Z" transform="translate(-345.546 -8266.863)" fill="#ff9600"/><g transform="translate(2.96 2.962)"><path d="M373.094,8319.222a24.789,24.789,0,0,1-24.773-24.341h0a24.786,24.786,0,0,1,24.333-25.241c.152,0,.305,0,.458,0a24.793,24.793,0,0,1,.451,49.582C373.407,8319.221,373.249,8319.222,373.094,8319.222Zm.018-48.691c-.148,0-.294,0-.442,0a23.888,23.888,0,0,0-23.454,24.33h0a23.9,23.9,0,1,0,23.9-24.335Z" transform="translate(-348.316 -8269.636)" fill="#fff0d1"/></g><g transform="translate(17.93 12.048)"><path d="M370.787,8308.923a11.978,11.978,0,0,1-5.176-1.789l-1.112-.767,2.04-6.032,1.924,1.228a8.464,8.464,0,0,0,4.436,1.271h.143c1.286-.025,2.782-.573,2.751-2.032-.015-.783-.282-1.714-3.285-2.862-3.712-1.383-7.533-3.441-7.619-8.182a7.932,7.932,0,0,1,5.669-7.707l-.08-2.475,5.966-.116.068,2.105a11.433,11.433,0,0,1,4.144,1.357l1.317.739-2.13,5.953-1.838-1.008a7.559,7.559,0,0,0-3.819-1l-.16,0c-1.452.027-2.276.6-2.259,1.563.013.709.287,1.318,3.718,2.665,3.313,1.282,7.136,3.418,7.228,8.565a8.266,8.266,0,0,1-5.929,8.059l.083,2.592-6,.117Z" transform="translate(-364.5 -8279.458)" fill="#ffcd00"/></g></g><g transform="translate(171.173 8269.396)"><path d="M171.177,8303.76a19.481,19.481,0,1,1,19.837,19.123A19.481,19.481,0,0,1,171.177,8303.76Z" transform="translate(-171.173 -8283.919)" fill="#ffcd00"/><path d="M175.2,8303.992a15.76,15.76,0,1,1,16.047,15.471A15.755,15.755,0,0,1,175.2,8303.992Z" transform="translate(-171.475 -8284.22)" fill="#ff9600"/><g transform="translate(2.078 2.081)"><path d="M190.813,8320.977a17.4,17.4,0,0,1-17.39-17.086h0a17.4,17.4,0,0,1,17.081-17.72l.322,0a17.4,17.4,0,0,1,.316,34.8C191.033,8320.975,190.922,8320.977,190.813,8320.977Zm.013-34.182-.311,0a16.771,16.771,0,0,0-16.465,17.08h0a16.775,16.775,0,1,0,16.776-17.083Z" transform="translate(-173.42 -8286.168)" fill="#fff0d1"/></g><g transform="translate(12.587 8.458)"><path d="M189.194,8313.746a8.4,8.4,0,0,1-3.634-1.255l-.781-.539,1.432-4.234,1.351.861a5.939,5.939,0,0,0,3.115.892h.1c.9-.017,1.953-.4,1.932-1.426-.011-.55-.2-1.2-2.306-2.01-2.606-.97-5.288-2.415-5.349-5.743a5.565,5.565,0,0,1,3.98-5.409l-.055-1.738,4.188-.082.048,1.479a8.04,8.04,0,0,1,2.909.953l.925.519-1.5,4.18-1.29-.708a5.3,5.3,0,0,0-2.681-.7h-.113c-1.019.02-1.6.419-1.586,1.1.009.5.2.925,2.61,1.871,2.326.9,5.009,2.4,5.074,6.014a5.8,5.8,0,0,1-4.162,5.656l.058,1.819-4.213.081Z" transform="translate(-184.78 -8293.062)" fill="#ffcd00"/></g></g><g transform="translate(367.177 8284.832)"><path d="M383.064,8320.444a19.481,19.481,0,1,1,19.837,19.124A19.48,19.48,0,0,1,383.064,8320.444Z" transform="translate(-383.06 -8300.604)" fill="#ffcd00"/><path d="M387.086,8320.677a15.76,15.76,0,1,1,16.047,15.471A15.757,15.757,0,0,1,387.086,8320.677Z" transform="translate(-383.362 -8300.905)" fill="#ff9600"/><g transform="translate(2.078 2.08)"><path d="M402.7,8337.66a17.4,17.4,0,0,1-17.39-17.087h0a17.4,17.4,0,0,1,17.081-17.718c.106,0,.215,0,.321,0a17.4,17.4,0,0,1,.317,34.806Zm.012-34.18-.31,0a16.771,16.771,0,0,0-16.465,17.079h0a16.775,16.775,0,1,0,16.775-17.082Z" transform="translate(-385.307 -8302.852)" fill="#fff0d1"/></g><g transform="translate(12.587 8.458)"><path d="M401.081,8330.432a8.4,8.4,0,0,1-3.634-1.257l-.781-.537,1.432-4.235,1.351.861a5.946,5.946,0,0,0,3.115.893h.1c.9-.02,1.953-.4,1.931-1.428-.01-.549-.2-1.2-2.306-2.01-2.606-.971-5.288-2.415-5.348-5.744a5.566,5.566,0,0,1,3.979-5.408l-.056-1.738,4.189-.081.048,1.479a8.039,8.039,0,0,1,2.909.952l.925.519-1.5,4.181-1.29-.708a5.3,5.3,0,0,0-2.681-.7h-.113c-1.019.021-1.6.42-1.586,1.1.009.5.2.927,2.61,1.871,2.326.9,5.009,2.4,5.074,6.013a5.8,5.8,0,0,1-4.162,5.657l.058,1.819-4.213.081Z" transform="translate(-396.667 -8309.747)" fill="#ffcd00"/></g></g><path d="M462.164,8226.385l-18.826,1.754,6.929,6.928-16.027,16.027a2.235,2.235,0,1,0,3.162,3.16l16.026-16.027,6.984,6.986Z" transform="translate(-19.671 -10.208)" fill="#ff9600"/><path d="M451.465,8271.554l-18.825,1.753,6.929,6.93-16.027,16.025a2.235,2.235,0,1,0,3.161,3.161l16.027-16.026,6.984,6.984Z" transform="translate(-18.869 -13.594)" fill="#01a157"/><path d="M393.08,8136.983l-18.825,1.752,6.928,6.93-16.027,16.025a2.236,2.236,0,0,0,3.162,3.162l16.026-16.027,6.984,6.984Z" transform="translate(-14.492 -3.507)" fill="#ffcd00"/><g transform="translate(188.862 8134.177)"><path d="M240.534,8364.863l.3,4.758,6.244.6v-5.205Z" transform="translate(-194.061 -8154.766)" fill="#eab488"/><path d="M269.465,8364.7l.595,4.758h4.163l.892-4.461Z" transform="translate(-196.23 -8154.754)" fill="#eab488"/><path d="M235.542,8252.194s-2.28,4.956-2.081,8.326a45.308,45.308,0,0,0,2.081,8.92l2.081,88.019s7.534,1.388,10.7,0c-.594,0,3.271-84.153,3.271-84.153l1.784.3s5.135,27.57,5.65,31.817c1.19,9.813,5.352,51.641,5.352,51.641s7.137.992,10.309-.595c.2-.4-1.388-44.206-2.875-57.885s-6.839-42.82-8.028-45.793Z" transform="translate(-193.53 -8146.32)" fill="#003c7b"/><path d="M258.207,8152.528s4.757-.892,4.461-4.461-4.461-4.46-8.028-2.973-6.245,3.568-9.219,4.163-7.136,2.676-7.136,8.624,8.92,8.623,8.92,8.623Z" transform="translate(-193.892 -8138.24)" fill="#023868"/><path d="M225.747,8189.894s11.894-7.731,21.41-7.137,24.978,6.542,24.978,6.542,2.081,13.679-1.487,22-7.731,35.088-7.434,36.277c-10.11,5.353-26.464-.594-26.464-.594s0-21.112-1.784-29.142-8.921-16.355-8.921-16.355Z" transform="translate(-192.953 -8141.113)" fill="#5a9133"/><path d="M249.856,8189.969c.892.595,3.866,5.055,3.866,5.055l-1.487,33.6,4.46,6.542,4.461-10.11-5.055-30.33,3.271-4.758-4.757-6.244-2.973,2.081Z" transform="translate(-194.76 -8141.188)" fill="#023868"/><g transform="translate(0 59.269)"><rect width="73.235" height="46.111" rx="5.275" fill="#195ca0"/><text transform="translate(21.146 11.732)" fill="#d1d1d1" font-size="5" font-family="Poppins-Light, Poppins" font-weight="300" letter-spacing="0.025em"><tspan x="-16.39" y="0">CREDIT CARD</tspan></text><rect width="13.659" height="10.244" transform="translate(5.764 15.596)" fill="#ffcd00"/><rect width="13.659" height="5.312" transform="translate(5.764 28.439)" fill="#d1d1d1"/><rect width="30.854" height="3.334" transform="translate(5.764 35.656)" fill="#fff"/><rect width="13.659" height="5.312" transform="translate(22.458 28.439)" fill="#d1d1d1"/><rect width="13.659" height="5.312" transform="translate(39.152 28.439)" fill="#d1d1d1"/><rect width="13.659" height="5.312" transform="translate(55.846 28.439)" fill="#d1d1d1"/><path d="M256.8,8213.807a5.764,5.764,0,1,1-5.764-5.764A5.764,5.764,0,0,1,256.8,8213.807Z" transform="translate(-194.416 -8202.279)" fill="#ff4a0b"/><path d="M262.666,8213.807a5.764,5.764,0,1,1-5.764-5.764A5.763,5.763,0,0,1,262.666,8213.807Z" transform="translate(-194.856 -8202.279)" fill="#ffcd00" opacity="0.7"/></g><path d="M258.75,8181.949l37.566,1.487,13.678-27.356,8.029,5.352-15.463,33.6-30.33,9.813Z" transform="translate(-195.427 -8139.115)" fill="#5a9133"/><path d="M220.466,8193.318s-18.138,17.841-17.543,25.871,28.844,23.192,28.844,23.192l6.839-7.731-21.112-15.76,14.273-16.949s4.907-4.424,1.189-10.11C227.9,8184.1,220.466,8193.318,220.466,8193.318Z" transform="translate(-191.241 -8141.563)" fill="#83b56b"/><path d="M247.927,8168.294l.893,13.382s4.163,5.649,10.407-.3l-.3-6.244Z" transform="translate(-194.615 -8140.031)" fill="#d68c56"/><path d="M247.046,8162.388s-4.461,2.677-2.378,5.65a4.7,4.7,0,0,0,5.352,1.784s3.271,6.542,9.515,7.731,8.624-5.947,8.624-9.218-9.219-19.329-9.219-19.329l-8.623,4.758S251.507,8162.091,247.046,8162.388Z" transform="translate(-194.329 -8138.585)" fill="#eab488"/><path d="M244.713,8186.682l3.866-7.137s1.783,4.461,5.649,3.866a7.364,7.364,0,0,0,5.352-3.568l3.569,6.542-5.352,6.244-3.271-5.947-4.758,5.65Z" transform="translate(-194.374 -8140.874)" fill="#fff"/><path d="M234.1,8246.1s.595,3.568,3.271,5.056,9.218.892,9.218.892a8.619,8.619,0,0,0,3.866-1.783c1.783-1.487-9.516-11.9-9.516-11.9Z" transform="translate(-193.579 -8145.284)" fill="#eab488"/><path d="M314.683,8155s.595-4.758,1.982-7.334,5.748-10.308,6.938-9.912-2.577,8.722-2.577,8.722,2.577-2.378,4.164-.991,2.577,5.947,1.586,7.334-6.145,6.344-6.145,6.344Z" transform="translate(-199.62 -8137.74)" fill="#eab488"/><path d="M238.916,8374.94s-.743-4.163,1.487-6.541c.3-.148,4.163,1.337,6.542.148.595,0,14.57,2.527,15.165,5.8-1.487.3-16.355,0-16.355,0l-2.379-.892.3,1.635S238.916,8374.644,238.916,8374.94Z" transform="translate(-193.931 -8155.03)" fill="#003768"/><path d="M267.633,8374.94s-.744-4.163,1.487-6.541c.3-.148,4.164,1.337,6.542.148.595,0,14.571,2.527,15.166,5.8-1.487.3-16.355,0-16.355,0l-2.379-.892.3,1.635S267.633,8374.644,267.633,8374.94Z" transform="translate(-196.084 -8155.03)" fill="#003768"/></g><g transform="translate(295.679 8090.209)"><path d="M339.764,8099.724h0a1.391,1.391,0,0,1-1.388-1.387v-6.74a1.391,1.391,0,0,1,1.388-1.388h0a1.391,1.391,0,0,1,1.388,1.388v6.74A1.391,1.391,0,0,1,339.764,8099.724Z" transform="translate(-308.213 -8090.209)" fill="#ffcd00"/><path d="M326.753,8104.109h0a1.392,1.392,0,0,0,.265-1.945l-4.079-5.366a1.393,1.393,0,0,0-1.944-.264h0a1.392,1.392,0,0,0-.265,1.944l4.079,5.365A1.392,1.392,0,0,0,326.753,8104.109Z" transform="translate(-306.869 -8090.662)" fill="#ffcd00"/><path d="M318.49,8113.276h0a1.392,1.392,0,0,1-1.911.446l-5.724-3.559a1.392,1.392,0,0,1-.446-1.911h0a1.391,1.391,0,0,1,1.911-.446l5.724,3.559A1.39,1.39,0,0,1,318.49,8113.276Z" transform="translate(-306.101 -8091.513)" fill="#ffcd00"/><path d="M315.278,8125.176h0a1.391,1.391,0,0,0-1.441-1.331l-6.735.266a1.393,1.393,0,0,0-1.332,1.441h0a1.392,1.392,0,0,0,1.442,1.332l6.734-.267A1.392,1.392,0,0,0,315.278,8125.176Z" transform="translate(-305.769 -8092.731)" fill="#ffcd00"/><path d="M353.359,8103.31h0a1.391,1.391,0,0,1-.379-1.925l3.754-5.6a1.391,1.391,0,0,1,1.925-.379h0a1.392,1.392,0,0,1,.38,1.925l-3.755,5.6A1.391,1.391,0,0,1,353.359,8103.31Z" transform="translate(-309.29 -8090.581)" fill="#ffcd00"/><path d="M362.009,8111.97h0a1.392,1.392,0,0,0,1.934.332l5.5-3.891a1.392,1.392,0,0,0,.332-1.935h0a1.392,1.392,0,0,0-1.934-.332l-5.5,3.892A1.392,1.392,0,0,0,362.009,8111.97Z" transform="translate(-309.966 -8091.384)" fill="#ffcd00"/><path d="M365.824,8123.681h0a1.391,1.391,0,0,1,1.36-1.415l6.739-.134a1.392,1.392,0,0,1,1.414,1.36h0a1.392,1.392,0,0,1-1.36,1.415l-6.739.133A1.391,1.391,0,0,1,365.824,8123.681Z" transform="translate(-310.271 -8092.602)" fill="#ffcd00"/></g><g transform="translate(308.498 8103.697)"><path d="M319.63,8124.632a19.481,19.481,0,1,1,19.837,19.123A19.482,19.482,0,0,1,319.63,8124.632Z" transform="translate(-319.626 -8104.79)" fill="#ffcd00"/><path d="M323.652,8124.864a15.76,15.76,0,1,1,16.047,15.471A15.756,15.756,0,0,1,323.652,8124.864Z" transform="translate(-319.928 -8105.092)" fill="#ff9600"/><g transform="translate(2.078 2.081)"><path d="M339.266,8141.849a17.4,17.4,0,0,1-17.39-17.087h0a17.4,17.4,0,0,1,17.081-17.719l.321,0a17.4,17.4,0,0,1,.317,34.8C339.485,8141.847,339.375,8141.849,339.266,8141.849Zm.012-34.182-.31,0a16.773,16.773,0,0,0-16.465,17.08h0a16.775,16.775,0,1,0,16.775-17.083Z" transform="translate(-321.873 -8107.04)" fill="#fff0d1"/></g><g transform="translate(12.587 8.458)"><path d="M337.647,8134.619a8.406,8.406,0,0,1-3.634-1.256l-.781-.539,1.432-4.235,1.351.862a5.941,5.941,0,0,0,3.115.892h.1c.9-.018,1.953-.4,1.931-1.426-.01-.549-.2-1.2-2.306-2.009-2.606-.97-5.288-2.415-5.349-5.744a5.568,5.568,0,0,1,3.98-5.41l-.056-1.738,4.189-.082.048,1.479a8.02,8.02,0,0,1,2.908.953l.925.519-1.5,4.18-1.289-.709a5.31,5.31,0,0,0-2.681-.7h-.113c-1.019.019-1.6.418-1.586,1.1.009.5.2.925,2.61,1.871,2.326.9,5.009,2.4,5.074,6.014a5.8,5.8,0,0,1-4.163,5.656l.059,1.819-4.214.083Z" transform="translate(-333.233 -8113.934)" fill="#ffcd00"/></g></g></g></svg>