<svg xmlns="http://www.w3.org/2000/svg" width="106.584" height="106.587" viewBox="0 0 106.584 106.587"><g transform="translate(-111.445 -8620.442)"><path d="M164.737,8620.442q2.619,0,5.224.257t5.173.768q2.568.51,5.073,1.271t4.924,1.762q2.418,1,4.728,2.235t4.486,2.688q2.177,1.455,4.2,3.116t3.875,3.513q1.851,1.852,3.512,3.875t3.115,4.2q1.455,2.177,2.689,4.486t2.236,4.728q1,2.418,1.762,4.923t1.271,5.073q.51,2.569.767,5.173t.257,5.225q0,2.618-.257,5.224t-.767,5.174q-.51,2.568-1.271,5.072t-1.762,4.924a52.274,52.274,0,0,1-2.236,4.729q-1.236,2.309-2.689,4.485t-3.115,4.2q-1.659,2.023-3.512,3.875t-3.875,3.512q-2.023,1.661-4.2,3.116t-4.486,2.689q-2.308,1.233-4.728,2.235t-4.924,1.763a52.189,52.189,0,0,1-5.073,1.271q-2.566.513-5.173.769t-5.224.257q-2.617,0-5.224-.257T154.34,8726q-2.566-.51-5.073-1.271t-4.924-1.763q-2.418-1-4.727-2.235t-4.486-2.689q-2.178-1.453-4.2-3.116t-3.875-3.512q-1.851-1.853-3.512-3.875t-3.116-4.2q-1.455-2.177-2.688-4.485t-2.236-4.729q-1-2.418-1.762-4.924t-1.271-5.072q-.51-2.568-.767-5.174t-.258-5.224q0-2.618.258-5.225t.767-5.173q.508-2.566,1.271-5.073t1.762-4.923a52.258,52.258,0,0,1,2.236-4.728q1.236-2.307,2.688-4.486t3.116-4.2q1.661-2.023,3.512-3.875t3.875-3.513q2.022-1.661,4.2-3.116t4.486-2.688q2.31-1.236,4.727-2.235t4.924-1.762a51.842,51.842,0,0,1,5.073-1.271q2.566-.513,5.173-.768T164.737,8620.442Z" fill="#a0a603"/><circle cx="50.059" cy="50.059" r="50.059" transform="translate(114.678 8623.676)" fill="#fff"/><path d="M164.737,8628.2a45.538,45.538,0,1,1-45.538,45.538,45.538,45.538,0,0,1,45.538-45.538Z" fill="#aaaf31"/><path d="M190.662,8645.345h-48.53a.935.935,0,0,0-.934.935v31.73a.934.934,0,0,0,.934.934h48.53a.933.933,0,0,0,.933-.934v-31.73A.934.934,0,0,0,190.662,8645.345Zm-.933,31.732H143.065v-1.867h46.664Zm0-3.733H143.065v-1.867h46.664Zm0-3.732H143.065v-22.4h46.664Z" fill="#fff"/><path d="M186.929,8652.812a2.953,2.953,0,0,1-2.8-2.8.933.933,0,0,0-.933-.933H149.6a.933.933,0,0,0-.933.933,2.953,2.953,0,0,1-2.8,2.8.935.935,0,0,0-.934.934v9.333a.934.934,0,0,0,.934.933,2.8,2.8,0,0,1,2.8,2.8.933.933,0,0,0,.933.934h33.6a.933.933,0,0,0,.933-.934,2.8,2.8,0,0,1,2.8-2.8.933.933,0,0,0,.933-.933v-9.333A.934.934,0,0,0,186.929,8652.812Zm-.933,9.428a4.676,4.676,0,0,0-3.639,3.638h-31.92a4.677,4.677,0,0,0-3.639-3.638v-7.663a4.875,4.875,0,0,0,3.63-3.63h31.937a4.874,4.874,0,0,0,3.631,3.63Z" fill="#fff"/><path d="M166.4,8652.812a5.6,5.6,0,1,0,5.6,5.6A5.606,5.606,0,0,0,166.4,8652.812Zm0,9.332a3.733,3.733,0,1,1,3.733-3.732A3.736,3.736,0,0,1,166.4,8662.144Z" fill="#fff"/><path d="M186.774,8683.794a3.046,3.046,0,0,0-2.486-.672l-18.507,3.218-5.257-5.257a.935.935,0,0,0-.66-.273H135.6v1.866h10.266v11.2H135.6v1.866h17.512l9.977,4.99a3.051,3.051,0,0,0,2.9-.095l20.358-11.876a3.049,3.049,0,0,0,.427-4.968ZM149.6,8693.876h-1.867v-11.2H149.6Zm35.81-6.726-20.359,11.875a1.187,1.187,0,0,1-1.126.036l-10.175-5.087a.921.921,0,0,0-.417-.1h-1.867v-11.2h8.013l7.353,7.354a1.707,1.707,0,0,1-2.414,2.413l-4.826-4.826-1.319,1.319,4.826,4.826a3.573,3.573,0,1,0,5.052-5.053l-.755-.755,17.215-2.994a1.185,1.185,0,0,1,.8,2.19Z" fill="#fff"/></g></svg>