<svg xmlns="http://www.w3.org/2000/svg" width="106.584" height="106.587" viewBox="0 0 106.584 106.587"><g transform="translate(-242.146 -8492.908)"><path d="M295.437,8492.908q2.619,0,5.224.257t5.174.768q2.568.51,5.073,1.271t4.924,1.762q2.416,1,4.728,2.235t4.486,2.688q2.175,1.456,4.2,3.116t3.875,3.513q1.851,1.852,3.512,3.875t3.115,4.2q1.455,2.177,2.689,4.486t2.236,4.728q1,2.418,1.762,4.924t1.271,5.072q.51,2.569.767,5.173t.257,5.225q0,2.618-.257,5.224t-.767,5.174q-.512,2.568-1.271,5.072t-1.762,4.924q-1,2.418-2.236,4.729t-2.689,4.485q-1.456,2.177-3.115,4.2t-3.512,3.875q-1.851,1.852-3.875,3.513t-4.2,3.115q-2.178,1.456-4.486,2.689t-4.728,2.235q-2.418,1-4.924,1.763t-5.073,1.271q-2.568.511-5.174.769t-5.224.257q-2.618,0-5.224-.257t-5.173-.769q-2.566-.51-5.073-1.271t-4.924-1.763q-2.418-1-4.727-2.235t-4.486-2.689q-2.178-1.453-4.2-3.115t-3.875-3.513q-1.851-1.852-3.512-3.875t-3.116-4.2q-1.455-2.177-2.688-4.485t-2.236-4.729q-1-2.417-1.762-4.924t-1.271-5.072q-.51-2.568-.767-5.174t-.257-5.224q0-2.618.257-5.225t.767-5.173q.51-2.566,1.271-5.072t1.762-4.924q1-2.418,2.236-4.728t2.688-4.486q1.455-2.177,3.116-4.2t3.512-3.875q1.852-1.852,3.875-3.513t4.2-3.116q2.177-1.453,4.486-2.688t4.727-2.235q2.42-1,4.924-1.762t5.073-1.271q2.568-.513,5.173-.768T295.437,8492.908Z" fill="#a0a603"/><circle cx="50.059" cy="50.059" r="50.059" transform="translate(245.378 8496.142)" fill="#fff"/><path d="M295.437,8500.663A45.538,45.538,0,1,1,249.9,8546.2a45.538,45.538,0,0,1,45.538-45.538Z" fill="#aaaf31"/><path d="M324.513,8569.716v-11.6a1.056,1.056,0,0,0-1.055-1.056H322.4v-3.165a1.055,1.055,0,0,0-1.055-1.055h-1.826a8.439,8.439,0,1,0-11.119,0h-1.826a1.055,1.055,0,0,0-1.055,1.055v4.221a1.055,1.055,0,0,0,1.055,1.055h1.055v10.55h-4.22v-2.109h1.055a1.055,1.055,0,0,0,1.055-1.056v-4.22a1.054,1.054,0,0,0-1.055-1.055h-1.055v-7.386a1.054,1.054,0,0,0-1.055-1.055H301.3v-2.11h1.055a1.055,1.055,0,0,0,1.055-1.055v-4.22a1.054,1.054,0,0,0-1.055-1.055H301.3v-2.11h1.055a1.055,1.055,0,0,0,1.055-1.055v-4.221a1.054,1.054,0,0,0-1.055-1.055h-6.33v-4.22h1.055a11.605,11.605,0,0,0,11.605-11.606,1.055,1.055,0,0,0-1.055-1.055h-2.11a11.605,11.605,0,0,0-9.495,4.959v-6.015h1.055a8.439,8.439,0,0,0,8.44-8.439,1.055,1.055,0,0,0-1.055-1.055h-2.11a8.441,8.441,0,0,0-7.385,4.367,8.44,8.44,0,0,0-7.385-4.367h-2.11a1.055,1.055,0,0,0-1.055,1.055,8.44,8.44,0,0,0,8.44,8.439h1.055v6.015a11.6,11.6,0,0,0-9.495-4.959h-2.11a1.055,1.055,0,0,0-1.055,1.055,11.606,11.606,0,0,0,11.605,11.606h1.055v4.22h-6.33a1.054,1.054,0,0,0-1.055,1.055v3.165h-1.055a1.055,1.055,0,0,0-1.055,1.056v4.22a1.055,1.055,0,0,0,1.055,1.055h1.055v2.11h-1.055a1.054,1.054,0,0,0-1.055,1.055v4.22a1.056,1.056,0,0,0,1.055,1.056h1.055v7.385a1.054,1.054,0,0,0,1.055,1.055h1.055v2.11h-1.055a1.054,1.054,0,0,0-1.055,1.055v3.165h-2.11v-3.165a1.054,1.054,0,0,0-1.055-1.055h-1.055v-2.11h1.055a1.054,1.054,0,0,0,1.055-1.055v-4.22a1.055,1.055,0,0,0-1.055-1.056h-1.055v-7.385a1.054,1.054,0,0,0-1.055-1.055h-14.77a1.054,1.054,0,0,0-1.055,1.055v8.44a1.054,1.054,0,0,0,1.055,1.055h1.055v2.11h-1.055a1.054,1.054,0,0,0-1.055,1.055v4.22a1.055,1.055,0,0,0,1.055,1.056h1.055v2.109h-4.22v2.11h63.3v-2.11Zm-18.991-48.531h.992a9.495,9.495,0,0,1-9.432,8.44h-.991A9.5,9.5,0,0,1,305.522,8521.185Zm-3.165-10.55h.971a6.331,6.331,0,0,1-6.246,5.275h-.97A6.33,6.33,0,0,1,302.357,8510.635Zm-9.495,5.275a6.33,6.33,0,0,1-6.245-5.275h.97a6.331,6.331,0,0,1,6.246,5.275Zm0,13.715a9.5,9.5,0,0,1-9.432-8.44h.992a9.5,9.5,0,0,1,9.432,8.44Zm-10.55,29.541v2.11h-12.66v-2.11Zm-14.77-8.44H280.2v2.11h-12.66Zm0,4.221H280.2v2.109h-12.66Zm0,8.439H280.2v2.11h-12.66Zm14.77,6.33h-12.66v-2.109h12.66Zm21.1-6.33v2.11h-12.66v-2.11Zm-2.11-4.22v2.11h-12.66v-2.11Zm-12.66-2.11v-2.109H301.3v2.109Zm12.66-8.439h-12.66v-2.11H301.3Zm-12.66-10.55H301.3v2.109h-12.66Zm-2.11,4.22h12.66v2.11h-12.66Zm0,10.55v-2.11h12.66v2.11Zm14.77,16.88h-12.66v-2.109H301.3Zm6.33-23.21a6.331,6.331,0,1,1,6.331,6.33A6.33,6.33,0,0,1,307.632,8546.506Zm0,8.44h12.661v2.109H307.632Zm14.771,14.77H309.742v-2.109H322.4Zm0-4.22H309.742v-2.11H322.4Zm0-4.22H309.742v-2.11H322.4Z" fill="#fff"/><path d="M316.073,8546.506a2.111,2.111,0,0,1-2.11,2.11v2.109a4.221,4.221,0,0,0,4.22-4.22Z" fill="#fff"/><path d="M309.742,8546.506h2.11a2.109,2.109,0,0,1,2.111-2.109v-2.11A4.22,4.22,0,0,0,309.742,8546.506Z" fill="#fff"/><path d="M320.461,8514.855a4.082,4.082,0,0,1-3.333-3.334,1.055,1.055,0,1,0-2.11,0,4.084,4.084,0,0,1-3.334,3.334,1.055,1.055,0,1,0,0,2.109,4.085,4.085,0,0,1,3.334,3.334,1.055,1.055,0,0,0,2.11,0,4.083,4.083,0,0,1,3.333-3.334,1.055,1.055,0,1,0,0-2.109Zm-4.388,2.563a1.508,1.508,0,1,1,0-3.017,1.508,1.508,0,0,1,0,3.017Z" fill="#fff"/><path d="M278.261,8538.066a4.084,4.084,0,0,1-3.334-3.334,1.055,1.055,0,1,0-2.11,0,4.086,4.086,0,0,1-3.334,3.334,1.055,1.055,0,1,0,0,2.109,4.083,4.083,0,0,1,3.334,3.333,1.055,1.055,0,1,0,2.11,0,4.081,4.081,0,0,1,3.334-3.333,1.055,1.055,0,1,0,0-2.109Zm-4.389,2.563a1.508,1.508,0,1,1,0-3.017,1.508,1.508,0,1,1,0,3.017Z" fill="#fff"/><path d="M323.458,8533.846v-3.165h-2.11v3.165h-3.165v2.109h3.165v3.166h2.11v-3.166h3.165v-2.109Z" fill="#fff"/><path d="M280.2,8527.515v-1.055h-2.11v1.055a6.331,6.331,0,0,0,6.33,6.331v-2.109A4.221,4.221,0,0,1,280.2,8527.515Z" fill="#fff"/></g></svg>