<svg xmlns="http://www.w3.org/2000/svg" width="315.684" height="355.073" viewBox="0 0 315.684 355.073"><g transform="translate(-533.889 -8134.579)"><rect width="315.684" height="5.863" rx="2.931" transform="translate(533.889 8483.79)" fill="#ccdef2"/><path d="M589.954,8255.41c-2.484,3.274-3.914,6.313-3.387,8.243.677,2.484,4.291,1.807,19.084,1.017s21.116-5.383,18.067-13.1C621.894,8246.957,589.954,8255.41,589.954,8255.41Z" transform="translate(-3.204 -7.046)" fill="#eaa61f"/><g transform="translate(639.385 8134.579)"><rect width="33.664" height="48.331" transform="translate(127.24 2.511)" fill="#d88971"/><rect width="40.166" height="48.331" transform="translate(87.702 2.511)" fill="#fcc490"/><g transform="translate(82.122 14.246)"><rect width="40.489" height="43.162" transform="translate(7.333)" fill="#b23f3f"/><rect width="40.489" height="43.162" fill="#8c3535"/><rect width="38.392" height="43.162" transform="translate(47.562)" fill="#e5594e"/></g><g transform="translate(73.206 5.799)"><rect width="6.442" height="283.603" fill="#15497c"/></g><g transform="translate(73.206 5.799)"><rect width="6.442" height="283.603" transform="translate(6.286)" fill="#1a5aa4"/><path d="M724.188,8198.814h12.728V8427.9H724.188Z" transform="translate(-724.188 -8144.293)" fill="#13446b"/></g><g transform="translate(49.368 71.377)"><rect width="40.489" height="43.161" fill="#ffa85a"/><rect width="21.629" height="43.161" transform="translate(40.229)" fill="#a86951"/></g><g transform="translate(110.196 67.885)"><rect width="24.983" height="47.352" transform="translate(3.562)" fill="#c2d8ef"/><path d="M788.561,8260.3H763.578l9.49-33.586v-19.749h4.058v6.142l2.38-.158,9.055,7.54Z" transform="translate(-763.578 -8206.875)" fill="#8a8aa8"/><rect width="35.04" height="47.352" transform="translate(24.933)" fill="#b0b0c6"/></g><g transform="translate(11.164 83.807)"><g transform="translate(0.138)"><path d="M705.88,8225.61l-16.763,30.172h-30.85v-18.015l28.358-12.157Z" transform="translate(-658.266 -8223.934)" fill="#bf7666"/><rect width="4.749" height="27.099" transform="translate(2.446)" fill="#75d9f1"/><rect width="23.327" height="27.099" transform="translate(6.636)" fill="#279cd1"/><rect width="4.749" height="27.099" transform="translate(8.173)" fill="#75d9f1"/><rect width="19.116" height="18.017" transform="translate(33.037 1.679)" fill="#a86256"/><rect width="23.327" height="27.099" transform="translate(12.363)" fill="#279cd1"/><rect width="4.749" height="27.099" transform="translate(14.598)" fill="#75d9f1"/><rect width="23.327" height="27.099" transform="translate(18.789)" fill="#279cd1"/><path d="M713.387,8255.791h-35.04v-18.016l27.379-12.016H730.15Z" transform="translate(-659.49 -8223.943)" fill="#d88971"/></g><rect width="19.116" height="18.017" transform="translate(0 13.832)" fill="#fcc490"/></g><g transform="translate(38.611 80.22)"><g transform="translate(0.138)"><path d="M735.109,8225.61l-16.763,30.172H687.5v-18.015l28.358-12.157Z" transform="translate(-687.496 -8220.347)" fill="#a86256"/><rect width="19.116" height="18.017" transform="translate(34.643 5.267)" fill="#fcc490"/><path d="M717.833,8237.656h11.29L725.511,8220h-11.29Z" transform="translate(-689.124 -8220.005)" fill="#cccbdb"/><path d="M727.869,8237.449l-8.509,1.119-3.722-18.536h8.509Z" transform="translate(-689.211 -8220.007)" fill="#8c8ca5" opacity="0.6"/><rect width="5.587" height="18.017" transform="translate(19.623 1.12) rotate(-11.566)" fill="#eeefe6"/><path d="M726.609,8237.656H737.9L734.287,8220H723Z" transform="translate(-689.659 -8220.005)" fill="#cccbdb"/><rect width="5.587" height="18.017" transform="translate(27.865 1.12) rotate(-11.566)" fill="#eeefe6"/><rect width="19.116" height="18.017" transform="translate(17.322 12.67)" fill="#e5bf23"/><rect width="19.116" height="18.017" transform="translate(2.516 12.67)" fill="#fbf65a"/><path d="M742.616,8255.791h-35.04v-18.016l27.379-12.016h7.661Z" transform="translate(-688.719 -8220.355)" fill="#d88971"/></g><rect width="19.116" height="18.017" transform="translate(0 17.419)" fill="#fcc490"/></g><rect width="33.664" height="48.331" transform="translate(133.945 125.713)" fill="#b87a53"/><rect width="13.828" height="48.331" transform="translate(120.744 125.713)" fill="#704136"/><g transform="translate(100.978 131.374)"><path d="M788.8,8321.831h-35.04v-24.519l18.16-22.834H788.8Z" transform="translate(-753.763 -8274.479)" fill="#272523"/></g><g transform="translate(11.041 126.185)"><rect width="12.261" height="47.087" fill="#fed500"/><rect width="31.832" height="47.087" transform="translate(12.261)" fill="#eaa61f"/><rect width="3.667" height="20.987" transform="translate(4.011 10.353)" fill="#fff"/><rect width="12.261" height="6.442" transform="translate(0 38.438)" fill="#5b5652"/><rect width="28.559" height="6.442" transform="translate(12.261 38.438)" fill="#1e2123"/><rect width="12.261" height="47.087" transform="translate(15.119)" fill="#fed500"/><rect width="31.832" height="47.087" transform="translate(27.381)" fill="#eaa61f"/><rect width="3.667" height="20.987" transform="translate(19.13 10.353)" fill="#fff"/><rect width="12.261" height="6.442" transform="translate(15.119 38.438)" fill="#5b5652"/><rect width="31.847" height="6.442" transform="translate(27.373 38.438)" fill="#1e2123"/></g><g transform="translate(49.646 131.372)"><path d="M734.136,8274.477v47.353H699.1v-24.519l18.157-22.834Z" transform="translate(-699.099 -8274.477)" fill="#505862"/><path d="M734.136,8274.477v22.834H699.1l18.157-22.834Z" transform="translate(-699.099 -8274.477)" fill="#737b84"/></g><g transform="translate(52.787 131.374)"><path d="M737.484,8321.831h-35.04v-24.519l18.16-22.834h16.88Z" transform="translate(-702.444 -8274.479)" fill="#272523"/><rect width="33.664" height="39.949" transform="translate(5.519 2.721)" fill="#899122"/><rect width="33.664" height="39.949" transform="translate(13.69 2.721)" fill="#899122"/></g><g transform="translate(69.899 131.372)"><path d="M755.707,8274.477v47.353H720.666v-24.519l18.162-22.834Z" transform="translate(-720.666 -8274.477)" fill="#505862"/><path d="M755.707,8274.477v22.834H720.666l18.162-22.834Z" transform="translate(-720.666 -8274.477)" fill="#737b84"/><path d="M740.93,8276.41l-13.2,17.806-5.779,1.576,15.417-19.382Z" transform="translate(-720.745 -8274.595)" fill="#332e2b"/></g><g transform="translate(54.325 125.713)"><path d="M759.5,8321.831h-35.04v-24.519l18.16-22.834H759.5Z" transform="translate(-705.324 -8268.817)" fill="#272523"/><rect width="33.664" height="48.331" transform="translate(25.876)" fill="#b23f3f"/><rect width="5.447" height="48.331" transform="translate(21.162)" fill="#ff5245"/><rect width="33.664" height="48.331" transform="translate(33.943)" fill="#b23f3f"/><rect width="5.447" height="48.331" transform="translate(29.124)" fill="#ff5245"/><rect width="5.447" height="39.949" transform="translate(0 8.382)" fill="#c7d821"/><rect width="5.447" height="39.949" transform="translate(7.962 8.382)" fill="#c7d821"/></g><g transform="translate(90.99 131.372)"><path d="M778.167,8274.477v47.353H743.126v-24.519l18.162-22.834Z" transform="translate(-743.126 -8274.477)" fill="#505862"/><path d="M778.167,8274.477v22.834H743.126l2.745-3.452,15.417-19.382Z" transform="translate(-743.126 -8274.477)" fill="#737b84"/><path d="M765.028,8274.477l-13.2,17.807-5.779,1.575,15.417-19.382Z" transform="translate(-743.304 -8274.477)" fill="#332e2b"/></g><g transform="translate(94.553 131.374)"><path d="M781.96,8321.831H746.92v-24.519l18.16-22.834h16.88Z" transform="translate(-746.92 -8274.479)" fill="#332e2b"/></g><g transform="translate(67.384 67.885)"><g transform="translate(0 6.08)"><path d="M753.028,8260.7h-35.04v-24.519l18.16-22.833h16.88Z" transform="translate(-717.989 -8213.344)" fill="#505862"/></g><path d="M756.821,8260.7h-35.04v-24.519l18.16-22.833h16.88Z" transform="translate(-718.22 -8207.264)" fill="#272523"/><path d="M730.317,8255.113h-6.1L722,8207.762h6.1Z" transform="translate(-718.233 -8206.924)" fill="#fed500"/><path d="M761.083,8255.113H727.424l-2.223-47.352H758.86Z" transform="translate(-718.428 -8206.924)" fill="#ce8d1b"/><rect width="6.096" height="47.352" transform="translate(11.727 2.515)" fill="#fed500"/><rect width="33.659" height="47.352" transform="translate(14.735 2.515)" fill="#ce8d1b"/><rect width="6.096" height="47.352" transform="translate(16.337)" fill="#fed500"/><rect width="33.659" height="47.352" transform="translate(19.344)" fill="#ce8d1b"/><g transform="translate(21.092 6.08)"><path d="M775.489,8260.7h-35.04v-24.519l18.16-22.833h16.88Z" transform="translate(-740.449 -8213.344)" fill="#505862"/></g><g transform="translate(24.654 6.08)"><path d="M779.282,8260.7h-35.04v-24.519l18.16-22.833h16.88Z" transform="translate(-744.243 -8213.344)" fill="#332e2b"/></g></g><g transform="translate(135.341 131.374)"><path d="M790.355,8321.831h35.04v-24.519l-18.16-22.834h-16.88Z" transform="translate(-790.355 -8274.479)" fill="#332e2b"/></g><g transform="translate(14.027 209.106)"><rect width="37.555" height="26.398" fill="#564d47"/><rect width="26.658" height="26.398" transform="translate(33.943)" fill="#332e2b"/></g><g transform="translate(11.513 7.259)"><rect width="62.696" height="50.148" transform="translate(0.419)" fill="#332e2b"/><rect width="40.07" height="18.017" transform="translate(0 32.132)" fill="#564d47"/></g><g transform="translate(11.513 19.695)"><rect width="26.658" height="18.017" transform="translate(36.457)" fill="#332e2b"/><rect width="40.07" height="18.017" fill="#564d47"/></g><g transform="translate(11.513)"><rect width="26.658" height="18.017" transform="translate(36.457)" fill="#332e2b"/><rect width="40.07" height="18.017" fill="#564d47"/></g><g transform="translate(14.027 182.706)"><rect width="37.555" height="26.398" fill="#f9dec1"/><rect width="26.658" height="26.398" transform="translate(33.943)" fill="#c1aa8a"/><rect width="4.348" height="6.422" transform="translate(46.436)" fill="#b87a53"/><rect width="4.348" height="5.863" transform="translate(46.436 26.4)" fill="#c1aa8a" opacity="0.2"/></g><g transform="translate(12.77 245.143)"><rect width="40.489" height="43.162" fill="#eeefe6"/><rect width="21.629" height="43.162" transform="translate(40.229)" fill="#93878d" opacity="0.8"/></g><g transform="translate(104.768 242.334)"><path d="M789.249,8393.752H757.8v46.168h66.5v-46.168Z" transform="translate(-757.798 -8392.707)" fill="#a86951"/><rect width="31.451" height="14.856" transform="translate(0 32.356)" fill="#a86951"/><rect width="35.387" height="14.856" transform="translate(31.112 32.356)" fill="#d88850"/><rect width="31.451" height="14.856" transform="translate(0 16.126)" fill="#a86951"/><rect width="35.387" height="14.856" transform="translate(31.112 16.126)" fill="#d88850"/><rect width="31.451" height="14.856" fill="#a86951"/><rect width="35.387" height="14.856" transform="translate(31.112)" fill="#d88850"/><rect width="6.079" height="3.193" transform="translate(23.255 10.219)" fill="#cec0b3" opacity="0.8"/><rect width="6.079" height="3.193" transform="translate(23.255 25.85)" fill="#cec0b3" opacity="0.8"/><rect width="6.079" height="3.193" transform="translate(23.255 42.613)" fill="#cec0b3" opacity="0.8"/></g><g transform="translate(23.977 186.897)"><path d="M739.594,8393.752H708.562v46.168h66.08v-46.168Z" transform="translate(-674.007 -8337.27)" fill="#ba5c2d"/><rect width="31.451" height="14.856" transform="translate(34.136 87.794)" fill="#ffb95c"/><rect width="35.387" height="14.856" transform="translate(65.248 87.794)" fill="#d88850"/><rect width="31.451" height="14.856" transform="translate(34.136 71.564)" fill="#ffb95c"/><rect width="35.387" height="14.856" transform="translate(65.248 71.564)" fill="#d88850"/><rect width="31.451" height="14.856" transform="translate(34.136 55.437)" fill="#ffb95c"/><rect width="35.387" height="14.856" transform="translate(65.248 55.437)" fill="#d88850"/><rect width="13.516" height="9.427" fill="#fff"/><rect width="5.241" height="3.193" transform="translate(58.229 81.287)" fill="#fff"/><rect width="5.241" height="3.193" transform="translate(58.229 98.05)" fill="#fff"/><rect width="5.241" height="3.193" transform="translate(58.229 65.656)" fill="#fff"/><rect width="6.825" height="6.838" transform="translate(46.701 96.973)" fill="#f9dec1" opacity="0.4" style="mix-blend-mode:screen;isolation:isolate"/></g><g transform="translate(113.338 188.152)"><rect width="24.984" height="47.349" transform="translate(0 0.002)" fill="#d3bca1"/><path d="M789.247,8350.863v30.381H768.714v-46.3h12.094Z" transform="translate(-767.033 -8334.941)" fill="#7f7077" opacity="0.8"/><rect width="35.04" height="47.352" transform="translate(21.371)" fill="#c1aa8a"/><rect width="8.033" height="2.528" rx="1.264" transform="translate(9.361 6.13)" fill="#505862"/><rect width="8.033" height="4.346" transform="translate(10.618 36.581)" fill="#505862" opacity="0.3" style="mix-blend-mode:multiply;isolation:isolate"/></g><g transform="translate(68.085 188.152)"><rect width="24.983" height="47.352" fill="#f9dec1"/><rect width="35.04" height="47.352" transform="translate(21.371)" fill="#c1aa8a"/></g><g transform="translate(59.703 10.474)"><rect width="16.546" height="47.352" fill="#eeefe6"/><rect width="23.206" height="47.352" transform="translate(14.153)" fill="#c1aa8a"/></g><g transform="translate(79.399 10.474)"><rect width="16.546" height="47.352" fill="#eeefe6"/><rect width="26.14" height="47.352" transform="translate(14.153)" fill="#c1aa8a"/></g><g transform="translate(22.726 302.846)"><path d="M762.312,8502.016a7.309,7.309,0,1,1-7.309-7.329A7.321,7.321,0,0,1,762.312,8502.016Z" transform="translate(-675.141 -8459.37)" fill="#100f0b"/><path d="M814.6,8502.016a7.309,7.309,0,1,1-7.309-7.329A7.32,7.32,0,0,1,814.6,8502.016Z" transform="translate(-678.327 -8459.37)" fill="#100f0b"/><path d="M689.245,8502.016a7.309,7.309,0,1,1-7.31-7.329A7.321,7.321,0,0,1,689.245,8502.016Z" transform="translate(-670.688 -8459.37)" fill="#100f0b"/><path d="M741.529,8502.016a7.309,7.309,0,1,1-7.31-7.329A7.321,7.321,0,0,1,741.529,8502.016Z" transform="translate(-673.874 -8459.37)" fill="#100f0b"/><rect width="102.608" height="19.382" rx="3.506" transform="translate(17.276)" fill="#272523"/><rect width="31.225" height="19.382" rx="3.506" transform="translate(27.124 2.515)" fill="#564d47"/><path d="M809.494,8468.924V8500H670.432v-31.077a6.173,6.173,0,0,1,6.152-6.156H803.343A6.171,6.171,0,0,1,809.494,8468.924Z" transform="translate(-670.432 -8457.425)" fill="#d85825"/><path d="M743.946,8462.768a6.174,6.174,0,0,0-6.156,6.156v31.5H670.432v-31.5a6.086,6.086,0,0,1,.16-1.392,6.178,6.178,0,0,1,5.992-4.765Z" transform="translate(-670.432 -8457.425)" fill="#ff7415"/><g transform="translate(76.972 29.456)"><rect width="2.482" height="3.346" rx="1.241" fill="#272523"/><rect width="2.482" height="3.346" rx="1.241" transform="translate(6.318)" fill="#272523"/><rect width="2.483" height="3.346" rx="1.241" transform="translate(12.636)" fill="#272523"/><rect width="2.483" height="3.346" rx="1.241" transform="translate(18.954)" fill="#272523"/><rect width="2.483" height="3.346" rx="1.241" transform="translate(25.271)" fill="#272523"/><rect width="2.483" height="3.346" rx="1.241" transform="translate(31.589)" fill="#272523"/><rect width="2.483" height="3.346" rx="1.241" transform="translate(37.907)" fill="#272523"/><rect width="2.483" height="3.346" rx="1.241" transform="translate(44.225)" fill="#272523"/><rect width="2.483" height="3.346" rx="1.241" transform="translate(50.543)" fill="#272523"/></g><path d="M719.91,8467.532a9.464,9.464,0,0,1,2.029-2.5,8.6,8.6,0,0,1,5.484-2.267H702.279a8.609,8.609,0,0,0-5.485,2.267,9.483,9.483,0,0,0-2.029,2.5,7.8,7.8,0,0,0-.6,1.392l-10.057,31.5h25.144l10.058-31.5A7.718,7.718,0,0,1,719.91,8467.532Z" transform="translate(-671.265 -8457.425)" fill="#ff9852" opacity="0.6" style="mix-blend-mode:screen;isolation:isolate"/></g><path d="M731.745,8472.567v28.374H676.92v-28.374a2.956,2.956,0,0,1,2.946-2.945H728.8A2.958,2.958,0,0,1,731.745,8472.567Z" transform="translate(-648.101 -8154.997)" fill="#3f3a36"/><path d="M687.475,8472.3h-7.026a.862.862,0,0,0-.851.851v3.229h10.39a.861.861,0,0,0,.851-.85V8472.3Z" transform="translate(-648.265 -8155.16)" fill="#5abcff"/><path d="M723.868,8472.3h7.027a.862.862,0,0,1,.851.851v3.229H721.355a.861.861,0,0,1-.851-.85V8472.3Z" transform="translate(-650.758 -8155.16)" fill="#5abcff"/><rect width="71.704" height="8.343" transform="translate(90.084 337.078)" fill="#aa9f93"/><rect width="67.358" height="8.762" transform="translate(22.726 337.078)" fill="#f2cdaf"/><rect width="142.411" height="5.592" transform="translate(20.705 344.831)" fill="#564d47"/><rect width="74.615" height="5.592" transform="translate(88.501 344.831)" fill="#272523"/><rect width="16.48" height="14.063" rx="3.447" transform="translate(118.511 314.953)" fill="#cec0b3"/><rect width="14.804" height="8.428" rx="2.629" transform="translate(31.333 326.229)" fill="#565050"/><rect width="10.613" height="8.428" rx="2.629" transform="translate(50.925 321.829)" fill="#272523"/><rect width="6.003" height="5.495" rx="1.753" transform="translate(69.747 326.299)" fill="#272523"/><path d="M813.734,8468.924v4.19a6.17,6.17,0,0,0-6.152-6.155h-59.4a6.171,6.171,0,0,0-6.151,6.155l-2.025-4.19c0-3.386,4.794-6.156,8.175-6.156h59.4A6.171,6.171,0,0,1,813.734,8468.924Z" transform="translate(-651.946 -8154.579)" fill="#ff7415"/><path d="M815.431,8468.924v4.19a6.17,6.17,0,0,0-6.152-6.155H772.964l-5.121-4.191h41.436A6.171,6.171,0,0,1,815.431,8468.924Z" transform="translate(-653.642 -8154.579)" fill="#d85825"/><path d="M711.074,8485.966H700.461l4.191-4.656h6.422Z" transform="translate(-649.536 -8155.709)" fill="#564d47"/><g transform="translate(34.989 329.032)" opacity="0.6"><path d="M684.01,8485.682h-.063q-.456,0-.456-.314t.482-.313h.34a.353.353,0,0,1,.3.114.623.623,0,0,1,.085.368v2.045c0,.32-.115.481-.344.481s-.344-.161-.344-.481Z" transform="translate(-683.491 -8484.97)" fill="#f4d7c1"/><path d="M685.977,8485.413a.644.644,0,0,1,.044-.187.248.248,0,0,1,.085-.109.31.31,0,0,1,.132-.05,1.009,1.009,0,0,1,.182-.013h.825c.291,0,.436.105.436.316a.274.274,0,0,1-.1.229.475.475,0,0,1-.308.083h-.7l-.046.355a1.258,1.258,0,0,1,.288-.037.87.87,0,0,1,.355.073.845.845,0,0,1,.285.206.991.991,0,0,1,.189.312,1.109,1.109,0,0,1,.069.4,1.224,1.224,0,0,1-.082.446,1.066,1.066,0,0,1-.231.359,1.042,1.042,0,0,1-.356.24,1.185,1.185,0,0,1-.459.086,1.332,1.332,0,0,1-.373-.051,1.172,1.172,0,0,1-.3-.134.694.694,0,0,1-.2-.19.39.39,0,0,1-.073-.222.3.3,0,0,1,.08-.217.266.266,0,0,1,.2-.084.287.287,0,0,1,.146.041c.048.025.1.055.149.087a1.122,1.122,0,0,0,.165.088.485.485,0,0,0,.2.039.365.365,0,0,0,.163-.035.455.455,0,0,0,.134-.1.438.438,0,0,0,.092-.143.465.465,0,0,0,.034-.179.435.435,0,0,0-.1-.31.359.359,0,0,0-.274-.109.533.533,0,0,0-.128.017l-.128.036-.124.035a.392.392,0,0,1-.119.018c-.176,0-.264-.1-.264-.294a.763.763,0,0,1,.007-.087c0-.04.009-.088.014-.144Z" transform="translate(-683.622 -8484.97)" fill="#f4d7c1"/><path d="M690.13,8486.39a.815.815,0,0,1,.494.762.922.922,0,0,1-.077.377.909.909,0,0,1-.22.307,1.092,1.092,0,0,1-.338.205,1.189,1.189,0,0,1-.429.075,1.083,1.083,0,0,1-.67-.229,1.018,1.018,0,0,1-.272-.3.582.582,0,0,1-.092-.295.33.33,0,0,1,.082-.235.277.277,0,0,1,.215-.089.271.271,0,0,1,.166.049.777.777,0,0,1,.136.141l.09.123a.627.627,0,0,0,.094.105.473.473,0,0,0,.114.071.372.372,0,0,0,.146.027.342.342,0,0,0,.255-.109.378.378,0,0,0,.105-.272.275.275,0,0,0-.109-.25.86.86,0,0,0-.323-.1.413.413,0,0,1-.218-.09.285.285,0,0,1-.067-.212.264.264,0,0,1,.067-.2.446.446,0,0,1,.218-.1c.209-.052.315-.152.315-.307a.259.259,0,0,0-.068-.187.238.238,0,0,0-.18-.068.294.294,0,0,0-.169.048,1.273,1.273,0,0,0-.141.115c-.064.059-.12.108-.167.148a.286.286,0,0,1-.193.062.277.277,0,0,1-.194-.081.272.272,0,0,1-.086-.205.481.481,0,0,1,.076-.251.828.828,0,0,1,.208-.23,1.1,1.1,0,0,1,.308-.169,1.075,1.075,0,0,1,.373-.065.954.954,0,0,1,.358.065.875.875,0,0,1,.284.174.791.791,0,0,1,.184.258.751.751,0,0,1,.067.316.692.692,0,0,1-.082.34A.865.865,0,0,1,690.13,8486.39Z" transform="translate(-683.798 -8484.964)" fill="#f4d7c1"/></g><g transform="translate(123.212 320.232)" opacity="0.8"><path d="M778.063,8476.454h-.075q-.548,0-.548-.378c0-.251.193-.376.578-.376h.408a.422.422,0,0,1,.36.138.744.744,0,0,1,.1.439v2.454q0,.579-.412.579c-.274,0-.412-.193-.412-.579Z" transform="translate(-777.439 -8475.6)" fill="#3f3a36"/><path d="M780.422,8476.132a.779.779,0,0,1,.053-.227.307.307,0,0,1,.1-.13.364.364,0,0,1,.159-.061,1.419,1.419,0,0,1,.219-.015h.99c.349,0,.523.125.523.379a.331.331,0,0,1-.123.276.583.583,0,0,1-.369.1h-.84l-.055.427a1.477,1.477,0,0,1,.347-.045,1.043,1.043,0,0,1,.425.088,1.03,1.03,0,0,1,.341.246,1.179,1.179,0,0,1,.227.375,1.324,1.324,0,0,1,.083.478,1.443,1.443,0,0,1-.1.536,1.271,1.271,0,0,1-.276.432,1.257,1.257,0,0,1-.427.287,1.416,1.416,0,0,1-.551.1,1.555,1.555,0,0,1-.447-.062,1.359,1.359,0,0,1-.363-.16.859.859,0,0,1-.243-.229.454.454,0,0,1-.088-.263.364.364,0,0,1,.1-.262.316.316,0,0,1,.241-.1.353.353,0,0,1,.176.048c.057.031.116.066.178.105a1.857,1.857,0,0,0,.2.105.587.587,0,0,0,.241.047.458.458,0,0,0,.2-.042.561.561,0,0,0,.161-.116.534.534,0,0,0,.111-.171.565.565,0,0,0,.04-.214.515.515,0,0,0-.124-.371.431.431,0,0,0-.329-.132.61.61,0,0,0-.154.021c-.052.013-.1.027-.153.042s-.1.03-.148.043a.531.531,0,0,1-.144.021c-.211,0-.316-.118-.316-.353,0-.023,0-.059.008-.105s.011-.1.018-.171Z" transform="translate(-777.596 -8475.6)" fill="#3f3a36"/><path d="M785.406,8477.3a.98.98,0,0,1,.593.915,1.118,1.118,0,0,1-.093.453,1.07,1.07,0,0,1-.264.367,1.286,1.286,0,0,1-.4.246,1.433,1.433,0,0,1-.516.091,1.3,1.3,0,0,1-.8-.275,1.229,1.229,0,0,1-.328-.354.717.717,0,0,1-.11-.355.4.4,0,0,1,.1-.283.341.341,0,0,1,.259-.1.318.318,0,0,1,.2.058.82.82,0,0,1,.163.169c.037.05.073.1.108.147a.726.726,0,0,0,.114.126.534.534,0,0,0,.136.086.443.443,0,0,0,.176.032.413.413,0,0,0,.307-.131.453.453,0,0,0,.126-.326.327.327,0,0,0-.131-.3,1.042,1.042,0,0,0-.387-.123.48.48,0,0,1-.262-.108.341.341,0,0,1-.08-.254.317.317,0,0,1,.08-.238.536.536,0,0,1,.262-.118c.252-.061.378-.183.378-.368a.3.3,0,0,0-.081-.223.286.286,0,0,0-.216-.083.343.343,0,0,0-.2.058,1.459,1.459,0,0,0-.169.139c-.077.07-.144.13-.2.179a.349.349,0,0,1-.231.072.326.326,0,0,1-.234-.1.321.321,0,0,1-.1-.244.593.593,0,0,1,.09-.3,1.038,1.038,0,0,1,.249-.275,1.408,1.408,0,0,1,.37-.2,1.289,1.289,0,0,1,.448-.077,1.172,1.172,0,0,1,.43.077,1.073,1.073,0,0,1,.339.209.965.965,0,0,1,.222.309.921.921,0,0,1,.08.38.834.834,0,0,1-.1.408A1.029,1.029,0,0,1,785.406,8477.3Z" transform="translate(-777.807 -8475.593)" fill="#3f3a36"/></g><path d="M725.379,8484.893a1.318,1.318,0,1,1-1.318-1.316A1.318,1.318,0,0,1,725.379,8484.893Z" transform="translate(-650.894 -8155.847)" fill="#bf2e36"/><g transform="translate(2.934 294.823)"><path d="M834.454,8504.511h-6.221l-4.191-51.794h6.64Z" transform="translate(-660.001 -8448.79)" fill="#525b6d"/><path d="M837.578,8504.511h-4.544l-2.1-51.794h6.64Z" transform="translate(-660.421 -8448.79)" fill="#6a7389"/><rect width="6.64" height="51.794" transform="translate(0 3.927)" fill="#9ba3ba"/><path d="M658.537,8504.511h-4.964l2.515-51.794h6.64Z" transform="translate(-649.612 -8448.79)" fill="#525b6d"/><path d="M756.105,8504.511h-4.544l-2.934-51.794h7.478Z" transform="translate(-655.405 -8448.79)" fill="#aeb7ce"/><path d="M760.959,8504.511h-4.545v-51.794h7.478Z" transform="translate(-655.88 -8448.79)" fill="#6a7389"/><path d="M751.522,8456.652H649.356v-8.117H788.119Z" transform="translate(-649.356 -8448.535)" fill="#aeb7ce"/><rect width="76.622" height="8.118" transform="translate(100.535)" fill="#6a7389"/></g><g transform="translate(0 288.118)"><path d="M826.322,8449.512H646.232v-8.117H829.256Z" transform="translate(-646.232 -8441.395)" fill="#4189e0"/><rect width="79.555" height="8.118" transform="translate(103.469)" fill="#1a5aa4"/></g><g transform="translate(1.677 231.127)"><path d="M752.977,8387.985H648.017v-7.28H755.91Z" transform="translate(-648.017 -8380.705)" fill="#4189e0"/><rect width="78.298" height="7.28" transform="translate(101.792)" fill="#1a5aa4"/></g><g transform="translate(97.093 5.798)"><rect width="6.441" height="283.606" fill="#4189e0"/></g><g transform="translate(103.377 5.799)"><rect width="6.442" height="283.603" fill="#1a5aa4"/></g><g transform="translate(176.582 5.799)"><rect width="6.442" height="283.603" fill="#1a5aa4"/></g><g transform="translate(0 5.798)"><rect width="6.441" height="283.606" fill="#4189e0"/></g><g transform="translate(1.258 172.879)"><path d="M751.692,8326.377H647.99l-.419-7.7H751.692Z" transform="translate(-647.57 -8318.678)" fill="#4189e0"/><rect width="78.298" height="7.699" transform="translate(102.211)" fill="#1a5aa4"/></g><g transform="translate(1.258 115.051)"><rect width="102.865" height="7.28" fill="#4189e0"/><rect width="78.298" height="7.28" transform="translate(102.211)" fill="#1a5aa4"/></g><g transform="translate(1.258 57.222)"><rect width="102.865" height="7.28" fill="#4189e0"/><rect width="78.298" height="7.28" transform="translate(102.211)" fill="#1a5aa4"/></g><rect width="12.44" height="6.204" transform="translate(14.083 103.545)" fill="#fff"/><rect width="12.44" height="6.204" transform="translate(41.531 103.545)" fill="#fff"/><rect width="13.863" height="2.829" transform="translate(24.235 215.179)" fill="#fff"/><rect width="5.057" height="2.829" transform="translate(24.235 220.225)" fill="#fff"/><rect width="3.008" height="2.829" transform="translate(19.579 220.225)" fill="#fed500"/><rect width="3.008" height="2.829" transform="translate(19.579 215.179)" fill="#fed500"/><rect width="14.199" height="1.545" transform="translate(17.009 13.77)" fill="#fcc490" opacity="0.5"/><rect width="9.311" height="1.545" transform="translate(62.266 50.507)" fill="#767687" opacity="0.7"/><rect width="5.12" height="1.545" transform="translate(64.362 53.72)" fill="#767687" opacity="0.7"/><rect width="9.311" height="1.545" transform="translate(81.682 50.507)" fill="#767687" opacity="0.7"/><rect width="5.12" height="1.545" transform="translate(83.778 53.72)" fill="#767687" opacity="0.7"/><rect width="5.727" height="3.641" transform="translate(43.5 11.675)" fill="#f9dec1" opacity="0.5"/><rect width="5.727" height="3.641" transform="translate(43.5 31.231)" fill="#f9dec1" opacity="0.5"/><rect width="5.727" height="3.641" transform="translate(43.5 50.927)" fill="#f9dec1" opacity="0.5"/><rect width="8.241" height="5.317" transform="translate(155.596 49.25)" fill="#f9dec1" opacity="0.5"/><rect width="14.199" height="1.545" transform="translate(17.009 33.327)" fill="#fcc490" opacity="0.5"/><rect width="14.199" height="1.545" transform="translate(17.009 53.022)" fill="#fcc490" opacity="0.5"/><rect width="4.348" height="4.328" transform="translate(76.517 188.152)" fill="#f9dec1" opacity="0.8" style="mix-blend-mode:screen;isolation:isolate"/><rect width="8.033" height="4.346" transform="translate(78.559 224.733)" fill="#505862" opacity="0.4"/><rect width="8.033" height="2.528" rx="1.264" transform="translate(74.229 194.283)" fill="#505862"/><line y1="43.162" transform="translate(32.467 245.143)" fill="none" stroke="#998265" stroke-miterlimit="10" stroke-width="2.75" opacity="0.5" style="mix-blend-mode:multiply;isolation:isolate"/><rect width="8.539" height="7.515" transform="translate(28.056 245.143)" fill="#bc7762"/><rect width="8.539" height="4.328" transform="translate(41.466 281.81)" fill="#505862" opacity="0.4"/><rect width="6.825" height="37.434" transform="translate(70.678 242.278)" fill="#f9dec1" opacity="0.4" style="mix-blend-mode:screen;isolation:isolate"/><path d="M680.516,8403.146h-3.044l2.668-7.516h3.044Z" transform="translate(-648.135 -8150.488)" fill="#d38a79"/><path d="M728.322,8413.053l-6.825-3.262v-7.76l6.825,3.262Z" transform="translate(-650.818 -8150.877)" fill="#f9dec1" opacity="0.4" style="mix-blend-mode:screen;isolation:isolate"/></g><g transform="translate(639.386 8250.305)" opacity="0.6" style="mix-blend-mode:multiply;isolation:isolate"><path d="M661.005,8445.03c-.072-2.745-.273-14.81-.273-14.81l7.585,0s-.9-30.479-1.268-42.993H659v42.975h-6.327V8380.5H662.8l-.256-10.439c7.176-.741,16.571-.583,16.571-.583a38.728,38.728,0,0,1,2.749-8.069q.266-.6.558-1.228c2.474.5,3.953.062,5.283-2.154a4.258,4.258,0,0,0,.923-2.581.71.71,0,0,0-.024-.17,1.118,1.118,0,0,0-1.584-.951l2.6-3.126H660.259v22.021h-7.585v-50.548h14.205c-.193-.74-.4-1.514-.621-2.326-1.364-5-4.3-9.441-8.986-10.981v5.608h-4.6v-6.222h-.186a14.482,14.482,0,0,0-2.734-.008l-.058.008h-.058v-4.814c.062-.677.68-1.061,1.731-1.433a11.583,11.583,0,0,0,1.305-.265V8264.42h5.639a13.344,13.344,0,0,0-6.874-5.672c-.106-.047-.217-.085-.329-.122a15.879,15.879,0,0,0-4.878-.812v180.51h2.934v41.835h.149q-.089.343-.149.562v11.912h8.924l3.852-47.6Z" transform="translate(-646.232 -8257.814)" fill="#8a8aa8"/><path d="M675.493,8502.139a25.509,25.509,0,0,1-3.962-.253s-.52-.513-1.23-1.245v1.077h-2.02v5.593h7.872a7.44,7.44,0,0,0,1.657,1.357,3.676,3.676,0,0,0,.554-1.437l.008-.008a1.136,1.136,0,0,0,.134-.15c.017-.03.034-.045.051-.075a.723.723,0,0,0,.085-.105l.052-.092.052-.093a1.582,1.582,0,0,0,.122-.229c0-.016.017-.03.019-.062a.588.588,0,0,1,.07-.139c0-.015.018-.046.02-.076l.055-.139c0-.015.018-.046.019-.062.039-.139.077-.278.116-.434a6.45,6.45,0,0,0,.112-.937v-.015a.762.762,0,0,1-.007-.19C679.231,8502.789,677.4,8502.1,675.493,8502.139Z" transform="translate(-647.576 -8272.612)" fill="#8a8aa8"/><path d="M661.169,8355.539h29.355l5.417-6.515c.176-.212.206-.4.117-.526l-.409-1.248c-.026-.167-.193-.276-.486-.276h-.43a2.121,2.121,0,0,0-2.282-2.615H671.2c.047,0,.09,0,.136.009a2.446,2.446,0,0,0-.49.064l-.38-.015a2.988,2.988,0,0,1,.344.021,3.153,3.153,0,0,0-1.378.755,2.527,2.527,0,0,0-.293.318l-.136-1.183,2.342-.448-1.163-6.223c-.4-2.117-.938-4.816-1.857-8.516h-7.161Z" transform="translate(-647.142 -8262.161)" fill="#8a8aa8"/></g><g transform="translate(575.802 8232.985)"><g transform="translate(29.484 229.088)"><path d="M611.636,8493.579a2.138,2.138,0,0,0,.3,1.846c.885,4.273,12.54,3.438,13.029,3.023s1.382-11.93,1.221-12.486-7.818-1.125-8.916-1.233-3.891-1.729-3.378-1.343C614.107,8483.547,611.978,8492.5,611.636,8493.579Z" transform="translate(-610.018 -8483.326)" fill="#403023"/><g transform="translate(0.308 8.998)"><path d="M611.372,8495.932s-.45,2.386,3.833,2.264c4.089-.116,6.325-4.895,6.325-4.895l6.617-.393a15.035,15.035,0,0,0,.984,3.725c1.429,1.965,5.126,5.775,5.126,5.775l7.614.135s.6,6.1-1.74,6.17-6.958.16-8.9.215-12.222-2.3-12.222-2.3-8.756.355-8.757.245C610.233,8498.6,611.372,8495.932,611.372,8495.932Z" transform="translate(-610.248 -8492.908)" fill="#4f3a2a"/></g><path d="M610.079,8509.289l13.277.015.064-2.01-5.894-1.3-7.606.072Z" transform="translate(-609.92 -8484.708)" fill="#4f3a2a"/><path d="M642.708,8503.651v.017a7.086,7.086,0,0,1-.121,1.014c-.042.168-.085.318-.126.469,0,.017-.02.051-.021.067l-.059.149a.714.714,0,0,1-.022.084.6.6,0,0,0-.075.149c0,.033-.02.049-.021.066a1.755,1.755,0,0,1-.132.248l-.056.1-.056.1a.741.741,0,0,1-.091.114c-.019.033-.037.049-.055.082a1.243,1.243,0,0,1-.145.162l-.054.048a.709.709,0,0,1-.108.113c-.018.017-.053.031-.07.047a.872.872,0,0,1-.141.1c-.017,0-.018.016-.035.015a.406.406,0,0,1-.192.092c-.018.017-.035.016-.053.031l-.155.043c-.017,0-.035.016-.069.014a.778.778,0,0,1-.2.022c-1.039.031-2.519.073-4,.115-1.463.044-2.961.085-4.032.114-.255,0-.493.007-.68.016a.846.846,0,0,1-.2.006l-.237-.012a.517.517,0,0,1-.152-.025l-.321-.017a.281.281,0,0,0-.118-.022c-.084,0-.151-.026-.236-.03l-.119-.006c-.084-.022-.168-.025-.269-.048l-.085,0a1.908,1.908,0,0,0-.32-.051.126.126,0,0,1-.067-.02,3.307,3.307,0,0,1-.371-.054c-1.937-.3-4.527-.812-6.629-1.245s-3.73-.788-3.73-.788-9.105.325-9.116.223c-.008-1.155.029-2.206.078-3.154l.02-.375c.338-5.52,1.386-7.385,1.386-7.385s.414,3.147,5.083,2.54c3.267-.424,4.433-3.592,4.754-4.849a3.47,3.47,0,0,0,.13-.521l1.582-.053,3.811-.107,1.412-.046s.063.428.169.994v.018c.013.085.043.153.055.24a.118.118,0,0,0,.014.067,1.3,1.3,0,0,0,.054.258.062.062,0,0,0,.014.052,1.412,1.412,0,0,0,.054.259l0,.033a1.858,1.858,0,0,1,.07.292.064.064,0,0,1,.014.053,2.413,2.413,0,0,1,.07.275.016.016,0,0,1,.016.018,3.913,3.913,0,0,0,.887,1.881c1.627,2.038,4.7,5.068,4.7,5.068a27.568,27.568,0,0,0,4.284.273c2.057-.046,4.041.7,4.084,2.473A.82.82,0,0,0,642.708,8503.651Z" transform="translate(-609.922 -8483.806)" fill="#683e3a"/><path d="M628.785,8494.118s-4.408.931-8.2,2.091-5.5,6.6-5.5,6.6l-5.026-1.2c.338-5.52,1.386-7.385,1.386-7.385s.376,2.381,5.045,1.774c3.267-.425,4.108-3.507,4.429-4.765l7.36-.183Z" transform="translate(-609.929 -8483.797)" fill="#403023"/></g><g transform="translate(22.35 116.682)"><path d="M626,8485.438H609.531s-4.148-81.993-5.775-110.766c-.117-2.027-1.905-3.914-1.315-3.406l1.109-7.642,20.172,1.559s.684,6.446.977,16.126C625.672,8413.96,626.486,8485.438,626,8485.438Z" transform="translate(-602.322 -8363.625)" fill="#16569b"/></g><g transform="translate(0)"><g transform="translate(4.564 229.088)"><path d="M585.1,8493.579a2.138,2.138,0,0,0,.3,1.846c.885,4.273,12.54,3.438,13.029,3.023s1.382-11.93,1.221-12.486-7.818-1.125-8.916-1.233-3.891-1.729-3.378-1.343C587.569,8483.547,585.44,8492.5,585.1,8493.579Z" transform="translate(-583.48 -8483.326)" fill="#403023"/><g transform="translate(0.308 8.998)"><path d="M584.833,8495.932s-.45,2.386,3.834,2.264c4.089-.116,6.325-4.895,6.325-4.895l6.617-.393a15.033,15.033,0,0,0,.984,3.725c1.428,1.965,5.126,5.775,5.126,5.775l7.613.135s.6,6.1-1.739,6.17-6.957.16-8.9.215-12.222-2.3-12.222-2.3-8.756.355-8.757.245C583.695,8498.6,584.833,8495.932,584.833,8495.932Z" transform="translate(-583.71 -8492.908)" fill="#4f3a2a"/></g><path d="M583.541,8509.289l13.277.015.064-2.01-5.894-1.3-7.606.072Z" transform="translate(-583.381 -8484.708)" fill="#4f3a2a"/><path d="M616.169,8503.651v.017a7.089,7.089,0,0,1-.121,1.014c-.042.168-.084.318-.127.469,0,.017-.019.051-.02.067l-.059.149a.7.7,0,0,1-.022.084.6.6,0,0,0-.075.149c0,.033-.02.049-.021.066a1.742,1.742,0,0,1-.131.248c-.02.033-.038.066-.056.1l-.056.1a.737.737,0,0,1-.091.114c-.019.033-.037.049-.055.082a1.173,1.173,0,0,1-.144.162l-.054.048a.714.714,0,0,1-.108.113c-.018.017-.053.031-.07.047a.869.869,0,0,1-.141.1c-.017,0-.018.016-.035.015a.41.41,0,0,1-.192.092c-.018.017-.035.016-.053.031l-.155.043c-.017,0-.035.016-.069.014a.781.781,0,0,1-.206.022c-1.038.031-2.518.073-4,.115-1.463.044-2.961.085-4.032.114-.255,0-.493.007-.68.016a.846.846,0,0,1-.2.006l-.238-.012a.516.516,0,0,1-.151-.025l-.321-.017a.283.283,0,0,0-.118-.022c-.085,0-.151-.026-.236-.03l-.119-.006c-.084-.022-.168-.025-.27-.048l-.084,0a1.907,1.907,0,0,0-.32-.051.126.126,0,0,1-.067-.02,3.308,3.308,0,0,1-.371-.054c-1.938-.3-4.527-.812-6.629-1.245s-3.73-.788-3.73-.788-9.106.325-9.117.223c-.008-1.155.03-2.206.079-3.154l.02-.375c.338-5.52,1.386-7.385,1.386-7.385s.414,3.147,5.083,2.54c3.267-.424,4.433-3.592,4.753-4.849a3.372,3.372,0,0,0,.129-.521l1.583-.053,3.811-.107,1.412-.046s.063.428.169.994v.018c.013.085.043.153.055.24a.118.118,0,0,0,.014.067,1.3,1.3,0,0,0,.055.258.062.062,0,0,0,.014.052,1.412,1.412,0,0,0,.055.259l0,.033a1.858,1.858,0,0,1,.07.292.064.064,0,0,1,.014.053,2.413,2.413,0,0,1,.07.275.016.016,0,0,1,.016.018,3.913,3.913,0,0,0,.887,1.881c1.627,2.038,4.7,5.068,4.7,5.068a27.568,27.568,0,0,0,4.284.273c2.057-.046,4.041.7,4.084,2.473A.822.822,0,0,0,616.169,8503.651Z" transform="translate(-583.384 -8483.806)" fill="#7c4a45"/><path d="M602.247,8494.118s-6.18,1.419-9.783,2.7a55.385,55.385,0,0,0-8.935,4.785c.338-5.52,1.386-7.385,1.386-7.385s.376,2.381,5.045,1.774c3.267-.425,4.108-3.507,4.429-4.765l7.359-.183Z" transform="translate(-583.39 -8483.797)" fill="#403023"/></g><g transform="translate(4.427 116.682)"><path d="M602.731,8485.44c.63,0,3.737-119.981,3.737-119.981l-19.879-1.834-1.542,7.643c-.562-.511-1.81,3.4-1.81,3.4l.488,110.77Z" transform="translate(-583.236 -8363.625)" fill="#177fbf"/></g><path d="M626.989,8315.3l4.349,37.612,11.478-9.125" transform="translate(-581.475 -8243.999)" fill="none" stroke="#f28f7c" stroke-linecap="round" stroke-linejoin="round" stroke-width="17.913"/><g transform="translate(32.583 53.248)"><path d="M634.8,8329.314l-9.111,1.744-4.025.771-1.26-6.729c-1.215-6.522-2.872-13.709-3.925-17.878l-1.671-6.64a6.81,6.81,0,0,1-1.491-2.254c-.347-1.129.086-2.254,3.234-2.254.054,0,.114,0,.167,0a12.159,12.159,0,0,1,6.97,2.179.059.059,0,0,1,.023.017c.158.1.312.223.466.335a.124.124,0,0,1,.031.022,18.581,18.581,0,0,1,6.076,9.937c1.8,6.617,2.678,10.9,3.26,14.021Z" transform="translate(-613.219 -8296.075)" fill="#ffe536"/><path d="M629.258,8331.25l-4.443-21.643-8.588,23.971Z" transform="translate(-613.402 -8296.899)" fill="#c67560" opacity="0.6" style="mix-blend-mode:multiply;isolation:isolate"/></g><path d="M624.432,8363.436l-38.671,17.947-1.4,16.486c.2,4.551,3.634,1.568,8.139.893l23.8-7.307c4.5-.676,8.69-1.322,8.683-5.877Z" transform="translate(-578.878 -8246.931)" fill="#177fbf"/><path d="M625.116,8372.832s.09-.157.19-.37A.437.437,0,0,1,625.116,8372.832Z" transform="translate(-581.361 -8247.481)" fill="#ffe536"/><path d="M624.355,8308.078s-.222,10.691-.484,22.978c-.334,15.5-.723,33.533-.8,35.845a2.826,2.826,0,0,1-.307.9c-.069-.568-1.789-1.567-13.253-1.48-18.69.148-26.161,14.178-26.161,14.178V8307.74c0-6.479,5.917-11.759,11.993-11.708h18.749c.275,0,.547.019.812.045a9.284,9.284,0,0,1,4.3,1.5A12.429,12.429,0,0,1,624.355,8308.078Z" transform="translate(-578.816 -8242.824)" fill="#ffe536"/><path d="M594.169,8313.135l-1.727-.424h-.463l-10.1,20.359,2.885,5.724,2.779,6.468,13.02-4.983.636-17.389Z" transform="translate(-578.727 -8243.841)" fill="#c67560" opacity="0.6" style="mix-blend-mode:multiply;isolation:isolate"/><path d="M624.2,8370.061s-1.328.722-3.5,1.856c-9.815,5.109-36.9,18.523-37.368,11.206-.036-.492-.055-1.053-.086-1.7-.019-.307-.019-.609-.019-.9-.406-12.944.271-48.926.271-48.926l3.8,1.663,1.423,1.833-4.877.776s.008,3.682,3.2,3.682c.547,0,7.828-.709,8.311-.709,2.372,0,2.982-8.631,3.131-15.728.068-3.374.031-1.888.031-3.474h23.073c0,23.565.235,19.048,2.434,19.048,0,0,.018.551.045,1.59C624.163,8344.234,624.385,8355.277,624.2,8370.061Z" transform="translate(-578.801 -8244.263)" fill="#177fbf"/><path d="M625.007,8373.354s-19.7-5.728-25.633-8.7c-8.581-4.291-8.581-19.2-9.372-23.826,0,0-.47-2.76-.917-5.511l.606.776s.009,3.682,3.2,3.682c.547,0,2.345-.709,2.828-.709,2.372,0,2.982-8.631,3.131-15.728l3.464,24.717,22.119-3.727C624.528,8348.285,624.555,8357.432,625.007,8373.354Z" transform="translate(-579.165 -8244.488)" fill="#16569b"/><g transform="translate(8.87)"><path d="M588.671,8265.427c.661,9.2,2.935,11.687,6.531,11.687,2.95,0,5.394-4.072,5.288-5.023s-1.164-6.559-2.01-6.875S588.671,8265.427,588.671,8265.427Z" transform="translate(-588.011 -8240.939)" fill="#8e3925"/><path d="M597.047,8273.585c-.584-1.173-.944,2.557-.952,2.11-.149-7.834-6.859-2-7.388-10.675-.451-7.395-.515-7.459-.714-11.052-.4-7.14,3.751-14.715,19.009-14.6,8.495.064,10.673,3.363,12.589,7.689,3.567,8.058.687,18.408.687,18.408Z" transform="translate(-587.968 -8239.371)" fill="#8e3925"/><path d="M611.433,8295.6s.116,3.014-4.794,3.014a12.1,12.1,0,0,1-7.969-3.014v-14.955l12.763-.707Z" transform="translate(-588.62 -8241.843)" fill="#ffb287"/><path d="M611.433,8292.238c-3.344.407-12.673-.789-12.673-2.986s-.09-11.944-.09-11.944l12.763.087Z" transform="translate(-588.62 -8241.683)" fill="#e5785c"/><path d="M622.128,8270.628c0,2.939-2.561,9.714-4.151,11.74-.678.865-1.614,2.828-3.767,3.48-1.958.594-3.117,1.013-3.117,2.069,0,1.148-2.411-1.077-3.233-1.077-9.782,0-14.617-10.537-14.617-17.716l3.014-9.417c0-7.859,5.216-13.507,12.807-13.45s13.7,5.234,13.7,13.094Z" transform="translate(-588.289 -8239.791)" fill="#e5785c"/><path d="M623.276,8258.949l-.1,3.121-.059,1.774-.212,6.693c-.289,8.244-2.141,15.859-12.151,15.777-9.991-.067-12.67-12.163-12.4-20l.474-6.819c0-.285,0-.574.018-.845.2-10.23,4.359-13.979,11.7-13.979,9.174,0,12.439,5.38,12.72,12.313C623.3,8257.625,623.3,8258.28,623.276,8258.949Z" transform="translate(-588.6 -8239.693)" fill="#ffb287"/><g transform="translate(23.014 30.601)"><path d="M615.235,8274.095c1.425,0,2.637-.8,2.574-1.624-.023-.3-.321-.66-.88-.4a4.778,4.778,0,0,1-1.685.258,4.68,4.68,0,0,1-1.551-.278c-.906-.271-1.192.086-1.215.384C612.415,8273.257,613.809,8274.078,615.235,8274.095Z" transform="translate(-612.476 -8271.957)" fill="#e5785c"/></g><path d="M598.033,8266.629c.208,2.929-1.281,5.444-3.325,5.619s-3.871-2.059-4.078-4.987.932-5.209,2.957-5.57S597.825,8263.7,598.033,8266.629Z" transform="translate(-588.129 -8240.729)" fill="#e5785c"/><path d="M607.732,8266.181a1.276,1.276,0,0,0,1.27,1.271,1.253,1.253,0,0,0,1.271-1.25,1.277,1.277,0,0,0-1.271-1.27A1.253,1.253,0,0,0,607.732,8266.181Z" transform="translate(-589.172 -8240.929)" fill="#422b27"/><path d="M619.676,8266.39a1.278,1.278,0,0,0,1.271,1.27,1.252,1.252,0,0,0,1.27-1.25,1.276,1.276,0,0,0-1.27-1.271A1.255,1.255,0,0,0,619.676,8266.39Z" transform="translate(-589.9 -8240.941)" fill="#422b27"/><path d="M597.242,8260.926" transform="translate(-588.533 -8240.685)" fill="#8e3925"/><path d="M602.314,8259.95" transform="translate(-588.842 -8240.625)" fill="#8e3925"/><line y1="0.115" x2="5.716" transform="translate(16.353 19.966)" fill="none" stroke="#8e3925" stroke-linecap="round" stroke-miterlimit="10" stroke-width="3.321"/><line x2="4.922" y2="0.355" transform="translate(29.163 20.18)" fill="none" stroke="#8e3925" stroke-linecap="round" stroke-miterlimit="10" stroke-width="3.321"/><path d="M595.183,8258.1a14.353,14.353,0,0,1,5.1-11.028c-1.5-1.861-2.042-4.644-1.721-4.9a14.042,14.042,0,0,1,15.477-.839c5.54,3.205,8.076,5.356,7.127,7.631.012.026.025.051.037.078l-.048-.051a5.244,5.244,0,0,1-4.454,3.335c-7.086,0-6.936-4.161-12.216-3.756-2.062.159-4.9.683-4.9,5.838a74.051,74.051,0,0,1-1.242,12.213c-1.658.107-1.681-.968-1.681-.968,0-2.962-.443-4.618-2.327-5.5Z" transform="translate(-588.355 -8239.37)" fill="#8e3925"/></g><path d="M617.069,8279.421a5.725,5.725,0,0,1-3.174.676,7.63,7.63,0,0,1-3.681-.679" transform="translate(-580.453 -8241.812)" fill="none" stroke="#e5785c" stroke-linecap="round" stroke-miterlimit="10" stroke-width="3.625"/><g transform="translate(36.384 145.922)"><path d="M617.285,8396.092l0-.063Z" transform="translate(-617.268 -8394.84)" fill="#602c34"/><path d="M617.267,8395.411v0Z" transform="translate(-617.267 -8394.802)" fill="#602c34"/><path d="M617.278,8394.763l0,.036Z" transform="translate(-617.268 -8394.763)" fill="#602c34"/><path d="M617.526,8398.219c-.009-.044-.016-.088-.024-.131C617.51,8398.131,617.518,8398.175,617.526,8398.219Z" transform="translate(-617.281 -8394.966)" fill="#602c34"/><path d="M617.4,8397.456l-.007-.06Z" transform="translate(-617.275 -8394.923)" fill="#602c34"/><path d="M617.333,8396.8c0-.031-.007-.063-.008-.095C617.327,8396.741,617.331,8396.773,617.333,8396.8Z" transform="translate(-617.271 -8394.882)" fill="#602c34"/></g><path d="M589.714,8318.358l5.343,34.895,24.721-5.61" transform="translate(-579.204 -8244.185)" fill="none" stroke="#ffb287" stroke-linecap="round" stroke-linejoin="round" stroke-width="17.913"/><path d="M596.334,8334.975l.244,1.4-7.972,4.794-.7-4.611Z" transform="translate(-579.094 -8245.197)" fill="#e5785c" opacity="0.6"/><path d="M595.352,8296.034c-13.935,0-16.956,8.289-16.826,15.256.128,6.857,2.943,24.4,2.943,24.4l15.185-3.058-2.69-21.04Z" transform="translate(-578.522 -8242.824)" fill="#ffe536"/><path d="M595.739,8296.034c6.653,0,8.2,15.617,8.116,22.618l-2.294.121-2.626-.121c.088-7-1.563-22.391-8.972-21.974,0,0,1.656-.312,2.82-.478A26.9,26.9,0,0,1,595.739,8296.034Z" transform="translate(-579.219 -8242.824)" fill="#177fbf"/><path d="M615.338,8296.029a15.629,15.629,0,0,0-2.955-.009l-.126.018v.536a1.952,1.952,0,0,1-.06.477c5.173,1.905,6.415,15.971,6.338,22.049l2.853-.221,1.973.221C623.449,8312.1,621.99,8296.029,615.338,8296.029Z" transform="translate(-580.574 -8242.819)" fill="#177fbf"/><path d="M615.319,8346.236c2.12-1.131,4.795-4.227,5.952-5.342s7.77-.28,8.048.679-1.55,2.39-1.625,2.678a5.758,5.758,0,0,1-1.033,1.562c-.315.282-.716-.141-1.446.424s-3.8,1.06-4.127,1.271a23.8,23.8,0,0,1-3.071,1.061C617.652,8348.64,615.319,8346.236,615.319,8346.236Z" transform="translate(-580.764 -8245.525)" fill="#ffb287"/><path d="M623.538,8298.255a5.956,5.956,0,0,0-2.665-.679,32.508,32.508,0,0,0-7.706.75c-.912.181-1.748.366-2.457.533a2.712,2.712,0,0,0,1.455-2.281v-.546h3.591c.275,0,.547.019.812.045A12.159,12.159,0,0,1,623.538,8298.255Z" transform="translate(-580.483 -8242.824)" fill="#c67560" opacity="0.6" style="mix-blend-mode:multiply;isolation:isolate"/></g><path d="M637.952,8333.329c-.583-1.556-2.646-1.747-4.111-.405-2.974,2.726,3.256,6.961,3.744,8.549l-6.23,3.42s4.683-3.176,4.642-3.054,3.665-7.37,3.665-7.37Z" transform="translate(-581.742 -8245.018)" fill="#9fb9d1"/><path d="M661.326,8336.69l-.444-1.358c-.028-.181-.209-.3-.526-.3H633a2.369,2.369,0,0,0-1.6.751l-21.118,25.4c-.178.216-.219.407-.144.545l.475,1.4,1.455-1.2h25.92a2.374,2.374,0,0,0,1.6-.751l20.4-24.534-.084.325Z" transform="translate(-580.446 -8245.201)" fill="#d64556"/><path d="M635.8,8335.031l.809,1.465H638.8l-.321-1.465Z" transform="translate(-582.013 -8245.201)" fill="#7a1b38"/><path d="M639.457,8363.491H610.148l22.368-26.9h29.309Z" transform="translate(-580.449 -8245.296)" fill="#962643"/><path d="M659.622,8335.045a3.454,3.454,0,0,1-.361.831c-.66,1.119-2.4,2.492-3.5,3.952-7.369,9.813-13.722,19.463-14.454,23.617,0,0-14.538-.245-22.112,1.222,0,0,.529-9.2,14.376-25.737,1.31-1.563,2.4-2.277,2.849-3.865a2.186,2.186,0,0,0-2.2-2.976l22.681.9C658.653,8332.986,660.081,8333.408,659.622,8335.045Z" transform="translate(-581 -8245.021)" fill="#9fb9d1"/><path d="M660.62,8334.98a3.474,3.474,0,0,1-.362.831c-.659,1.118-2.4,2.491-3.5,3.952a79.815,79.815,0,0,0-6.274,9.783c-1.075,1.97-1.994,3.855-2.766,5.6a41.894,41.894,0,0,0-2.971,8.721s-14.538-.244-22.111,1.223c0,0-1.916-9.689,11.933-26.226,1.31-1.563,2.4-2.277,2.849-3.865a2.173,2.173,0,0,0-1.92-2.966l22.4.889C659.653,8332.923,661.079,8333.344,660.62,8334.98Z" transform="translate(-581.204 -8245.019)" fill="#c2d8ef"/><path d="M652.041,8350.605c-1.075,1.97-1.994,3.855-2.766,5.6a4.327,4.327,0,0,1-.567-.357c-1.466-1.1.406-4.153.406-4.153a8.618,8.618,0,0,1-.366-1.876c-.039-.856,1.016-.2,2.038.366C650.786,8350.186,651.318,8350.362,652.041,8350.605Z" transform="translate(-582.765 -8246.077)" fill="#9fb9d1"/><path d="M655.463,8349.674c-.9.489-3.339.53-5.375,0" transform="translate(-582.883 -8246.093)" fill="none" stroke="#ffa68a" stroke-linecap="round" stroke-linejoin="round" stroke-width="5.11"/><path d="M654.315,8349.447c-1.217-.105-3.42-.366-4.072.447s-2.979,4.418-.488,4.948c2.768.591,4.4.144,5.864-2.3a4.591,4.591,0,0,0,1-2.788C656.6,8348.872,655.564,8349.557,654.315,8349.447Z" transform="translate(-582.794 -8246.071)" fill="#ffa68a"/><path d="M661.442,8334.979c-1.617.118-22.287.059-23.205.021a2.186,2.186,0,0,0-2.2-2.976H659A2.294,2.294,0,0,1,661.442,8334.979Z" transform="translate(-582.027 -8245.018)" fill="#def1ff"/><path d="M629.062,8486.593h-8.223l-3.344-.17-6.521-91.621,15.527-12.23C627.474,8415.222,629.546,8486.593,629.062,8486.593Z" transform="translate(-580.499 -8248.098)" fill="#177fbf"/><path d="M609.741,8401.924l4.517-8.13-7,2.823Z" transform="translate(-580.273 -8248.782)" fill="#16569b"/><path d="M623.366,8258v-.1c-.026-7.369-3.163-13.234-12.738-13.234-7.345,0-10.5,5.1-11.068,15.715.125-1.506,2.751-2.049,6.211-2.6,1.533,1.741,9.448,6.135,17.421,4.253l.059.034.057-1.807.042-1.314C623.362,8258.629,623.366,8258.313,623.366,8258Z" transform="translate(-579.804 -8239.693)" fill="#c67560" opacity="0.6" style="mix-blend-mode:multiply;isolation:isolate"/><path d="M604.852,8326.575v8.808h13.776v-8.808" transform="translate(-580.126 -8244.686)" fill="#27a3e0" opacity="0.5"/></g><g transform="translate(583.702 8246.671)"><path d="M588.289,8263.317a1.354,1.354,0,0,1-.982-2.287c.274-.29,6.931-7.085,24.922-7.085,7.865,0,10.2.732,10.953,3.161.744,2.41-.744,4.46-.677,4.064a4.383,4.383,0,0,0-.4-2.991c-.01-.013-.769-1.524-9.881-1.524-16.839,0-22.9,6.178-22.956,6.239A1.35,1.35,0,0,1,588.289,8263.317Z" transform="translate(-586.934 -8253.945)" fill="#632c42"/></g><path d="M623.158,8253.633a3.8,3.8,0,0,0-2.638-.57c-.487,0-1.07.028-1.775.051-.944.031-2.114.063-3.581.063a63.756,63.756,0,0,0-17.864,2.485c-5.222,1.575-9.156,4.235-10.511,6.553-.407.3-.868-2.605-1.107-5.624-.076-.993-.13-2-.148-2.912-.014-.2-.014-.4-.014-.592a17.081,17.081,0,0,1,.538-4.265c1.346-5.094,5.212-9.552,12.014-11.671q1.159-.366,2.426-.633c.47-.1.953-.188,1.45-.266.036,0,.072-.023.095-.023.976-.148,1.992-.257,3.072-.334l.18-.014c.407-.021.8-.035,1.188-.035a18.852,18.852,0,0,1,6.373.957c.13.045.257.086.384.144a15.83,15.83,0,0,1,9.074,8.6C624.153,8249.685,624,8253.564,623.158,8253.633Z" transform="translate(-3.146 -6.171)" fill="#ffdc2b"/><path d="M621.493,8253.066c-.108.353-.257.556-.447.569a2.534,2.534,0,0,0-1.328-.519c-1.133-.149-2.918.062-6.666.062l-3.641-.1c.9-.071,1.061-4.2-.9-8.613a17.043,17.043,0,0,0-7.042-7.941c.47-.1.953-.188,1.45-.266.036,0,.072-.022.095-.022.976-.148,1.992-.257,3.072-.334a18.016,18.016,0,0,1,4.652.907c.13.046.262.087.389.145a15.84,15.84,0,0,1,9.074,8.6C621.633,8248.771,621.859,8251.834,621.493,8253.066Z" transform="translate(-4.118 -6.175)" fill="#fff" opacity="0.6"/><path d="M621.515,8245.548a15.824,15.824,0,0,0-9.075-8.6,3.721,3.721,0,0,0-.385-.143,18.891,18.891,0,0,0-6.372-.957c-.392,0-.782.014-1.186.037-.848.056-1.653.141-2.438.241,3.375.608,6.45,5,7.817,8.1,1.959,4.407,1.752,8.779.852,8.853l3.639.1c5.546,0,6.8-.459,7.993.459C623.2,8253.566,623.354,8249.685,621.515,8245.548Z" transform="translate(-4.154 -6.171)" fill="#ffdc2b"/><path d="M586.543,8262.775c1.155-2.578,5.567-5.466,10.791-7.043a63.813,63.813,0,0,1,17.864-2.485c5.546,0,6.795-.46,7.993.46.845-.068.994-3.95-.844-8.088a15.825,15.825,0,0,0-9.075-8.6c4.013,2.479,5.755,10.33,5.849,12.4.038.827-4.572.112-18.18,3.443C590.1,8255.511,584.284,8259.538,586.543,8262.775Z" transform="translate(-3.179 -6.243)" fill="#f7c52c"/><path d="M633.024,8252.418s-7.019,1.59-9.259,2.182a6.3,6.3,0,0,0-2.146-.76,32.316,32.316,0,0,0-6.888-.6,42.455,42.455,0,0,0-7.566,1.07c-3.546.74-6.7,1.6-6.7,1.6l-.267-1.807s1.988-1.369,6.965-2.552a69.919,69.919,0,0,1,14.454-1.672c.836-.022,1.7-.03,2.6-.03,5.89,0,8.311.393,8.753.961C633.168,8251.072,633.024,8252.418,633.024,8252.418Z" transform="translate(-4.041 -7.025)" fill="#ffe536"/><path d="M622.071,8249.89v3.952a32.316,32.316,0,0,0-6.888-.6,42.455,42.455,0,0,0-7.566,1.07v-2.755A69.919,69.919,0,0,1,622.071,8249.89Z" transform="translate(-4.493 -7.027)" fill="#fff" opacity="0.5"/><path d="M624.221,8251.3c-17.842,0-23.939,4.742-23.939,4.742a89.954,89.954,0,0,1,14.454-1.354c7.227,0,9.034,1.354,9.034,1.354C628.06,8254.914,642.063,8251.3,624.221,8251.3Z" transform="translate(-4.046 -7.113)" fill="#db9314"/><rect width="13.776" height="2.746" transform="translate(600.527 8313.068)" fill="#16569b"/><rect width="5.872" height="4.553" rx="1.889" transform="translate(594.994 8302.849)" fill="#473f3c"/><rect width="5.872" height="4.553" rx="1.889" transform="translate(613.287 8302.849)" fill="#473f3c"/><rect width="3.613" height="1.635" rx="0.817" transform="translate(596.801 8304.082)" fill="#177fbf"/><rect width="3.613" height="1.635" rx="0.817" transform="translate(615.037 8304.082)" fill="#177fbf"/><path d="M652.672,8168.963v17.162l-6.441.75v-17.163Z" transform="translate(-6.846 -2.095)" fill="#75d9f1" opacity="0.5"/><path d="M756.067,8156.972v17.162l-6.441.745v-17.162Z" transform="translate(-13.147 -1.365)" fill="#75d9f1" opacity="0.5"/><path d="M652.672,8159.985v6.321l-6.441.75v-6.321Z" transform="translate(-6.846 -1.548)" fill="#75d9f1" opacity="0.5"/><path d="M756.067,8147.993v6.321l-6.441.745v-6.321Z" transform="translate(-13.147 -0.817)" fill="#75d9f1" opacity="0.5"/></g></svg>