<svg xmlns="http://www.w3.org/2000/svg" width="382.741" height="318.386" viewBox="0 0 382.741 318.386"><g transform="translate(-180 -3017.998)"><path d="M79.184,8946.811H421.332c11.21,0,20.3,11.017,20.3,24.6v269.181c0,13.588-9.088,24.6-20.3,24.6H79.184c-11.21,0-20.3-11.015-20.3-24.6V8971.413C58.888,8957.827,67.975,8946.811,79.184,8946.811Z" transform="translate(121.112 -5928.813)" fill="#97c2e8" opacity="0.25" style="isolation:isolate"/><g transform="translate(303.095 3033.098)"><g transform="translate(87.61 21.793)"><path d="M287.37,9008.758v83.2l-22.713-13.114v-83.2Z" transform="translate(-264.657 -8982.531)" fill="#a2a183"/><path d="M310.084,8995.951l-22.713,13.113-22.713-13.113,22.713-13.113Z" transform="translate(-264.657 -8982.838)" fill="#deda9a"/><path d="M286.838,9008.758v83.2l22.713-13.114v-83.2Z" transform="translate(-264.125 -8982.531)" fill="#c1c78d"/></g><g transform="translate(58.407 50.49)"><path d="M258.851,9036.784v71.147l-22.713-13.113V9023.67Z" transform="translate(-236.138 -9010.556)" fill="#a2a183"/><path d="M281.565,9023.978l-22.713,13.114-22.713-13.114,22.713-13.113Z" transform="translate(-236.138 -9010.864)" fill="#deda9a"/><path d="M258.319,9036.784v71.147l22.713-13.113V9023.67Z" transform="translate(-235.606 -9010.556)" fill="#c1c78d"/></g><g transform="translate(29.203 75.143)"><path d="M230.332,9060.858V9124l-22.713-13.113v-63.139Z" transform="translate(-207.619 -9034.631)" fill="#a2a183"/><path d="M253.045,9048.053l-22.713,13.113-22.713-13.113,22.713-13.113Z" transform="translate(-207.619 -9034.939)" fill="#deda9a"/><path d="M229.8,9060.858V9124l22.713-13.113v-63.139Z" transform="translate(-207.087 -9034.631)" fill="#c1c78d"/></g><g transform="translate(0 107.29)"><path d="M201.813,9092.252v47.636L179.1,9126.773V9079.14Z" transform="translate(-179.099 -9066.025)" fill="#a2a183"/><path d="M224.526,9079.447l-22.713,13.111L179.1,9079.447l22.713-13.115Z" transform="translate(-179.099 -9066.332)" fill="#deda9a"/><path d="M201.281,9092.252v47.636l22.713-13.114V9079.14Z" transform="translate(-178.567 -9066.025)" fill="#c1c78d"/></g><path d="M333.792,9069.835l-9.1,1.629,1.727,1-132.872,76.714,2.506,1.447,132.872-76.714,1.727,1Z" transform="translate(-178.753 -8958.958)" fill="#1a323e"/><g transform="translate(6.291)"><path d="M214.528,8999.85l2.638,1.191,1.31,2.944-.547,3.382-1.61,1.9h-3.408l-1.375-8.12Z" transform="translate(-184.613 -8960.637)" fill="#fceae2"/><path d="M225.971,9047.879c-.953,2.38-1.044,5.091.97,6.956,2.518.245,4.526-.062,5.734-1.236,3.761-.1,7.266-.382,9.327-1.7,2.422-.988,3.726-3.029,4.546-5.527a2.335,2.335,0,0,0-2.773-2.586l-9.092.856-4.185-4.478-4.95,5.447Z" transform="translate(-184.282 -8959.67)"/><path d="M186.188,9070.917a20.366,20.366,0,0,0-.761,8.616,10.881,10.881,0,0,0,5.591,1.15l2.6-1.249,3.622-.854c3.139-1.384,3.982-5.512.18-5.98l-2.875-.1-2.2-5.54-4.391.254Z" transform="translate(-185.243 -8959.027)"/><path d="M185.389,9072.122c2.459,2.37,7.738,2.638,9.156,1.56l3.695-17.139,2.971-13.775,3.022-19.962.191-1.26-3.546-.979-9.574-2.646c-.2,2.445-.479,5.2-.741,8.2a136.6,136.6,0,0,0-.6,15.2C187.1,9053.067,185.276,9060.869,185.389,9072.122Z" transform="translate(-185.24 -8960.205)" fill="#253545"/><path d="M195.443,9026.186c2.194,4.63,13.373,2.779,26.023,3.039-.487,6.685,1.208,13.821,4.343,21.252,4.191,2.279,8.414-.479,9.727-4.525-1.227-6.038-3.592-15.5-4.177-24.354a4.7,4.7,0,0,0-3.19-4.17l-21.8-3.509C192.169,9016.1,202.169,9025.152,195.443,9026.186Z" transform="translate(-184.999 -8960.301)" fill="#253545"/><path d="M191.011,9006.5c.062,5.431-2.072,13.746-2.072,13.746s.324,2.412,4.156,5.223a25.465,25.465,0,0,0,4.353,2.523c6.46,3.009,15.192,2.289,19.443-3.8a13.8,13.8,0,0,0,2.157-5.146s-4.474-8.181-4.146-14.614c.4-7.875.713-11.9-1.529-15.71,0,0-7.059-7.181-10.725-9.3-6.729-3.9-10.656-2.042-10.656-2.042s-4.411,2.454-4.362,9.709C187.657,8991.238,190.95,9001.069,191.011,9006.5Z" transform="translate(-185.186 -8961.187)" fill="#334c61"/><path d="M192.968,9024.93a25.336,25.336,0,0,0,4.353,2.523c6.46,3.01,15.192,2.289,19.443-3.8l-.353-.672c-6.219-6.709-4.782-13.238-2.088-23.531l-11.138-.092A69.009,69.009,0,0,0,192.968,9024.93Z" transform="translate(-185.058 -8960.649)" fill="#253545" opacity="0.3" style="mix-blend-mode:multiply;isolation:isolate"/><path d="M201.19,9028.835l-1.909,6.655-1.5,2.445-2.756,1.81h-2.782l-1.391-.572-1.854-.818c-.951-.6-.382-1.2.328-.982-.243-.665-.113-.96.584-.647l1.353.948,2.345-.546a20.953,20.953,0,0,1,.982-4.119,14.244,14.244,0,0,1,2.073-2.862l.872-4.31,4.31,1.091Z" transform="translate(-185.165 -8960.014)" fill="#fceae2"/><path d="M214.283,8999.735,201.8,9030.808c-1.06,2.032-5.969.549-7.2-2.436l9.085-30.551c2.209-8.755,5.481-11.21,8.018-10.228C214.612,8990.285,216.454,8993.976,214.283,8999.735Z" transform="translate(-185.019 -8960.936)" fill="#334c61"/><path d="M205.055,8978.858l3.162-1.858c1.445-.762,2.006-3.5,2.232-5.507l.474-4.214-.713-2.681-9.833-.535-2.515,6.565,1.167,6.537Z" transform="translate(-184.941 -8961.495)" fill="#fceae2"/><path d="M206.245,8981.735l-.02-5.457-6.2-2.354-2.9,3.229C198.859,8980.011,202.2,8981.23,206.245,8981.735Z" transform="translate(-184.959 -8961.259)" fill="#fceae2"/><path d="M208.519,8984.13l-1.765-2.958c-4.22-.666-8.275-2.976-8.982-4.721l-2.329.831,4.342,4.534Z" transform="translate(-184.999 -8961.198)" fill="#c8c8c8"/><path d="M211.96,8987.65s-9.417-2.1-14.989-5.979c-2.822-1.968-3.109-3.742-3.109-3.742.159-.624,1.677-1.426,2.785-1.347.607,3.349,8.577,6.185,11.691,6.9Z" transform="translate(-185.037 -8961.195)" fill="#253545"/><path d="M210.873,8968.028l-2.531,2.018a2.136,2.136,0,0,0-.774,1.316l-.349,2.09-1.386,1.049-.068,2.123a5.292,5.292,0,0,1-6.218.872c-2.667-1.242-2.2-1.7-2.659-6.586-.292-3.074-.082-6.055,2.976-8.179,2.783-1.935,8.358-1.361,10.346.839C211.246,8964.717,211.89,8966.737,210.873,8968.028Z" transform="translate(-184.966 -8961.556)"/><path d="M205.311,8972.687a2.794,2.794,0,0,0-.387,1.424,2.138,2.138,0,0,0,.259,1.312.913.913,0,0,0,1.18.344,4.54,4.54,0,0,0,.984-2.861C207.2,8971.821,205.832,8971.906,205.311,8972.687Z" transform="translate(-184.772 -8961.304)" fill="#fceae2"/></g></g><path d="M64.344,26.3a8.308,8.308,0,0,1-1.281,4.2,7.733,7.733,0,0,1-3.289,2.82,11.2,11.2,0,0,1-4.836,1,8.934,8.934,0,0,1-7.062-2.922Q45.3,28.469,45.3,23.141V22.016a13.771,13.771,0,0,1,1.164-5.852,8.82,8.82,0,0,1,3.352-3.875,9.351,9.351,0,0,1,5.063-1.367,9.806,9.806,0,0,1,6.656,2.18,8.612,8.612,0,0,1,2.859,6.008H58.922a4.075,4.075,0,0,0-1.047-2.984,4.306,4.306,0,0,0-3-.906,3.276,3.276,0,0,0-3,1.531,9.841,9.841,0,0,0-1,4.891V23.25a10.89,10.89,0,0,0,.914,5.2,3.345,3.345,0,0,0,3.148,1.563,4.211,4.211,0,0,0,2.891-.891A3.78,3.78,0,0,0,58.891,26.3ZM76.219,34a5.946,5.946,0,0,1-.5-1.516,4.9,4.9,0,0,1-4.062,1.828,6,6,0,0,1-4.062-1.445,4.6,4.6,0,0,1-1.672-3.633,4.728,4.728,0,0,1,2.031-4.156,10.348,10.348,0,0,1,5.906-1.406h1.625v-.891q0-2.328-2.016-2.328A1.644,1.644,0,0,0,71.594,22.3H66.328a4.728,4.728,0,0,1,2.086-3.984,8.759,8.759,0,0,1,5.32-1.531,7.686,7.686,0,0,1,5.109,1.578,5.487,5.487,0,0,1,1.922,4.328v7.484a7.665,7.665,0,0,0,.719,3.563V34Zm-3.3-3.437a2.937,2.937,0,0,0,1.633-.422,2.644,2.644,0,0,0,.93-.953v-2.7H73.953q-2.75,0-2.75,2.469a1.507,1.507,0,0,0,.484,1.164A1.753,1.753,0,0,0,72.922,30.563Zm26.453-4.891A10.2,10.2,0,0,1,97.6,31.961a5.686,5.686,0,0,1-4.789,2.352,4.874,4.874,0,0,1-3.828-1.7V40.5H83.719V17.094h4.922l.156,1.563a4.874,4.874,0,0,1,3.984-1.875,5.732,5.732,0,0,1,4.859,2.3,10.321,10.321,0,0,1,1.734,6.336Zm-5.266-.328q0-4.5-2.625-4.5a2.478,2.478,0,0,0-2.5,1.344v6.656a2.559,2.559,0,0,0,2.531,1.406q2.516,0,2.594-4.344ZM107.25,34h-5.281V17.094h5.281Zm-5.594-21.266a2.35,2.35,0,0,1,.813-1.844,3.455,3.455,0,0,1,4.219,0,2.35,2.35,0,0,1,.813,1.844,2.35,2.35,0,0,1-.812,1.844,3.455,3.455,0,0,1-4.219,0A2.35,2.35,0,0,1,101.656,12.734Zm14.969.156v4.2h2.781V20.75h-2.781v7.734a1.975,1.975,0,0,0,.344,1.328,1.844,1.844,0,0,0,1.359.375,7.725,7.725,0,0,0,1.313-.094v3.766a9.718,9.718,0,0,1-2.969.453,5.516,5.516,0,0,1-4.016-1.281,5.252,5.252,0,0,1-1.3-3.891V20.75H109.2V17.094h2.156v-4.2ZM131,34a5.945,5.945,0,0,1-.5-1.516,4.9,4.9,0,0,1-4.062,1.828,6,6,0,0,1-4.062-1.445,4.6,4.6,0,0,1-1.672-3.633,4.728,4.728,0,0,1,2.031-4.156,10.348,10.348,0,0,1,5.906-1.406h1.625v-.891q0-2.328-2.016-2.328a1.644,1.644,0,0,0-1.875,1.844h-5.266a4.728,4.728,0,0,1,2.086-3.984,8.759,8.759,0,0,1,5.32-1.531,7.686,7.686,0,0,1,5.109,1.578,5.487,5.487,0,0,1,1.922,4.328v7.484a7.665,7.665,0,0,0,.719,3.563V34Zm-3.3-3.437a2.937,2.937,0,0,0,1.633-.422,2.644,2.644,0,0,0,.93-.953v-2.7h-1.531q-2.75,0-2.75,2.469a1.507,1.507,0,0,0,.484,1.164A1.753,1.753,0,0,0,127.7,30.563ZM144.016,34h-5.281V10h5.281Z" transform="translate(285 3242.669)" fill="#12263f"/></g></svg>