<svg xmlns="http://www.w3.org/2000/svg" width="212.288" height="214.511" viewBox="0 0 212.288 214.511">
  <g id="Grupo_64820" data-name="Grupo 64820" transform="translate(-643.909 -4661.217)">
    <rect id="Rectángulo_19304" data-name="Rectángulo 19304" width="212.288" height="214.511" transform="translate(643.909 4661.217)" fill="none"/>
    <g id="Grupo_64819" data-name="Grupo 64819">
      <path id="Trazado_141433" data-name="Trazado 141433" d="M826.1,4689.8H731.7a2.63,2.63,0,0,0-2.622,2.622v70.806h57.693v-31.469h41.96v-39.337A2.631,2.631,0,0,0,826.1,4689.8Z" fill="#d3a06c"/>
      <path id="Trazado_141434" data-name="Trazado 141434" d="M789.39,4689.8v20.979l-5.245-5.245-5.245,5.245-5.245-5.245-5.245,5.245V4689.8Z" fill="#fcd770"/>
      <path id="Trazado_141435" data-name="Trazado 141435" d="M786.767,4763.228v-31.469h41.96v44.581a2.631,2.631,0,0,1-2.623,2.623h-7.867v-15.735Z" fill="#e6e9ed"/>
      <path id="Trazado_141436" data-name="Trazado 141436" d="M702.849,4747.494v15.734h-7.867a7.867,7.867,0,0,1,0-15.734Z" fill="#37bc9b"/>
      <path id="Trazado_141437" data-name="Trazado 141437" d="M694.982,4763.228H818.237v73.429h-10.49v-62.939H687.114v-18.357A7.857,7.857,0,0,0,694.982,4763.228Z" fill="#5cd6b3"/>
      <path id="Trazado_141438" data-name="Trazado 141438" d="M807.747,4836.657v10.49H671.38v-73.429H807.747Z" fill="#37bc9b"/>
      <path id="Trazado_141439" data-name="Trazado 141439" d="M694.982,4784.208h44.581a26.225,26.225,0,0,0,0,52.449H694.982a13.117,13.117,0,0,0-13.113-13.112V4797.32A13.117,13.117,0,0,0,694.982,4784.208Z" fill="#5cd6b3"/>
      <path id="Trazado_141440" data-name="Trazado 141440" d="M797.257,4797.32v26.225a13.117,13.117,0,0,0-13.112,13.112H739.563a26.225,26.225,0,1,0,0-52.449h44.582A13.117,13.117,0,0,0,797.257,4797.32Z" fill="#5cd6b3"/>
      <g id="Grupo_64818" data-name="Grupo 64818">
        <path id="Trazado_141441" data-name="Trazado 141441" d="M694.982,4836.657H681.869v-13.112A13.117,13.117,0,0,1,694.982,4836.657Z" fill="#e6e9ed"/>
        <path id="Trazado_141442" data-name="Trazado 141442" d="M681.869,4784.208h13.113a13.117,13.117,0,0,1-13.113,13.112Z" fill="#e6e9ed"/>
        <path id="Trazado_141443" data-name="Trazado 141443" d="M797.257,4823.545v13.112H784.145A13.117,13.117,0,0,1,797.257,4823.545Z" fill="#e6e9ed"/>
        <path id="Trazado_141444" data-name="Trazado 141444" d="M797.257,4784.208v13.112a13.117,13.117,0,0,1-13.112-13.112Z" fill="#e6e9ed"/>
      </g>
      <circle id="Elipse_4901" data-name="Elipse 4901" cx="26.224" cy="26.224" r="26.224" transform="translate(713.339 4784.208)" fill="#fcd770"/>
      <path id="Trazado_141445" data-name="Trazado 141445" d="M742.186,4792.075h-5.245v5.245H731.7v15.735h10.49v5.245H731.7v5.245h5.245v5.244h5.245v-5.244h5.245V4807.81h-10.49v-5.245h10.49v-5.245h-5.245Z" fill="#383a01"/>
      <path id="Trazado_141446" data-name="Trazado 141446" d="M799.88,4839.279v-57.694H679.247v57.694Zm-12.74-5.245a10.472,10.472,0,0,1,7.495-7.5v7.5Zm7.495-39.709a10.471,10.471,0,0,1-7.495-7.5h7.495Zm-12.876-7.5a15.75,15.75,0,0,0,12.876,12.876v21.455a15.75,15.75,0,0,0-12.876,12.876H756.095a28.779,28.779,0,0,0,0-47.207Zm-42.2,47.2a23.6,23.6,0,1,1,23.6-23.6A23.628,23.628,0,0,1,739.563,4834.034Zm-47.576-47.2a10.467,10.467,0,0,1-7.495,7.5v-7.5Zm-7.495,39.709a10.469,10.469,0,0,1,7.495,7.5h-7.495Zm12.876,7.5a15.753,15.753,0,0,0-12.876-12.876v-21.452a15.753,15.753,0,0,0,12.876-12.876h25.663a28.776,28.776,0,0,0,0,47.2Z" fill="#383a01"/>
      <path id="Trazado_141447" data-name="Trazado 141447" d="M826.1,4687.177H731.7a5.25,5.25,0,0,0-5.245,5.245v68.184h-20.98v-15.735H694.982a10.5,10.5,0,0,0-10.49,10.49V4771.1H668.757v78.673H810.369v-10.49h10.49v-57.694H826.1a5.25,5.25,0,0,0,5.245-5.245v-83.918A5.25,5.25,0,0,0,826.1,4687.177Zm-55.071,5.245h15.734v12.027l-2.622-2.623-5.245,5.245-5.245-5.245-2.622,2.623Zm-39.337,0h34.092v24.688l7.867-7.868,5.245,5.245,5.245-5.245,7.867,7.868v-24.688H826.1v36.714H784.145v31.47H731.7Zm-36.714,57.694h5.245v10.49h-5.245a5.245,5.245,0,1,1,0-10.49Zm110.143,94.408H674V4776.34H805.125Zm10.489-10.49h-5.245V4771.1H689.737v-6.7a10.384,10.384,0,0,0,5.245,1.458H815.614Zm5.245-57.694v-15.734H789.39v-26.225H826.1v41.959Z" fill="#383a01"/>
      <path id="Trazado_141448" data-name="Trazado 141448" d="M794.635,4750.116h26.224v5.245H794.635Z" fill="#383a01"/>
      <path id="Trazado_141449" data-name="Trazado 141449" d="M794.635,4739.626h5.245v5.245h-5.245Z" fill="#383a01"/>
      <path id="Trazado_141450" data-name="Trazado 141450" d="M805.125,4739.626h15.734v5.245H805.125Z" fill="#383a01"/>
    </g>
  </g>
</svg>
