<svg xmlns="http://www.w3.org/2000/svg" width="106.584" height="106.587" viewBox="0 0 106.584 106.587"><g transform="translate(-375.437 -8492.908)"><path d="M428.728,8492.908q2.619,0,5.224.257t5.174.768q2.568.51,5.073,1.271t4.924,1.762q2.417,1,4.728,2.235t4.486,2.688q2.175,1.456,4.2,3.116t3.875,3.513q1.851,1.852,3.512,3.875t3.115,4.2q1.455,2.177,2.689,4.486t2.236,4.728q1,2.418,1.762,4.924T481,8535.8q.51,2.569.767,5.173t.257,5.225q0,2.618-.257,5.224T481,8556.6q-.512,2.568-1.271,5.072t-1.762,4.924q-1,2.418-2.236,4.729t-2.689,4.485q-1.457,2.177-3.115,4.2t-3.512,3.875q-1.851,1.852-3.875,3.513t-4.2,3.115q-2.178,1.456-4.486,2.689t-4.728,2.235q-2.418,1-4.924,1.763t-5.073,1.271q-2.568.511-5.174.769t-5.224.257q-2.617,0-5.224-.257t-5.173-.769q-2.566-.51-5.073-1.271t-4.924-1.763q-2.418-1-4.727-2.235t-4.486-2.689q-2.176-1.453-4.2-3.115t-3.875-3.513q-1.851-1.852-3.512-3.875t-3.116-4.2q-1.455-2.177-2.688-4.485t-2.236-4.729q-1-2.417-1.762-4.924t-1.271-5.072q-.51-2.568-.767-5.174t-.257-5.224q0-2.618.257-5.225t.767-5.173q.51-2.566,1.271-5.072t1.762-4.924q1-2.418,2.236-4.728t2.688-4.486q1.455-2.177,3.116-4.2t3.512-3.875q1.853-1.852,3.875-3.513t4.2-3.116q2.176-1.453,4.486-2.688t4.727-2.235q2.419-1,4.924-1.762t5.073-1.271q2.568-.513,5.173-.768T428.728,8492.908Z" fill="#a0a603"/><circle cx="50.059" cy="50.059" r="50.059" transform="translate(378.669 8496.142)" fill="#fff"/><path d="M428.728,8500.663A45.538,45.538,0,1,1,383.19,8546.2a45.538,45.538,0,0,1,45.538-45.538Z" fill="#aaaf31"/><path d="M413.074,8527.012a1.814,1.814,0,1,1,1.814-1.813H416.7a3.628,3.628,0,1,0-3.628,3.628,1.814,1.814,0,1,1-1.814,1.813h-1.815a3.628,3.628,0,1,0,3.629-3.628Z" fill="#fff"/><rect width="1.814" height="2.721" transform="translate(412.167 8519.755)" fill="#fff"/><rect width="1.814" height="2.721" transform="translate(412.167 8533.362)" fill="#fff"/><path d="M401.281,8566.02v5.443H417.61v-5.443Zm14.514,3.629H403.1v-1.814h12.7Z" fill="#fff"/><path d="M401.281,8562.391v5.443H417.61v-5.443Zm14.514,3.629H403.1v-1.814h12.7Z" fill="#fff"/><path d="M401.281,8558.762v5.443H417.61v-5.443Zm14.514,3.629H403.1v-1.813h12.7Z" fill="#fff"/><path d="M424.867,8566.02v1.814h9.072v1.814h-12.7v-1.814h1.814v-1.814h-3.629v5.443h16.329v-5.443Z" fill="#fff"/><path d="M419.424,8562.391v4.536h1.814v-2.722h12.7v2.722h1.814v-4.536Z" fill="#fff"/><path d="M419.424,8558.762v5.443h16.329v-5.443Zm14.514,3.629h-12.7v-1.813h12.7Z" fill="#fff"/><path d="M419.424,8555.134v5.443h16.329v-5.443Zm14.514,3.628h-12.7v-1.813h12.7Z" fill="#fff"/><path d="M419.424,8551.5v5.443h16.329V8551.5Zm14.514,3.629h-12.7v-1.814h12.7Z" fill="#fff"/><path d="M437.567,8566.02v5.443H453.9v-5.443Zm14.515,3.629h-12.7v-1.814h12.7Z" fill="#fff"/><path d="M437.567,8562.391v5.443H453.9v-5.443Zm14.515,3.629h-12.7v-1.814h12.7Z" fill="#fff"/><path d="M437.567,8558.762v5.443H453.9v-5.443Zm14.515,3.629h-12.7v-1.813h12.7Z" fill="#fff"/><path d="M437.567,8555.134v5.443H453.9v-5.443Zm14.515,3.628h-12.7v-1.813h12.7Z" fill="#fff"/><path d="M450.267,8551.5v1.814h1.814v1.814h-12.7v-1.814h9.072V8551.5H437.567v5.443H453.9V8551.5Z" fill="#fff"/><path d="M437.567,8547.876v4.536h1.814v-2.722h12.7v2.722H453.9v-4.536Z" fill="#fff"/><path d="M437.567,8544.248v5.443H453.9v-5.443Zm14.515,3.628h-12.7v-1.814h12.7Z" fill="#fff"/><path d="M443.917,8515.219a2.722,2.722,0,0,0,0,5.443h4.16l-13.362,13.363-7.186-4.491-25.9,20.345,1.122,1.427,24.9-19.558,7.329,4.58,17.481-17.481h-8.54a.907.907,0,1,1,0-1.813H455.71v11.793a.907.907,0,1,1-1.814,0v-7.633l-18.3,18.3-8.1-4.5-23.155,18.522,1.134,1.417,22.2-17.763,8.231,4.573,16.171-16.172v3.253a2.721,2.721,0,1,0,5.443,0v-13.607Z" fill="#fff"/><rect width="1.814" height="1.814" transform="translate(404.909 8527.012)" fill="#fff"/><rect width="1.814" height="1.814" transform="translate(419.424 8527.012)" fill="#fff"/><path d="M413.074,8516.126a11.793,11.793,0,1,0,11.793,11.793A11.807,11.807,0,0,0,413.074,8516.126Zm0,21.772a9.979,9.979,0,1,1,9.979-9.979A9.991,9.991,0,0,1,413.074,8537.9Z" fill="#fff"/></g></svg>