<svg xmlns="http://www.w3.org/2000/svg" xmlns:xlink="http://www.w3.org/1999/xlink" width="163.346" height="110.441" viewBox="0 0 163.346 110.441"><defs><linearGradient id="a" x1="0.329" y1="0.554" x2="-0.255" y2="0.738" gradientUnits="objectBoundingBox"><stop offset="0" stop-color="#fcb148"/><stop offset="0.052" stop-color="#fdb946"/><stop offset="0.142" stop-color="#fec144"/><stop offset="0.318" stop-color="#ffc444"/><stop offset="0.485" stop-color="#fdb946"/><stop offset="0.775" stop-color="#f99c4c"/><stop offset="0.866" stop-color="#f8924f"/><stop offset="1" stop-color="#f8924f"/></linearGradient><linearGradient id="b" x1="0.727" y1="0.007" x2="0.207" y2="1.135" gradientUnits="objectBoundingBox"><stop offset="0" stop-color="#ffdb44"/><stop offset="1" stop-color="#feef06"/></linearGradient><linearGradient id="c" x1="0.636" y1="1.231" x2="0.531" y2="0.666" xlink:href="#a"/><linearGradient id="d" x1="0.409" y1="0.31" x2="0.858" y2="1.247" xlink:href="#a"/><linearGradient id="e" x1="0.253" y1="0.019" x2="0.711" y2="1.039" xlink:href="#b"/><linearGradient id="f" x1="0.464" y1="0.369" x2="1.215" y2="1.306" xlink:href="#a"/></defs><g transform="translate(-782.373 -6570.575)"><g transform="translate(782.373 6584.766)"><path d="M946.073,6687.427l-161.626-1.408v4.166a2.209,2.209,0,0,0,1.659,2.263l45.7,8.2a6.305,6.305,0,0,0,1.64.077l110.867-9.352a2.1,2.1,0,0,0,1.757-2.209Z" transform="translate(-782.727 -6604.498)" fill="#97a6b7"/><path d="M893.689,6663.869l-107.818,7.619a3.211,3.211,0,0,1-3.5-3.236v-77.077a3.492,3.492,0,0,1,3.5-3.483H893.689a3.02,3.02,0,0,1,2.874,3.149v69.676A3.291,3.291,0,0,1,893.689,6663.869Z" transform="translate(-782.373 -6587.692)" fill="#97a6b7"/><path d="M895.763,6663.869l-107.818,7.619a3.211,3.211,0,0,1-3.5-3.236v-77.077a3.492,3.492,0,0,1,3.5-3.483H895.763a3.02,3.02,0,0,1,2.874,3.149v69.676A3.291,3.291,0,0,1,895.763,6663.869Z" transform="translate(-782.727 -6587.692)" fill="#97a6b7"/><path d="M893.37,6659.879,792.949,6666.5a2.631,2.631,0,0,1-2.846-2.656v-67.48a2.861,2.861,0,0,1,2.846-2.855l100.421-.416a2.475,2.475,0,0,1,2.372,2.581v61.463A2.7,2.7,0,0,1,893.37,6659.879Z" transform="translate(-783.694 -6588.614)" fill="#fff"/><path d="M857.769,6589.968a1.243,1.243,0,1,1-1.24-1.3A1.274,1.274,0,0,1,857.769,6589.968Z" transform="translate(-794.835 -6587.859)" fill="#fff"/><path d="M869.785,6642.73c-8.312-4.472-14.847,1.194-21.154-4.4-3.825-3.39-1.947-5.917-6.652-10.983-5.212-5.61-8.6-3.725-13.841-8.774-6.623-6.385-3.311-11.352-9.015-15.936-6.92-5.562-14.383-.415-20.971-5.748a16.1,16.1,0,0,1-5.214-9.2h-6.445a2.046,2.046,0,0,0-2.046,2.045v79.9a1.88,1.88,0,0,0,2.046,1.9l109.884-7.8a1.771,1.771,0,0,0,1.324-.809c-8.044-.293-12.985-2.99-16.144-5.778C875.377,6651.693,876.449,6646.314,869.785,6642.73Z" transform="translate(-782.727 -6587.692)" fill="#fff" opacity="0.48" style="mix-blend-mode:soft-light;isolation:isolate"/><path d="M893.073,6679.152l-108.625,8.02,47.362,8.5a6.305,6.305,0,0,0,1.64.077l112.624-9.5-51.273-7.042A8.181,8.181,0,0,0,893.073,6679.152Z" transform="translate(-782.727 -6603.321)" fill="#d8dee8"/><path d="M803.564,6687.676,894,6680.9l27.989,3.813-89.655,7.244Z" transform="translate(-785.995 -6603.623)" fill="#d8dee8" opacity="0.3" style="mix-blend-mode:multiply;isolation:isolate"/><g transform="translate(8.97 6.938)"><path d="M893.624,6612.785l-100.431,1.53v-18.255H893.624Z" transform="translate(-793.192 -6596.061)" fill="#d8dee8"/><path d="M862.8,6649.53l-63.628,2.777v-30.63l63.628-1.144Z" transform="translate(-794.214 -6600.243)" fill="#d8dee8"/><path d="M904.335,6628.421l-23.934.614v-8.671l23.934-.43Z" transform="translate(-808.098 -6600.141)" fill="#d8dee8"/><path d="M904.335,6650.589l-23.934,1.044v-17.159l23.934-.68Z" transform="translate(-808.098 -6602.51)" fill="#d8dee8"/><path d="M890.452,6658.743l-91.28,4.307v7.275l91.28-4.863Z" transform="translate(-794.214 -6606.773)" fill="#d8dee8"/></g></g><g transform="translate(817.275 6570.575)"><path d="M844.055,6689.011l-13.334,2.4c-2.695.224-6.25-2.842-6.25-5.4v-12.5a5.18,5.18,0,0,1,4.887-4.96l14.7-1.009c2.633-.181,7.224,1.969,7.224,4.482l-2.462,12.039A5.157,5.157,0,0,1,844.055,6689.011Z" transform="translate(-824.47 -6587.147)" fill="#383a01"/><path d="M878.911,6682.759l-12.328,2.438c-2.591.215-6.505-2.9-6.505-5.408V6650.55a4.956,4.956,0,0,1,4.7-4.8l14.135-.809c2.533-.144,7.5,2.008,7.5,4.473l-2.922,28.505A5.005,5.005,0,0,1,878.911,6682.759Z" transform="translate(-830.556 -6583.284)" fill="#383a01"/><path d="M912.446,6676.743l-11.337,2.448c-2.493.207-6.786-2.935-6.786-5.392v-45.337a4.745,4.745,0,0,1,4.52-4.654l13.6-.621c2.438-.112,6.933,1.94,6.933,4.358L916.854,6672A4.861,4.861,0,0,1,912.446,6676.743Z" transform="translate(-836.409 -6579.567)" fill="#383a01"/><path d="M951.581,6598.675l-10.087-26.3c-.215-.451-3.574-1.8-4-1.8a1.21,1.21,0,0,0-1.1.708L923.084,6599.7a1.194,1.194,0,0,0,.26,1.4c.215.2,3.2,1.435,3.2,1.435v62.483c0,1.092,3.3,3.172,4.393,3.081l15.385-2.747a2.14,2.14,0,0,0,1.921-2.106V6600.51l2.274-.084A1.239,1.239,0,0,0,951.581,6598.675Z" transform="translate(-841.304 -6570.575)" fill="#383a01"/><g transform="translate(3.053 1.322)"><path d="M847.737,6690.605l-14.7,1.22a4.318,4.318,0,0,1-4.887-4.218v-12.5a5.181,5.181,0,0,1,4.887-4.96l14.7-1.009a4.293,4.293,0,0,1,4.761,4.223v12.3A5.157,5.157,0,0,1,847.737,6690.605Z" transform="translate(-828.152 -6588.742)" fill="#b3b835"/><path d="M882.594,6684.354l-14.135,1.174a4.189,4.189,0,0,1-4.7-4.145v-29.238a4.955,4.955,0,0,1,4.7-4.8l14.135-.808a4.222,4.222,0,0,1,4.58,4.2v28.777A5,5,0,0,1,882.594,6684.354Z" transform="translate(-834.238 -6584.878)" fill="#b3b835"/><path d="M916.129,6678.337l-13.6,1.13a4.067,4.067,0,0,1-4.52-4.072v-45.337a4.744,4.744,0,0,1,4.52-4.654l13.6-.623a4.158,4.158,0,0,1,4.408,4.177v44.635A4.862,4.862,0,0,1,916.129,6678.337Z" transform="translate(-840.091 -6581.161)" fill="#b3b835"/><path d="M955.264,6600.27l-13.022-27.427a1.2,1.2,0,0,0-2.169.035l-13.306,28.413a1.181,1.181,0,0,0,1.105,1.705l2.354-.087v63.7a1.791,1.791,0,0,0,1.975,1.813l17.8-1.478a2.14,2.14,0,0,0,1.92-2.106V6602.1l2.275-.085A1.238,1.238,0,0,0,955.264,6600.27Z" transform="translate(-844.987 -6572.17)" fill="#b3b835"/></g></g><g transform="translate(817.81 6599.479)"><path d="M856.933,6623.6a14.823,14.823,0,0,1-15.335,15.116,17.356,17.356,0,0,1-16.484-17.262A14.781,14.781,0,0,1,841.6,6606.42,17.47,17.47,0,0,1,856.933,6623.6Z" transform="translate(-825.115 -6605.591)" fill="url(#a)"/><path d="M859.738,6622.709a14.822,14.822,0,0,1-15.335,15.116,17.354,17.354,0,0,1-16.484-17.261,14.781,14.781,0,0,1,16.484-15.039A17.469,17.469,0,0,1,859.738,6622.709Z" transform="translate(-825.594 -6605.438)" fill="url(#b)"/><path d="M859.223,6622.817a14.146,14.146,0,0,1-14.66,14.426,16.566,16.566,0,0,1-15.706-16.474,14.107,14.107,0,0,1,15.706-14.355A16.67,16.67,0,0,1,859.223,6622.817Z" transform="translate(-825.755 -6605.591)" fill="url(#c)"/><path d="M858.854,6622.893a13.662,13.662,0,0,1-14.177,13.934,16,16,0,0,1-15.152-15.91,13.627,13.627,0,0,1,15.152-13.867A16.1,16.1,0,0,1,858.854,6622.893Z" transform="translate(-825.869 -6605.701)" fill="url(#d)"/><g transform="translate(11.455 4.052)"><path d="M846.2,6610.33h0a.865.865,0,0,1,.764.85v1.465a21.483,21.483,0,0,1,2.539.44q.938.221,1.863.525a.858.858,0,0,1,.584.879l-.18,1.837a.689.689,0,0,1-.983.571,10.528,10.528,0,0,0-1.249-.465,11.371,11.371,0,0,0-2.357-.441l-.216-.018v4.2a11.009,11.009,0,0,1,4.872,2.491,5.265,5.265,0,0,1,1.56,3.888,5.121,5.121,0,0,1-1.725,4.042,7.874,7.874,0,0,1-4.882,1.718v1.618a.735.735,0,0,1-.765.747h-.013a.812.812,0,0,1-.769-.811v-1.6l-.341-.015a22.487,22.487,0,0,1-2.828-.3,18.685,18.685,0,0,1-1.954-.449.844.844,0,0,1-.613-.872l.212-2.361a.746.746,0,0,1,1.044-.616,15.381,15.381,0,0,0,1.719.563,15.064,15.064,0,0,0,2.748.459l.013-4.668a10.114,10.114,0,0,1-4.742-2.327,5.327,5.327,0,0,1-1.571-3.959,4.632,4.632,0,0,1,1.7-3.847,7.551,7.551,0,0,1,4.8-1.341v-1.5A.691.691,0,0,1,846.2,6610.33Zm-.768,5.6a2.588,2.588,0,0,0-1.53.539,1.573,1.573,0,0,0-.549,1.26,1.693,1.693,0,0,0,.508,1.252,3.579,3.579,0,0,0,1.57.8Zm1.356,8.452v4.28a2.364,2.364,0,0,0,1.637-.509,1.831,1.831,0,0,0,.57-1.441,1.968,1.968,0,0,0-.529-1.409A3.885,3.885,0,0,0,846.793,6624.382Z" transform="translate(-838.932 -6610.326)" fill="url(#e)"/></g><path d="M842.112,6624.858c.479-4.73,4.826-6.733,4.259-11.085-.35-2.681-2.383-4.941-4.65-6.706a13.629,13.629,0,0,0-12.2,13.866,16,16,0,0,0,15.152,15.91,14.191,14.191,0,0,0,2.341-.114C843.746,6633.472,841.7,6628.922,842.112,6624.858Z" transform="translate(-825.869 -6605.717)" opacity="0.3" fill="url(#f)" style="mix-blend-mode:multiply;isolation:isolate"/></g></g></svg>