<svg xmlns="http://www.w3.org/2000/svg" width="1030" height="128.686" viewBox="0 0 1030 128.686"><g transform="translate(-39.115 -7724.141)"><rect width="1030" height="128.685" rx="20.451" transform="translate(39.115 7724.141)" fill="#b3b835"/><path d="M19.81,25.453a8.018,8.018,0,0,1-2.7,5.758,9.482,9.482,0,0,1-6.419,2.1,8.526,8.526,0,0,1-6.855-2.933q-2.5-2.933-2.5-8.053V20.94A13.582,13.582,0,0,1,2.49,15.182a8.63,8.63,0,0,1,3.291-3.82,9.22,9.22,0,0,1,4.972-1.331,9.237,9.237,0,0,1,6.318,2.1,8.616,8.616,0,0,1,2.77,5.9H15.173a4.732,4.732,0,0,0-1.222-3.182,4.524,4.524,0,0,0-3.2-.988A3.967,3.967,0,0,0,7.26,15.532a9.375,9.375,0,0,0-1.19,5.19v1.712A10.034,10.034,0,0,0,7.182,27.8a3.893,3.893,0,0,0,3.509,1.7,4.609,4.609,0,0,0,3.229-.988,4.463,4.463,0,0,0,1.222-3.058Zm2.07-1.027a9.986,9.986,0,0,1,.965-4.466,7.063,7.063,0,0,1,2.778-3.035,8.1,8.1,0,0,1,4.209-1.074A7.667,7.667,0,0,1,35.4,17.936,8.369,8.369,0,0,1,37.8,23.6l.031,1.152a8.8,8.8,0,0,1-2.163,6.217,7.519,7.519,0,0,1-5.8,2.342,7.556,7.556,0,0,1-5.812-2.334,8.955,8.955,0,0,1-2.171-6.349Zm4.5.327a6.277,6.277,0,0,0,.9,3.665,3.246,3.246,0,0,0,5.135.016,6.868,6.868,0,0,0,.918-4.007,6.214,6.214,0,0,0-.918-3.641,2.986,2.986,0,0,0-2.583-1.292,2.937,2.937,0,0,0-2.552,1.284A6.984,6.984,0,0,0,26.377,24.752ZM49.72,28.347a1.449,1.449,0,0,0-.817-1.3,9.28,9.28,0,0,0-2.622-.848q-6.007-1.261-6.007-5.1a4.627,4.627,0,0,1,1.86-3.743A7.5,7.5,0,0,1,47,15.851a8.074,8.074,0,0,1,5.128,1.509,4.757,4.757,0,0,1,1.922,3.922h-4.5a2.176,2.176,0,0,0-.622-1.6,2.634,2.634,0,0,0-1.945-.63,2.692,2.692,0,0,0-1.758.514,1.621,1.621,0,0,0-.622,1.307,1.386,1.386,0,0,0,.708,1.206,7.284,7.284,0,0,0,2.389.794,19.511,19.511,0,0,1,2.832.755q3.564,1.307,3.564,4.528a4.392,4.392,0,0,1-1.976,3.727,8.525,8.525,0,0,1-5.1,1.424,8.9,8.9,0,0,1-3.758-.755,6.306,6.306,0,0,1-2.575-2.07,4.809,4.809,0,0,1-.934-2.84h4.264a2.348,2.348,0,0,0,.887,1.836,3.518,3.518,0,0,0,2.21.638,3.256,3.256,0,0,0,1.953-.49A1.525,1.525,0,0,0,49.72,28.347ZM62.372,12.023v4.139h2.879v3.3H62.372v8.4A2.007,2.007,0,0,0,62.73,29.2a1.8,1.8,0,0,0,1.369.4,7.172,7.172,0,0,0,1.323-.109v3.408a9.258,9.258,0,0,1-2.723.4q-4.731,0-4.824-4.777V19.461H55.416v-3.3h2.459V12.023Zm4.217,12.4a9.986,9.986,0,0,1,.965-4.466,7.063,7.063,0,0,1,2.778-3.035,8.1,8.1,0,0,1,4.209-1.074A7.667,7.667,0,0,1,80.1,17.936a8.369,8.369,0,0,1,2.4,5.665l.031,1.152a8.8,8.8,0,0,1-2.163,6.217,8.384,8.384,0,0,1-11.617.008,8.955,8.955,0,0,1-2.171-6.349Zm4.5.327a6.277,6.277,0,0,0,.9,3.665,3.246,3.246,0,0,0,5.135.016,6.868,6.868,0,0,0,.918-4.007,6.214,6.214,0,0,0-.918-3.641,2.986,2.986,0,0,0-2.583-1.292,2.937,2.937,0,0,0-2.552,1.284A6.984,6.984,0,0,0,71.086,24.752Zm23.343,3.595a1.449,1.449,0,0,0-.817-1.3A9.28,9.28,0,0,0,90.99,26.2q-6.007-1.261-6.007-5.1a4.627,4.627,0,0,1,1.86-3.743,7.5,7.5,0,0,1,4.863-1.5,8.074,8.074,0,0,1,5.128,1.509,4.757,4.757,0,0,1,1.922,3.922h-4.5a2.176,2.176,0,0,0-.622-1.6,2.634,2.634,0,0,0-1.945-.63,2.692,2.692,0,0,0-1.758.514,1.621,1.621,0,0,0-.622,1.307,1.386,1.386,0,0,0,.708,1.206,7.284,7.284,0,0,0,2.389.794,19.511,19.511,0,0,1,2.832.755Q98.8,24.939,98.8,28.16a4.392,4.392,0,0,1-1.976,3.727,8.525,8.525,0,0,1-5.1,1.424,8.9,8.9,0,0,1-3.758-.755,6.306,6.306,0,0,1-2.575-2.07,4.809,4.809,0,0,1-.934-2.84h4.264a2.348,2.348,0,0,0,.887,1.836,3.518,3.518,0,0,0,2.21.638,3.256,3.256,0,0,0,1.953-.49A1.525,1.525,0,0,0,94.429,28.347ZM110.722,33V19.461h-2.505v-3.3h2.505v-.778a6.315,6.315,0,0,1,1.953-4.894A7.858,7.858,0,0,1,118.1,8.77a17.989,17.989,0,0,1,5.1.918l-.654,3.719a19.915,19.915,0,0,0-2.365-.584,11.622,11.622,0,0,0-1.805-.132q-3.143,0-3.143,2.786v.685h3.315v3.3h-3.315V33ZM125.3,33h-4.513V16.162H125.3Zm8.481-16.838V33.918a6.023,6.023,0,0,1-1.478,4.334,5.619,5.619,0,0,1-4.264,1.548,9.144,9.144,0,0,1-2.225-.265V35.972a8.442,8.442,0,0,0,1.416.14q2.039,0,2.039-2.163V16.162ZM128.914,11.8a2.215,2.215,0,0,1,.677-1.665,2.928,2.928,0,0,1,3.688,0,2.215,2.215,0,0,1,.677,1.665,2.208,2.208,0,0,1-.693,1.681,2.885,2.885,0,0,1-3.657,0A2.208,2.208,0,0,1,128.914,11.8ZM136.6,24.425a9.986,9.986,0,0,1,.965-4.466,7.063,7.063,0,0,1,2.778-3.035,8.1,8.1,0,0,1,4.209-1.074,7.667,7.667,0,0,1,5.563,2.085,8.369,8.369,0,0,1,2.4,5.665l.031,1.152a8.8,8.8,0,0,1-2.163,6.217,8.384,8.384,0,0,1-11.617.008,8.955,8.955,0,0,1-2.171-6.349Zm4.5.327a6.277,6.277,0,0,0,.9,3.665,3.246,3.246,0,0,0,5.135.016,6.868,6.868,0,0,0,.918-4.007,6.214,6.214,0,0,0-.918-3.641,2.986,2.986,0,0,0-2.583-1.292A2.937,2.937,0,0,0,142,20.776,6.984,6.984,0,0,0,141.1,24.752Zm23.343,3.595a1.449,1.449,0,0,0-.817-1.3A9.28,9.28,0,0,0,161,26.2Q155,24.939,155,21.1a4.627,4.627,0,0,1,1.86-3.743,7.5,7.5,0,0,1,4.863-1.5,8.074,8.074,0,0,1,5.128,1.509,4.757,4.757,0,0,1,1.922,3.922h-4.5a2.176,2.176,0,0,0-.622-1.6,2.634,2.634,0,0,0-1.945-.63,2.692,2.692,0,0,0-1.758.514,1.621,1.621,0,0,0-.622,1.307,1.386,1.386,0,0,0,.708,1.206,7.284,7.284,0,0,0,2.389.794,19.511,19.511,0,0,1,2.832.755q3.564,1.307,3.564,4.528a4.392,4.392,0,0,1-1.976,3.727,8.525,8.525,0,0,1-5.1,1.424,8.9,8.9,0,0,1-3.758-.755,6.306,6.306,0,0,1-2.575-2.07,4.809,4.809,0,0,1-.934-2.84h4.264a2.348,2.348,0,0,0,.887,1.836,3.518,3.518,0,0,0,2.21.638,3.256,3.256,0,0,0,1.953-.49A1.525,1.525,0,0,0,164.442,28.347Z" transform="translate(617.682 7738.464)" fill="#fff"/><path d="M6.692,25.017V33H2.023V10.342h8.839a10.226,10.226,0,0,1,4.49.934,6.881,6.881,0,0,1,2.98,2.653,7.4,7.4,0,0,1,1.043,3.914,6.506,6.506,0,0,1-2.28,5.252,9.5,9.5,0,0,1-6.31,1.922Zm0-3.782h4.171a4.1,4.1,0,0,0,2.824-.871,3.17,3.17,0,0,0,.973-2.49,3.737,3.737,0,0,0-.98-2.692,3.662,3.662,0,0,0-2.708-1.058H6.692Zm25.055-.856a12.218,12.218,0,0,0-1.618-.124q-2.552,0-3.346,1.727V33h-4.5V16.162h4.248l.124,2.007a4.167,4.167,0,0,1,3.75-2.319,4.712,4.712,0,0,1,1.4.2Zm9.913,12.932a8.266,8.266,0,0,1-6.03-2.272A8.076,8.076,0,0,1,33.3,24.986V24.55a10.172,10.172,0,0,1,.98-4.536,7.2,7.2,0,0,1,2.778-3.081,7.8,7.8,0,0,1,4.1-1.082A6.988,6.988,0,0,1,46.6,18.03a8.853,8.853,0,0,1,1.984,6.178v1.836H37.862a4.178,4.178,0,0,0,1.315,2.646,3.975,3.975,0,0,0,2.778,1A4.854,4.854,0,0,0,46.016,27.8l2.21,2.474a6.751,6.751,0,0,1-2.739,2.233A8.986,8.986,0,0,1,41.659,33.311Zm-.514-13.819a2.816,2.816,0,0,0-2.171.9,4.663,4.663,0,0,0-1.066,2.583h6.256V22.62a3.325,3.325,0,0,0-.809-2.311A2.907,2.907,0,0,0,41.145,19.492ZM58.139,29.685A2.95,2.95,0,0,0,60.162,29a2.4,2.4,0,0,0,.809-1.821h4.217a5.769,5.769,0,0,1-.934,3.136,6.161,6.161,0,0,1-2.513,2.21,7.866,7.866,0,0,1-3.525.786,7.31,7.31,0,0,1-5.7-2.3,9.083,9.083,0,0,1-2.085-6.341v-.3a8.979,8.979,0,0,1,2.07-6.209,7.225,7.225,0,0,1,5.68-2.319,7.082,7.082,0,0,1,5.065,1.8,6.364,6.364,0,0,1,1.937,4.785H60.971a3.065,3.065,0,0,0-.809-2.124,3.014,3.014,0,0,0-4.427.327,6.621,6.621,0,0,0-.8,3.711v.467a6.7,6.7,0,0,0,.794,3.735A2.744,2.744,0,0,0,58.139,29.685ZM72.5,33H67.99V16.162H72.5ZM67.725,11.8A2.215,2.215,0,0,1,68.4,10.14a2.917,2.917,0,0,1,3.68,0,2.2,2.2,0,0,1,.685,1.665,2.208,2.208,0,0,1-.693,1.681,2.885,2.885,0,0,1-3.657,0A2.208,2.208,0,0,1,67.725,11.8Zm7.781,12.621a9.986,9.986,0,0,1,.965-4.466,7.063,7.063,0,0,1,2.778-3.035,8.1,8.1,0,0,1,4.209-1.074,7.667,7.667,0,0,1,5.563,2.085,8.369,8.369,0,0,1,2.4,5.665l.031,1.152a8.8,8.8,0,0,1-2.163,6.217,8.384,8.384,0,0,1-11.617.008,8.955,8.955,0,0,1-2.171-6.349Zm4.5.327a6.277,6.277,0,0,0,.9,3.665,3.246,3.246,0,0,0,5.135.016,6.868,6.868,0,0,0,.918-4.007,6.214,6.214,0,0,0-.918-3.641,2.986,2.986,0,0,0-2.583-1.292,2.937,2.937,0,0,0-2.552,1.284A6.984,6.984,0,0,0,80,24.752Zm32.244,6.536a5.64,5.64,0,0,1-4.606,2.023,5.319,5.319,0,0,1-4.132-1.556,6.643,6.643,0,0,1-1.455-4.56V16.162h4.5V27.04q0,2.63,2.4,2.63a3.248,3.248,0,0,0,3.143-1.587V16.162H116.6V33h-4.233Zm11.889-15.126.14,1.945a5.879,5.879,0,0,1,4.84-2.256,4.886,4.886,0,0,1,3.984,1.572,7.333,7.333,0,0,1,1.338,4.7V33h-4.5V22.231a2.918,2.918,0,0,0-.622-2.078,2.787,2.787,0,0,0-2.07-.646,3.094,3.094,0,0,0-2.848,1.618V33h-4.5V16.162ZM142.593,33H138.08V16.162h4.513Zm-4.777-21.2a2.215,2.215,0,0,1,.677-1.665,2.917,2.917,0,0,1,3.68,0,2.2,2.2,0,0,1,.685,1.665,2.208,2.208,0,0,1-.692,1.681,2.885,2.885,0,0,1-3.657,0A2.208,2.208,0,0,1,137.816,11.8Zm13.866.218v4.139h2.879v3.3h-2.879v8.4a2.007,2.007,0,0,0,.358,1.338,1.8,1.8,0,0,0,1.369.4,7.172,7.172,0,0,0,1.323-.109v3.408a9.258,9.258,0,0,1-2.723.4q-4.731,0-4.824-4.777V19.461h-2.459v-3.3h2.459V12.023ZM166.823,33a4.994,4.994,0,0,1-.451-1.509,5.442,5.442,0,0,1-4.248,1.821,5.978,5.978,0,0,1-4.1-1.432,4.6,4.6,0,0,1-1.626-3.61,4.758,4.758,0,0,1,1.984-4.108,9.79,9.79,0,0,1,5.735-1.447h2.07v-.965a2.775,2.775,0,0,0-.6-1.867,2.357,2.357,0,0,0-1.891-.7,2.68,2.68,0,0,0-1.782.545,1.85,1.85,0,0,0-.646,1.494h-4.5a4.518,4.518,0,0,1,.9-2.708,5.966,5.966,0,0,1,2.552-1.953,9.3,9.3,0,0,1,3.7-.708,7.348,7.348,0,0,1,4.941,1.564,5.471,5.471,0,0,1,1.829,4.4v7.3a8.05,8.05,0,0,0,.669,3.626V33ZM163.1,29.872a3.873,3.873,0,0,0,1.836-.444,2.913,2.913,0,0,0,1.245-1.19V25.344H164.5q-3.377,0-3.595,2.334l-.016.265a1.8,1.8,0,0,0,.591,1.385A2.3,2.3,0,0,0,163.1,29.872Zm20.51-9.493A12.218,12.218,0,0,0,182,20.255q-2.552,0-3.346,1.727V33h-4.5V16.162H178.4l.124,2.007a4.167,4.167,0,0,1,3.75-2.319,4.712,4.712,0,0,1,1.4.2ZM190.523,33h-4.513V16.162h4.513Zm-4.777-21.2a2.215,2.215,0,0,1,.677-1.665,2.917,2.917,0,0,1,3.68,0,2.2,2.2,0,0,1,.685,1.665,2.208,2.208,0,0,1-.692,1.681,2.885,2.885,0,0,1-3.657,0A2.208,2.208,0,0,1,185.746,11.8Zm7.781,12.621a9.986,9.986,0,0,1,.965-4.466,7.063,7.063,0,0,1,2.778-3.035,8.1,8.1,0,0,1,4.209-1.074,7.667,7.667,0,0,1,5.563,2.085,8.369,8.369,0,0,1,2.4,5.665l.031,1.152a8.8,8.8,0,0,1-2.163,6.217,8.384,8.384,0,0,1-11.617.008,8.955,8.955,0,0,1-2.171-6.349Zm4.5.327a6.277,6.277,0,0,0,.9,3.665,3.246,3.246,0,0,0,5.135.016,6.868,6.868,0,0,0,.918-4.007,6.214,6.214,0,0,0-.918-3.641,2.986,2.986,0,0,0-2.583-1.292,2.937,2.937,0,0,0-2.552,1.284A6.984,6.984,0,0,0,198.024,24.752Zm22.969.358h-8.761V21.484h8.761Zm21.693.342a8.018,8.018,0,0,1-2.7,5.758,9.482,9.482,0,0,1-6.419,2.1,8.526,8.526,0,0,1-6.855-2.933q-2.5-2.933-2.5-8.053V20.94a13.582,13.582,0,0,1,1.152-5.758,8.63,8.63,0,0,1,3.291-3.82,10.286,10.286,0,0,1,11.29.77,8.616,8.616,0,0,1,2.77,5.9h-4.669a4.732,4.732,0,0,0-1.222-3.182,4.524,4.524,0,0,0-3.2-.988,3.967,3.967,0,0,0-3.494,1.673,9.375,9.375,0,0,0-1.19,5.19v1.712a10.034,10.034,0,0,0,1.113,5.369,3.893,3.893,0,0,0,3.509,1.7,4.609,4.609,0,0,0,3.229-.988,4.463,4.463,0,0,0,1.222-3.058Zm2.07-1.027a9.986,9.986,0,0,1,.965-4.466,7.063,7.063,0,0,1,2.778-3.035,8.1,8.1,0,0,1,4.209-1.074,7.667,7.667,0,0,1,5.563,2.085,8.369,8.369,0,0,1,2.4,5.665l.031,1.152a8.8,8.8,0,0,1-2.163,6.217,8.384,8.384,0,0,1-11.617.008,8.955,8.955,0,0,1-2.171-6.349Zm4.5.327a6.277,6.277,0,0,0,.9,3.665,3.246,3.246,0,0,0,5.135.016,6.868,6.868,0,0,0,.918-4.007,6.214,6.214,0,0,0-.918-3.641,2.986,2.986,0,0,0-2.583-1.292,2.937,2.937,0,0,0-2.552,1.284A6.984,6.984,0,0,0,249.254,24.752ZM272.6,28.347a1.449,1.449,0,0,0-.817-1.3,9.28,9.28,0,0,0-2.622-.848q-6.007-1.261-6.007-5.1a4.627,4.627,0,0,1,1.86-3.743,7.5,7.5,0,0,1,4.863-1.5A8.074,8.074,0,0,1,275,17.36a4.757,4.757,0,0,1,1.922,3.922h-4.5a2.176,2.176,0,0,0-.622-1.6,2.634,2.634,0,0,0-1.945-.63,2.692,2.692,0,0,0-1.759.514,1.621,1.621,0,0,0-.622,1.307,1.386,1.386,0,0,0,.708,1.206,7.284,7.284,0,0,0,2.389.794,19.512,19.512,0,0,1,2.832.755q3.564,1.307,3.564,4.528a4.392,4.392,0,0,1-1.976,3.727,8.525,8.525,0,0,1-5.1,1.424,8.9,8.9,0,0,1-3.758-.755,6.306,6.306,0,0,1-2.575-2.07,4.809,4.809,0,0,1-.934-2.84h4.264a2.348,2.348,0,0,0,.887,1.836,3.518,3.518,0,0,0,2.21.638,3.256,3.256,0,0,0,1.953-.49A1.525,1.525,0,0,0,272.6,28.347Zm12.652-16.324v4.139h2.879v3.3h-2.879v8.4a2.007,2.007,0,0,0,.358,1.338,1.8,1.8,0,0,0,1.369.4A7.172,7.172,0,0,0,288.3,29.5v3.408a9.258,9.258,0,0,1-2.723.4q-4.731,0-4.824-4.777V19.461h-2.459v-3.3h2.459V12.023Zm4.217,12.4a9.986,9.986,0,0,1,.965-4.466,7.063,7.063,0,0,1,2.778-3.035,8.1,8.1,0,0,1,4.209-1.074,7.667,7.667,0,0,1,5.563,2.085,8.369,8.369,0,0,1,2.4,5.665l.031,1.152a8.8,8.8,0,0,1-2.163,6.217,8.384,8.384,0,0,1-11.617.008,8.955,8.955,0,0,1-2.171-6.349Zm4.5.327a6.277,6.277,0,0,0,.9,3.665,3.246,3.246,0,0,0,5.135.016,6.868,6.868,0,0,0,.918-4.007A6.214,6.214,0,0,0,300,20.784a2.986,2.986,0,0,0-2.583-1.292,2.937,2.937,0,0,0-2.552,1.284A6.984,6.984,0,0,0,293.963,24.752Zm23.343,3.595a1.449,1.449,0,0,0-.817-1.3,9.28,9.28,0,0,0-2.622-.848q-6.007-1.261-6.007-5.1a4.627,4.627,0,0,1,1.86-3.743,7.5,7.5,0,0,1,4.863-1.5,8.074,8.074,0,0,1,5.128,1.509,4.757,4.757,0,0,1,1.922,3.922h-4.5a2.176,2.176,0,0,0-.622-1.6,2.634,2.634,0,0,0-1.945-.63,2.692,2.692,0,0,0-1.759.514,1.621,1.621,0,0,0-.622,1.307,1.386,1.386,0,0,0,.708,1.206,7.284,7.284,0,0,0,2.389.794,19.512,19.512,0,0,1,2.832.755q3.564,1.307,3.564,4.528a4.392,4.392,0,0,1-1.976,3.727,8.526,8.526,0,0,1-5.1,1.424,8.9,8.9,0,0,1-3.758-.755,6.306,6.306,0,0,1-2.575-2.07,4.809,4.809,0,0,1-.934-2.84h4.264a2.348,2.348,0,0,0,.887,1.836,3.518,3.518,0,0,0,2.21.638,3.256,3.256,0,0,0,1.953-.49A1.525,1.525,0,0,0,317.306,28.347Zm21.506-.84,3.128-11.345h4.7L340.96,33h-4.3l-5.68-16.838h4.7ZM358.14,33a5,5,0,0,1-.451-1.509,5.442,5.442,0,0,1-4.248,1.821,5.978,5.978,0,0,1-4.1-1.432,4.6,4.6,0,0,1-1.626-3.61,4.758,4.758,0,0,1,1.984-4.108,9.791,9.791,0,0,1,5.735-1.447h2.07v-.965a2.775,2.775,0,0,0-.6-1.867,2.357,2.357,0,0,0-1.891-.7,2.68,2.68,0,0,0-1.782.545,1.85,1.85,0,0,0-.646,1.494h-4.5a4.518,4.518,0,0,1,.9-2.708,5.966,5.966,0,0,1,2.552-1.953,9.3,9.3,0,0,1,3.7-.708,7.349,7.349,0,0,1,4.941,1.564,5.471,5.471,0,0,1,1.829,4.4v7.3a8.05,8.05,0,0,0,.669,3.626V33Zm-3.719-3.128a3.873,3.873,0,0,0,1.836-.444,2.913,2.913,0,0,0,1.245-1.19V25.344h-1.681q-3.377,0-3.595,2.334l-.016.265a1.8,1.8,0,0,0,.591,1.385A2.3,2.3,0,0,0,354.421,29.872Zm20.51-9.493a12.218,12.218,0,0,0-1.618-.124q-2.552,0-3.346,1.727V33h-4.5V16.162h4.248l.125,2.007a4.167,4.167,0,0,1,3.75-2.319,4.712,4.712,0,0,1,1.4.2ZM381.841,33h-4.513V16.162h4.513Zm-4.777-21.2a2.215,2.215,0,0,1,.677-1.665,2.917,2.917,0,0,1,3.68,0,2.2,2.2,0,0,1,.685,1.665,2.208,2.208,0,0,1-.693,1.681,2.885,2.885,0,0,1-3.657,0A2.208,2.208,0,0,1,377.063,11.8ZM395.3,33a5,5,0,0,1-.451-1.509,5.442,5.442,0,0,1-4.248,1.821,5.978,5.978,0,0,1-4.1-1.432,4.6,4.6,0,0,1-1.626-3.61,4.758,4.758,0,0,1,1.984-4.108,9.791,9.791,0,0,1,5.735-1.447h2.07v-.965a2.775,2.775,0,0,0-.6-1.867,2.357,2.357,0,0,0-1.891-.7,2.68,2.68,0,0,0-1.782.545,1.85,1.85,0,0,0-.646,1.494h-4.5a4.518,4.518,0,0,1,.9-2.708,5.966,5.966,0,0,1,2.552-1.953,9.3,9.3,0,0,1,3.7-.708,7.349,7.349,0,0,1,4.941,1.564,5.471,5.471,0,0,1,1.829,4.4v7.3a8.05,8.05,0,0,0,.669,3.626V33Zm-3.719-3.128a3.873,3.873,0,0,0,1.836-.444,2.913,2.913,0,0,0,1.245-1.19V25.344h-1.681q-3.377,0-3.595,2.334l-.016.265a1.8,1.8,0,0,0,.591,1.385A2.3,2.3,0,0,0,391.582,29.872ZM417.8,24.737a10.2,10.2,0,0,1-1.727,6.31,5.722,5.722,0,0,1-4.824,2.264,5.257,5.257,0,0,1-4.373-2.1l-.2,1.79h-4.046V9.1h4.5v8.575a5.122,5.122,0,0,1,4.093-1.821,5.769,5.769,0,0,1,4.832,2.264,10.211,10.211,0,0,1,1.751,6.373Zm-4.5-.327a6.7,6.7,0,0,0-.809-3.727,2.736,2.736,0,0,0-2.412-1.175,2.967,2.967,0,0,0-2.957,1.758v6.645a3.007,3.007,0,0,0,2.988,1.774,2.777,2.777,0,0,0,2.863-2.148A11.078,11.078,0,0,0,413.307,24.41ZM425.32,33h-4.513V9.1h4.513Zm11.453.311a8.266,8.266,0,0,1-6.03-2.272,8.076,8.076,0,0,1-2.327-6.054V24.55a10.172,10.172,0,0,1,.98-4.536,7.2,7.2,0,0,1,2.778-3.081,7.8,7.8,0,0,1,4.1-1.082,6.988,6.988,0,0,1,5.439,2.179,8.853,8.853,0,0,1,1.984,6.178v1.836H432.977a4.178,4.178,0,0,0,1.315,2.646,3.975,3.975,0,0,0,2.778,1,4.854,4.854,0,0,0,4.062-1.883l2.21,2.474A6.751,6.751,0,0,1,440.6,32.51,8.986,8.986,0,0,1,436.774,33.311Zm-.514-13.819a2.816,2.816,0,0,0-2.171.9,4.663,4.663,0,0,0-1.066,2.583h6.256V22.62a3.325,3.325,0,0,0-.809-2.311A2.907,2.907,0,0,0,436.26,19.492Zm19.11,8.855a1.449,1.449,0,0,0-.817-1.3,9.28,9.28,0,0,0-2.622-.848q-6.007-1.261-6.007-5.1a4.627,4.627,0,0,1,1.86-3.743,7.5,7.5,0,0,1,4.863-1.5,8.074,8.074,0,0,1,5.128,1.509,4.757,4.757,0,0,1,1.922,3.922h-4.5a2.176,2.176,0,0,0-.622-1.6,2.634,2.634,0,0,0-1.945-.63,2.692,2.692,0,0,0-1.759.514,1.621,1.621,0,0,0-.622,1.307,1.386,1.386,0,0,0,.708,1.206,7.284,7.284,0,0,0,2.389.794,19.512,19.512,0,0,1,2.832.755q3.564,1.307,3.564,4.528a4.392,4.392,0,0,1-1.976,3.727,8.526,8.526,0,0,1-5.1,1.424,8.9,8.9,0,0,1-3.758-.755,6.306,6.306,0,0,1-2.575-2.07,4.809,4.809,0,0,1-.934-2.84h4.264a2.348,2.348,0,0,0,.887,1.836,3.518,3.518,0,0,0,2.21.638,3.256,3.256,0,0,0,1.953-.49A1.525,1.525,0,0,0,455.37,28.347Zm25.288,2.941a5.64,5.64,0,0,1-4.606,2.023,5.319,5.319,0,0,1-4.132-1.556,6.643,6.643,0,0,1-1.455-4.56V16.162h4.5V27.04q0,2.63,2.4,2.63a3.248,3.248,0,0,0,3.143-1.587V16.162h4.513V33h-4.233Zm11.889-15.126.14,1.945a5.879,5.879,0,0,1,4.84-2.256,4.886,4.886,0,0,1,3.984,1.572,7.333,7.333,0,0,1,1.338,4.7V33h-4.5V22.231a2.918,2.918,0,0,0-.622-2.078,2.787,2.787,0,0,0-2.07-.646,3.094,3.094,0,0,0-2.848,1.618V33h-4.5V16.162ZM511,33h-4.513V16.162H511Zm-4.777-21.2a2.215,2.215,0,0,1,.677-1.665,2.917,2.917,0,0,1,3.68,0,2.2,2.2,0,0,1,.685,1.665,2.208,2.208,0,0,1-.693,1.681,2.885,2.885,0,0,1-3.657,0A2.208,2.208,0,0,1,506.226,11.8Zm13.866.218v4.139h2.879v3.3h-2.879v8.4a2.007,2.007,0,0,0,.358,1.338,1.8,1.8,0,0,0,1.369.4,7.172,7.172,0,0,0,1.323-.109v3.408a9.258,9.258,0,0,1-2.723.4q-4.731,0-4.824-4.777V19.461h-2.459v-3.3h2.459V12.023ZM535.234,33a5,5,0,0,1-.451-1.509,5.442,5.442,0,0,1-4.248,1.821,5.978,5.978,0,0,1-4.1-1.432,4.6,4.6,0,0,1-1.626-3.61,4.758,4.758,0,0,1,1.984-4.108,9.79,9.79,0,0,1,5.734-1.447h2.07v-.965a2.774,2.774,0,0,0-.6-1.867,2.357,2.357,0,0,0-1.891-.7,2.68,2.68,0,0,0-1.782.545,1.85,1.85,0,0,0-.646,1.494h-4.5a4.518,4.518,0,0,1,.9-2.708,5.966,5.966,0,0,1,2.552-1.953,9.3,9.3,0,0,1,3.7-.708,7.348,7.348,0,0,1,4.941,1.564,5.471,5.471,0,0,1,1.829,4.4v7.3a8.049,8.049,0,0,0,.669,3.626V33Zm-3.719-3.128a3.873,3.873,0,0,0,1.836-.444,2.913,2.913,0,0,0,1.245-1.19V25.344h-1.681q-3.377,0-3.595,2.334l-.016.265a1.8,1.8,0,0,0,.591,1.385A2.3,2.3,0,0,0,531.514,29.872Zm20.51-9.493a12.219,12.219,0,0,0-1.618-.124q-2.552,0-3.346,1.727V33h-4.5V16.162h4.248l.124,2.007a4.167,4.167,0,0,1,3.75-2.319,4.712,4.712,0,0,1,1.4.2ZM558.934,33h-4.513V16.162h4.513Zm-4.777-21.2a2.215,2.215,0,0,1,.677-1.665,2.917,2.917,0,0,1,3.68,0A2.2,2.2,0,0,1,559.2,11.8a2.208,2.208,0,0,1-.693,1.681,2.885,2.885,0,0,1-3.657,0A2.208,2.208,0,0,1,554.157,11.8Zm7.781,12.621a9.985,9.985,0,0,1,.965-4.466,7.063,7.063,0,0,1,2.778-3.035,8.1,8.1,0,0,1,4.209-1.074,7.667,7.667,0,0,1,5.563,2.085,8.369,8.369,0,0,1,2.4,5.665l.031,1.152a8.8,8.8,0,0,1-2.163,6.217,8.384,8.384,0,0,1-11.617.008,8.956,8.956,0,0,1-2.171-6.349Zm4.5.327a6.277,6.277,0,0,0,.9,3.665,3.245,3.245,0,0,0,5.135.016,6.868,6.868,0,0,0,.918-4.007,6.214,6.214,0,0,0-.918-3.641,2.986,2.986,0,0,0-2.583-1.292,2.937,2.937,0,0,0-2.552,1.284A6.984,6.984,0,0,0,566.435,24.752Zm23.343,3.595a1.449,1.449,0,0,0-.817-1.3,9.281,9.281,0,0,0-2.622-.848q-6.007-1.261-6.007-5.1a4.627,4.627,0,0,1,1.86-3.743,7.5,7.5,0,0,1,4.863-1.5,8.074,8.074,0,0,1,5.128,1.509,4.757,4.757,0,0,1,1.922,3.922h-4.5a2.176,2.176,0,0,0-.622-1.6,2.634,2.634,0,0,0-1.945-.63,2.692,2.692,0,0,0-1.758.514,1.621,1.621,0,0,0-.622,1.307,1.386,1.386,0,0,0,.708,1.206,7.284,7.284,0,0,0,2.389.794,19.514,19.514,0,0,1,2.832.755q3.564,1.307,3.564,4.528a4.392,4.392,0,0,1-1.976,3.727,8.525,8.525,0,0,1-5.1,1.424,8.9,8.9,0,0,1-3.758-.755,6.306,6.306,0,0,1-2.576-2.07,4.809,4.809,0,0,1-.934-2.84h4.264a2.348,2.348,0,0,0,.887,1.836,3.519,3.519,0,0,0,2.21.638,3.256,3.256,0,0,0,1.953-.49A1.525,1.525,0,0,0,589.778,28.347Z" transform="translate(405.427 7801.048)" fill="#fff"/><path d="M6.692,25.017V33H2.023V10.342h8.839a10.226,10.226,0,0,1,4.49.934,6.881,6.881,0,0,1,2.98,2.653,7.4,7.4,0,0,1,1.043,3.914,6.506,6.506,0,0,1-2.28,5.252,9.5,9.5,0,0,1-6.31,1.922Zm0-3.782h4.171a4.1,4.1,0,0,0,2.824-.871,3.17,3.17,0,0,0,.973-2.49,3.737,3.737,0,0,0-.98-2.692,3.662,3.662,0,0,0-2.708-1.058H6.692ZM32.369,31.288a5.64,5.64,0,0,1-4.606,2.023,5.319,5.319,0,0,1-4.132-1.556,6.643,6.643,0,0,1-1.455-4.56V16.162h4.5V27.04q0,2.63,2.4,2.63a3.248,3.248,0,0,0,3.143-1.587V16.162h4.513V33H32.493ZM44.258,16.162l.14,1.945a5.879,5.879,0,0,1,4.84-2.256,4.886,4.886,0,0,1,3.984,1.572,7.333,7.333,0,0,1,1.338,4.7V33h-4.5V22.231a2.918,2.918,0,0,0-.622-2.078,2.787,2.787,0,0,0-2.07-.646,3.094,3.094,0,0,0-2.848,1.618V33h-4.5V16.162Zm19.094-4.139v4.139h2.879v3.3H63.352v8.4A2.007,2.007,0,0,0,63.71,29.2a1.8,1.8,0,0,0,1.369.4A7.172,7.172,0,0,0,66.4,29.5v3.408a9.258,9.258,0,0,1-2.723.4q-4.731,0-4.824-4.777V19.461H56.4v-3.3h2.459V12.023Zm4.217,12.4a9.986,9.986,0,0,1,.965-4.466,7.063,7.063,0,0,1,2.778-3.035,8.1,8.1,0,0,1,4.209-1.074,7.667,7.667,0,0,1,5.563,2.085,8.369,8.369,0,0,1,2.4,5.665l.031,1.152a8.8,8.8,0,0,1-2.163,6.217,8.384,8.384,0,0,1-11.617.008,8.955,8.955,0,0,1-2.171-6.349Zm4.5.327a6.277,6.277,0,0,0,.9,3.665,3.246,3.246,0,0,0,5.135.016,6.868,6.868,0,0,0,.918-4.007,6.214,6.214,0,0,0-.918-3.641,2.986,2.986,0,0,0-2.583-1.292,2.937,2.937,0,0,0-2.552,1.284A6.984,6.984,0,0,0,72.067,24.752Zm21.46-.3a10.147,10.147,0,0,1,1.766-6.271,5.731,5.731,0,0,1,4.832-2.334,5.157,5.157,0,0,1,4.062,1.836V9.1H108.7V33h-4.062l-.218-1.79a5.292,5.292,0,0,1-4.326,2.1,5.716,5.716,0,0,1-4.77-2.342A10.474,10.474,0,0,1,93.527,24.457Zm4.5.327a6.629,6.629,0,0,0,.825,3.626,2.688,2.688,0,0,0,2.4,1.261,3.01,3.01,0,0,0,2.941-1.758V21.266a2.967,2.967,0,0,0-2.91-1.758Q98.024,19.508,98.024,24.783Zm21.911,8.528a8.266,8.266,0,0,1-6.03-2.272,8.076,8.076,0,0,1-2.326-6.054V24.55a10.172,10.172,0,0,1,.98-4.536,7.2,7.2,0,0,1,2.778-3.081,7.8,7.8,0,0,1,4.1-1.082,6.988,6.988,0,0,1,5.439,2.179,8.853,8.853,0,0,1,1.984,6.178v1.836H116.138a4.178,4.178,0,0,0,1.315,2.646,3.975,3.975,0,0,0,2.778,1,4.854,4.854,0,0,0,4.062-1.883l2.21,2.474a6.751,6.751,0,0,1-2.739,2.233A8.986,8.986,0,0,1,119.935,33.311Zm-.514-13.819a2.816,2.816,0,0,0-2.171.9,4.663,4.663,0,0,0-1.066,2.583h6.256V22.62a3.325,3.325,0,0,0-.809-2.311A2.907,2.907,0,0,0,119.421,19.492ZM145.1,33.311a8.266,8.266,0,0,1-6.03-2.272,8.076,8.076,0,0,1-2.326-6.054V24.55a10.172,10.172,0,0,1,.98-4.536,7.2,7.2,0,0,1,2.778-3.081,7.8,7.8,0,0,1,4.1-1.082,6.988,6.988,0,0,1,5.439,2.179,8.853,8.853,0,0,1,1.984,6.178v1.836H141.3a4.178,4.178,0,0,0,1.315,2.646,3.975,3.975,0,0,0,2.778,1,4.854,4.854,0,0,0,4.062-1.883l2.21,2.474a6.751,6.751,0,0,1-2.739,2.233A8.986,8.986,0,0,1,145.1,33.311Zm-.514-13.819a2.816,2.816,0,0,0-2.171.9,4.663,4.663,0,0,0-1.066,2.583H147.6V22.62a3.325,3.325,0,0,0-.809-2.311A2.907,2.907,0,0,0,144.585,19.492Zm9.29,4.933a10.065,10.065,0,0,1,1.766-6.271,5.774,5.774,0,0,1,4.848-2.3,5.17,5.17,0,0,1,4.311,2.07l.3-1.758h3.953V39.474h-4.513V31.553a5.184,5.184,0,0,1-4.077,1.758,5.732,5.732,0,0,1-4.793-2.334A10.558,10.558,0,0,1,153.875,24.425Zm4.5.327a6.584,6.584,0,0,0,.848,3.673,2.716,2.716,0,0,0,2.389,1.261,3.025,3.025,0,0,0,2.926-1.65V21.08a3,3,0,0,0-2.895-1.587,2.749,2.749,0,0,0-2.412,1.261A7.271,7.271,0,0,0,158.373,24.752Zm24.292,6.536a5.64,5.64,0,0,1-4.606,2.023,5.319,5.319,0,0,1-4.132-1.556,6.643,6.643,0,0,1-1.455-4.56V16.162h4.5V27.04q0,2.63,2.4,2.63a3.248,3.248,0,0,0,3.143-1.587V16.162h4.513V33h-4.233ZM195.161,33h-4.513V16.162h4.513Zm-4.777-21.2a2.215,2.215,0,0,1,.677-1.665,2.917,2.917,0,0,1,3.68,0,2.2,2.2,0,0,1,.685,1.665,2.208,2.208,0,0,1-.692,1.681,2.885,2.885,0,0,1-3.657,0A2.208,2.208,0,0,1,190.383,11.8ZM203.611,33H199.1V9.1h4.513Zm8.45,0h-4.513V16.162h4.513Zm-4.777-21.2a2.215,2.215,0,0,1,.677-1.665,2.917,2.917,0,0,1,3.68,0,2.2,2.2,0,0,1,.685,1.665,2.208,2.208,0,0,1-.692,1.681,2.885,2.885,0,0,1-3.657,0A2.208,2.208,0,0,1,207.284,11.8Zm23.654,12.932a10.2,10.2,0,0,1-1.727,6.31,5.722,5.722,0,0,1-4.824,2.264,5.257,5.257,0,0,1-4.373-2.1l-.2,1.79h-4.046V9.1h4.5v8.575a5.122,5.122,0,0,1,4.093-1.821,5.769,5.769,0,0,1,4.832,2.264,10.211,10.211,0,0,1,1.751,6.373Zm-4.5-.327a6.7,6.7,0,0,0-.809-3.727,2.736,2.736,0,0,0-2.412-1.175,2.967,2.967,0,0,0-2.957,1.758v6.645a3.007,3.007,0,0,0,2.988,1.774,2.777,2.777,0,0,0,2.863-2.148A11.078,11.078,0,0,0,226.44,24.41Zm16.729-4.031a12.218,12.218,0,0,0-1.618-.124q-2.552,0-3.346,1.727V33h-4.5V16.162h4.248l.124,2.007a4.167,4.167,0,0,1,3.75-2.319,4.712,4.712,0,0,1,1.4.2ZM250.079,33h-4.513V16.162h4.513ZM245.3,11.8a2.215,2.215,0,0,1,.677-1.665,2.917,2.917,0,0,1,3.68,0,2.2,2.2,0,0,1,.685,1.665,2.208,2.208,0,0,1-.692,1.681,2.885,2.885,0,0,1-3.657,0A2.208,2.208,0,0,1,245.3,11.8Zm7.781,12.621a9.986,9.986,0,0,1,.965-4.466,7.063,7.063,0,0,1,2.778-3.035,8.1,8.1,0,0,1,4.209-1.074,7.667,7.667,0,0,1,5.563,2.085A8.369,8.369,0,0,1,269,23.6l.031,1.152a8.8,8.8,0,0,1-2.163,6.217,8.384,8.384,0,0,1-11.617.008,8.955,8.955,0,0,1-2.171-6.349Zm4.5.327a6.277,6.277,0,0,0,.9,3.665,3.246,3.246,0,0,0,5.135.016,6.868,6.868,0,0,0,.918-4.007,6.214,6.214,0,0,0-.918-3.641,2.986,2.986,0,0,0-2.583-1.292,2.937,2.937,0,0,0-2.552,1.284A6.984,6.984,0,0,0,257.579,24.752Z" transform="translate(71.78 7768.606)" fill="#fff"/><text transform="translate(352.393 7771.995)" fill="#fff" font-size="31.871" font-family="Roboto-Bold, Roboto" font-weight="700"><tspan x="0" y="33">=</tspan></text><line x2="623.254" transform="translate(392.042 7794.561)" fill="none" stroke="#fff" stroke-miterlimit="10" stroke-width="2"/></g></svg>