<svg xmlns="http://www.w3.org/2000/svg" width="382.741" height="318.386" viewBox="0 0 382.741 318.386"><g transform="translate(-1035.293 -3017.999)"><g transform="translate(121.112 -5928.813)"><path d="M914.443,8946.811h342.147c11.211,0,20.3,11.017,20.3,24.6v269.181c0,13.588-9.087,24.6-20.3,24.6H914.443c-11.21,0-20.3-11.015-20.3-24.6V8971.413C894.147,8957.827,903.234,8946.811,914.443,8946.811Z" transform="translate(20.035 0.001)" fill="#97c2e8" opacity="0.25" style="isolation:isolate"/><g transform="translate(1026.69 8965.85)"><path d="M1096.783,9013.609c.057,0,2.093.364,2.093.364l1.671,1.633.584.579a9.58,9.58,0,0,0,3.948,2.36l3.419,2.055,1.613-4-3.719-1.4-3-3.38-2.266-1.69-1.978-1.152-3.819-.347c-.732,0-.684.8-.108.778l-.488.223c-.588.239-.224.979.21.94h.538c-.452.25-.346.873.288.883l1.421.059,1.748.5.729.558-2.573-.288C1095.728,9012.188,1095.592,9013.341,1096.783,9013.609Z" transform="translate(-1001.852 -8964.366)" fill="#ffb294"/><path d="M1034.028,8982.9l61.454,106.441,7.134-4.118c8.054-4.469,13.062-14.273,13.062-28.326,0-27.712-19.455-61.408-43.454-75.265-12.17-7.025-23.166-7.59-31.053-2.837C1041.162,8978.778,1034.028,8982.9,1034.028,8982.9Z" transform="translate(-1003.301 -8965.156)" fill="#ff9238"/><ellipse cx="35.48" cy="61.453" rx="35.48" ry="61.453" transform="translate(0 35.481) rotate(-30)" fill="#ffc366"/><path d="M1037.023,8987.551c.39-.226.792-.432,1.189-.622,6.507-3.081,15.147-1.93,24.535,3.293,10.965,6.1,21.244,16.832,28.967,30.208s11.874,27.641,11.672,40.181c-.172,10.74-3.489,18.808-9.41,22.9-.364.249-.743.494-1.133.72-6.615,3.818-15.752,2.863-25.719-2.686-10.96-6.1-21.238-16.823-28.961-30.2s-11.874-27.643-11.678-40.19C1026.661,8999.75,1030.408,8991.368,1037.023,8987.551Z" transform="translate(-1003.482 -8964.927)" fill="#ff9238"/><path d="M1038.158,8986.929c6.507-3.081,15.147-1.93,24.535,3.293,10.965,6.1,21.244,16.832,28.967,30.208s11.874,27.641,11.672,40.181c-.172,10.74-3.489,18.808-9.41,22.9-6.508,3.081-15.152,1.919-24.54-3.3-10.95-6.1-21.238-16.824-28.961-30.2s-11.864-27.647-11.679-40.19C1028.914,8999.081,1032.236,8991.023,1038.158,8986.929Z" transform="translate(-1003.428 -8964.927)" fill="#ffc366"/><g transform="translate(44.88 33.944)"><path d="M1066.392,9004.9a36.591,36.591,0,0,1,6.328,4.89,42.981,42.981,0,0,1,4.827,5.481,28.083,28.083,0,0,1,3.085,5.192,9.754,9.754,0,0,1,1.028,3.971,4.063,4.063,0,0,1-.308,1.457,2.83,2.83,0,0,1-.794,1.115,2.164,2.164,0,0,1-1.156.5,2.036,2.036,0,0,1-1.322-.336,6.02,6.02,0,0,1-1.805-2.062q-.906-1.51-2.22-3.526a43.505,43.505,0,0,0-3.189-4.252,24.7,24.7,0,0,0-4.71-4.236l-.573,19.962q2.515,2.583,5.023,5.335a42,42,0,0,1,4.474,5.864,31.094,31.094,0,0,1,3.158,6.609,21.391,21.391,0,0,1,1.076,7.578,12.174,12.174,0,0,1-1.431,6.08,6.36,6.36,0,0,1-3.353,2.777,8.372,8.372,0,0,1-4.607.105,24.617,24.617,0,0,1-5.272-1.9l-.071,2.463a.975.975,0,0,1-.638.991,1.884,1.884,0,0,1-1.587-.371,5.063,5.063,0,0,1-1.516-1.544,3.257,3.257,0,0,1-.671-1.81l.067-2.315a41.37,41.37,0,0,1-4.027-2.867,43.2,43.2,0,0,1-3.969-3.569,21.652,21.652,0,0,1-2.975-3.739,6.313,6.313,0,0,1-1.119-3.422,5.468,5.468,0,0,1,.228-1.334,3.375,3.375,0,0,1,.645-1.253,1.818,1.818,0,0,1,1.083-.635,2.1,2.1,0,0,1,1.472.386,5.977,5.977,0,0,1,1.409,1.3q.736.883,1.729,2.057t2.4,2.558a26.787,26.787,0,0,0,3.345,2.75l.5-17.244q-2.439-2.536-4.831-5.349a41.924,41.924,0,0,1-4.278-6.045,31.988,31.988,0,0,1-3-6.944,25.384,25.384,0,0,1-.986-8.041q.226-7.816,4.127-9.866t9.986.738l.083-2.887a.879.879,0,0,1,.75-.923,2.093,2.093,0,0,1,1.55.348,4.586,4.586,0,0,1,1.552,1.566,3.283,3.283,0,0,1,.56,1.741Zm5.419,49.8a10.4,10.4,0,0,0-.471-3.446,14.1,14.1,0,0,0-1.469-3.192,25.441,25.441,0,0,0-2.233-3.06q-1.287-1.526-2.766-3.041l-.445,15.459a8.358,8.358,0,0,0,5.221,1.049Q1071.716,9058.007,1071.811,9054.7Zm-16.445-39.5a13.606,13.606,0,0,0,1.733,7.246,36.979,36.979,0,0,0,4.575,6.315l.514-17.923q-3.084-1.207-4.9-.248T1055.366,9015.19Z" transform="translate(-1047.849 -8998.552)" fill="#ff9238"/></g><path d="M1106.662,9022.2c-1.729-2.477.98-7.144,3.117-6.581a90.024,90.024,0,0,1,14.571,6.352c4.671,2.551,10.943,5.91,14.164,10.114,1.453,5.374-.665,9.065-4.029,9.936l-12.786-12.675Z" transform="translate(-1001.572 -8964.199)" fill="#3b5770"/><path d="M1094.72,9025.44l-.932-2.984-2.525-2.776-1.882-3.149-1.382-2.766-.125-1.065c-.173-1.1.662-1.3.906-.373l.217.978,1.382,2.075-1.036-2.827-.408-1.556c-.361-1.293.436-1.744.829-.727l.653,1.959,1.152,1.843-1.114-2.687-.768-2.421c-.268-.979.509-1.488,1-.537l.961,2.419,1.421,2.613-1-3.188-.37-1.916c-.245-1.147.571-1.455,1.022-.272l.692,2.072,1.305,2.844,1.575,2.419-.384-2.073-1.076-1.307c-.6-.835-.047-1.546.615-.96l1.5,1.476,1.191,2.827v4.646l1.307,3.728Z" transform="translate(-1002.01 -8964.397)" fill="#ffb294"/><path d="M1126.754,9062.5c-4.944,4.167-10.182,8.1-10.7,15.72.567,5.591,13.257,13.1,22.54,19.471,2.445,1.539,7.6-3.75,5.658-6.83a106.66,106.66,0,0,0-13.37-12.235l4.457-7.7Z" transform="translate(-1001.333 -8963.074)" fill="#2a3d4f"/><path d="M1138.2,9100.555l-.486-3.707,1.755-3.9a3.453,3.453,0,0,1,3.923-1.951l.774.177a9.064,9.064,0,0,1,3.085,2.658,1.414,1.414,0,0,1,.234,1.389l-.479,1.3.757,2.055a11.617,11.617,0,0,1-5.619,5.671Z" transform="translate(-1000.814 -8962.393)"/><path d="M1146.376,9121.042l2.431,3.944-1.036,1.943a4.264,4.264,0,0,1-3.136,2.169,4.18,4.18,0,0,0-3.066,1.883c-.756,1.677.971,3.725,4.916,4a11.286,11.286,0,0,0,6.374-3.349l1.023.525c2.457-1.312,4.24-2.441,5.057-4.084-1.495-3.729-2.83-5.525-4.891-6.489l-3.458-3.4Z" transform="translate(-1000.725 -8961.738)"/><path d="M1148.417,9127.372a98.338,98.338,0,0,0-10.317-11.694,123.319,123.319,0,0,1-9.779-10.427,103.081,103.081,0,0,1-6.537-27.752c-.072-.717-.133-1.433-.188-2.148l13.614-1.459c.023.39.048.778.074,1.168.224,3.156.606,6.226,1.054,9.242.781,5.248,1.763,10.351,2.48,15.521,5.5,5.1,11.312,13.793,17.217,23.579C1156.764,9125.509,1149.552,9129.642,1148.417,9127.372Z" transform="translate(-1001.2 -8962.801)" fill="#2a3d4f"/><path d="M1138.1,9115.658a123.319,123.319,0,0,1-9.779-10.427,103.081,103.081,0,0,1-6.537-27.752l13.289-2.771.21.331c.224,3.156.606,6.226,1.054,9.242a12.757,12.757,0,0,1-3.795,1.6,6.718,6.718,0,0,0-4.908,8.157,79.883,79.883,0,0,0,2.6,8.651Z" transform="translate(-1001.196 -8962.781)" fill="#2a3d4f" opacity="0.3" style="mix-blend-mode:multiply;isolation:isolate"/><path d="M1143.559,9068.176a14.671,14.671,0,0,1-5.355,11.465c-2.939,2.172-7.905,2.752-12.158,2.389a20.41,20.41,0,0,1-5.361-1.109c-2.519-2.314-.95-9.168-.956-14.676,0-4.527-2.732-7.863-4.917-14.838a55.2,55.2,0,0,1-2.1-10.012l4.918-2.742,15.776-7.412a19.818,19.818,0,0,1,4.954.469c4.765,7.795,2.787,18.852,3.63,26.863C1142.436,9062.871,1143.559,9068.176,1143.559,9068.176Z" transform="translate(-1001.413 -8963.823)" fill="#3b5770"/><path d="M1126.029,9081.688a20.412,20.412,0,0,1-5.361-1.108c-2.519-2.314-.669-9.177-.956-14.676-.195-3.731-4.515-11.628-6.322-20.174,1.067-1.06,5.68,1.1,5.324,1.5-.428.485,3.832,11.45,3.079,17.78C1120.882,9072.682,1125.446,9080.707,1126.029,9081.688Z" transform="translate(-1001.397 -8963.483)" fill="#2a3d4f" opacity="0.3" style="mix-blend-mode:multiply;isolation:isolate"/><g transform="translate(111.295 50.793)"><path d="M1118.493,9016.546c-3.87.361-4.821,1.891-4.531,5.351-.905,1.9,1.543,6.21,2.771,8.844a2.441,2.441,0,0,0,2.625,1.706c.578.1.813.631,1,1.186a6.409,6.409,0,0,1,.239,2.271c4.544-.35,8.343-1.382,9.733-4.61l-2.057-1.7-3.361-13.045Z" transform="translate(-1112.683 -9014.969)" fill="#ffb294"/><path d="M1113.79,9023.349c.624.035,1.481-.394,2.53,1.642.4.783.813,1.674.813,1.674l2.188.4,1.233,2.774c.39.879,1.8,2.339,2.764,2.35a7.874,7.874,0,0,0,5.088-2.264s.8-5.717,0-8.388-1.387-4.787-3.911-5.97-6.842-.321-8.824,1.018C1111.5,9019.59,1112.6,9022.6,1113.79,9023.349Z" transform="translate(-1112.708 -9015.007)"/><path d="M1117.785,9027.212a3.488,3.488,0,0,1-.271-1.184,1.1,1.1,0,0,1,.316-.955.839.839,0,0,1,.931.013,1.847,1.847,0,0,1,.619.759,3.926,3.926,0,0,1,.378,2.653c-.062.259-.2.551-.467.591s-.479-.189-.637-.4a11.737,11.737,0,0,1-1.1-1.806Z" transform="translate(-1112.593 -9014.768)" fill="#ffb294"/></g><path d="M1118.055,9037.766l2.186-3.006c4.6-.3,9.184-2.392,10.115-4.2l2.423,1.121-5.11,4.448Z" transform="translate(-1001.285 -8963.84)" fill="#fff"/><path d="M1114.777,9038.336s6.515,3.642,16.05-2.087c3.182-1.912,3.436-3.817,3.436-3.817.186-.884-1.405-1.685-2.883-1.44-.98,3.541-8.881,5-12.3,5.463Z" transform="translate(-1001.364 -8963.83)" fill="#1e3a47"/><path d="M1092.946,9024c2.088,6.46,3.163,10.835,5.52,14.113,2.053,3.11,10.328,7.764,15.953,10.676,2.75,1.424,5.041.32,6.337-2.492l.82-1.312c1.231-4.6-2.545-6.481-5.526-7.545a53.7,53.7,0,0,1-11.7-6.124l-5.3-10.312C1097.44,9019.214,1092.946,9021.287,1092.946,9024Z" transform="translate(-1001.887 -8964.085)" fill="#3b5770"/></g></g><path d="M14.32,25.969H11.352V34H5.867V11.25H14.82a9.985,9.985,0,0,1,6.328,1.8,6.091,6.091,0,0,1,2.281,5.078,7.4,7.4,0,0,1-.961,3.938,6.822,6.822,0,0,1-3.008,2.531l4.75,9.172V34H18.336Zm-2.969-4.234H14.82a3.118,3.118,0,0,0,2.352-.82,3.166,3.166,0,0,0,.789-2.289,3.2,3.2,0,0,0-.8-2.3,3.089,3.089,0,0,0-2.344-.836H11.352ZM34.68,34.313a8.691,8.691,0,0,1-6.3-2.32,8.013,8.013,0,0,1-2.406-6.039v-.437a10.383,10.383,0,0,1,.961-4.578,7.031,7.031,0,0,1,2.8-3.07,8.467,8.467,0,0,1,4.375-1.086,7.318,7.318,0,0,1,5.625,2.211A8.688,8.688,0,0,1,41.8,25.156V27.2H31.336a3.8,3.8,0,0,0,1.234,2.234,3.673,3.673,0,0,0,2.469.813,4.732,4.732,0,0,0,3.906-1.75l2.406,2.844a6.726,6.726,0,0,1-2.789,2.164A9.425,9.425,0,0,1,34.68,34.313Zm-.594-13.469q-2.313,0-2.75,3.063h5.313V23.5a2.608,2.608,0,0,0-.641-1.961A2.549,2.549,0,0,0,34.086,20.844Zm14.672-3.75.172,1.984a5.733,5.733,0,0,1,4.828-2.3A4.823,4.823,0,0,1,57.7,18.359a7.513,7.513,0,0,1,1.352,4.75V34H53.773V23.328a2.853,2.853,0,0,0-.516-1.883,2.385,2.385,0,0,0-1.875-.6,2.511,2.511,0,0,0-2.3,1.219V34H43.82V17.094Zm19.344-4.2v4.2h2.781V20.75H68.1v7.734a1.975,1.975,0,0,0,.344,1.328,1.844,1.844,0,0,0,1.359.375,7.725,7.725,0,0,0,1.313-.094v3.766a9.718,9.718,0,0,1-2.969.453,5.516,5.516,0,0,1-4.016-1.281,5.252,5.252,0,0,1-1.3-3.891V20.75H60.68V17.094h2.156v-4.2ZM82.477,34a5.946,5.946,0,0,1-.5-1.516,4.9,4.9,0,0,1-4.062,1.828,6,6,0,0,1-4.062-1.445,4.6,4.6,0,0,1-1.672-3.633,4.728,4.728,0,0,1,2.031-4.156,10.348,10.348,0,0,1,5.906-1.406h1.625v-.891q0-2.328-2.016-2.328A1.644,1.644,0,0,0,77.852,22.3H72.586a4.728,4.728,0,0,1,2.086-3.984,8.759,8.759,0,0,1,5.32-1.531A7.686,7.686,0,0,1,85.1,18.359a5.487,5.487,0,0,1,1.922,4.328v7.484a7.665,7.665,0,0,0,.719,3.563V34Zm-3.3-3.437a2.937,2.937,0,0,0,1.633-.422,2.644,2.644,0,0,0,.93-.953v-2.7H80.211q-2.75,0-2.75,2.469a1.507,1.507,0,0,0,.484,1.164A1.753,1.753,0,0,0,79.18,30.563Zm26.453-4.875a10.3,10.3,0,0,1-1.719,6.391,5.757,5.757,0,0,1-4.844,2.234,5,5,0,0,1-4.156-2.047L94.7,34H89.977V10h5.266v8.453a4.82,4.82,0,0,1,3.8-1.672,5.759,5.759,0,0,1,4.875,2.266,10.357,10.357,0,0,1,1.719,6.375Zm-5.281-.328a6.894,6.894,0,0,0-.648-3.477,2.185,2.185,0,0,0-1.992-1.039A2.52,2.52,0,0,0,95.242,22.2v6.719a2.534,2.534,0,0,0,2.5,1.344,2.237,2.237,0,0,0,2.359-1.812A13.036,13.036,0,0,0,100.352,25.359ZM113.508,34h-5.281V17.094h5.281Zm-5.594-21.266a2.35,2.35,0,0,1,.813-1.844,3.455,3.455,0,0,1,4.219,0,2.35,2.35,0,0,1,.813,1.844,2.35,2.35,0,0,1-.812,1.844,3.455,3.455,0,0,1-4.219,0A2.35,2.35,0,0,1,107.914,12.734ZM122.3,34h-5.281V10H122.3Zm8.8,0H125.82V17.094H131.1Zm-5.594-21.266a2.35,2.35,0,0,1,.813-1.844,3.455,3.455,0,0,1,4.219,0,2.35,2.35,0,0,1,.813,1.844,2.35,2.35,0,0,1-.812,1.844,3.455,3.455,0,0,1-4.219,0A2.35,2.35,0,0,1,125.508,12.734Zm8.172,12.688a10.327,10.327,0,0,1,1.734-6.328,5.709,5.709,0,0,1,4.844-2.312,4.855,4.855,0,0,1,3.813,1.781V10h5.281V34h-4.734l-.266-1.812a4.986,4.986,0,0,1-4.125,2.125A5.7,5.7,0,0,1,135.445,32,10.655,10.655,0,0,1,133.68,25.422Zm5.266.328q0,4.5,2.625,4.5a2.592,2.592,0,0,0,2.5-1.469V22.344a2.522,2.522,0,0,0-2.469-1.5q-2.437,0-2.641,3.938ZM161.867,34a5.945,5.945,0,0,1-.5-1.516,4.9,4.9,0,0,1-4.062,1.828,6,6,0,0,1-4.062-1.445,4.6,4.6,0,0,1-1.672-3.633,4.728,4.728,0,0,1,2.031-4.156,10.348,10.348,0,0,1,5.906-1.406h1.625v-.891q0-2.328-2.016-2.328a1.644,1.644,0,0,0-1.875,1.844h-5.266a4.728,4.728,0,0,1,2.086-3.984,8.759,8.759,0,0,1,5.32-1.531,7.686,7.686,0,0,1,5.109,1.578,5.487,5.487,0,0,1,1.922,4.328v7.484a7.665,7.665,0,0,0,.719,3.563V34Zm-3.3-3.437a2.937,2.937,0,0,0,1.633-.422,2.644,2.644,0,0,0,.93-.953v-2.7H159.6q-2.75,0-2.75,2.469a1.507,1.507,0,0,0,.484,1.164A1.753,1.753,0,0,0,158.57,30.563Zm10.094-5.141a10.327,10.327,0,0,1,1.734-6.328,5.709,5.709,0,0,1,4.844-2.312,4.855,4.855,0,0,1,3.813,1.781V10h5.281V34H179.6l-.266-1.812a4.986,4.986,0,0,1-4.125,2.125A5.7,5.7,0,0,1,170.43,32,10.655,10.655,0,0,1,168.664,25.422Zm5.266.328q0,4.5,2.625,4.5a2.592,2.592,0,0,0,2.5-1.469V22.344a2.522,2.522,0,0,0-2.469-1.5q-2.437,0-2.641,3.938Z" transform="translate(1125 3242.669)" fill="#12263f"/></g></svg>