<svg xmlns="http://www.w3.org/2000/svg" width="212.288" height="214.511" viewBox="0 0 212.288 214.511">
  <g id="Grupo_64824" data-name="Grupo 64824" transform="translate(-1077.51 -4661.217)">
    <rect id="Rect치ngulo_19306" data-name="Rect치ngulo 19306" width="212.288" height="214.511" transform="translate(1077.51 4661.217)" fill="none"/>
    <g id="Grupo_64823" data-name="Grupo 64823">
      <g id="_Group_2" data-name=" Group 2">
        <path id="Trazado_141461" data-name="Trazado 141461" d="M1266.372,4767.909v69.656a7.959,7.959,0,0,1-7.955,7.959h-47.229a7.956,7.956,0,0,1-7.954-7.958h0v-69.656a7.952,7.952,0,0,1,7.952-7.954h10.745v.024a5.914,5.914,0,0,0,5.912,5.914h13.917a5.913,5.913,0,0,0,5.914-5.912v-.026h10.743A7.955,7.955,0,0,1,1266.372,4767.909Zm-41.042,44.1v-11.367h-11.364v11.367Z" fill="#f8ec7d"/>
        <path id="Trazado_141462" data-name="Trazado 141462" d="M1221.931,4759.955v-.362a5.914,5.914,0,0,1,5.912-5.915h13.917a5.914,5.914,0,0,1,5.914,5.912v.389a5.913,5.913,0,0,1-5.911,5.914h-13.917a5.913,5.913,0,0,1-5.915-5.912v-.026Z" fill="#6fe3ff"/>
        <path id="Trazado_141463" data-name="Trazado 141463" d="M1230.289,4728.894v24.784h-2.443a5.914,5.914,0,0,0-5.915,5.912v.365h-10.743a7.952,7.952,0,0,0-7.954,7.952v51.288l-37.624,21.721v-74.689l64.673-37.337Z" fill="#c16752"/>
        <path id="Trazado_141464" data-name="Trazado 141464" d="M1165.61,4766.228l-32.97-19.036,64.669-37.341h0l32.97,19.039Z" fill="#af593c"/>
        <rect id="Rect치ngulo_19307" data-name="Rect치ngulo 19307" width="11.363" height="11.367" transform="translate(1213.966 4800.642)" fill="#6fe3ff"/>
        <path id="Trazado_141465" data-name="Trazado 141465" d="M1197.309,4709.851l-64.669,37.341-31.7-18.3,64.669-37.34Z" fill="#af593c"/>
        <path id="Trazado_141466" data-name="Trazado 141466" d="M1165.61,4766.228v74.688l-64.676-37.341v-74.681l.007,0,31.7,18.3Z" fill="#e48e66"/>
        <path id="Trazado_141467" data-name="Trazado 141467" d="M1258.417,4757.508h-8.586a8.454,8.454,0,0,0-8.071-6.2h-9.165v-22.41a2.374,2.374,0,0,0-1.166-2.1l-32.937-19.035-1.13,2.092h.078v-.006l1.14-2.086-31.731-18.3a2.442,2.442,0,0,0-2.429,0l-64.643,37.321a2.423,2.423,0,0,0-1.255,2.113v74.681a2.413,2.413,0,0,0,1.206,2.089L1164.4,4843a2.412,2.412,0,0,0,1.206.323,2.531,2.531,0,0,0,1.241-.323l34.035-19.633v14.193a10.218,10.218,0,0,0,10.19,10.244h47.341a10.272,10.272,0,0,0,10.367-10.174v-69.726A10.409,10.409,0,0,0,1258.417,4757.508Zm-13.069,2.085v.386a3.486,3.486,0,0,1-3.588,3.388h-13.914a3.435,3.435,0,0,1-3.522-3.342v-.432a3.491,3.491,0,0,1,3.518-3.464h13.919A3.55,3.55,0,0,1,1245.348,4759.593Zm-19.89-30.7-59.848,34.552-28.145-16.25,59.845-34.556Zm-59.848-34.554,26.874,15.515-59.844,34.555-26.874-15.516Zm-62.263,38.729,59.971,34.555v69.117l-59.971-34.555Zm64.8,103.672v-69.116l59.626-34.556V4751.3h.076a8.452,8.452,0,0,0-8.072,6.2h-8.586a10.353,10.353,0,0,0-10.3,10.4V4817.8Zm95.815.827a5.441,5.441,0,0,1-5.464,5.42h-47.307a5.388,5.388,0,0,1-5.476-5.3c0-.041,0-.082,0-.123v-69.656a5.521,5.521,0,0,1,5.467-5.576h8.69a8.254,8.254,0,0,0,7.977,5.859h13.914a8.251,8.251,0,0,0,7.976-5.859h8.681a5.576,5.576,0,0,1,5.542,5.576Z" fill="#383a01"/>
        <path id="Trazado_141468" data-name="Trazado 141468" d="M1213.966,4792.318h2.527a2.412,2.412,0,0,0,0-4.825h-.1v-6.549h6.652a2.325,2.325,0,0,0,2.3,1.629,2.42,2.42,0,0,0,2.427-2.407v-1.624a2.445,2.445,0,0,0-2.44-2.423h-11.364a2.406,2.406,0,0,0-2.395,2.418v11.372a2.394,2.394,0,0,0,2.381,2.409Z" fill="#383a01"/>
        <path id="Trazado_141469" data-name="Trazado 141469" d="M1227.77,4800.59a2.412,2.412,0,0,0-2.413-2.412h-11.373a2.412,2.412,0,0,0-2.413,2.412v11.374a2.413,2.413,0,0,0,2.413,2.413h11.373a2.413,2.413,0,0,0,2.413-2.413ZM1216.4,4803h6.549v6.548H1216.4Z" fill="#383a01"/>
        <path id="Trazado_141470" data-name="Trazado 141470" d="M1216.493,4831.61h-.1v-6.549h6.523a2.426,2.426,0,0,0,4.851,0v-2.323a2.516,2.516,0,0,0-2.44-2.506h-11.364a2.479,2.479,0,0,0-2.395,2.506V4834.1a2.328,2.328,0,0,0,2.326,2.331h2.6a2.413,2.413,0,0,0,0-4.825Z" fill="#383a01"/>
        <path id="Trazado_141471" data-name="Trazado 141471" d="M1230.886,4779.08l-7.066,7.065-2.151-2.149a2.413,2.413,0,0,0-3.412,3.413l3.857,3.853a2.413,2.413,0,0,0,3.412,0h0l8.772-8.772a2.413,2.413,0,1,0-3.412-3.412Z" fill="#383a01"/>
        <path id="Trazado_141472" data-name="Trazado 141472" d="M1230.886,4823.627l-7.066,7.066-2.151-2.149a2.413,2.413,0,0,0-3.412,3.412l3.857,3.853a2.412,2.412,0,0,0,3.412,0h0l8.772-8.771a2.413,2.413,0,1,0-3.412-3.412Z" fill="#383a01"/>
        <path id="Trazado_141473" data-name="Trazado 141473" d="M1255.639,4781.978h-15.154a2.413,2.413,0,0,0,0,4.826h15.154a2.413,2.413,0,0,0,0-4.826Z" fill="#383a01"/>
        <path id="Trazado_141474" data-name="Trazado 141474" d="M1255.639,4804.037h-15.154a2.412,2.412,0,1,0,0,4.825h15.154a2.412,2.412,0,1,0,0-4.825Z" fill="#383a01"/>
        <path id="Trazado_141475" data-name="Trazado 141475" d="M1255.639,4826.1h-15.154a2.412,2.412,0,1,0,0,4.825h15.154a2.412,2.412,0,1,0,0-4.825Z" fill="#383a01"/>
      </g>
    </g>
  </g>
</svg>
