<svg xmlns="http://www.w3.org/2000/svg" width="373.546" height="423.879" viewBox="0 0 373.546 423.879"><g transform="translate(-1446.235 -220.361)"><ellipse cx="179.279" cy="103.507" rx="179.279" ry="103.507" transform="translate(1461.222 437.226)" opacity="0.2"/><path d="M1446.235,517.788V500.342l29.494-5.7-2.35,15.825-15.143,12.01Z" transform="translate(0 16.333)" fill="#d2d7db"/><path d="M1786.635,517.855V496.593h-35.462l4.112,33.492,3.525,13.042Z" transform="translate(18.159 16.45)" fill="#d2d7db"/><ellipse cx="179.279" cy="103.507" rx="179.279" ry="103.507" transform="translate(1446.235 430.614)" fill="#d2d7db"/><ellipse cx="179.279" cy="103.507" rx="179.279" ry="103.507" transform="translate(1446.235 412.248)" fill="#e7edf1"/><g transform="translate(1664.044 348.565)"><g transform="translate(0 83.632)"><path d="M1687.279,482.452s-1.942-12.754-6.739-17.441-18.271-11.18-22.028-16.385c-4.77-6.607-7.876-10.5-6.293-28.333-.029.7-.171,12.053,20.9,24.722,21.474,12.915,14.349,36.827,14.165,37.426Z" transform="translate(-1651.803 -420.292)" fill="#73b72b"/><path d="M1687.261,482.441c.066-.451,2.123-14.994-7.5-25.121-9.773-10.286-12.776-8.569-19.14-15.973-5.645-6.569-8.939-14.212-8.422-21.055-.029.7-.171,12.053,20.9,24.722C1694.571,457.929,1687.445,481.841,1687.261,482.441Z" transform="translate(-1651.782 -420.292)" fill="#5f9f31"/></g><g transform="translate(9.673 54.079)"><path d="M1700.156,461.669a12.9,12.9,0,0,0-.181-2.253c-.82-5.407-5.208-19.9-28.342-36.984,0,0-16.263-12.577-8.693-30.033v0a36.476,36.476,0,0,0,9.077,13.16C1680.376,413.246,1705.3,427.406,1700.156,461.669Z" transform="translate(-1660.932 -392.4)" fill="#73b72b"/><path d="M1700.044,461.669c-.041-.65-.1-1.4-.181-2.253-.838-8.542-4.254-26.4-18.787-36.226-15.859-10.723-18.213-30.478-18.247-30.787a36.474,36.474,0,0,0,9.077,13.16C1680.263,413.245,1705.182,427.406,1700.044,461.669Z" transform="translate(-1660.819 -392.4)" fill="#5f9f31"/></g><g transform="translate(38.583 37.372)"><path d="M1715.639,444.043c3.141-18.31-9.23-30.827-20.6-42.581-9.349-9.667-6.4-24.36-6.309-24.818l0-.012a25.163,25.163,0,0,0,8.8,14.953c11.6,8.819,13.422,10.9,16.494,15.689C1726.063,426.016,1715.639,444.043,1715.639,444.043Z" transform="translate(-1688.217 -376.632)" fill="#73b72b"/><path d="M1715.616,444.043a37.887,37.887,0,0,0,.814-16.059,47.252,47.252,0,0,0-17.615-30.544c-11.765-9.561-10.167-20.42-10.108-20.8l0-.012a25.163,25.163,0,0,0,8.8,14.953c11.6,8.819,13.422,10.9,16.494,15.689C1726.04,426.016,1715.616,444.043,1715.616,444.043Z" transform="translate(-1688.194 -376.632)" fill="#5f9f31"/></g><g transform="translate(57.221 30.312)"><path d="M1734.481,420.046a6.93,6.93,0,0,0,.09-1.343c-.06-3.223-1.834-11.656-17.045-20.269-19.371-10.97-8.884-28.465-8.884-28.465v.009c.012.358.383,10.609,9.984,15.287C1728.39,390.024,1739.112,402.46,1734.481,420.046Z" transform="translate(-1705.807 -369.968)" fill="#73b72b"/><path d="M1734.343,420.067c.048-.452.08-.906.1-1.366.362-10.037-6.65-22.311-17.771-29.2-11.453-7.09-8.265-19.153-8.16-19.53.012.358.383,10.609,9.984,15.287,9.766,4.761,20.487,17.2,15.856,34.782A.077.077,0,0,1,1734.343,420.067Z" transform="translate(-1705.675 -369.967)" fill="#5f9f31"/></g><g transform="translate(68.522 19.582)"><path d="M1737.041,392.235l-.006-.022c-.008-.035-.021-.087-.042-.157a.038.038,0,0,0-.005-.018c-.321-1-2.229-5.231-12.516-11.268-11.684-6.856-7.152-20.6-7.041-20.922v-.006s7.946,6.2,9.429,12.658,8.325,13.3,9.035,14.9A23.649,23.649,0,0,1,1737.041,392.235Z" transform="translate(-1716.473 -359.841)" fill="#73b72b"/><path d="M1736.99,392.252c0-.015-.006-.028-.01-.039-.015-.053-.026-.1-.042-.157a.038.038,0,0,0-.005-.018c-1.463-5.62-6.585-9.627-12.593-16.106-5.995-6.459-6.936-15.793-6.964-16.084v-.006s7.946,6.2,9.429,12.658,8.325,13.3,9.035,14.9a23.649,23.649,0,0,1,1.147,4.83Z" transform="translate(-1716.42 -359.841)" fill="#5f9f31"/></g><g transform="translate(77.158)"><path d="M1731.006,365.03c-12.464-14.171-2.829-23.67-2.829-23.67C1736.549,348.342,1731.006,365.03,1731.006,365.03Z" transform="translate(-1724.624 -341.36)" fill="#73b72b"/><path d="M1730.807,365.03c-3.154-7.475-2.829-23.67-2.829-23.67C1736.35,348.342,1730.807,365.03,1730.807,365.03Z" transform="translate(-1724.425 -341.36)" fill="#5f9f31"/></g><g transform="translate(83.63 8.058)"><path d="M1730.732,364.679c18.743-2.2,17.932-15.707,17.932-15.707C1737.771,348.565,1730.732,364.679,1730.732,364.679Z" transform="translate(-1730.732 -348.965)" fill="#73b72b"/><path d="M1730.732,364.679c7.344-3.448,17.932-15.707,17.932-15.707C1737.771,348.565,1730.732,364.679,1730.732,364.679Z" transform="translate(-1730.732 -348.965)" fill="#5f9f31"/></g><g transform="translate(40.291 123.919)"><path d="M1758.7,465.006c-.015.022-.066.1-.159.212l-.032.038c-1.6,1.992-13.195,14.708-42.684,6.438,0,0-11.118-3.268-26,.067-.22.052,11.331-19.09,39.114-11.784C1755.862,467.054,1758.56,465.131,1758.7,465.006Z" transform="translate(-1689.829 -458.314)" fill="#73b72b"/><path d="M1758.512,464.866c-1.6,1.992-13.195,14.708-42.684,6.438,0,0-11.118-3.268-26,.067,0,0,12.154-10.226,32.506-4.951S1758.512,464.866,1758.512,464.866Z" transform="translate(-1689.829 -457.924)" fill="#5f9f31"/></g><g transform="translate(55.975 103.138)"><path d="M1747.491,452.351c-18.158-4.28-31.855-5.253-42.859-.882,0,0,.1-.124.305-.343,1.981-2.148,13.573-13.658,33.4-12.316,21.856,1.479,21.783,4.5,34.985.96C1773.324,439.77,1765.645,456.631,1747.491,452.351Z" transform="translate(-1704.632 -438.702)" fill="#5f9f31"/></g><g transform="translate(87.283 13.768)"><path d="M1741.176,378.183s-5.327,4.894-6.838,7.686c0,0-1.519-8.3,4.88-18.261s9.324-5.858,12.229-13.254v.006C1751.472,354.642,1752.389,366.888,1741.176,378.183Z" transform="translate(-1734.18 -354.354)" fill="#73b72b"/><path d="M1741.167,378.183s-5.327,4.894-6.838,7.686a90.423,90.423,0,0,1,10.485-19.062c7.354-10.441,6.377-10.61,6.624-12.447C1751.463,354.642,1752.381,366.888,1741.167,378.183Z" transform="translate(-1734.171 -354.354)" fill="#5f9f31"/></g><g transform="translate(90.066 43.37)"><path d="M1750.581,399.035c-3.766.471-8.279,1.644-13.774,6.386a24.9,24.9,0,0,1,18.026-15.033c13.736-2.941,16.483-7.958,16.557-8.1C1771.376,382.474,1770.129,396.578,1750.581,399.035Z" transform="translate(-1736.807 -382.292)" fill="#73b72b"/><path d="M1750.581,399.035c-3.766.471-8.279,1.644-13.774,6.386.073-.136,4.17-7.748,18.251-11.736,14.041-3.974,16.281-11.222,16.332-11.393C1771.376,382.474,1770.129,396.578,1750.581,399.035Z" transform="translate(-1736.807 -382.292)" fill="#5f9f31"/></g><g transform="translate(78.352 78.134)"><path d="M1758.633,429.43s-20.115-5.323-32.87.066l-.013.006s9.148-12.761,33.195-10.12c17.592,1.931,23.053-1.257,24.718-3.107a3.234,3.234,0,0,0,.678-1.065C1783.9,416.686,1778.8,432.037,1758.633,429.43Z" transform="translate(-1725.751 -415.097)" fill="#73b72b"/><path d="M1758.632,429.437s-20.115-5.323-32.87.066c.482-.245,16.105-8.07,33.006-6.169,15.813,1.778,21.889-2.489,24.894-7.051.26-.392.494-.787.711-1.179v.008s0,.011-.005.021l0,.005a.452.452,0,0,1-.019.064l-.005.016C1783.9,416.692,1778.8,432.043,1758.632,429.437Z" transform="translate(-1725.75 -415.103)" fill="#5f9f31"/></g><path d="M1747.491,452.291c-18.158-4.28-31.855-5.253-42.859-.882,0,0,.1-.124.305-.343,13.881-8.525,24.4-7.891,32.537-6.305,25.5,4.971,35.85-5.051,35.85-5.051S1765.645,456.571,1747.491,452.291Z" transform="translate(-1648.657 -335.503)" fill="#73b72b"/><path d="M1681.514,502.483c-.026-.288-.031-.486-.039-.721s-.007-.444-.005-.662c0-.439.022-.87.044-1.3.057-.859.134-1.712.252-2.555a47.353,47.353,0,0,1,.964-4.988,62.18,62.18,0,0,1,3.276-9.518,82.9,82.9,0,0,1,4.557-8.914c1.686-2.875,3.547-5.636,5.5-8.323s4.053-5.261,6.2-7.788c1.1-1.235,2.175-2.5,3.321-3.7l1.7-1.815,1.742-1.769c.586-.584,1.151-1.189,1.753-1.756l1.79-1.719.894-.859c.3-.284.609-.559.913-.839l1.832-1.671c1.221-1.122,2.44-2.191,3.623-3.327s2.346-2.28,3.485-3.453a85.687,85.687,0,0,0,6.381-7.434c.978-1.306,1.922-2.639,2.808-4.009s1.708-2.779,2.473-4.219a46.167,46.167,0,0,0,3.637-9.056,39.4,39.4,0,0,0,1.438-9.651,42.952,42.952,0,0,0-.165-4.9c-.148-1.629-.388-3.251-.692-4.861a97.593,97.593,0,0,0-2.439-9.543c-.465-1.579-.937-3.157-1.351-4.754a31.8,31.8,0,0,1-.927-4.861c-.12-1.648-.2-3.288-.323-4.93-.062-.82-.125-1.641-.206-2.46q-.059-.613-.132-1.227c-.028-.2-.053-.408-.087-.61-.015-.1-.036-.2-.055-.3a.9.9,0,0,0-.094-.29.908.908,0,0,1,.1.289c.021.1.043.2.06.3.037.2.067.407.1.61.057.407.108.816.155,1.225.094.818.171,1.638.247,2.457.155,1.638.261,3.286.407,4.919a31.588,31.588,0,0,0,1,4.814c.44,1.583.938,3.151,1.428,4.722a98.081,98.081,0,0,1,2.614,9.542c.334,1.619.6,3.254.783,4.9a43.908,43.908,0,0,1,.252,4.965,40.2,40.2,0,0,1-1.3,9.859,47.083,47.083,0,0,1-3.554,9.3c-.754,1.481-1.575,2.926-2.445,4.341s-1.814,2.782-2.787,4.128a87.049,87.049,0,0,1-6.347,7.656c-1.135,1.208-2.284,2.4-3.47,3.558s-2.409,2.289-3.594,3.416l-1.787,1.688c-.3.282-.6.559-.891.846l-.872.867-1.742,1.732c-.588.571-1.137,1.179-1.707,1.767l-1.692,1.779-1.644,1.822c-1.113,1.2-2.147,2.468-3.216,3.705-2.071,2.527-4.108,5.085-5.967,7.767s-3.649,5.406-5.246,8.24a80.638,80.638,0,0,0-4.281,8.737,59.79,59.79,0,0,0-2.99,9.191,44.642,44.642,0,0,0-.83,4.719c-.1.789-.154,1.578-.193,2.362-.014.392-.024.782-.02,1.168,0,.193.009.381.014.571s.021.391.035.512l0,.029a1.351,1.351,0,1,1-2.685.3Z" transform="translate(-1650.036 -340.03)" fill="#582c12"/></g><g transform="translate(1477.137 220.361)"><g transform="translate(127.054 106.025)"><path d="M1596.937,399.231s2.461-16.168,8.542-22.112,23.164-14.174,27.928-20.772c6.047-8.376,9.983-13.31,7.977-35.92.036.885.216,15.281-26.494,31.343-27.223,16.373-18.19,46.687-17.957,47.448Z" transform="translate(-1595.313 -320.427)" fill="#73b72b"/><path d="M1596.933,399.217c-.083-.572-2.691-19.008,9.508-31.847,12.391-13.041,16.2-10.864,24.265-20.25,7.157-8.328,11.334-18.018,10.678-26.693.036.885.216,15.281-26.494,31.343C1587.667,368.143,1596.7,398.457,1596.933,399.217Z" transform="translate(-1595.313 -320.427)" fill="#5f9f31"/></g><g transform="translate(110.786 68.558)"><path d="M1580.836,372.884a16.355,16.355,0,0,1,.229-2.855c1.042-6.854,6.6-25.227,35.931-46.886,0,0,20.618-15.944,11.021-38.076v.005a46.251,46.251,0,0,1-11.508,16.683C1605.914,311.5,1574.321,329.447,1580.836,372.884Z" transform="translate(-1579.96 -285.066)" fill="#73b72b"/><path d="M1580.836,372.883c.052-.822.125-1.78.229-2.855,1.063-10.83,5.393-33.469,23.819-45.926,20.1-13.593,23.089-38.639,23.132-39.031a46.251,46.251,0,0,1-11.508,16.683C1605.914,311.5,1574.321,329.447,1580.836,372.883Z" transform="translate(-1579.96 -285.066)" fill="#5f9f31"/></g><g transform="translate(84.662 47.379)"><path d="M1560.617,350.537c-3.982-23.213,11.7-39.079,26.116-53.983,11.854-12.256,8.117-30.883,8-31.463l0-.014a31.9,31.9,0,0,1-11.161,18.957c-14.705,11.179-17.015,13.818-20.911,19.889C1547.4,327.684,1560.617,350.537,1560.617,350.537Z" transform="translate(-1555.304 -265.077)" fill="#73b72b"/><path d="M1560.617,350.537a48.021,48.021,0,0,1-1.031-20.358c1.778-11.862,7.145-26.388,22.331-38.722,14.915-12.12,12.891-25.886,12.814-26.366l0-.014a31.9,31.9,0,0,1-11.161,18.957c-14.705,11.179-17.015,13.818-20.911,19.889C1547.4,327.684,1560.617,350.537,1560.617,350.537Z" transform="translate(-1555.304 -265.077)" fill="#5f9f31"/></g><g transform="translate(63.351 38.428)"><path d="M1536.6,320.115a8.722,8.722,0,0,1-.115-1.7c.076-4.086,2.325-14.776,21.608-25.7,24.558-13.907,11.263-36.086,11.263-36.086l0,.011c-.015.453-.485,13.45-12.658,19.38C1544.321,282.055,1530.728,297.82,1536.6,320.115Z" transform="translate(-1535.191 -256.629)" fill="#73b72b"/><path d="M1536.607,320.142c-.061-.573-.1-1.149-.121-1.731-.459-12.724,8.43-28.285,22.529-37.012,14.519-8.99,10.477-24.284,10.344-24.76-.015.453-.485,13.45-12.658,19.38-12.38,6.035-25.973,21.8-20.1,44.1A.06.06,0,0,0,1536.607,320.142Z" transform="translate(-1535.191 -256.628)" fill="#5f9f31"/></g><g transform="translate(60.705 24.824)"><path d="M1532.7,284.857l.008-.028c.011-.045.026-.111.053-.2a.042.042,0,0,1,.007-.023c.407-1.263,2.826-6.631,15.867-14.286,14.813-8.693,9.068-26.113,8.927-26.523a.017.017,0,0,0,0-.008s-10.073,7.863-11.954,16.048-10.554,16.858-11.454,18.895A29.971,29.971,0,0,0,1532.7,284.857Z" transform="translate(-1532.693 -243.79)" fill="#73b72b"/><path d="M1532.693,284.879c.005-.019.009-.036.013-.05.018-.068.033-.133.053-.2a.042.042,0,0,1,.007-.023c1.855-7.123,8.347-12.2,15.964-20.419,7.6-8.188,8.792-20.021,8.829-20.39a.017.017,0,0,0,0-.008s-10.073,7.863-11.954,16.048-10.554,16.858-11.454,18.895a29.971,29.971,0,0,0-1.455,6.124A.135.135,0,0,0,1532.693,284.879Z" transform="translate(-1532.693 -243.79)" fill="#5f9f31"/></g><g transform="translate(65.464)"><path d="M1539.466,250.37c15.8-17.967,3.586-30.009,3.586-30.009C1532.438,229.212,1539.466,250.37,1539.466,250.37Z" transform="translate(-1537.185 -220.361)" fill="#73b72b"/><path d="M1539.466,250.37c4-9.477,3.586-30.009,3.586-30.009C1532.438,229.212,1539.466,250.37,1539.466,250.37Z" transform="translate(-1537.185 -220.361)" fill="#5f9f31"/></g><g transform="translate(44.891 10.215)"><path d="M1540.508,249.924c-23.762-2.791-22.734-19.912-22.734-19.912C1531.585,229.493,1540.508,249.924,1540.508,249.924Z" transform="translate(-1517.768 -230.002)" fill="#73b72b"/><path d="M1540.508,249.924c-9.31-4.372-22.734-19.912-22.734-19.912C1531.584,229.493,1540.508,249.924,1540.508,249.924Z" transform="translate(-1517.767 -230.002)" fill="#5f9f31"/></g><g transform="translate(35.258 157.099)"><path d="M1508.676,377.114c.019.029.085.122.2.269l.041.049c2.028,2.525,16.727,18.646,54.112,8.162,0,0,14.1-4.143,32.957.085.28.065-14.364-24.2-49.587-14.94C1512.277,379.712,1508.858,377.274,1508.676,377.114Z" transform="translate(-1508.676 -368.63)" fill="#73b72b"/><path d="M1508.905,376.937c2.028,2.525,16.727,18.646,54.112,8.162,0,0,14.1-4.143,32.957.085,0,0-15.408-12.965-41.209-6.278S1508.905,376.937,1508.905,376.937Z" transform="translate(-1508.662 -368.136)" fill="#5f9f31"/></g><g transform="translate(15.605 130.754)"><path d="M1522.879,361.072c23.019-5.427,40.385-6.66,54.334-1.119,0,0-.129-.157-.387-.435-2.512-2.722-17.206-17.313-42.344-15.614-27.709,1.875-27.617,5.708-44.354,1.217C1490.128,345.121,1499.862,366.5,1522.879,361.072Z" transform="translate(-1490.128 -343.766)" fill="#5f9f31"/></g><g transform="translate(41.073 17.454)"><path d="M1527.221,267.043s6.755,6.2,8.669,9.745c0,0,1.926-10.516-6.187-23.15s-11.82-7.427-15.5-16.8v.007C1514.168,237.2,1513,252.724,1527.221,267.043Z" transform="translate(-1514.164 -236.834)" fill="#73b72b"/><path d="M1527.221,267.042s6.755,6.2,8.669,9.745A114.633,114.633,0,0,0,1522.6,252.62c-9.324-13.235-8.085-13.451-8.4-15.779C1514.168,237.2,1513,252.724,1527.221,267.042Z" transform="translate(-1514.164 -236.834)" fill="#5f9f31"/></g><g transform="translate(15.627 54.981)"><path d="M1516.53,293.478c4.774.6,10.5,2.085,17.462,8.1a31.574,31.574,0,0,0-22.853-19.058c-17.414-3.728-20.9-10.088-20.99-10.264C1490.167,272.483,1491.748,290.363,1516.53,293.478Z" transform="translate(-1490.149 -272.252)" fill="#73b72b"/><path d="M1516.53,293.478c4.774.6,10.5,2.085,17.462,8.1-.092-.172-5.287-9.823-23.138-14.877-17.8-5.039-20.639-14.228-20.7-14.445C1490.167,272.483,1491.748,290.363,1516.53,293.478Z" transform="translate(-1490.149 -272.252)" fill="#5f9f31"/></g><g transform="translate(0 99.055)"><path d="M1508.033,332.013s25.5-6.748,41.671.083l.015.007s-11.6-16.178-42.083-12.828c-22.3,2.447-29.225-1.594-31.336-3.939a4.125,4.125,0,0,1-.86-1.351C1476,315.856,1482.459,335.317,1508.033,332.013Z" transform="translate(-1475.398 -313.841)" fill="#73b72b"/><path d="M1508.035,332.021s25.5-6.748,41.671.083c-.611-.31-20.418-10.23-41.844-7.821-20.047,2.254-27.752-3.155-31.561-8.939-.328-.5-.626-1-.9-1.5l0,.011a.153.153,0,0,1,.006.028l0,.006a.572.572,0,0,0,.023.081c0,.005,0,.014.006.019C1476,315.864,1482.462,335.325,1508.035,332.021Z" transform="translate(-1475.4 -313.849)" fill="#5f9f31"/></g><path d="M1522.879,361c23.019-5.427,40.385-6.66,54.334-1.119,0,0-.129-.157-.387-.435-17.6-10.807-30.939-10-41.248-7.993-32.334,6.3-45.449-6.4-45.449-6.4S1499.862,366.42,1522.879,361Z" transform="translate(-1474.523 -212.936)" fill="#73b72b"/><path d="M1605.848,424.626c.033-.366.039-.617.05-.912s.01-.563.006-.84c0-.555-.027-1.1-.056-1.65-.072-1.088-.169-2.17-.32-3.238a60.064,60.064,0,0,0-1.222-6.323,78.9,78.9,0,0,0-4.153-12.067,105.085,105.085,0,0,0-5.777-11.3c-2.137-3.646-4.5-7.146-6.974-10.553-2.459-3.42-5.138-6.669-7.856-9.872-1.4-1.567-2.757-3.172-4.211-4.688l-2.15-2.3-2.207-2.244c-.744-.74-1.46-1.507-2.225-2.225l-2.267-2.18-1.134-1.089c-.382-.36-.774-.709-1.159-1.063l-2.322-2.119c-1.546-1.422-3.092-2.777-4.592-4.218-1.51-1.423-2.974-2.89-4.417-4.377a108.62,108.62,0,0,1-8.09-9.425c-1.24-1.657-2.436-3.346-3.559-5.084s-2.166-3.523-3.136-5.349a58.5,58.5,0,0,1-4.611-11.48,49.958,49.958,0,0,1-1.822-12.236,54.7,54.7,0,0,1,.209-6.207c.189-2.065.493-4.122.877-6.162a123.693,123.693,0,0,1,3.093-12.1c.589-2,1.188-4,1.712-6.028a40.294,40.294,0,0,0,1.176-6.163c.151-2.089.249-4.168.41-6.25.079-1.039.158-2.08.26-3.118.05-.519.1-1.037.169-1.555.035-.259.067-.517.11-.775.019-.129.044-.256.07-.385a1.093,1.093,0,0,1,.12-.368,1.089,1.089,0,0,0-.126.367c-.028.127-.055.254-.076.384-.049.256-.085.515-.124.773q-.108.774-.2,1.553c-.12,1.036-.216,2.076-.313,3.115-.2,2.077-.331,4.165-.516,6.237a39.976,39.976,0,0,1-1.272,6.1c-.557,2.007-1.189,3.995-1.812,5.986a124.482,124.482,0,0,0-3.313,12.1c-.424,2.053-.766,4.126-.993,6.213a55.52,55.52,0,0,0-.319,6.3,50.9,50.9,0,0,0,1.645,12.5,59.68,59.68,0,0,0,4.5,11.792c.957,1.878,2,3.71,3.1,5.5s2.3,3.527,3.531,5.233a110.587,110.587,0,0,0,8.047,9.707c1.438,1.532,2.9,3.044,4.4,4.51,1.485,1.477,3.055,2.9,4.555,4.33l2.266,2.139c.377.358.759.71,1.131,1.073l1.105,1.1,2.208,2.2c.745.723,1.441,1.495,2.164,2.24l2.146,2.256,2.085,2.31c1.41,1.522,2.721,3.129,4.076,4.7,2.627,3.2,5.209,6.447,7.565,9.846,2.372,3.386,4.626,6.854,6.65,10.447a101.927,101.927,0,0,1,5.427,11.077,75.736,75.736,0,0,1,3.792,11.651,57.012,57.012,0,0,1,1.051,5.983c.125,1,.195,2,.245,2.994.017.5.03.991.025,1.479,0,.245-.011.485-.018.725s-.027.5-.045.65l0,.036a1.712,1.712,0,0,0,3.4.379Z" transform="translate(-1472.102 -218.674)" fill="#582c12"/></g><g transform="translate(1564.464 241.696)"><path d="M1711.676,328.277V540.125c0,3.953-2.8,5.571-6.227,3.594l-96.894-55.942,85.658-158.228,15.5-7.623v0A12.879,12.879,0,0,1,1711.676,328.277Z" transform="translate(-1554.798 -235.648)" fill="#d5d5d5"/><path d="M1559.528,242.876l4.383-2.1,4.533,2.1,3.854,5.24-3.854,2.5-7.795-4.166Z" transform="translate(-1557.717 -240.48)" fill="#e4e4e4"/><path d="M1699.862,534.3l4.77-2.27.467-7.622-7.526,4.368Z" transform="translate(-1549.497 -223.589)" fill="#d5d5d5"/><path d="M1712.506,326.771v0L1697,334.4l-85.658,158.228-43.406-25.06a13.81,13.81,0,0,1-6.225-10.783V244.934c0-3.953,2.8-5.571,6.225-3.594l140.3,81A12.6,12.6,0,0,1,1712.506,326.771Z" transform="translate(-1557.587 -240.497)" fill="#e4e4e4"/><path d="M1704.345,550.425l-140.3-81a13.81,13.81,0,0,1-6.226-10.783V246.791c0-3.953,2.8-5.571,6.226-3.594l140.3,81a13.81,13.81,0,0,1,6.226,10.783V546.83C1710.571,550.784,1707.77,552.4,1704.345,550.425Z" transform="translate(-1557.819 -240.386)" fill="#2b252a"/><path d="M1702.968,544.18,1564.958,464.5a7.2,7.2,0,0,1-3.245-5.621V250.608c0-2.061,1.461-2.9,3.245-1.873l138.01,79.679a7.2,7.2,0,0,1,3.245,5.621V542.306C1706.214,544.367,1704.752,545.211,1702.968,544.18Z" transform="translate(-1557.587 -240.032)" fill="#d4ef9d"/><path d="M1709.876,533.906" transform="translate(-1548.764 -223.024)" fill="#e4e4e4"/></g><path d="M1578.264,268.527l-.512,180.493,118.315,68.31.512-180.493Z" transform="translate(7.832 2.868)" opacity="0.2"/><g transform="translate(1579.877 274.924)"><g transform="translate(0 0)"><path d="M1676.415,477.55c-.091-.023-.14.017-.141.1a.317.317,0,0,0,.156.26c.093.053.152.019.152-.07a.4.4,0,0,0-.167-.29Zm-5.488-3.237a.105.105,0,0,0-.15.02l-.009.048a.4.4,0,0,0,.167.351c.09.052.15,0,.15-.125a.33.33,0,0,0-.158-.293Zm-5.467-3.434,0,0c-.025.039-.043.065-.065.094l-.187.193h0l.253.147v-.3c0-.047,0-.092,0-.138Zm-8.777-5.1c-.091-.052-.159.037-.159.275a.524.524,0,0,0,.155.45c.106.06.158-.052.159-.275s-.049-.389-.155-.45Zm2.7,1.558c-.09-.053-.156.038-.156.277s.058.394.154.449.156-.053.157-.276-.046-.388-.155-.45Zm2.664,1.537c-.088-.051-.156.038-.157.277a.527.527,0,0,0,.155.45c.106.061.158-.052.159-.275s-.048-.389-.157-.451Zm2.736,1.58c-.091-.053-.159.037-.159.274s.06.4.157.451.156-.053.157-.275-.046-.388-.155-.45Zm2.793,1.613c-.091-.053-.159.036-.16.274a.528.528,0,0,0,.155.45c.106.061.159-.052.159-.275s-.048-.389-.154-.449Zm2.751,1.588c-.09-.053-.158.037-.159.274a.523.523,0,0,0,.155.45c.106.061.158-.052.159-.276s-.049-.388-.155-.449Zm2.725,1.573c-.09-.053-.156.038-.156.277s.06.4.155.449.158-.051.159-.274-.049-.389-.158-.451Zm2.775,1.6c-.091-.053-.156.038-.157.277a.525.525,0,0,0,.155.449c.106.061.159-.051.159-.274s-.048-.389-.157-.451Zm2.741,1.582c-.091-.052-.156.038-.157.277a.527.527,0,0,0,.155.45c.106.061.159-.052.159-.275s-.048-.388-.157-.451Zm3.3,1.907c-.09-.052-.158.037-.159.275a.525.525,0,0,0,.155.449c.106.061.159-.052.159-.274s-.048-.389-.155-.45Zm-2.7-1.56c-.088-.051-.15,0-.15.127a.317.317,0,0,0,.147.273c.07.04.124.033.151-.006l.011-.038a.4.4,0,0,0-.158-.356Zm-2.738-1.587c-.086-.05-.132-.011-.132.064a.341.341,0,0,0,.144.248.086.086,0,0,0,.117-.094.255.255,0,0,0-.128-.217Zm-24.344-17.779c-.091-.052-.159.037-.16.274s.061.4.155.45.159-.052.159-.274-.048-.389-.154-.45Zm.606.35c-.091-.052-.159.037-.159.275s.06.4.157.451.156-.053.157-.277-.047-.387-.155-.45Zm.606.351c-.091-.053-.159.036-.159.274s.062.4.157.451.156-.053.157-.277-.046-.387-.155-.449Zm5.439-1.938-.917-.53-.015,5.353.917.529.015-5.352Zm2.744,1.584-.914-.529-.016,5.353.914.528.016-5.352Zm2.743,1.584-.914-.529-.015,5.353.914.528.015-5.352Zm2.743,1.584-.914-.529-.015,5.353.914.528.015-5.352Zm2.744,1.584-.914-.529-.016,5.353.914.528.016-5.352Zm2.743,1.584-.914-.529-.015,5.353.914.528.015-5.352Zm2.743,1.584-.914-.529-.015,5.353.914.528.015-5.352Zm2.744,1.584-.914-.529-.016,5.353.914.528.016-5.352Zm2.743,1.583-.914-.528-.015,5.353.914.528.015-5.353ZM1652.1,453.7c-.091-.052-.159.037-.159.278a.526.526,0,0,0,.154.45c.107.061.159-.052.16-.278s-.049-.389-.155-.45Zm.606.35c-.091-.052-.159.037-.159.279a.524.524,0,0,0,.157.451c.106.061.156-.053.157-.28s-.046-.387-.155-.45Zm.606.351c-.09-.053-.158.036-.159.278a.521.521,0,0,0,.157.451c.107.061.156-.053.157-.28s-.046-.387-.155-.449Zm8.183-.318-.914-.529-.016,5.353.915.528.015-5.352Zm5.487,3.168-3.659-2.113-.015,5.353.914.528.006-2.331,1.829,1.056-.006,2.331.914.528.016-5.352Zm2.743,1.584-.914-.529-.016,5.353.914.528.016-5.352Zm2.743,1.583-.914-.528-.015,5.353.914.528.015-5.353Zm2.743,1.584-.914-.528-.015,5.353.914.528.015-5.353Zm2.744,1.584-.914-.528-.016,5.353.914.528.016-5.353Zm2.743,1.584-.914-.528-.015,5.353.914.528.015-5.353Zm-28.583-17.04c-.091-.052-.159.037-.159.276s.06.4.153.449.159-.051.16-.274-.049-.389-.155-.45Zm.606.351c-.091-.053-.159.036-.159.274s.061.4.157.451.156-.053.157-.277-.046-.387-.155-.449Zm.606.35c-.09-.052-.158.037-.159.274s.061.4.157.452.156-.054.157-.277-.046-.388-.155-.45Zm24.644,9.1-14.632-8.448-.015,5.353,3.658,2.112,0-1.045,1.829,1.055,0,1.046.914.528.007-2.6,1.829,1.056-.007,2.6.914.528.015-5.228,1.829,1.056-.015,5.228.914.528.006-2.048,1.829,1.055-.006,2.048.916.529.015-5.353Zm2.743,1.584-.914-.528-.015,5.352.914.529.015-5.353ZM1651.6,442.2h0a.791.791,0,0,1-.066.093l-.187.193v0l.251.145v-.295c0-.048,0-.092,0-.139Zm.534.272c-.091-.052-.159.037-.159.275s.062.4.154.449.159-.051.16-.274-.049-.389-.155-.45Zm.606.351c-.09-.053-.158.036-.159.274s.061.4.157.451.156-.053.157-.277-.046-.387-.155-.449Zm.606.35c-.09-.052-.158.037-.159.274s.061.4.157.451.156-.053.157-.275-.046-.388-.155-.45Zm-1.2-6.46c-.09-.053-.158.036-.159.274s.062.4.155.45.159-.049.159-.275-.048-.388-.155-.449Zm.607.35c-.091-.052-.159.037-.16.274s.062.4.158.452.156-.051.156-.277-.046-.388-.154-.45Zm.606.35c-.091-.052-.159.037-.16.276s.062.4.158.451.156-.05.156-.277-.046-.387-.154-.45ZM1578,442.86,1578,439.9l20.215,11.672-.008,2.958L1578,442.86Zm22.082,12.75.008-2.959,22.4,12.935-.008,2.959-22.4-12.935Zm24.593,14.2.009-2.959,10.3,5.947-.009,2.959-10.3-5.947Zm11.909,6.875.009-2.958L1659,486.662l-.008,2.959-22.407-12.937Zm-58.572-38.337.008-2.959,35.409,20.444-.009,2.958-35.409-20.443Zm36.953,21.335.008-2.959,22.406,12.936-.009,2.959-22.406-12.936Zm24.337,14.051.008-2.959,19.764,11.411-.009,2.958-19.764-11.41Zm22.6,13.047.008-2.959,22.4,12.935-.008,2.959-22.4-12.935Zm-73.69-51.363.008-2.958,20.215,11.671-.008,2.959-20.215-11.672Zm32.575,18.808.008-2.959,22.4,12.935-.009,2.959-22.4-12.935Zm34.509,19.923.007-2.959,22.4,12.935-.009,2.959-22.4-12.935Zm1.838-8-.02-.1.168-.006.088.051,0,.884-.1-.058,0-.77,0,0-.132,0Zm7.97,5.052v-.077l.343-.369.111.065v.551l.108.063v.092l-.109-.062v.242l-.1-.056V471.4l-.358-.207Zm2.869,1.439.05-.4.369.212v.1l-.292-.17-.029.21a.648.648,0,0,1,.061.033.636.636,0,0,1,.166.143.469.469,0,0,1,.108.289c0,.173-.121.232-.286.137a.683.683,0,0,1-.192-.164l.026-.077a.643.643,0,0,0,.163.144c.1.057.183.032.181-.088a.375.375,0,0,0-.219-.321.621.621,0,0,0-.106-.052Zm5.451,2.822v-.1l.484.28v.081l-.336.61-.106-.061.334-.591-.376-.217Zm7.679,4.526-.018-.1.166-.008.09.053,0,.884-.1-.058,0-.77,0,0-.135,0Zm-10.162-5.161a.607.607,0,0,1-.271-.532.35.35,0,0,1,.13-.324.291.291,0,0,1,.247.011.692.692,0,0,1,.075.038v.1l-.017-.011a.4.4,0,0,0-.06-.028.177.177,0,0,0-.268.158l0,0c.036-.036.1-.043.187.006a.491.491,0,0,1,.232.417c0,.163-.1.256-.256.164Zm-14.263-8.234a.68.68,0,0,1-.252-.6c0-.3.112-.4.268-.307a.658.658,0,0,1,.253.6c0,.3-.1.409-.269.31Zm2.7,1.559a.681.681,0,0,1-.255-.6c0-.3.113-.4.271-.306a.659.659,0,0,1,.252.6c0,.3-.1.408-.268.31Zm.416-.5-.033-.106a.258.258,0,0,1,.217.036.466.466,0,0,1,.235.392c0,.167-.1.238-.268.322l-.059.032v0l.344.2v.1l-.493-.284v-.071l.084-.044c.2-.1.286-.166.286-.3a.286.286,0,0,0-.149-.259.181.181,0,0,0-.164-.02Zm2.247,2.036a.677.677,0,0,1-.253-.6c0-.3.113-.4.268-.308a.66.66,0,0,1,.253.6c0,.3-.1.408-.268.31Zm.416-.52-.025-.1a.3.3,0,0,1,.2.047.419.419,0,0,1,.223.34c0,.092-.05.141-.143.126v0a.447.447,0,0,1,.17.324c0,.14-.1.21-.281.1a.682.682,0,0,1-.2-.175l.025-.077a.705.705,0,0,0,.172.156c.135.077.176,0,.174-.073a.365.365,0,0,0-.2-.289l-.06-.034v-.09l.059.035c.075.043.171.051.172-.051a.249.249,0,0,0-.135-.211.233.233,0,0,0-.156-.034Zm2.316,2.1a.675.675,0,0,1-.252-.6c0-.3.112-.4.268-.307a.659.659,0,0,1,.255.6c0,.3-.1.407-.271.308Zm2.793,1.613a.674.674,0,0,1-.252-.6c0-.3.112-.4.268-.307a.653.653,0,0,1,.252.6c0,.3-.1.409-.268.31Zm2.752,1.588a.676.676,0,0,1-.253-.6c0-.3.113-.4.268-.307a.657.657,0,0,1,.253.6c0,.3-.1.409-.268.31Zm2.727,1.576a.683.683,0,0,1-.255-.6c0-.3.113-.4.271-.306a.659.659,0,0,1,.252.6c0,.3-.1.407-.268.31Zm2.775,1.6a.679.679,0,0,1-.255-.6c0-.3.115-.4.271-.306a.662.662,0,0,1,.252.6c0,.3-.1.407-.268.309Zm.611.354a.5.5,0,0,1-.259-.388c0-.11.06-.157.154-.15v0a.42.42,0,0,1-.124-.271c0-.14.1-.175.241-.1a.428.428,0,0,1,.223.345c0,.077-.034.139-.127.136v0a.485.485,0,0,1,.155.319c0,.155-.115.19-.263.1Zm2.13,1.229a.674.674,0,0,1-.253-.6c0-.3.11-.4.269-.307a.658.658,0,0,1,.252.6c0,.3-.1.408-.268.31Zm.584.01a.484.484,0,0,1-.225-.4c0-.166.107-.254.263-.164a.586.586,0,0,1,.252.521c0,.194-.057.295-.133.338a.253.253,0,0,1-.223-.013.518.518,0,0,1-.1-.047v-.1a.579.579,0,0,0,.083.042.2.2,0,0,0,.163.011.223.223,0,0,0,.1-.177h0a.16.16,0,0,1-.184-.011Zm2.717,1.9a.675.675,0,0,1-.252-.6c0-.3.112-.4.268-.307a.662.662,0,0,1,.252.6c0,.3-.1.409-.268.31Zm-94.473-54.941,0-.625,22.7,13.106v.625l-22.7-13.106Zm63.933,32.871-.018-.1.168,0,.089.051,0,.882-.1-.058,0-.771h0l-.136.005Zm.76,1.145a.679.679,0,0,1-.252-.6c0-.3.112-.394.268-.3a.651.651,0,0,1,.252.592c0,.3-.1.412-.268.314Zm.606.35a.681.681,0,0,1-.252-.6c0-.3.112-.394.268-.3a.653.653,0,0,1,.252.593c0,.3-.1.412-.268.313Zm.606.351a.686.686,0,0,1-.252-.6c0-.3.112-.394.268-.305a.657.657,0,0,1,.255.6c0,.3-.1.41-.271.311Zm-1.992-7.594-.033-.1a.254.254,0,0,1,.217.036.468.468,0,0,1,.235.392c0,.164-.1.238-.268.32l-.059.034v0l.344.2v.1l-.489-.283v-.074l.08-.043c.2-.1.286-.165.288-.3a.293.293,0,0,0-.152-.261.2.2,0,0,0-.164-.02Zm.8,1.2a.675.675,0,0,1-.252-.6c0-.3.112-.4.268-.307a.652.652,0,0,1,.252.593c0,.3-.1.411-.268.313Zm.606.351a.68.68,0,0,1-.252-.6c0-.3.112-.4.268-.307a.656.656,0,0,1,.253.593c0,.3-.1.412-.269.314Zm.607.35a.678.678,0,0,1-.253-.6c0-.3.113-.4.268-.308a.657.657,0,0,1,.255.6c0,.3-.1.41-.27.312Zm-1.993-7.49-.025-.1a.278.278,0,0,1,.2.047.413.413,0,0,1,.222.34.111.111,0,0,1-.143.123v0a.447.447,0,0,1,.171.324c0,.143-.1.21-.283.1a.68.68,0,0,1-.2-.174l.026-.074a.668.668,0,0,0,.171.153c.132.076.176,0,.174-.073a.365.365,0,0,0-.2-.289l-.059-.034v-.089l.059.034c.075.043.172.054.172-.05a.246.246,0,0,0-.135-.212.227.227,0,0,0-.156-.031Zm.8,1.217a.675.675,0,0,1-.252-.6c0-.3.112-.394.268-.3a.653.653,0,0,1,.252.593c0,.3-.1.409-.268.31Zm.606.35a.679.679,0,0,1-.252-.6c0-.3.112-.394.268-.305a.653.653,0,0,1,.252.593c0,.3-.1.409-.268.31Zm.607.35a.675.675,0,0,1-.253-.6c0-.3.113-.394.268-.3a.657.657,0,0,1,.255.594c0,.3-.1.408-.27.308Zm-53.375-18.2.039-14.054,1.8,1.037-.04,14.054-1.795-1.037Zm8.347,4.82.047-16.8,1.8,1.037-.048,16.8-1.795-1.036Zm27.238,6.507a5.3,5.3,0,0,0,.049-.715,8.5,8.5,0,0,0-.807-3.441l3.579-2.036a18.656,18.656,0,0,1,2.239,8.37c0,.251-.009.493-.023.73l-5.036-2.907Zm-48.143-18.576.052-18.346,1.8,1.036-.052,18.346-1.8-1.036Zm63.851,18.329v-.077l.343-.366.115.067,0,.548.107.06v.093l-.106-.061v.241l-.1-.056v-.242l-.357-.207Zm.885.768a.681.681,0,0,1-.252-.6c0-.3.112-.394.268-.3a.65.65,0,0,1,.252.593c0,.3-.1.409-.268.31Zm.606.35a.68.68,0,0,1-.252-.6c0-.3.114-.394.268-.305a.652.652,0,0,1,.253.593c0,.3-.1.409-.269.31Zm.607.35a.676.676,0,0,1-.253-.6c0-.3.114-.394.268-.3a.653.653,0,0,1,.255.594c0,.3-.1.407-.27.308Zm-49.12-10.081.058-20.281,1.793,1.034-.058,20.282-1.793-1.035Zm17.395.823c-.013-.252-.02-.5-.019-.753.017-5.909,4.116-8.361,9.218-5.607l-.017,5.764c-2.334-1.163-4.185,0-4.194,2.735a6.579,6.579,0,0,0,.046.768,7.761,7.761,0,0,0,.135.8,10.167,10.167,0,0,0,1.229,3.018c.152.252.316.5.486.737a8.9,8.9,0,0,0,2.27,2.24c.1.066.207.131.31.192s.21.115.314.168c1.9.945,3.478.349,4.005-1.382l5.109,2.95c-.624,4.87-4.457,6.719-9.131,4.193-.1-.054-.207-.113-.313-.175s-.208-.12-.311-.185a19.088,19.088,0,0,1-5.832-5.961c-.158-.247-.313-.5-.46-.749a20.415,20.415,0,0,1-2.785-7.994c-.025-.25-.046-.5-.06-.753Zm12.766,3.094a9.534,9.534,0,0,0-2.959-3.33l.017-5.763a19.74,19.74,0,0,1,6.5,7.066l-3.554,2.027Zm-42.911-11.279.063-22.11,1.8,1.037-.063,22.109-1.795-1.036Zm14.787,8.538.068-23.672,1.8,1.036-.067,23.672-1.8-1.036Zm74.465,24.127.015-5.187,1.829,1.056-.015,5.185v.3l-.015,5.352v.3l-.015,5.352v.3l-.015,5.353v.3l-.005,1.846-1.829-1.055.005-1.846-.914-.529-.005,1.846-1.829-1.055.005-1.846-.916-.529-.005,1.846-1.829-1.055.005-1.846-.914-.529-.005,1.846-1.829-1.055.005-1.846-.914-.529-.005,1.846-1.829-1.055.005-1.846-.915-.528,0,1.845-1.83-1.055.005-1.846-.914-.528-.005,1.846-1.829-1.056.005-1.846-.914-.528-.005,1.846-1.829-1.056.005-1.846-.916-.528,0,1.846-1.83-1.056.005-1.846-.917-.53-.005,1.846-1.827-1.054.005-1.846-.756-.437v-.3l.757.438.015-5.353-.756-.437v-.3l.756.436.011-3.726,1.827,1.054-.011,3.727.917.529.016-5.352-3.5-2.021v-.3l3.5,2.021.011-3.456,1.829,1.056-.01,3.456.914.528.015-5.352-6.244-3.606v-.3l6.244,3.6,0-1.349,1.83,1.056,0,1.349,14.632,8.448.005-2.12,1.83,1.056-.006,2.119.914.529Zm-25.432-20.046v-.3l27.277,15.748v.3l-27.277-15.749Zm-3.953-2.577.051-.394.368.212v.1l-.293-.169-.032.212a.4.4,0,0,1,.063.03.6.6,0,0,1,.166.143.484.484,0,0,1,.11.291c0,.173-.12.234-.288.138a.757.757,0,0,1-.192-.167l.029-.073a.638.638,0,0,0,.163.142c.1.056.181.03.182-.086a.381.381,0,0,0-.22-.324,1.155,1.155,0,0,0-.106-.052Zm.807.943a.684.684,0,0,1-.253-.6c0-.295.113-.394.269-.305a.653.653,0,0,1,.252.593c0,.3-.1.412-.268.314Zm.606.35a.68.68,0,0,1-.252-.6c0-.295.112-.394.268-.3a.652.652,0,0,1,.252.593c0,.3-.1.411-.268.313Zm.606.351a.682.682,0,0,1-.252-.6c0-.295.112-.394.268-.3a.659.659,0,0,1,.255.594c0,.3-.1.411-.271.313Zm1.266.244,0-1.05.249.143,0,1.051v.3l-.016,5.352v.3l-.015,5.352v.3l-.015,5.352v.3l-.015,5.353v.3l-.005,1.846,1.956,1.129.264.153,2.483,1.433.264.153,2.479,1.431.264.153,2.479,1.431.265.153,2.479,1.431.264.153,2.479,1.431.264.153,2.479,1.431.265.153,2.479,1.431.264.153,2.479,1.431.264.153,2.479,1.431.265.153.9.522v.288l-.9-.522v.4l-.264-.153v-.4l-2.479-1.431v.4l-.265-.153v-.4l-2.479-1.431v.4l-.264-.153v-.4l-2.479-1.431v.4l-.265-.153,0-.4-2.479-1.431v.4l-.265-.153v-.4l-2.479-1.431v.4l-.264-.153v-.4l-2.479-1.431v.4l-.264-.153v-.4l-2.479-1.431v.4l-.265-.153v-.4l-2.479-1.431v.4l-.264-.153v-.4l-2.482-1.434v.4l-.265-.153v-.4l-1.956-1.128-.249-.144.006-2.134-.347-.2v-.3l.348.2.015-5.352-.346-.2v-.3l.348.2.015-5.353-.347-.2v-.3l.346.2.016-5.353-.348-.2v-.3l.346.2.016-5.353-.348-.2v-.3l.348.2Zm-65.191-13.107.073-26.02,1.8,1.036-.074,26.02-1.795-1.036Zm6.443,3.72.079-28.1,1.795,1.036-.079,28.1-1.795-1.036Zm2.038,1.177.09-31.913,1.8,1.037-.091,31.912-1.795-1.036Zm-20.263-47.179.012-3.92,107.71,62.186-.012,3.92-107.71-62.186Zm.017-5.918.012-3.92,107.708,62.186-.011,3.92-107.71-62.186Zm10.712-1.819.008-2.958L1608.6,384.06l-.008,2.959-20.215-11.672Zm32.575,18.808.009-2.959,22.4,12.935-.009,2.959-22.4-12.935Zm30.948,17.8.008-2.959,32.65,18.852-.009,2.958-32.65-18.85Zm.013-4.567.008-2.958,32.65,18.85-.009,2.958-32.65-18.85ZM1588.8,367.944l0-.6,22.412,12.939,0,.6L1588.8,367.944Zm63.121,34.883.009-2.958,32.65,18.85-.008,2.959-32.65-18.852Zm.014-4.566.007-2.959,32.651,18.85-.009,2.959-32.65-18.85Zm-19.454-15.5a2.341,2.341,0,0,0,1.5.366l2.231,3.864a4.351,4.351,0,0,1-3.45-.479l-.009,2.8a3.326,3.326,0,0,1,1.2,2.373c0,.944-.673,1.326-1.494.852a3.275,3.275,0,0,1-1.485-2.572c0-.832.521-1.228,1.207-.986l.008-2.8a11.9,11.9,0,0,1-3.441-3.5l2.243-1.281a5.23,5.23,0,0,0,1.5,1.362Zm19.467,10.932.009-2.959,32.65,18.85-.009,2.959-32.65-18.85Zm-66.095-39.454a4.807,4.807,0,0,1-2.182-3.778c0-1.391.986-1.951,2.2-1.252a4.876,4.876,0,0,1,2.165,3.438l5.4,3.12,0,.661-5.4-3.12c-.144,1.15-1.067,1.572-2.176.931Zm40.726,22.467c-.014-.2-.02-.4-.019-.589a4.461,4.461,0,0,1,1.333-3.527l2.231,3.864a2.3,2.3,0,0,0-.438,1.469,5.813,5.813,0,0,0,.982,3.027l-2.222,1.266a13.017,13.017,0,0,1-1.793-4.8l-1.96-1.132c-.137.708-.741.953-1.465.534a3.274,3.274,0,0,1-1.485-2.568c0-.947.674-1.327,1.5-.852a3.319,3.319,0,0,1,1.457,2.222l1.884,1.087Zm9.925,10.161-2.208-3.824a1.861,1.861,0,0,0,1-1.885,5.159,5.159,0,0,0-.428-1.967l2.243-1.282a11.551,11.551,0,0,1,1.312,5.054c0,.195-.009.384-.022.566l2.4,1.385c.138-.709.743-.951,1.465-.534a3.266,3.266,0,0,1,1.484,2.572c0,.943-.671,1.324-1.494.849a3.326,3.326,0,0,1-1.458-2.222l-2.476-1.43a3.536,3.536,0,0,1-1.814,2.719Zm15.457,2.26.009-2.959,32.65,18.85-.008,2.959-32.65-18.85Zm-60.708-36.487a4.806,4.806,0,0,1-2.182-3.779c0-1.39.985-1.951,2.2-1.252a4.874,4.874,0,0,1,2.165,3.438l5.739,3.313,0,.661-5.739-3.313c-.144,1.153-1.064,1.574-2.176.932Zm60.721,31.917.008-2.958,32.65,18.85-.009,2.958-32.65-18.85Zm-49.464-20.267,3.168-10.494,5.54,25.244-11.207-6.471-5.6-3.235-5.6-3.234,5.637-9.422,2.347,6.7,3.271-8.172,2.448,9.085Zm-5.531-13a4.809,4.809,0,0,1-2.183-3.779c0-1.39.986-1.95,2.2-1.251a4.876,4.876,0,0,1,2.165,3.438l5.739,3.313,0,.661-5.739-3.313c-.145,1.152-1.067,1.572-2.176.931Zm35.4,18.716a3.318,3.318,0,0,1-1.2-2.37c0-.946.673-1.325,1.495-.852a3.276,3.276,0,0,1,1.484,2.572c0,.831-.522,1.225-1.207.983l-.007,2.655a12.643,12.643,0,0,1,3.908,4.427l-2.222,1.266a5.885,5.885,0,0,0-2.134-2.371,1.885,1.885,0,0,0-2.14-.1l-2.208-3.824c1.057-.7,2.556-.668,4.221.25l.007-2.639Zm19.607,9.981.008-2.958,32.65,18.85-.007,2.959-32.651-18.852Zm-73.668-52.312.008-2.959,20.215,11.671-.008,2.959-20.215-11.671Zm22.083,12.75.009-2.959,22.4,12.935-.008,2.959-22.4-12.935Zm24.593,14.2.007-2.958,10.3,5.946-.009,2.959-10.3-5.947Zm11.908,6.876.008-2.959,22.407,12.937-.009,2.958L1636.906,361.5Zm-58.572-38.338.008-2.958,35.409,20.443-.009,2.959-35.409-20.444Zm36.953,21.335.009-2.958,22.407,12.936-.008,2.959L1615.287,344.5Zm24.337,14.051.009-2.958L1659.4,367l-.007,2.959-19.765-11.411Zm22.6,13.047.007-2.959,22.4,12.935-.008,2.959-22.4-12.935ZM1629.7,328l.009-2.959,55.054,31.785-.008,2.959L1629.7,328Zm.015-5.082.008-2.959,55.054,31.785-.009,2.959-55.054-31.785Zm.014-5.078.008-2.959,55.054,31.785-.008,2.959-55.054-31.785Zm61.468,22.324-118.316-68.31-.512,180.494,118.316,68.309.512-180.493Z" transform="translate(-1572.366 -271.857)" fill="#fff"/><path d="M1604.127,349.192l-3.167,10.493,3.1,11.514-5.6-3.235,11.207,6.471-5.541-25.243Z" transform="translate(-1570.812 -267.252)" fill="#bb9f59"/><path d="M1598.825,350.522l-3.27,8.173,3.221,9.191-5.6-3.235,5.6,3.235,5.6,3.235-3.1-11.514-2.45-9.085Z" transform="translate(-1571.127 -267.172)" fill="#b0fb5b"/><path d="M1593.523,351.913l-5.637,9.421,5.6,3.234,5.6,3.235-3.221-9.191-2.347-6.7Z" transform="translate(-1571.442 -267.09)" fill="#4f3663"/><path d="M1585.163,348.463v-.322l.282.163v.289l-.128.263-.119-.069.075-.26-.111-.065Zm-1.057-1.5.056-1.206.766.443v.3l-.505-.291-.025.5c.053-.072.138-.076.255-.008a.72.72,0,0,1,.322.672v.477c0,.339-.149.447-.438.282a.861.861,0,0,1-.431-.783v-.178l.274.158v.2a.3.3,0,0,0,.149.292c.093.054.15.033.15-.119v-.47a.3.3,0,0,0-.149-.295c-.093-.054-.15-.031-.15.121v.066l-.276-.158Zm1.13-2.08c-1.209-.7-2.192-.139-2.2,1.252a4.807,4.807,0,0,0,2.182,3.778c1.109.641,2.032.218,2.176-.931l-1.133-.654-.182.67-.292-.17.183-.669-.746-.431,0-.66.9.519.092-.337-.581-.335v-.3l.873.5v.291l-.094.349.979.565a4.876,4.876,0,0,0-2.165-3.438Z" transform="translate(-1571.73 -267.526)" fill="#4f3663"/><path d="M1589.6,345.407c-.093-.053-.15-.03-.152.125v.381a.308.308,0,0,0,.15.295c.093.054.151.031.151-.122v-.38a.311.311,0,0,0-.149-.3Zm.621,1.444v-.324l.28.162v.291l-.128.263-.119-.069.078-.259-.111-.065Zm-.624-.336a.882.882,0,0,1-.442-.793l0-1.089c0-.357.146-.469.447-.3a.867.867,0,0,1,.433.787v.057l-.276-.16v-.077a.308.308,0,0,0-.149-.3c-.1-.059-.161-.036-.162.166v.39c.05-.093.141-.107.27-.032a.718.718,0,0,1,.322.672v.39c0,.34-.159.445-.444.281Zm.737-3.147c-1.21-.7-2.192-.138-2.2,1.252a4.806,4.806,0,0,0,2.182,3.779c1.113.642,2.032.22,2.176-.932l-1.334-.77a.308.308,0,0,0-.159.254l0,.05.549.317v.3l-.841-.485v-.263a.532.532,0,0,1,.116-.368l-.5-.291v-.66l.93.536a.626.626,0,0,0,.037-.229c0-.191-.058-.275-.149-.327s-.153-.032-.154.12v.229l-.276-.158v-.209c0-.339.149-.45.437-.284a.929.929,0,0,1,.4,1.029l.946.546a4.874,4.874,0,0,0-2.165-3.438Z" transform="translate(-1571.427 -267.616)" fill="#b0fb5b"/><path d="M1595,344.365c-.1-.059-.165-.021-.166.145v.2a.344.344,0,0,0,.165.337c.09.052.16.041.163-.147v-.2a.357.357,0,0,0-.163-.336Zm1.536,0c-.093-.054-.151-.034-.151.119v.178l.3.174v-.179a.3.3,0,0,0-.15-.291Zm-1.533-.889c-.093-.054-.166-.046-.166.145v.12a.338.338,0,0,0,.165.322c.091.052.163.04.164-.132v-.119a.345.345,0,0,0-.162-.336Zm.624,2.212v-.322l.28.162v.288l-.128.264-.119-.069.078-.26-.111-.064Zm-.629-.34a.886.886,0,0,1-.454-.8v-.166c0-.2.053-.334.18-.34a.8.8,0,0,1-.177-.532v-.069c0-.339.162-.44.458-.269a.882.882,0,0,1,.451.794v.069c0,.209-.06.317-.18.325a.835.835,0,0,1,.178.547v.167c0,.342-.162.443-.455.273Zm.741-3.249c-1.21-.7-2.192-.139-2.2,1.251a4.809,4.809,0,0,0,2.183,3.779c1.109.641,2.031.22,2.176-.931l-.924-.534v.271c0,.36-.144.471-.447.3a.86.86,0,0,1-.431-.786v-.053l.274.158v.074a.313.313,0,0,0,.149.3c.1.059.161.033.162-.17V345.5l-.091-.053a.253.253,0,0,1-.178-.043.588.588,0,0,1-.182-.164l-.5-.29v-.661l.364.21v-.158c0-.339.157-.443.442-.279a.872.872,0,0,1,.442.789V345l.925.534a4.876,4.876,0,0,0-2.165-3.438Z" transform="translate(-1571.105 -267.692)" fill="#bb9f59"/><path d="M1586.008,347.444l-.9-.519,0,.66.746.431.157-.572Zm6.674,3.854-5.4-3.12-.979-.565-.156.572,1.133.654,5.4,3.12,0-.661Z" transform="translate(-1571.607 -267.387)" fill="#4f3563"/><path d="M1591.132,345.951l-.93-.536v.66l.5.291c.134-.155.343-.193.428-.415Zm6.979,4.029-5.739-3.313-.946-.546a.816.816,0,0,1-.39.437l1.334.77,5.739,3.313,0-.661Z" transform="translate(-1571.304 -267.477)" fill="#b3fa5f"/><path d="M1596.559,345.225a.144.144,0,0,1-.092.078l.091.053v-.131Zm-.589-.871-.364-.21v.661l.5.29a.862.862,0,0,1-.138-.51v-.232Zm.59.341-.3-.174v.206a.309.309,0,0,0,.149.3c.093.053.15.03.151-.122v-.206Zm6.956,4.016-5.739-3.313-.925-.534v.661l.924.534,5.739,3.313,0-.661Z" transform="translate(-1570.982 -267.552)" fill="#ba9d56"/><path d="M1584.868,346.13l-.766-.443-.056,1.206.275.158v-.066c0-.151.057-.175.15-.121a.3.3,0,0,1,.149.295v.47c0,.152-.057.173-.15.119a.3.3,0,0,1-.149-.292v-.2l-.274-.158v.178a.861.861,0,0,0,.431.783c.288.165.437.057.438-.282V347.3a.719.719,0,0,0-.322-.672c-.117-.068-.2-.064-.255.008l.025-.5.506.291v-.3Z" transform="translate(-1571.671 -267.46)" fill="#fff"/><path d="M1585.327,348.1l-.282-.163v.322l.111.064-.076.26.119.069.128-.263V348.1Z" transform="translate(-1571.611 -267.326)" fill="#fff"/><path d="M1586.37,347l-.873-.5v.3l.58.335-.093.337-.157.571-.183.669.293.169.182-.67.156-.572.095-.348V347Z" transform="translate(-1571.584 -267.412)" fill="#fff"/><path d="M1589.538,346.142a.308.308,0,0,1-.15-.295v-.381c0-.155.058-.178.152-.125a.311.311,0,0,1,.149.3v.38c0,.153-.057.176-.151.122Zm.007-1.871c-.3-.173-.446-.06-.447.3l0,1.089a.882.882,0,0,0,.442.793c.285.164.443.059.444-.281v-.39a.718.718,0,0,0-.322-.672c-.129-.075-.22-.061-.27.032v-.39c0-.2.058-.226.162-.166a.308.308,0,0,1,.149.3v.077l.276.16v-.057a.867.867,0,0,0-.433-.787Z" transform="translate(-1571.37 -267.549)" fill="#fff"/><path d="M1590.382,346.495l-.28-.162v.324l.111.064-.078.259.119.069.128-.263v-.292Z" transform="translate(-1571.31 -267.422)" fill="#fff"/><path d="M1591.007,345.115c-.287-.166-.436-.055-.437.284v.209l.276.158v-.229c0-.152.06-.174.154-.12s.15.137.149.327a.626.626,0,0,1-.037.229c-.085.223-.294.261-.428.415a.532.532,0,0,0-.116.368v.263l.841.485v-.3l-.549-.317,0-.05a.308.308,0,0,1,.159-.254.816.816,0,0,0,.39-.437.929.929,0,0,0-.4-1.029Z" transform="translate(-1571.282 -267.499)" fill="#fff"/><path d="M1594.94,344.972a.344.344,0,0,1-.165-.337v-.2c0-.166.063-.2.166-.145a.357.357,0,0,1,.163.336v.2c0,.189-.073.2-.163.147Zm0-.982a.338.338,0,0,1-.165-.322v-.12c0-.191.073-.2.166-.145a.345.345,0,0,1,.162.336v.119c0,.173-.073.184-.164.132Zm0-.89c-.3-.171-.457-.07-.458.269v.069a.8.8,0,0,0,.177.532c-.127.006-.179.138-.18.34v.166a.886.886,0,0,0,.454.8c.292.17.453.069.455-.273v-.167a.835.835,0,0,0-.178-.547c.12-.008.179-.117.18-.325v-.069a.882.882,0,0,0-.451-.794Z" transform="translate(-1571.049 -267.619)" fill="#fff"/><path d="M1595.788,345.327l-.28-.162v.321l.111.064-.078.259.119.069.128-.263v-.289Z" transform="translate(-1570.988 -267.491)" fill="#fff"/><path d="M1596.238,344.538v-.178c0-.153.057-.173.151-.119a.3.3,0,0,1,.15.291v.385c0,.152-.058.175-.151.122a.309.309,0,0,1-.149-.3v-.206Zm.152-.6c-.285-.164-.441-.06-.442.279v.39a.862.862,0,0,0,.138.51.588.588,0,0,0,.182.164.253.253,0,0,0,.178.043.144.144,0,0,0,.092-.078v.39c0,.2-.058.229-.162.169a.313.313,0,0,1-.149-.3v-.074l-.274-.158v.053a.86.86,0,0,0,.431.786c.3.175.446.064.447-.3v-1.089a.872.872,0,0,0-.442-.789Z" transform="translate(-1570.962 -267.569)" fill="#fff"/><path d="M1610.295,374.916l-22.412-12.94,0,.6,22.412,12.94,0-.6Z" transform="translate(-1571.442 -266.49)" fill="#4f3663"/><path d="M1633.631,371.95l-2.243,1.282a5.159,5.159,0,0,1,.428,1.967,1.861,1.861,0,0,1-1,1.885l2.208,3.824a3.536,3.536,0,0,0,1.814-2.719l-1.479-.854,0-.663,1.557.9c.014-.182.022-.371.022-.566a11.551,11.551,0,0,0-1.312-5.054Z" transform="translate(-1568.885 -265.896)" fill="#bb9f59"/><path d="M1629.24,367.026c-1.666-.918-3.164-.948-4.221-.25l2.208,3.824a1.885,1.885,0,0,1,2.14.1,5.885,5.885,0,0,1,2.134,2.371l2.222-1.266a12.643,12.643,0,0,0-3.908-4.427l-.006,2.029-.574-.332.005-2.046Z" transform="translate(-1569.23 -266.233)" fill="#4f3663"/><path d="M1630.812,376.971a2.341,2.341,0,0,1-1.5-.366,5.23,5.23,0,0,1-1.5-1.362l-2.243,1.281a11.9,11.9,0,0,0,3.441,3.5l.005-1.805.574.333,0,1.8a4.351,4.351,0,0,0,3.45.479l-2.231-3.864Z" transform="translate(-1569.197 -265.7)" fill="#b0fb5b"/><path d="M1624.851,366.929a4.461,4.461,0,0,0-1.333,3.527c0,.194.005.391.019.589l2.035,1.176v.663l-1.959-1.131a13.017,13.017,0,0,0,1.793,4.8l2.222-1.266a5.813,5.813,0,0,1-.982-3.027,2.3,2.3,0,0,1,.438-1.469l-2.231-3.864Z" transform="translate(-1569.32 -266.195)" fill="#f5f371"/><path d="M1621.111,370.119l-.2-.118v.1a.2.2,0,0,0,.1.2c.063.036.1.022.1-.082v-.1Zm-.718.023v-.219l.19.109v.22l-.189-.11Zm-.71-1.372v-.14c0-.232.1-.306.3-.193a.586.586,0,0,1,.295.534c0,.455-.4.4-.4.634l0,.032.375.217v.208l-.572-.331v-.178c0-.426.392-.271.393-.689,0-.13-.038-.189-.1-.226s-.1-.017-.1.084v.155l-.187-.107Zm.784-1.068c-.821-.475-1.492-.1-1.5.852a3.274,3.274,0,0,0,1.485,2.568c.725.419,1.329.174,1.465-.534l-.612-.354v.09c0,.232-.1.3-.3.192a.583.583,0,0,1-.294-.533v-.09l-.26-.149,0-.663.279.16.015-.34.523.3v.208l-.344-.2-.007.136,1,.575a3.319,3.319,0,0,0-1.457-2.222Z" transform="translate(-1569.591 -266.162)" fill="#f5f371"/><path d="M1620.658,369.152l-.279-.16,0,.663.26.149v-.03l.187.108v.03l.2.118v-.214a.212.212,0,0,0-.1-.2c-.065-.037-.1-.021-.1.084v.041l-.187-.108.021-.48Zm5.1,2.947-2.035-1.176-1.884-1.087-1-.575-.01.2c.036-.048.093-.053.174-.007a.494.494,0,0,1,.219.461v.232l.612.354,1.96,1.132,1.959,1.131V372.1Z" transform="translate(-1569.507 -266.073)" fill="#f5f371"/><path d="M1619.94,368.388c-.2-.113-.3-.039-.3.193v.14l.187.107v-.155c0-.1.039-.12.1-.084s.1.1.1.226c0,.417-.392.263-.393.689v.178l.572.331V369.8l-.375-.217,0-.032c0-.237.4-.179.4-.634a.586.586,0,0,0-.295-.534Z" transform="translate(-1569.551 -266.112)" fill="#fff"/><path d="M1620.5,369.9l-.189-.109v.22l.189.109v-.22Z" transform="translate(-1569.511 -266.025)" fill="#fff"/><path d="M1621.182,369.125l-.523-.3-.015.34-.021.48.187.108v-.041c0-.1.04-.121.1-.084a.212.212,0,0,1,.1.2v.319c0,.1-.039.118-.1.082a.2.2,0,0,1-.1-.2v-.134l-.187-.108v.12a.583.583,0,0,0,.294.533c.195.112.3.04.3-.192v-.322a.494.494,0,0,0-.219-.461c-.081-.046-.138-.04-.174.007l.01-.2.007-.136.344.2v-.208Z" transform="translate(-1569.492 -266.083)" fill="#fff"/><path d="M1629.375,361.464c-.822-.474-1.492-.094-1.495.852a3.318,3.318,0,0,0,1.2,2.37l0-.908-.494-.286v-.178c0-.426.4-.27.4-.687,0-.131-.038-.19-.1-.227s-.1-.02-.1.085v.155l-.19-.109v-.14c0-.232.1-.305.3-.193a.582.582,0,0,1,.295.534c0,.456-.4.4-.4.636l0,.031.3.171v-.38l.575.332v.122l.158.091v.135a.207.207,0,0,0,.1.2c.065.037.1.024.1-.081v-.318a.21.21,0,0,0-.1-.2c-.062-.036-.1-.019-.1.085v.045l-.189-.109.038-.821.523.3v.209l-.344-.2-.016.336c.036-.047.093-.053.174-.006a.489.489,0,0,1,.216.459v.322c0,.232-.1.3-.3.192a.564.564,0,0,1-.264-.324l0,1.066c.684.242,1.2-.153,1.207-.983a3.276,3.276,0,0,0-1.484-2.572Z" transform="translate(-1569.06 -266.533)" fill="#4f3663"/><path d="M1629.233,363.8v-.22l.189.109v.22l-.19-.109Zm.357-.385-.575-.332v.38l.078.046v.208l-.078-.044,0,.908-.007,2.639-.005,2.046.574.332.006-2.029.007-2.655,0-1.066a.67.67,0,0,1-.031-.209v-.12l.032.018v-.122Z" transform="translate(-1568.994 -266.425)" fill="#4f3663"/><path d="M1628.845,362.149c-.194-.112-.3-.039-.3.193v.14l.19.109v-.155c0-.1.039-.121.1-.085s.1.1.1.227c0,.416-.4.261-.4.687v.178l.494.286.078.044v-.208l-.078-.046-.3-.171,0-.031c0-.238.4-.18.4-.636a.582.582,0,0,0-.295-.534Z" transform="translate(-1569.02 -266.483)" fill="#fff"/><path d="M1629.41,363.658l-.189-.109v.22l.189.109v-.22Z" transform="translate(-1568.98 -266.397)" fill="#fff"/><path d="M1630.09,362.887l-.523-.3-.038.821.189.109v-.045c0-.1.039-.121.1-.085a.21.21,0,0,1,.1.2v.318c0,.1-.04.118-.1.081a.207.207,0,0,1-.1-.2v-.135l-.158-.091-.032-.018v.12a.67.67,0,0,0,.031.209.563.563,0,0,0,.264.324c.194.112.3.04.3-.192v-.322a.489.489,0,0,0-.216-.459c-.08-.047-.138-.04-.174.006l.016-.336.344.2v-.209Z" transform="translate(-1568.962 -266.454)" fill="#fff"/><path d="M1629.1,384.973v-.217l.192.11v.217l-.192-.11Zm-.211-2.574c-.686-.242-1.2.155-1.207.986a3.275,3.275,0,0,0,1.485,2.572c.821.474,1.492.092,1.494-.852a3.326,3.326,0,0,0-1.2-2.373l0,1.121.005-.118.523.3v.206l-.344-.2-.017.337c.036-.048.093-.051.172-.005a.488.488,0,0,1,.218.458v.324c0,.229-.1.3-.3.193a.591.591,0,0,1-.295-.534v-.122l.187.107v.135a.214.214,0,0,0,.1.2c.062.036.1.021.1-.083v-.319a.217.217,0,0,0-.1-.2c-.061-.036-.1-.018-.1.083v.044l-.186-.107.012-.253-.5-.287c-.1.231-.356.231-.357.423l0,.035.373.215v.206l-.572-.331v-.176c0-.429.4-.27.4-.69a.222.222,0,0,0-.1-.224c-.062-.036-.1-.021-.1.084v.155l-.187-.108v-.14c0-.232.1-.307.3-.2a.558.558,0,0,1,.2.189l0-1.056Z" transform="translate(-1569.072 -265.278)" fill="#b0fb5b"/><path d="M1629.405,378.385l-.574-.333-.005,1.805-.008,2.8,0,1.056a.633.633,0,0,1,.1.349.51.51,0,0,1-.039.21l.5.287.021-.448,0-1.121.009-2.8,0-1.8Z" transform="translate(-1569.005 -265.533)" fill="#b0fb5b"/><path d="M1628.643,383.217c-.194-.111-.3-.036-.3.2v.14l.187.108v-.155c0-.1.041-.12.1-.084a.222.222,0,0,1,.1.224c0,.42-.4.261-.4.69v.176l.572.331v-.206l-.373-.215,0-.035c0-.192.257-.192.357-.423a.51.51,0,0,0,.039-.21.633.633,0,0,0-.1-.349.558.558,0,0,0-.2-.189Z" transform="translate(-1569.032 -265.229)" fill="#fff"/><path d="M1629.208,384.73l-.192-.111v.217l.192.111v-.217Z" transform="translate(-1568.992 -265.142)" fill="#fff"/><path d="M1629.888,383.958l-.523-.3-.005.118-.021.448-.012.253.186.107v-.044c0-.1.042-.119.1-.083a.217.217,0,0,1,.1.2v.319c0,.1-.042.119-.1.083a.214.214,0,0,1-.1-.2v-.135l-.187-.107v.122a.591.591,0,0,0,.295.534c.194.111.3.036.3-.193v-.324a.488.488,0,0,0-.218-.458c-.078-.046-.136-.042-.172.005l.017-.337.344.2v-.206Z" transform="translate(-1568.974 -265.199)" fill="#fff"/><path d="M1637.924,379c-.062-.036-.1-.016-.1.085v.015l.2.119a.219.219,0,0,0-.1-.218Zm.422,1.5v-.22l.19.109v.22l-.189-.109Zm.325-.423.038-.819.523.3v.209l-.344-.2-.017.337c.036-.048.093-.054.174-.007a.489.489,0,0,1,.216.459v.322c0,.232-.1.306-.3.193a.587.587,0,0,1-.295-.534v-.119l.188.109v.134a.2.2,0,0,0,.1.2c.065.037.1.024.1-.079v-.319a.211.211,0,0,0-.1-.2c-.061-.036-.1-.02-.1.084v.042l-.188-.109Zm-.251-2.017c-.723-.417-1.328-.175-1.465.534l.681.393c0-.232.1-.306.293-.194a.582.582,0,0,1,.295.534l.156.09,0,.663-.468-.27a.189.189,0,0,0-.082.153l0,.032.373.215v.209l-.57-.33v-.179a.377.377,0,0,1,.059-.225l-.741-.427a3.326,3.326,0,0,0,1.458,2.222c.823.476,1.492.094,1.494-.849a3.266,3.266,0,0,0-1.484-2.572Z" transform="translate(-1568.52 -265.544)" fill="#bb9f59"/><path d="M1638.249,379.309l-.2-.119v.14l-.186-.107v-.141l-.681-.393-2.4-1.385-1.557-.9,0,.663,1.479.854,2.476,1.43.741.427c.11-.159.333-.148.334-.463v-.008Zm.353.2-.156-.09c0,.323-.2.388-.315.483l.468.27,0-.663Z" transform="translate(-1568.742 -265.631)" fill="#ba9d56"/><path d="M1637.891,378.752c-.194-.112-.292-.038-.293.194v.141l.186.107v-.155c0-.1.039-.121.1-.085a.219.219,0,0,1,.1.218v.008c0,.315-.224.3-.334.463a.377.377,0,0,0-.059.225v.179l.57.33v-.209l-.373-.215,0-.032a.189.189,0,0,1,.082-.153c.115-.1.314-.16.315-.483a.582.582,0,0,0-.295-.534Z" transform="translate(-1568.482 -265.494)" fill="#fff"/><path d="M1638.456,380.262l-.189-.109v.22l.189.109v-.22Z" transform="translate(-1568.442 -265.408)" fill="#fff"/><path d="M1639.136,379.49l-.523-.3-.038.819.188.109v-.042c0-.1.04-.12.1-.084a.211.211,0,0,1,.1.2v.319c0,.1-.039.117-.1.079a.2.2,0,0,1-.1-.2v-.134l-.188-.109v.119a.587.587,0,0,0,.295.534c.2.113.3.039.3-.193v-.322a.489.489,0,0,0-.216-.459c-.081-.047-.138-.04-.174.007l.017-.337.344.2v-.209Z" transform="translate(-1568.423 -265.465)" fill="#fff"/><path d="M1630.995,426.082v-.262l.231.134v.235l-.107.215-.1-.055.063-.214-.091-.053Zm-1.568-2.239v-.2c.184.106.226.029.263-.067l.16.093,0,1.744-.238-.137,0-1.331-.183-.107Zm1.964,1.734.045-.989.631.365v.248l-.418-.242-.019.407c.044-.055.111-.061.208-.005a.593.593,0,0,1,.266.553v.39c0,.277-.124.367-.359.231a.706.706,0,0,1-.354-.643v-.145l.225.129v.161a.252.252,0,0,0,.124.245c.075.043.122.022.122-.1V425.8a.248.248,0,0,0-.121-.241c-.078-.044-.125-.026-.125.1v.053l-.226-.129Zm-1.252-1.15v-.171c0-.277.123-.367.356-.232a.708.708,0,0,1,.357.644c0,.55-.479.481-.48.766l0,.04.453.262v.247l-.691-.4v-.215c0-.512.476-.324.478-.828,0-.158-.049-.228-.124-.271s-.125-.024-.125.1v.184l-.224-.129Zm-2.022-4.516-.017,5.763a9.534,9.534,0,0,1,2.959,3.33l3.554-2.027a19.74,19.74,0,0,0-6.5-7.066Z" transform="translate(-1569.047 -263.04)" fill="#4f3663"/><path d="M1634.561,433.015v-.265l.228.131v.238l-.1.216-.1-.056.066-.213-.091-.052Zm-1.568-2.242v-.194c.184.107.226.03.263-.069l.16.093-.005,1.747-.237-.138,0-1.334-.183-.106Zm1.961,1.736.047-.99.63.363v.25l-.414-.24-.019.406c.042-.059.112-.064.208-.009a.592.592,0,0,1,.263.555v.387c0,.28-.123.37-.356.235a.709.709,0,0,1-.357-.646v-.143l.226.13v.16a.253.253,0,0,0,.124.242c.077.046.124.028.125-.1v-.385a.254.254,0,0,0-.124-.244c-.075-.043-.124-.024-.125.1v.054l-.226-.13Zm-1.25-1.149v-.17c0-.28.123-.368.356-.233a.7.7,0,0,1,.356.644c0,.548-.479.478-.479.767l0,.037.45.26v.25l-.69-.4V432.3c0-.515.474-.326.475-.833,0-.155-.047-.226-.121-.269s-.125-.024-.125.1v.188l-.226-.13Zm1.141-4.046-3.579,2.036a8.5,8.5,0,0,1,.807,3.441,5.275,5.275,0,0,1-.049.715l5.036,2.907c.014-.237.022-.479.023-.73a18.656,18.656,0,0,0-2.239-8.37Z" transform="translate(-1568.859 -262.6)" fill="#f5f371"/><path d="M1622.994,434.457v-.39l.34.2v.351l-.155.32-.145-.084.094-.316-.135-.077Zm-1.281-2.949v-.37l1.054.609v.354l-.525,1.922-.352-.2.521-1.908-.7-.4Zm1.865,2.2.069-1.457.927.536v.369l-.611-.353-.03.6c.065-.082.166-.091.306-.011a.874.874,0,0,1,.389.815v.574c0,.411-.181.544-.526.344a1.04,1.04,0,0,1-.523-.949v-.215l.332.192v.238a.373.373,0,0,0,.183.356c.112.065.182.039.182-.145l0-.566a.373.373,0,0,0-.181-.357c-.111-.065-.184-.038-.184.146v.077l-.332-.192Zm4.467-14.077c-5.1-2.754-9.2-.3-9.218,5.607,0,.25.006.5.019.753l.06.753a20.415,20.415,0,0,0,2.785,7.994c.147.252.3.5.46.749a19.089,19.089,0,0,0,5.832,5.961c.1.066.208.125.311.185s.21.121.313.175c4.675,2.526,8.507.677,9.131-4.193l-5.109-2.95c-.527,1.73-2.106,2.327-4.005,1.382-.1-.053-.208-.107-.314-.169s-.208-.126-.31-.192a8.9,8.9,0,0,1-2.27-2.24c-.171-.238-.334-.485-.486-.737a10.168,10.168,0,0,1-1.229-3.018,7.761,7.761,0,0,1-.135-.8,6.58,6.58,0,0,1-.046-.768c.009-2.73,1.859-3.9,4.194-2.735l.017-5.764Z" transform="translate(-1569.599 -263.124)" fill="#bb9f59"/><path d="M1618.845,425.574c.015.253.035.5.06.753-.025-.25-.046-.5-.06-.753Z" transform="translate(-1569.598 -262.703)" fill="#8d59b9"/><path d="M1618.845,425.574c.015.253.035.5.06.753l-.06-.753Z" transform="translate(-1569.598 -262.703)" fill="#8d59b9"/><path d="M1622.606,431.038l-1.054-.609v.369l.7.4-.522,1.908.352.2.524-1.922v-.354Z" transform="translate(-1569.437 -262.414)" fill="#fff"/><path d="M1623.1,433.389l-.339-.2v.39l.135.078-.094.315.145.084.154-.319v-.351Z" transform="translate(-1569.365 -262.249)" fill="#fff"/><path d="M1624.307,432.018l-.927-.536-.069,1.457.332.192v-.077c0-.184.073-.211.184-.146a.373.373,0,0,1,.181.357l0,.566c0,.184-.07.21-.182.145a.373.373,0,0,1-.183-.356v-.238l-.332-.192v.215a1.04,1.04,0,0,0,.523.949c.344.2.525.067.526-.344v-.574a.874.874,0,0,0-.389-.815c-.14-.081-.241-.071-.306.011l.03-.6.611.353v-.369Z" transform="translate(-1569.332 -262.351)" fill="#fff"/><path d="M1629.775,423.467l-.16-.093c-.037.1-.078.173-.263.067v.2l.183.107,0,1.331.238.137,0-1.744Z" transform="translate(-1568.972 -262.834)" fill="#fff"/><path d="M1630.38,423.8c-.233-.135-.355-.044-.356.232v.171l.224.129v-.184c0-.125.05-.144.125-.1s.124.113.124.271c0,.5-.476.316-.478.828v.215l.691.4v-.247l-.453-.262,0-.04c0-.285.478-.216.48-.766a.708.708,0,0,0-.357-.644Z" transform="translate(-1568.933 -262.813)" fill="#fff"/><path d="M1631.064,425.621l-.231-.133v.262l.091.052-.063.214.1.055.107-.216v-.235Z" transform="translate(-1568.884 -262.708)" fill="#fff"/><path d="M1631.882,424.691l-.631-.365-.045.989.226.129v-.053c0-.125.047-.143.125-.1a.248.248,0,0,1,.121.241v.384c0,.125-.047.146-.122.1a.252.252,0,0,1-.124-.245v-.161l-.225-.129v.145a.706.706,0,0,0,.354.643c.235.136.358.046.359-.231v-.39a.593.593,0,0,0-.266-.553c-.1-.056-.163-.05-.208.005l.019-.407.418.242v-.248Z" transform="translate(-1568.862 -262.777)" fill="#fff"/><path d="M1633.319,430.424l-.16-.093c-.037.1-.078.176-.263.069v.194l.183.106,0,1.334.237.138.005-1.747Z" transform="translate(-1568.761 -262.42)" fill="#fff"/><path d="M1633.924,430.756c-.233-.135-.355-.047-.356.233v.17l.226.13V431.1c0-.125.047-.146.125-.1s.121.114.121.269c0,.506-.474.318-.475.833v.214l.69.4v-.25l-.45-.26,0-.037c0-.289.478-.219.479-.767a.7.7,0,0,0-.356-.644Z" transform="translate(-1568.722 -262.398)" fill="#fff"/><path d="M1634.6,432.576l-.228-.132v.265l.091.052-.066.213.1.057.1-.217v-.238Z" transform="translate(-1568.673 -262.294)" fill="#fff"/><path d="M1635.424,431.646l-.63-.363-.047.99.226.13v-.054c0-.125.05-.144.125-.1a.254.254,0,0,1,.124.244v.385c0,.125-.048.143-.125.1a.253.253,0,0,1-.124-.242v-.16l-.226-.13v.143a.709.709,0,0,0,.357.646c.233.135.355.044.356-.235v-.387a.592.592,0,0,0-.263-.555c-.1-.055-.166-.051-.208.009l.019-.406.414.24v-.25Z" transform="translate(-1568.651 -262.363)" fill="#fff"/><path d="M1609.241,430.03l-22.7-13.105,0,.625,22.7,13.105,0-.625Z" transform="translate(-1571.522 -263.218)" fill="#4f3663"/><path d="M1588.393,399.348l-1.8-1.037-.052,18.346,1.8,1.037.052-18.346Z" transform="translate(-1571.522 -264.327)" fill="#593d70"/><path d="M1590.339,393.216l-1.8-1.037-.074,26.021,1.8,1.037.074-26.021Z" transform="translate(-1571.407 -264.692)" fill="#b0fb5b"/><path d="M1592.252,398.019l-1.8-1.037-.063,22.109,1.8,1.037.063-22.109Z" transform="translate(-1571.292 -264.406)" fill="#bb9f59"/><path d="M1596.426,394.76l-1.8-1.036-.08,28.1,1.8,1.036.08-28.1Z" transform="translate(-1571.045 -264.6)" fill="#593d70"/><path d="M1598.36,392.278l-1.8-1.037-.09,31.912,1.8,1.036.09-31.912Z" transform="translate(-1570.93 -264.748)" fill="#b0fb5b"/><path d="M1600.232,410.242l-1.8-1.037-.04,14.054,1.8,1.036.04-14.054Z" transform="translate(-1570.816 -263.678)" fill="#bb9f59"/><path d="M1604.279,406.691l-1.793-1.035-.057,20.281,1.793,1.035.057-20.281Z" transform="translate(-1570.576 -263.889)" fill="#593d70"/><path d="M1606.213,404.6l-1.8-1.036-.067,23.672,1.8,1.036.067-23.672Z" transform="translate(-1570.461 -264.014)" fill="#b0fb5b"/><path d="M1608.117,412.2l-1.8-1.037-.048,16.8,1.8,1.037.048-16.8Z" transform="translate(-1570.347 -263.561)" fill="#bb9f59"/><path d="M1650.184,452.239l-.249-.143-.006,2.134.249.144-.249-.144v-.288l.249.143.005-1.846Zm.016-5.656-.249-.143-.015,5.352.249.144.015-5.353Zm.016-5.656-.249-.144-.015,5.353.249.143.015-5.352Zm.016-5.656-.248-.144-.016,5.353.249.143.015-5.352Zm.017-5.656-.249-.144-.016,5.353.249.143.016-5.352Zm0-1.355-.249-.143,0,1.05.248.144,0-1.051Z" transform="translate(-1567.747 -262.552)" fill="#4f3663"/><path d="M1652.135,453.763l-1.956-1.129-.249-.143v.288l.249.144,1.956,1.128v-.288Zm2.746,1.585-2.483-1.433v.288l2.482,1.434v-.289Zm2.743,1.584-2.479-1.431v.289l2.479,1.431v-.289Zm2.743,1.584-2.479-1.431v.289l2.479,1.431v-.289Zm2.744,1.584-2.479-1.431v.289l2.479,1.431V460.1Zm2.743,1.584-2.479-1.431v.289l2.479,1.431v-.289Zm2.743,1.584-2.479-1.431v.289l2.479,1.431v-.289Zm2.744,1.584-2.479-1.431v.288l2.479,1.431v-.288Zm2.743,1.584L1671.606,465v.288l2.479,1.431v-.288Zm2.743,1.584-2.479-1.431v.288l2.479,1.431v-.288Zm1.169.675-.9-.522v.288l.9.522v-.288Z" transform="translate(-1567.747 -261.1)" fill="#4f3663"/><path d="M1647.12,448.489l-.088-.051-.169,0,.018.1.135-.005h0l0,.771.1.058,0-.881Z" transform="translate(-1567.93 -261.342)" fill="#4f3663"/><path d="M1647.617,449.581c-.093-.054-.155-.218-.155-.45s.069-.326.16-.274.155.233.154.45-.052.336-.159.274Zm.011-.814c-.156-.09-.267.006-.268.3a.679.679,0,0,0,.252.6c.172.1.267-.013.268-.314a.651.651,0,0,0-.252-.592Z" transform="translate(-1567.9 -261.324)" fill="#4f3663"/><path d="M1648.192,449.913c-.1-.055-.158-.219-.157-.451s.068-.327.159-.275c.108.064.155.233.155.45s-.051.338-.157.277Zm.007-.816c-.156-.09-.267.006-.268.3a.681.681,0,0,0,.252.6c.172.1.268-.012.268-.313a.653.653,0,0,0-.252-.593Z" transform="translate(-1567.866 -261.304)" fill="#4f3663"/><path d="M1648.764,450.243c-.1-.055-.158-.219-.157-.451s.068-.327.159-.274c.109.063.155.232.155.449s-.051.338-.157.277Zm.007-.816c-.156-.089-.267.007-.268.305a.686.686,0,0,0,.252.6c.172.1.27-.012.271-.311a.657.657,0,0,0-.255-.6Z" transform="translate(-1567.832 -261.285)" fill="#4f3663"/><path d="M1647.048,443.054a.254.254,0,0,0-.217-.036l.033.1a.2.2,0,0,1,.164.02.293.293,0,0,1,.152.261c0,.132-.091.2-.288.3l-.08.043v.074l.489.283V444l-.344-.2v0l.059-.034c.164-.082.268-.156.268-.32a.468.468,0,0,0-.235-.392Z" transform="translate(-1567.933 -261.665)" fill="#4f3663"/><path d="M1647.631,444.212a.526.526,0,0,1-.154-.45c0-.241.068-.33.159-.278s.155.233.155.45-.053.339-.16.278Zm.011-.817c-.156-.09-.267.01-.268.307a.675.675,0,0,0,.252.6c.172.1.268-.013.268-.313a.652.652,0,0,0-.252-.593Z" transform="translate(-1567.899 -261.644)" fill="#4f3663"/><path d="M1648.207,444.544a.524.524,0,0,1-.157-.451c0-.242.068-.331.159-.279.109.064.155.233.155.45s-.051.341-.157.28Zm.007-.819c-.156-.09-.267.01-.268.307a.68.68,0,0,0,.252.6c.172.1.268-.013.269-.314a.656.656,0,0,0-.253-.593Z" transform="translate(-1567.865 -261.624)" fill="#4f3663"/><path d="M1648.779,444.874a.521.521,0,0,1-.157-.451c0-.242.069-.331.159-.278.109.063.156.232.155.449s-.05.341-.157.28Zm.007-.819c-.155-.089-.267.011-.268.308a.678.678,0,0,0,.253.6c.171.1.269-.012.27-.312a.657.657,0,0,0-.255-.6Z" transform="translate(-1567.831 -261.604)" fill="#4f3663"/><path d="M1647.053,437.792a.278.278,0,0,0-.2-.047l.025.1a.227.227,0,0,1,.156.031.246.246,0,0,1,.135.212c0,.1-.1.093-.172.05l-.059-.034v.089l.059.034a.365.365,0,0,1,.2.289c0,.076-.041.149-.174.073a.668.668,0,0,1-.171-.153l-.026.074a.68.68,0,0,0,.2.174c.186.107.282.04.283-.1a.447.447,0,0,0-.171-.324v0a.111.111,0,0,0,.143-.123.413.413,0,0,0-.222-.34Z" transform="translate(-1567.932 -261.979)" fill="#4f3663"/><path d="M1647.646,438.952c-.093-.053-.155-.217-.153-.449s.068-.327.159-.276c.106.061.155.233.155.45s-.053.336-.16.274Zm.011-.814c-.156-.09-.267.006-.268.3a.675.675,0,0,0,.252.6c.172.1.268-.01.268-.31a.653.653,0,0,0-.252-.593Z" transform="translate(-1567.898 -261.957)" fill="#4f3663"/><path d="M1648.222,439.284c-.1-.055-.158-.219-.157-.451s.068-.327.159-.274c.109.063.155.232.155.449s-.051.338-.157.277Zm.007-.816c-.156-.089-.267.007-.268.305a.679.679,0,0,0,.252.6c.172.1.268-.01.268-.31a.653.653,0,0,0-.252-.593Z" transform="translate(-1567.864 -261.937)" fill="#4f3663"/><path d="M1648.794,439.615c-.1-.056-.158-.219-.157-.452s.069-.326.159-.274c.109.063.155.233.155.45s-.051.337-.157.277Zm.007-.816c-.155-.09-.267.006-.268.3a.675.675,0,0,0,.253.6c.171.1.269-.007.27-.308a.657.657,0,0,0-.255-.594Z" transform="translate(-1567.83 -261.918)" fill="#4f3663"/><path d="M1646.913,432.92v0l.188-.193a.791.791,0,0,0,.066-.093h0c0,.047,0,.091,0,.139v.295l-.251-.145Zm.352-.345-.115-.067-.343.366v.077l.357.207v.242l.1.056v-.241l.106.061v-.093l-.107-.06,0-.548Z" transform="translate(-1567.933 -262.29)" fill="#4f3663"/><path d="M1647.661,433.614c-.092-.053-.155-.217-.154-.449s.068-.327.159-.275.155.23.155.45-.053.336-.16.274Zm.011-.814c-.156-.09-.267.006-.268.3a.681.681,0,0,0,.252.6c.172.1.268-.013.268-.31a.65.65,0,0,0-.252-.593Z" transform="translate(-1567.897 -262.275)" fill="#4f3663"/><path d="M1648.237,433.946c-.1-.055-.158-.219-.157-.451s.069-.327.159-.274c.109.063.155.229.155.449s-.051.338-.157.277Zm.007-.816c-.155-.089-.267.007-.268.305a.68.68,0,0,0,.252.6c.172.1.268-.013.269-.31a.652.652,0,0,0-.253-.593Z" transform="translate(-1567.863 -262.255)" fill="#4f3663"/><path d="M1648.809,434.276c-.1-.055-.158-.219-.157-.451s.069-.326.159-.274c.109.063.156.23.155.45s-.05.337-.157.275Zm.008-.815c-.155-.09-.267.006-.268.3a.676.676,0,0,0,.253.6c.171.1.269-.011.27-.308a.653.653,0,0,0-.255-.594Z" transform="translate(-1567.829 -262.235)" fill="#4f3663"/><path d="M1647.317,427.167l-.368-.212-.051.394a1.155,1.155,0,0,1,.106.052.381.381,0,0,1,.22.324c0,.115-.084.142-.182.086a.638.638,0,0,1-.163-.142l-.029.073a.757.757,0,0,0,.192.167c.168.1.288.035.288-.138a.484.484,0,0,0-.11-.291.6.6,0,0,0-.166-.143.4.4,0,0,0-.062-.03l.032-.212.293.169v-.1Z" transform="translate(-1567.93 -262.621)" fill="#4f3663"/><path d="M1647.677,428.178c-.093-.054-.155-.218-.155-.45s.069-.327.159-.274c.107.061.156.232.155.449s-.053.337-.159.275Zm.01-.815c-.156-.089-.268.011-.269.305a.684.684,0,0,0,.253.6c.171.1.267-.013.268-.314a.653.653,0,0,0-.252-.593Z" transform="translate(-1567.897 -262.598)" fill="#4f3663"/><path d="M1648.253,428.51c-.1-.056-.158-.219-.158-.452s.069-.326.16-.274c.108.063.155.233.154.45s-.053.336-.156.277Zm.007-.816c-.156-.09-.268.01-.268.3a.68.68,0,0,0,.252.6c.171.1.267-.013.268-.313a.652.652,0,0,0-.252-.593Z" transform="translate(-1567.862 -262.579)" fill="#4f3663"/><path d="M1648.825,428.84c-.1-.055-.158-.219-.158-.451s.069-.327.16-.276c.108.064.155.233.154.45s-.05.338-.156.277Zm.007-.816c-.156-.09-.268.01-.268.3a.682.682,0,0,0,.252.6c.171.1.27-.012.271-.313a.659.659,0,0,0-.255-.594Z" transform="translate(-1567.828 -262.559)" fill="#4f3663"/><path d="M1654.5,457.079c-.1-.055-.155-.22-.154-.449s.066-.329.156-.277c.109.063.156.23.155.45s-.05.337-.157.276Zm.01-.817c-.158-.091-.27.008-.271.306a.681.681,0,0,0,.255.6c.168.1.267-.013.268-.31a.659.659,0,0,0-.252-.6Z" transform="translate(-1567.49 -260.878)" fill="#4f3663"/><path d="M1655.063,456.582a.258.258,0,0,0-.217-.036l.033.106a.181.181,0,0,1,.164.02.286.286,0,0,1,.149.259c0,.131-.089.2-.286.3l-.084.044v.071l.493.284v-.1l-.344-.2v0l.059-.032c.164-.084.268-.155.268-.322a.466.466,0,0,0-.235-.392Z" transform="translate(-1567.456 -260.859)" fill="#4f3663"/><path d="M1651.954,455.609a.524.524,0,0,1-.155-.45c0-.238.068-.327.159-.275s.155.23.155.45-.053.336-.159.275Zm.01-.818c-.156-.089-.267.01-.268.307a.68.68,0,0,0,.252.6c.172.1.268-.013.269-.31a.658.658,0,0,0-.253-.6Z" transform="translate(-1567.642 -260.965)" fill="#4f3663"/><path d="M1652.6,455.175l-.088-.051-.169.007.02.1.132,0,0,0,0,.771.1.058,0-.884Z" transform="translate(-1567.603 -260.943)" fill="#4f3663"/><path d="M1657.016,458.531a.527.527,0,0,1-.155-.45c0-.238.069-.327.157-.277.109.063.158.231.157.451s-.053.337-.159.275Zm.01-.818c-.155-.089-.267.011-.268.308a.677.677,0,0,0,.253.6c.168.1.267-.013.268-.31a.66.66,0,0,0-.253-.6Z" transform="translate(-1567.34 -260.791)" fill="#4f3663"/><path d="M1657.566,458.028a.3.3,0,0,0-.2-.047l.025.1a.233.233,0,0,1,.156.034.249.249,0,0,1,.135.211c0,.1-.1.094-.172.051l-.059-.035v.09l.06.034a.365.365,0,0,1,.2.289c0,.076-.039.15-.174.073a.705.705,0,0,1-.172-.156l-.025.077a.682.682,0,0,0,.2.175c.184.106.28.036.281-.1a.447.447,0,0,0-.17-.324v0c.093.015.143-.034.143-.126a.419.419,0,0,0-.223-.34Z" transform="translate(-1567.306 -260.773)" fill="#4f3663"/><path d="M1659.6,460.021c-.1-.055-.158-.221-.157-.451s.068-.327.159-.274c.109.063.155.23.155.45s-.051.337-.157.275Zm.007-.818c-.156-.09-.267.01-.268.307a.675.675,0,0,0,.252.6c.172.1.27-.011.271-.308a.659.659,0,0,0-.255-.6Z" transform="translate(-1567.187 -260.702)" fill="#4f3663"/><path d="M1659.991,459.986h0l.187-.193c.021-.03.039-.055.065-.094l0,0c0,.046,0,.091,0,.138v.3l-.253-.147Zm.351-.349-.111-.065-.343.369v.077l.358.207v.241l.1.056v-.242l.109.063v-.092l-.108-.063v-.551Z" transform="translate(-1567.154 -260.678)" fill="#4f3663"/><path d="M1662.23,461.542a.527.527,0,0,1-.155-.45c0-.238.069-.327.16-.274.106.06.155.229.154.449s-.053.337-.159.275Zm.01-.817c-.156-.09-.268.01-.268.307a.674.674,0,0,0,.252.6c.17.1.267-.013.268-.31a.653.653,0,0,0-.252-.6Z" transform="translate(-1567.03 -260.612)" fill="#4f3663"/><path d="M1663.015,461.189l-.369-.212-.05.4a.621.621,0,0,1,.106.052.375.375,0,0,1,.219.321c0,.12-.083.145-.181.088a.643.643,0,0,1-.163-.144l-.026.077a.683.683,0,0,0,.192.164c.165.1.285.036.286-.137a.469.469,0,0,0-.108-.289.636.636,0,0,0-.166-.143.648.648,0,0,0-.061-.033l.029-.21.292.17v-.1Z" transform="translate(-1566.996 -260.595)" fill="#4f3663"/><path d="M1664.828,463.041a.523.523,0,0,1-.155-.45c0-.237.069-.327.159-.274.106.061.156.23.155.449s-.053.337-.159.276Zm.01-.817c-.155-.09-.267.01-.268.307a.676.676,0,0,0,.253.6c.171.1.267-.013.268-.31a.657.657,0,0,0-.253-.6Z" transform="translate(-1566.875 -260.523)" fill="#4f3663"/><path d="M1665.41,463.373a.4.4,0,0,1-.167-.351l.009-.048a.105.105,0,0,1,.15-.02.33.33,0,0,1,.158.293c0,.125-.06.177-.15.125Zm.181-.715a.692.692,0,0,0-.075-.038.291.291,0,0,0-.247-.011.35.35,0,0,0-.13.324.607.607,0,0,0,.271.532c.16.092.256,0,.256-.164a.491.491,0,0,0-.232-.417c-.086-.05-.15-.042-.187-.006l0,0a.177.177,0,0,1,.268-.158.4.4,0,0,1,.06.028l.017.011v-.1Z" transform="translate(-1566.841 -260.499)" fill="#4f3663"/><path d="M1667.4,464.527c-.094-.053-.156-.22-.155-.449s.066-.33.156-.277c.109.063.158.231.158.451s-.053.336-.159.274Zm.01-.817c-.158-.091-.27.008-.271.306a.683.683,0,0,0,.255.6c.169.1.268-.013.268-.31a.659.659,0,0,0-.252-.6Z" transform="translate(-1566.722 -260.434)" fill="#4f3663"/><path d="M1668.224,464.2l-.484-.28v.1l.376.217-.334.591.106.061.336-.611v-.08Z" transform="translate(-1566.687 -260.42)" fill="#4f3663"/><path d="M1670.021,466.039a.525.525,0,0,1-.155-.449c0-.238.066-.329.157-.277.109.063.158.231.157.451s-.053.336-.159.274Zm.011-.817c-.156-.09-.27.008-.271.306a.679.679,0,0,0,.255.6c.168.1.267-.012.268-.309a.662.662,0,0,0-.252-.6Z" transform="translate(-1566.566 -260.344)" fill="#4f3663"/><path d="M1670.6,466.378a.317.317,0,0,1-.156-.26c0-.084.05-.124.141-.1a.4.4,0,0,1,.167.29c0,.089-.059.123-.152.07Zm.014-.43a.341.341,0,0,1-.144-.248c0-.074.047-.113.132-.064a.255.255,0,0,1,.128.217.086.086,0,0,1-.117.094Zm0-.393c-.137-.079-.24-.044-.241.1a.42.42,0,0,0,.124.271v0c-.093-.006-.154.04-.154.15a.5.5,0,0,0,.259.388c.147.085.262.05.263-.1a.485.485,0,0,0-.155-.319v0c.093,0,.127-.058.127-.136a.428.428,0,0,0-.223-.345Z" transform="translate(-1566.532 -260.325)" fill="#4f3663"/><path d="M1672.608,467.533a.527.527,0,0,1-.155-.45c0-.238.066-.328.157-.277.109.064.158.231.157.451s-.053.337-.159.275Zm.011-.817c-.159-.092-.268.01-.269.307a.674.674,0,0,0,.253.6c.168.1.267-.013.268-.31a.658.658,0,0,0-.252-.6Z" transform="translate(-1566.412 -260.255)" fill="#4f3663"/><path d="M1673.178,467.534a.317.317,0,0,1-.147-.273c0-.125.063-.178.15-.127a.4.4,0,0,1,.158.356l-.011.038c-.026.039-.081.047-.151.006Zm.012-.488c-.156-.09-.263,0-.263.164a.484.484,0,0,0,.225.4.16.16,0,0,0,.184.011h0a.223.223,0,0,1-.1.177.2.2,0,0,1-.163-.011.579.579,0,0,1-.083-.042v.1a.518.518,0,0,0,.1.047.253.253,0,0,0,.223.013c.076-.043.133-.144.133-.338a.586.586,0,0,0-.252-.521Z" transform="translate(-1566.378 -260.236)" fill="#4f3663"/><path d="M1675.226,468.237l-.091-.052-.166.008.018.1.135,0,0,0,0,.771.1.058,0-.884Z" transform="translate(-1566.256 -260.166)" fill="#4f3663"/><path d="M1675.723,469.331a.525.525,0,0,1-.155-.449c0-.238.069-.327.159-.275.107.061.156.23.155.45s-.053.336-.159.274Zm.011-.817c-.156-.09-.268.01-.268.307a.675.675,0,0,0,.252.6c.171.1.267-.013.268-.31a.662.662,0,0,0-.252-.6Z" transform="translate(-1566.226 -260.148)" fill="#4f3663"/><path d="M1650.2,450.616l-.249-.144-.347-.2v.3l.347.2.249.144v-.3Z" transform="translate(-1567.766 -261.232)" fill="#4f3663"/><path d="M1652.275,453.844l-.264-.153v.688l.264.153v-.688Z" transform="translate(-1567.623 -261.029)" fill="#4f3663"/><path d="M1654.867,455.34l-.264-.153v.688l.264.153v-.688Z" transform="translate(-1567.469 -260.94)" fill="#4f3663"/><path d="M1657.456,456.835l-.264-.153v.688l.264.153v-.688Z" transform="translate(-1567.315 -260.851)" fill="#4f3663"/><path d="M1660.046,458.33l-.264-.153v.688l.264.153v-.688Z" transform="translate(-1567.161 -260.762)" fill="#4f3663"/><path d="M1662.635,459.825l-.264-.153v.688l.264.153v-.688Z" transform="translate(-1567.006 -260.673)" fill="#4f3663"/><path d="M1665.224,461.32l-.264-.153v.688l.264.153v-.688Z" transform="translate(-1566.852 -260.584)" fill="#4f3663"/><path d="M1667.814,462.815l-.264-.153v.688l.264.153v-.688Z" transform="translate(-1566.698 -260.495)" fill="#4f3663"/><path d="M1670.4,464.31l-.264-.153v.688l.264.153v-.688Z" transform="translate(-1566.544 -260.405)" fill="#4f3663"/><path d="M1672.992,465.8l-.264-.153v.688l.264.153V465.8Z" transform="translate(-1566.39 -260.316)" fill="#4f3663"/><path d="M1675.582,467.3l-.264-.153v.688l.264.153V467.3Z" transform="translate(-1566.235 -260.227)" fill="#4f3663"/><path d="M1650.219,445.278l-.249-.144-.347-.2v.3l.347.2.249.144v-.3Z" transform="translate(-1567.765 -261.55)" fill="#4f3663"/><path d="M1650.235,439.94l-.249-.144-.347-.2v.3l.347.2.249.144v-.3Z" transform="translate(-1567.764 -261.868)" fill="#4f3663"/><path d="M1650.25,434.6l-.249-.144-.347-.2v.3l.347.2.249.144v-.3Z" transform="translate(-1567.764 -262.186)" fill="#4f3663"/><path d="M1650.265,429.263l-.249-.144-.347-.2v.3l.347.2.249.144v-.3Z" transform="translate(-1567.763 -262.504)" fill="#4f3663"/><path d="M1653.107,453.123l-1.827-1.054-.005,1.846,1.827,1.054.005-1.846Zm.016-5.656-1.827-1.054-.015,5.353,1.827,1.054.015-5.353Zm.012-4.031-1.827-1.054-.011,3.726,1.827,1.055.011-3.727Z" transform="translate(-1567.667 -261.702)" fill="#593d70"/><path d="M1655.7,454.922l-1.829-1.056-.005,1.846,1.83,1.056,0-1.846Zm.017-5.657-1.83-1.055-.015,5.352,1.829,1.056.016-5.353Zm.016-5.656-1.829-1.055-.016,5.352,1.829,1.056.016-5.353Zm.011-3.759-1.829-1.056-.011,3.456,1.83,1.056.01-3.456Z" transform="translate(-1567.513 -261.916)" fill="#dffbdb"/><path d="M1658.288,456.617l-1.829-1.056-.005,1.846,1.829,1.056.005-1.846Zm.016-5.657-1.829-1.055-.016,5.352,1.83,1.056.015-5.353Zm.016-5.656-1.829-1.055-.015,5.352,1.829,1.056.015-5.353Zm.016-5.656-1.829-1.055-.015,5.352,1.829,1.056.015-5.353Zm.005-1.652-1.83-1.056,0,1.349,1.829,1.056,0-1.349Z" transform="translate(-1567.359 -262.026)" fill="#b0fb5b"/><path d="M1660.877,457.531l-1.829-1.056-.005,1.846,1.829,1.056.005-1.846Zm.016-5.657-1.829-1.055-.015,5.352,1.829,1.056.015-5.353Zm.007-2.634-1.829-1.056-.006,2.331,1.829,1.056.006-2.331Z" transform="translate(-1567.204 -261.357)" fill="#f5f371"/><path d="M1663.466,459.272l-1.829-1.056-.005,1.846,1.83,1.055,0-1.845Zm.017-5.657-1.83-1.055-.015,5.352,1.829,1.056.016-5.353Zm.016-5.656-1.829-1.055-.016,5.352,1.829,1.056.016-5.353Zm0-1.349-1.829-1.055,0,1.045,1.83,1.056,0-1.046Z" transform="translate(-1567.05 -261.513)" fill="#bb9f59"/><path d="M1666.056,460.853l-1.829-1.055-.005,1.846,1.829,1.055.005-1.846Zm.016-5.656-1.829-1.055-.016,5.352,1.83,1.056.015-5.353Zm.016-5.656-1.829-1.055-.016,5.352,1.83,1.056.015-5.353Zm.008-2.9-1.829-1.056-.007,2.6,1.829,1.056.007-2.6Z" transform="translate(-1566.896 -261.512)" fill="#593d70"/><path d="M1668.645,462.5l-1.829-1.055-.005,1.846,1.829,1.055.005-1.846Zm.016-5.656-1.829-1.055-.015,5.352,1.829,1.056.015-5.353Zm.016-5.656-1.829-1.056-.015,5.353,1.829,1.056.015-5.353Zm.016-5.531-1.829-1.056-.015,5.228,1.829,1.056.015-5.228Z" transform="translate(-1566.742 -261.57)" fill="#dffbdb"/><path d="M1671.234,463.812l-1.829-1.055-.005,1.846,1.829,1.055.005-1.846Zm.017-5.656-1.83-1.055-.015,5.352,1.829,1.056.016-5.353Zm.016-5.656-1.83-1.056-.015,5.353,1.829,1.056.016-5.353Zm.006-2.352-1.829-1.055-.006,2.048,1.829,1.055.006-2.048Z" transform="translate(-1566.588 -261.303)" fill="#b0fb5b"/><path d="M1673.824,465.629,1672,464.574l-.005,1.846,1.829,1.055.005-1.846Zm.016-5.656-1.829-1.055L1672,464.27l1.83,1.056.015-5.353Zm.016-5.656-1.829-1.056-.016,5.353,1.83,1.056.015-5.353Zm.016-5.656-1.829-1.056-.015,5.353,1.829,1.055.015-5.352Zm.007-2.423-1.83-1.056-.005,2.12,1.829,1.055.006-2.119Z" transform="translate(-1566.433 -261.535)" fill="#f5f371"/><path d="M1676.413,467.3l-1.829-1.055-.005,1.846,1.829,1.055.005-1.846Zm.016-5.656-1.829-1.056-.015,5.353,1.829,1.056.015-5.353Zm.016-5.656-1.829-1.056-.015,5.353,1.829,1.055.015-5.352Zm.016-5.656-1.829-1.056-.015,5.353,1.829,1.055.015-5.352Zm.016-5.49-1.829-1.056-.015,5.187,1.829,1.055.015-5.185Z" transform="translate(-1566.279 -261.619)" fill="#bb9f59"/><path d="M1651.324,451.263l-.757-.438v.3l.756.437v-.3Zm2.743,1.583-.917-.529v.3l.917.53v-.3Zm2.743,1.584-.914-.528v.3l.916.528v-.3Zm2.744,1.584-.914-.528v.3l.914.528v-.3Zm2.743,1.584-.914-.528v.3l.914.528v-.3Zm2.743,1.584-.914-.528v.3l.915.528v-.3Zm2.744,1.584-.914-.528v.3l.914.529v-.3Zm2.743,1.584-.914-.528v.3l.914.529v-.3Zm2.743,1.584-.914-.528v.3l.916.529v-.3Zm2.744,1.584-.914-.528v.3l.914.529v-.3Z" transform="translate(-1567.709 -261.199)" fill="#c3c3c2"/><path d="M1653.107,452.292l-1.826-1.055v.3l1.826,1.055v-.3Z" transform="translate(-1567.667 -261.175)" fill="#4e3960"/><path d="M1655.7,453.788l-1.829-1.056v.3l1.829,1.056v-.3Z" transform="translate(-1567.512 -261.086)" fill="#b3c3ac"/><path d="M1658.289,455.283l-1.829-1.056v.3l1.829,1.056v-.3Z" transform="translate(-1567.358 -260.997)" fill="#9bc45d"/><path d="M1660.878,456.778l-1.829-1.056v.3l1.829,1.056v-.3Z" transform="translate(-1567.204 -260.908)" fill="#c1bf63"/><path d="M1663.467,458.273l-1.829-1.056v.3l1.829,1.056v-.3Z" transform="translate(-1567.05 -260.819)" fill="#9a864e"/><path d="M1666.056,459.768l-1.829-1.056v.3l1.829,1.056v-.3Z" transform="translate(-1566.896 -260.73)" fill="#4e3960"/><path d="M1668.646,461.263l-1.829-1.056v.3l1.829,1.056v-.3Z" transform="translate(-1566.741 -260.641)" fill="#b3c3ac"/><path d="M1671.235,462.758l-1.829-1.056v.3l1.829,1.056v-.3Z" transform="translate(-1566.587 -260.552)" fill="#9bc45d"/><path d="M1673.824,464.253,1672,463.2v.3l1.829,1.056v-.3Z" transform="translate(-1566.433 -260.463)" fill="#c1bf63"/><path d="M1676.414,465.748l-1.829-1.056v.3l1.829,1.056v-.3Z" transform="translate(-1566.279 -260.374)" fill="#9a864e"/><path d="M1651.339,445.924l-.756-.436v.3l.756.437v-.3Zm2.743,1.584-.917-.529v.3l.917.53v-.3Zm2.744,1.584-.915-.528v.3l.914.529v-.3Zm2.743,1.584-.914-.528v.3l.914.529v-.3Zm2.743,1.584-.914-.528v.3l.914.529v-.3Zm2.743,1.584-.914-.528v.3l.914.529v-.3Zm2.744,1.584-.914-.528v.3l.914.529v-.3Zm2.743,1.584-.914-.528v.3l.914.529v-.3Zm2.743,1.584-.914-.528v.3l.914.529v-.3Zm2.744,1.584-.914-.528v.3l.914.528v-.3Z" transform="translate(-1567.708 -261.517)" fill="#c3c3c2"/><path d="M1653.123,446.954,1651.3,445.9v.3l1.826,1.055v-.3Z" transform="translate(-1567.666 -261.493)" fill="#4e3960"/><path d="M1655.714,448.45l-1.829-1.056v.3l1.829,1.056v-.3Z" transform="translate(-1567.511 -261.404)" fill="#b3c3ac"/><path d="M1658.3,449.945l-1.829-1.056v.3l1.829,1.056v-.3Z" transform="translate(-1567.357 -261.315)" fill="#9bc45d"/><path d="M1660.893,451.44l-1.829-1.056v.3l1.829,1.056v-.3Z" transform="translate(-1567.203 -261.226)" fill="#c1bf63"/><path d="M1663.482,452.935l-1.829-1.056v.3l1.829,1.056v-.3Z" transform="translate(-1567.049 -261.137)" fill="#9a864e"/><path d="M1666.072,454.43l-1.829-1.056v.3l1.829,1.056v-.3Z" transform="translate(-1566.895 -261.048)" fill="#4e3960"/><path d="M1668.661,455.925l-1.829-1.056v.3l1.829,1.056v-.3Z" transform="translate(-1566.741 -260.959)" fill="#b3c3ac"/><path d="M1671.25,457.42l-1.829-1.056v.3l1.829,1.056v-.3Z" transform="translate(-1566.587 -260.87)" fill="#9bc45d"/><path d="M1673.839,458.915l-1.829-1.056v.3l1.829,1.056v-.3Z" transform="translate(-1566.432 -260.781)" fill="#c1bf63"/><path d="M1676.429,460.41l-1.829-1.056v.3l1.829,1.056v-.3Z" transform="translate(-1566.278 -260.692)" fill="#9a864e"/><path d="M1654.1,442.17l-3.5-2.021v.3l3.5,2.021v-.3Zm2.744,1.584-.914-.528v.3l.914.529v-.3Zm5.486,3.168-3.658-2.112v.3l3.659,2.113v-.3Zm2.744,1.584-.914-.528v.3l.914.529v-.3Zm2.743,1.584-.914-.528v.3l.914.528v-.3Zm2.743,1.584-.914-.528v.3l.914.528v-.3Zm2.744,1.584-.916-.529v.3l.914.528v-.3Zm2.743,1.584-.914-.529v.3l.914.528v-.3Z" transform="translate(-1567.707 -261.835)" fill="#c3c3c2"/><path d="M1655.729,443.112l-1.829-1.056v.3l1.829,1.056v-.3Z" transform="translate(-1567.511 -261.722)" fill="#b3c3ac"/><path d="M1658.319,444.607l-1.829-1.056v.3l1.829,1.056v-.3Z" transform="translate(-1567.356 -261.633)" fill="#9bc45d"/><path d="M1663.5,447.6l-1.829-1.056v.3l1.829,1.056v-.3Z" transform="translate(-1567.048 -261.455)" fill="#9a864e"/><path d="M1666.087,449.092l-1.829-1.056v.3l1.829,1.056v-.3Z" transform="translate(-1566.894 -261.366)" fill="#4e3960"/><path d="M1668.676,450.587l-1.829-1.056v.3l1.829,1.056v-.3Z" transform="translate(-1566.74 -261.276)" fill="#b3c3ac"/><path d="M1671.265,452.082l-1.829-1.056v.3l1.829,1.056v-.3Z" transform="translate(-1566.585 -261.187)" fill="#9bc45d"/><path d="M1673.855,453.577l-1.829-1.056v.3l1.829,1.056v-.3Z" transform="translate(-1566.431 -261.098)" fill="#c1bf63"/><path d="M1676.444,455.072l-1.829-1.056v.3l1.829,1.056v-.3Z" transform="translate(-1566.277 -261.009)" fill="#9a864e"/><path d="M1656.856,438.416l-6.244-3.6v.3l6.244,3.606v-.3Zm16.461,9.5-14.632-8.448v.3l14.632,8.448v-.3Zm2.743,1.584-.914-.529v.3l.914.528v-.3Z" transform="translate(-1567.706 -262.153)" fill="#c3c3c2"/><path d="M1658.334,439.269l-1.829-1.056v.3l1.829,1.056v-.3Z" transform="translate(-1567.356 -261.95)" fill="#9bc45d"/><path d="M1673.87,448.239l-1.829-1.056v.3l1.829,1.056v-.3Z" transform="translate(-1566.431 -261.416)" fill="#c1bf63"/><path d="M1676.459,449.734l-1.829-1.056v.3l1.829,1.056v-.3Z" transform="translate(-1566.276 -261.327)" fill="#9a864e"/><path d="M1677.9,445.221l-27.277-15.748v.3l27.277,15.748v-.3Z" transform="translate(-1567.706 -262.471)" fill="#c3c3c2"/><path d="M1613.417,337.933l-35.409-20.444-.008,2.959,35.409,20.444.008-2.959Z" transform="translate(-1572.031 -269.14)" fill="#efefee"/><path d="M1635.29,350.562l-22.406-12.936-.008,2.959,22.406,12.936.008-2.959Z" transform="translate(-1569.954 -267.94)" fill="#efefee"/><path d="M1655.617,362.3l-19.764-11.411-.008,2.959,19.764,11.411.008-2.959Z" transform="translate(-1568.586 -267.151)" fill="#efefee"/><path d="M1679.585,376.135l-22.4-12.935-.008,2.959,22.4,12.935.008-2.959Z" transform="translate(-1567.316 -266.417)" fill="#efefee"/><path d="M1681.565,344.252l-55.054-31.786-.008,2.959,55.054,31.786.008-2.959Z" transform="translate(-1569.142 -269.439)" fill="#efefee"/><path d="M1681.551,349.045,1626.5,317.259l-.008,2.959L1681.543,352l.008-2.959Z" transform="translate(-1569.143 -269.153)" fill="#efefee"/><path d="M1681.538,353.841l-55.054-31.786-.008,2.959,55.054,31.786.008-2.959Z" transform="translate(-1569.144 -268.868)" fill="#efefee"/><path d="M1598.21,333.42,1578,321.749l-.008,2.959,20.215,11.671.008-2.959Z" transform="translate(-1572.031 -268.886)" fill="#efefee"/><path d="M1621.241,346.717l-22.4-12.935-.008,2.959,22.4,12.935.008-2.959Z" transform="translate(-1570.79 -268.169)" fill="#efefee"/><path d="M1607.7,378.41l-20.215-11.671-.008,2.959,20.215,11.671.008-2.959Z" transform="translate(-1571.466 -266.207)" fill="#efefee"/><path d="M1640.633,397.424l-22.4-12.935-.008,2.959,22.4,12.935.008-2.959Z" transform="translate(-1569.635 -265.15)" fill="#efefee"/><path d="M1680.174,389.972l-32.65-18.851-.008,2.959,32.65,18.851.008-2.959Z" transform="translate(-1567.891 -265.946)" fill="#efefee"/><path d="M1680.162,394.282l-32.65-18.851-.008,2.959,32.65,18.851.008-2.959Z" transform="translate(-1567.891 -265.689)" fill="#efefee"/><path d="M1680.149,398.595l-32.65-18.851-.008,2.959,32.65,18.851.008-2.959Z" transform="translate(-1567.892 -265.432)" fill="#efefee"/><path d="M1680.137,402.9l-32.65-18.851-.008,2.959,32.65,18.851.008-2.959Z" transform="translate(-1567.893 -265.176)" fill="#efefee"/><path d="M1680.125,407.214l-32.65-18.851-.008,2.959,32.65,18.851.008-2.959Z" transform="translate(-1567.894 -264.919)" fill="#efefee"/><path d="M1680.113,411.524l-32.65-18.851-.008,2.959,32.65,18.851.008-2.959Z" transform="translate(-1567.894 -264.662)" fill="#efefee"/><path d="M1680.1,415.834l-32.65-18.851-.008,2.959,32.65,18.851.008-2.959Z" transform="translate(-1567.895 -264.406)" fill="#efefee"/><path d="M1680.088,420.144l-32.65-18.851-.008,2.959,32.65,18.851.008-2.959Z" transform="translate(-1567.896 -264.149)" fill="#efefee"/><path d="M1607.539,435.1l-20.215-11.671-.008,2.959,20.215,11.671.008-2.959Z" transform="translate(-1571.476 -262.831)" fill="#efefee"/><path d="M1640.473,454.118l-22.4-12.935-.008,2.959,22.4,12.935.008-2.959Z" transform="translate(-1569.645 -261.774)" fill="#efefee"/><path d="M1673.041,472.921l-22.4-12.935-.008,2.959,22.4,12.935.008-2.959Z" transform="translate(-1567.705 -260.654)" fill="#efefee"/><path d="M1632.348,353.13l-10.3-5.947-.008,2.959,10.3,5.947.008-2.959Z" transform="translate(-1569.408 -267.371)" fill="#efefee"/><path d="M1655.695,366.609l-22.407-12.937-.008,2.959,22.407,12.937.008-2.959Z" transform="translate(-1568.739 -266.985)" fill="#efefee"/><path d="M1613.109,446.641,1577.7,426.2l-.008,2.959L1613.1,449.6l.008-2.959Z" transform="translate(-1572.049 -262.666)" fill="#efefee"/><path d="M1634.982,459.269l-22.407-12.936-.008,2.959,22.406,12.936.008-2.959Z" transform="translate(-1569.972 -261.467)" fill="#efefee"/><path d="M1655.308,471l-19.764-11.411-.008,2.959,19.764,11.411.008-2.959Z" transform="translate(-1568.604 -260.677)" fill="#efefee"/><path d="M1679.277,484.843l-22.4-12.935-.008,2.959,22.4,12.935.008-2.959Z" transform="translate(-1567.334 -259.944)" fill="#efefee"/><path d="M1597.9,442.128l-20.215-11.671-.008,2.959,20.215,11.671.008-2.959Z" transform="translate(-1572.05 -262.412)" fill="#efefee"/><path d="M1620.933,455.424l-22.4-12.935-.008,2.959,22.4,12.935.008-2.959Z" transform="translate(-1570.808 -261.696)" fill="#efefee"/><path d="M1632.04,461.837l-10.3-5.947-.008,2.959,10.3,5.947.008-2.959Z" transform="translate(-1569.426 -260.898)" fill="#efefee"/><path d="M1655.386,475.316,1632.98,462.38l-.008,2.959,22.407,12.937.008-2.959Z" transform="translate(-1568.757 -260.511)" fill="#efefee"/><path d="M1685.088,429.734l-107.709-62.186-.011,3.921,107.709,62.186.011-3.921Z" transform="translate(-1572.068 -266.159)" fill="#efefee"/><path d="M1685.072,435.319l-107.709-62.186-.011,3.921,107.709,62.186.011-3.921Z" transform="translate(-1572.069 -265.826)" fill="#efefee"/></g></g><g transform="translate(1507.44 355.333)"><ellipse cx="21.516" cy="14.054" rx="21.516" ry="14.054" transform="translate(0 142.74)" fill="#12100b" opacity="0.05"/><g transform="translate(1.822)"><path d="M1516.8,469s-6.731,1.764-3.773,10.2c0,0,.472,8.7,6.362,10.769s.558-15.047.558-15.047S1516.8,470.586,1516.8,469Z" transform="translate(-1505.329 -340.526)" fill="#12100b"/><path d="M1525.374,428.375s10.862,21.66,10.627,22.9c-.425,2.248-19.454,18.866-19.454,18.866s-.548,7.231,3.8,7.633c0,0,24.682-14.6,27.251-23.165.872-2.908-2.679-31.334-2.679-31.334s-14.631,7.387-20.237,5.1Z" transform="translate(-1505.076 -343.249)" fill="#3b3735"/><path d="M1518.622,486.738s-2.605,7.134,3.1,9.181c0,0,3.722,9.615,11.724,8.623s-5.272-13.473-5.272-13.473l-.062-3.152S1522.345,489.9,1518.622,486.738Z" transform="translate(-1504.986 -339.47)" fill="#12100b"/><path d="M1516.546,428.088s3.055,28.789,1.9,39.873c0,0-2.462,19.684-.818,22.828,0,0,4.979,6.947,10.756,1.984l4.445-63.853S1520.438,433.379,1516.546,428.088Z" transform="translate(-1505.075 -342.963)" fill="#4c4846"/><path d="M1506.984,425.483s-3.173,8.231,3.233,11.194c0,0,6.641,4.107,2.193-10.3C1512.41,426.373,1508.181,426.993,1506.984,425.483Z" transform="translate(-1505.691 -343.118)" fill="#fcd7c3"/><path d="M1556.774,406.693s7.368,5.789,4.011,10.743c-.774,1.143-3.124,2.541-5.207-.49a13.9,13.9,0,0,1-2.087-6.971S1554.943,406.883,1556.774,406.693Z" transform="translate(-1502.875 -344.237)" fill="#fcd7c3"/><path d="M1545.627,430.189c-11.008,12.545-28.671,4.994-28.671,4.994-1.41-10.625,5.118-20.228.893-31.748q-.372-1.012-.706-2.023-.394-1.189-.741-2.362a91.4,91.4,0,0,1-3.416-18.658l10.66-6.018.22-.125a35.007,35.007,0,0,1,9.98-2.138,24.387,24.387,0,0,1,7.012.443C1549.512,397.621,1545.627,430.189,1545.627,430.189Z" transform="translate(-1505.287 -346.301)" fill="#12100b"/><path d="M1539.026,396.145a84.367,84.367,0,0,1-.849,11.133c.389-3.072-.9-7.368-2.887-11.878a153.824,153.824,0,0,0-11.709-21.231l-.013-.055a32.62,32.62,0,0,1,9.647-2.008C1538.132,378.141,1539.126,388.289,1539.026,396.145Z" transform="translate(-1504.657 -346.297)" fill="#f5f5f6"/><path d="M1533.647,378.668s0-4.41-2.57-5.806l-1.2,2.9Z" transform="translate(-1504.281 -346.252)" fill="#fff"/><path d="M1520.266,388.568s-.151.44-.411,1.19c-.73,2.114-2.307,6.692-3.722,10.893-1.312,3.889-2.481,7.452-2.715,8.432-.513,2.159-.108,17.448-.016,20.652.009.38.016.588.016.588a8.774,8.774,0,0,1-7.557-.565s0-.292-.016-.82c-.055-3.54-.264-17.6.016-24.039.325-7.4,7.557-24.977,7.557-24.977C1521.536,379.971,1520.266,388.568,1520.266,388.568Z" transform="translate(-1505.719 -345.831)" fill="#12100b"/><path d="M1559.717,410.448s-4.688,1.137-5.113,3.124c0,0-.132-.108-.365-.313-1.942-1.67-11.012-9.747-12.846-16.306-2.05-7.348-5.254-19.489-5.254-19.489l3.341-4.94s7.88,17.9,10.439,22.158c2.315,3.861,8.473,13.66,9.619,15.474Z" transform="translate(-1503.908 -346.272)" fill="#12100b"/><path d="M1537.348,405.361c0-.02,0-.04.008-.06C1537.352,405.341,1537.348,405.361,1537.348,405.361Z" transform="translate(-1503.836 -344.32)" fill="#12100b"/><path d="M1536.816,371.834s-1.175-.2-2.235-.491l-.014,0a7.938,7.938,0,0,1-1.143-.39,1.875,1.875,0,0,1-.236-.125v6.584s-7.256-.336-8.33-2.888l.47-7.39-3.091-7.053,3.9-9.473s3.428,1.344,3.628,1.344,3.561.806,3.561.806l5.173,1.546S1540.848,365.451,1536.816,371.834Z" transform="translate(-1504.736 -347.577)" fill="#fcd7c3"/><path d="M1525.521,369.249s-8.8-7.324-3.9-16.057c0,0,.941-12.428,19.953.269,0,0-4.837,4.7-14.31,2.419l1.075,8.6s-1.679-4.838-3.561-3.225,1.546,4.971,1.546,4.971Z" transform="translate(-1504.861 -347.747)" fill="#2d221a"/><path d="M1531.532,375.818l1.193-.111.812,2.987-1.78.514-1.77-1.42Z" transform="translate(-1504.274 -346.082)" fill="#bf1c26"/><path d="M1524.844,372.019s5.572,3.864,7.057,4.018l-1.646,3.227-6.481-5.039Z" transform="translate(-1504.644 -346.302)" fill="#fff"/><path d="M1537.7,406.9c.389-3.072-.9-7.368-2.887-11.878l-3.151-15.978,1.782-.513,5.1,17.236A84.367,84.367,0,0,1,1537.7,406.9Z" transform="translate(-1504.175 -345.914)" fill="#a41920"/><path d="M1558.7,408.333s-4.688,1.137-5.113,3.124c0,0-.132-.108-.365-.313.452-.885,1.742-2.491,5.3-3.1Z" transform="translate(-1502.891 -344.157)" fill="#fff"/><path d="M1513.411,427.568a8.774,8.774,0,0,1-7.557-.565s0-.292-.016-.82a8.888,8.888,0,0,0,7.557.8C1513.4,427.36,1513.411,427.568,1513.411,427.568Z" transform="translate(-1505.712 -343.076)" fill="#fff"/><path d="M1532.857,369.9v.891a8.4,8.4,0,0,1-5.049-3.978A13.415,13.415,0,0,0,1532.857,369.9Z" transform="translate(-1504.404 -346.612)" fill="#12100b" opacity="0.05"/><path d="M1533.939,370.2a7.934,7.934,0,0,1-1.143-.39C1533.42,370.038,1533.857,370.171,1533.939,370.2Z" transform="translate(-1504.107 -346.433)" fill="#fcd7c3"/><path d="M1522.76,352.817s4.553-7.716,17.175.409c0,0-2.017,1.635-6.816,0C1533.119,353.226,1528.022,349.682,1522.76,352.817Z" transform="translate(-1504.705 -347.642)" fill="#fff" opacity="0.1"/><path d="M1519.231,389.2c0,3.411-1.53,8.76-2.28,11.184q-.394-1.189-.741-2.362C1517.416,394.47,1518.62,390.974,1519.231,389.2Z" transform="translate(-1505.095 -345.278)" fill="#fff" opacity="0.05"/></g></g><g transform="translate(1556.42 381.998)"><g transform="translate(0 0)"><ellipse cx="21.516" cy="12.027" rx="21.516" ry="12.027" transform="translate(9.114 159.999)" fill="#12100b" opacity="0.05"/><g transform="translate(45.812 37.547)"><path d="M1593.465,427.159c5.8,8.5,9.462,8.618,9.462,8.618s11.579-7.883,18.192-13.341c.618-.509,1.206-1,1.752-1.462.758-.639,1.438-1.231,2.013-1.753,0,0,7.934-.74,5.29-8.249s-9.623,3.492-9.623,3.492l-.66.428-1.776,1.143-.7.469-.01.008-13.467,9.014-3.6-5.508a3.938,3.938,0,0,1-1.091,2.321A29.357,29.357,0,0,1,1593.465,427.159Z" transform="translate(-1593.465 -408.351)" fill="#fcd7c3"/><g transform="translate(24.649 6.543)"><path d="M1616.729,415.669c1.332,1.5,2.387,4.307,3,6.4.618-.509,1.206-1,1.753-1.462a19.594,19.594,0,0,0-2.979-6.081Z" transform="translate(-1616.729 -414.526)" fill="#231f20"/></g><g transform="translate(26.206 9.178)"><circle cx="1.232" cy="1.232" r="1.232" transform="translate(0.027 0.026)" fill="#fff"/><path d="M1619.457,419.529a1.258,1.258,0,1,1,1.258-1.259A1.26,1.26,0,0,1,1619.457,419.529Zm0-2.463a1.205,1.205,0,1,0,1.206,1.2A1.206,1.206,0,0,0,1619.457,417.066Z" transform="translate(-1618.198 -417.013)" fill="#231f20"/></g></g><path d="M1598.916,421.884l4.7,4.115,13.467-9.943-13.467,9.014-3.6-5.508A3.938,3.938,0,0,1,1598.916,421.884Z" transform="translate(-1547.328 -370.344)" fill="#12100b" opacity="0.05"/><path d="M1563.764,446.213c2.357,5.942,5.053,4.525,7.5,1.884s-3.678-5.941-3.678-5.941l-.231-.4-7.974-13.75,1.647-3.094a4.98,4.98,0,0,0-.163-1.63c-1.089-3.931-7-4.572-7-4.572s-3.254,7.031-3.631,9.012S1561.406,440.271,1563.764,446.213Z" transform="translate(-1550.227 -370.186)" fill="#fcd7c3"/><path d="M1558.2,427.694l8.484,14.014.2-.208-7.974-13.75,1.647-3.094a4.98,4.98,0,0,0-.163-1.63Z" transform="translate(-1549.752 -369.929)" fill="#12100b" opacity="0.05"/><path d="M1553.421,420.752s7.026,2.907,7.421,5.509c0,0,1.122-1.592,2.6-3.958a83.424,83.424,0,0,0,4.656-8.4,22.883,22.883,0,0,0,2.379-7.555c.391-6.771-5.32-10.266-5.32-10.266S1561.271,399.363,1553.421,420.752Z" transform="translate(-1550.037 -371.534)" fill="#535602"/><path d="M1562.949,421.636a83.424,83.424,0,0,0,4.656-8.4L1562,407.253C1561.041,413.11,1562.949,421.636,1562.949,421.636Z" transform="translate(-1549.543 -370.868)" fill="#12100b" opacity="0.05"/><g transform="translate(26.739 164.774)"><path d="M1576.212,538.982c.68,1.451,1.962,2.43,4.337,1.682,5.908-1.857,17.384-8.53,16.514-11.1-.013-.034-.026-.064-.038-.092-.487-1.034-2.668-1.164-5.063-.963a53.182,53.182,0,0,0-6.908,1.169l-.374.092-9.161,3.727A12.361,12.361,0,0,0,1576.212,538.982Z" transform="translate(-1575.463 -528.427)" fill="#272828"/><path d="M1584.514,529.671a8.972,8.972,0,0,1,1.879,2.723l6.832-2.349a3.862,3.862,0,0,0-1.8-1.543A53.182,53.182,0,0,0,1584.514,529.671Z" transform="translate(-1574.924 -528.422)" fill="#fff" opacity="0.1"/><path d="M1576.17,538.918c.68,1.451,1.962,2.43,4.337,1.682,5.908-1.857,17.384-8.53,16.514-11.1A32.193,32.193,0,0,1,1576.17,538.918Z" transform="translate(-1575.421 -528.363)" fill="#fff"/></g><g transform="translate(12.863 160.109)"><path d="M1563.116,534.579c.68,1.451,1.962,2.43,4.337,1.681,5.908-1.857,17.384-8.53,16.514-11.1-.013-.034-.025-.064-.038-.092-.488-1.034-2.668-1.164-5.064-.963a53.363,53.363,0,0,0-6.908,1.169l-.374.092-9.161,3.727A12.363,12.363,0,0,0,1563.116,534.579Z" transform="translate(-1562.367 -524.024)" fill="#272828"/><path d="M1571.418,525.268a8.97,8.97,0,0,1,1.879,2.723l6.832-2.349a3.862,3.862,0,0,0-1.8-1.543A53.363,53.363,0,0,0,1571.418,525.268Z" transform="translate(-1561.828 -524.019)" fill="#fff" opacity="0.1"/><path d="M1563.074,534.516c.68,1.451,1.962,2.43,4.337,1.681,5.908-1.857,17.384-8.53,16.514-11.1A32.192,32.192,0,0,1,1563.074,534.516Z" transform="translate(-1562.325 -523.96)" fill="#fff"/></g><path d="M1579.877,452.415s-3.107,32.108-4.557,43.5-2.278,35.006-2.278,35.006-3.729,7.251-10.565,2.693c0,0-1.864-32.108-.829-40.807s1.239-35.628-.312-38.528Z" transform="translate(-1549.566 -368.179)" fill="#1a2d2f"/><path d="M1592.589,456.325s-3.108,32.108-4.557,43.5-2.279,35.006-2.279,35.006-3.729,7.25-10.564,2.693c0,0-1.865-32.108-.828-40.807s1.237-35.628-.314-38.528Z" transform="translate(-1548.809 -367.946)" fill="#1f3d43"/><path d="M1572.309,402.36c1.215,4.129,8.747,3.077,8.747,3.077l2.482-7.656.352-1.086v0a45.1,45.1,0,0,0,4.454.729c3.68-10.856.285-19.174.285-19.174l-6.788.551-8.074,8.742Z" transform="translate(-1548.912 -372.596)" fill="#fcd7c3"/><path d="M1584.621,380.489s8.421-.648,5.507-4.779-20.651-3.968-19.84,2.389c0,0-6.56,4.657,3.562,18.181C1573.85,396.28,1587.455,396.361,1584.621,380.489Z" transform="translate(-1549.157 -372.913)" fill="#302d2a"/><path d="M1561.917,461.218s23,15.753,32.979,1.366l-1.4-29.305-.282-5.879,0,.008a62.668,62.668,0,0,0,6.551,6.194,18.039,18.039,0,0,0,6.135-8.565c-2.467-5.248-7.782-16.571-12.06-19.059-2.231-1.3-6.353-3.4-10.736-5.433-2.029-.941-5.185-1.058-7.16-1.887-3.429-1.437-2.45-2.185-2.45-2.185-3.223-1.193-5.757-1.866-6.643-1.5-2.732,1.13-7.69,2.942-2.732,27.389.979,4.816,1.156,13.128-2.206,19.532S1561.917,461.218,1561.917,461.218Z" transform="translate(-1549.62 -371.606)" fill="#6f7302"/><path d="M1587.251,416.446s.634,11.215,4.647,15.548l-.282-5.879Z" transform="translate(-1548.023 -370.321)" fill="#12100b" opacity="0.05"/><path d="M1581.351,393.512a5.276,5.276,0,0,0,1.648,3.36l.352-1.086A6.246,6.246,0,0,1,1581.351,393.512Z" transform="translate(-1548.374 -371.687)" fill="#12100b" opacity="0.05"/><path d="M1588.716,376.412s-9.963-6.309-17.62.283C1571.1,376.695,1575.577,374.105,1588.716,376.412Z" transform="translate(-1548.985 -372.867)" fill="#fff" opacity="0.1"/></g><path d="M1623.233,409.492s4.156-2.613,6.866-2.85-3.661,3.206-3.661,3.206Z" transform="translate(-1545.88 -370.906)" fill="#fcd7c3"/></g></g></svg>