<svg xmlns="http://www.w3.org/2000/svg" width="377.681" height="199.279" viewBox="0 0 377.681 199.279"><g transform="translate(-452.459 -47.652)"><rect width="377.681" height="199.279" transform="translate(452.459 47.652)" fill="#243f9c"/><g transform="translate(564.057 69.203)"><path d="M703.257,258.4l2.621,7.759,7.986-.008-5.667,4.29,1.557,8.329-6.5-4.725-6.518,4.6,1.578-8.2-5.608-4.317h7.976Z" transform="translate(-626.087 -123.615)" fill="#fcec00"/><path d="M703.257,76.7l2.621,7.76,7.986-.008-5.667,4.29,1.557,8.328-6.5-4.725-6.518,4.6,1.578-8.2-5.608-4.317h7.976Z" transform="translate(-626.087 -76.703)" fill="#fcec00"/><path d="M747.021,88.387l2.621,7.76,7.986-.008-5.667,4.29,1.557,8.328-6.5-4.725-6.518,4.6,1.578-8.2-5.608-4.317h7.976Z" transform="translate(-637.387 -79.72)" fill="#fcec00"/><path d="M657.38,88.387,660,96.147l7.986-.008-5.667,4.29,1.557,8.328-6.5-4.725-6.518,4.6,1.578-8.2-5.608-4.317h7.976Z" transform="translate(-614.242 -79.72)" fill="#fcec00"/><path d="M747.021,246.123l2.621,7.76,7.986-.009-5.667,4.291,1.557,8.328-6.5-4.725-6.518,4.6,1.578-8.2-5.608-4.318h7.976Z" transform="translate(-637.387 -120.446)" fill="#fcec00"/><path d="M657.38,246.123l2.621,7.76,7.986-.009-5.667,4.291,1.557,8.328-6.5-4.725-6.518,4.6,1.578-8.2-5.608-4.318h7.976Z" transform="translate(-614.242 -120.446)" fill="#fcec00"/><path d="M623.86,122.677l2.621,7.759,7.986-.008-5.667,4.29,1.556,8.329-6.5-4.725-6.518,4.6,1.578-8.2-5.608-4.317h7.976Z" transform="translate(-605.588 -88.573)" fill="#fcec00"/><path d="M781.638,122.677l2.621,7.759,7.986-.008-5.667,4.29,1.556,8.329-6.5-4.725-6.518,4.6,1.578-8.2L771.09,130.4h7.977Z" transform="translate(-646.324 -88.573)" fill="#fcec00"/><path d="M623.86,213.364l2.621,7.76,7.986-.008L628.8,225.4l1.556,8.329-6.5-4.726-6.518,4.6,1.578-8.2-5.608-4.317h7.976Z" transform="translate(-605.588 -111.988)" fill="#fcec00"/><path d="M781.638,213.364l2.621,7.76,7.986-.008-5.667,4.29,1.556,8.329-6.5-4.726-6.518,4.6,1.578-8.2-5.608-4.317h7.977Z" transform="translate(-646.324 -111.988)" fill="#fcec00"/><path d="M613.447,167.679l2.621,7.76,7.986-.009-5.667,4.29,1.556,8.328-6.5-4.725-6.518,4.6,1.578-8.2L602.9,175.4h7.977Z" transform="translate(-602.899 -100.192)" fill="#fcec00"/><path d="M793.183,167.679l2.621,7.76,7.986-.009-5.667,4.29,1.557,8.328-6.5-4.725-6.518,4.6,1.578-8.2-5.608-4.317h7.976Z" transform="translate(-649.305 -100.192)" fill="#fcec00"/></g></g></svg>