<svg xmlns="http://www.w3.org/2000/svg" width="154.684" height="154.682" viewBox="0 0 154.684 154.682"><g transform="translate(-640.861 -7900.051)"><path d="M718.2,7900.051q3.8,0,7.58.374t7.507,1.113q3.727.739,7.362,1.843t7.146,2.557q3.51,1.452,6.861,3.244t6.51,3.9q3.157,2.11,6.1,4.521a75.468,75.468,0,0,1,5.623,5.1q2.687,2.687,5.1,5.623a75.623,75.623,0,0,1,4.521,6.1q2.112,3.157,3.9,6.509t3.245,6.861q1.455,3.508,2.557,7.145t1.844,7.362q.741,3.726,1.114,7.506t.373,7.581q0,3.8-.373,7.58t-1.114,7.508q-.742,3.726-1.844,7.361t-2.557,7.146q-1.455,3.509-3.245,6.86t-3.9,6.51q-2.111,3.159-4.521,6.1a75.29,75.29,0,0,1-5.1,5.623q-2.687,2.689-5.623,5.1t-6.1,4.521q-3.159,2.112-6.51,3.9t-6.861,3.244q-3.508,1.455-7.146,2.558t-7.362,1.844q-3.724.743-7.507,1.114t-7.58.373q-3.8,0-7.58-.373t-7.507-1.114q-3.726-.743-7.362-1.844t-7.146-2.558q-3.512-1.455-6.861-3.244t-6.51-3.9q-3.159-2.109-6.1-4.521t-5.624-5.1q-2.685-2.687-5.1-5.623a75.444,75.444,0,0,1-4.521-6.1q-2.11-3.16-3.9-6.51t-3.244-6.86q-1.455-3.508-2.556-7.146t-1.844-7.361q-.742-3.727-1.114-7.508t-.372-7.58q0-3.8.372-7.581t1.114-7.506q.74-3.725,1.844-7.362t2.556-7.145q1.453-3.511,3.244-6.861t3.9-6.509q2.112-3.157,4.521-6.1a75.7,75.7,0,0,1,5.1-5.623q2.688-2.688,5.624-5.1t6.1-4.521q3.159-2.109,6.51-3.9t6.861-3.244q3.51-1.455,7.146-2.557t7.362-1.843q3.725-.743,7.507-1.113T718.2,7900.051Z" fill="#a0a603"/><circle cx="72.641" cy="72.641" r="72.641" transform="translate(645.562 7904.745)" fill="#fff"/><path d="M718.2,7911.3a66.08,66.08,0,1,1-66.08,66.08,66.08,66.08,0,0,1,66.08-66.08Z" fill="#aaaf31"/><path d="M731.264,8010.843v8.307h24.921v-8.307Zm22.152,5.538H734.033v-2.769h19.383Z" fill="#fff"/><path d="M731.264,8005.305v8.307h24.921v-8.307Zm22.152,5.538H734.033v-2.769h19.383Z" fill="#fff"/><path d="M731.264,7999.767v8.307h24.921v-8.307Zm22.152,5.538H734.033v-2.769h19.383Z" fill="#fff"/><path d="M711.435,8010.843v2.769H725.28v2.769H705.9v-2.769h2.769v-2.769h-5.538v8.307h24.921v-8.307Z" fill="#fff"/><path d="M703.128,8005.305v6.922H705.9v-4.153H725.28v4.153h2.769v-6.922Z" fill="#fff"/><path d="M703.128,7999.767v8.307h24.921v-8.307Zm22.152,5.538H705.9v-2.769H725.28Z" fill="#fff"/><path d="M703.128,7994.229v8.307h24.921v-8.307Zm22.152,5.538H705.9V7997H725.28Z" fill="#fff"/><path d="M703.128,7988.691V7997h24.921v-8.307Zm22.152,5.538H705.9v-2.769H725.28Z" fill="#fff"/><path d="M682.739,8010.843v2.769h13.845v2.769H677.2v-2.769h2.769v-2.769h-5.538v8.307h24.921v-8.307Z" fill="#fff"/><path d="M674.432,8005.305v6.922H677.2v-4.153h19.383v4.153h2.769v-6.922Z" fill="#fff"/><path d="M674.432,7999.767v8.307h24.921v-8.307Zm22.152,5.538H677.2v-2.769h19.383Z" fill="#fff"/><path d="M674.432,7994.229v8.307h24.921v-8.307Zm22.152,5.538H677.2V7997h19.383Z" fill="#fff"/><path d="M674.432,7988.691V7997h24.921v-8.307Zm22.152,5.538H677.2v-2.769h19.383Z" fill="#fff"/><path d="M674.432,7983.153v8.307h24.921v-8.307Zm22.152,5.538H677.2v-2.769h19.383Z" fill="#fff"/><path d="M725.6,7970.457l21.563,21.563H736.631a1.119,1.119,0,1,0,0,2.238h14.547v-14.547a1.119,1.119,0,1,0-2.238,0v9.416l-22.575-22.574.39-2.777,19.947,19.948v-4.013a3.357,3.357,0,0,1,6.714,0V7996.5H736.631a3.357,3.357,0,1,1,0-6.714h5.132L725.28,7973.3Z" fill="#fff"/><path d="M718.357,7937.939a2.769,2.769,0,1,1,2.769-2.769H723.9a5.538,5.538,0,1,0-5.538,5.538,2.769,2.769,0,1,1-2.769,2.769h-2.769a5.538,5.538,0,1,0,5.538-5.538Z" fill="#fff"/><rect width="2.769" height="4.154" transform="translate(716.973 7926.863)" fill="#fff"/><rect width="2.769" height="4.154" transform="translate(716.973 7947.63)" fill="#fff"/><rect width="2.769" height="2.769" transform="translate(705.897 7937.939)" fill="#fff"/><rect width="2.769" height="2.769" transform="translate(728.049 7937.939)" fill="#fff"/><path d="M718.357,7921.325a18,18,0,1,0,18,18A18.018,18.018,0,0,0,718.357,7921.325Zm0,33.228a15.229,15.229,0,1,1,15.23-15.23A15.248,15.248,0,0,1,718.357,7954.553Z" fill="#fff"/></g></svg>