<svg xmlns="http://www.w3.org/2000/svg" width="725.766" height="859.803" viewBox="0 0 725.766 859.803"><g transform="translate(-438 -7852.832)"><g transform="translate(243.871 5205.399)"><path d="M529.37,3447.666l-5.92,25.274-19.325-17.867-19.337-17.85,25.244-7.412,25.253-7.412Z" fill="#a9ab67"/><path d="M563.475,3440.907a261.137,261.137,0,0,1-59.646-6.939,112.113,112.113,0,0,1-4.807,16.965,277.027,277.027,0,0,0,118.519,2.3,112.426,112.426,0,0,1-5.327-16.952A261.583,261.583,0,0,1,563.475,3440.907Z" fill="#a9ab67"/><path d="M799.793,3358.481a93.246,93.246,0,1,0-20.632,130.245A93.357,93.357,0,0,0,799.793,3358.481Zm-33.022,113.191a71.566,71.566,0,0,1-42.3,13.743,72.14,72.14,0,0,1-42.54-130.516,71.546,71.546,0,0,1,42.295-13.744,72.139,72.139,0,0,1,42.544,130.517Z" fill="#505302"/><path d="M334.188,3297.031a114.71,114.71,0,0,0-12.435,8.008c-.771.577-1.5,1.23-2.255,1.83a276.215,276.215,0,0,1-36.516-110.383,113.45,113.45,0,0,0,17.52-1.235A258.767,258.767,0,0,0,334.188,3297.031Z" fill="#a0a603"/><path d="M311.634,3276.318l-23.5,11.023,21.481,15.213,21.467,15.224,2.025-26.233,2.025-26.241Z" fill="#a0a603"/><path d="M451.186,2945.122a112.679,112.679,0,0,1-5.241-16.907,279.746,279.746,0,0,0-95.656,73.578,112.192,112.192,0,0,1,14.106,10.466A261.41,261.41,0,0,1,451.186,2945.122Z" fill="#8c8f35"/><path d="M424.617,2953.189l-17.085-19.548,25.782-5.29,25.778-5.3-8.693,24.832-8.7,24.836Z" fill="#8c8f35"/><path d="M556.575,2807.546a93.247,93.247,0,1,0,93.248,93.245A93.349,93.349,0,0,0,556.575,2807.546Zm0,165.41a72.164,72.164,0,1,1,72.165-72.165A72.245,72.245,0,0,1,556.575,2972.956Z" fill="#8c8f35"/><path d="M915.323,3067.279a93.248,93.248,0,1,0-59.864,117.495A93.355,93.355,0,0,0,915.323,3067.279Zm-24.422,61.56a72.119,72.119,0,1,1,4.375-55.047A71.663,71.663,0,0,1,890.9,3128.839Z" fill="#6f7302"/><path d="M822.324,3210.053A258.9,258.9,0,0,1,785.657,3316.5,113.577,113.577,0,0,1,799.5,3327.4a276.311,276.311,0,0,0,40.748-118.484,113.163,113.163,0,0,1-16.131,1.207C823.515,3210.121,822.926,3210.061,822.324,3210.053Z" fill="#505302"/><path d="M809.509,3297.726,830.2,3313.4l-24.178,10.4-24.166,10.416,3.482-26.082,3.482-26.084Z" fill="#505302"/><path d="M756.647,3005.432a112.229,112.229,0,0,1,15.047-9.376,279.381,279.381,0,0,0-103.372-73.391,113.068,113.068,0,0,1-4.39,17.167A261.145,261.145,0,0,1,756.647,3005.432Z" fill="#6f7302"/><path d="M745.856,2976.4l20.387-16.068,3.977,26.01,3.994,26.014-24.367-9.94-24.363-9.94Z" fill="#6f7302"/><path d="M316.2,3008.6a93.249,93.249,0,1,0,59.865,117.5A93.353,93.353,0,0,0,316.2,3008.6Zm-28.824,160.86a72.176,72.176,0,1,1,72.176-72.175A72.175,72.175,0,0,1,287.378,3169.46Z" fill="#a0a603"/><path d="M445.881,3338.579a93.251,93.251,0,1,0,20.627,130.255A93.36,93.36,0,0,0,445.881,3338.579ZM391.076,3486.2a72.176,72.176,0,1,1,72.176-72.173A72.174,72.174,0,0,1,391.076,3486.2Z" fill="#a9ab67"/><circle cx="7.615" cy="7.615" r="7.615" transform="translate(833.876 3062.377)" fill="#3e73a3"/><path d="M835.4,3095.884l-6.092,9.138-6.092,6.092,4.569,4.569,7.615-7.615,7.615-10.661Z" fill="#3e73a3"/><path d="M861.291,3083.7v-6.092H836.922l-13.707,12.184,3.046,4.57,5.94-4.478a6.093,6.093,0,0,0,5.132,8.255l8.727.792v9.138h7.615v-12.657a3.045,3.045,0,0,0-2.543-3.046l-6.6-1.051,1.523-7.615Z" fill="#3e73a3"/><path d="M861.291,3050.193v15.23L875,3057.808Z" fill="#a9ab67"/><circle cx="7.615" cy="7.615" r="7.615" transform="translate(795.8 3077.607)" fill="#787d02"/><path d="M797.323,3111.114l-6.092,9.138-6.092,6.092,4.569,4.569,7.615-7.615,7.615-10.661Z" fill="#787d02"/><path d="M813.056,3107.641l-6.6-1.1,1.523-6.092H815.6l10.661-6.092-3.046-4.57-9.138,4.57-9.139-1.524h-6.092l-4.721,12.276a6.091,6.091,0,0,0,5.132,8.255l8.727.792v9.138H815.6v-12.656A3.047,3.047,0,0,0,813.056,3107.641Z" fill="#787d02"/><path d="M783.616,3141.574v-1.523l21.322-4.569V3123.3h24.369l13.707-15.23H875v33.506Z" fill="#b3b835"/><path d="M806.461,3053.239a9.118,9.118,0,0,0-2.284.3,12.184,12.184,0,0,0-20.561,8.834v1.523H815.6v-1.523A9.139,9.139,0,0,0,806.461,3053.239Z" fill="#97c2e8"/><path d="M806.461,3066.946h3.046v3.046h-3.046Z" fill="#97c2e8"/><path d="M812.554,3066.946H815.6v3.046h-3.046Z" fill="#97c2e8"/><path d="M818.646,3066.946h3.046v3.046h-3.046Z" fill="#97c2e8"/><path d="M859.767,3050.193h3.047v44.168h-3.047Z" fill="#5a5a60"/><path d="M757.658,3363.02H692.907a7.194,7.194,0,0,0-7.194,7.194v80.939a7.194,7.194,0,0,0,7.194,7.194h64.751a7.2,7.2,0,0,0,7.2-7.194v-80.939A7.2,7.2,0,0,0,757.658,3363.02Z" fill="#3e73a3"/><path d="M754.061,3370.214h-8.993v3.6H705.5v-3.6h-8.993a3.6,3.6,0,0,0-3.6,3.6v73.744a3.6,3.6,0,0,0,3.6,3.6h57.556a3.6,3.6,0,0,0,3.6-3.6v-73.744A3.6,3.6,0,0,0,754.061,3370.214Z" fill="#d3e6f4"/><path d="M716.29,3400.791a1.793,1.793,0,0,1-1.272-.527l-14.389-14.389a1.8,1.8,0,0,1,2.543-2.543l14.389,14.389a1.8,1.8,0,0,1-1.271,3.07Z" fill="#97c2e8"/><path d="M701.9,3400.791a1.8,1.8,0,0,1-1.271-3.07l14.389-14.389a1.8,1.8,0,0,1,2.543,2.543l-14.389,14.389A1.793,1.793,0,0,1,701.9,3400.791Z" fill="#97c2e8"/><path d="M748.665,3443.958a1.791,1.791,0,0,1-1.271-.527l-7.2-7.194a1.8,1.8,0,0,1,2.543-2.543l7.2,7.194a1.8,1.8,0,0,1-1.272,3.07Z" fill="#97c2e8"/><path d="M741.47,3443.958a1.8,1.8,0,0,1-1.271-3.07l7.194-7.194a1.8,1.8,0,0,1,2.544,2.543l-7.2,7.194A1.793,1.793,0,0,1,741.47,3443.958Z" fill="#97c2e8"/><path d="M710.894,3440.361a7.195,7.195,0,1,1,7.194-7.2A7.2,7.2,0,0,1,710.894,3440.361Zm0-10.792a3.6,3.6,0,1,0,3.6,3.6A3.6,3.6,0,0,0,710.894,3429.569Z" fill="#97c2e8"/><path d="M739.672,3425.972a7.194,7.194,0,1,1,7.194-7.195A7.2,7.2,0,0,1,739.672,3425.972Zm0-10.792a3.6,3.6,0,1,0,3.6,3.6A3.6,3.6,0,0,0,739.672,3415.18Z" fill="#97c2e8"/><path d="M710.894,3416.979a1.8,1.8,0,1,1,0-3.6,25.209,25.209,0,0,0,25.181-25.181,1.8,1.8,0,0,1,3.6,0A28.812,28.812,0,0,1,710.894,3416.979Z" fill="#97c2e8"/><path d="M745.068,3397.194a1.8,1.8,0,0,1-1.272-.527l-5.923-5.923-5.923,5.923a1.8,1.8,0,0,1-2.543-2.543l7.2-7.2a1.8,1.8,0,0,1,2.543,0l7.194,7.2a1.8,1.8,0,0,1-1.271,3.07Z" fill="#97c2e8"/><path d="M735.915,3359.422a6.046,6.046,0,0,1-4.869-2.475,7.145,7.145,0,0,0-11.526,0,6.048,6.048,0,0,1-4.869,2.475h-4.6a4.551,4.551,0,0,0-4.55,4.551v9.838h39.57v-9.838a4.551,4.551,0,0,0-4.551-4.551Z" fill="#afb6bb"/><path d="M727.09,3368.416h-3.615a1.791,1.791,0,0,1-1.789-1.79v-3.615a1.791,1.791,0,0,1,1.789-1.79h3.615a1.791,1.791,0,0,1,1.79,1.79v3.615A1.791,1.791,0,0,1,727.09,3368.416Z" fill="#fff"/><path d="M403.292,3387.227H399.8v-19.2a1.649,1.649,0,0,0-1.745-1.745H384.1a1.649,1.649,0,0,0-1.745,1.745v19.2h-3.491v-19.2a5.142,5.142,0,0,1,5.236-5.235h13.962a5.141,5.141,0,0,1,5.235,5.235Z" fill="#3f3f3f"/><path d="M438.2,3380.246H343.955a3.328,3.328,0,0,0-3.491,3.141v68.588a3.356,3.356,0,0,0,3.491,3.316H438.2a3.327,3.327,0,0,0,3.49-3.142v-68.762A3.327,3.327,0,0,0,438.2,3380.246Z" fill="#3f3f3f"/><path d="M364.9,3416.9h3.491a1.648,1.648,0,0,1,1.745,1.745v19.2a1.648,1.648,0,0,1-1.745,1.745H364.9a1.648,1.648,0,0,1-1.745-1.745v-19.2A1.648,1.648,0,0,1,364.9,3416.9Z" fill="#787d02"/><path d="M413.764,3416.9h3.49a1.648,1.648,0,0,1,1.745,1.745v19.2a1.648,1.648,0,0,1-1.745,1.745h-3.49a1.648,1.648,0,0,1-1.745-1.745v-19.2A1.648,1.648,0,0,1,413.764,3416.9Z" fill="#3e73a3"/><path d="M385.84,3397.7v8.726a1.648,1.648,0,0,0,1.745,1.745h6.981a1.648,1.648,0,0,0,1.745-1.745V3397.7Z" fill="#a0a0a0"/><path d="M441.687,3408.169,419,3418.641v19.2l22.688-12.216Z" fill="#75aee1"/><path d="M343.955,3380.246H438.2a3.5,3.5,0,0,1,3.49,3.49V3397.7H340.464v-13.962A3.5,3.5,0,0,1,343.955,3380.246Z" fill="#727272"/><path d="M340.464,3408.169l22.688,10.472v19.2l-22.688-12.216Z" fill="#a0a603"/><path d="M385.142,3421.433a3.445,3.445,0,0,0-2.443-1.047H370.133v17.452l9.424,9.424A3.447,3.447,0,0,0,382,3448.31h17.977a3.447,3.447,0,0,0,2.443-1.048l4.363-4.188Z" fill="#efccbf"/><path d="M402.594,3447.262l.175-.174-6.981-6.981-2.444,2.444,5.76,5.759h1.047A3.444,3.444,0,0,0,402.594,3447.262Z" fill="#c9a8a3"/><path d="M382.873,3442.551l5.76,5.759h4.886l-8.2-8.2Z" fill="#c9a8a3"/><path d="M399.453,3420.386a3.447,3.447,0,0,0-2.444,1.047l-8.2,8.2a1.688,1.688,0,0,0,0,2.444l2.792,2.792a1.686,1.686,0,0,0,2.444,0l2.268-2.268,10.472,10.471,5.236-5.236v-17.452Z" fill="#d3a89b"/><path d="M396.346,3432.585l5.182-5.183,1.729,1.727-5.183,5.184Z" fill="#b58b81"/><path d="M527.181,2856.194v11.692h28.752a4.135,4.135,0,0,0,4.135-4.135v-5.789l-2.148-1.768Z" fill="#eae5cd"/><path d="M557.92,2856.194v6.338a4.2,4.2,0,0,1-4.2,4.205H527.181v6.994H569v-17.537Z" fill="#e5dec1"/><path d="M506.947,2851.142" fill="#fcdd2e"/><path d="M530.549,2864.355h0a2.536,2.536,0,0,0-1.27,2.2v-.011l-.388.492v4.437l.388.7c-1.4,0-1.905-1.282-1.905-2.54V2857a1.955,1.955,0,0,0-1.906-2.2A2.54,2.54,0,0,0,524.2,2857l-.517.676v9.471l.517,1.35c-1.4,0-1.9-1.634-1.9-2.54v-12.27a1.991,1.991,0,0,0-1.905-2.2h0a2.535,2.535,0,0,0-1.273,2.2v2.4l-.615.908v9.826l.615,1.673c-1.4,0-1.905-1.1-1.905-2.54v-9.866a2.013,2.013,0,0,0-1.906-2.2h0a2.536,2.536,0,0,0-1.271,2.2v4.089l-.641.543,0,6.5.638,1.277c-1.255,0-2.1-1.682-2.1-3.133v-5.2c0-1.1-.643-2.189-1.7-2.19a2.54,2.54,0,0,0-1.284,2.207v15.333a10.57,10.57,0,0,0,.855,4.164l2.244,5.3a8.475,8.475,0,0,1,.669,3.3v1.091h14.281a10.56,10.56,0,0,1,2.084-5.624,16.437,16.437,0,0,0,3.285-9.86v-7.329c0-.939-.767-2.2-1.827-2.2Z" fill="#fcd0a3"/><path d="M531.82,2864.012a2.522,2.522,0,0,0-1.271.343,2.536,2.536,0,0,1,1.271,2.2v7.329a16.44,16.44,0,0,1-3.285,9.859,10.576,10.576,0,0,0-2.085,5.624h2.54a10.576,10.576,0,0,1,2.085-5.624,16.441,16.441,0,0,0,3.285-9.859v-7.329a2.54,2.54,0,0,0-2.54-2.54Z" fill="#ffb983"/><path d="M529.279,2866.552V2857a2.537,2.537,0,0,0-3.809-2.2h0a2.539,2.539,0,0,1,1.27,2.2v12.631a2.541,2.541,0,0,0,2.54,2.54C530.683,2872.172,529.276,2866.568,529.279,2866.552Z" fill="#ffb983"/><path d="M512.212,2888.351H523.9v41.815H512.212Z" fill="#97c2e8"/><path d="M522.755,2888.351h6.994v41.815h-6.994Z" fill="#75aee1"/><path d="M525.666,2890.793v-5.148H512.091a1.641,1.641,0,0,0-1.641,1.641v3.507a1.642,1.642,0,0,0,1.641,1.642h11.934A1.641,1.641,0,0,0,525.666,2890.793Z" fill="#97c2e8"/><path d="M531.511,2890.793v-3.507a1.641,1.641,0,0,0-1.641-1.641h-5.353v5.148a1.641,1.641,0,0,1-1.641,1.642h6.994A1.642,1.642,0,0,0,531.511,2890.793Z" fill="#529ad9"/><path d="M560.8,2920.245c.03-.089.057-.18.079-.272a.937.937,0,0,1,.663-.692c.5-.134.993-.292,1.477-.465a22.323,22.323,0,0,0,0-36.047c-.484-.174-.976-.331-1.477-.466a.934.934,0,0,1-.663-.691c-.022-.093-.049-.183-.079-.272a22.162,22.162,0,0,0-5.461-2.19,3.219,3.219,0,0,0-3.1,2.462.934.934,0,0,1-.663.691,19.066,19.066,0,0,0-4.56,1.891.935.935,0,0,1-.959-.02,3.219,3.219,0,0,0-3.955.47l-1.689,1.689a3.22,3.22,0,0,0-.47,3.955.933.933,0,0,1,.02.958,19.058,19.058,0,0,0-1.892,4.566.92.92,0,0,1-.689.654,3.119,3.119,0,0,0-2.464,3.044v2.565a3.119,3.119,0,0,0,2.464,3.044.921.921,0,0,1,.689.654,19.094,19.094,0,0,0,1.892,4.565.935.935,0,0,1-.02.959,3.22,3.22,0,0,0,.47,3.955l1.689,1.689a3.22,3.22,0,0,0,3.955.47.935.935,0,0,1,.959-.02,19.075,19.075,0,0,0,4.56,1.891.934.934,0,0,1,.663.691,3.219,3.219,0,0,0,3.1,2.462A22.209,22.209,0,0,0,560.8,2920.245Z" fill="#7aabdc"/><path d="M575.74,2896.47a.934.934,0,0,1-.691-.663,19.058,19.058,0,0,0-1.891-4.561.933.933,0,0,1,.02-.958,3.22,3.22,0,0,0-.47-3.955l-1.689-1.689a3.219,3.219,0,0,0-3.955-.47.935.935,0,0,1-.959.02,19.064,19.064,0,0,0-4.56-1.891.934.934,0,0,1-.663-.691,3.219,3.219,0,0,0-3.129-2.463h-2.387a3.2,3.2,0,0,0-1.575.413,21.647,21.647,0,0,1,0,42.46,3.189,3.189,0,0,0,1.575.413h2.388a3.219,3.219,0,0,0,3.128-2.463.936.936,0,0,1,.663-.691,19.016,19.016,0,0,0,4.561-1.891.936.936,0,0,1,.958.02,3.217,3.217,0,0,0,3.955-.47l1.689-1.688a3.219,3.219,0,0,0,.47-3.955.938.938,0,0,1-.02-.959,19.054,19.054,0,0,0,1.891-4.561.934.934,0,0,1,.691-.663,3.219,3.219,0,0,0,2.463-3.128V2899.6a3.219,3.219,0,0,0-2.463-3.128Z" fill="#5f98d5"/><circle cx="11.557" cy="11.557" r="11.557" transform="translate(545.003 2889.235)" fill="#e5ecf6"/><path d="M521.659,2853.682v12.27a2.54,2.54,0,0,0,2.54,2.54c1.4,0,0-11.5,0-11.5v-3.243a2.588,2.588,0,0,0-2.334-2.6,2.527,2.527,0,0,0-1.474.333h0A2.537,2.537,0,0,1,521.659,2853.682Z" fill="#ffb983"/><path d="M516.579,2856.086v9.866a2.54,2.54,0,0,0,2.54,2.54v-12.407a2.537,2.537,0,0,0-3.811-2.2A2.536,2.536,0,0,1,516.579,2856.086Z" fill="#ffb983"/><path d="M514.039,2868.492v-8.317a2.538,2.538,0,0,0-3.8-2.207,2.537,2.537,0,0,1,1.256,2.19v5.794A2.54,2.54,0,0,0,514.039,2868.492Z" fill="#ffb983"/><path d="M531.4,2946.619c5.766-.024,6.457-4.967,13.814-4.967v-13.04a10.564,10.564,0,0,1-5.615-2.078,16.485,16.485,0,0,0-9.868-3.291H522.4a2.539,2.539,0,0,0-2.2,1.27c0,.919.422,1.906,2.2,1.906h4.708a2.494,2.494,0,0,1,2.54,1.905l-1.4-.6h-4.477l-1.3.6H512.85a2.537,2.537,0,0,0-2.2,1.27,2.058,2.058,0,0,0,2.2,1.905h7.7a2.367,2.367,0,0,1,2.54,1.905l-1.472-.679h-7.152l-1.543.679h-3.39a2.537,2.537,0,0,0-2.2,1.27,1.923,1.923,0,0,0,1.5,1.737,3.36,3.36,0,0,0,1.091.169h10.529c1.783,0,2.54.944,2.54,1.905l-1.757-.711H513.38l-1.445.711a2.536,2.536,0,0,0-2.2,1.27,2.041,2.041,0,0,0,2.2,1.905h8.612c1.594,0,2.54,1.023,2.54,1.905l-1.108-.654h-4.9l-1.058.654a2.535,2.535,0,0,0-2.2,1.272c0,1.076,1.258,1.783,2.2,1.783H531.4Z" fill="#ffeae1"/><path d="M531.4,2946.107H516.023a2.537,2.537,0,0,1-2.2-1.271,2.517,2.517,0,0,0-.333,1.474,2.586,2.586,0,0,0,2.6,2.334h15.263a10.555,10.555,0,0,0,4.164-.855l5.3-2.244a8.472,8.472,0,0,1,3.3-.669h1.09v-3.736C537.856,2941.14,537.165,2946.083,531.4,2946.107Z" fill="#ffdbcc"/><path d="M510.652,2929.594a2.525,2.525,0,0,0-.334,1.474,2.588,2.588,0,0,0,2.6,2.336h10.167a2.54,2.54,0,0,0-2.54-2.54h-7.7a2.539,2.539,0,0,1-2.2-1.27Z" fill="#ffdbcc"/><path d="M520.2,2924.513a2.529,2.529,0,0,0-.334,1.475,2.587,2.587,0,0,0,2.6,2.335h7.179a2.541,2.541,0,0,0-2.54-2.54H522.4A2.537,2.537,0,0,1,520.2,2924.513Z" fill="#ffdbcc"/><path d="M509.737,2939.754a2.527,2.527,0,0,0-.334,1.474,2.587,2.587,0,0,0,2.6,2.336h11.082a2.54,2.54,0,0,0-2.54-2.54h-8.612a2.537,2.537,0,0,1-2.2-1.27Z" fill="#ffdbcc"/><path d="M507.333,2934.674a2.524,2.524,0,0,0-.335,1.474,2.588,2.588,0,0,0,2.6,2.336h13.391a2.54,2.54,0,0,0-2.54-2.54H509.53A2.538,2.538,0,0,1,507.333,2934.674Z" fill="#ffdbcc"/><path d="M573.684,2941.97a2.751,2.751,0,0,0,2.75-2.751V2928.8l-1.1-.95H544.2v14.116Z" fill="#97c2e8"/><path d="M584.894,2927.854h-9.559v10.415a2.75,2.75,0,0,1-2.75,2.75H544.2v4.372h40.7Z" fill="#75aee1"/><path d="M546.642,2926.092h-3.508a1.641,1.641,0,0,0-1.641,1.641v14.406a1.641,1.641,0,0,0,1.641,1.641h3.508a1.641,1.641,0,0,0,1.641-1.641v-14.406a1.641,1.641,0,0,0-1.641-1.641Z" fill="#529ad9"/><path d="M546.642,2942.781h-3.508a1.641,1.641,0,0,1-1.641-1.641v4.371a1.642,1.642,0,0,0,1.641,1.642h3.508a1.642,1.642,0,0,0,1.641-1.642v-4.371a1.641,1.641,0,0,1-1.641,1.641Z" fill="#75aee1"/><path d="M585.187,2946.781Z" fill="#efada0"/><path d="M602.212,2926.034c-.023-5.766-4.966-6.457-4.966-13.814h-13.04a10.562,10.562,0,0,1-2.079,5.616,16.481,16.481,0,0,0-3.29,9.868v7.328a2.536,2.536,0,0,0,1.27,2.2c.918,0,1.905-.422,1.905-2.2v-4.708a2.5,2.5,0,0,1,1.9-2.54l-.743,1.551v3.911l.743,1.716v9.621a2.538,2.538,0,0,0,1.27,2.2,2.059,2.059,0,0,0,1.906-2.2v-7.7a2.366,2.366,0,0,1,1.9-2.54l-.679,1.324v7.4l.679,1.44v3.39a2.536,2.536,0,0,0,1.27,2.2,1.924,1.924,0,0,0,1.737-1.5,3.363,3.363,0,0,0,.168-1.091v-10.529c0-1.783.944-2.54,1.905-2.54l-.809,1.65v8.146l.809,1.261a2.534,2.534,0,0,0,1.27,2.2,2.041,2.041,0,0,0,1.9-2.2v-8.612c0-1.593,1.022-2.54,1.905-2.54l-.582,1.672v4.218l.582,1.174a2.536,2.536,0,0,0,1.271,2.2c1.077,0,1.783-1.258,1.783-2.2v-15.376Z" fill="#efada0"/><path d="M601.7,2926.034v15.376a2.536,2.536,0,0,1-1.271,2.2,2.522,2.522,0,0,0,1.474.334,2.589,2.589,0,0,0,2.335-2.6v-15.262a10.556,10.556,0,0,0-.856-4.165l-2.243-5.3a8.456,8.456,0,0,1-.669-3.3v-1.091h-3.736c0,7.357,4.943,8.048,4.966,13.814Z" fill="#e79b8b"/><path d="M585.187,2946.781a2.524,2.524,0,0,0,1.474.334,2.587,2.587,0,0,0,2.336-2.6v-10.167a2.54,2.54,0,0,0-2.54,2.54v7.7a2.536,2.536,0,0,1-1.27,2.2Z" fill="#e79b8b"/><path d="M580.107,2937.23a2.524,2.524,0,0,0,1.474.334,2.587,2.587,0,0,0,2.336-2.6v-7.178a2.54,2.54,0,0,0-2.54,2.54v4.708a2.538,2.538,0,0,1-1.27,2.2Z" fill="#e79b8b"/><path d="M595.348,2947.7a2.524,2.524,0,0,0,1.474.334,2.588,2.588,0,0,0,2.336-2.6v-11.082a2.541,2.541,0,0,0-2.541,2.541v8.612a2.536,2.536,0,0,1-1.269,2.2Z" fill="#e79b8b"/><path d="M590.267,2950.1a2.52,2.52,0,0,0,1.475.335,2.588,2.588,0,0,0,2.335-2.6v-13.391a2.54,2.54,0,0,0-2.54,2.54V2947.9a2.536,2.536,0,0,1-1.27,2.2Z" fill="#e79b8b"/><path d="M583.447,2870.828H594.54v42.406H583.447Z" fill="#a9ab67"/><path d="M593.991,2870.828h6.993v42.406h-6.993Z" fill="#8c8f35"/><path d="M594.761,2909.15H583.327a1.642,1.642,0,0,0-1.642,1.641v3.508a1.641,1.641,0,0,0,1.642,1.641H596.4v-5.149A1.641,1.641,0,0,0,594.761,2909.15Z" fill="#8c8f35"/><path d="M601.1,2909.15h-6.893a1.642,1.642,0,0,1,1.641,1.641v5.149H601.1a1.641,1.641,0,0,0,1.641-1.641v-3.508A1.641,1.641,0,0,0,601.1,2909.15Z" fill="#a9ab67"/><path d="M592.993,2874.531h0a2.537,2.537,0,0,0-2.2-1.27h.011l-.656-.372h-4.283l-.692.372c0-1.4,1.282-1.905,2.54-1.905h12.631a1.954,1.954,0,0,0,2.2-1.905,2.537,2.537,0,0,0-2.191-1.271l-1.232-.509h-8.727l-1.538.509c0-1.4,1.634-1.905,2.54-1.905h12.27a1.99,1.99,0,0,0,2.2-1.9l0,0h0a2.537,2.537,0,0,0-2.2-1.273h-2.4l-1.3-.679h-9.6l-1.505.679c0-1.4,1.1-1.905,2.54-1.905h9.865a2.013,2.013,0,0,0,2.2-1.906h0a2.537,2.537,0,0,0-2.2-1.271h-4.088l-.945-.614h-6.174l-1.2.614c0-1.255,1.682-2.1,3.132-2.1h5.2c1.1,0,2.189-.644,2.189-1.7a2.537,2.537,0,0,0-2.206-1.284H581.84a10.574,10.574,0,0,0-4.165.855l-5.3,2.244a8.476,8.476,0,0,1-3.3.669h-1.091v14.281a10.556,10.556,0,0,1,5.624,2.085,16.439,16.439,0,0,0,9.859,3.284h7.329c.94,0,2.2-.767,2.2-1.827Z" fill="#ffeae1"/><path d="M593.336,2875.8a2.521,2.521,0,0,0-.343-1.27,2.535,2.535,0,0,1-2.2,1.27h-7.329a16.444,16.444,0,0,1-9.86-3.284,10.563,10.563,0,0,0-5.624-2.085v2.54a10.573,10.573,0,0,1,5.624,2.085,16.443,16.443,0,0,0,9.86,3.285H590.8a2.541,2.541,0,0,0,2.54-2.541Z" fill="#ffdbcc"/><path d="M590.8,2873.261h9.551a2.536,2.536,0,0,0,2.2-3.81h0a2.535,2.535,0,0,1-2.2,1.27H587.716a2.541,2.541,0,0,0-2.54,2.541Z" fill="#ffdbcc"/><path d="M603.666,2865.641H591.4a2.54,2.54,0,0,0-2.54,2.54c0,1.4,11.5,0,11.5,0h3.242a2.589,2.589,0,0,0,2.6-2.334,2.531,2.531,0,0,0-.333-1.474l0,0A2.538,2.538,0,0,1,603.666,2865.641Z" fill="#ffdbcc"/><path d="M601.261,2860.56H591.4a2.541,2.541,0,0,0-2.54,2.541h12.406a2.538,2.538,0,0,0,2.2-3.811A2.537,2.537,0,0,1,601.261,2860.56Z" fill="#ffdbcc"/><path d="M588.856,2858.021h8.317a2.538,2.538,0,0,0,2.206-3.8,2.536,2.536,0,0,1-2.189,1.257H591.4a2.54,2.54,0,0,0-2.54,2.54Z" fill="#ffdbcc"/><path d="M566.554,2869.648H571.7v-13.575a1.641,1.641,0,0,0-1.641-1.641h-3.508a1.641,1.641,0,0,0-1.641,1.641v11.934A1.641,1.641,0,0,0,566.554,2869.648Z" fill="#e5dec1"/><path d="M566.554,2875.493h3.508a1.641,1.641,0,0,0,1.641-1.642V2868.5h-5.149a1.641,1.641,0,0,1-1.641-1.641v6.993A1.641,1.641,0,0,0,566.554,2875.493Z" fill="#aca791"/><path d="M329.965,3049.781l-1.7-6.532a2.834,2.834,0,0,0-4.746-1.289l-7.3,7.3a2.833,2.833,0,0,0-.727,2.758l2.65,9.588Z" fill="#5a5a5a"/><path d="M329.965,3049.781l6.532,1.7a2.833,2.833,0,0,1,1.288,4.745l-7.3,7.3a2.833,2.833,0,0,1-2.758.727l-9.588-2.65Z" fill="#5a5a5a"/><path d="M337.785,3056.229l-7.3,7.3a2.833,2.833,0,0,1-2.759.728l-3.735-1.031a2.948,2.948,0,0,0,2.181-.862l7.6-7.6a2.951,2.951,0,0,0,.218-3.933l2.505.653a2.832,2.832,0,0,1,1.289,4.744Z" fill="#444"/><circle cx="40.47" cy="40.47" r="40.47" transform="translate(245.155 3053.768)" fill="#b3b835"/><path d="M326.1,3094.238a40.47,40.47,0,0,1-66,31.4,40.472,40.472,0,0,0,48.13-64.979,40.432,40.432,0,0,1,17.868,33.576Z" fill="#a0a603"/><circle cx="29.687" cy="29.687" r="29.687" transform="translate(255.937 3064.551)" fill="#f9f7f8"/><path d="M315.313,3094.238a29.688,29.688,0,0,1-47.958,23.4,29.691,29.691,0,0,0,33.534-48.869,29.678,29.678,0,0,1,14.424,25.469Z" fill="#efedef"/><circle cx="18.849" cy="18.849" r="18.849" transform="translate(266.775 3075.389)" fill="#b3b835"/><path d="M304.474,3094.238a18.848,18.848,0,0,1-31.065,14.354,18.85,18.85,0,0,0,20.952-31.059,18.839,18.839,0,0,1,10.113,16.705Z" fill="#a0a603"/><circle cx="8.558" cy="8.558" r="8.558" transform="translate(277.067 3085.68)" fill="#f9f7f8"/><path d="M294.182,3094.238a8.557,8.557,0,0,1-15.254,5.327,8.557,8.557,0,0,0,10.331-13.075,8.557,8.557,0,0,1,4.923,7.748Z" fill="#efedef"/><path d="M285.379,3095.712a1.371,1.371,0,0,1-.969-2.34l44.572-44.573a1.371,1.371,0,1,1,1.939,1.939l-44.573,44.572a1.364,1.364,0,0,1-.969.4Z" fill="#353535"/><circle cx="13.257" cy="13.257" r="13.257" transform="translate(245.155 3108.194)" fill="#a9ab67"/><path d="M271.67,3121.45a13.259,13.259,0,0,1-21.72,10.207,13.26,13.26,0,0,0,13.914-22.295A13.258,13.258,0,0,1,271.67,3121.45Z" fill="#8c8f35"/><path d="M265.274,3116.08a2.556,2.556,0,0,0-3.613.145l-4.4,4.775a.48.48,0,0,1-.7,0l-1.378-1.494a2.563,2.563,0,0,0-3.777,3.467l3.227,3.532a3.055,3.055,0,0,0,4.5.011l6.3-6.823a2.557,2.557,0,0,0-.146-3.613Z" fill="#f9f7f8"/><path d="M265.42,3119.693l-6.294,6.823a3.056,3.056,0,0,1-4.5-.011l-.2-.222a3.04,3.04,0,0,0,2.23-.984l6.3-6.824a2.555,2.555,0,0,0,.308-3.056,2.557,2.557,0,0,1,2.166,4.274Z" fill="#efedef"/><rect width="132" height="39.699" rx="3.913" transform="translate(490.577 2952.312)" fill="#a9ab67"/><path d="M542.154,2960.511h-3.018v9.015H537v-9.015h-3v-1.649h8.16Z" fill="#fff"/><path d="M546.775,2963.44l-.783-.022a1.414,1.414,0,0,0-.784.2,1.245,1.245,0,0,0-.469.557v5.353h-2.131V2961.6h1.985l.095,1.172a2.5,2.5,0,0,1,.721-.97,1.608,1.608,0,0,1,1.022-.348,1.727,1.727,0,0,1,.3.025c.09.018.181.038.274.063Z" fill="#fff"/><path d="M552.51,2969.526a4.62,4.62,0,0,1-.2-.571,3.941,3.941,0,0,1-.12-.615,2.96,2.96,0,0,1-.868.96,2.175,2.175,0,0,1-1.286.381,2.67,2.67,0,0,1-1.918-.642,2.292,2.292,0,0,1-.674-1.747,2.089,2.089,0,0,1,.9-1.8,4.475,4.475,0,0,1,2.618-.64h1.194v-.631a1.233,1.233,0,0,0-.3-.886,1.4,1.4,0,0,0-1.688-.063.891.891,0,0,0-.282.7l-2.066-.008-.007-.044a2.015,2.015,0,0,1,.871-1.733,3.806,3.806,0,0,1,2.425-.728,3.534,3.534,0,0,1,2.307.722,2.5,2.5,0,0,1,.886,2.054v3.274a6.1,6.1,0,0,0,.085,1.047,5.143,5.143,0,0,0,.267.974Zm-1.956-1.427a1.826,1.826,0,0,0,1-.28,1.433,1.433,0,0,0,.593-.644v-1.12h-1.194a1.425,1.425,0,0,0-1.032.34,1.1,1.1,0,0,0-.352.825.821.821,0,0,0,.264.636A1.02,1.02,0,0,0,550.554,2968.1Z" fill="#fff"/><path d="M563.064,2965.784a4.629,4.629,0,0,1-.791,2.834,2.675,2.675,0,0,1-2.285,1.063,2.414,2.414,0,0,1-1.2-.291,2.479,2.479,0,0,1-.875-.845l-.161.981h-1.831V2958.1h2.131v4.344a2.429,2.429,0,0,1,.824-.732,2.3,2.3,0,0,1,1.1-.257,2.625,2.625,0,0,1,2.3,1.139,5.222,5.222,0,0,1,.791,3.036Zm-2.131-.154a4.193,4.193,0,0,0-.34-1.846,1.2,1.2,0,0,0-1.162-.682,1.59,1.59,0,0,0-.842.211,1.457,1.457,0,0,0-.542.6v3.375a1.373,1.373,0,0,0,.546.553,1.744,1.744,0,0,0,.853.191,1.212,1.212,0,0,0,1.157-.586,3.424,3.424,0,0,0,.33-1.661Z" fill="#fff"/><path d="M569.033,2969.526a4.464,4.464,0,0,1-.2-.571,4.067,4.067,0,0,1-.121-.615,2.958,2.958,0,0,1-.867.96,2.179,2.179,0,0,1-1.286.381,2.673,2.673,0,0,1-1.919-.642,2.3,2.3,0,0,1-.674-1.747,2.089,2.089,0,0,1,.9-1.8,4.476,4.476,0,0,1,2.619-.64h1.194v-.631a1.229,1.229,0,0,0-.3-.886,1.4,1.4,0,0,0-1.688-.063.9.9,0,0,0-.282.7l-2.065-.008-.008-.044a2.016,2.016,0,0,1,.872-1.733,3.8,3.8,0,0,1,2.424-.728,3.53,3.53,0,0,1,2.307.722,2.5,2.5,0,0,1,.887,2.054v3.274a6.1,6.1,0,0,0,.084,1.047,5.217,5.217,0,0,0,.267.974Zm-1.955-1.427a1.823,1.823,0,0,0,1-.28,1.441,1.441,0,0,0,.594-.644v-1.12h-1.194a1.428,1.428,0,0,0-1.033.34,1.108,1.108,0,0,0-.352.825.821.821,0,0,0,.264.636A1.023,1.023,0,0,0,567.078,2968.1Z" fill="#fff"/><path d="M574.746,2961.6v8.218a2.95,2.95,0,0,1-.739,2.15,2.747,2.747,0,0,1-2.058.758,4.051,4.051,0,0,1-1.048-.125l.1-1.632a2.789,2.789,0,0,0,.337.065,2.692,2.692,0,0,0,.359.022.79.79,0,0,0,.666-.3,1.525,1.525,0,0,0,.234-.934V2961.6Zm-.044-1.911h-2.146v-1.59H574.7Z" fill="#fff"/><path d="M576.087,2965.491a4.252,4.252,0,0,1,.988-2.9,3.448,3.448,0,0,1,2.74-1.132,3.483,3.483,0,0,1,2.754,1.128,4.23,4.23,0,0,1,1,2.908v.153a4.239,4.239,0,0,1-.992,2.912,3.916,3.916,0,0,1-5.494,0,4.234,4.234,0,0,1-.992-2.912Zm2.131.149a3.442,3.442,0,0,0,.381,1.738,1.464,1.464,0,0,0,2.442,0,3.412,3.412,0,0,0,.385-1.734v-.153a3.381,3.381,0,0,0-.388-1.719,1.316,1.316,0,0,0-1.223-.666,1.3,1.3,0,0,0-1.212.67,3.407,3.407,0,0,0-.385,1.715Z" fill="#fff"/><path d="M592.127,2969.681a3.572,3.572,0,0,1-2.74-1.1,3.928,3.928,0,0,1-1.025-2.79v-.293a4.331,4.331,0,0,1,.97-2.907,3.618,3.618,0,0,1,5.1-.169,3.721,3.721,0,0,1,.886,2.614v1.165h-4.732l-.014.044a2.058,2.058,0,0,0,.523,1.284,1.639,1.639,0,0,0,1.264.5,4.16,4.16,0,0,0,1.179-.142,5.461,5.461,0,0,0,1.025-.452l.579,1.323a3.96,3.96,0,0,1-1.267.658A5.5,5.5,0,0,1,592.127,2969.681Zm-.191-6.579a1.115,1.115,0,0,0-.937.455,2.366,2.366,0,0,0-.425,1.194l.022.037h2.622v-.191a1.714,1.714,0,0,0-.318-1.087A1.149,1.149,0,0,0,591.936,2963.1Z" fill="#fff"/><path d="M598.513,2961.6l.1,1.136a2.888,2.888,0,0,1,.974-.945,2.524,2.524,0,0,1,1.3-.337,2.384,2.384,0,0,1,1.875.755,3.483,3.483,0,0,1,.674,2.365v4.951h-2.146v-4.955a1.61,1.61,0,0,0-.322-1.134,1.3,1.3,0,0,0-.974-.335,1.648,1.648,0,0,0-.762.173,1.568,1.568,0,0,0-.564.489v5.762h-2.139V2961.6Z" fill="#fff"/><path d="M550.419,2987.681a3.572,3.572,0,0,1-2.74-1.1,3.928,3.928,0,0,1-1.025-2.79v-.293a4.331,4.331,0,0,1,.97-2.907,3.618,3.618,0,0,1,5.095-.169,3.721,3.721,0,0,1,.886,2.614v1.165h-4.732l-.014.044a2.058,2.058,0,0,0,.523,1.284,1.639,1.639,0,0,0,1.264.5,4.165,4.165,0,0,0,1.179-.142,5.489,5.489,0,0,0,1.025-.452l.579,1.323a3.96,3.96,0,0,1-1.267.658A5.5,5.5,0,0,1,550.419,2987.681Zm-.191-6.579a1.115,1.115,0,0,0-.937.455,2.365,2.365,0,0,0-.425,1.194l.022.037h2.622v-.191a1.714,1.714,0,0,0-.318-1.087A1.149,1.149,0,0,0,550.228,2981.1Z" fill="#fff"/><path d="M554.52,2983.63a5.16,5.16,0,0,1,.809-3.026,2.633,2.633,0,0,1,2.282-1.149,2.269,2.269,0,0,1,1.157.289,2.608,2.608,0,0,1,.857.831l.2-.974h1.816v10.972H559.5v-3.787a2.356,2.356,0,0,1-.824.667,2.469,2.469,0,0,1-1.081.228,2.68,2.68,0,0,1-2.267-1.071,4.565,4.565,0,0,1-.809-2.826Zm2.132.149a3.288,3.288,0,0,0,.351,1.646,1.219,1.219,0,0,0,1.143.607,1.706,1.706,0,0,0,.8-.176,1.409,1.409,0,0,0,.55-.511v-3.511a1.513,1.513,0,0,0-.546-.541,1.576,1.576,0,0,0-.8-.191,1.207,1.207,0,0,0-1.146.7,3.977,3.977,0,0,0-.362,1.821Z" fill="#fff"/><path d="M568.158,2986.384a2.654,2.654,0,0,1-.93.959,2.74,2.74,0,0,1-3.256-.465,3.7,3.7,0,0,1-.707-2.494V2979.6H565.4v4.809a2.053,2.053,0,0,0,.293,1.244,1.025,1.025,0,0,0,.864.378,2.126,2.126,0,0,0,.879-.165,1.472,1.472,0,0,0,.6-.488V2979.6h2.139v7.925h-1.824Z" fill="#fff"/><path d="M574.032,2977.7h-2.139v-1.6h2.139Zm0,9.822h-2.139V2979.6h2.139Z" fill="#fff"/><path d="M582.938,2983.784a4.547,4.547,0,0,1-.813,2.826,2.688,2.688,0,0,1-2.27,1.071,2.534,2.534,0,0,1-1.106-.232,2.268,2.268,0,0,1-.828-.677v3.8H575.79V2979.6h1.926l.125.938a2.534,2.534,0,0,1,.845-.8,2.292,2.292,0,0,1,1.154-.282,2.64,2.64,0,0,1,2.285,1.149,5.139,5.139,0,0,1,.813,3.026Zm-2.138-.165a3.846,3.846,0,0,0-.374-1.819,1.219,1.219,0,0,0-1.143-.7,1.607,1.607,0,0,0-.823.2,1.406,1.406,0,0,0-.539.565v3.477a1.311,1.311,0,0,0,.539.513,1.8,1.8,0,0,0,.838.176,1.231,1.231,0,0,0,1.139-.608,3.218,3.218,0,0,0,.363-1.651Z" fill="#fff"/><path d="M583.927,2983.491a4.253,4.253,0,0,1,.989-2.9,3.444,3.444,0,0,1,2.739-1.132,3.483,3.483,0,0,1,2.754,1.128,4.23,4.23,0,0,1,1,2.908v.153a4.239,4.239,0,0,1-.992,2.912,3.915,3.915,0,0,1-5.493,0,4.235,4.235,0,0,1-.993-2.912Zm2.131.149a3.442,3.442,0,0,0,.381,1.738,1.465,1.465,0,0,0,2.443,0,3.422,3.422,0,0,0,.384-1.734v-.153a3.38,3.38,0,0,0-.388-1.719,1.315,1.315,0,0,0-1.223-.666,1.3,1.3,0,0,0-1.212.67,3.407,3.407,0,0,0-.385,1.715Z" fill="#fff"/><circle cx="14.109" cy="14.109" r="14.109" transform="translate(496.651 2958.847)" fill="#fff"/><path d="M510.76,2988.065a15.109,15.109,0,1,1,15.109-15.109A15.126,15.126,0,0,1,510.76,2988.065Zm0-28.217a13.109,13.109,0,1,0,13.109,13.108A13.124,13.124,0,0,0,510.76,2959.848Z" fill="#787d02"/><path d="M513.01,2978.557h-8.269v-1.589l3.918-4.2a9.514,9.514,0,0,0,1.206-1.643,2.666,2.666,0,0,0,.358-1.243,1.867,1.867,0,0,0-.412-1.252,1.449,1.449,0,0,0-1.169-.488,1.509,1.509,0,0,0-1.276.571,2.426,2.426,0,0,0-.437,1.517h-2.363l-.016-.049a3.66,3.66,0,0,1,1.077-2.774,4.036,4.036,0,0,1,3.015-1.136,4.21,4.21,0,0,1,2.941.973,3.344,3.344,0,0,1,1.069,2.6,3.64,3.64,0,0,1-.6,2.025,19.919,19.919,0,0,1-1.993,2.434l-2.154,2.345.017.042h5.091Z" fill="#6f7302"/><path d="M517.319,2978.557h-2.43v-2.129h2.43Z" fill="#6f7302"/><rect width="132" height="39.699" rx="3.913" transform="translate(220.555 3149.61)" fill="#a9ab67"/><path d="M276.742,3169.812a4.469,4.469,0,0,1-1.241,3.245,4.288,4.288,0,0,1-3.226,1.283,4.235,4.235,0,0,1-3.2-1.283,4.494,4.494,0,0,1-1.23-3.245v-1.918a4.505,4.505,0,0,1,1.226-3.241,4.22,4.22,0,0,1,3.2-1.286,4.3,4.3,0,0,1,3.23,1.286,4.47,4.47,0,0,1,1.245,3.241Zm-2.138-1.927a3.236,3.236,0,0,0-.623-2.047,2.053,2.053,0,0,0-1.714-.8,2,2,0,0,0-1.692.8,3.314,3.314,0,0,0-.6,2.051v1.937a3.326,3.326,0,0,0,.608,2.069,2,2,0,0,0,1.692.8,2.04,2.04,0,0,0,1.714-.8,3.3,3.3,0,0,0,.615-2.069Z" fill="#fff"/><path d="M285.385,3170.443a4.636,4.636,0,0,1-.791,2.834,2.675,2.675,0,0,1-2.285,1.063,2.427,2.427,0,0,1-1.2-.29,2.5,2.5,0,0,1-.875-.846l-.161.981h-1.831V3162.76h2.131v4.343a2.416,2.416,0,0,1,.824-.732,2.3,2.3,0,0,1,1.1-.257,2.625,2.625,0,0,1,2.3,1.139,5.232,5.232,0,0,1,.791,3.036Zm-2.131-.154a4.178,4.178,0,0,0-.341-1.846,1.194,1.194,0,0,0-1.161-.681,1.579,1.579,0,0,0-.842.211,1.443,1.443,0,0,0-.542.6v3.375a1.369,1.369,0,0,0,.545.553,1.748,1.748,0,0,0,.854.191,1.213,1.213,0,0,0,1.157-.586,3.422,3.422,0,0,0,.33-1.661Z" fill="#fff"/><path d="M289.011,3166.261v8.217a2.95,2.95,0,0,1-.74,2.15,2.74,2.74,0,0,1-2.058.759,4.167,4.167,0,0,1-1.048-.125l.1-1.633a2.654,2.654,0,0,0,.337.065,2.727,2.727,0,0,0,.359.023.791.791,0,0,0,.666-.3,1.525,1.525,0,0,0,.235-.934v-8.217Zm-.044-1.912h-2.146v-1.589h2.146Z" fill="#fff"/><path d="M294.189,3174.34a3.565,3.565,0,0,1-2.739-1.1,3.925,3.925,0,0,1-1.026-2.79v-.293a4.333,4.333,0,0,1,.97-2.907,3.618,3.618,0,0,1,5.1-.169,3.724,3.724,0,0,1,.886,2.614v1.165h-4.732l-.014.044a2.055,2.055,0,0,0,.523,1.284,1.639,1.639,0,0,0,1.264.5,4.161,4.161,0,0,0,1.179-.142,5.471,5.471,0,0,0,1.025-.451l.579,1.322a3.955,3.955,0,0,1-1.267.658A5.5,5.5,0,0,1,294.189,3174.34Zm-.191-6.578a1.113,1.113,0,0,0-.937.455,2.357,2.357,0,0,0-.425,1.193l.022.037h2.622v-.191a1.716,1.716,0,0,0-.318-1.087A1.148,1.148,0,0,0,294,3167.762Z" fill="#fff"/><path d="M301.161,3164.32v1.941h1.333v1.5h-1.333v4.036a.934.934,0,0,0,.191.659.678.678,0,0,0,.513.2,2.172,2.172,0,0,0,.289-.017,2.875,2.875,0,0,0,.282-.063l.183,1.545a4.1,4.1,0,0,1-.63.165,3.741,3.741,0,0,1-.666.056,2.275,2.275,0,0,1-1.7-.609,2.661,2.661,0,0,1-.6-1.926v-4.043h-1.157v-1.5h1.157v-1.941Z" fill="#fff"/><path d="M306.105,3164.363h-2.138v-1.6h2.138Zm0,9.822h-2.138v-7.924h2.138Z" fill="#fff"/><path d="M310.727,3171.234l.139.733h.044l.146-.733,1.3-4.973h2.234l-2.7,7.924h-2.044l-2.7-7.924h2.234Z" fill="#fff"/><path d="M315.07,3170.15a4.254,4.254,0,0,1,.989-2.9,3.444,3.444,0,0,1,2.739-1.132,3.483,3.483,0,0,1,2.754,1.128,4.23,4.23,0,0,1,1,2.908v.154a4.238,4.238,0,0,1-.992,2.911,3.915,3.915,0,0,1-5.493,0,4.234,4.234,0,0,1-.993-2.911Zm2.131.15a3.441,3.441,0,0,0,.381,1.737,1.465,1.465,0,0,0,2.443,0,3.407,3.407,0,0,0,.384-1.733v-.154a3.375,3.375,0,0,0-.388-1.718,1.313,1.313,0,0,0-1.223-.666,1.3,1.3,0,0,0-1.212.67,3.4,3.4,0,0,0-.385,1.714Z" fill="#fff"/><path d="M328.151,3172a.752.752,0,0,0-.34-.609,3.491,3.491,0,0,0-1.264-.453,5.088,5.088,0,0,1-2.12-.846,1.833,1.833,0,0,1-.714-1.527,2.183,2.183,0,0,1,.861-1.74,3.492,3.492,0,0,1,2.3-.714,3.786,3.786,0,0,1,2.413.71,2.1,2.1,0,0,1,.861,1.795l-.015.044h-2.065a1.046,1.046,0,0,0-.3-.776,1.456,1.456,0,0,0-1.707-.048.8.8,0,0,0-.3.634.719.719,0,0,0,.312.6,3.383,3.383,0,0,0,1.263.417,5.124,5.124,0,0,1,2.175.861,1.891,1.891,0,0,1,.711,1.564,2.082,2.082,0,0,1-.916,1.747,3.971,3.971,0,0,1-2.417.678,3.673,3.673,0,0,1-2.5-.8,2.242,2.242,0,0,1-.875-1.827l.015-.044h1.955a1.113,1.113,0,0,0,.418.923,1.725,1.725,0,0,0,1.032.286,1.481,1.481,0,0,0,.9-.235A.756.756,0,0,0,328.151,3172Z" fill="#fff"/><circle cx="14.109" cy="14.109" r="14.109" transform="translate(226.629 3156.146)" fill="#fff"/><path d="M240.738,3185.364a15.109,15.109,0,1,1,15.109-15.109A15.126,15.126,0,0,1,240.738,3185.364Zm0-28.218a13.109,13.109,0,1,0,13.109,13.109A13.124,13.124,0,0,0,240.738,3157.146Z" fill="#787d02"/><path d="M240.209,3175.855H237.78v-9.965h-2.462v-1.713l4.891-.433Z" fill="#6f7302"/><path d="M247.3,3175.855h-2.43v-2.129h2.43Z" fill="#6f7302"/><rect width="132" height="39.699" rx="3.913" transform="translate(758.872 3148.412)" fill="#a9ab67"/><path d="M823.482,3171h4.746v1.648h-6.884V3161.98h2.138Z" fill="#fff"/><path d="M830.887,3161.783h2.263l.015.043-2.029,1.9h-1.707Zm.688,10.861h-2.138v-7.924h2.138Z" fill="#fff"/><path d="M833.07,3168.748a5.148,5.148,0,0,1,.809-3.025,2.629,2.629,0,0,1,2.281-1.15,2.22,2.22,0,0,1,1.07.257,2.588,2.588,0,0,1,.835.732v-4.343h2.146v11.425h-1.839l-.175-.966a2.637,2.637,0,0,1-.883.835,2.354,2.354,0,0,1-1.168.286,2.678,2.678,0,0,1-2.267-1.071,4.557,4.557,0,0,1-.809-2.826Zm2.131.155a3.261,3.261,0,0,0,.352,1.647,1.222,1.222,0,0,0,1.142.6,1.66,1.66,0,0,0,.806-.187,1.512,1.512,0,0,0,.564-.549v-3.4a1.656,1.656,0,0,0-.56-.584,1.481,1.481,0,0,0-.795-.211,1.207,1.207,0,0,0-1.147.7,3.988,3.988,0,0,0-.362,1.827Z" fill="#fff"/><path d="M845.374,3172.8a3.568,3.568,0,0,1-2.739-1.1,3.924,3.924,0,0,1-1.025-2.79v-.293a4.333,4.333,0,0,1,.97-2.907,3.617,3.617,0,0,1,5.094-.169,3.719,3.719,0,0,1,.886,2.614v1.165h-4.731l-.015.044a2.056,2.056,0,0,0,.524,1.284,1.637,1.637,0,0,0,1.263.5,4.168,4.168,0,0,0,1.18-.142,5.484,5.484,0,0,0,1.025-.451l.579,1.322a3.966,3.966,0,0,1-1.268.658A5.494,5.494,0,0,1,845.374,3172.8Zm-.19-6.578a1.115,1.115,0,0,0-.938.455,2.357,2.357,0,0,0-.424,1.193l.022.037h2.622v-.191a1.716,1.716,0,0,0-.319-1.087A1.146,1.146,0,0,0,845.184,3166.221Z" fill="#fff"/><path d="M853.973,3166.558l-.784-.022a1.415,1.415,0,0,0-.783.2,1.244,1.244,0,0,0-.469.557v5.353H849.8v-7.924h1.985l.1,1.171a2.489,2.489,0,0,1,.721-.97,1.681,1.681,0,0,1,1.319-.322c.089.017.181.038.274.062Z" fill="#fff"/><circle cx="14.109" cy="14.109" r="14.109" transform="translate(764.947 3154.948)" fill="#fff"/><path d="M779.055,3184.165a15.109,15.109,0,1,1,15.109-15.108A15.125,15.125,0,0,1,779.055,3184.165Zm0-28.218a13.109,13.109,0,1,0,13.109,13.11A13.124,13.124,0,0,0,779.055,3155.947Z" fill="#787d02"/><path d="M775.49,3167.569h1.364a1.657,1.657,0,0,0,1.282-.453,1.8,1.8,0,0,0,.416-1.261,1.643,1.643,0,0,0-.416-1.173,1.585,1.585,0,0,0-1.207-.44,1.7,1.7,0,0,0-1.147.4,1.312,1.312,0,0,0-.466,1.048h-2.355l-.016-.049a2.754,2.754,0,0,1,1.089-2.346,4.347,4.347,0,0,1,2.829-.924,4.657,4.657,0,0,1,3,.9,3.1,3.1,0,0,1,1.118,2.563,2.57,2.57,0,0,1-.5,1.5,3.309,3.309,0,0,1-1.372,1.111,3.091,3.091,0,0,1,1.534,1.1,2.882,2.882,0,0,1,.529,1.722,3.149,3.149,0,0,1-1.21,2.616,4.855,4.855,0,0,1-3.1.953,4.744,4.744,0,0,1-2.9-.9,2.853,2.853,0,0,1-1.169-2.524l.017-.05h2.354a1.477,1.477,0,0,0,.5,1.146,1.817,1.817,0,0,0,1.264.451,1.836,1.836,0,0,0,1.327-.465,1.664,1.664,0,0,0,.487-1.262,1.827,1.827,0,0,0-.479-1.4,2,2,0,0,0-1.41-.444H775.49Z" fill="#6f7302"/><path d="M785.614,3174.657h-2.429v-2.13h2.429Z" fill="#6f7302"/><rect width="132" height="39.699" rx="3.913" transform="translate(658.352 3465.566)" fill="#a9ab67"/><path d="M716.905,3480.783h-3.018v9.016h-2.138v-9.016h-3v-1.648h8.159Z" fill="#fff"/><path d="M721.856,3489.8a4.486,4.486,0,0,1-.2-.572,3.821,3.821,0,0,1-.121-.615,2.948,2.948,0,0,1-.868.96,2.174,2.174,0,0,1-1.285.381,2.673,2.673,0,0,1-1.919-.642,2.29,2.29,0,0,1-.674-1.747,2.088,2.088,0,0,1,.9-1.8,4.476,4.476,0,0,1,2.619-.641H721.5v-.631a1.233,1.233,0,0,0-.3-.886,1.4,1.4,0,0,0-1.688-.062.892.892,0,0,0-.282.7l-2.066-.008-.007-.044a2.011,2.011,0,0,1,.872-1.732,3.8,3.8,0,0,1,2.424-.729,3.54,3.54,0,0,1,2.307.722,2.5,2.5,0,0,1,.886,2.055v3.273a6.089,6.089,0,0,0,.085,1.047,5.175,5.175,0,0,0,.267.975Zm-1.955-1.428a1.83,1.83,0,0,0,1-.279,1.44,1.44,0,0,0,.593-.645v-1.12H720.3a1.422,1.422,0,0,0-1.033.341,1.1,1.1,0,0,0-.352.824.821.821,0,0,0,.264.637A1.022,1.022,0,0,0,719.9,3488.371Zm.842-9.544h2.263l.015.044-2.029,1.9h-1.707Z" fill="#fff"/><path d="M728.587,3488.3a1.27,1.27,0,0,0,.916-.331,1.174,1.174,0,0,0,.344-.885h1.941l.022.044a2.472,2.472,0,0,1-.9,2.01,3.814,3.814,0,0,1-5.051-.311,4.274,4.274,0,0,1-.959-2.879v-.219a4.3,4.3,0,0,1,.956-2.879,3.377,3.377,0,0,1,2.728-1.128,3.332,3.332,0,0,1,2.362.835,2.777,2.777,0,0,1,.868,2.2l-.015.044h-1.948a1.545,1.545,0,0,0-.337-1.022,1.144,1.144,0,0,0-.93-.407,1.242,1.242,0,0,0-1.2.659,3.619,3.619,0,0,0-.348,1.7v.22a3.6,3.6,0,0,0,.348,1.707A1.252,1.252,0,0,0,728.587,3488.3Z" fill="#fff"/><path d="M735.567,3479.933v1.941H736.9v1.5h-1.333v4.036a.932.932,0,0,0,.191.659.676.676,0,0,0,.512.2,2.024,2.024,0,0,0,.29-.017,2.614,2.614,0,0,0,.282-.063l.183,1.545a4.017,4.017,0,0,1-.63.165,3.745,3.745,0,0,1-.667.056,2.277,2.277,0,0,1-1.7-.608,2.664,2.664,0,0,1-.6-1.927v-4.043h-1.158v-1.5h1.158v-1.941Z" fill="#fff"/><path d="M740.511,3479.976h-2.139v-1.6h2.139Zm0,9.823h-2.139v-7.925h2.139Z" fill="#fff"/><path d="M745.594,3488.3a1.27,1.27,0,0,0,.916-.331,1.174,1.174,0,0,0,.344-.885h1.941l.022.044a2.473,2.473,0,0,1-.905,2.01,3.813,3.813,0,0,1-5.05-.311,4.269,4.269,0,0,1-.959-2.879v-.219a4.3,4.3,0,0,1,.956-2.879,3.375,3.375,0,0,1,2.728-1.128,3.334,3.334,0,0,1,2.362.835,2.777,2.777,0,0,1,.868,2.2l-.015.044h-1.948a1.545,1.545,0,0,0-.337-1.022,1.144,1.144,0,0,0-.93-.407,1.242,1.242,0,0,0-1.2.659,3.619,3.619,0,0,0-.348,1.7v.22a3.6,3.6,0,0,0,.348,1.707A1.252,1.252,0,0,0,745.594,3488.3Z" fill="#fff"/><path d="M754.683,3489.8a4.5,4.5,0,0,1-.2-.572,4.053,4.053,0,0,1-.121-.615,2.949,2.949,0,0,1-.868.96,2.174,2.174,0,0,1-1.285.381,2.673,2.673,0,0,1-1.919-.642,2.293,2.293,0,0,1-.674-1.747,2.088,2.088,0,0,1,.9-1.8,4.476,4.476,0,0,1,2.619-.641h1.194v-.631a1.233,1.233,0,0,0-.3-.886,1.4,1.4,0,0,0-1.688-.062.892.892,0,0,0-.282.7l-2.065-.008-.008-.044a2.013,2.013,0,0,1,.872-1.732,3.8,3.8,0,0,1,2.424-.729,3.539,3.539,0,0,1,2.307.722,2.5,2.5,0,0,1,.887,2.055v3.273a6.092,6.092,0,0,0,.084,1.047,5.254,5.254,0,0,0,.267.975Zm-1.955-1.428a1.83,1.83,0,0,0,1-.279,1.449,1.449,0,0,0,.594-.645v-1.12h-1.194a1.424,1.424,0,0,0-1.033.341,1.106,1.106,0,0,0-.352.824.821.821,0,0,0,.264.637A1.022,1.022,0,0,0,752.728,3488.371Z" fill="#fff"/><path d="M762.374,3487.616a.75.75,0,0,0-.341-.608,3.454,3.454,0,0,0-1.263-.453,5.089,5.089,0,0,1-2.12-.847,1.833,1.833,0,0,1-.715-1.526,2.187,2.187,0,0,1,.861-1.741,3.5,3.5,0,0,1,2.3-.714,3.794,3.794,0,0,1,2.414.71,2.1,2.1,0,0,1,.86,1.795l-.014.044h-2.066a1.045,1.045,0,0,0-.3-.776,1.456,1.456,0,0,0-1.707-.048.8.8,0,0,0-.3.634.721.721,0,0,0,.311.6,3.379,3.379,0,0,0,1.264.417,5.134,5.134,0,0,1,2.175.862,1.889,1.889,0,0,1,.711,1.563,2.084,2.084,0,0,1-.916,1.747,3.97,3.97,0,0,1-2.417.678,3.669,3.669,0,0,1-2.5-.8,2.237,2.237,0,0,1-.875-1.827l.014-.044h1.956a1.11,1.11,0,0,0,.417.923,1.726,1.726,0,0,0,1.033.286,1.489,1.489,0,0,0,.9-.234A.757.757,0,0,0,762.374,3487.616Z" fill="#fff"/><circle cx="14.109" cy="14.109" r="14.109" transform="translate(664.426 3472.101)" fill="#fff"/><path d="M678.535,3501.319a15.109,15.109,0,1,1,15.109-15.109A15.125,15.125,0,0,1,678.535,3501.319Zm0-28.218a13.109,13.109,0,1,0,13.109,13.109A13.123,13.123,0,0,0,678.535,3473.1Z" fill="#787d02"/><path d="M679.637,3487.31h1.373v1.872h-1.373v2.628h-2.421v-2.628h-4.941l-.108-1.456,5.024-8.027h2.446Zm-5.208,0h2.787v-4.367l-.05-.016-.191.341Z" fill="#6f7302"/><path d="M685.094,3491.81h-2.429v-2.128h2.429Z" fill="#6f7302"/><rect width="132" height="39.699" rx="3.913" transform="translate(325.076 3463.161)" fill="#8c8f35"/><path d="M373.188,3487.393h-2.132l-4.306-7.287-.044.007v7.28h-2.139v-10.664h2.139l4.306,7.281.044-.007v-7.274h2.132Z" fill="#fff"/><path d="M378.52,3487.548a3.565,3.565,0,0,1-2.739-1.1,3.925,3.925,0,0,1-1.026-2.79v-.293a4.333,4.333,0,0,1,.97-2.907,3.618,3.618,0,0,1,5.1-.169,3.724,3.724,0,0,1,.886,2.614v1.165h-4.732l-.014.044a2.055,2.055,0,0,0,.523,1.284,1.639,1.639,0,0,0,1.264.5,4.156,4.156,0,0,0,1.179-.142,5.47,5.47,0,0,0,1.025-.451l.579,1.322a3.955,3.955,0,0,1-1.267.658A5.491,5.491,0,0,1,378.52,3487.548Zm-.191-6.578a1.113,1.113,0,0,0-.937.455,2.357,2.357,0,0,0-.425,1.193l.022.037h2.622v-.191a1.716,1.716,0,0,0-.318-1.087A1.148,1.148,0,0,0,378.329,3480.97Z" fill="#fff"/><path d="M382.621,3483.5a5.113,5.113,0,0,1,.817-3.025,2.648,2.648,0,0,1,2.289-1.15,2.263,2.263,0,0,1,1.172.3,2.634,2.634,0,0,1,.864.857l.168-1.01h1.846v7.887a2.939,2.939,0,0,1-1.015,2.392,4.281,4.281,0,0,1-2.823.847,5.409,5.409,0,0,1-1.274-.165,6.008,6.008,0,0,1-1.245-.451l.395-1.6a4.959,4.959,0,0,0,1,.355,4.771,4.771,0,0,0,1.11.121,1.917,1.917,0,0,0,1.293-.366,1.452,1.452,0,0,0,.413-1.143v-.717a2.387,2.387,0,0,1-.827.681,2.449,2.449,0,0,1-1.092.235,2.7,2.7,0,0,1-2.274-1.074,4.535,4.535,0,0,1-.817-2.823Zm2.139.155a3.261,3.261,0,0,0,.352,1.647,1.221,1.221,0,0,0,1.142.6,1.765,1.765,0,0,0,.832-.18,1.377,1.377,0,0,0,.545-.527v-3.463a1.49,1.49,0,0,0-.545-.56,1.592,1.592,0,0,0-.817-.2,1.2,1.2,0,0,0-1.146.7,3.974,3.974,0,0,0-.363,1.827Z" fill="#fff"/><path d="M391.088,3483.358a4.254,4.254,0,0,1,.989-2.9,3.444,3.444,0,0,1,2.739-1.132,3.483,3.483,0,0,1,2.754,1.128,4.23,4.23,0,0,1,1,2.908v.154a4.239,4.239,0,0,1-.992,2.911,3.915,3.915,0,0,1-5.493,0,4.235,4.235,0,0,1-.993-2.911Zm2.132.15a3.442,3.442,0,0,0,.38,1.737,1.314,1.314,0,0,0,1.231.654,1.3,1.3,0,0,0,1.212-.658,3.407,3.407,0,0,0,.385-1.733v-.154a3.375,3.375,0,0,0-.389-1.718,1.312,1.312,0,0,0-1.223-.666,1.3,1.3,0,0,0-1.212.67,3.4,3.4,0,0,0-.384,1.714Z" fill="#fff"/><path d="M403.21,3485.9a1.262,1.262,0,0,0,.915-.331,1.168,1.168,0,0,0,.345-.885h1.94l.022.044a2.47,2.47,0,0,1-.9,2.011,3.812,3.812,0,0,1-5.05-.311,4.27,4.27,0,0,1-.96-2.879v-.219a4.3,4.3,0,0,1,.956-2.879,3.378,3.378,0,0,1,2.728-1.128,3.326,3.326,0,0,1,2.362.835,2.773,2.773,0,0,1,.868,2.2l-.014.044H404.47a1.547,1.547,0,0,0-.337-1.021,1.142,1.142,0,0,0-.931-.407,1.239,1.239,0,0,0-1.2.659,3.616,3.616,0,0,0-.348,1.7v.22a3.6,3.6,0,0,0,.348,1.707A1.252,1.252,0,0,0,403.21,3485.9Z" fill="#fff"/><path d="M409.9,3477.571h-2.139v-1.6H409.9Zm0,9.822h-2.139v-7.924H409.9Z" fill="#fff"/><path d="M416.3,3487.393a4.476,4.476,0,0,1-.2-.571,4.053,4.053,0,0,1-.121-.615,2.957,2.957,0,0,1-.867.96,2.179,2.179,0,0,1-1.286.381,2.673,2.673,0,0,1-1.919-.642,2.3,2.3,0,0,1-.674-1.747,2.09,2.09,0,0,1,.9-1.8,4.484,4.484,0,0,1,2.619-.64h1.194v-.631a1.233,1.233,0,0,0-.3-.886,1.4,1.4,0,0,0-1.688-.062.893.893,0,0,0-.282.7l-2.065-.008-.008-.044a2.013,2.013,0,0,1,.872-1.732,3.8,3.8,0,0,1,2.424-.729,3.532,3.532,0,0,1,2.307.722,2.5,2.5,0,0,1,.887,2.055v3.273a6.092,6.092,0,0,0,.084,1.047,5.222,5.222,0,0,0,.267.974Zm-1.955-1.427a1.823,1.823,0,0,0,1-.28,1.44,1.44,0,0,0,.594-.644v-1.12h-1.194a1.424,1.424,0,0,0-1.033.341,1.106,1.106,0,0,0-.352.824.825.825,0,0,0,.264.637A1.023,1.023,0,0,0,414.35,3485.966Z" fill="#fff"/><path d="M423.036,3485.9a1.266,1.266,0,0,0,.916-.331,1.171,1.171,0,0,0,.344-.885h1.941l.022.044a2.47,2.47,0,0,1-.9,2.011,3.814,3.814,0,0,1-5.051-.311,4.274,4.274,0,0,1-.959-2.879v-.219a4.3,4.3,0,0,1,.956-2.879,3.377,3.377,0,0,1,2.728-1.128,3.326,3.326,0,0,1,2.362.835,2.773,2.773,0,0,1,.868,2.2l-.015.044H424.3a1.542,1.542,0,0,0-.337-1.021,1.138,1.138,0,0,0-.93-.407,1.241,1.241,0,0,0-1.2.659,3.617,3.617,0,0,0-.347,1.7v.22a3.6,3.6,0,0,0,.347,1.707A1.253,1.253,0,0,0,423.036,3485.9Z" fill="#fff"/><path d="M429.723,3477.571h-2.138v-1.6h2.138Zm0,9.822h-2.138v-7.924h2.138Z" fill="#fff"/><path d="M431.152,3483.358a4.253,4.253,0,0,1,.988-2.9,3.447,3.447,0,0,1,2.74-1.132,3.483,3.483,0,0,1,2.754,1.128,4.23,4.23,0,0,1,1,2.908v.154a4.234,4.234,0,0,1-.993,2.911,3.915,3.915,0,0,1-5.493,0,4.234,4.234,0,0,1-.992-2.911Zm2.131.15a3.441,3.441,0,0,0,.381,1.737,1.464,1.464,0,0,0,2.442,0,3.406,3.406,0,0,0,.385-1.733v-.154a3.375,3.375,0,0,0-.388-1.718,1.314,1.314,0,0,0-1.223-.666,1.3,1.3,0,0,0-1.212.67,3.4,3.4,0,0,0-.385,1.714Zm1.978-7.13h2.263l.014.044-2.028,1.9H433.8Z" fill="#fff"/><path d="M441.9,3479.469l.1,1.135a2.9,2.9,0,0,1,.974-.945,2.527,2.527,0,0,1,1.3-.337,2.384,2.384,0,0,1,1.875.755,3.478,3.478,0,0,1,.674,2.365v4.951h-2.146v-4.955a1.605,1.605,0,0,0-.322-1.133,1.3,1.3,0,0,0-.974-.335,1.65,1.65,0,0,0-.762.172,1.574,1.574,0,0,0-.564.489v5.762h-2.139v-7.924Z" fill="#fff"/><circle cx="14.109" cy="14.109" r="14.109" transform="translate(331.15 3469.697)" fill="#fff"/><path d="M345.259,3498.914a15.109,15.109,0,1,1,15.109-15.108A15.126,15.126,0,0,1,345.259,3498.914Zm0-28.218a13.109,13.109,0,1,0,13.109,13.11A13.124,13.124,0,0,0,345.259,3470.7Z" fill="#787d02"/><path d="M339.548,3484.04l.7-6.746H347v1.946h-4.766l-.333,2.8a2.853,2.853,0,0,1,.807-.412,3.791,3.791,0,0,1,3.756.886,4.377,4.377,0,0,1,.961,3.011,4.153,4.153,0,0,1-1.053,2.9,3.9,3.9,0,0,1-3.032,1.156,4.562,4.562,0,0,1-2.862-.915,2.9,2.9,0,0,1-1.148-2.513l.017-.041,2.337-.117a1.7,1.7,0,0,0,.458,1.261,1.633,1.633,0,0,0,1.2.453,1.4,1.4,0,0,0,1.252-.6,2.775,2.775,0,0,0,.4-1.574,2.921,2.921,0,0,0-.432-1.677,1.453,1.453,0,0,0-1.281-.631,1.86,1.86,0,0,0-1.069.258,1.412,1.412,0,0,0-.529.7Z" fill="#6f7302"/><path d="M351.818,3489.406h-2.43v-2.13h2.43Z" fill="#6f7302"/><rect width="132" height="39.699" rx="3.913" transform="translate(325.076 3318.27)" fill="#8c8f35"/><path d="M376.447,3342.5h-2.131l-4.307-7.287-.044.007v7.28h-2.139v-10.664h2.139l4.307,7.28.044-.007v-7.273h2.131Z" fill="#fff"/><path d="M381.779,3342.657a3.566,3.566,0,0,1-2.739-1.1,3.924,3.924,0,0,1-1.026-2.79v-.293a4.336,4.336,0,0,1,.971-2.907,3.619,3.619,0,0,1,5.094-.169,3.722,3.722,0,0,1,.886,2.615v1.165h-4.731l-.015.044a2.058,2.058,0,0,0,.523,1.284,1.641,1.641,0,0,0,1.264.5,4.117,4.117,0,0,0,1.179-.143,5.46,5.46,0,0,0,1.026-.451l.578,1.322a3.915,3.915,0,0,1-1.267.658A5.487,5.487,0,0,1,381.779,3342.657Zm-.19-6.578a1.114,1.114,0,0,0-.938.455,2.37,2.37,0,0,0-.425,1.193l.022.038h2.622v-.192a1.718,1.718,0,0,0-.318-1.087A1.15,1.15,0,0,0,381.589,3336.079Z" fill="#fff"/><path d="M385.881,3338.606a5.114,5.114,0,0,1,.817-3.025,2.646,2.646,0,0,1,2.288-1.149,2.263,2.263,0,0,1,1.172.3,2.638,2.638,0,0,1,.864.858l.169-1.011h1.845v7.888a2.939,2.939,0,0,1-1.014,2.391,4.274,4.274,0,0,1-2.823.847,5.423,5.423,0,0,1-1.275-.165,6.021,6.021,0,0,1-1.245-.45l.4-1.6a5.007,5.007,0,0,0,1,.356,4.756,4.756,0,0,0,1.109.121,1.913,1.913,0,0,0,1.293-.367,1.452,1.452,0,0,0,.413-1.142v-.718a2.4,2.4,0,0,1-.827.682,2.462,2.462,0,0,1-1.092.234,2.7,2.7,0,0,1-2.273-1.073,4.537,4.537,0,0,1-.817-2.823Zm2.138.156a3.264,3.264,0,0,0,.352,1.646,1.222,1.222,0,0,0,1.142.6,1.762,1.762,0,0,0,.832-.181,1.369,1.369,0,0,0,.545-.526v-3.463a1.475,1.475,0,0,0-.545-.561,1.59,1.59,0,0,0-.817-.2,1.205,1.205,0,0,0-1.146.7,3.973,3.973,0,0,0-.363,1.827Z" fill="#fff"/><path d="M394.347,3338.468a4.255,4.255,0,0,1,.989-2.905,3.444,3.444,0,0,1,2.739-1.131,3.482,3.482,0,0,1,2.754,1.127,4.231,4.231,0,0,1,1,2.909v.153a4.238,4.238,0,0,1-.992,2.911,3.915,3.915,0,0,1-5.493,0,4.234,4.234,0,0,1-.993-2.911Zm2.132.149a3.436,3.436,0,0,0,.381,1.737,1.463,1.463,0,0,0,2.442,0,3.405,3.405,0,0,0,.385-1.733v-.153a3.388,3.388,0,0,0-.388-1.719,1.316,1.316,0,0,0-1.224-.666,1.3,1.3,0,0,0-1.211.67,3.4,3.4,0,0,0-.385,1.715Z" fill="#fff"/><path d="M406.469,3341.009a1.27,1.27,0,0,0,.916-.331,1.173,1.173,0,0,0,.344-.885h1.941l.022.044a2.474,2.474,0,0,1-.9,2.011,3.814,3.814,0,0,1-5.05-.312,4.268,4.268,0,0,1-.959-2.879v-.219a4.3,4.3,0,0,1,.956-2.879,3.374,3.374,0,0,1,2.728-1.127,3.332,3.332,0,0,1,2.362.834,2.778,2.778,0,0,1,.868,2.2l-.015.044h-1.948a1.546,1.546,0,0,0-.337-1.022,1.144,1.144,0,0,0-.93-.407,1.242,1.242,0,0,0-1.2.659,3.618,3.618,0,0,0-.348,1.7v.22a3.6,3.6,0,0,0,.348,1.707A1.252,1.252,0,0,0,406.469,3341.009Z" fill="#fff"/><path d="M413.156,3332.681h-2.139v-1.6h2.139Zm0,9.822h-2.139v-7.925h2.139Z" fill="#fff"/><path d="M419.565,3342.5a4.5,4.5,0,0,1-.2-.571,4.09,4.09,0,0,1-.121-.616,2.946,2.946,0,0,1-.867.96,2.177,2.177,0,0,1-1.286.381,2.672,2.672,0,0,1-1.919-.642,2.292,2.292,0,0,1-.674-1.747,2.087,2.087,0,0,1,.9-1.8,4.478,4.478,0,0,1,2.619-.641h1.194v-.631a1.23,1.23,0,0,0-.3-.885,1.4,1.4,0,0,0-1.688-.063.891.891,0,0,0-.283.7l-2.065-.008-.007-.044a2.012,2.012,0,0,1,.871-1.732,3.8,3.8,0,0,1,2.424-.728,3.54,3.54,0,0,1,2.308.721,2.5,2.5,0,0,1,.886,2.055v3.273a6.2,6.2,0,0,0,.084,1.047,5.234,5.234,0,0,0,.267.975Zm-1.956-1.428a1.834,1.834,0,0,0,1-.279,1.443,1.443,0,0,0,.593-.645v-1.12h-1.194a1.425,1.425,0,0,0-1.033.341,1.106,1.106,0,0,0-.351.824.824.824,0,0,0,.263.637A1.023,1.023,0,0,0,417.609,3341.075Z" fill="#fff"/><path d="M422.641,3338.606a5.149,5.149,0,0,1,.809-3.025,2.629,2.629,0,0,1,2.282-1.149,2.218,2.218,0,0,1,1.069.256,2.57,2.57,0,0,1,.835.733v-4.344h2.146V3342.5h-1.838l-.176-.967a2.634,2.634,0,0,1-.882.835,2.355,2.355,0,0,1-1.169.286,2.677,2.677,0,0,1-2.267-1.07,4.559,4.559,0,0,1-.809-2.826Zm2.131.156a3.254,3.254,0,0,0,.352,1.646,1.222,1.222,0,0,0,1.142.6,1.658,1.658,0,0,0,.806-.188,1.491,1.491,0,0,0,.564-.549v-3.4a1.648,1.648,0,0,0-.56-.585,1.477,1.477,0,0,0-.795-.211,1.206,1.206,0,0,0-1.146.7,3.973,3.973,0,0,0-.363,1.827Z" fill="#fff"/><path d="M431.108,3338.468a4.254,4.254,0,0,1,.988-2.905,3.906,3.906,0,0,1,5.494,0,4.231,4.231,0,0,1,1,2.909v.153a4.238,4.238,0,0,1-.992,2.911,3.916,3.916,0,0,1-5.494,0,4.233,4.233,0,0,1-.992-2.911Zm2.131.149a3.436,3.436,0,0,0,.381,1.737,1.463,1.463,0,0,0,2.442,0,3.405,3.405,0,0,0,.385-1.733v-.153a3.378,3.378,0,0,0-.388-1.719,1.316,1.316,0,0,0-1.223-.666,1.3,1.3,0,0,0-1.212.67,3.4,3.4,0,0,0-.385,1.715Z" fill="#fff"/><path d="M444.072,3336.417l-.784-.023a1.416,1.416,0,0,0-.784.2,1.253,1.253,0,0,0-.469.556v5.354H439.9v-7.925h1.985l.1,1.172a2.509,2.509,0,0,1,.722-.971,1.693,1.693,0,0,1,1.318-.322c.09.017.182.038.275.062Z" fill="#fff"/><circle cx="14.109" cy="14.109" r="14.109" transform="translate(331.15 3324.805)" fill="#fff"/><path d="M345.259,3354.023a15.109,15.109,0,1,1,15.109-15.109A15.126,15.126,0,0,1,345.259,3354.023Zm0-28.217a13.109,13.109,0,1,0,13.109,13.108A13.124,13.124,0,0,0,345.259,3325.806Z" fill="#787d02"/><path d="M344.106,3332.228a5.8,5.8,0,0,1,1.261.129,6.658,6.658,0,0,1,1.16.378l-.432,1.78a9.639,9.639,0,0,0-.978-.287,4.652,4.652,0,0,0-.994-.095,2.169,2.169,0,0,0-1.776.828,3.355,3.355,0,0,0-.62,2.292l.025.041a2.824,2.824,0,0,1,1.031-.665,3.878,3.878,0,0,1,1.406-.241,3.069,3.069,0,0,1,2.542,1.152,4.564,4.564,0,0,1,.919,2.94,4.2,4.2,0,0,1-1.136,3.02,3.88,3.88,0,0,1-2.94,1.189,4.067,4.067,0,0,1-3.128-1.3,5.107,5.107,0,0,1-1.206-3.607v-2.362a5.185,5.185,0,0,1,1.373-3.785A4.673,4.673,0,0,1,344.106,3332.228Zm-.557,6a2.76,2.76,0,0,0-1.148.217,1.74,1.74,0,0,0-.732.589v.806a3.94,3.94,0,0,0,.52,2.209,1.6,1.6,0,0,0,1.385.772,1.383,1.383,0,0,0,1.2-.685,2.937,2.937,0,0,0,.453-1.657,2.688,2.688,0,0,0-.457-1.627A1.442,1.442,0,0,0,343.549,3338.225Z" fill="#6f7302"/><path d="M351.818,3344.515h-2.43v-2.129h2.43Z" fill="#6f7302"/></g><g transform="translate(246.167 4889.495)"><g transform="translate(314.615 2963.337)"><path d="M550.709,3050.065l39.143-72.853H353.758l-39.143,72.853Z" transform="translate(-314.615 -2967.552)" fill="#294d6d"/><path d="M845.089,3083.037l39.143-72.853H648.138L609,3083.037Z" transform="translate(-404.056 -2977.571)" fill="#3e73a3"/><path d="M751.221,3065.384H334.664l35.984-66.972H787.205Z" transform="translate(-320.706 -2973.994)" fill="#badbf4"/><path d="M581.38,2965.944H419.337l1.4-2.607H582.781Z" transform="translate(-346.432 -2963.337)" fill="#294d6d"/><path d="M840.814,3131.792H678.771l1.4-2.607H842.215Z" transform="translate(-425.256 -3013.727)" fill="#3e73a3"/></g><g transform="translate(368.06 3008.585)"><path d="M395.157,3042.249v6.82h-3.772v-18.807h7.492a7.409,7.409,0,0,1,5.1,1.653,6.009,6.009,0,0,1,0,8.693,7.447,7.447,0,0,1-5.1,1.64Zm0-2.906h3.72a3.138,3.138,0,0,0,2.389-.859,3.054,3.054,0,0,0,.814-2.189,3.2,3.2,0,0,0-.807-2.242,3.085,3.085,0,0,0-2.4-.885h-3.72Z" transform="translate(-391.385 -3028.918)" fill="#294d6d"/><path d="M419.742,3048.483H415.97v-20.151h3.772Z" transform="translate(-398.855 -3028.332)" fill="#294d6d"/><path d="M433.722,3051.065a7.839,7.839,0,0,1-.355-1.007,6.948,6.948,0,0,1-.213-1.085,5.2,5.2,0,0,1-1.531,1.692,3.822,3.822,0,0,1-2.267.672,4.716,4.716,0,0,1-3.384-1.131,4.046,4.046,0,0,1-1.189-3.081,3.685,3.685,0,0,1,1.582-3.184,7.9,7.9,0,0,1,4.618-1.131h2.105V3041.7a2.175,2.175,0,0,0-.53-1.563,2.471,2.471,0,0,0-2.977-.11,1.571,1.571,0,0,0-.5,1.234l-3.642-.012-.013-.078a3.549,3.549,0,0,1,1.537-3.055,6.7,6.7,0,0,1,4.276-1.285,6.242,6.242,0,0,1,4.069,1.272,4.406,4.406,0,0,1,1.563,3.623v5.774a10.858,10.858,0,0,0,.148,1.847,9.248,9.248,0,0,0,.471,1.718Zm-3.449-2.519a3.232,3.232,0,0,0,1.77-.491,2.557,2.557,0,0,0,1.046-1.137v-1.976h-2.105a2.511,2.511,0,0,0-1.821.6,1.946,1.946,0,0,0-.62,1.452,1.454,1.454,0,0,0,.465,1.125A1.8,1.8,0,0,0,430.273,3048.546Z" transform="translate(-401.532 -3030.914)" fill="#294d6d"/><path d="M449.672,3037.088l.168,2a5.12,5.12,0,0,1,1.717-1.667,4.466,4.466,0,0,1,2.287-.594,4.209,4.209,0,0,1,3.307,1.33,6.148,6.148,0,0,1,1.188,4.172v8.732h-3.785v-8.739a2.839,2.839,0,0,0-.568-2,2.287,2.287,0,0,0-1.718-.589,2.9,2.9,0,0,0-1.344.3,2.761,2.761,0,0,0-.995.861v10.163h-3.772v-13.976Z" transform="translate(-408.027 -3030.914)" fill="#294d6d"/><path d="M476.328,3043.948a7.5,7.5,0,0,1,1.744-5.122,6.077,6.077,0,0,1,4.831-2,6.143,6.143,0,0,1,4.856,1.989,7.464,7.464,0,0,1,1.757,5.129v.271a7.473,7.473,0,0,1-1.75,5.134,6.907,6.907,0,0,1-9.688,0,7.466,7.466,0,0,1-1.751-5.134Zm3.759.264a6.06,6.06,0,0,0,.672,3.064,2.583,2.583,0,0,0,4.308-.006,6.027,6.027,0,0,0,.678-3.057v-.27a5.961,5.961,0,0,0-.685-3.031,2.316,2.316,0,0,0-2.157-1.174,2.289,2.289,0,0,0-2.138,1.18,6.02,6.02,0,0,0-.678,3.025Z" transform="translate(-417.193 -3030.914)" fill="#294d6d"/><path d="M520.683,3044.464a8.026,8.026,0,0,1-1.434,4.986,4.741,4.741,0,0,1-4,1.886,4.46,4.46,0,0,1-1.95-.407,3.993,3.993,0,0,1-1.46-1.195v6.7h-3.759v-19.35h3.4l.22,1.653a4.471,4.471,0,0,1,1.492-1.414,4.03,4.03,0,0,1,2.034-.5,4.653,4.653,0,0,1,4.03,2.028,9.053,9.053,0,0,1,1.434,5.335Zm-3.772-.29a6.788,6.788,0,0,0-.659-3.208,2.15,2.15,0,0,0-2.015-1.229,2.841,2.841,0,0,0-1.453.35,2.485,2.485,0,0,0-.95,1v6.132a2.31,2.31,0,0,0,.95.906,3.187,3.187,0,0,0,1.479.311,2.169,2.169,0,0,0,2.008-1.073,5.671,5.671,0,0,0,.64-2.911Z" transform="translate(-426.839 -3030.914)" fill="#294d6d"/><path d="M536.874,3040.33l-1.382-.038a2.511,2.511,0,0,0-1.382.349,2.208,2.208,0,0,0-.827.982v9.442h-3.759v-13.976h3.5l.168,2.067a4.41,4.41,0,0,1,1.273-1.712,2.98,2.98,0,0,1,2.325-.569q.238.046.485.111Z" transform="translate(-433.356 -3030.914)" fill="#294d6d"/><path d="M541.993,3043.948a7.5,7.5,0,0,1,1.744-5.122,6.077,6.077,0,0,1,4.831-2,6.143,6.143,0,0,1,4.856,1.989,7.464,7.464,0,0,1,1.757,5.129v.271a7.472,7.472,0,0,1-1.75,5.134,6.907,6.907,0,0,1-9.688,0,7.466,7.466,0,0,1-1.751-5.134Zm3.759.264a6.061,6.061,0,0,0,.672,3.064,2.583,2.583,0,0,0,4.308-.006,6.027,6.027,0,0,0,.678-3.057v-.27a5.961,5.961,0,0,0-.685-3.031,2.316,2.316,0,0,0-2.157-1.174,2.288,2.288,0,0,0-2.138,1.18,6.02,6.02,0,0,0-.678,3.025Z" transform="translate(-437.144 -3030.914)" fill="#294d6d"/><path d="M569.86,3048.43a2.231,2.231,0,0,0,1.615-.584,2.065,2.065,0,0,0,.607-1.56h3.423l.039.077a4.355,4.355,0,0,1-1.6,3.546,6.726,6.726,0,0,1-8.906-.549,7.528,7.528,0,0,1-1.692-5.076v-.388a7.582,7.582,0,0,1,1.685-5.076,5.96,5.96,0,0,1,4.812-1.989,5.871,5.871,0,0,1,4.166,1.472,4.894,4.894,0,0,1,1.531,3.875l-.026.077h-3.436a2.728,2.728,0,0,0-.595-1.8,2.014,2.014,0,0,0-1.64-.717,2.188,2.188,0,0,0-2.112,1.161,6.378,6.378,0,0,0-.613,2.992v.386a6.357,6.357,0,0,0,.613,3.012A2.209,2.209,0,0,0,569.86,3048.43Z" transform="translate(-443.633 -3030.914)" fill="#294d6d"/><path d="M589.935,3051.336a6.293,6.293,0,0,1-4.831-1.937,6.929,6.929,0,0,1-1.809-4.922v-.517a7.647,7.647,0,0,1,1.712-5.128,6.381,6.381,0,0,1,8.983-.3,6.562,6.562,0,0,1,1.564,4.612v2.054H587.21l-.026.077a3.624,3.624,0,0,0,.924,2.264,2.884,2.884,0,0,0,2.228.888,7.3,7.3,0,0,0,2.08-.251,9.6,9.6,0,0,0,1.808-.8l1.021,2.331a6.95,6.95,0,0,1-2.235,1.162A9.7,9.7,0,0,1,589.935,3051.336Zm-.336-11.6a1.965,1.965,0,0,0-1.653.8,4.164,4.164,0,0,0-.749,2.106l.038.064h4.625v-.335a3.025,3.025,0,0,0-.562-1.918A2.025,2.025,0,0,0,589.6,3039.737Z" transform="translate(-449.693 -3030.914)" fill="#294d6d"/><path d="M611.343,3047.216a1.317,1.317,0,0,0-.6-1.072,6.129,6.129,0,0,0-2.229-.8,8.964,8.964,0,0,1-3.74-1.492,3.238,3.238,0,0,1-1.259-2.693,3.852,3.852,0,0,1,1.518-3.068,6.164,6.164,0,0,1,4.063-1.259,6.675,6.675,0,0,1,4.256,1.253,3.7,3.7,0,0,1,1.518,3.165l-.026.077H611.2a1.843,1.843,0,0,0-.536-1.37,2.572,2.572,0,0,0-3.01-.084,1.41,1.41,0,0,0-.523,1.118,1.269,1.269,0,0,0,.549,1.059,5.981,5.981,0,0,0,2.228.737,9.033,9.033,0,0,1,3.837,1.518A3.338,3.338,0,0,1,615,3047.06a3.673,3.673,0,0,1-1.614,3.081,7,7,0,0,1-4.263,1.195,6.476,6.476,0,0,1-4.411-1.415,3.953,3.953,0,0,1-1.544-3.223l.026-.078h3.449a1.961,1.961,0,0,0,.737,1.627,3.036,3.036,0,0,0,1.821.5,2.616,2.616,0,0,0,1.6-.414A1.331,1.331,0,0,0,611.343,3047.216Z" transform="translate(-455.729 -3030.914)" fill="#294d6d"/><path d="M622.818,3043.948a7.5,7.5,0,0,1,1.744-5.122,6.075,6.075,0,0,1,4.831-2,6.146,6.146,0,0,1,4.857,1.989,7.464,7.464,0,0,1,1.756,5.129v.271a7.469,7.469,0,0,1-1.75,5.134,6.907,6.907,0,0,1-9.688,0,7.469,7.469,0,0,1-1.75-5.134Zm3.759.264a6.06,6.06,0,0,0,.672,3.064,2.583,2.583,0,0,0,4.308-.006,6.027,6.027,0,0,0,.678-3.057v-.27a5.967,5.967,0,0,0-.684-3.031,2.318,2.318,0,0,0-2.157-1.174,2.289,2.289,0,0,0-2.138,1.18,6.019,6.019,0,0,0-.678,3.025Z" transform="translate(-461.701 -3030.914)" fill="#294d6d"/><path d="M652.386,3047.216a1.317,1.317,0,0,0-.6-1.072,6.129,6.129,0,0,0-2.228-.8,8.964,8.964,0,0,1-3.74-1.492,3.238,3.238,0,0,1-1.259-2.693,3.853,3.853,0,0,1,1.518-3.068,6.164,6.164,0,0,1,4.063-1.259,6.674,6.674,0,0,1,4.256,1.253,3.7,3.7,0,0,1,1.518,3.165l-.026.077h-3.643a1.843,1.843,0,0,0-.536-1.37,2.572,2.572,0,0,0-3.01-.084,1.41,1.41,0,0,0-.523,1.118,1.269,1.269,0,0,0,.549,1.059,5.976,5.976,0,0,0,2.228.737,9.033,9.033,0,0,1,3.837,1.518,3.338,3.338,0,0,1,1.252,2.758,3.673,3.673,0,0,1-1.614,3.081,7,7,0,0,1-4.263,1.195,6.476,6.476,0,0,1-4.411-1.415,3.953,3.953,0,0,1-1.544-3.223l.026-.078h3.449a1.96,1.96,0,0,0,.737,1.627,3.035,3.035,0,0,0,1.821.5,2.616,2.616,0,0,0,1.6-.414A1.331,1.331,0,0,0,652.386,3047.216Z" transform="translate(-468.199 -3030.914)" fill="#294d6d"/><path d="M673.324,3041.611a9.082,9.082,0,0,1,1.427-5.335,4.637,4.637,0,0,1,4.024-2.028,3.923,3.923,0,0,1,1.886.452,4.552,4.552,0,0,1,1.472,1.292v-7.66h3.784v20.151h-3.242l-.31-1.705a4.635,4.635,0,0,1-1.557,1.473,4.136,4.136,0,0,1-2.06.5,4.723,4.723,0,0,1-4-1.886,8.05,8.05,0,0,1-1.427-4.986Zm3.759.273a5.755,5.755,0,0,0,.62,2.9,2.154,2.154,0,0,0,2.015,1.059,2.917,2.917,0,0,0,1.421-.331,2.64,2.64,0,0,0,.995-.968v-5.991a2.912,2.912,0,0,0-.989-1.033,2.613,2.613,0,0,0-1.4-.37,2.127,2.127,0,0,0-2.022,1.234,7.016,7.016,0,0,0-.639,3.222Z" transform="translate(-477.046 -3028.332)" fill="#294d6d"/><path d="M701.6,3051.336a6.293,6.293,0,0,1-4.831-1.937,6.928,6.928,0,0,1-1.809-4.922v-.517a7.647,7.647,0,0,1,1.712-5.128,6.382,6.382,0,0,1,8.984-.3,6.565,6.565,0,0,1,1.563,4.612v2.054h-8.345l-.026.077a3.623,3.623,0,0,0,.924,2.264,2.884,2.884,0,0,0,2.228.888,7.294,7.294,0,0,0,2.079-.251,9.62,9.62,0,0,0,1.809-.8l1.02,2.331a6.95,6.95,0,0,1-2.235,1.162A9.7,9.7,0,0,1,701.6,3051.336Zm-.336-11.6a1.965,1.965,0,0,0-1.653.8,4.171,4.171,0,0,0-.749,2.106l.038.064h4.625v-.335a3.024,3.024,0,0,0-.562-1.918A2.025,2.025,0,0,0,701.262,3039.737Z" transform="translate(-483.619 -3030.914)" fill="#294d6d"/><path d="M728.6,3037.088l.168,2a5.116,5.116,0,0,1,1.718-1.667,4.465,4.465,0,0,1,2.286-.594,4.208,4.208,0,0,1,3.307,1.33,6.144,6.144,0,0,1,1.188,4.172v8.732h-3.784v-8.739a2.839,2.839,0,0,0-.569-2,2.284,2.284,0,0,0-1.718-.589,2.9,2.9,0,0,0-1.343.3,2.75,2.75,0,0,0-.995.861v10.163h-3.772v-13.976Z" transform="translate(-492.775 -3030.914)" fill="#294d6d"/><path d="M752.623,3051.336a6.294,6.294,0,0,1-4.831-1.937,6.928,6.928,0,0,1-1.808-4.922v-.517a7.646,7.646,0,0,1,1.711-5.128,6.382,6.382,0,0,1,8.984-.3,6.561,6.561,0,0,1,1.563,4.612v2.054H749.9l-.026.077a3.623,3.623,0,0,0,.923,2.264,2.884,2.884,0,0,0,2.228.888,7.291,7.291,0,0,0,2.079-.251,9.584,9.584,0,0,0,1.809-.8l1.021,2.331a6.964,6.964,0,0,1-2.235,1.162A9.706,9.706,0,0,1,752.623,3051.336Zm-.336-11.6a1.965,1.965,0,0,0-1.653.8,4.178,4.178,0,0,0-.749,2.106l.039.064h4.624v-.335a3.025,3.025,0,0,0-.562-1.918A2.024,2.024,0,0,0,752.287,3039.737Z" transform="translate(-499.123 -3030.914)" fill="#294d6d"/><path d="M765.911,3044.193a9.024,9.024,0,0,1,1.44-5.335,4.67,4.67,0,0,1,4.037-2.028,3.968,3.968,0,0,1,2.066.53,4.649,4.649,0,0,1,1.525,1.511l.3-1.783h3.255V3051a5.187,5.187,0,0,1-1.789,4.217,7.549,7.549,0,0,1-4.98,1.493,9.518,9.518,0,0,1-2.248-.29,10.522,10.522,0,0,1-2.2-.8l.7-2.816a8.766,8.766,0,0,0,1.763.626,8.421,8.421,0,0,0,1.957.213,3.373,3.373,0,0,0,2.279-.646,2.558,2.558,0,0,0,.73-2.015v-1.266a4.216,4.216,0,0,1-1.46,1.2,4.3,4.3,0,0,1-1.924.414,4.755,4.755,0,0,1-4.011-1.892,8.008,8.008,0,0,1-1.44-4.98Zm3.772.273a5.754,5.754,0,0,0,.62,2.9,2.156,2.156,0,0,0,2.015,1.059,3.1,3.1,0,0,0,1.466-.318,2.429,2.429,0,0,0,.962-.929v-6.107a2.615,2.615,0,0,0-.962-.988,2.811,2.811,0,0,0-1.44-.351,2.127,2.127,0,0,0-2.022,1.234,7.016,7.016,0,0,0-.64,3.222Z" transform="translate(-505.177 -3030.914)" fill="#294d6d"/><path d="M787.361,3043.948a7.5,7.5,0,0,1,1.744-5.122,6.074,6.074,0,0,1,4.831-2,6.146,6.146,0,0,1,4.857,1.989,7.464,7.464,0,0,1,1.756,5.129v.271a7.469,7.469,0,0,1-1.75,5.134,6.907,6.907,0,0,1-9.688,0,7.469,7.469,0,0,1-1.75-5.134Zm3.759.264a6.061,6.061,0,0,0,.672,3.064,2.583,2.583,0,0,0,4.308-.006,6.027,6.027,0,0,0,.678-3.057v-.27a5.968,5.968,0,0,0-.684-3.031,2.318,2.318,0,0,0-2.157-1.174,2.289,2.289,0,0,0-2.138,1.18,6.02,6.02,0,0,0-.678,3.025Z" transform="translate(-511.694 -3030.914)" fill="#294d6d"/><path d="M815.228,3048.43a2.231,2.231,0,0,0,1.614-.584,2.065,2.065,0,0,0,.607-1.56h3.423l.039.077a4.354,4.354,0,0,1-1.6,3.546,6.726,6.726,0,0,1-8.906-.549,7.528,7.528,0,0,1-1.692-5.076v-.388a7.582,7.582,0,0,1,1.685-5.076,5.96,5.96,0,0,1,4.812-1.989,5.871,5.871,0,0,1,4.166,1.472,4.894,4.894,0,0,1,1.531,3.875l-.026.077h-3.436a2.732,2.732,0,0,0-.594-1.8,2.016,2.016,0,0,0-1.641-.717,2.188,2.188,0,0,0-2.112,1.161,6.387,6.387,0,0,0-.613,2.992v.386a6.366,6.366,0,0,0,.613,3.012A2.209,2.209,0,0,0,815.228,3048.43Z" transform="translate(-518.183 -3030.914)" fill="#294d6d"/><path d="M833.363,3031.161h-3.772v-2.829h3.772Zm0,17.322h-3.772v-13.977h3.772Z" transform="translate(-524.525 -3028.332)" fill="#294d6d"/><path d="M847.343,3051.065a7.83,7.83,0,0,1-.355-1.007,7.031,7.031,0,0,1-.213-1.085,5.194,5.194,0,0,1-1.531,1.692,3.822,3.822,0,0,1-2.267.672,4.716,4.716,0,0,1-3.384-1.131,4.045,4.045,0,0,1-1.188-3.081,3.683,3.683,0,0,1,1.582-3.184,7.9,7.9,0,0,1,4.618-1.131h2.105V3041.7a2.178,2.178,0,0,0-.529-1.563,2.472,2.472,0,0,0-2.978-.11,1.571,1.571,0,0,0-.5,1.234l-3.642-.012-.013-.078a3.55,3.55,0,0,1,1.537-3.055,6.7,6.7,0,0,1,4.276-1.285,6.241,6.241,0,0,1,4.069,1.272,4.406,4.406,0,0,1,1.563,3.623v5.774a10.93,10.93,0,0,0,.148,1.847,9.253,9.253,0,0,0,.471,1.718Zm-3.449-2.519a3.231,3.231,0,0,0,1.77-.491,2.553,2.553,0,0,0,1.046-1.137v-1.976h-2.105a2.511,2.511,0,0,0-1.821.6,1.946,1.946,0,0,0-.62,1.452,1.454,1.454,0,0,0,.465,1.125A1.8,1.8,0,0,0,843.894,3048.546Z" transform="translate(-527.203 -3030.914)" fill="#294d6d"/><path d="M865.455,3048.43a2.231,2.231,0,0,0,1.615-.584,2.066,2.066,0,0,0,.607-1.56H871.1l.038.077a4.352,4.352,0,0,1-1.595,3.546,6.727,6.727,0,0,1-8.907-.549,7.531,7.531,0,0,1-1.692-5.076v-.388a7.582,7.582,0,0,1,1.685-5.076,5.959,5.959,0,0,1,4.812-1.989,5.872,5.872,0,0,1,4.166,1.472,4.891,4.891,0,0,1,1.53,3.875l-.026.077h-3.436a2.728,2.728,0,0,0-.595-1.8,2.013,2.013,0,0,0-1.64-.717,2.187,2.187,0,0,0-2.112,1.161,6.379,6.379,0,0,0-.613,2.992v.386a6.358,6.358,0,0,0,.613,3.012A2.208,2.208,0,0,0,865.455,3048.43Z" transform="translate(-533.444 -3030.914)" fill="#294d6d"/><path d="M883.591,3031.161h-3.772v-2.829h3.772Zm0,17.322h-3.772v-13.977h3.772Z" transform="translate(-539.786 -3028.332)" fill="#294d6d"/><path d="M888.855,3041.682a7.5,7.5,0,0,1,1.744-5.122,6.077,6.077,0,0,1,4.831-2,6.146,6.146,0,0,1,4.857,1.989,7.465,7.465,0,0,1,1.756,5.129v.271a7.469,7.469,0,0,1-1.75,5.134,6.907,6.907,0,0,1-9.688,0,7.468,7.468,0,0,1-1.75-5.134Zm3.759.264a6.061,6.061,0,0,0,.672,3.064,2.583,2.583,0,0,0,4.308-.006,6.028,6.028,0,0,0,.678-3.058v-.27a5.967,5.967,0,0,0-.684-3.031,2.317,2.317,0,0,0-2.157-1.174,2.289,2.289,0,0,0-2.138,1.18,6.018,6.018,0,0,0-.678,3.025Zm3.488-12.574h3.991l.026.077-3.578,3.359h-3.01Z" transform="translate(-542.531 -3028.648)" fill="#294d6d"/><path d="M914.56,3037.088l.168,2a5.123,5.123,0,0,1,1.718-1.667,4.465,4.465,0,0,1,2.286-.594,4.207,4.207,0,0,1,3.307,1.33,6.144,6.144,0,0,1,1.188,4.172v8.732h-3.784v-8.739a2.839,2.839,0,0,0-.569-2,2.284,2.284,0,0,0-1.717-.589,2.9,2.9,0,0,0-1.344.3,2.755,2.755,0,0,0-.995.861v10.163h-3.772v-13.976Z" transform="translate(-549.273 -3030.914)" fill="#294d6d"/></g></g></g></svg>