<svg xmlns="http://www.w3.org/2000/svg" width="48.931" height="48.931" viewBox="0 0 48.931 48.931"><g transform="translate(-1784.949 -993.95)"><rect width="48.931" height="48.931" transform="translate(1784.949 993.95)" fill="none"/><path d="M1826.465,1021.969a.654.654,0,0,1-.525-.264l-7.442-10.038a.653.653,0,1,1,1.049-.778l7.065,9.529,5.733-4a.653.653,0,0,1,.747,1.072l-6.254,4.357A.65.65,0,0,1,1826.465,1021.969Z" fill="#529ad9"/><path d="M1805.591,1020.8a3.056,3.056,0,0,1-.648-.069c-1.774-.379-2.321-1.175-2.09-3.04l.378-3.066a.635.635,0,0,1,.016-.086,3.865,3.865,0,0,1,1.915-2.422l4.208-2.243a3.879,3.879,0,0,1,2.416-.405l7.339,1.164a.653.653,0,0,1-.2,1.29l-7.339-1.164a2.566,2.566,0,0,0-1.6.267l-4.208,2.243a2.559,2.559,0,0,0-1.255,1.561l-.372,3.022c-.16,1.294.049,1.385,1.067,1.6,1.7.362,2.584-1.71,2.965-2.979l.164-.543a.657.657,0,0,1,.79-.443c.037.011,3.793.977,5.765.545a.653.653,0,1,1,.28,1.275,15.934,15.934,0,0,1-5.763-.41C1808.412,1020.2,1806.7,1020.8,1805.591,1020.8Z" fill="#529ad9"/><path d="M1822.4,1024.507a.652.652,0,0,1-.346-1.206l4.065-2.539a.653.653,0,1,1,.692,1.108l-4.065,2.538A.655.655,0,0,1,1822.4,1024.507Z" fill="#529ad9"/><path d="M1797.948,1027.927a2.4,2.4,0,0,1-1.857-3.918l.647-.792a2.411,2.411,0,0,1,3.353-.364,2.4,2.4,0,0,1,.369,3.4l-.647.793A2.4,2.4,0,0,1,1797.948,1027.927Zm.653-4.286a1.1,1.1,0,0,0-.851.4h0l-.647.793a1.1,1.1,0,0,0,.168,1.552,1.1,1.1,0,0,0,1.53-.165l.647-.793a1.094,1.094,0,0,0-.847-1.788Zm-1.357-.011h0Z" fill="#529ad9"/><path d="M1800.69,1030.1a2.4,2.4,0,0,1-1.857-3.918l1.082-1.326h0a2.4,2.4,0,0,1,3.723,3.038l-1.082,1.326A2.4,2.4,0,0,1,1800.69,1030.1Zm.237-4.418-1.082,1.326a1.1,1.1,0,0,0,.169,1.552,1.1,1.1,0,0,0,1.53-.166l1.082-1.326a1.1,1.1,0,0,0-.169-1.552,1.1,1.1,0,0,0-1.53.166Z" fill="#529ad9"/><path d="M1803.432,1032.273a2.4,2.4,0,0,1-1.856-3.917l1.082-1.327h0a2.413,2.413,0,0,1,3.353-.364,2.4,2.4,0,0,1,.369,3.4l-1.082,1.326A2.4,2.4,0,0,1,1803.432,1032.273Zm.237-4.418-1.082,1.326a1.1,1.1,0,0,0,.169,1.553,1.1,1.1,0,0,0,1.53-.167l1.082-1.326a1.1,1.1,0,0,0-.168-1.553A1.1,1.1,0,0,0,1803.669,1027.855Z" fill="#529ad9"/><path d="M1806.378,1034.2a2.4,2.4,0,0,1-1.857-3.917l1.027-1.259h0a2.411,2.411,0,0,1,3.353-.364,2.4,2.4,0,0,1,.37,3.4l-1.028,1.259A2.4,2.4,0,0,1,1806.378,1034.2Zm.182-4.351-1.027,1.259a1.1,1.1,0,1,0,1.7,1.386l1.028-1.258a1.1,1.1,0,0,0-.169-1.553,1.1,1.1,0,0,0-1.53.166Z" fill="#529ad9"/><path d="M1806.89,1012.544a.54.54,0,0,1-.057,0l-7.084-.613a.653.653,0,0,1,.113-1.3l7.084.614a.653.653,0,0,1-.056,1.3Z" fill="#529ad9"/><path d="M1792.363,1021.969a.652.652,0,0,1-.373-.117l-6.253-4.357a.653.653,0,1,1,.746-1.072l5.734,4,6.664-8.989-10.413-7.255a.653.653,0,1,1,.746-1.071l10.965,7.639a.653.653,0,0,1,.151.925l-7.442,10.038A.653.653,0,0,1,1792.363,1021.969Z" fill="#529ad9"/><path d="M1811.643,1033.142a2.38,2.38,0,0,1-1.566-.585l-1.1-.985a.653.653,0,0,1,.87-.975l1.1.979a1.075,1.075,0,0,0,.8.256,1.1,1.1,0,0,0,.624-1.92l-2-1.728a.653.653,0,1,1,.854-.988l2,1.728a2.4,2.4,0,0,1-1.368,4.209C1811.782,1033.139,1811.712,1033.142,1811.643,1033.142Z" fill="#529ad9"/><path d="M1814.717,1031.177a2.376,2.376,0,0,1-1.566-.586l-2.783-2.407a.653.653,0,1,1,.854-.988l2.783,2.408a1.106,1.106,0,0,0,.81.263,1.1,1.1,0,0,0,.624-1.921l-2.85-2.465a.653.653,0,0,1,.855-.988l2.85,2.465a2.4,2.4,0,0,1-1.368,4.21C1814.856,1031.174,1814.786,1031.177,1814.717,1031.177Z" fill="#529ad9"/><path d="M1818.122,1029.5a2.377,2.377,0,0,1-1.566-.586l-3.967-3.431a.653.653,0,0,1,.855-.988l3.966,3.431a1.1,1.1,0,1,0,1.434-1.657l-4.034-3.49a.653.653,0,1,1,.855-.987l4.034,3.489a2.4,2.4,0,0,1-1.369,4.21C1818.261,1029.495,1818.191,1029.5,1818.122,1029.5Z" fill="#529ad9"/><path d="M1821.25,1027.579a2.383,2.383,0,0,1-1.566-.585l-4.874-4.217a.653.653,0,1,1,.855-.987l4.873,4.216a1.1,1.1,0,0,0,1.435-1.658l-8.973-6.871a.653.653,0,1,1,.794-1.036l9,6.9a2.4,2.4,0,0,1-1.338,4.234C1821.389,1027.576,1821.32,1027.579,1821.25,1027.579Z" fill="#529ad9"/><path d="M1796.907,1024.508a.644.644,0,0,1-.318-.084l-4.544-2.538a.653.653,0,0,1,.637-1.14l4.544,2.538a.653.653,0,0,1-.319,1.224Z" fill="#529ad9"/><path d="M1819.023,1011.931a.653.653,0,0,1-.373-1.189l11.469-7.991a.653.653,0,0,1,.747,1.071l-11.47,7.991A.646.646,0,0,1,1819.023,1011.931Z" fill="#529ad9"/></g></svg>