<svg xmlns="http://www.w3.org/2000/svg" width="105.36" height="105.36" viewBox="0 0 105.36 105.36"><g transform="translate(-199.696 -4537.625)"><rect width="105.36" height="105.36" transform="translate(199.696 4537.625)" fill="#efebda"/><path d="M228.234,4554.322l1.431.746,3.941,5.03h-5.372Z" fill="#e3e0e1" fill-rule="evenodd" style="mix-blend-mode:multiply;isolation:isolate"/><path d="M227.073,4560.18l52.67-.083,25.313,29.461v53.427H242.037l-19.807-20.958V4619.7l4.843-.021Z" fill="#e3e0e1" fill-rule="evenodd" style="mix-blend-mode:multiply;isolation:isolate"/><rect width="2.354" height="58.726" transform="translate(227.073 4558.667)" fill="#5a5554"/><rect width="0.57" height="0.996" transform="translate(227.965 4557.671)" fill="#484342"/><rect width="8.576" height="2.312" transform="translate(223.962 4617.393)" fill="#5a5554"/><rect width="12.04" height="2.323" transform="translate(222.23 4619.705)" fill="#6d6b6a"/><rect width="1.172" height="58.726" transform="translate(227.073 4558.667)" fill="#6d6b6a"/><path d="M228.234,4557.816a1.747,1.747,0,1,0-1.741-1.742,1.746,1.746,0,0,0,1.741,1.742Z" fill="#6d6b6a" fill-rule="evenodd"/><path d="M229.323,4560.059V4593.7h50.212v-33.643Z" fill="#fff"/><circle cx="9.043" cy="9.043" r="9.043" transform="translate(245.386 4567.837)" fill="red"/></g></svg>