<svg xmlns="http://www.w3.org/2000/svg" width="348.63" height="227.985" viewBox="0 0 348.63 227.985"><g transform="translate(-184.655 -2990.406)"><g transform="translate(273.976 2990.406)"><g transform="translate(0.086)"><path d="M527.633,3081.478c-.858-1.938-1.052-4.084-1.619-6.118a4.054,4.054,0,0,0-1.841-2.741,16.476,16.476,0,0,0-2.2-.5c-2.589-.775-3.295-4.388-5.745-5.51a8.322,8.322,0,0,0-2.464-.512c-3.281-.387-6.673-1.522-8.735-4.1a16.022,16.022,0,0,0-2.021-2.491,2.419,2.419,0,0,0-2.963-.277c.692,1.384,1.371,2.769,2.049,4.139a10.893,10.893,0,0,0,2.3,3.447,3.708,3.708,0,0,0,3.862.831,2.556,2.556,0,0,1,1.3-.457,1.406,1.406,0,0,1,.844.54c1.785,1.979,1.2,5.26-.54,7.281s-4.305,3.06-6.783,4.042a5.254,5.254,0,0,1-2.768.54c-1.717-.319-2.63-2.187-3.129-3.862-1.121-3.71-1.661-7.738-3.959-10.866a13.616,13.616,0,0,1-2.09-3.032c-.471-1.246-.36-2.7-1.108-3.793-.775-1.149-2.423-1.814-2.533-3.2a2.525,2.525,0,0,1,1.619-2.242c.886-.429,1.883-.554,2.8-.927.36-.152.761-.415.775-.8,0-.582-.8-.817-1.011-1.357-.221-.609.4-1.177.665-1.772.568-1.357-.844-2.727-2.215-3.281s-3-.955-3.641-2.284a7.931,7.931,0,0,1-.443-1.979,4.33,4.33,0,0,0-3.239-3.571c-1.7-.277-3.586,1.231-3.308,2.92a12.008,12.008,0,0,0,1.232,2.506c.388.859.277,2.132-.609,2.409-1.454.442-2.852-2.215-4.07-1.3.5,1.7.983,3.406,1.481,5.122-1.911.969-4.194-.789-5.011-2.782s-.844-4.25-1.813-6.16-3.586-3.349-5.246-1.993c-.083,2.464,3.17,3.46,4.61,5.454,1.038,1.44.886,3.779-.651,4.693s-3.945-.678-3.364-2.353c.208-.582.692-1.066.748-1.689.055-.776-.6-1.4-1.191-1.9-.927-.789-1.855-1.564-2.782-2.34a5.847,5.847,0,0,0-1.98-1.246c-1.91-.553-3.82,1-4.831,2.7s-1.578,3.724-2.976,5.15c-2.007,2.076-5.814,2.2-7.7.028s-.928-6.243,1.855-7.032c1.052-.291,2.381-.263,2.935-1.191.969-1.647-1.8-3.751-.844-5.413.733-1.273,2.672-.692,4.083-1.121s2.188-1.841,3.018-3.06,2.1-2.422,3.544-2.1a4.434,4.434,0,0,1,.152-2.519,1.542,1.542,0,0,1,2.118-.775c-.706,1.163.138,2.782,1.371,3.364a7.476,7.476,0,0,0,4.028.291c1.356-.166,3.059-.665,3.17-2.021.042-.443-.124-.914.042-1.329.6-1.62,3.585.609,4.734-.692.664-.679-.069-1.883-1-2.1a10.154,10.154,0,0,0-2.81.139c-.942.041-2.091-.457-2.132-1.4s1-1.592,1.108-2.505c.18-1.55-2.45-1.952-3.378-.692s-.6,2.99-.318,4.527.429,3.35-.706,4.43c-.484.733-1.744.346-2.159-.429a6.242,6.242,0,0,1-.4-2.589,2.231,2.231,0,0,0-1.315-2.118,4.692,4.692,0,0,0-1.841.208c-2.409.291-4.084-2.824-3.323-5.122s2.935-3.793,5.053-4.97c1.55-.858,3.475-1.661,5.011-.789.72.4,1.219,1.094,1.924,1.509,1.218.72,2.727.457,4.125.484a9.6,9.6,0,0,1,6.021,2.339c.623.567,1.2,1.509.72,2.187-.526.72-2.035.872-1.772,1.717a3,3,0,0,0,3.765-2.423,2.52,2.52,0,0,1,1.454,2.049,4.481,4.481,0,0,1,6.575.54,5.671,5.671,0,0,0,1.218,1.564c.554.36,1.523.18,1.592-.471a1.321,1.321,0,0,0-.111-.609c-.332-.941-.678-1.868-1.01-2.8,1.288-.693,2.81.387,3.682,1.55,3.239,4.333,5.551,1.73,10.119,2.436,3.087.471,4.444,2.45,6.188,4.845,5.344,7.364,12.4,13.4,17.262,21.1.512.8.983,1.619,1.426,2.45-.083-.208-.152-.415-.236-.623a85.251,85.251,0,0,0-7.06-14.354q-.893-1.453-1.827-2.865c-.388-.581-.789-1.177-1.19-1.744-.512-.748-1.052-1.467-1.592-2.187-.429-.582-.858-1.149-1.3-1.7-.3-.387-.623-.776-.941-1.162-.332-.443-.692-.872-1.08-1.3l-1.163-1.343a5.192,5.192,0,0,0-.374-.415c-.4-.471-.831-.927-1.26-1.384a.4.4,0,0,0-.125-.138c-.11-.125-.235-.249-.36-.374-.346-.388-.72-.761-1.079-1.135-.6-.609-1.2-1.218-1.827-1.8-.512-.512-1.038-1-1.578-1.481-.471-.429-.942-.858-1.426-1.274s-.942-.817-1.426-1.218c-.581-.5-1.176-.983-1.786-1.468h-.014c-1.674-1.343-3.405-2.616-5.177-3.807-.443-.3-.872-.595-1.315-.885s-.9-.582-1.342-.859-.9-.568-1.357-.831c-.457-.291-.914-.553-1.371-.817-.374-.221-.733-.429-1.107-.623a5.876,5.876,0,0,0-.568-.319c-.789-.443-1.592-.872-2.395-1.273-.4-.208-.8-.415-1.218-.609-.512-.263-1.038-.512-1.564-.748a1.227,1.227,0,0,0-.236-.11c-.471-.222-.941-.443-1.426-.651-.678-.291-1.356-.581-2.035-.858-.775-.319-1.55-.637-2.34-.928-.872-.332-1.744-.651-2.63-.941s-1.785-.6-2.685-.872-1.8-.526-2.713-.775c-1.8-.485-3.627-.914-5.468-1.288-.028-.013-.069-.013-.1-.028-.706-.138-1.412-.276-2.118-.387a.627.627,0,0,0-.138-.027c-.3-.056-.623-.111-.942-.152-1.315-.221-2.644-.4-3.987-.553-.152-.028-.318-.042-.485-.056-.388-.055-.775-.083-1.177-.124-.885-.083-1.772-.153-2.671-.208-.927-.069-1.869-.11-2.81-.138-.983-.042-1.966-.055-2.949-.055-2.6,0-5.177.111-7.724.346-.609.041-1.2.1-1.8.166-.623.07-1.246.138-1.868.221s-1.246.166-1.855.263-1.232.194-1.855.3c-.526.083-1.066.18-1.592.291q-1.952.374-3.862.831-.893.208-1.786.456c-.6.153-1.19.319-1.772.485-.983.277-1.938.582-2.893.886h-.014c-.774.263-1.564.526-2.325.789a.106.106,0,0,0-.056.027c-.789.277-1.55.568-2.326.873l-.125.042c-.706.277-1.412.568-2.1.858-.872.36-1.73.748-2.575,1.135-.719.333-1.425.665-2.118,1.011-.748.374-1.495.747-2.229,1.135l-.083.042c-.706.374-1.412.762-2.1,1.163-.72.4-1.426.817-2.132,1.26h-.014c-.664.4-1.315.8-1.965,1.218-.249.152-.485.319-.734.484-.692.443-1.357.9-2.035,1.371-.831.568-1.634,1.163-2.436,1.758-.707.526-1.4,1.066-2.077,1.606a87.065,87.065,0,0,0-10.88,10.313c-1.177,1.3-2.284,2.63-3.364,3.986-.914,1.163-1.8,2.34-2.644,3.558q-1.142,1.589-2.2,3.235,1.061-1.646,2.2-3.235c.221-.028.443-.056.665-.07a10.22,10.22,0,0,0,3.682-.595,21.928,21.928,0,0,0,2.713-2.1c2.408-1.717,6.354-2.035,7-4.915.221-.969-.042-2.021.318-2.948.678-1.73,2.99-1.98,4.845-1.952.789,0,1.716.11,2.076.8a1.978,1.978,0,0,1-.083,1.606,15.048,15.048,0,0,1-6.354,7.807c-2.409,1.467-5.551,2.6-6.216,5.343.333.928,2.021.859,2.16,1.827.1.776-.9,1.177-1.26,1.869-.526,1.01.678,2.243,1.827,2.187a5.059,5.059,0,0,0,2.948-1.661c2.519-2.339,5.163-4.859,6.077-8.181.388-1.37.526-2.976,1.633-3.89a2.706,2.706,0,0,1,4.111,1.315c1.094-.609,2.8-1.065,3.364.07a5.8,5.8,0,0,1,.236,1.3c.36,1.772,2.782,2.574,3.031,4.36.291,2.063-2.353,3.128-4.416,3.447-1.869.291-3.737.581-5.606.886a5.181,5.181,0,0,0-2.326.747,1.815,1.815,0,0,0-.692,2.173,5.5,5.5,0,0,0,.969,1c1.55,1.55.277,4.748-1.91,4.818-.748.027-1.482-.249-2.229-.277-2.214-.1-3.973,1.855-5.025,3.807s-1.841,4.181-3.613,5.509c-2.852,2.146-7.766,1.648-9.15,4.942a7.9,7.9,0,0,0-.042,4.25,5.675,5.675,0,0,1-.513,4.167c-.816,1.163-2.948,1.412-3.557.111a3.2,3.2,0,0,1-.083-1.842c.332-2.048.65-4.1.969-6.146.235-1.523.443-3.226-.457-4.471-1.26-1.744-4.084-1.578-5.717-.18s-2.3,3.585-2.754,5.675a24.665,24.665,0,0,1-1.578,5.509h0c-.291,1.716-.526,3.46-.706,5.218-.18,1.8-.3,3.586-.373,5.413a7.645,7.645,0,0,0,.706-.664c.872-.9,2.63-4.707,4.208-2.838a1.412,1.412,0,0,1,.027,1.73c-.484.623-1.453.761-1.827,1.439-.457.8.18,1.8.927,2.326a8.071,8.071,0,0,1,2.187,1.633c1.01,1.454.042,3.655,1.025,5.136.844,1.273,2.644,1.356,4.18,1.522l.526.083c.429-3.045,1.855-5.524,6.008-6.464,5.731-1.3,13.262,3.447,16.487,7.766,3.6,4.831,5.3,11.669,10.812,14.092,3.945,1.731,9.551,1.108,11.475,4.97,1.717,3.461-1.273,7.35-1.73,11.185-.291,2.533.54,5.052.733,7.585s-.567,5.51-2.879,6.576c-1.287.581-2.907.512-3.945,1.481-1.841,1.744-.332,5.343-2.173,7.088a9.414,9.414,0,0,1-2.339,1.231c-4.139,2.091-4.028,8.182-2.1,12.4.069.153.138.291.208.443a87.458,87.458,0,0,0,44.864,12.39,87.058,87.058,0,0,0,41.044-10.216h.014a87.455,87.455,0,0,0,7.738-4.666,86.25,86.25,0,0,0,10.866-8.637,84.956,84.956,0,0,0,6.644-6.936c1.468-1.689,2.852-3.447,4.181-5.247.678-.927,1.343-1.855,1.966-2.81a85.889,85.889,0,0,0,10.881-22.383,85.035,85.035,0,0,0,3.336-14.826c.263-1.966.471-3.959.609-5.966a5.033,5.033,0,0,1-3.516,1.563C530.208,3085.174,528.478,3083.415,527.633,3081.478Z" transform="translate(-361.174 -2990.406)" fill="#efebda"/></g><g transform="translate(56.007 1.814)"><path d="M482.148,3015.063c-1.733,1.036-2.655,2.991-3.992,4.5s-3.735,2.592-5.313,1.333a3.655,3.655,0,0,1-1.187-2.574,6.6,6.6,0,0,1,.942-4.008c.753-1.228,1.9-2.194,2.541-3.486s.508-3.183-.8-3.789c-.707-.328-1.6-.2-2.224-.661-1.127-.831-.32-2.794.99-3.29s2.763-.111,4.161-.022c5.071.323,8.8-3,12.611-5.754,2.965-2.145,9.279-4.678,12.71-2.487,1.369.874,1.9,3.122.614,4.109-.577.442-1.373.54-1.911,1.03-.644.587-.735,1.551-1.1,2.341-.959,2.052-3.727,2.8-4.618,4.881-.536,1.253-.294,2.813-1.121,3.9a4.788,4.788,0,0,1-2.845,1.414l-6.612,1.572A9.93,9.93,0,0,0,482.148,3015.063Z" transform="translate(-471.58 -2993.987)" fill="#e5dec1"/></g><g transform="translate(70.931 56.551)"><path d="M555.8,3176.066c-2.194,3.306-2.592,7.436-3.2,11.356s-1.654,8.086-4.666,10.667-8.545,2.428-10.2-1.175c-.9-1.956-.438-4.264-.929-6.36-.64-2.731-2.814-4.84-3.846-7.448a20.793,20.793,0,0,1-.954-7.076c-.393-13.071-3.58-26.714-12.48-36.3a8.63,8.63,0,0,0-3.887-2.736,4.965,4.965,0,0,0-5.107,1.762c-.715.945-1.083,2.153-1.958,2.952-1.9,1.736-5.223.492-6.493-1.748s-1.094-4.986-.882-7.553q.4-4.774.791-9.547c.138-1.664.325-3.451,1.417-4.715,1.553-1.8,4.34-1.88,6.241-3.3,2.492-1.867,2.824-5.428,4.4-8.115s6.49-3.825,7.217-.8c5.2-11.135,16.7,5.407,23.536,4.164,1.985-.361,3.925-1.315,5.923-1.036,3.529.494,5.351,4.382,6.552,7.737q2.99,8.353,5.979,16.706c.759,2.121,1.74,4.479,3.841,5.294,1.61.624,3.481.148,5.1.739,4.289,1.561,2.9,8.312-.557,11.3s-8.3,4.872-9.939,9.131c-1.236,3.209-.25,6.97-1.581,10.141C559.162,3172.376,557.16,3174.016,555.8,3176.066Z" transform="translate(-501.046 -3102.057)" fill="#e5dec1"/></g><g transform="translate(130.675 122.52)"><path d="M630.3,3243.971c-1.41.2-3.073-.5-4.145.439a4.608,4.608,0,0,0-1.012,2.237,4.771,4.771,0,0,1-2,2.728,3,3,0,0,1-3.26-.059,2.206,2.206,0,0,1-.448-3.054,15.357,15.357,0,0,1,1.217-.994c1.871-1.769.59-5.048,2.013-7.15.839-1.24,2.159-2.5,3.081-3.754.709-.966.968-1.732,2.272-1.988C633.717,3231.254,636.294,3243.132,630.3,3243.971Z" transform="translate(-619 -3232.302)" fill="#efebda"/></g><g transform="translate(38.772 160.107)" opacity="0.6"><path d="M437.552,3306.512q1.1.745,2.234,1.452c.526.333,1.052.65,1.592.969-.54-.319-1.066-.636-1.592-.969Q438.654,3307.258,437.552,3306.512Z" transform="translate(-437.552 -3306.512)" fill="#efebda"/></g><g transform="translate(0.03 83.804)" opacity="0.6"><path d="M361.12,3155.878v-.014h0v.014c-.014.166-.028.318-.028.484-.021.519-.019,1.051-.028,1.578.009-.528.007-1.059.028-1.578C361.092,3156.2,361.105,3156.044,361.12,3155.878Z" transform="translate(-361.064 -3155.864)" fill="#efebda"/></g><g transform="translate(0 18.048)"><g transform="translate(0.045 71.972)"><path d="M372.47,3188.567c-.277-2.506.554-5.011.6-7.545.028-1.744-.1-3.585-.125-5.343a24.094,24.094,0,0,1-4.444-.623,1.332,1.332,0,0,1-.816-.416,1.624,1.624,0,0,1-.18-.927c-.11-1.965-2.007-3.267-3.71-4.249a14.756,14.756,0,0,0-2.7-1.329c0,.208,0,.4.014.609a87.169,87.169,0,0,0,5.564,27.755,83.815,83.815,0,0,0,5.344,11.462c.859,1.592,1.8,3.156,2.783,4.693,1.218,1.9,2.491,3.752,3.862,5.537,1.273,1.717,2.63,3.392,4.056,5a86.528,86.528,0,0,0,6.187,6.368q2.886,2.7,6.022,5.122c-4.776-12.818-9.275-25.9-17.442-36.808C375.336,3195.017,372.872,3192.11,372.47,3188.567Z" transform="translate(-361.092 -3168.135)" fill="#e5dec1"/></g><g transform="translate(0 61.744)"><path d="M373.05,3162.323c-.18-.027-.346-.055-.526-.083-1.537-.166-3.336-.249-4.18-1.523-.983-1.481-.014-3.682-1.025-5.136a8.079,8.079,0,0,0-2.187-1.633c-.748-.526-1.384-1.523-.927-2.326.373-.678,1.343-.816,1.827-1.439a1.412,1.412,0,0,0-.027-1.73c-1.578-1.869-3.336,1.938-4.208,2.838a7.662,7.662,0,0,1-.706.665v.014c-.014.166-.028.318-.028.484-.021.519-.019,1.05-.028,1.578s-.027,1.052-.027,1.578c0,.429-.007.407,0,.834s.027,1.3.042,1.727a14.772,14.772,0,0,1,2.7,1.329c1.7.982,3.6,2.284,3.71,4.25a1.624,1.624,0,0,0,.18.927,1.328,1.328,0,0,0,.816.415,24.052,24.052,0,0,0,4.444.623" transform="translate(-361.004 -3147.943)" fill="#e5dec1"/></g><g transform="translate(11.367 69.441)"><path d="M383.973,3173.214c.028,1.758.152,3.6.125,5.343-.042,2.534-.872,5.039-.6,7.545.4,3.543,2.866,6.45,5.011,9.3,8.167,10.908,12.666,23.99,17.442,36.808h.014c.886.706,1.786,1.371,2.7,2.021q1.08.778,2.182,1.525t2.234,1.452c.526.332,1.052.65,1.592.969-.069-.152-.139-.291-.208-.443-1.924-4.222-2.035-10.312,2.1-12.4a9.431,9.431,0,0,0,2.34-1.231c1.841-1.745.332-5.344,2.173-7.088,1.038-.969,2.658-.9,3.945-1.481,2.312-1.066,3.059-4.029,2.879-6.576s-1.025-5.052-.734-7.585c.457-3.834,3.447-7.724,1.73-11.185-1.924-3.862-7.53-3.239-11.475-4.969-5.51-2.423-7.213-9.26-10.812-14.092-3.225-4.319-10.755-9.067-16.487-7.766-4.153.941-5.579,3.419-6.008,6.464" transform="translate(-383.445 -3163.139)" fill="#e5dec1"/></g><g transform="translate(1.166 6.244)"><path d="M367.638,3076.063c1.633-1.4,4.458-1.565,5.717.18.9,1.246.692,2.948.457,4.471-.319,2.049-.637,4.1-.969,6.146a3.2,3.2,0,0,0,.083,1.842c.609,1.3,2.741,1.052,3.557-.111a5.675,5.675,0,0,0,.513-4.167,7.9,7.9,0,0,1,.042-4.25c1.384-3.294,6.3-2.8,9.15-4.942,1.772-1.329,2.561-3.558,3.613-5.509s2.811-3.9,5.025-3.807c.748.028,1.482.3,2.229.277,2.187-.069,3.46-3.267,1.91-4.818a5.515,5.515,0,0,1-.969-1,1.815,1.815,0,0,1,.692-2.174,5.181,5.181,0,0,1,2.326-.748c1.869-.3,3.737-.6,5.606-.886,2.063-.318,4.706-1.384,4.416-3.447-.249-1.786-2.672-2.589-3.031-4.36a5.8,5.8,0,0,0-.236-1.3c-.567-1.135-2.27-.678-3.364-.07a2.706,2.706,0,0,0-4.111-1.315c-1.108.914-1.246,2.52-1.633,3.89-.914,3.323-3.558,5.842-6.077,8.181a5.058,5.058,0,0,1-2.948,1.661c-1.149.056-2.354-1.177-1.827-2.187.36-.692,1.356-1.094,1.26-1.869-.139-.969-1.827-.9-2.16-1.827.665-2.741,3.807-3.876,6.216-5.344a15.046,15.046,0,0,0,6.354-7.807,1.978,1.978,0,0,0,.083-1.606c-.36-.692-1.287-.8-2.076-.8-1.855-.028-4.167.221-4.845,1.951-.36.927-.1,1.979-.318,2.948-.651,2.88-4.6,3.2-7,4.915a21.952,21.952,0,0,1-2.713,2.1,10.231,10.231,0,0,1-3.682.6c-.221.013-.443.042-.665.069q-1.142,1.589-2.2,3.236t-2.047,3.339a86.567,86.567,0,0,0-7.586,16.917q-1.017,3.1-1.8,6.308t-1.319,6.5a24.662,24.662,0,0,0,1.578-5.509C365.34,3079.648,366.018,3077.461,367.638,3076.063Z" transform="translate(-363.305 -3038.367)" fill="#e5dec1"/></g><g transform="translate(83.267)"><path d="M616.874,3101.208s-2.2,1.606-3.516,1.578c-2.1-.027-3.834-1.785-4.679-3.723s-1.052-4.084-1.619-6.118a4.055,4.055,0,0,0-1.841-2.741,16.552,16.552,0,0,0-2.2-.5c-2.589-.775-3.295-4.388-5.745-5.509a8.315,8.315,0,0,0-2.464-.512c-3.281-.387-6.673-1.522-8.735-4.1a16.045,16.045,0,0,0-2.021-2.491,2.419,2.419,0,0,0-2.963-.277c.692,1.384,1.371,2.769,2.049,4.139a10.894,10.894,0,0,0,2.3,3.447,3.709,3.709,0,0,0,3.862.831,2.552,2.552,0,0,1,1.3-.457,1.4,1.4,0,0,1,.844.54c1.785,1.979,1.2,5.26-.54,7.282s-4.305,3.059-6.783,4.042a5.258,5.258,0,0,1-2.768.54c-1.717-.319-2.63-2.187-3.129-3.862-1.121-3.71-1.661-7.739-3.959-10.867a13.614,13.614,0,0,1-2.09-3.031c-.471-1.246-.36-2.7-1.108-3.793-.775-1.149-2.423-1.813-2.533-3.2a2.526,2.526,0,0,1,1.619-2.242c.886-.429,1.883-.554,2.8-.927.36-.153.761-.415.775-.8,0-.582-.8-.817-1.011-1.357-.221-.609.4-1.177.665-1.772.568-1.356-.844-2.727-2.215-3.281s-3-.955-3.641-2.284a7.93,7.93,0,0,1-.443-1.98,4.331,4.331,0,0,0-3.239-3.571c-1.7-.277-3.586,1.232-3.308,2.921a12,12,0,0,0,1.232,2.505c.388.858.277,2.132-.609,2.409-1.454.443-2.852-2.215-4.07-1.3.5,1.7.983,3.406,1.481,5.122-1.911.969-4.194-.789-5.011-2.782s-.844-4.25-1.813-6.16-3.586-3.35-5.246-1.993c-.083,2.464,3.17,3.46,4.61,5.454,1.038,1.439.886,3.779-.651,4.693s-3.945-.678-3.364-2.354c.208-.581.692-1.066.748-1.688.055-.775-.6-1.4-1.191-1.9-.927-.789-1.855-1.564-2.782-2.339a5.848,5.848,0,0,0-1.98-1.246c-1.91-.553-3.82,1-4.831,2.7s-1.578,3.724-2.976,5.15c-2.007,2.077-5.814,2.2-7.7.028s-.928-6.243,1.855-7.032c1.052-.291,2.381-.263,2.935-1.191.969-1.647-1.8-3.751-.844-5.412.733-1.273,2.672-.692,4.083-1.121s2.188-1.841,3.018-3.059,2.1-2.423,3.544-2.1a4.434,4.434,0,0,1,.152-2.519,1.542,1.542,0,0,1,2.118-.775c-.706,1.163.138,2.782,1.371,3.364a7.476,7.476,0,0,0,4.028.291c1.356-.166,3.059-.664,3.17-2.021.042-.443-.124-.914.042-1.329.6-1.62,3.585.609,4.734-.692.664-.679-.069-1.883-1-2.1a10.135,10.135,0,0,0-2.81.138c-.942.041-2.091-.457-2.132-1.4s1-1.592,1.108-2.505c.18-1.55-2.45-1.952-3.378-.692s-.6,2.99-.318,4.527.429,3.35-.706,4.43c-.484.733-1.744.346-2.159-.429a6.239,6.239,0,0,1-.4-2.589,2.23,2.23,0,0,0-1.315-2.118,4.688,4.688,0,0,0-1.841.208c-2.409.291-4.084-2.824-3.323-5.122s2.935-3.793,5.053-4.97c1.55-.858,3.475-1.661,5.011-.789.72.4,1.219,1.094,1.924,1.509,1.218.72,2.727.456,4.125.484a9.609,9.609,0,0,1,6.021,2.34c.623.567,1.2,1.509.72,2.187-.526.72-2.035.872-1.772,1.716a3,3,0,0,0,3.765-2.422,2.519,2.519,0,0,1,1.454,2.049,4.481,4.481,0,0,1,6.575.54,5.669,5.669,0,0,0,1.218,1.564c.554.36,1.523.18,1.592-.471a1.32,1.32,0,0,0-.111-.609c-.332-.941-.678-1.869-1.01-2.8,1.288-.692,2.81.387,3.682,1.55,3.239,4.333,5.551,1.73,10.119,2.437,3.087.47,4.444,2.45,6.188,4.845,5.344,7.364,12.4,13.4,17.262,21.1.512.8.983,1.619,1.426,2.45h0v.014q.623,1.66,1.175,3.344t1.04,3.4a76.436,76.436,0,0,1,2.1,8.586s.608,4.946.754,6.558c.112,1.233.222,2.468.289,3.709s.105,2.492.112,3.752Z" transform="translate(-525.4 -3026.039)" fill="#e5dec1"/></g></g></g><g transform="translate(190.107 3052.042)"><g transform="translate(0)"><path d="M239.476,3122.635c.337-2.447-3.117-4.46-5.711-4.669a14.72,14.72,0,0,1-3.7-.319c-2.54-.885-3.555-4.167-6.033-5.212-1.853-.781-3.986-.085-5.783.819s-3.572,2.042-5.579,2.169c-1.745.112-3.641-.535-5.168.318-1.139.635-1.734,1.947-2.784,2.72a6.636,6.636,0,0,1-3.638.986,10.255,10.255,0,0,0-3.751.613,2.964,2.964,0,0,0-1.878,3.009Z" transform="translate(-195.418 -3112.096)" fill="#efebda"/></g></g><g transform="translate(241.934 3002.967)"><path d="M341.8,3025.745c.337-2.447-3.117-4.46-5.712-4.669a14.7,14.7,0,0,1-3.7-.319c-2.54-.885-3.555-4.167-6.033-5.212-1.853-.781-3.986-.086-5.783.818s-3.571,2.042-5.578,2.17c-1.746.111-3.642-.536-5.169.317-1.138.635-1.734,1.946-2.783,2.72a6.64,6.64,0,0,1-3.638.987,10.237,10.237,0,0,0-3.751.613,2.965,2.965,0,0,0-1.878,3.009Z" transform="translate(-297.743 -3015.206)" fill="#efebda"/></g><g transform="translate(459.468 3034.373)"><path d="M798.025,3094.146c.541-3.932-5.008-7.167-9.178-7.5-1.989-.16-4.054.143-5.938-.513-4.082-1.423-5.712-6.7-9.695-8.376-2.977-1.256-6.405-.138-9.292,1.315s-5.74,3.281-8.965,3.487c-2.805.18-5.851-.86-8.306.51-1.829,1.021-2.787,3.129-4.472,4.372a10.664,10.664,0,0,1-5.846,1.585,16.472,16.472,0,0,0-6.028.986c-1.863.853-3.4,2.823-3.018,4.835Z" transform="translate(-727.228 -3077.211)" fill="#efebda"/></g><g transform="translate(456.332 3005.37)"><path d="M742.555,3027.976a6.688,6.688,0,0,0-1.119-3.86,6.427,6.427,0,0,0-2.981-2.567,5.188,5.188,0,0,0-6.062,1.73,5.181,5.181,0,0,0-5.137-3.323,6.426,6.426,0,0,0-3.635,1.505,6.688,6.688,0,0,0-2.271,3.315,8.141,8.141,0,0,0,.206,5.105,11.519,11.519,0,0,0,3.329,4.3c2.312,1.953,5.372,4.425,5.372,4.425s3.191-1.673,6-2.8a11.524,11.524,0,0,0,4.507-3.042A8.139,8.139,0,0,0,742.555,3027.976Z" transform="translate(-721.037 -3019.949)" fill="#efebda"/></g><g transform="translate(233.921 3030.278)"><path d="M296.984,3071.525a5.135,5.135,0,0,0-2.384-1.96,4.935,4.935,0,0,0-3-.333,3.983,3.983,0,0,0-3.091,3.726,3.98,3.98,0,0,0-4.7.123,4.935,4.935,0,0,0-1.651,2.531,5.141,5.141,0,0,0,0,3.086,6.251,6.251,0,0,0,2.345,3.146,8.849,8.849,0,0,0,3.974,1.281c2.313.234,5.324.472,5.324.472s1.3-2.444,2.584-4.379a8.837,8.837,0,0,0,1.536-3.883A6.247,6.247,0,0,0,296.984,3071.525Z" transform="translate(-281.922 -3069.127)" fill="#efebda"/></g><g transform="translate(184.655 3217.939)"><path d="M533.285,3439.765c0,.073-78.05.132-174.307.132-96.29,0-174.323-.059-174.323-.132s78.033-.132,174.323-.132C455.235,3439.633,533.285,3439.692,533.285,3439.765Z" transform="translate(-184.655 -3439.633)" fill="#1a2e35"/></g><g transform="translate(349.704 3008.132)"><g transform="translate(0 0)"><g transform="translate(0.152 0.183)"><path d="M531.3,3060.128a17.348,17.348,0,1,0-5.182.169l2.984,4.526Z" transform="translate(-510.816 -3025.764)" fill="#fff"/></g><path d="M531.153,3059.95s-.04.114-.131.322l-.407.916-1.589,3.49-.057.125-.077-.115-3.009-4.51.077.048a17.325,17.325,0,0,1-8.259-3.2,17.555,17.555,0,0,1-1.977-1.67,19.567,19.567,0,0,1-1.769-2.059,16.857,16.857,0,0,1-2.635-5.123,17.49,17.49,0,0,1,10.856-21.756,17.237,17.237,0,0,1,11.417-.075,16.431,16.431,0,0,1,4.871,2.565,16.941,16.941,0,0,1,3.7,3.765l.383.519c.118.179.221.366.332.549.213.369.446.724.637,1.1a18.122,18.122,0,0,1,.97,2.287,18.84,18.84,0,0,1,.651,2.323c.069.39.118.78.177,1.165l.083.576.029.576a17.466,17.466,0,0,1-5.594,13.953,17.384,17.384,0,0,1-4.385,2.929,16.672,16.672,0,0,1-3.15,1.094c-.373.087-.654.144-.845.172a2.244,2.244,0,0,1-.3.042,1.833,1.833,0,0,1,.281-.076c.193-.043.479-.112.843-.21a17.9,17.9,0,0,0,3.106-1.152,17.488,17.488,0,0,0,4.306-2.951,17.06,17.06,0,0,0,5.427-13.781l-.03-.566-.084-.566c-.06-.378-.109-.761-.178-1.144a18.584,18.584,0,0,0-.648-2.277,17.757,17.757,0,0,0-.959-2.24c-.189-.366-.419-.713-.629-1.074-.109-.178-.211-.362-.326-.537l-.378-.508a16.648,16.648,0,0,0-3.634-3.682,16.126,16.126,0,0,0-4.775-2.5,16.9,16.9,0,0,0-11.177.081,17.17,17.17,0,0,0-10.666,21.308,16.587,16.587,0,0,0,2.568,5.039,19.423,19.423,0,0,0,1.729,2.032,17.257,17.257,0,0,0,10.055,4.87l.05.006.027.042,2.958,4.542-.134.01,1.673-3.482.437-.889A2.134,2.134,0,0,1,531.153,3059.95Z" transform="translate(-510.517 -3025.403)" fill="#1a2e35"/></g><g transform="translate(10.595 11.666)"><path d="M545.186,3052.416a4.276,4.276,0,0,0-1-2.363,4.1,4.1,0,0,0-2.084-1.4,3.311,3.311,0,0,0-3.714,1.554,3.309,3.309,0,0,0-3.508-1.719,4.1,4.1,0,0,0-2.191,1.228,4.272,4.272,0,0,0-1.19,2.273,5.2,5.2,0,0,0,.516,3.221,7.351,7.351,0,0,0,2.435,2.476c1.614,1.064,3.741,2.4,3.741,2.4s1.9-1.3,3.592-2.231a7.353,7.353,0,0,0,2.628-2.268A5.2,5.2,0,0,0,545.186,3052.416Z" transform="translate(-531.434 -3048.436)" fill="#a0a603"/></g></g><g transform="translate(276.41 3039.095)"><path d="M383.664,3416.616l2.837-20.879,60.569-2.888,4.264,23.828Z" transform="translate(-374.621 -3237.701)" fill="#1a2e35"/><path d="M495.707,3262.948l18.172,20.163c3,3.328,5.164,6.357,9.475,7.575,3.019.852,9.379,1.2,10.985-.779,2.2-2.721,3.569-7.426.485-13.344-2.008-3.852-19.638-19.594-19.638-19.594l-19.479,5.979" transform="translate(-429.914 -3170.644)" fill="#d97560"/><path d="M507.523,3251.335c.1,1,4.856,10.909,4.856,10.909l15.6-10.177s-10.042-23.857-17.376-25.46Z" transform="translate(-435.745 -3155.661)" fill="#75aee1"/><g transform="translate(77.434 37.053)"><path d="M539.746,3190.5l.22-7.58-.505-9.656-1.534-8.03s-.4-.788-1.416-.192-.136,4.977-.136,4.977l.157,3.295s-.594,2.543-.784,2.329-.827-4.662-.827-4.662l-1.84-9.552a1.269,1.269,0,0,0-1.612-.66c-.651.205-1.077,1.153-1,2.57s.7,3.8.763,4.609.595,5.449.595,5.449l-3.225-10.684s-.6-3.476-2.046-2.976-.481,2.993-.416,4.072,2.162,8.351,1.986,10.379-.5,1.014-.5,1.014l-1.5-5.986c-.661-2.639-1.66-4.167-2.8-4.36s.39,5.922.39,5.922l1.937,8.545-.481,2.72-1.9-2.448s-.056-3.207-2.06-4.544c-2.036-1.359-2.521.166-2.521.166l3.735,12.413c.884,2.029,6.607,5.975,6.607,5.975l1.022,12.446,12.716-.253Z" transform="translate(-518.69 -3159.691)" fill="#d97560"/><g transform="translate(4.573 19.906)"><path d="M539.74,3205.417a13.568,13.568,0,0,1-1.7-1.425,6.966,6.966,0,0,0-4.652-1.922,3.734,3.734,0,0,0-2.3.836l-.212.185-.185-.244c-.815-1.076-1.69-2.013-2.21-2.689-.547-.674-.816-1.127-.757-1.164a7.2,7.2,0,0,1,1,.95,35.347,35.347,0,0,1,2.417,2.627l-.4-.06a4.123,4.123,0,0,1,2.622-1,5.722,5.722,0,0,1,2.97.715,9.109,9.109,0,0,1,1.971,1.473A6.509,6.509,0,0,1,539.74,3205.417Z" transform="translate(-527.719 -3198.991)" fill="#8e4132"/></g><path d="M542.319,3265.059l-2.7-38.729,10.767-3.375,7.817,42.1Z" transform="translate(-529.02 -3190.911)" fill="#d97560"/></g><g transform="translate(28.012 0)"><g transform="translate(17.485)"><path d="M477.546,3109.249a4.356,4.356,0,0,0,2.33-8.348,4.531,4.531,0,0,0-3.5-7.856,5.423,5.423,0,0,0-7.907-4.908,6.1,6.1,0,0,0-7.487-.584,4.337,4.337,0,0,0-4.247,7.124" transform="translate(-455.637 -3086.535)" fill="#1a2e35"/></g><g transform="translate(0 1.89)"><g transform="translate(0 2.204)"><g transform="translate(4.218 1.16)"><path d="M465.165,3138.647c.341-4.78.243-14.678.05-23.635a18.481,18.481,0,0,0-17.391-18.047l-.955-.057c-10.337-.006-16.117,8.771-15.837,19.1l-1.589,39.8,6.243,5.639a11.782,11.782,0,0,0,18.3-3.2h0l.482-8.746S464.459,3148.541,465.165,3138.647Z" transform="translate(-429.443 -3096.908)" fill="#d97560"/></g><g transform="translate(16.573 49.177)"><path d="M466.586,3196.273a24.058,24.058,0,0,1-12.75-4.562s2.631,7.305,12.563,7Z" transform="translate(-453.836 -3191.711)" fill="#8e4132"/></g><g transform="translate(32.784 26.257)"><path d="M488.672,3147.82a1.416,1.416,0,0,1-1.448,1.346,1.353,1.353,0,0,1-1.382-1.36,1.416,1.416,0,0,1,1.446-1.347A1.356,1.356,0,0,1,488.672,3147.82Z" transform="translate(-485.842 -3146.459)" fill="#1a2e35"/></g><g transform="translate(31.992 22.33)"><path d="M489.862,3140.36c-.186.174-1.21-.682-2.732-.768-1.519-.107-2.682.61-2.836.414-.076-.087.122-.41.629-.735a3.886,3.886,0,0,1,2.284-.559,3.735,3.735,0,0,1,2.161.841C489.815,3139.94,489.953,3140.283,489.862,3140.36Z" transform="translate(-484.278 -3138.705)" fill="#1a2e35"/></g><g transform="translate(18.818 26.257)"><path d="M461.1,3147.821a1.415,1.415,0,0,1-1.447,1.346,1.354,1.354,0,0,1-1.383-1.361,1.417,1.417,0,0,1,1.447-1.347A1.355,1.355,0,0,1,461.1,3147.821Z" transform="translate(-458.268 -3146.459)" fill="#1a2e35"/></g><g transform="translate(17.018 21.731)"><path d="M460.3,3139.179c-.186.174-1.212-.681-2.733-.767-1.518-.107-2.681.609-2.835.413-.076-.087.12-.41.63-.735a3.884,3.884,0,0,1,2.283-.559,3.728,3.728,0,0,1,2.161.841C460.25,3138.759,460.39,3139.1,460.3,3139.179Z" transform="translate(-454.714 -3137.524)" fill="#1a2e35"/></g><g transform="translate(27.459 22.278)"><path d="M475.329,3151.322a10.042,10.042,0,0,1,2.5-.3c.391-.017.763-.073.844-.334a1.983,1.983,0,0,0-.191-1.167l-.975-3.027c-1.347-4.306-2.3-7.838-2.124-7.891s1.407,3.4,2.754,7.7q.484,1.592.925,3.041a2.253,2.253,0,0,1,.112,1.537.977.977,0,0,1-.672.531,2.647,2.647,0,0,1-.666.053A9.95,9.95,0,0,1,475.329,3151.322Z" transform="translate(-475.329 -3138.603)" fill="#1a2e35"/></g><g transform="translate(22.619 35.785)"><path d="M466.073,3165.271c.248,0,.154,1.652,1.5,2.907s3.113,1.178,3.112,1.409c.017.105-.411.3-1.155.275a4.124,4.124,0,0,1-2.6-1.083,3.591,3.591,0,0,1-1.15-2.432C465.752,3165.653,465.96,3165.255,466.073,3165.271Z" transform="translate(-465.773 -3165.271)" fill="#1a2e35"/></g><g transform="translate(16.363 16.123)"><path d="M460.405,3127.774c-.174.405-1.682.12-3.48.229-1.8.074-3.27.512-3.486.127-.095-.184.179-.558.785-.925a6.063,6.063,0,0,1,5.307-.271C460.171,3127.238,460.482,3127.583,460.405,3127.774Z" transform="translate(-453.422 -3126.45)" fill="#1a2e35"/></g><g transform="translate(32.111 17.81)"><path d="M489.679,3131.521c-.288.33-1.315-.091-2.575-.182-1.256-.135-2.342.1-2.565-.281-.1-.182.091-.518.576-.818a3.738,3.738,0,0,1,4.142.373C489.681,3130.994,489.807,3131.359,489.679,3131.521Z" transform="translate(-484.514 -3129.781)" fill="#1a2e35"/></g><g transform="translate(3.412)"><path d="M463.746,3109.288s-2.246-6.355-5.151-7.978c-3.517-1.965-5.309,1.916-8.7.749s-6.749-3.052-10.432-.594c-4.031,2.691-2.344,4.845-2.841,9.225-2.017,17.755-5.567,22.6-6,14.156-.047-.925-2.555-1.807-2.7-5.713-.193-5.064-.026-11.191,1.309-14.7,1.125-2.956,2.965-4.936,6.18-7.049,5.075-3.335,11.758-3.019,16.266-2.3S464.617,3101.548,463.746,3109.288Z" transform="translate(-427.853 -3094.618)" fill="#1a2e35"/></g><g transform="translate(0 27.232)"><path d="M427.946,3151.145a2.692,2.692,0,0,0-2.749-2.761c-1.857.066-3.974.994-4.077,4.817-.183,6.782,6.664,5.567,6.681,5.373C427.812,3158.442,427.894,3153.984,427.946,3151.145Z" transform="translate(-421.116 -3148.383)" fill="#d97560"/></g><g transform="translate(2.317 29.431)"><path d="M428.651,3158.125c-.029-.022-.121.08-.323.166a1.182,1.182,0,0,1-.883-.006,2.922,2.922,0,0,1-1.282-2.659,3.9,3.9,0,0,1,.376-1.683,1.365,1.365,0,0,1,.913-.883.6.6,0,0,1,.689.343c.086.192.039.326.074.339.019.018.149-.11.1-.391a.755.755,0,0,0-.255-.432.892.892,0,0,0-.649-.19,1.662,1.662,0,0,0-1.262,1.018,4.008,4.008,0,0,0-.461,1.879,3.068,3.068,0,0,0,1.645,2.976,1.267,1.267,0,0,0,1.085-.15C428.634,3158.289,428.674,3158.139,428.651,3158.125Z" transform="translate(-425.69 -3152.725)" fill="#8e4132"/></g></g><g transform="translate(1.5)"><path d="M430.313,3109.357a6.445,6.445,0,0,0,2.789,1.493,2.212,2.212,0,0,0,2.541-1.409c.108-.466.025-1.02.357-1.366.4-.413,1.069-.237,1.633-.143a4.328,4.328,0,0,0,4.667-2.833,1.817,1.817,0,0,0,2.42.373,9.729,9.729,0,0,0,1.96-1.863,2.789,2.789,0,0,1,2.392-1.025,6.717,6.717,0,0,0,1.453.411c.893-.027,1.389-1.042,1.576-1.916s.352-1.9,1.133-2.333a3.546,3.546,0,0,1,2.424.076c.811.169,1.879.039,2.136-.749a1.612,1.612,0,0,0-.231-1.246,4.392,4.392,0,0,0-5.078-1.965,5.952,5.952,0,0,0-10.85-1.8,6.041,6.041,0,0,0-9.77,1.63,4.379,4.379,0,0,0-5.3,6.068,4.16,4.16,0,0,0-2.479,3.171c-.108,1.4,1.175,2.876,2.549,2.587a2.425,2.425,0,0,0,4.044,2.662" transform="translate(-424.076 -3090.267)" fill="#1a2e35"/></g><g transform="translate(2.022 6.617)"><path d="M453.38,3103.331a.366.366,0,0,1-.009.124c-.014.081-.026.2-.064.359a4.279,4.279,0,0,1-.568,1.275,4.848,4.848,0,0,1-1.6,1.512,4.515,4.515,0,0,1-2.819.627l.124-.144a2.455,2.455,0,0,1-.246,1.861,7,7,0,0,1-1.257,1.6,5.093,5.093,0,0,1-.8.732,2.373,2.373,0,0,1-1.1.335,2.478,2.478,0,0,1-2.133-.909l.257-.058a5.085,5.085,0,0,1-2.36,3.386,3.712,3.712,0,0,1-2.266.6,6.7,6.7,0,0,1-2.162-.61l.185-.069a5.342,5.342,0,0,1-1.725,2,2.845,2.845,0,0,1-2.4.5,3.735,3.735,0,0,1-2.7-3.087l.149.08a3.491,3.491,0,0,1-2.346.2,3.79,3.79,0,0,1-1.58-.819,3.3,3.3,0,0,1-.708-.872,1.635,1.635,0,0,1-.151-.361,4.079,4.079,0,0,0,.932,1.146,3.768,3.768,0,0,0,1.544.746,3.347,3.347,0,0,0,2.216-.23l.131-.065.018.145a3.525,3.525,0,0,0,2.558,2.864,2.583,2.583,0,0,0,2.176-.481,5.093,5.093,0,0,0,1.622-1.894l.061-.122.125.053a6.462,6.462,0,0,0,2.068.582,3.424,3.424,0,0,0,2.093-.557,4.811,4.811,0,0,0,2.232-3.19l.061-.318.2.26a2.2,2.2,0,0,0,1.884.8,2.1,2.1,0,0,0,.971-.289,4.968,4.968,0,0,0,.757-.686,6.859,6.859,0,0,0,1.227-1.526,2.225,2.225,0,0,0,.247-1.683l-.046-.165.169.021a4.353,4.353,0,0,0,2.7-.56,4.818,4.818,0,0,0,1.581-1.426A5.253,5.253,0,0,0,453.38,3103.331Z" transform="translate(-425.108 -3103.33)" fill="#375a64"/></g></g></g><g transform="translate(10.516 61.497)"><path d="M448.99,3252.005l.715-7.214,2.486-26.441c-1.277-1.346-6.423-3.458-6.423-3.458l-12.776-4.593s-1.224,3.507-10.821,3.649c-9.816.146-13.884-6-13.884-6-4.905,1.579-15.615,5.645-15.615,5.645l-3.654,34.4-.185,11.356-2.259,57.834s64.321-2.732,65.286-2.9l-2.605-20.825Z" transform="translate(-386.573 -3207.952)" fill="#75aee1"/><path d="M473.359,3261.409v13.535l7.365,6.009L488.4,3275l.423-13.212Z" transform="translate(-429.402 -3234.333)" opacity="0.3"/></g><path d="M389.063,3339.99l-.188,4.808s40.632-7.365,47.733-10.226a90.207,90.207,0,0,0,13.466-6.525l.147-3.668Z" transform="translate(-377.193 -3203.911)" opacity="0.3"/><path d="M381.671,3224.807s-9.162,1.463-11.049,13.144c-1.217,7.532-4.9,40.706.137,49.62,5.826,10.314,58.428-6.988,58.428-6.988l1.8-13.349-40.535,2.681-5.09-28.134Z" transform="translate(-366.98 -3154.772)" fill="#d97560"/><path d="M365.81,3260.513H391.5l-7.028-42.847s-14.724,2.983-16.652,18.366A232.465,232.465,0,0,0,365.81,3260.513Z" transform="translate(-365.81 -3151.249)" fill="#75aee1"/><g transform="translate(3.231 84.784)"><path d="M372.189,3278.408a.374.374,0,0,1,.115-.013l.337-.012,1.3-.024,4.788-.042,15.919-.04-.131.143c-.028-.333-.059-.691-.09-1.051-.539-6.463-1.027-12.311-1.383-16.572-.163-2.1-.3-3.814-.389-5.024q-.058-.865-.092-1.367c-.007-.144-.013-.26-.018-.356a.422.422,0,0,1,0-.122.414.414,0,0,1,.024.12l.044.354q.052.5.142,1.363c.114,1.207.275,2.916.473,5.017l1.46,16.565c.031.36.061.719.09,1.052l.012.143h-.144l-15.919-.041-4.788-.042-1.3-.024-.337-.013A.4.4,0,0,1,372.189,3278.408Z" transform="translate(-372.189 -3253.927)" fill="#1a2e35"/></g><g transform="translate(72.874 83.235)"><path d="M511.672,3250.869a5.51,5.51,0,0,1,.012.875c-.005.563-.042,1.377-.09,2.383-.1,2.01-.315,4.782-.6,7.839s-.594,5.821-.837,7.818c-.121,1-.226,1.806-.306,2.363a5.389,5.389,0,0,1-.151.862,5.63,5.63,0,0,1,.049-.874c.057-.6.132-1.4.222-2.372.2-2.043.465-4.788.76-7.822.289-3.055.528-5.823.681-7.827.071-.969.129-1.77.174-2.375A5.589,5.589,0,0,1,511.672,3250.869Z" transform="translate(-509.689 -3250.869)" fill="#1a2e35"/></g><g transform="translate(16.258 69.506)"><path d="M407.739,3232.825a2.32,2.32,0,0,1-.289-.477l-.714-1.335a20.89,20.89,0,0,0-2.758-4.116,9.555,9.555,0,0,0-4.054-2.718,11.243,11.243,0,0,0-2.015-.379,1.882,1.882,0,0,1,.559-.036,6.082,6.082,0,0,1,1.51.237,9.17,9.17,0,0,1,4.2,2.719,18.424,18.424,0,0,1,2.729,4.208c.283.575.5,1.047.641,1.376A2.257,2.257,0,0,1,407.739,3232.825Z" transform="translate(-397.908 -3223.763)" fill="#1a2e35"/></g><path d="M410.4,3284.036c-.046-.253,4.443-1.346,4.443-1.346l-3.285-21.281,1.775,20.691h-3.284Z" transform="translate(-387.64 -3172.836)" opacity="0.3"/></g><g transform="translate(353.129 3048.404)"><path d="M530.6,3309.884l-.793,10.937-3.633,4.574-8.89,11.8,10.768.7s12.63-3.139,14.489-7.029,1.967-20.981,1.967-20.981Z" transform="translate(-517.28 -3206.066)" fill="#ffd0b4"/><g transform="translate(21.232)"><g transform="translate(12.599 5.863)"><path d="M616.767,3178.022l.606-42.542c.391-10.122-4.642-18.882-14.771-18.992l-.937.044a18.105,18.105,0,0,0-17.242,17.477c-.29,8.778-.5,18.483-.217,23.171.581,9.7,10.363,10.752,10.363,10.752.015.3-.013,2.713-.053,5.609l.015,4.82Z" transform="translate(-584.073 -3116.489)" fill="#ffd0b4"/></g><g transform="translate(23.057 52.969)"><path d="M604.734,3213.83a23.484,23.484,0,0,0,12.463-4.338s-2.747,7.238-12.476,6.824Z" transform="translate(-604.721 -3209.492)" fill="#ff9e61"/></g><g transform="translate(28.766 26.635)"><path d="M616.03,3159.214c.213.063,1.192-.648,2.773-1.015s2.864-.206,3-.352c.07-.067-.17-.213-.734-.3a6.834,6.834,0,0,0-2.443.152,6.124,6.124,0,0,0-2.168.939C616.035,3158.96,615.926,3159.188,616.03,3159.214Z" transform="translate(-615.993 -3157.501)" fill="#1a2e35"/></g><g transform="translate(30.367 30.103)"><path d="M619.154,3165.6a1.313,1.313,0,0,0,1.328,1.263,1.256,1.256,0,0,0,1.3-1.247,1.313,1.313,0,0,0-1.326-1.264A1.257,1.257,0,0,0,619.154,3165.6Z" transform="translate(-619.154 -3164.348)" fill="#1a2e35"/></g><g transform="translate(20.939 26.483)"><path d="M604.394,3169.664a9.857,9.857,0,0,0-2.444-.322c-.382-.021-.747-.08-.823-.337a1.941,1.941,0,0,1,.2-1.141l.989-2.955c1.369-4.2,2.339-7.654,2.17-7.708s-1.417,3.312-2.785,7.516q-.492,1.555-.941,2.97a2.21,2.21,0,0,0-.127,1.5.958.958,0,0,0,.653.527,2.6,2.6,0,0,0,.651.059A9.732,9.732,0,0,0,604.394,3169.664Z" transform="translate(-600.54 -3157.2)" fill="#1a2e35"/></g><g transform="translate(29.98 20.539)"><path d="M618.4,3146.61c.148.364,1.453.126,3.006.246,1.555.087,2.823.495,3.012.153.084-.163-.15-.5-.67-.835a5.09,5.09,0,0,0-4.584-.3C618.606,3146.133,618.334,3146.437,618.4,3146.61Z" transform="translate(-618.389 -3145.464)" fill="#1a2e35"/></g><g transform="translate(14.495 23.12)"><path d="M587.829,3151.74c.162.3,1.436,0,2.972,0,1.536-.036,2.8.22,2.973-.082.074-.145-.172-.414-.7-.661a5.34,5.34,0,0,0-2.259-.432,5.523,5.523,0,0,0-2.27.5C588.01,3151.321,587.757,3151.6,587.829,3151.74Z" transform="translate(-587.817 -3150.56)" fill="#1a2e35"/></g><g transform="translate(45.257 31.846)"><path d="M648.735,3168.159c.172-.079,6.964-2.223,6.89,4.755s-7.065,5.465-7.074,5.265S648.735,3168.159,648.735,3168.159Z" transform="translate(-648.551 -3167.788)" fill="#ffd0b4"/></g><g transform="translate(47.41 34.109)"><path d="M652.808,3177.762c.031-.022.121.086.325.183a1.214,1.214,0,0,0,.909.028,3.008,3.008,0,0,0,1.42-2.684,4.019,4.019,0,0,0-.322-1.744,1.406,1.406,0,0,0-.905-.943.619.619,0,0,0-.721.326c-.1.193-.053.333-.09.346-.02.017-.149-.119-.089-.406a.774.774,0,0,1,.279-.435.917.917,0,0,1,.674-.17,1.708,1.708,0,0,1,1.259,1.1,4.132,4.132,0,0,1,.4,1.949c-.06,1.406-.794,2.714-1.805,3a1.3,1.3,0,0,1-1.11-.2C652.819,3177.931,652.784,3177.774,652.808,3177.762Z" transform="translate(-652.802 -3172.255)" fill="#ff9e61"/></g><g transform="translate(14.624 27.366)"><path d="M588.086,3159.2c.151.159,1.349.081,2.89.587s2.563,1.29,2.756,1.243c.094-.018-.039-.258-.482-.612a7.155,7.155,0,0,0-2.174-1.119,6.386,6.386,0,0,0-2.333-.342C588.218,3159,588.01,3159.125,588.086,3159.2Z" transform="translate(-588.071 -3158.944)" fill="#1a2e35"/></g><g transform="translate(16.5 29.941)"><path d="M591.775,3165.274a1.312,1.312,0,0,0,1.328,1.263,1.256,1.256,0,0,0,1.3-1.247,1.313,1.313,0,0,0-1.327-1.264A1.256,1.256,0,0,0,591.775,3165.274Z" transform="translate(-591.775 -3164.027)" fill="#1a2e35"/></g><path d="M559.255,3119.273a1.568,1.568,0,0,1,.76-.9,4.821,4.821,0,0,1,2.485-.339,13.941,13.941,0,0,0,6.094-1.367,6.907,6.907,0,0,1-1.748-1.295,4.156,4.156,0,0,1-1.09-4.161.921.921,0,0,1,.535-.619c.433-.121.8.31,1.09.653a3.577,3.577,0,0,0,3.33,1.511,5.869,5.869,0,0,0,2.534-.68c.029-.029.056-.061.086-.09.353-.347.7-.677,1.037-1l0,0v0c2.552-2.406,4.737-4.063,6.964-4.894a22.5,22.5,0,0,1,12.027-.639c3.346.969,6.3,3.78,6.683,7.243,1.93-1.55,4.766-1.464,7.043-.48l.058-.024c2.54.979,3.926,3.723,4.616,6.356.038.144.07.29.1.434a10.162,10.162,0,0,0,3.363,3.456c.244.15.523.334.546.62s-.221.512-.457.671a5.1,5.1,0,0,1-2.1.809,11.531,11.531,0,0,0,.8,1.823c.277.5.606,1.093.34,1.6a1.081,1.081,0,0,1-1.144.464,3.171,3.171,0,0,1-1.179-.57l.805,2.075a6.056,6.056,0,0,1-2.783-.257,67.6,67.6,0,0,1-1.973,7.173c-1.071-.03-2.079-.307-2.754.27-.918.784-1.358,2.292-2.835,1.678-.752-.312-1.4-1.923-1.638-2.7a37.8,37.8,0,0,1-1.229-16.036,12.147,12.147,0,0,0-3.682-2.8l.112.106c-2.682-1.009-5.719-2.011-8.319-.806-2.016.935-3.24,2.971-4.77,4.582a14.364,14.364,0,0,1-10.583,4.72c-.454,2.912-.235,6.625-.447,9.348l-2.408-4.46,0,.022c-.18-.324-.327-.651-.469-.978l-.049-.1v-.012a16.868,16.868,0,0,0-.727-1.571l-.027.023a1.7,1.7,0,0,1-2.431-2.341,3.84,3.84,0,0,1,.845-.807,2.7,2.7,0,0,1-2.584.6,2.114,2.114,0,0,1-1.442-2.129,1.8,1.8,0,0,1,1.109-1.415,6.075,6.075,0,0,1-3.434-.849C559.654,3120.782,559,3120.125,559.255,3119.273Z" transform="translate(-559.199 -3104.913)" fill="#1a2e35"/><g transform="translate(37.767 8.823)"><path d="M633.763,3122.333a8.3,8.3,0,0,1,.949.913,6.948,6.948,0,0,1,1.4,3.253,12.23,12.23,0,0,1,.185,2.468c-.019.892-.115,1.845-.209,2.85a25.532,25.532,0,0,0-.153,3.174,11.16,11.16,0,0,0,.176,1.681,3.488,3.488,0,0,0,.642,1.643,1.462,1.462,0,0,0,1.355.495,2.178,2.178,0,0,0,1.247-.664,5.028,5.028,0,0,0,1-2.439l-.2.02a8.1,8.1,0,0,0,1.127,2.059,2.885,2.885,0,0,0,1.858,1.074,1.856,1.856,0,0,0,1-.149,1.615,1.615,0,0,0,.7-.651,1.661,1.661,0,0,0,.227-.854,1.2,1.2,0,0,0-.292-.761l-.1.089a6.251,6.251,0,0,0,2.041,1.614,5.7,5.7,0,0,0,.638.267,1.094,1.094,0,0,0,.23.063,1.207,1.207,0,0,0-.216-.1c-.142-.062-.355-.154-.618-.3a6.451,6.451,0,0,1-1.968-1.635l-.105.089a1.242,1.242,0,0,1,.028,1.44,1.448,1.448,0,0,1-.629.576,1.69,1.69,0,0,1-.909.125,2.708,2.708,0,0,1-1.724-1.02,8.016,8.016,0,0,1-1.084-2.014l-.132-.314-.072.334a4.854,4.854,0,0,1-.949,2.33,1.953,1.953,0,0,1-1.116.594,1.233,1.233,0,0,1-1.152-.419,3.3,3.3,0,0,1-.593-1.536,11.11,11.11,0,0,1-.175-1.647,25.914,25.914,0,0,1,.14-3.148c.088-1,.177-1.962.188-2.866a12.178,12.178,0,0,0-.215-2.5,6.853,6.853,0,0,0-1.5-3.28A3.933,3.933,0,0,0,633.763,3122.333Z" transform="translate(-633.763 -3122.333)" fill="#375a64"/></g><g transform="translate(7.566 3.244)"><path d="M574.136,3125.558s.023.026.076.069l.238.182a3.213,3.213,0,0,0,.4.273,5.118,5.118,0,0,0,.581.325,8.591,8.591,0,0,0,4.126.851,10.979,10.979,0,0,0,5.9-2.01,19.016,19.016,0,0,0,5.169-5.66c.734-1.155,1.339-2.343,2-3.437a12.838,12.838,0,0,1,2.239-2.894,6.617,6.617,0,0,1,2.834-1.623,4.74,4.74,0,0,1,1.475-.132,5.194,5.194,0,0,1,1.341.293,5.606,5.606,0,0,1,3.045,2.713,6.652,6.652,0,0,1,.463,1.465.317.317,0,0,0-.005-.1c-.01-.081-.023-.178-.038-.3a4.9,4.9,0,0,0-.34-1.1,5.516,5.516,0,0,0-1.047-1.5,5.673,5.673,0,0,0-2.022-1.327,5.335,5.335,0,0,0-1.383-.317,4.894,4.894,0,0,0-1.535.124,6.764,6.764,0,0,0-2.93,1.651,12.926,12.926,0,0,0-2.288,2.932c-.669,1.1-1.274,2.286-2,3.431a19.012,19.012,0,0,1-5.1,5.609,10.915,10.915,0,0,1-5.788,2.022,8.721,8.721,0,0,1-4.082-.771A13.644,13.644,0,0,1,574.136,3125.558Z" transform="translate(-574.136 -3111.317)" fill="#375a64"/></g><g transform="translate(6.792 13.203)"><path d="M572.61,3130.984a1.479,1.479,0,0,0,.341.251,7.418,7.418,0,0,0,1.016.548,9.889,9.889,0,0,0,1.615.576,10.526,10.526,0,0,0,4.176.241,10,10,0,0,0,1.67-.387,7.406,7.406,0,0,0,1.071-.429,1.5,1.5,0,0,0,.368-.209c-.018-.039-.56.222-1.485.485a11.383,11.383,0,0,1-1.652.334,11.292,11.292,0,0,1-4.1-.236,11.391,11.391,0,0,1-1.6-.521C573.14,3131.27,572.631,3130.948,572.61,3130.984Z" transform="translate(-572.609 -3130.981)" fill="#375a64"/></g><g transform="translate(24.799 41.47)"><path d="M613.031,3186.79s-3.531,1.028-4.87,1.515l.536,1.536a2.455,2.455,0,0,0,3.318,1.417,2.421,2.421,0,0,0,.815-.626,2.479,2.479,0,0,0,.56-1.724A13.843,13.843,0,0,0,613.031,3186.79Z" transform="translate(-608.161 -3186.79)" fill="#ff9e61"/></g><g transform="translate(24.799 41.155)"><path d="M608.16,3188a26.941,26.941,0,0,1,4.8-1.751l.254-.08.056.267c.008.036.016.075.023.114a11.262,11.262,0,0,1,.32,2.042,2.4,2.4,0,0,1-.514,1.678c-.665.792-1.359.838-1.351.791-.04-.078.567-.254,1.071-1,.586-.727.318-2.01-.008-3.413l-.024-.117.31.188A27.2,27.2,0,0,1,608.16,3188Z" transform="translate(-608.159 -3186.167)" fill="#1a2e35"/></g></g><g transform="translate(12.681 58.863)"><path d="M551.591,3332.253l68.753-.32-3.793-58.481-.285-17.434-4.028-31.595-15.365-3.294s-3.844,7.064-13.66,6.919c-9.6-.142-9.289-4.225-9.289-4.225l-16.324,6.129s-8.947,4.354-10.589,8.575c-1.6,4.109-4.695,27.752-4.695,27.752l14.076-.174-1.283,44.73Z" transform="translate(-542.317 -3221.129)" fill="#294d6d"/></g><g transform="translate(26.47 83.096)"><path d="M570.294,3268.973a1.357,1.357,0,0,1,.036.307c.014.23.031.523.053.884.035.768.067,1.88.072,3.254.019,2.748-.043,6.542-.172,10.732s-.3,7.982-.438,10.726c-.077,1.345-.14,2.446-.185,3.247l-.066.883a.155.155,0,1,1-.053,0c0-.23.01-.523.017-.884l.1-3.251c.093-2.776.22-6.552.361-10.726s.22-7.979.249-10.725c.019-1.373.016-2.483.012-3.251,0-.361,0-.654,0-.884A1.382,1.382,0,0,1,570.294,3268.973Z" transform="translate(-569.541 -3268.973)" fill="#1a2e35"/></g><path d="M679.428,3228.482s6.916.727,10.62,5.579c3.406,4.462,9.971,18.506,9.8,18.854s-15.461,10.368-15.461,10.368l-3.78-6.971Z" transform="translate(-597.3 -3165.895)" fill="#294d6d"/><g transform="translate(85.485 69.486)"><path d="M686.069,3242.1a1.019,1.019,0,0,1,.04.266c.017.205.038.458.063.766.051.666.107,1.629.166,2.82.117,2.382.207,5.677.261,9.314s.114,6.931.183,9.313c.034,1.162.062,2.117.082,2.822.006.309.01.562.014.768a1.051,1.051,0,0,1-.013.269,1.03,1.03,0,0,1-.04-.266c-.017-.2-.038-.458-.063-.766-.051-.665-.107-1.628-.166-2.82-.117-2.382-.207-5.677-.261-9.316s-.114-6.929-.184-9.312c-.033-1.163-.061-2.117-.082-2.822-.006-.309-.01-.562-.014-.769A1.045,1.045,0,0,1,686.069,3242.1Z" transform="translate(-686.056 -3242.102)" fill="#1a2e35"/></g></g><g transform="translate(337.441 3151.556)"><g transform="translate(0 9.058)"><path d="M497.09,3354.223s2.278,1.528,3.71,1.337,6.111-1.337,6.111-1.337.1.415,1.337,1.354,8.785,2.179,11.936,1.8a49.9,49.9,0,0,0,8.5-2.387l-1.605-9.028-14.191,2.238-15.8,3.639v2.387Z" transform="translate(-491.627 -3336.08)" fill="#924d42"/><path d="M505.738,3337.245s-1.241,5.443-.573,6.207,1.51.955,1.987-.1a46.165,46.165,0,0,0,1.355-4.785l.573-1.327s-.764,8.976.764,9.453a3.2,3.2,0,0,0,2.387,0s3.056,2.292,3.247-1.337a52.4,52.4,0,0,1,1.3-8.117l.709-1.18v2.04s-1.609,4.774-.709,5.443,1.855,1.146,2.428.382a57.409,57.409,0,0,0,3.824-8.316s1.789,2.586,4.287,2.619c1.958.026,3.1-.815,2.3-2.037a8.744,8.744,0,0,0-2.77-2.241l-2.578-6.023-6.3-1.475H510.8Z" transform="translate(-495.515 -3326.455)" fill="#ffd0b4"/><path d="M486.3,3333.374s6.022,3.585,8.791,4.253,17.615-1.969,17.462-2.9-2.089-1.774-3.425-1.965-5.252-.86-5.252-.86h10.5l5.061,3.2s1.8-.723,1.213-2.191c-.31-.78-4.268-3.874-4.268-3.874l-9.644-1.909-17.092-.668Z" transform="translate(-486.305 -3326.455)" fill="#ffc19d"/></g><g transform="translate(0 0)"><path d="M489.277,3308.571s19.76,2.756,20.141,3.233,4.775,5.443,4.775,5.443,6.585,2.265,5.729,3.724-2.769.573-2.769.573,2.674,4.2,1.432,5.06-2.578.287-3.533-.955-3.724-5.825-3.724-5.825,2.291,9.358,1.146,9.644a2.785,2.785,0,0,1-3.724-2.005,25.614,25.614,0,0,1-.955-3.724l-3.628-6.016s1.432,10.985.573,11.89c0,0-2.2.714-2.961-1.2s-1.814-6.275-1.814-6.275l-1.814-4.8-.191,3.056s1.528,5.634.573,6.016a2.292,2.292,0,0,1-2.865-1.287,20.885,20.885,0,0,1-1.719-4.061c-.187-.747-1.2-3.288-1.2-3.288l-6.443.025Z" transform="translate(-486.305 -3308.571)" fill="#d97560"/><g transform="translate(26.68 7.216)"><path d="M538.983,3322.819a53.355,53.355,0,0,1,4.319,6.132,53.5,53.5,0,0,1-4.319-6.132Z" transform="translate(-538.981 -3322.818)" fill="#8e4132"/></g><g transform="translate(20.987 4.055)"><path d="M527.742,3316.577a4.9,4.9,0,0,1,.8.957,24.513,24.513,0,0,1,1.607,2.54,29.508,29.508,0,0,1,1.321,2.7,5.271,5.271,0,0,1,.422,1.172,6.445,6.445,0,0,1-.591-1.094c-.342-.685-.818-1.629-1.382-2.649s-1.117-1.919-1.53-2.562A7.231,7.231,0,0,1,527.742,3316.577Z" transform="translate(-527.74 -3316.576)" fill="#8e4132"/></g><g transform="translate(15.955 4.561)"><path d="M517.808,3317.578c.018-.025.282.121.6.477a4.643,4.643,0,0,1,.907,1.621,8.513,8.513,0,0,1,.372,1.808,2.131,2.131,0,0,1,.016.763,2.321,2.321,0,0,1-.2-.735,15.132,15.132,0,0,0-.438-1.752,5.811,5.811,0,0,0-.8-1.587C518,3317.8,517.782,3317.61,517.808,3317.578Z" transform="translate(-517.806 -3317.575)" fill="#8e4132"/></g><g transform="translate(9.886 5.076)"><path d="M505.824,3318.6c.014-.029.267.05.615.3a3.437,3.437,0,0,1,1.421,2.875c-.016.426-.107.675-.138.669a4.423,4.423,0,0,0-1.9-3.84Z" transform="translate(-505.822 -3318.594)" fill="#8e4132"/></g></g></g><g transform="translate(372.89 3068.965)"><path d="M568.447,3343.543c1.22-.009,47.648-3.409,47.648-3.409l16.378-3.387-4.045-18.132-59.852,19.26Z" transform="translate(-562.292 -3230.936)" opacity="0.3"/><path d="M556.295,3313.746l42.981-9.879s39.13-22.809,39.73-23.177c.667-.409-3.026,23.177-3.026,23.177s-24.927,13.133-32.1,14.837c-3.908.927-47.268,4.531-47.268,4.531Z" transform="translate(-556.295 -3212.218)" fill="#924d42"/><g transform="translate(59.833)"><g transform="translate(0 1.147)"><path d="M720.41,3154.358c2.649-2.857,9.113-2.361,10.628-.45a4.936,4.936,0,0,1,6.44,2.211l6.867,1.572a7.176,7.176,0,0,1,3.291,1.366,2.466,2.466,0,0,1,.549,3.219,3.74,3.74,0,0,1,1.517,6,2.608,2.608,0,0,1-.424,3.77,26.134,26.134,0,0,1,4.359,7.707,5.32,5.32,0,0,1,.308,3.63c-.443,1.16-1.981,1.946-2.981,1.21a3.053,3.053,0,0,1,.112,3.3c1.164.039,1.493,1.843.685,2.681a4.248,4.248,0,0,1-3.272.876,5.605,5.605,0,0,0-3.387.544,1.057,1.057,0,0,0,.373.742,4.787,4.787,0,0,1,1,6.532c-.141.192-.272.371-.387.531a10.471,10.471,0,0,1-3.405,2.342c-2.646,1.347-4.211,1.072-7.154,1.468.783,1.9-4.031,6.055-9.453,1.875a105.336,105.336,0,0,1-30.08,3.777c-1.61-.011-3.543-.248-4.243-1.7a4,4,0,0,1-3.668-1.242,11.786,11.786,0,0,1-2.126-3.424,7.015,7.015,0,0,1-4.987-6.37,8.668,8.668,0,0,1-3.21-6.2,5.088,5.088,0,0,1-2.851-6.9,30.693,30.693,0,0,1,3.442-9.468c-1.842-.417-2.513-2.913-1.737-4.635s2.467-2.818,4.07-3.817c-1.384.354-2.57-1.391-2.228-2.777a5.452,5.452,0,0,1,2.833-3.056,25.976,25.976,0,0,1,5.745-2.5c.68-2.424,3.812-5.16,6.1-6.214,9.219-4.253,15.66-5.289,27.272,3.392" transform="translate(-674.425 -3147.771)" fill="#1a2e35"/></g><g transform="translate(18.929 12.109)"><path d="M713.128,3182.28c.793-6.312,5.474-13.824,11.745-12.764l19.4,6.208a3.721,3.721,0,0,1,3.09,3.974l-3.29,42.2a11.606,11.606,0,0,1-10.14,10.615h0a11.608,11.608,0,0,1-13.035-11.737c.054-2.9.089-5.083.087-5.07s-8.011-1.846-9.031-12.512C711.447,3197.885,712.247,3189.29,713.128,3182.28Z" transform="translate(-711.797 -3169.415)" fill="#924d42"/></g><g transform="translate(21.831 23.226)"><g transform="translate(0 5.076)"><g transform="translate(1.965 4.101)"><path d="M721.413,3210.627a1.357,1.357,0,0,0,1.221,1.448,1.3,1.3,0,0,0,1.472-1.135,1.358,1.358,0,0,0-1.22-1.448A1.3,1.3,0,0,0,721.413,3210.627Z" transform="translate(-721.407 -3209.483)" fill="#1a2e35"/></g><path d="M717.545,3202.653c.157.187,1.23-.509,2.687-.415,1.457.073,2.48.89,2.649.721.083-.074-.069-.4-.514-.772a3.728,3.728,0,0,0-2.107-.8,3.575,3.575,0,0,0-2.153.551C717.639,3202.259,717.467,3202.569,717.545,3202.653Z" transform="translate(-717.527 -3201.386)" fill="#1a2e35"/><g transform="translate(14.309 1.163)"><g transform="translate(1.019 3.498)"><path d="M747.8,3211.732a1.357,1.357,0,0,0,1.221,1.448,1.3,1.3,0,0,0,1.472-1.134,1.358,1.358,0,0,0-1.22-1.449A1.3,1.3,0,0,0,747.8,3211.732Z" transform="translate(-747.791 -3210.588)" fill="#1a2e35"/></g><path d="M745.8,3204.948c.157.187,1.232-.509,2.688-.414,1.457.073,2.48.889,2.649.721.083-.074-.067-.4-.514-.772a3.723,3.723,0,0,0-2.107-.8,3.575,3.575,0,0,0-2.153.55C745.892,3204.553,745.719,3204.863,745.8,3204.948Z" transform="translate(-745.779 -3203.681)" fill="#1a2e35"/></g><g transform="translate(4.716 0.806)"><path d="M730.488,3215.08a9.664,9.664,0,0,0-2.341-.574c-.369-.062-.717-.157-.764-.415A1.892,1.892,0,0,1,727.7,3213l1.276-2.765c1.779-3.94,3.092-7.189,2.933-7.259s-1.731,3.066-3.51,7.006q-.644,1.458-1.231,2.785a2.159,2.159,0,0,0-.284,1.449.936.936,0,0,0,.578.582,2.53,2.53,0,0,0,.627.127A9.5,9.5,0,0,0,730.488,3215.08Z" transform="translate(-726.838 -3202.978)" fill="#1a2e35"/></g><g transform="translate(6.275 27.199)"><path d="M729.929,3257.981a26.92,26.92,0,0,0,14.379-2.894s-3.882,7.042-14.391,5.4Z" transform="translate(-729.916 -3255.087)" fill="#66312b"/></g></g><g transform="translate(14.051 0.535)"><path d="M745.274,3193.35c.119.4,1.586.308,3.283.62,1.7.278,3.052.864,3.3.523.111-.164-.106-.551-.639-.969a5.809,5.809,0,0,0-5.016-.871C745.559,3192.866,745.224,3193.158,745.274,3193.35Z" transform="translate(-745.269 -3192.42)" fill="#1a2e35"/></g><g transform="translate(0.813)"><path d="M719.162,3192.722c.236.347,1.261.066,2.47.125,1.21.017,2.216.361,2.473.029.113-.162-.027-.5-.454-.844a3.581,3.581,0,0,0-3.982-.124C719.22,3192.222,719.059,3192.554,719.162,3192.722Z" transform="translate(-719.132 -3191.363)" fill="#1a2e35"/></g></g><g transform="translate(15.385 8.183)"><path d="M704.836,3183.45a7.262,7.262,0,0,1,1.833-4.522,27.175,27.175,0,0,0,1.993-1.858c1.217-1.542,1.086-3.715,1.624-5.6a7.991,7.991,0,0,1,5.04-5.286c2-.674,4.242-.539,6.12-1.494,1.388-.706,2.458-1.954,3.885-2.577,2.78-1.212,5.955.259,8.533,1.855.481,2.078-.86,3.845-2.151,5.542a7.4,7.4,0,0,1-5.49,2.87c-1.653.07-3.575-.336-4.757.822-1.243,1.218-.807,3.41-1.836,4.813-1.47,2.006-4.721,1.177-6.889,2.395-1.674.94-2.406,2.912-3.271,4.627s-2.34,3.494-4.256,3.369A21.6,21.6,0,0,1,704.836,3183.45Z" transform="translate(-704.801 -3161.662)" fill="#1a2e35"/></g><g transform="translate(40.26 14.18)"><path d="M753.912,3173.5a37.49,37.49,0,0,1,14.114,2.8,6.823,6.823,0,0,1,3.447,2.468,6.692,6.692,0,0,1,.674,3.68c-.116,3.959-1.8,8.778-3.369,12.413l-5,2.873c-3.793-.968-1.929-7.512-1.687-10.8a7.782,7.782,0,0,1-4.425-6.951A8.614,8.614,0,0,1,753.912,3173.5Z" transform="translate(-753.912 -3173.502)" fill="#1a2e35"/></g><g transform="translate(49.976 34.876)"><path d="M773.341,3216.482c.189-2.262,2.978-2.653,4.9-1.452,1.057.659,1.84,1.94,1.66,4.342-.48,6.406-6.812,4.6-6.809,4.417C773.1,3223.675,773.119,3219.13,773.341,3216.482Z" transform="translate(-773.095 -3214.365)" fill="#924d42"/></g><g transform="translate(52.107 37.041)"><path d="M777.31,3223.619c.03-.019.106.086.288.187a1.119,1.119,0,0,0,.833.08,2.768,2.768,0,0,0,1.463-2.381,3.7,3.7,0,0,0-.193-1.621,1.292,1.292,0,0,0-.775-.919.57.57,0,0,0-.682.256c-.1.173-.068.3-.1.313-.019.014-.13-.118-.058-.378a.716.716,0,0,1,.282-.383.845.845,0,0,1,.629-.116,1.571,1.571,0,0,1,1.092,1.08,3.793,3.793,0,0,1,.253,1.814,2.9,2.9,0,0,1-1.835,2.644,1.2,1.2,0,0,1-1.007-.246C777.31,3223.774,777.287,3223.629,777.31,3223.619Z" transform="translate(-777.303 -3218.639)" fill="#66312b"/></g><g transform="translate(40.739 13.767)"><path d="M769.31,3205.019a5.362,5.362,0,0,0,1.03-.048,3.789,3.789,0,0,0,1.129-.32l-.077-.04a3.19,3.19,0,0,0,5.043,2.115l-.108-.021a1.319,1.319,0,0,0,.831.576,1.83,1.83,0,0,0,1.04-.068,1.678,1.678,0,0,0,.847-.664,2.231,2.231,0,0,0,.344-1.05,3.275,3.275,0,0,0-.66-2.151,9.608,9.608,0,0,0-1.661-1.676l-.014.149a2.26,2.26,0,0,0,1.044-1.5,3.285,3.285,0,0,0-.149-1.894,5.074,5.074,0,0,0-1.094-1.619,15.327,15.327,0,0,0-1.5-1.312l.008.145a2.407,2.407,0,0,0,.664-1.85,3.468,3.468,0,0,0-.691-1.917,8.575,8.575,0,0,0-3.088-2.238l.049.111a4.258,4.258,0,0,0-4.532-5.337l.1.111a3.67,3.67,0,0,0-.812-3.135,3.618,3.618,0,0,0-2.685-1.379l.079.082a3.6,3.6,0,0,0-1.406-2.821,3.521,3.521,0,0,0-2.667-.788l.072.064a3.529,3.529,0,0,0-.491-1.654,4.547,4.547,0,0,0-.953-1.194,3.68,3.68,0,0,0-2.175-.985l-.241-.021c-.078,0-.153.01-.227.013a3.23,3.23,0,0,0-.407.04,4.468,4.468,0,0,0-.615.162l-.361.147a.788.788,0,0,0-.12.055.8.8,0,0,0,.127-.039l.364-.13a4.7,4.7,0,0,1,.613-.144,3.431,3.431,0,0,1,.4-.031c.072,0,.146-.01.222-.01l.236.025a3.632,3.632,0,0,1,2.116.99,4.45,4.45,0,0,1,.92,1.175,3.434,3.434,0,0,1,.464,1.6v.074l.071-.01a3.4,3.4,0,0,1,2.559.775,3.456,3.456,0,0,1,1.336,2.7l0,.081h.081a3.461,3.461,0,0,1,2.555,1.327,3.5,3.5,0,0,1,.769,2.984l-.03.124.127-.012a4.072,4.072,0,0,1,4.327,5.107l-.02.075.069.036a8.424,8.424,0,0,1,3.021,2.183,3.281,3.281,0,0,1,.652,1.808,2.211,2.211,0,0,1-.606,1.7l-.079.076.087.069a7.553,7.553,0,0,1,2.533,2.848,3.108,3.108,0,0,1,.144,1.784,2.078,2.078,0,0,1-.953,1.385l-.113.064.1.084a9.495,9.495,0,0,1,1.636,1.64,3.112,3.112,0,0,1,.636,2.036,1.72,1.72,0,0,1-1.079,1.576,1.409,1.409,0,0,1-1.688-.436l-.043-.07-.066.048a3.1,3.1,0,0,1-3.236.249,3.145,3.145,0,0,1-1.613-2.259l-.011-.072-.065.032a3.7,3.7,0,0,1-1.1.321,5.344,5.344,0,0,1-1.013.06,3.937,3.937,0,0,1-1.558-.327,1.485,1.485,0,0,1-.731-.641c-.1-.2-.112-.322-.125-.318a.4.4,0,0,0,.017.086.853.853,0,0,0,.082.245,1.483,1.483,0,0,0,.731.679" transform="translate(-754.858 -3172.688)" fill="#375a64"/></g><g transform="translate(42.222 10.368)"><path d="M792.89,3193.893a2.162,2.162,0,0,0,.248-.383,3.293,3.293,0,0,0,.362-1.263,3.232,3.232,0,0,0-.49-2.021,3.408,3.408,0,0,0-2.3-1.518l.053.078a4.4,4.4,0,0,0-.525-3.175,4.279,4.279,0,0,0-1.232-1.355,10.167,10.167,0,0,0-1.739-.856,3.527,3.527,0,0,1-.832-.514,2.191,2.191,0,0,1-.572-.8c-.274-.619-.353-1.348-.7-2.015a3.9,3.9,0,0,0-3.872-2l.108.11a5.137,5.137,0,0,0-5.59-5.921l.1.107a4.512,4.512,0,0,0-6.943-4.338l.1.012a6.169,6.169,0,0,0-2.216-1.406,9.291,9.291,0,0,0-2.292-.568,10.768,10.768,0,0,0-3.806.192,7.657,7.657,0,0,0-2.275.9,4.412,4.412,0,0,0-.528.37c-.116.089-.172.139-.172.139s.243-.179.724-.466a7.9,7.9,0,0,1,2.271-.85,10.808,10.808,0,0,1,3.769-.152,9.193,9.193,0,0,1,2.254.575,6.04,6.04,0,0,1,2.154,1.381l.047.048.057-.036a4.337,4.337,0,0,1,6.663,4.177l-.014.12.12-.012a4.95,4.95,0,0,1,5.381,5.7l-.02.128.129-.017a3.714,3.714,0,0,1,3.682,1.9c.332.625.414,1.348.7,2a2.351,2.351,0,0,0,.62.858,3.691,3.691,0,0,0,.874.537,10.094,10.094,0,0,1,1.719.834,4.138,4.138,0,0,1,1.194,1.3,4.268,4.268,0,0,1,.53,3.069l-.015.067.067.01a3.307,3.307,0,0,1,2.233,1.446,3.177,3.177,0,0,1,.5,1.961,3.385,3.385,0,0,1-.324,1.252C792.976,3193.762,792.882,3193.888,792.89,3193.893Z" transform="translate(-757.786 -3165.976)" fill="#375a64"/></g><g transform="translate(12.097 10.514)"><path d="M702.18,3194.737a.629.629,0,0,0,.033-.526,1.244,1.244,0,0,0-.366-.537,2.175,2.175,0,0,0-.786-.412,3.781,3.781,0,0,1-.994-.435,1.991,1.991,0,0,1-.7-1.041,3.909,3.909,0,0,1-.137-1.471c.032-.529.125-1.087.135-1.688a17.208,17.208,0,0,0-.752-3.8,5.326,5.326,0,0,1-.051-2.11,2.571,2.571,0,0,1,1.193-1.784,9.672,9.672,0,0,1,2.261-.724,3.859,3.859,0,0,0,1.158-.515,2.58,2.58,0,0,0,.829-1,12.462,12.462,0,0,0,.717-2.512,4.28,4.28,0,0,1,.465-1.209,1.961,1.961,0,0,1,.959-.812,7.186,7.186,0,0,1,1.778-.213,2.787,2.787,0,0,0,.9-.21,1.769,1.769,0,0,0,.719-.586,6.228,6.228,0,0,0,.7-1.627,3.956,3.956,0,0,1,.829-1.434,3.867,3.867,0,0,1,2.816-1.288,3.972,3.972,0,0,1,2.705,1.031l.084.078.049-.1a6.108,6.108,0,0,1,3.864-3.223,5.632,5.632,0,0,1,2.146-.149,5.13,5.13,0,0,1,1.754.52,4.505,4.505,0,0,1,1.844,1.753,4.407,4.407,0,0,1,.308.609l.073.159a.2.2,0,0,0,.029.052.217.217,0,0,0-.017-.057l-.061-.165a3.882,3.882,0,0,0-.288-.624,4.485,4.485,0,0,0-1.843-1.815,5.2,5.2,0,0,0-1.784-.551,5.724,5.724,0,0,0-2.2.134,6.242,6.242,0,0,0-3.98,3.283l.133-.025a4.141,4.141,0,0,0-2.821-1.088,4.043,4.043,0,0,0-2.953,1.341,4.132,4.132,0,0,0-.87,1.5,6.13,6.13,0,0,1-.675,1.576,1.88,1.88,0,0,1-1.484.718,7.19,7.19,0,0,0-1.828.223,2.161,2.161,0,0,0-1.058.893,4.452,4.452,0,0,0-.487,1.263,12.425,12.425,0,0,1-.7,2.475,2.393,2.393,0,0,1-.766.932,3.714,3.714,0,0,1-1.1.491,9.653,9.653,0,0,0-2.3.748,2.469,2.469,0,0,0-.854.828,3.253,3.253,0,0,0-.416,1.076,5.472,5.472,0,0,0,.061,2.177,17.429,17.429,0,0,1,.772,3.77c-.006.586-.093,1.145-.121,1.682a4.009,4.009,0,0,0,.157,1.511,2.08,2.08,0,0,0,.754,1.083,3.79,3.79,0,0,0,1.024.431,2.142,2.142,0,0,1,.771.384,1.226,1.226,0,0,1,.367.506A.785.785,0,0,1,702.18,3194.737Z" transform="translate(-698.308 -3166.266)" fill="#375a64"/></g><g transform="translate(3.689 5.821)"><path d="M681.709,3180.022a.725.725,0,0,0,.068-.119l.182-.356.685-1.38c.3-.6.638-1.344,1.117-2.159a5.714,5.714,0,0,1,2.187-2.266c.524-.272,1.126-.448,1.733-.705a4.062,4.062,0,0,0,.885-.5,2.216,2.216,0,0,0,.668-.825c.315-.66.337-1.415.591-2.1a1.809,1.809,0,0,1,.633-.865,3.432,3.432,0,0,1,1.038-.46,6.572,6.572,0,0,0,1.142-.416,2.066,2.066,0,0,0,.891-.892,9.378,9.378,0,0,0,.591-2.479,3.083,3.083,0,0,1,.446-1.169,1.6,1.6,0,0,1,1.029-.652c.846-.161,1.748.148,2.689.017a2.265,2.265,0,0,0,1.245-.632,5.852,5.852,0,0,0,.817-1.091,12.135,12.135,0,0,1,.723-1.094,2.47,2.47,0,0,1,.957-.791,3.761,3.761,0,0,1,2.422.062,5.662,5.662,0,0,0,2.432.253,6.514,6.514,0,0,0,2.135-.929,10.984,10.984,0,0,1,1.9-1.016,6.619,6.619,0,0,1,3.807-.058,7.093,7.093,0,0,1,2.793,1.5,7.908,7.908,0,0,1,1.525,1.867,8.973,8.973,0,0,1,.643,1.391l.142.374a.73.73,0,0,0,.055.125.758.758,0,0,0-.036-.131l-.124-.381a8.232,8.232,0,0,0-.614-1.415,7.825,7.825,0,0,0-1.517-1.912,7.172,7.172,0,0,0-2.829-1.551,6.733,6.733,0,0,0-3.9.038,11.082,11.082,0,0,0-1.939,1.021,6.35,6.35,0,0,1-2.079.9,5.5,5.5,0,0,1-2.355-.257,8.046,8.046,0,0,0-1.245-.239,2.448,2.448,0,0,0-2.33,1.029,12.263,12.263,0,0,0-.736,1.111,5.718,5.718,0,0,1-.789,1.053,2.064,2.064,0,0,1-1.139.579c-.877.13-1.777-.182-2.7-.014a1.8,1.8,0,0,0-1.148.73,3.274,3.274,0,0,0-.476,1.244,9.346,9.346,0,0,1-.568,2.429,1.872,1.872,0,0,1-.813.817,6.434,6.434,0,0,1-1.109.406,3.6,3.6,0,0,0-1.089.489,1.982,1.982,0,0,0-.689.948c-.262.724-.281,1.47-.577,2.09a2.622,2.622,0,0,1-1.466,1.254c-.593.257-1.2.437-1.737.722a5.8,5.8,0,0,0-2.217,2.332c-.475.829-.8,1.581-1.092,2.182s-.5,1.066-.652,1.4l-.165.365A.7.7,0,0,0,681.709,3180.022Z" transform="translate(-681.708 -3157)" fill="#375a64"/></g><g transform="translate(7.735 22.226)"><path d="M692.591,3189.411a.615.615,0,0,0-.117-.022.725.725,0,0,0-.343.07,1.378,1.378,0,0,0-.657,1.126,3.384,3.384,0,0,0,.121.961,3.935,3.935,0,0,1,.146,1.112,2.469,2.469,0,0,1-.471,1.177c-.255.382-.579.756-.842,1.212a1.841,1.841,0,0,0-.188,1.612c.2.55.584,1.013.769,1.571a2.392,2.392,0,0,1-.205,1.762c-.26.582-.626,1.145-.882,1.791a2.889,2.889,0,0,0-.223,1.038,2.606,2.606,0,0,0,.225,1.065,12.46,12.46,0,0,0,1.188,1.85,2.948,2.948,0,0,1,.643,2.042,9.721,9.721,0,0,1-.812,2.15,3.338,3.338,0,0,0-.259,1.175,2.659,2.659,0,0,0,.281,1.158,9.787,9.787,0,0,0,1.352,1.837,5.22,5.22,0,0,1,1.09,1.835,15.651,15.651,0,0,0,.631,2.008,2.332,2.332,0,0,0,.638.823,2.984,2.984,0,0,0,.9.453,7.826,7.826,0,0,1,.884.332,3.176,3.176,0,0,1,.732.517,6.541,6.541,0,0,1,1.027,1.391c.287.482.552.957.852,1.383a4.4,4.4,0,0,0,2.206,1.681,4.724,4.724,0,0,0,2.091.236,4.184,4.184,0,0,0,1.284-.352,3.193,3.193,0,0,0,.406-.225,4.872,4.872,0,0,1-1.7.5,4.712,4.712,0,0,1-2.047-.263,4.3,4.3,0,0,1-2.129-1.659c-.291-.42-.551-.893-.835-1.38a6.641,6.641,0,0,0-1.045-1.431,3.33,3.33,0,0,0-.77-.55,7.855,7.855,0,0,0-.9-.344,2.812,2.812,0,0,1-.847-.429,2.149,2.149,0,0,1-.585-.763,15.835,15.835,0,0,1-.616-1.986,5.389,5.389,0,0,0-1.12-1.9,9.664,9.664,0,0,1-1.325-1.8,2.466,2.466,0,0,1-.261-1.074,3.137,3.137,0,0,1,.246-1.1,9.713,9.713,0,0,0,.823-2.2,2.446,2.446,0,0,0-.138-1.166,4.7,4.7,0,0,0-.539-1.008,12.487,12.487,0,0,1-1.176-1.817,2.435,2.435,0,0,1-.212-.989,2.718,2.718,0,0,1,.208-.976c.244-.624.606-1.187.871-1.786a2.552,2.552,0,0,0,.2-1.883c-.205-.6-.6-1.056-.781-1.572a1.7,1.7,0,0,1,.166-1.493c.25-.44.569-.818.826-1.21a2.576,2.576,0,0,0,.477-1.238,3.993,3.993,0,0,0-.165-1.141,3.378,3.378,0,0,1-.136-.935,1.347,1.347,0,0,1,.6-1.1A.83.83,0,0,1,692.591,3189.411Z" transform="translate(-689.697 -3189.389)" fill="#375a64"/></g><g transform="translate(45.606 4.425)"><path d="M796.031,3187.892a2.432,2.432,0,0,0,.509-.041,3.505,3.505,0,0,0,1.361-.556,3.42,3.42,0,0,0,1.386-1.865,3.6,3.6,0,0,0-.469-3.037,9.055,9.055,0,0,0-1.258-1.341,4.32,4.32,0,0,1-1.172-1.546,2.826,2.826,0,0,1,.136-2.036c.258-.684.646-1.347.9-2.1a6.291,6.291,0,0,0-4.59-8.095l.055.151a3.193,3.193,0,0,0,.581-1.391,4.026,4.026,0,0,0-.068-1.528,4.414,4.414,0,0,0-.617-1.422,5.214,5.214,0,0,0-1.068-1.147,9.936,9.936,0,0,0-4.187-1.783,15.037,15.037,0,0,0-4.309-.266l.1.093a4.557,4.557,0,0,0-2.5-3.991,4.642,4.642,0,0,0-2.245-.476,7.506,7.506,0,0,0-2.114.517,4.262,4.262,0,0,1-.993.209,2.59,2.59,0,0,1-.964-.119,7.86,7.86,0,0,1-1.682-.857,6.873,6.873,0,0,0-1.607-.771,5.582,5.582,0,0,0-1.617-.247,5.4,5.4,0,0,0-2.677.677,5.572,5.572,0,0,0-1.585,1.326,5.318,5.318,0,0,0-.694,1.091,2.926,2.926,0,0,0-.168.414c.009,0,.062-.14.2-.4a5.6,5.6,0,0,1,2.295-2.351,5.319,5.319,0,0,1,2.631-.639,5.461,5.461,0,0,1,1.579.253,6.754,6.754,0,0,1,1.572.768,8.015,8.015,0,0,0,1.71.881,2.741,2.741,0,0,0,1.019.13,4.38,4.38,0,0,0,1.031-.212,7.394,7.394,0,0,1,2.073-.5,4.481,4.481,0,0,1,2.16.464,4.381,4.381,0,0,1,2.395,3.835v.1l.1-.009a14.918,14.918,0,0,1,4.254.268,9.763,9.763,0,0,1,4.1,1.745,5.062,5.062,0,0,1,1.028,1.1,4.223,4.223,0,0,1,.59,1.358,3.836,3.836,0,0,1,.066,1.453,3,3,0,0,1-.543,1.305l-.088.119.144.032a6.119,6.119,0,0,1,4.472,7.856c-.238.735-.621,1.4-.883,2.1a2.977,2.977,0,0,0-.127,2.144,4.432,4.432,0,0,0,1.217,1.594,9.013,9.013,0,0,1,1.25,1.312,3.5,3.5,0,0,1,.477,2.938,3.361,3.361,0,0,1-1.329,1.837,3.588,3.588,0,0,1-1.33.577C796.206,3187.881,796.03,3187.881,796.031,3187.892Z" transform="translate(-764.467 -3154.243)" fill="#1a2e35"/></g><g transform="translate(8.446)"><path d="M691.1,3163.307a.539.539,0,0,0,.021-.122c.01-.091.024-.21.041-.36l.153-1.382c.073-.6.171-1.332.349-2.169a12.4,12.4,0,0,1,.9-2.752,8.221,8.221,0,0,1,2.094-2.773,6.089,6.089,0,0,1,1.663-.985,17.55,17.55,0,0,1,2-.539,5.811,5.811,0,0,0,2.039-.861,9.2,9.2,0,0,0,1.664-1.6c.508-.592.993-1.217,1.555-1.779a6.544,6.544,0,0,1,1.951-1.387,11.572,11.572,0,0,1,4.651-.9,30.167,30.167,0,0,1,4.456.261,22.854,22.854,0,0,1,7.215,2.154,16.208,16.208,0,0,1,4.135,2.948c.21.216.4.4.559.574l.38.448.237.273a.57.57,0,0,0,.086.089.549.549,0,0,0-.07-.1l-.222-.286-.367-.461c-.151-.177-.342-.367-.548-.589a15.806,15.806,0,0,0-4.126-3.017,22.708,22.708,0,0,0-7.253-2.209,30.005,30.005,0,0,0-4.484-.274,11.718,11.718,0,0,0-4.73.917,6.723,6.723,0,0,0-2.006,1.427c-.573.574-1.059,1.2-1.562,1.792a9.022,9.022,0,0,1-1.625,1.567,5.632,5.632,0,0,1-1.976.839,17.409,17.409,0,0,0-2.022.553,6.217,6.217,0,0,0-1.705,1.021,8.326,8.326,0,0,0-2.115,2.838,12.327,12.327,0,0,0-.879,2.788c-.169.845-.256,1.582-.318,2.183s-.1,1.07-.117,1.388c-.009.15-.016.27-.021.361A.6.6,0,0,0,691.1,3163.307Z" transform="translate(-691.1 -3145.507)" fill="#1a2e35"/></g><g transform="translate(32.267 42.387)"><path d="M742.334,3231.391a2.4,2.4,0,0,0-1.39-2.034,2.114,2.114,0,0,0-2.37.512,1.9,1.9,0,0,0-.119,2.278,2.071,2.071,0,0,0,.913.806,2.627,2.627,0,0,0,1.554.166,1.792,1.792,0,0,0,1.12-.609A1.681,1.681,0,0,0,742.334,3231.391Z" transform="translate(-738.131 -3229.193)" fill="#66312b"/></g><g transform="translate(31.272 41.465)"><path d="M740.551,3227.373c-.241.006-.111,1.61-1.39,2.862s-3,1.218-2.995,1.443c-.014.1.407.28,1.13.24a4.009,4.009,0,0,0,2.508-1.114,3.491,3.491,0,0,0,1.063-2.392C740.873,3227.736,740.661,3227.354,740.551,3227.373Z" transform="translate(-736.166 -3227.372)" fill="#1a2e35"/></g></g><path d="M743.339,3275.333l-12.448-4.721s-9.6,5.7-16.991,4.521c-5.732-.916-6.2-3.863-6.2-3.863l-6.9,1.112s-10.446,8.682-12.628,17.507c-1.289,5.212-1.6,12.037-1.6,18.026,0,2.395,3.052,11.87,3.052,11.87l1.184,13.714-5.771,22.854h60.2v-63.237Z" transform="translate(-619.83 -3207.246)" fill="#529ad9"/><path d="M658.6,3314.781l-8.741-21.891,25.086-17.476,8.494-1.308-2.209,30.984Z" transform="translate(-602.469 -3208.97)" fill="#529ad9"/><g transform="translate(66.615 77.066)"><path d="M690.432,3330.564a1.59,1.59,0,0,1-.159-.3c-.092-.2-.244-.5-.4-.9a24.745,24.745,0,0,1-1.119-3.431,35.8,35.8,0,0,1-.77-11.841,73.865,73.865,0,0,1,2.18-11.69c.381-1.473.71-2.659.942-3.477l.275-.941a1.683,1.683,0,0,1,.114-.323,1.636,1.636,0,0,1-.062.337c-.058.244-.134.56-.227.953l-.861,3.5a81.158,81.158,0,0,0-2.1,11.667,37.209,37.209,0,0,0,.689,11.774,28.363,28.363,0,0,0,1.033,3.438c.138.4.276.7.351.913A1.719,1.719,0,0,1,690.432,3330.564Z" transform="translate(-687.816 -3297.661)" fill="#1a2e35"/></g><g transform="translate(65.54 77.497)" opacity="0.3"><path d="M686.522,3318.876l.549-.394a61.312,61.312,0,0,1,3.263-19.972C686.262,3304.54,684.527,3312.133,686.522,3318.876Z" transform="translate(-685.693 -3298.511)"/></g><path d="M721.407,3332.19s8.638,31.964,13.448,37.825,7.44,7.612,14.863,8.2,10.175-7.993,11.824-11.341,1.347-8.373,1.347-8.373l-10.113-5.652-8,13.188-20.615-34.417Z" transform="translate(-637.778 -3237.354)" opacity="0.3"/><g transform="translate(82.103 67.543)"><path d="M724.078,3339.269s8.795,20.461,15.1,32.192c5.339,9.933,16.23,8.83,19.686,3.305S768.1,3352.7,768.1,3352.7l-18.372-3.228-2.045,5.82-13.929-17.76Z" transform="translate(-721.198 -3307.814)" fill="#924d42"/><path d="M736.3,3314.917l-1.352-6.119s-.617-1.694-1.625-.2-.539,4.313-.539,4.313-1.9-14.555-3.574-16.14c-.611-.579-1.449.217-1.449.217s-.2-2.846-1.087-2.828-1.736,2.14-1.736,2.14a1.59,1.59,0,0,0-1.98.451c-.781.948-.786,8.861-.786,8.861s-.743-6.519-1.91-6.93c-1.87-.659-1.87,1.822-1.87,1.822l.545,8.485a74.569,74.569,0,0,0,2.308,9.432c1.286,3.642,2.037,3.679,2.037,3.679l8.385-.223s1.892-1.731,3.383-3.069A4.049,4.049,0,0,0,736.3,3314.917Z" transform="translate(-718.393 -3286.411)" fill="#924d42"/><g transform="translate(14.974 33.08)"><path d="M765.12,3366.818a1.218,1.218,0,0,1-.142-.254l-.358-.745-.653-1.135c-.267-.434-.593-.917-.941-1.457-1.451-2.124-3.643-4.928-6.139-7.963s-4.8-5.75-6.419-7.759c-.81-1-1.449-1.829-1.878-2.409l-.479-.679a1.234,1.234,0,0,1-.152-.247,1.19,1.19,0,0,1,.2.215l.518.648c.453.559,1.113,1.366,1.94,2.353,1.652,1.976,3.977,4.673,6.479,7.71s4.674,5.866,6.091,8.027c.34.549.656,1.041.913,1.485.242.453.456.84.617,1.164l.316.771A1.166,1.166,0,0,1,765.12,3366.818Z" transform="translate(-747.957 -3344.17)" fill="#66312b"/></g><g transform="translate(26.032)"><path d="M783.246,3278.86a17.335,17.335,0,0,1,12.552,13.4c2.321,10.439,1.6,32.643,1.6,32.643l-27.311-4.807,6.644-37.91Z" transform="translate(-769.936 -3278.86)" fill="#529ad9"/><g transform="translate(0 18.112)"><path d="M773.816,3314.619a.422.422,0,0,1-.007.12c-.013.094-.027.209-.046.35q-.073.491-.2,1.342c-.189,1.188-.457,2.869-.787,4.943-.693,4.195-1.646,9.969-2.707,16.392l-.107-.151.893.159,16.951,3.06,5.131.958,1.393.273.361.077a.064.064,0,1,1,0,.026l-.366-.052-1.4-.225-5.146-.874-16.965-2.984-.893-.16-.129-.023.022-.129c1.091-6.418,2.073-12.188,2.786-16.379l.868-4.928q.157-.846.248-1.334c.029-.139.052-.253.071-.346A.415.415,0,0,1,773.816,3314.619Z" transform="translate(-769.788 -3314.619)" fill="#1a2e35"/></g><g transform="translate(5.557 3.919)"><path d="M780.761,3297.146a3.4,3.4,0,0,1,.208-.651c.152-.412.379-1.006.687-1.729a16.316,16.316,0,0,1,3.28-5.187,9.8,9.8,0,0,1,2.791-1.944,11.225,11.225,0,0,1,2.644-.844,10.6,10.6,0,0,1,1.858-.192,2.8,2.8,0,0,1,.683.032c0,.056-.979.014-2.5.343a10.651,10.651,0,0,0-5.287,2.793,17.409,17.409,0,0,0-3.295,5.076l-.763,1.692A3.376,3.376,0,0,1,780.761,3297.146Z" transform="translate(-780.758 -3286.597)" fill="#1a2e35"/></g></g><g transform="translate(6.14 9.889)"><path d="M730.765,3308.973a9.2,9.2,0,0,1-.137-1.55c-.051-.958-.106-2.284-.112-3.75a37.074,37.074,0,0,1,.151-3.753,6.755,6.755,0,0,1,.254-1.537,13.78,13.78,0,0,1-.068,1.551c-.052.955-.08,2.277-.074,3.739.013,1.421.025,2.705.035,3.745A8.961,8.961,0,0,1,730.765,3308.973Z" transform="translate(-730.516 -3298.384)" fill="#66312b"/></g><g transform="translate(9.04 10.678)"><path d="M736.361,3299.942a6.617,6.617,0,0,1,.081,1.265c.023.781.056,1.858.117,3.048s.14,2.265.2,3.044a6.727,6.727,0,0,1,.05,1.267,5.53,5.53,0,0,1-.236-1.248c-.1-.776-.213-1.855-.275-3.049s-.065-2.278-.04-3.061A5.59,5.59,0,0,1,736.361,3299.942Z" transform="translate(-736.241 -3299.942)" fill="#66312b"/></g></g></g><g transform="translate(188.019 3065.444)"><path d="M342.072,3162.9c-.677-4.508-1.793-9.437-4.768-12.89a28.325,28.325,0,0,0-7.067-6.1,19.836,19.836,0,0,0-8.888-2.758l-2.116,1.875a26.026,26.026,0,0,1,16.119,12.388,30.918,30.918,0,0,1,3.422,20.209c-.737,4.5-2.373,8.8-3.617,13.189s-2.1,9.023-1.239,13.5c3.722-1.446,2.671,1,4.241-2.672s2.387-11.751,3.3-15.639A61.748,61.748,0,0,0,342.072,3162.9Z" transform="translate(-254.434 -3139.836)" fill="#a0a603"/><g transform="translate(39.597 1.334)"><g transform="translate(0.205)"><path d="M314.068,3152.883c-5.707-8.869-19.027-11.6-19.027-11.6-19.5-1.395-22.984,13.589-24.952,27.238-1.224,8.487,3.278,35,3.278,35l4.779,1.726,31.379-.012c-.016-.572,2.22-5.376,2.768-6.941C315.178,3184.1,317.425,3158.1,314.068,3152.883Z" transform="translate(-269.878 -3141.19)" fill="#1a2e35"/><path d="M358.844,3256.636h0Z" transform="translate(-313.783 -3198.162)" fill="#1a2e35"/></g><path d="M307.617,3150.27l-1.22-1.162-13.184,5.313a3.68,3.68,0,0,0-3.475,3.563l.115,42.958a12.04,12.04,0,0,0,2.326,7.758l1.852,2.445a9.725,9.725,0,0,0,16.25-1.026,4.689,4.689,0,0,0,.466-1.111,8.692,8.692,0,0,0,.2-.96c.393-3.456.415-6.452.415-6.452.235-3.795.313-5.352.313-5.316,0,0,8.075-.928,10.258-11.294,1.086-5.155.881-12.247.576-19.227C322.082,3156.1,315.382,3150.261,307.617,3150.27Z" transform="translate(-279.475 -3145.098)" fill="#ffc19d"/><g transform="translate(23.078 21.875)"><g transform="translate(0 3.947)"><path d="M317.718,3193.449a1.342,1.342,0,0,1-1.36,1.288,1.283,1.283,0,0,1-1.32-1.277,1.342,1.342,0,0,1,1.358-1.288A1.284,1.284,0,0,1,317.718,3193.449Z" transform="translate(-315.038 -3192.171)" fill="#1a2e35"/></g><g transform="translate(13.28 4.397)"><path d="M343.939,3194.339a1.341,1.341,0,0,1-1.36,1.287,1.283,1.283,0,0,1-1.321-1.277,1.342,1.342,0,0,1,1.358-1.288A1.284,1.284,0,0,1,343.939,3194.339Z" transform="translate(-341.258 -3193.061)" fill="#1a2e35"/></g><g transform="translate(13.281)"><path d="M346.551,3185.923c-.175.167-1.153-.635-2.595-.7-1.439-.089-2.535.6-2.682.415-.073-.082.112-.389.589-.7a3.689,3.689,0,0,1,2.159-.548,3.542,3.542,0,0,1,2.054.778C346.5,3185.526,346.637,3185.849,346.551,3185.923Z" transform="translate(-341.258 -3184.379)" fill="#1a2e35"/></g></g><g transform="translate(21.786 21.732)"><path d="M317.72,3185.933c-.192.147-1.083-.751-2.51-.967-1.422-.236-2.583.336-2.711.138-.064-.09.15-.376.659-.637a3.675,3.675,0,0,1,2.2-.324,3.537,3.537,0,0,1,1.963.985C317.711,3185.532,317.812,3185.869,317.72,3185.933Z" transform="translate(-312.488 -3184.097)" fill="#1a2e35"/></g><g transform="translate(31.979 22.018)"><path d="M332.688,3196.708a9.578,9.578,0,0,1,2.363-.3c.37-.02.722-.075.8-.323a1.877,1.877,0,0,0-.191-1.1l-.949-2.859c-1.312-4.068-2.242-7.406-2.078-7.457s1.361,3.2,2.673,7.272q.472,1.5.9,2.873a2.132,2.132,0,0,1,.118,1.455.927.927,0,0,1-.633.509,2.478,2.478,0,0,1-.63.055A9.322,9.322,0,0,1,332.688,3196.708Z" transform="translate(-332.612 -3184.661)" fill="#1a2e35"/></g><g transform="translate(18.39 46.745)"><path d="M319.588,3237.915a26.614,26.614,0,0,1-13.806-4.434s3.155,7.41,13.662,6.956Z" transform="translate(-305.782 -3233.481)" fill="#ff9c6a"/></g><g transform="translate(26.923 36.425)"><path d="M326.978,3214.19a2.6,2.6,0,0,0-2.281-1.082,2.374,2.374,0,0,0-1.682.8,1.5,1.5,0,0,0-.2,1.713,1.747,1.747,0,0,0,1.866.572,5.471,5.471,0,0,0,1.9-1.007,1.588,1.588,0,0,0,.433-.406.482.482,0,0,0,.025-.537" transform="translate(-322.629 -3213.104)" fill="#ff9c6a"/></g><g transform="translate(27.485 34.85)"><path d="M324.017,3210c.235,0,.16,1.563,1.443,2.741s2.958,1.09,2.96,1.309c.017.1-.387.285-1.092.269a3.9,3.9,0,0,1-2.475-1,3.4,3.4,0,0,1-1.11-2.294C323.716,3210.361,323.91,3209.982,324.017,3210Z" transform="translate(-323.74 -3209.996)" fill="#1a2e35"/></g><g transform="translate(21.787 16.387)"><path d="M319.1,3175.1c-.2.366-1.6-.036-3.3-.091-1.7-.089-3.13.194-3.3-.188-.074-.182.217-.511.821-.8a5.743,5.743,0,0,1,5.029.212C318.926,3174.577,319.189,3174.93,319.1,3175.1Z" transform="translate(-312.489 -3173.544)" fill="#1a2e35"/></g><g transform="translate(36.546 15.6)"><path d="M346.527,3173.615c-.27.314-1.246-.075-2.44-.151-1.191-.118-2.217.11-2.432-.245-.094-.171.082-.491.539-.779a3.539,3.539,0,0,1,3.926.319C346.525,3173.115,346.647,3173.46,346.527,3173.615Z" transform="translate(-341.63 -3171.99)" fill="#1a2e35"/></g><path d="M288.255,3175.63s7.386,2.3,11.565-15.929c1.429-6.233,7.207-11.28,7.207-11.28l-2.343-.7s-14.564,4.1-14.809,4.287-3.674,7.533-3.674,7.533Z" transform="translate(-277.729 -3144.411)" fill="#1a2e35"/><g transform="translate(4.759 27.555)"><path d="M286.458,3198.578c.037-.778-.77-2.658-1.533-2.816-2.036-.423-5.743-.443-6.038,4.767-.4,7.122,6.829,6.059,6.853,5.855C285.758,3206.224,286.329,3201.266,286.458,3198.578Z" transform="translate(-278.87 -3195.593)" fill="#ffc19d"/></g><g transform="translate(6.571 29.812)"><path d="M285.483,3205.76c-.03-.024-.129.08-.344.164a1.244,1.244,0,0,1-.929-.033,3.074,3.074,0,0,1-1.264-2.835,4.1,4.1,0,0,1,.448-1.757,1.433,1.433,0,0,1,.987-.9.633.633,0,0,1,.713.381c.084.2.03.345.068.359.019.019.16-.11.119-.408a.791.791,0,0,0-.255-.462.939.939,0,0,0-.676-.221,1.747,1.747,0,0,0-1.358,1.031,4.219,4.219,0,0,0-.543,1.961c-.036,1.438.622,2.822,1.635,3.178a1.332,1.332,0,0,0,1.145-.124C285.46,3205.932,285.506,3205.775,285.483,3205.76Z" transform="translate(-282.447 -3200.048)" fill="#ff9c6a"/></g><path d="M300.147,3173.5a10.718,10.718,0,0,0,1.067-.216,6.431,6.431,0,0,0,2.536-1.472,8.8,8.8,0,0,0,1.323-1.549,11.931,11.931,0,0,0,1.076-2.081,44.7,44.7,0,0,0,1.534-5.18c.5-1.857,1.043-3.612,1.638-5.171a29.754,29.754,0,0,1,1.856-4.023,21.5,21.5,0,0,1,1.631-2.5c.211-.283.394-.488.511-.632a.142.142,0,1,1,.03.024c-.107.151-.281.363-.481.651a24.281,24.281,0,0,0-1.573,2.523,31.164,31.164,0,0,0-1.81,4.021c-.583,1.556-1.119,3.305-1.618,5.159a42.754,42.754,0,0,1-1.555,5.2,11.879,11.879,0,0,1-1.107,2.1,8.807,8.807,0,0,1-1.363,1.561,6.3,6.3,0,0,1-2.606,1.443A3.932,3.932,0,0,1,300.147,3173.5Z" transform="translate(-284.611 -3145.766)" fill="#1a2e35"/><path d="M276.22,3200.757a17.529,17.529,0,0,0,.156-2.489,38.6,38.6,0,0,0-.69-6.764c-.254-1.414-.532-2.961-.831-4.621a44.282,44.282,0,0,1-.638-5.336,21.774,21.774,0,0,1,.431-5.894,14.935,14.935,0,0,1,1-2.957,14.139,14.139,0,0,1,1.686-2.737,33.052,33.052,0,0,1,4.485-4.517c1.56-1.352,3.056-2.678,4.384-4.038a55.273,55.273,0,0,0,6.4-7.791,53.791,53.791,0,0,0,3.471-5.849c.365-.716.635-1.278.807-1.664l.2-.437a1,1,0,0,0,.062-.152,1.028,1.028,0,0,0-.079.143c-.053.1-.125.247-.217.429-.184.381-.465.937-.839,1.646a57.082,57.082,0,0,1-3.517,5.806,56.2,56.2,0,0,1-6.418,7.742c-1.329,1.353-2.819,2.67-4.382,4.021a33.026,33.026,0,0,0-4.514,4.542,14.346,14.346,0,0,0-1.707,2.774,15.118,15.118,0,0,0-1.012,3,21.888,21.888,0,0,0-.424,5.946,43.884,43.884,0,0,0,.658,5.356l.854,4.617a40.3,40.3,0,0,1,.75,6.74c.01.8-.017,1.424-.045,1.845-.013.2-.024.363-.031.479A1,1,0,0,0,276.22,3200.757Z" transform="translate(-271.708 -3143.322)" fill="#375a64"/><path d="M271.695,3202.079a17.454,17.454,0,0,0,.157-2.489,38.6,38.6,0,0,0-.69-6.764l-.831-4.621a44.186,44.186,0,0,1-.638-5.337,21.791,21.791,0,0,1,.431-5.894,14.941,14.941,0,0,1,1-2.958,14.179,14.179,0,0,1,1.686-2.737,33.089,33.089,0,0,1,4.485-4.516c1.56-1.352,3.056-2.678,4.384-4.038a55.271,55.271,0,0,0,6.4-7.791,53.747,53.747,0,0,0,3.471-5.849c.364-.716.635-1.278.807-1.664l.2-.438a1.028,1.028,0,0,0,.062-.152,1.056,1.056,0,0,0-.08.143l-.216.429c-.184.38-.465.936-.839,1.645a57.114,57.114,0,0,1-3.517,5.806,56.148,56.148,0,0,1-6.418,7.742c-1.329,1.353-2.819,2.669-4.383,4.021a33.033,33.033,0,0,0-4.513,4.541,14.328,14.328,0,0,0-1.707,2.774,15.128,15.128,0,0,0-1.013,3,21.869,21.869,0,0,0-.424,5.946,43.886,43.886,0,0,0,.658,5.356l.854,4.617a40.3,40.3,0,0,1,.75,6.74c.01.8-.017,1.424-.046,1.845l-.031.48A1.063,1.063,0,0,0,271.695,3202.079Z" transform="translate(-269.475 -3143.974)" fill="#375a64"/></g><path d="M253.478,3408.921s-.664-5.927,3.127-15.832a49.671,49.671,0,0,1,6.754-12.6l49.111-3.236,3.786,31.664Z" transform="translate(-221.962 -3256.355)" fill="#1a2e35"/><g transform="translate(0 59.017)"><path d="M281.246,3298.546c.722-10.938,0-27.517,0-27.517l-8.112-13.608-10.685-1.676s-.026,7.475-5.615,8.711c-9.556,2.114-15.786-9.381-15.786-9.381-.9,0-14.5,2.856-18.81,6.958-4.427,4.214-11.756,15.391-13.821,18.595h0S194.1,3301.536,192,3307.272a10.4,10.4,0,0,0,.7,9.023c.435,1.294,13.689,20.3,23.94,27.891l.8-1.516,5.325-9.129-13.79-22.66,16-16.849,3.143-2.955.9,3.979,3.881,18.7s-7.731,15.452-8.813,23.485c0,0,38,13.1,61.452,6.63C285.543,3343.872,280.524,3309.484,281.246,3298.546Z" transform="translate(-191.297 -3255.076)" fill="#ececec"/><g transform="translate(26.147 72.942)"><path d="M266.755,3400.509s-6.43-1.736-7.079-1.37-5.448,2.9-5.448,2.9a24.623,24.623,0,0,1-2.267,2.456s-1.648,1.564-2.786,1.615a5.037,5.037,0,0,1-1.807-.194l-4.448,7.827s2.639,2.514,4.035,2.49,9.147-3.284,9.147-3.284l1.872-.408s7.03,1.017,7.606-1.1l.065-.6-6.908-1.351-2.628.153,4.657-1.2s6.582.32,7.2.213,1.412-.98,1.209-1.524l-1.359-.32s1.6-.868,1.645-1.82l-6.086-1.648S267.3,3401.874,266.755,3400.509Z" transform="translate(-242.92 -3399.088)" fill="#ffc19d"/><g transform="translate(11.788 5.524)"><path d="M280.028,3412.165a2.577,2.577,0,0,1-.559-.14c-.354-.1-.869-.245-1.507-.411-1.277-.332-3.053-.753-5.021-1.189a6.262,6.262,0,0,0-.714-.138,2.183,2.183,0,0,0-.677.047c-.438.121-.884.274-1.293.411-.824.282-1.556.563-2.16.824a15.382,15.382,0,0,0-1.4.681,3.219,3.219,0,0,1-.5.275,1.722,1.722,0,0,1,.445-.37,10.446,10.446,0,0,1,1.373-.772c.6-.288,1.331-.591,2.157-.889.418-.147.839-.3,1.317-.434a2.449,2.449,0,0,1,.764-.059,6.367,6.367,0,0,1,.753.143c1.971.437,3.745.89,5.013,1.274.634.192,1.143.363,1.489.5A1.994,1.994,0,0,1,280.028,3412.165Z" transform="translate(-266.194 -3409.993)" fill="#ff9c6a"/></g><g transform="translate(11.912 3.46)"><path d="M275.136,3407c-.023.043-.487-.223-1.3-.472a7.3,7.3,0,0,0-6.3.929c-.7.472-1.07.861-1.1.826a3.489,3.489,0,0,1,.987-.992,6.825,6.825,0,0,1,6.478-.956A3.481,3.481,0,0,1,275.136,3407Z" transform="translate(-266.439 -3405.919)" fill="#ff9c6a"/></g></g><path d="M393.774,3285.939,368.7,3267.273l-9.363-6.162-6.917-1.406,2.939,29.23h6.5l27.954,12.152,34.244,2.905.5-10.614Z" transform="translate(-270.813 -3257.361)" fill="#ececec"/><g transform="translate(86.64 13.923)"><path d="M366.119,3324.923a2.689,2.689,0,0,1-.036-.433q-.02-.462-.054-1.245c-.042-1.081-.087-2.645-.122-4.578s-.061-4.236-.064-6.792.024-5.367-.022-8.313a65.723,65.723,0,0,0-2-14.916c-.442-1.881-.828-3.4-1.087-4.446l-.295-1.209a2.783,2.783,0,0,1-.086-.427,2.634,2.634,0,0,1,.137.413l.342,1.2c.29,1.042.7,2.551,1.169,4.429a62.777,62.777,0,0,1,2.081,14.955c.046,2.952.007,5.762,0,8.317s-.006,4.857.008,6.79c.016,1.914.028,3.472.037,4.578q0,.782,0,1.245A2.665,2.665,0,0,1,366.119,3324.923Z" transform="translate(-362.353 -3282.564)" fill="#1a2e35"/></g><g transform="translate(84.862 10.308)" opacity="0.3"><path d="M364.226,3297.246a23.337,23.337,0,0,0-5.382-21.818,76.119,76.119,0,0,1,5.446,21.385" transform="translate(-358.844 -3275.428)"/></g></g><path d="M293.689,3140.208c-15.7,1.409-16.318,20.6-18.406,35.737-2.982,21.627,12.844,26.272,12.844,26.272l-19.659-3.685s-10.754-4.353-10.676-16.291,1.953-26.549,14.47-37.655C283.07,3135,292.7,3139.553,293.689,3140.208Z" transform="translate(-224.112 -3138.556)" fill="#a0a603"/><path d="M313.24,3243.147c-1.186-1.071-.726-1.482-4.12-1.795-3.832-.353-8.113,2.1-11.928,2.609a16.2,16.2,0,0,1-11.092-2.134c-3.754-2.5-5.8-6.819-7.676-10.924l-9.218,7.583a7.445,7.445,0,0,0-2.767,6,2.545,2.545,0,0,0,.218,1.137c.538.811,4.494-1.1,5.292-.544,4.223,2.954,6.022,7.644,9.89,11.048,4.524,3.98,8.707,7.139,11.893,7.029,3.125-.108,9.064-3.483,11.174-7.392,1.95-3.612,3.653-6.246,5.184-9,.808-1.455,3.619.592,3.957-1.139A2.684,2.684,0,0,0,313.24,3243.147Z" transform="translate(-228.377 -3184.129)" fill="#a0a603"/><g transform="translate(33.677 81.567)"><path d="M257.789,3299.6a2.015,2.015,0,0,1,.114.359q.1.395.276,1.042l.952,3.849c.787,3.254,1.845,7.756,2.965,12.74s2.085,9.509,2.727,12.8c.32,1.644.556,2.978.708,3.9.063.443.113.8.151,1.068a1.965,1.965,0,0,1,.035.375,2.012,2.012,0,0,1-.088-.366c-.05-.268-.117-.619-.2-1.059l-.789-3.883c-.688-3.275-1.683-7.791-2.8-12.775l-2.889-12.755-.871-3.868c-.094-.438-.17-.787-.227-1.053A2.023,2.023,0,0,1,257.789,3299.6Z" transform="translate(-257.787 -3299.596)" fill="#1a2e35"/></g><g transform="translate(39.006 56.324)"><path d="M314.165,3254.436a.428.428,0,0,1-.1.07l-.316.182a13.433,13.433,0,0,1-1.241.65,22.727,22.727,0,0,1-4.884,1.636,39.043,39.043,0,0,1-7.591.861c-2.878.089-6.042-.061-9.349-.275-1.657-.108-3.275-.269-4.823-.51s-3.029-.56-4.425-.915a39.16,39.16,0,0,1-7.176-2.629,31.937,31.937,0,0,1-4.446-2.6c-.507-.336-.867-.644-1.125-.834l-.286-.226a.463.463,0,0,1-.092-.084.426.426,0,0,1,.108.063l.3.2c.267.176.636.47,1.151.792a34.889,34.889,0,0,0,4.468,2.519,40.179,40.179,0,0,0,7.156,2.561c1.39.347,2.863.653,4.4.9s3.148.394,4.8.5c3.306.215,6.46.371,9.327.3a40.092,40.092,0,0,0,7.558-.8,24.087,24.087,0,0,0,4.881-1.546c.565-.221.966-.474,1.258-.6l.328-.158A.477.477,0,0,1,314.165,3254.436Z" transform="translate(-268.308 -3249.759)" fill="#1a2e35"/></g><g transform="translate(42.47 22.895)"><path d="M287.413,3223.923a.385.385,0,0,1-.1-.061l-.279-.2-1.057-.792c-.458-.346-.992-.8-1.625-1.315-.313-.261-.633-.557-.981-.862s-.709-.635-1.073-1a28.283,28.283,0,0,1-4.577-5.565,17.274,17.274,0,0,1-2.561-8.4,30.141,30.141,0,0,1,1.2-8.739c.694-2.625,1.451-4.946,2.061-6.9.6-1.939,1.092-3.516,1.438-4.634l.382-1.263.105-.327a.4.4,0,0,1,.045-.109.371.371,0,0,1-.018.116l-.081.334q-.123.471-.334,1.276c-.3,1.106-.763,2.7-1.358,4.661s-1.326,4.29-2,6.908a30.413,30.413,0,0,0-1.168,8.667,17.18,17.18,0,0,0,2.506,8.282,28.853,28.853,0,0,0,4.5,5.557q.538.547,1.056,1.006c.342.309.656.609.964.874.622.523,1.146.99,1.593,1.347l1.025.83.263.222C287.388,3223.891,287.416,3223.919,287.413,3223.923Z" transform="translate(-275.147 -3183.759)" fill="#1a2e35"/></g><g transform="translate(57.528 1.642)"><path d="M316.926,3141.809c.006.055-.818.1-2.079.46a14.067,14.067,0,0,0-2.147.825,19.988,19.988,0,0,0-2.428,1.433,28.486,28.486,0,0,0-3.9,3.34c-.925.939-1.464,1.555-1.5,1.527a2.433,2.433,0,0,1,.336-.468c.228-.292.576-.7,1.025-1.187a24.106,24.106,0,0,1,3.883-3.428,18.187,18.187,0,0,1,2.474-1.436,12.713,12.713,0,0,1,2.2-.786,7.315,7.315,0,0,1,.879-.183,4.384,4.384,0,0,1,.672-.083A2.368,2.368,0,0,1,316.926,3141.809Z" transform="translate(-304.877 -3141.798)" fill="#1a2e35"/></g><g transform="translate(40.932 15.726)" opacity="0.3"><path d="M280.687,3171.933a12.672,12.672,0,0,0,.3-1.449.79.79,0,0,0-1.525-.368l-3.11,8.247c-2.049,5.436-4.126,11-4.234,16.812s1.745,12.269,6.656,15.371L277.345,3208c-3.7-5.079-3.807-11.995-2.391-18.119S279.118,3178.019,280.687,3171.933Z" transform="translate(-272.111 -3169.604)"/></g><g transform="translate(71.036 57.091)"><path d="M345.654,3256.575c-.024-.013.124-.229.232-.671a3.12,3.12,0,0,0-.165-1.874,3.733,3.733,0,0,0-1.942-1.952,6.626,6.626,0,0,0-3.409-.511,26.6,26.6,0,0,0-3.481.6c-1.062.243-2.008.5-2.8.743s-1.422.453-1.859.6a4.1,4.1,0,0,1-.687.21,3.552,3.552,0,0,1,.651-.306c.427-.178,1.053-.419,1.839-.682s1.732-.545,2.8-.8a24.542,24.542,0,0,1,3.517-.625,6.729,6.729,0,0,1,3.534.555,3.876,3.876,0,0,1,2.011,2.1,3.091,3.091,0,0,1,.089,1.968,2.315,2.315,0,0,1-.217.494C345.7,3256.529,345.663,3256.58,345.654,3256.575Z" transform="translate(-331.546 -3251.272)" fill="#1a2e35"/></g><g transform="translate(43.599 59.286)" opacity="0.3"><path d="M313.7,3259.639a36.142,36.142,0,0,1-19.261,2.819c-6.516-.846-11.945-2.731-17.063-6.852,0,0,8.16,4.712,20.827,4.812C308.731,3260.5,313.7,3259.639,313.7,3259.639Z" transform="translate(-277.376 -3255.606)"/></g></g></g></svg>