<svg xmlns="http://www.w3.org/2000/svg" width="380.151" height="232.465" viewBox="0 0 380.151 232.465"><g transform="translate(-125.5 -418.05)"><g transform="translate(143.273 486.068)"><g transform="translate(2.55)"><path d="M493.125,588.64c18.416,32.955-8.233,97.615-177.242,52.678-84.738-22.531-148.035,28.224-161.079-7.2C124.422,551.594,248.5,456.135,317.5,522.78,380.562,583.7,459.606,528.66,493.125,588.64Z" transform="translate(-150.1 -500.38)" fill="none" stroke="#e4e4e4" stroke-miterlimit="10" stroke-width="4" stroke-dasharray="32.088 32.088"/></g><path d="M491.617,665.283h-344.6C157.8,585.6,230.821,523.97,319.315,523.97S480.833,585.6,491.617,665.283Z" transform="translate(-147.013 -504.481)" fill="#f6f5f5"/></g><g transform="translate(302.415 418.05)"><rect width="151.47" height="207.779" rx="13.226" transform="translate(0 20.34)" fill="#a0e3e6"/><g transform="translate(6.786 28.714)"><rect width="124.671" height="181.1" transform="translate(6.903)" fill="#f6f5f5"/><path d="M480.882,452.807c.039,70.619,2.318,155.789-5.614,174.647-34.94,3.4-75.851,4.5-119.059,4.7l16.424-178.8Z" transform="translate(-349.308 -452.806)" fill="#e4e4e4"/><path d="M468.232,621.748c-54.459,8.716-90.856,9.175-120.376,6.984,3.825-40.722,5.359-108.373,6.9-175.915l65.624.145,59.393,3.921C480.639,526.985,480.734,591.739,468.232,621.748Z" transform="translate(-347.856 -452.808)" fill="#fff"/><g transform="translate(19.449 16.702)"><rect width="65.603" height="9.993" transform="translate(16.1 0) rotate(1.348)" fill="#80c3d5"/><g transform="translate(34.829 24.597)"><rect width="59.173" height="4.574" transform="matrix(1, 0.024, -0.024, 1, 0.342, 0)" fill="#80c3d5"/><rect width="40.221" height="4.574" transform="translate(0.108 9.97) rotate(1.348)" fill="#d3dfff"/></g><rect width="14.008" height="14.008" transform="matrix(1, 0.024, -0.024, 1, 2.526, 24.098)" fill="#fff" stroke="#80c3d5" stroke-miterlimit="10" stroke-width="6"/><g transform="translate(4.781 19.495)"><path d="M377.212,504.907c.433,1.656,1.231,8.589,4.7,6.65a10.574,10.574,0,0,0,2.078-2.308l3.23-3.668,6.461-7.335c.552-.626-1.885-2.2-2.578-1.411l-5.743,6.519-2.871,3.26c-.664.754-2.2,3.186-3.186,3.4l1.608.52c.378.311-.325-1.892-.34-1.952l-.8-3.068c-.221-.845-2.887-1.861-2.56-.609Z" transform="translate(-377.184 -496.619)" fill="#6f7302"/></g><g transform="translate(34.23 50.058)"><rect width="48.728" height="4.574" transform="translate(0.342 0) rotate(1.348)" fill="#80c3d5"/><rect width="59.173" height="4.574" transform="translate(0.108 9.97) rotate(1.348)" fill="#d3dfff"/></g><rect width="14.008" height="14.008" transform="matrix(1, 0.024, -0.024, 1, 1.927, 49.559)" fill="#fff" stroke="#80c3d5" stroke-miterlimit="10" stroke-width="6"/><g transform="translate(4.173 45.351)"><path d="M376.476,536.2c.432,1.655,1.231,8.589,4.7,6.65a10.576,10.576,0,0,0,2.077-2.309l3.23-3.667,6.461-7.335c.552-.627-1.884-2.2-2.578-1.412l-5.743,6.52-2.872,3.26c-.664.754-2.2,3.186-3.186,3.4l1.608.519c.379.311-.325-1.892-.34-1.951l-.8-3.068c-.221-.844-2.887-1.861-2.559-.608Z" transform="translate(-376.448 -527.915)" fill="#6f7302"/></g><g transform="translate(33.63 75.519)"><rect width="59.173" height="4.574" transform="translate(0.342 0) rotate(1.348)" fill="#80c3d5"/><rect width="26.463" height="4.574" transform="translate(0.108 9.97) rotate(1.348)" fill="#d3dfff"/></g><rect width="14.008" height="14.008" transform="matrix(1, 0.024, -0.024, 1, 1.328, 75.02)" fill="#fff" stroke="#80c3d5" stroke-miterlimit="10" stroke-width="6"/><g transform="translate(3.763 70.992)"><path d="M375.98,567.241c.433,1.656,1.231,8.589,4.7,6.65a10.557,10.557,0,0,0,2.078-2.309l3.23-3.667,6.461-7.335c.552-.626-1.885-2.2-2.578-1.412l-5.743,6.52-2.872,3.26c-.664.754-2.2,3.186-3.186,3.4l1.608.52c.378.311-.325-1.892-.34-1.952l-.8-3.068c-.221-.845-2.887-1.861-2.56-.609Z" transform="translate(-375.953 -558.952)" fill="#6f7302"/></g><g transform="translate(33.031 100.98)"><rect width="59.173" height="4.574" transform="translate(0.342 0) rotate(1.348)" fill="#80c3d5"/><rect width="46.745" height="4.574" transform="matrix(1, 0.024, -0.024, 1, 0.108, 9.97)" fill="#d3dfff"/></g><rect width="14.008" height="14.008" transform="matrix(1, 0.024, -0.024, 1, 0.728, 100.481)" fill="#fff" stroke="#80c3d5" stroke-miterlimit="10" stroke-width="6"/><g transform="translate(3.168 96.287)"><path d="M375.26,597.857c.432,1.656,1.231,8.59,4.7,6.651a10.577,10.577,0,0,0,2.078-2.309l3.229-3.667,6.461-7.335c.552-.626-1.884-2.2-2.578-1.411l-5.743,6.52-2.871,3.259c-.664.754-2.2,3.187-3.186,3.4l1.607.52c.379.311-.325-1.892-.34-1.952l-.8-3.068c-.221-.845-2.887-1.86-2.559-.609Z" transform="translate(-375.232 -589.569)" fill="#6f7302"/></g><g transform="translate(32.437 126.248)"><rect width="23.456" height="4.574" transform="matrix(1, 0.024, -0.024, 1, 0.342, 0)" fill="#80c3d5"/><path d="M469.924,639.3,410.767,637.9l-.107,4.573c22.887.537,52.028,1.609,57.974.7A5.129,5.129,0,0,0,469.924,639.3Z" transform="translate(-410.66 -627.933)" fill="#d3dfff"/></g><rect width="14.008" height="14.008" transform="translate(0.33 125.754) rotate(1.348)" fill="#fff" stroke="#80c3d5" stroke-miterlimit="10" stroke-width="6"/><g transform="translate(2.578 121.359)"><path d="M374.546,628.205c.432,1.656,1.231,8.59,4.7,6.651a10.556,10.556,0,0,0,2.078-2.309l3.23-3.667,6.461-7.335c.552-.626-1.885-2.2-2.578-1.411l-5.743,6.52-2.872,3.26c-.664.754-2.2,3.187-3.186,3.4l1.608.519c.379.311-.325-1.892-.34-1.951q-.4-1.534-.8-3.068c-.221-.845-2.887-1.86-2.559-.609Z" transform="translate(-374.518 -619.917)" fill="#6f7302"/></g></g></g><g transform="translate(43.098)"><path d="M453.482,439.648v13.978H397.324V439.648a8.068,8.068,0,0,1,2.364-5.71,6.659,6.659,0,0,1,.571-.511,8.015,8.015,0,0,1,5.14-1.852,9.508,9.508,0,0,0,4.127-.941,9.958,9.958,0,0,0,1.553-.935,9.509,9.509,0,0,0,3.446-4.887,9.543,9.543,0,0,1,9.126-6.762h3.505a9.543,9.543,0,0,1,9.126,6.762,9.509,9.509,0,0,0,3.446,4.887,9.96,9.96,0,0,0,1.553.935,9.509,9.509,0,0,0,4.128.941,8.084,8.084,0,0,1,8.074,8.073Z" transform="translate(-392.767 -418.05)" fill="#6f7302"/><path d="M457.081,452.806V463.2H391.808V452.806h4.557v6.862h56.158v-6.862Z" transform="translate(-391.808 -424.092)" fill="#e4e4e4"/><ellipse cx="4.981" cy="4.734" rx="4.981" ry="4.734" transform="translate(27.656 3.644)" fill="#fff"/></g></g><g transform="translate(162.504 458.699)"><g transform="translate(103.35 15.607)"><path d="M300.059,503.706c-1.992-.377-3.853-3.7-4.5-4.981a1.584,1.584,0,0,1-.143-1.013l.793-4.2s1.829.311,1.688,2.747a1.786,1.786,0,0,0,.127.742l.7,1.832,2.07-1.6-1.135-3.206a5.513,5.513,0,0,1-2.3.167c-1.61-.514.5-1.77,1.169-1.9s2.137-.668,2.8.467,1.068,1.8,1.068,1.8.734-2.538.234-8.215c-.022-.255.617-.25.8-.067.538.548,1.395,2.213,1.44,7.279,0,0,.089-5.9,1.1-6.511.834-.5,1.256,2.388.668,7.289,0,0,1.09-4.243,1.869-4.251,1.316-.012.017,11.332-3.29,14.713Z" transform="translate(-295.387 -486.144)" fill="#f9b384"/><path d="M306.589,505.3q-.088.846-.194,1.64v.007a47.518,47.518,0,0,1-.87,5c-.017.07-.03.135-.047.2-1.005,4.122-1.188,6.139-4.622,5.6l-3.533-4.023-.036-.04-.259-.294.717-2.117.094-.276.53-1.541.064-.2.905-2.652.364-1.076Z" transform="translate(-295.672 -489.474)" fill="#f9b384"/></g><g transform="translate(37.714 170.463)"><path d="M226.836,682.579l-.9,2.811c-6.169,2.027-9.766,4.348-10,7.057h17.837l1.43-9.414A13.832,13.832,0,0,1,226.836,682.579Z" transform="translate(-215.94 -675.148)" fill="#357888"/><path d="M231.365,674.119l-2.236,6.989a13.833,13.833,0,0,0,8.371.454l.922-6.071Z" transform="translate(-218.233 -673.678)" fill="#f9b384"/><path d="M267,680.7l.523-7.119-8.38.441-.458,6.563A13.715,13.715,0,0,0,267,680.7Z" transform="translate(-223.371 -673.585)" fill="#f9b384"/><path d="M276.928,692.358c-.23-2.709-3.382-6.42-10.291-7.3l.212-2.878a13.714,13.714,0,0,1-8.314-.115l-.718,10.295Z" transform="translate(-223.22 -675.059)" fill="#357888"/></g><path d="M258.4,506.411l-10.108.071V491.192h9.8l.006.935.047,4.845.071,7.78Z" transform="translate(-183.851 -471.415)" fill="#f9b384"/><path d="M258.422,498.059c-1.818,1.911-6.557-.247-8.557-2.353l8.509-2.493Z" transform="translate(-184.124 -471.766)" fill="#e28b6d"/><path d="M259.7,484.778a21.828,21.828,0,0,1-.265,3.44c-.493,3.082-1.8,5.745-4.81,5.828-7.115.206-9.144-3.863-10.485-7.192s.835-11.349.835-11.349l9.208-.912,5.058,4.146A37.817,37.817,0,0,1,259.7,484.778Z" transform="translate(-183.052 -468.529)" fill="#f9b384"/><path d="M243.482,483.672s2.03-.093,2.377-5.334a7.173,7.173,0,0,0,8.384-2.31,4.853,4.853,0,0,0,8.509-1.739c1.225-3.5-2.155-8.723-7.081-5.562-4.826-2.438-12.147-2.271-14.254,3.71,0,0-7.323,3.377.431,10.811A8.931,8.931,0,0,0,243.482,483.672Z" transform="translate(-182.111 -467.253)" fill="#234148"/><path d="M274.519,576.125l-5.587,84.487H255.8l3.283-81.983,2.009-.931Z" transform="translate(-185.156 -486.179)" fill="#234148"/><path d="M235.117,560.813,225.9,656.86h14.309l13.623-79.778,15.485-4.7.686-17.053-34.5-.784Z" transform="translate(-179.959 -482.427)" fill="#357888"/><path d="M238.931,560.342c7.815,2.806,26.153-.4,29.96-4.309l-2.7-5.411-30.161,4.008Z" transform="translate(-181.718 -481.746)" fill="#234148" opacity="0.6"/><path d="M269.179,546.471c-.254.106-.512.217-.777.317a53.08,53.08,0,0,1-9.8,2.917,44.992,44.992,0,0,1-6.569.806,37.95,37.95,0,0,1-10.314-.835l4.38-40.845.535-4.981s5.734,7.056,12.055-.735Z" transform="translate(-182.709 -473.487)" fill="#fff"/><path d="M252.037,551.238a37.95,37.95,0,0,1-10.314-.835l4.38-40.845,1.565-2.261C251.531,516.693,255.488,537.5,252.037,551.238Z" transform="translate(-182.709 -474.214)" fill="#357888" opacity="0.3"/><path d="M238.062,502.047c4.355,18.494,6.148,37.524-.269,58.657-4.76,1.81-9.941,1.789-15.486.2l1.372-38.419-32.294,22.2-1.96-12.1C201.84,520.706,223.3,502.774,238.062,502.047Z" transform="translate(-173.617 -473.302)" fill="#80c3d5"/><path d="M271.584,548.644a53.08,53.08,0,0,1-9.8,2.917c-1.946-11.161-2.376-29.5-.794-37.77Z" transform="translate(-185.891 -475.343)" fill="#357888" opacity="0.3"/><path d="M305.579,512.783c-.017.07-.03.135-.047.2-1.005,4.122-1.188,6.139-4.622,5.6l-3.533-4.023-.036-.04.459-2.412.094-.276.53-1.541.064-.2Z" transform="translate(-192.377 -474.7)" fill="#e28b6d" opacity="0.6"/><path d="M298.507,515.084s-8.674,18.376-13.819,18.817c-4.988.427-7.35-4.411-7.35-4.411l3.528,26.856a22.518,22.518,0,0,1-13.918,1.959c-4.664-15.143-6.426-34.721-6.773-56.526,3.775.235,11.252.558,13.929,2.279,4.8,3.087,10.732,14.113,10.732,14.113l6.909-9.409Z" transform="translate(-185.916 -473.255)" fill="#80c3d5"/><g transform="translate(1.42 7.547)"><path d="M178.584,484.778s.525-8.791,1.42-8.376,2.689,8.058,2.689,8.058l-1.919,3.1Z" transform="translate(-173.152 -476.388)" fill="#6f372e"/><path d="M206.487,678.687l.259,2.893a9.284,9.284,0,0,1-8.417,10.078l-.744.067a9.285,9.285,0,0,1-10.079-8.417l-.26-2.893Z" transform="translate(-174.658 -511.556)" fill="#ee6f57"/><rect width="19.317" height="140.66" transform="translate(0.003 28.764) rotate(-5.134)" fill="#fbc343"/><rect width="6.86" height="123.293" transform="translate(5.952 25.398) rotate(-5.134)" fill="none" stroke="#6f372e" stroke-miterlimit="10" stroke-width="8" opacity="0.3"/><path d="M206.075,674.139l-19.235,1.729-.506-5.645-.353-3.922-1.088-12.055,19.241-1.729,1.082,12.055.353,3.922Z" transform="translate(-174.249 -507.006)" fill="#234148"/><rect width="19.312" height="3.938" transform="translate(11.733 159.294) rotate(-5.136)" fill="#fbc343"/><path d="M172.009,506.58l5.344-21.418a4.6,4.6,0,0,0,4.082-.563l9.815,20.253Z" transform="translate(-172.009 -477.815)" fill="#ee6f57"/></g><path d="M244.889,485.851c-.087-.316-1.522-.75-1.838-.838a2.2,2.2,0,0,0-1.5.014c-1.736.784-1.5,3.271-.6,4.577a3.913,3.913,0,0,0,2.124,1.559c.316.09,3.3.126,3.172-.354C246.241,490.808,244.891,485.862,244.889,485.851Z" transform="translate(-182.453 -470.319)" fill="#f9b384"/><path d="M178.063,546.14a2.615,2.615,0,0,0-3.341-1.727c-2.189.756-4.1,2.038-4.39,4.219-.269,1.986.725,8.331,5.161,9.146l-.362-3.26s2.716-.634,3.26-1.811C178.771,551.883,178.8,548.441,178.063,546.14Z" transform="translate(-170.291 -480.642)" fill="#f9b384"/><path d="M279.259,520.122c.234,1.388.432,2.781.623,4.174s.354,2.79.533,4.185l.455,4.194c.133,1.4.264,2.8.349,4.206l-.228.027c-.241-1.388-.438-2.781-.631-4.174l-.525-4.185c-.148-1.4-.317-2.795-.447-4.2s-.264-2.8-.358-4.205Z" transform="translate(-189.194 -476.444)" fill="#357888"/><path d="M231.207,519.846c0,1.559-.041,3.116-.088,4.674s-.12,3.113-.178,4.669l-.254,4.666c-.1,1.555-.212,3.109-.363,4.661l-.23-.011c0-1.56.036-3.117.079-4.674l.186-4.669c.089-1.555.156-3.111.264-4.665s.21-3.109.354-4.661Z" transform="translate(-180.687 -476.394)" fill="#357888"/><path d="M254.185,485.7a.924.924,0,0,1-.511,1.169c-.406.091-.836-.285-.96-.839a.924.924,0,0,1,.511-1.169C253.631,484.767,254.061,485.143,254.185,485.7Z" transform="translate(-184.613 -470.311)" fill="#234148"/><path d="M261.279,484.824c-.024.568-.38,1.014-.8,1s-.734-.492-.71-1.06.381-1.014.8-1S261.3,484.256,261.279,484.824Z" transform="translate(-185.846 -470.123)" fill="#234148"/><path d="M257.594,485.611a13.427,13.427,0,0,1,.3,1.408,1.11,1.11,0,0,0,.285.489,1.846,1.846,0,0,0,.552.271,1.537,1.537,0,0,1,.7.525.914.914,0,0,1,.072.962,1.818,1.818,0,0,1-.575.581c-.2.136-.4.281-.606.408l-.151-.174c.155-.19.325-.363.487-.544a1.718,1.718,0,0,0,.379-.495c.125-.273-.141-.57-.528-.724a2.043,2.043,0,0,1-.716-.406,1.433,1.433,0,0,1-.378-.777c-.1-.545.014-1.011-.039-1.464Z" transform="translate(-185.428 -470.444)" fill="#e28b6d"/><path d="M251.106,483.8a1.711,1.711,0,0,1,.6-.917,1.829,1.829,0,0,1,1.067-.4,1.973,1.973,0,0,1,1.854,1.042l-.18.143a2.527,2.527,0,0,0-1.646-.6,1.92,1.92,0,0,0-1.486.829Z" transform="translate(-184.34 -469.9)" fill="#234148"/><path d="M258.452,482.956a1.772,1.772,0,0,1,.462-.743,1.535,1.535,0,0,1,.834-.413,1.464,1.464,0,0,1,1.56.777l-.184.138a1.865,1.865,0,0,0-1.289-.337,1.661,1.661,0,0,0-.615.225,4.077,4.077,0,0,0-.57.469Z" transform="translate(-185.617 -469.778)" fill="#234148"/><path d="M254.515,492.5c1.027,1.607,2.4,1.782,3.452.09Z" transform="translate(-184.932 -471.643)" fill="#fff"/><path d="M262.775,486.447a27.064,27.064,0,0,1-.292,3.832,1.77,1.77,0,0,1-1.228-1.687A2.263,2.263,0,0,1,262.775,486.447Z" transform="translate(-186.104 -470.59)" fill="#fc816e" opacity="0.4"/><circle cx="1.896" cy="1.896" r="1.896" transform="translate(65.18 17.156)" fill="#fc816e" opacity="0.4"/><path d="M243.894,488.052a9.45,9.45,0,0,0-1.06-.7.929.929,0,0,0-.468-.121,1.048,1.048,0,0,0-.489.225l-.193-.125a.916.916,0,0,1,.558-.6,1.092,1.092,0,0,1,.851.1,2.2,2.2,0,0,1,.984,1.084Z" transform="translate(-182.702 -470.631)" fill="#e28b6d"/><path d="M179.4,554.482l-2.73,8.293-.563-6.48A5.657,5.657,0,0,0,179.4,554.482Z" transform="translate(-171.302 -482.417)" fill="#6f372e" opacity="0.6"/></g><line x2="380.151" transform="translate(125.5 646.515)" fill="none" stroke="#234148" stroke-miterlimit="10" stroke-width="8"/></g></svg>