<svg xmlns="http://www.w3.org/2000/svg" width="48.931" height="48.931" viewBox="0 0 48.931 48.931"><g transform="translate(-1718.634 -993.95)"><rect width="48.931" height="48.931" transform="translate(1718.634 993.95)" fill="none"/><path d="M1753.867,1031.968c-.732.569-1.467,1.114-2.186,1.62a.589.589,0,0,0-.247.541,21.273,21.273,0,0,1,0,3.793.592.592,0,0,0,.522.653c.022,0,.044,0,.066,0a.59.59,0,0,0,.586-.525,21.508,21.508,0,0,0,.03-3.695c.645-.46,1.3-.95,1.954-1.458a.59.59,0,1,0-.725-.932Z" fill="#529ad9"/><path d="M1763.261,1024.625a133.646,133.646,0,0,1,0-14.688.59.59,0,0,0-.589-.629c-2.284,0-3.558.771-4.2,2.566a3.452,3.452,0,0,0-2.289,1.064c-1.723,1.831-1.489,5.63-1.283,8.982.006.1.013.2.019.3a3.562,3.562,0,0,0-1.907.3c-1.592.661-3.454,2.295-6.539,5-.627.55-1.275,1.119-1.988,1.739a.591.591,0,0,0-.2.386,52.516,52.516,0,0,0-.046,8.389.592.592,0,0,0,.589.546.347.347,0,0,0,.045,0,.591.591,0,0,0,.545-.633,53.012,53.012,0,0,1,.022-7.951c.645-.561,1.238-1.082,1.813-1.586,5.755-5.054,7.059-6.082,9.155-4.041-.819.728-2.654,2.337-4.735,4.024a.59.59,0,0,0,.744.917c2.832-2.3,5.215-4.45,5.238-4.472a.59.59,0,0,0,.04-.836q-.292-.321-.576-.583l1.684-1.537a.592.592,0,0,0,.193-.437c0-4.354,0-7.23.509-8.927a2.478,2.478,0,0,1,2.538-2,135.792,135.792,0,0,0,.021,13.935,70.45,70.45,0,0,1-6.034,5.759.591.591,0,0,0,.764.9,70.123,70.123,0,0,0,6.316-6.054.584.584,0,0,0,.148-.428Zm-5.444-3.444-1.646,1.5-.039-.023q-.024-.4-.05-.814c-.191-3.112-.408-6.64.964-8.1a2.17,2.17,0,0,1,1.109-.629,52.24,52.24,0,0,0-.338,8.063Z" fill="#529ad9"/><path d="M1741.711,1029.257c-.713-.619-1.361-1.189-1.988-1.739-.78-.685-1.517-1.332-2.174-1.895a.591.591,0,1,0-.769.9c.652.559,1.352,1.174,2.164,1.886.575.505,1.168,1.025,1.812,1.586a53.113,53.113,0,0,1,.023,7.951.59.59,0,0,0,.544.634h.045a.592.592,0,0,0,.589-.546,52.52,52.52,0,0,0-.046-8.389.594.594,0,0,0-.2-.386Z" fill="#529ad9"/><path d="M1735.223,1023.736c-1.6-1.175-2.827-1.683-3.966-1.513l.02-.331c.208-3.343.444-7.132-1.272-8.957a3.443,3.443,0,0,0-2.281-1.061c-.639-1.8-1.912-2.566-4.2-2.566a.59.59,0,0,0-.59.59v.04a78.076,78.076,0,0,1,0,14.687.588.588,0,0,0,.148.428,71.187,71.187,0,0,0,10.475,9.305,21.61,21.61,0,0,0,.03,3.695.59.59,0,0,0,.586.525c.022,0,.044,0,.066,0a.592.592,0,0,0,.522-.653,21.355,21.355,0,0,1,0-3.793.59.59,0,0,0-.248-.541,70.146,70.146,0,0,1-10.386-9.14,75.865,75.865,0,0,0,.028-13.935,2.476,2.476,0,0,1,2.531,2c.509,1.7.509,4.573.509,8.927a.592.592,0,0,0,.193.437l1.683,1.537c-.189.175-.38.37-.575.583a.59.59,0,0,0,.04.836c.023.022,2.406,2.177,5.238,4.473a.591.591,0,1,0,.744-.918c-2.08-1.686-3.914-3.3-4.734-4.023a2.842,2.842,0,0,1,1.877-.993,5.113,5.113,0,0,1,2.856,1.315.591.591,0,0,0,.7-.952Zm-5.125-1.917c-.018.287-.035.572-.052.852l-.019.012-1.645-1.5a52.1,52.1,0,0,0-.338-8.062,2.144,2.144,0,0,1,1.1.625C1730.51,1015.2,1730.291,1018.715,1730.1,1021.819Z" fill="#529ad9"/><path d="M1736.611,1012.22a.591.591,0,1,0-1.1.428,8.177,8.177,0,1,0-.552-2.957.591.591,0,0,0,1.182,0,6.97,6.97,0,1,1,.471,2.529Z" fill="#529ad9"/><path d="M1754.583,1009.691a11.35,11.35,0,0,0-2.163-6.693.591.591,0,1,0-.957.692,10.272,10.272,0,1,1-1.775-1.9.591.591,0,1,0,.754-.91,11.437,11.437,0,1,0,4.141,8.807Z" fill="#529ad9"/><path d="M1743.137,1012.627a1.175,1.175,0,0,1-1.174-1.173.591.591,0,0,0-1.181,0,2.358,2.358,0,0,0,1.765,2.279v.807a.591.591,0,1,0,1.181,0v-.807a2.354,2.354,0,0,0-.591-4.633,1.173,1.173,0,1,1,1.174-1.173.591.591,0,1,0,1.182,0,2.358,2.358,0,0,0-1.765-2.279v-.807a.591.591,0,1,0-1.181,0v.807a2.354,2.354,0,0,0,.59,4.633,1.173,1.173,0,1,1,0,2.346Z" fill="#529ad9"/></g></svg>