<svg xmlns="http://www.w3.org/2000/svg" width="618.559" height="324.042" viewBox="0 0 618.559 324.042"><g transform="translate(-324.129 -4245.493)"><g transform="translate(853.609 4298.324)"><path d="M1003.48,4305.3s-7.447-4.547-15.687,13.171-11.237,27.873-11.237,27.873-2.212,3.73-4.8,1.438-6.263-8.928-10.475-7.558c-4.369,1.421-5.644,6.4-4.542,13.608s2.938,23.091,3.1,24.527c.158,1.411-.578,3.524-2.592,2.245s-13.778-13.466-19.226-7.538.922,25.5,1.578,27.658.264,3.1-.75,3.673-4.581-3.894-8.068-7.223-8.115-6.578-10.973-2.895-3.277,18.561,11.717,42.16l7.664,10.479,12.986-1.191c27.636-4.242,38.56-14.351,39.452-18.925s-4.6-5.922-9.4-6.356-10.515-.18-10.748-1.321.219-2.058,2.272-2.981,20.986-9.012,21.862-17.016-16.04-8.839-18.329-9.515-1.183-2.619-.016-3.428c1.187-.825,14.353-9.9,20.506-13.81s9.061-8.151,7.256-12.376c-1.741-4.073-9.155-2.471-12.585-2.912s-2.078-4.562-2.078-4.562,5.673-8.939,13.589-26.8-.632-20.5-.632-20.5" transform="translate(-918.236 -4304.773)" fill="#efebda"/><g transform="translate(12.174 16.378)"><path d="M997.56,4323.15s-.043.133-.146.383q-.169.4-.467,1.107l-1.837,4.24c-1.6,3.681-3.953,8.99-6.886,15.538-5.862,13.1-14.115,31.124-23.295,51s-17.48,37.888-23.415,50.952l-7.013,15.478c-.823,1.813-1.466,3.226-1.912,4.207l-.507,1.089c-.117.245-.186.365-.186.365s.042-.133.145-.383q.168-.4.467-1.107c.428-.988,1.045-2.413,1.836-4.24,1.6-3.68,3.953-8.988,6.886-15.536,5.862-13.1,14.116-31.126,23.3-51.009s17.476-37.879,23.411-50.944l7.014-15.479,1.912-4.207.507-1.089C997.49,4323.271,997.56,4323.15,997.56,4323.15Z" transform="translate(-931.896 -4323.15)" fill="#e5dec1"/></g><g transform="translate(47.801 44.936)"><path d="M971.878,4355.194a3.924,3.924,0,0,1,.365.865c.211.566.49,1.393.825,2.419.666,2.053,1.51,4.912,2.383,8.083.845,3.123,1.609,5.947,2.2,8.128q.4,1.448.677,2.459a.472.472,0,1,1-.163.053c-.208-.567-.488-1.395-.813-2.424-.645-2.06-1.453-4.928-2.325-8.1-.867-3.116-1.651-5.933-2.257-8.11q-.408-1.447-.691-2.456A3.834,3.834,0,0,1,971.878,4355.194Z" transform="translate(-971.872 -4355.194)" fill="#e5dec1"/></g><g transform="translate(55.668 59.453)"><path d="M980.7,4380.024c-.038-.115,5.777-2.12,12.987-4.477s13.088-4.176,13.126-4.06-5.777,2.12-12.989,4.478S980.736,4380.14,980.7,4380.024Z" transform="translate(-980.699 -4371.482)" fill="#e5dec1"/></g><g transform="translate(40.191 96.086)"><path d="M963.333,4414.389a4.035,4.035,0,0,1,.955-.085l2.6-.091c2.2-.079,5.232-.2,8.576-.448s6.366-.567,8.55-.816l2.589-.292a4,4,0,0,1,.958-.056,4.058,4.058,0,0,1-.933.226c-.605.116-1.484.269-2.573.43-2.179.33-5.2.7-8.559.948s-6.4.321-8.6.319c-1.1-.005-1.994-.02-2.609-.049A4.027,4.027,0,0,1,963.333,4414.389Z" transform="translate(-963.333 -4412.587)" fill="#e5dec1"/></g><g transform="translate(28.487 78.595)"><path d="M950.2,4392.962a3.44,3.44,0,0,1,.541.7c.323.469.779,1.154,1.334,2.006,1.11,1.7,2.618,4.075,4.261,6.707s3.11,5.03,4.153,6.776c.521.874.938,1.584,1.216,2.08a.446.446,0,1,1-.145.09c-.324-.468-.779-1.153-1.334-2.005-1.11-1.7-2.618-4.075-4.262-6.708s-3.109-5.028-4.152-6.775c-.521-.873-.937-1.583-1.217-2.08A3.494,3.494,0,0,1,950.2,4392.962Z" transform="translate(-950.201 -4392.961)" fill="#e5dec1"/></g><g transform="translate(11.473 103.249)"><path d="M931.112,4420.625a5.674,5.674,0,0,1,.681.908l1.718,2.565c1.434,2.176,3.39,5.2,5.528,8.552s4.053,6.4,5.42,8.624l1.6,2.641a.569.569,0,1,1-.144.092c-.455-.677-1.03-1.539-1.718-2.565-1.435-2.176-3.391-5.2-5.53-8.554s-4.052-6.4-5.42-8.622c-.641-1.057-1.177-1.943-1.6-2.64A5.635,5.635,0,0,1,931.112,4420.625Z" transform="translate(-931.109 -4420.625)" fill="#e5dec1"/></g><g transform="translate(26.752 123.741)"><path d="M948.254,4446.731a6.341,6.341,0,0,1,1.208-.137l3.3-.233c2.783-.2,6.627-.483,10.861-.916s8.06-.911,10.826-1.279l3.278-.432a6.372,6.372,0,0,1,1.21-.108,6.587,6.587,0,0,1-1.184.277c-.766.151-1.88.35-3.259.571-2.757.448-6.583.983-10.827,1.41s-8.1.669-10.888.788c-1.4.056-2.526.089-3.307.094A6.445,6.445,0,0,1,948.254,4446.731Z" transform="translate(-948.254 -4443.617)" fill="#e5dec1"/></g></g><g transform="translate(324.129 4245.493)"><path d="M408.146,4386.631c20.79-13.877,25.866-40.132,25.421-63.807-.075-3.953.429-8.111-1.421-11.6s-6.255-5.929-9.865-4.318c-2.993,1.335-4.342,4.729-6.049,7.526a23.308,23.308,0,0,1-9.524,8.708c-2.569,1.268-5.734,2.018-8.23.61-3.423-1.932-3.756-6.644-3.671-10.574q.241-10.979.48-21.962c.086-3.929.161-7.938-1.02-11.686s-3.861-7.251-7.631-8.355-8.488.983-9.347,4.815c-.357,1.6-.053,3.262-.188,4.89s-.935,3.423-2.511,3.855c-1.6.436-3.17-.7-4.344-1.869-4.046-4.028-6.755-9.18-9.281-14.3s-4.975-10.36-8.635-14.743-8.765-7.887-14.459-8.292-11.824,2.979-13.35,8.48c-1.531,5.517,1.656,11.185,5.149,15.721a88.288,88.288,0,0,0,18.228,17.681c1.241.9,2.586,1.868,3.044,3.33.823,2.631-1.732,5.2-4.364,6.019-2.983.93-6.2.578-9.306.893s-6.494,1.614-7.714,4.492c-1.692,3.993,1.645,8.251,4.95,11.057a76.36,76.36,0,0,0,22.328,13.171c2.913,1.1,5.978,2.074,8.308,4.141s3.7,5.618,2.232,8.363-5.147,3.58-8.2,2.972-5.779-2.29-8.685-3.423c-5.438-2.119-12.508-1.852-16.085,2.761-2.35,3.032-2.619,7.3-1.512,10.974s3.42,6.857,5.883,9.8c8.609,10.283,19.707,18.624,32.328,23.156s24.362,5.883,37.044,1.521" transform="translate(-324.129 -4245.493)" fill="#efebda"/><g transform="translate(6.228 3.21)"><path d="M407.275,4387.479c-3.346-11.991-12.5-40.2-17.959-53.47q-2.065-4.966-4.077-9.809c-1.345-3.218-2.678-6.4-4.177-9.443a175.434,175.434,0,0,0-9.627-16.979c-3.328-5.255-6.68-10.123-9.847-14.654s-6.22-8.686-9.156-12.362a140.856,140.856,0,0,0-15.143-16.32c-1.935-1.783-3.479-3.119-4.537-4.012l-1.209-1.008c-.275-.225-.425-.328-.425-.328s.124.134.385.374l1.172,1.051c1.03.923,2.551,2.284,4.457,4.091a147.258,147.258,0,0,1,14.972,16.412c2.909,3.684,5.925,7.854,9.082,12.384s6.479,9.411,9.787,14.664a176.547,176.547,0,0,1,9.568,16.939c1.488,3.027,2.809,6.193,4.155,9.418s2.7,6.494,4.073,9.805c5.451,13.259,14.615,41.44,17.981,53.393" transform="translate(-331.117 -4249.095)" fill="#e5dec1"/></g><g transform="translate(56.012 25.676)"><path d="M386.99,4317.439a9.5,9.5,0,0,0,.389-1.675c.217-1.084.485-2.662.789-4.613.611-3.905,1.279-9.324,2-15.3s1.48-11.376,2.175-15.258c.341-1.942.637-3.511.857-4.591a9.383,9.383,0,0,0,.274-1.7,9.709,9.709,0,0,0-.5,1.645c-.29,1.067-.649,2.628-1.044,4.565-.8,3.873-1.632,9.278-2.354,15.263-.706,5.926-1.345,11.29-1.825,15.315-.242,1.874-.446,3.432-.6,4.636A9.443,9.443,0,0,0,386.99,4317.439Z" transform="translate(-386.978 -4274.303)" fill="#e5dec1"/></g><g transform="translate(4.995 58.581)"><path d="M329.733,4311.251a1.855,1.855,0,0,0,.526.094l1.513.151c1.313.125,3.212.3,5.552.6,4.681.556,11.122,1.56,18.175,2.979,7.053,1.435,13.378,3.008,17.918,4.283,2.274.622,4.1,1.176,5.365,1.554l1.459.429a.269.269,0,1,0,.038-.114c-.391-.146-.86-.323-1.425-.533-1.243-.446-3.055-1.064-5.32-1.74-4.52-1.38-10.848-3.023-17.919-4.46s-13.538-2.364-18.246-2.815c-2.351-.244-4.261-.36-5.582-.415l-1.522-.042A1.761,1.761,0,0,0,329.733,4311.251Z" transform="translate(-329.733 -4311.225)" fill="#e5dec1"/></g><g transform="translate(77.442 61.147)"><path d="M411.026,4378.228a3.149,3.149,0,0,0,.347-.617l.894-1.819c.77-1.582,1.828-3.9,3.1-6.775,2.548-5.754,5.821-13.807,9.321-22.74s6.71-17.006,9.156-22.795l2.924-6.847c.324-.762.586-1.379.79-1.863a3.161,3.161,0,0,0,.24-.667,3.194,3.194,0,0,0-.348.617l-.892,1.819c-.77,1.582-1.827,3.9-3.1,6.776-2.549,5.754-5.823,13.807-9.324,22.744s-6.709,17-9.155,22.791c-1.213,2.836-2.2,5.159-2.924,6.846-.324.762-.586,1.38-.791,1.865A3.123,3.123,0,0,0,411.026,4378.228Z" transform="translate(-411.023 -4314.104)" fill="#e5dec1"/></g><g transform="translate(9.775 102.621)"><path d="M335.1,4360.644a3.484,3.484,0,0,0,.674.272l1.97.67,7.254,2.417c6.121,2.048,14.542,4.981,23.838,8.244s17.748,6.136,23.907,8.084c3.08.976,5.578,1.741,7.315,2.238l2,.565a3.354,3.354,0,0,0,.71.157,3.4,3.4,0,0,0-.676-.273l-1.968-.669-7.253-2.416c-6.122-2.048-14.544-4.983-23.843-8.246s-17.744-6.136-23.9-8.083c-3.08-.975-5.579-1.74-7.316-2.238l-2-.564A3.313,3.313,0,0,0,335.1,4360.644Z" transform="translate(-335.097 -4360.64)" fill="#e5dec1"/></g></g><g transform="translate(721.242 4249.325)"><path d="M798.816,4249.793H911.174l-21.982,15.629v13.043a24.308,24.308,0,0,1-24.485,24.125H794.2a24.308,24.308,0,0,1-24.486-24.125h0A28.891,28.891,0,0,1,798.816,4249.793Z" transform="translate(-769.713 -4249.793)" fill="#efebda"/><g transform="translate(16.731 17.209)"><path d="M872.278,4269.334c0,.128-18.758.233-41.894.233s-41.9-.1-41.9-.233,18.755-.231,41.9-.231S872.278,4269.207,872.278,4269.334Z" transform="translate(-788.486 -4269.103)" fill="#e5dec1"/></g><g transform="translate(16.731 25.891)"><path d="M872.278,4279.076c0,.128-18.758.233-41.894.233s-41.9-.1-41.9-.233,18.755-.231,41.9-.231S872.278,4278.947,872.278,4279.076Z" transform="translate(-788.486 -4278.844)" fill="#e5dec1"/></g></g><g transform="translate(446.929 4516.738)"><path d="M594.873,4549.846H461.918l21.658,15.628v30.749a6.421,6.421,0,0,0,6.421,6.421H594.873a6.42,6.42,0,0,0,6.42-6.421v-39.957A6.419,6.419,0,0,0,594.873,4549.846Z" transform="translate(-461.918 -4549.846)" fill="#efebda"/><g transform="translate(37.839 21.498)"><path d="M593.945,4574.2c0,.127-20.052.231-44.782.231s-44.787-.1-44.787-.231,20.048-.233,44.787-.233S593.945,4574.072,593.945,4574.2Z" transform="translate(-504.376 -4573.968)" fill="#e5dec1"/></g><g transform="translate(37.839 33.304)"><path d="M593.945,4587.447c0,.128-20.052.231-44.782.231s-44.787-.1-44.787-.231,20.048-.232,44.787-.232S593.945,4587.318,593.945,4587.447Z" transform="translate(-504.376 -4587.215)" fill="#e5dec1"/></g></g><g transform="translate(637.111 4331.425)"><g transform="translate(24.056 33.784)"><rect width="224.739" height="195.782" rx="38.787" fill="#97c2e8"/><g opacity="0.4"><rect width="224.739" height="195.782" rx="38.787" fill="#97c2e8"/></g><g transform="translate(223.919 68.256)"><path d="M954.318,4456.409h33.657l-34.421,34.421Z" transform="translate(-953.555 -4456.409)" fill="#97c2e8"/><g opacity="0.4"><path d="M954.318,4456.409h33.657l-34.421,34.421Z" transform="translate(-953.555 -4456.409)" fill="#97c2e8"/></g></g></g><g transform="translate(0 0)"><g transform="translate(0 91.1)"><path d="M693.993,4476.234l-14.112-16c-3.816-3.814-5.122-5.656-4.362-6.323,1.015-.892.584-.594,8.507,5.352,0,0-11.234-8.586-7.338-8.64.686-.009,2.592,1.1,4.635,2.444-2.78-2.364-3.549-3.953-3.022-4.717.906-1.312,7.777,3.45,10.94,5.748-2.588-1.929-7.514-5.668-8.383-6.84-1.188-1.6,1.22-1.475,3.183-.8,2.2.752,14.365,6.959,17.969,8.567a2.327,2.327,0,0,0,3.349-1.138c1.326-5.572,5.335-9.2,6.884-9.677s2.716,1.5,1.623,2.913a21.427,21.427,0,0,0-2.375,5.291,13.708,13.708,0,0,0-.718,4.568c.03,1.8.126,3.323.242,4.615l12.89,17.694-21.565,12.506Z" transform="translate(-675.313 -4444.133)" fill="#b78876"/><g transform="translate(2.962 9.16)"><path d="M689.283,4462.833c-.144.2-2.651-1.521-5.6-3.85s-5.2-4.371-5.04-4.559,2.67,1.537,5.6,3.852S689.428,4462.631,689.283,4462.833Z" transform="translate(-678.637 -4454.411)" fill="#aa6550"/></g><g transform="translate(4.476 6.478)"><path d="M692.216,4459.692c-.142.2-2.916-1.483-6.195-3.767s-5.822-4.3-5.681-4.507,2.916,1.482,6.2,3.767S692.358,4459.488,692.216,4459.692Z" transform="translate(-680.335 -4451.402)" fill="#aa6550"/></g><g transform="translate(7.006 4.078)"><path d="M694.519,4456.406c-.14.206-2.791-1.346-5.922-3.466s-5.557-4.006-5.418-4.212,2.791,1.345,5.923,3.466S694.658,4456.2,694.519,4456.406Z" transform="translate(-683.174 -4448.709)" fill="#aa6550"/></g><g transform="translate(18.68 19.895)"><path d="M714.494,4466.457l51.4,65.187-11.771,27.4s-14.1-3.12-18.375-9.061-39.477-71.324-39.477-71.324Z" transform="translate(-696.273 -4466.457)" fill="#b78876"/></g></g><g transform="translate(98.928)"><g transform="translate(0 0.412)"><g transform="translate(56.788 19.367)"><path d="M861.714,4364.107c3.7,3.206,3.687,8.858,3.259,13.734s-.752,10.43,2.625,13.973c2.783,2.921,7.836,4.2,8.485,8.182a4.588,4.588,0,0,1-7.585,4.16c1.088,3.143.336,7.078-2.393,8.982s-7.293.732-8.139-2.485a4.037,4.037,0,1,1-7.93,1.442" transform="translate(-850.035 -4364.107)" fill="#1a2e35"/></g><g transform="translate(0 8.876)"><path d="M801.812,4395.725a4.859,4.859,0,1,1-8.962-3.746c.848-1.854,2.854-3.191,3.045-5.222.232-2.458-2.273-4.208-4.5-5.279s-4.825-2.463-5.066-4.92c-.233-2.372,1.888-4.217,3.666-5.8s3.527-4.04,2.431-6.155c-.561-1.083-1.727-1.706-2.481-2.665-1.669-2.121-.8-5.5,1.329-7.162s5.071-1.9,7.727-1.418a72.683,72.683,0,0,1,7.741,2.347,32.269,32.269,0,0,0,25.7-3.367" transform="translate(-786.315 -4352.335)" fill="#1a2e35"/></g><g transform="translate(6.366)"><g transform="translate(1.586 6.46)"><path d="M818.568,4452.906a17.889,17.889,0,0,0,21.026-13.723l12.643-57.985a25.733,25.733,0,0,0-19.84-31.1l-1.327-.194a25.905,25.905,0,0,0-29,19.83c-2.813,12.239-5.763,25.8-6.654,32.454-1.845,13.782,11.6,17.937,11.6,17.937L804.6,4431.73a17.89,17.89,0,0,0,13.968,21.176Z" transform="translate(-795.238 -4349.625)" fill="#b78876"/></g><g transform="translate(10.364 26.018)"><g transform="translate(0 6.153)"><g transform="translate(0.496 1.964)"><path d="M805.675,4382.195a1.987,1.987,0,0,0,1.6,2.26,1.9,1.9,0,0,0,2.285-1.475,1.987,1.987,0,0,0-1.6-2.261A1.9,1.9,0,0,0,805.675,4382.195Z" transform="translate(-805.645 -4380.678)" fill="#1a2e35"/></g><path d="M805.109,4380.035c.206.291,1.855-.592,3.969-.277,2.115.284,3.508,1.6,3.774,1.374.13-.1-.051-.6-.654-1.187a5.441,5.441,0,0,0-2.976-1.417,5.225,5.225,0,0,0-3.206.54C805.293,4379.47,805.005,4379.9,805.109,4380.035Z" transform="translate(-805.088 -4378.473)" fill="#1a2e35"/><g transform="translate(20.724 3.437)"><g transform="translate(0.438 1.957)"><path d="M828.863,4386.043a1.985,1.985,0,0,0,1.6,2.259,1.9,1.9,0,0,0,2.284-1.474,1.987,1.987,0,0,0-1.6-2.261A1.9,1.9,0,0,0,828.863,4386.043Z" transform="translate(-828.833 -4384.526)" fill="#1a2e35"/></g><path d="M828.362,4383.891c.206.292,1.857-.591,3.969-.275,2.115.284,3.508,1.6,3.775,1.374.129-.1-.049-.6-.655-1.187a5.445,5.445,0,0,0-2.975-1.417,5.228,5.228,0,0,0-3.207.54C828.548,4383.329,828.259,4383.759,828.362,4383.891Z" transform="translate(-828.342 -4382.331)" fill="#1a2e35"/></g><g transform="translate(5.593 2.077)"><path d="M816.546,4398.28a14.11,14.11,0,0,0-3.344-1.123c-.531-.134-1.027-.317-1.063-.7a2.773,2.773,0,0,1,.594-1.547q1.048-1.849,2.2-3.877c3.074-5.528,5.384-10.106,5.16-10.229s-2.9,4.261-5.971,9.789q-1.118,2.046-2.135,3.912a3.153,3.153,0,0,0-.59,2.077,1.37,1.37,0,0,0,.772.919,3.731,3.731,0,0,0,.9.262A13.927,13.927,0,0,0,816.546,4398.28Z" transform="translate(-811.364 -4380.804)" fill="#1a2e35"/></g></g><g transform="translate(21.408 1.704)"><path d="M829.113,4374.563c.124.605,2.275.642,4.711,1.3,2.45.613,4.344,1.632,4.748,1.165.183-.225-.086-.817-.814-1.492a8.5,8.5,0,0,0-7.207-1.881C829.587,4373.893,829.063,4374.278,829.113,4374.563Z" transform="translate(-829.109 -4373.482)" fill="#1a2e35"/></g><g transform="translate(1.663)"><path d="M806.985,4373.278c.3.535,1.831.25,3.585.482,1.763.172,3.187.8,3.6.344.185-.222.022-.737-.559-1.287a5.241,5.241,0,0,0-5.791-.666C807.13,4372.555,806.855,4373.02,806.985,4373.278Z" transform="translate(-806.954 -4371.57)" fill="#1a2e35"/></g></g><g transform="translate(45.858 13.743)"><path d="M844.914,4364.813l.066.071a10.932,10.932,0,0,1,3,7.587q0,.149,0,.283c-.036,4-.718,7.981-.716,11.983s.776,8.188,3.278,11.313c1.029,1.285,3.026,2.358,4.2,1.2a3.39,3.39,0,0,0,.753-1.726c2.121-9.367,5.939-17.394,7.372-27.3a8.44,8.44,0,0,0-2.47-7.306c-1.857-1.79-4.165-3.7-6.629-2.949s-6.083,4.632-8.139,6.2" transform="translate(-844.914 -4357.796)" fill="#1a2e35"/></g><g transform="translate(50.521 43.475)"><path d="M852.661,4391.261c.25-.067,9.862-1.412,8.184,7.95s-10.73,5.746-10.7,5.475S852.661,4391.261,852.661,4391.261Z" transform="translate(-850.147 -4391.158)" fill="#b78876"/><g transform="translate(3.481 3.38)"><path d="M854.067,4402.064c.046-.022.143.143.4.32a1.66,1.66,0,0,0,1.214.243c1.054-.186,2.168-1.606,2.516-3.286a5.467,5.467,0,0,0-.037-2.417,1.913,1.913,0,0,0-1-1.472.844.844,0,0,0-1.043.274c-.172.239-.146.437-.2.444-.03.019-.173-.192-.028-.566a1.053,1.053,0,0,1,.473-.521,1.248,1.248,0,0,1,.945-.076,2.326,2.326,0,0,1,1.443,1.756,5.627,5.627,0,0,1,.1,2.71c-.4,1.876-1.68,3.468-3.1,3.617a1.773,1.773,0,0,1-1.447-.515C854.043,4402.293,854.031,4402.075,854.067,4402.064Z" transform="translate(-854.052 -4394.951)" fill="#aa6550"/></g></g><path d="M848.268,4357.79c2.866-3.423-2.687-9.755-7.115-11.9s-10.874-.776-15.718.08c-3.056.54-6.158,1.463-9.208.887a20.943,20.943,0,0,1-5.74-2.392,15.357,15.357,0,0,0-5.843-2.069,5.734,5.734,0,0,0-5.409,2.414c-1.059,1.792-.324,4.567,1.674,5.15a4.667,4.667,0,1,0-2.485,8.379c-1.19-1.209-3.485.164-3.565,1.858s1.257,3.132,2.7,4.031c3.67,2.3,8.323,2.417,12.583,1.646s8.336-2.35,12.576-3.227,11.367-2.523,15.2-.508c2.821,1.484,4.366,5.371,6.161,4.825a5.8,5.8,0,0,0,3.6-3.793,16.826,16.826,0,0,0,.6-5.382" transform="translate(-793.459 -4342.376)" fill="#1a2e35"/></g></g><g transform="translate(61.947 18.408)"><path d="M873.385,4403.452a1.438,1.438,0,0,0,.492-.212,2.758,2.758,0,0,0,1.014-1.158,4.055,4.055,0,0,0,.307-2.42,4.9,4.9,0,0,0-1.683-2.751,12.131,12.131,0,0,0-3.373-1.966,22.311,22.311,0,0,1-3.946-1.906,7.9,7.9,0,0,1-2.864-3.718,13.006,13.006,0,0,1-.831-5.064c.1-3.57,1.084-6.907,1.326-10.052.295-3.124-.166-6.1-1.5-8.137a7.563,7.563,0,0,0-4.444-3.344,5.356,5.356,0,0,0-1.528-.152,2.227,2.227,0,0,0-.529.081,7.858,7.858,0,0,1,2.01.25,7.534,7.534,0,0,1,4.207,3.344,12.783,12.783,0,0,1,1.35,7.919c-.258,3.087-1.263,6.418-1.365,10.081a13.354,13.354,0,0,0,.873,5.246,8.308,8.308,0,0,0,3.05,3.908,22.141,22.141,0,0,0,4.042,1.908,12,12,0,0,1,3.3,1.855,4.674,4.674,0,0,1,1.643,2.548,3.94,3.94,0,0,1-.215,2.293A3.066,3.066,0,0,1,873.385,4403.452Z" transform="translate(-855.824 -4362.569)" fill="#375a64"/></g><g transform="translate(5.388 7.101)"><path d="M800.488,4350.576a2.128,2.128,0,0,0-.407-.215,2.744,2.744,0,0,0-.524-.206,3.886,3.886,0,0,0-.753-.191,5.636,5.636,0,0,0-4.723,1.444h0l-.005.006a7.547,7.547,0,0,0-1.682,5.58,9.3,9.3,0,0,0,3.44,6.353,14.356,14.356,0,0,0,7.789,3.133,31.734,31.734,0,0,0,9.252-.568,41.785,41.785,0,0,0,13.637-5.267,42.177,42.177,0,0,1,5.628-2.923,15.1,15.1,0,0,1,5.35-1.094,15.909,15.909,0,0,1,7.683,1.815,27.257,27.257,0,0,1,2.484,1.569,10.971,10.971,0,0,0-2.4-1.732,15.694,15.694,0,0,0-7.776-1.988,15.307,15.307,0,0,0-5.489,1.063,41.741,41.741,0,0,0-5.7,2.911,41.97,41.97,0,0,1-13.51,5.181,31.711,31.711,0,0,1-9.11.577,14,14,0,0,1-7.571-3,8.956,8.956,0,0,1-3.355-6.062,7.3,7.3,0,0,1,1.534-5.373l-.007.008a5.553,5.553,0,0,1,4.508-1.493A10.851,10.851,0,0,1,800.488,4350.576Z" transform="translate(-792.36 -4349.882)" fill="#375a64"/></g><g transform="translate(18.72)"><path d="M807.331,4341.914a5.334,5.334,0,0,0,.33,2.106,8.846,8.846,0,0,0,3.689,4.44,11.127,11.127,0,0,0,3.736,1.548,15.894,15.894,0,0,0,4.629.243c3.273-.246,6.7-1.367,10.29-2.3s7.181-1.414,10.28-.586a13.467,13.467,0,0,1,6.986,4.536,13.993,13.993,0,0,1,2.677,5.029c.358,1.311.4,2.072.457,2.065a2.322,2.322,0,0,0-.024-.551,10.963,10.963,0,0,0-.255-1.563,13.988,13.988,0,0,0-9.73-9.94c-3.209-.881-6.905-.388-10.508.549-3.621.94-7.006,2.059-10.211,2.322a15.723,15.723,0,0,1-4.511-.191,10.917,10.917,0,0,1-3.636-1.447,8.871,8.871,0,0,1-3.7-4.219A12.313,12.313,0,0,1,807.331,4341.914Z" transform="translate(-807.32 -4341.914)" fill="#375a64"/></g><g transform="translate(23.048 57.821)"><path d="M812.411,4408.116a9.664,9.664,0,0,0,.724,2.667,3.272,3.272,0,0,0,2,1.8,2.937,2.937,0,0,0,2.708-.816,4.688,4.688,0,0,0,1.256-2.62c.143-.88-.037-2-.882-2.287a2.238,2.238,0,0,0-1.1.013l-4.937.892" transform="translate(-812.177 -4406.793)" fill="#aa6550"/></g><g transform="translate(22.321 57.569)"><path d="M813.189,4411.827a6.748,6.748,0,0,0,2.454.464,3.549,3.549,0,0,0,2.3-1.051,3.732,3.732,0,0,0,.986-2.877,3.345,3.345,0,0,0-.175-.786c-.116-.24-.086-.221-.287-.254-.2-.009-.531.035-.8.051l-.822.064c-1.07.08-2.036.14-2.847.179a1.33,1.33,0,1,1-.055-.584c.8-.114,1.765-.234,2.831-.357l.819-.09a8.187,8.187,0,0,1,.915-.075,1.089,1.089,0,0,1,.651.23,1.278,1.278,0,0,1,.365.542,4.021,4.021,0,0,1,.229,1,4.36,4.36,0,0,1-1.27,3.5,3.973,3.973,0,0,1-2.829,1.1,3.748,3.748,0,0,1-1.942-.539C813.315,4412.081,813.158,4411.865,813.189,4411.827Z" transform="translate(-811.361 -4406.51)" fill="#1a2e35"/></g><g transform="translate(18.827 77.369)"><path d="M808.341,4428.726s8.982,3.406,17.726.93c0,0-6.6,5.529-18.627,3.407Z" transform="translate(-807.44 -4428.726)" fill="#aa6550"/></g></g><g transform="translate(95.838 193.535)"><path d="M819.371,4570.676a9.818,9.818,0,0,1-1.233-.937c-.382-.318-.856-.7-1.433-1.107s-1.2-.913-1.956-1.383c-.738-.494-1.549-1.029-2.461-1.537-.889-.549-1.89-1.039-2.93-1.578a45.992,45.992,0,0,0-14.548-4.35c-1.166-.121-2.273-.26-3.315-.29-1.042-.076-2.013-.074-2.9-.066-.889-.022-1.689.053-2.394.083s-1.311.082-1.806.139a9.957,9.957,0,0,1-1.545.106,9.784,9.784,0,0,1,1.524-.286,17.63,17.63,0,0,1,1.807-.218c.708-.054,1.512-.152,2.407-.152.895-.028,1.874-.049,2.926.011,1.053.012,2.171.139,3.349.25a43.945,43.945,0,0,1,14.686,4.391c1.045.555,2.049,1.063,2.937,1.631.912.527,1.719,1.082,2.451,1.6.748.491,1.367,1.015,1.929,1.449a17.41,17.41,0,0,1,1.39,1.174A9.923,9.923,0,0,1,819.371,4570.676Z" transform="translate(-782.848 -4559.072)" fill="#fafafa"/></g><g transform="translate(114.209 94.397)"><path d="M803.462,4447.833" transform="translate(-803.462 -4447.833)" fill="none" stroke="#44555b" stroke-miterlimit="10" stroke-width="0.05"/></g><g transform="translate(21.78 82.354)"><g transform="translate(0 20.642)"><path d="M757.95,4513.854l7.313-31.666c2.8-11.909,6.11-23.351,11.679-24.707v3.686l-2.383,90.469s-14.9,16.966-33.9,7.535c-5.935-2.946-16.764-23.667-16.764-23.667s-25.158-44.96-24.116-47,16.443-21.878,18.015-22.865Z" transform="translate(-699.751 -4457.482)" fill="#3e73a3"/></g><g transform="translate(73.793 9.757)"><path d="M842.162,4447.229c14.525,2.783,30.884,11.258,38.408,32.959,2.748,7.928,22.752,66.4,22.752,66.4l-34.112-.708-5.555-12.056,2.71,19.554,2.313,27.9-86.126,1.448.6-42.023.826-83.6s.968-1.268,15.817-9.461C809.025,4442.554,842.162,4447.229,842.162,4447.229Z" transform="translate(-782.551 -4445.269)" fill="#3e73a3"/></g><g transform="translate(141.996 67.597)" opacity="0.2"><path d="M859.079,4510.168c1.414,17.647,3.043,23.1,4.457,40.745a15.6,15.6,0,0,0,.93,4.905,5.283,5.283,0,0,0,3.563,3.248c2.509.51,5.77,2.324,6.478-.136l-2.381-17a33.543,33.543,0,0,0-2.351-7.173c-5.285-11.732-7.241-12.42-10.7-24.592" transform="translate(-859.079 -4510.168)"/></g><g transform="translate(91.041)"><path d="M801.9,4455.5l.287-1.834,2.753-17.607a2.05,2.05,0,0,1,2.2-1.728l33.911,2.831a3.9,3.9,0,0,1,3.564,4.171l-.756,10.233-10.589,13.814-15.246,2.379" transform="translate(-801.904 -4434.32)" fill="#3e73a3"/></g><g transform="translate(73.785 54.287)"><path d="M782.774,4495.234c.128,0,.233,13.8.233,30.808s-.1,30.812-.233,30.812-.232-13.792-.232-30.812S782.646,4495.234,782.774,4495.234Z" transform="translate(-782.542 -4495.234)" fill="#1a2e35"/></g><g transform="translate(134.514 30.967)"><path d="M877.346,4551.284a.783.783,0,0,1-.11-.2c-.074-.162-.166-.36-.279-.605l-1.034-2.344-3.721-8.654-12.115-28.619c-2.348-5.6-4.584-10.926-6.619-15.78a29.536,29.536,0,0,1-2.191-7.163,39.381,39.381,0,0,1-.591-6.5,26.313,26.313,0,0,1,1.357-9.313c.1-.261.185-.512.28-.74l.308-.624a5.607,5.607,0,0,1,.534-.946l.379-.55c.087-.123.135-.183.142-.178a17.385,17.385,0,0,0-1.472,3.1,27.081,27.081,0,0,0-1.2,9.249,33.983,33.983,0,0,0,2.847,13.5l6.653,15.765c4.675,11.181,8.909,21.3,11.99,28.672l3.585,8.711c.4,1.006.721,1.8.953,2.377.1.252.175.458.237.623A.852.852,0,0,1,877.346,4551.284Z" transform="translate(-850.684 -4469.067)" fill="#1a2e35"/></g><g transform="translate(67.381 14.788)"><path d="M851.951,4450.914a10.665,10.665,0,0,1-.99.858,15.2,15.2,0,0,1-3.249,1.9,24.536,24.536,0,0,1-5.729,1.607,70.713,70.713,0,0,1-7.842.772c-2.919.131-6.115.072-9.534.14a44.129,44.129,0,0,0-10.783,1.312,19.926,19.926,0,0,0-10.141,5.982,13.908,13.908,0,0,0-2.816,5.563,11.871,11.871,0,0,0,.1,6.375,10.145,10.145,0,0,0,1.493,2.851,7.476,7.476,0,0,0,2.409,2.028,5.2,5.2,0,0,0,2.976.627,4.06,4.06,0,0,0,2.614-1.342,7.055,7.055,0,0,0,1.318-5.638,9.379,9.379,0,0,0-.848-2.784,13.756,13.756,0,0,0-1.585-2.391,16.794,16.794,0,0,0-9.137-5.414,19.419,19.419,0,0,0-9.353.107,25.537,25.537,0,0,0-7.162,3.062,33.249,33.249,0,0,0-4.743,3.527c-1.224,1.071-2.089,1.995-2.691,2.6l-.665.714a1.8,1.8,0,0,1-.239.233,29.577,29.577,0,0,1,3.475-3.686,32.317,32.317,0,0,1,4.727-3.614,25.576,25.576,0,0,1,7.217-3.158,19.682,19.682,0,0,1,9.522-.164,17.151,17.151,0,0,1,9.378,5.515,14.166,14.166,0,0,1,1.646,2.471,9.8,9.8,0,0,1,.9,2.915,9.273,9.273,0,0,1-.054,3.116,6.062,6.062,0,0,1-1.364,2.891,4.516,4.516,0,0,1-2.9,1.492,5.645,5.645,0,0,1-3.24-.674,7.922,7.922,0,0,1-2.56-2.152,10.575,10.575,0,0,1-1.569-2.995,12.316,12.316,0,0,1-.109-6.627,14.352,14.352,0,0,1,2.916-5.744,20.313,20.313,0,0,1,10.377-6.1A44.192,44.192,0,0,1,824.6,4455.8c3.432-.051,6.623.027,9.529-.083a72.3,72.3,0,0,0,7.813-.7,24.927,24.927,0,0,0,5.7-1.517,16.129,16.129,0,0,0,3.264-1.8c.357-.237.6-.462.775-.589A1.719,1.719,0,0,1,851.951,4450.914Z" transform="translate(-775.356 -4450.914)" fill="#fafafa"/></g><g transform="translate(137.95 49.956)"><path d="M890.035,4492.3a1.207,1.207,0,0,1-.379.062c-.25.021-.619.068-1.1.079a33.812,33.812,0,0,1-4.039-.1c-1.7-.123-3.717-.383-5.944-.689s-4.674-.646-7.253-.783a28.3,28.3,0,0,0-7.217.544,18.369,18.369,0,0,0-5.5,2.094,15.892,15.892,0,0,0-4.064,3.6c-.013-.009.053-.123.19-.334a8.015,8.015,0,0,1,.647-.892,12.314,12.314,0,0,1,3.056-2.658,17.967,17.967,0,0,1,5.581-2.231,27.592,27.592,0,0,1,7.333-.59c2.608.139,5.065.5,7.289.822s4.225.623,5.913.787,3.06.235,4.008.243A10.752,10.752,0,0,1,890.035,4492.3Z" transform="translate(-854.539 -4490.374)" fill="#fafafa"/></g><g transform="translate(74.223 67.107)"><path d="M860.839,4534.345a18.377,18.377,0,0,0-5.117-.435,28.053,28.053,0,0,0-5.937,1.061c-2.278.616-4.814,1.517-7.665,2.394a31.553,31.553,0,0,1-9.606,1.672,27.639,27.639,0,0,1-10.946-2.272,27.209,27.209,0,0,1-9.982-7.255,20.956,20.956,0,0,1-3.535-5.545,12.747,12.747,0,0,1-1.019-6.692,9.693,9.693,0,0,1,3.164-5.961,6.94,6.94,0,0,1,3-1.536,7.065,7.065,0,0,1,6.175,1.667,5.367,5.367,0,0,1,1.608,2.774,5.5,5.5,0,0,1-.242,3.129,7.642,7.642,0,0,1-1.669,2.557,13.431,13.431,0,0,1-4.894,3.108,14.529,14.529,0,0,1-2.685.735c-.447.083-.889.179-1.332.248l-1.324.153a28.8,28.8,0,0,1-9.726-.681,30.372,30.372,0,0,1-7.51-2.89,27.377,27.377,0,0,1-5-3.455l-.889-.779-.731-.737a12.78,12.78,0,0,1-1.1-1.192l-.639-.767a1.842,1.842,0,0,1-.2-.271,1.889,1.889,0,0,1,.242.241l.671.735a14.176,14.176,0,0,0,1.13,1.157l.742.717.9.758a27.869,27.869,0,0,0,5.005,3.365,30.407,30.407,0,0,0,7.462,2.8,28.653,28.653,0,0,0,9.611.619l1.3-.157c.436-.071.872-.167,1.313-.25a14.267,14.267,0,0,0,2.618-.729,13.018,13.018,0,0,0,4.73-3.022,7.21,7.21,0,0,0,1.569-2.413,5.071,5.071,0,0,0,.217-2.885,5.584,5.584,0,0,0-4.154-3.993,6.38,6.38,0,0,0-3.1-.094,6.511,6.511,0,0,0-2.8,1.44,9.238,9.238,0,0,0-3,5.676,12.3,12.3,0,0,0,.985,6.447,20.531,20.531,0,0,0,3.455,5.428,26.851,26.851,0,0,0,9.805,7.159,27.345,27.345,0,0,0,10.777,2.279,31.432,31.432,0,0,0,9.511-1.6c2.846-.854,5.4-1.736,7.693-2.33a27.462,27.462,0,0,1,6-.991,18.47,18.47,0,0,1,2.221.038c.636.094,1.181.138,1.61.237l.97.241A1.8,1.8,0,0,1,860.839,4534.345Z" transform="translate(-783.034 -4509.618)" fill="#fafafa"/></g><g transform="translate(60.368 69.881)"><path d="M780.837,4525.181c-.075.032-.484-.942-1.35-2.4a23.272,23.272,0,0,0-9.515-8.869c-1.51-.761-2.51-1.1-2.484-1.177a2.273,2.273,0,0,1,.727.163,14.5,14.5,0,0,1,1.9.719,20.759,20.759,0,0,1,9.659,9,14.63,14.63,0,0,1,.849,1.843A2.335,2.335,0,0,1,780.837,4525.181Z" transform="translate(-767.487 -4512.731)" fill="#fafafa"/></g><g transform="translate(31.887 63.797)"><path d="M742.779,4562.581a1.1,1.1,0,0,1-.14-.222l-.368-.671c-.318-.593-.781-1.472-1.351-2.617a61.082,61.082,0,0,1-4.08-10.036,32.584,32.584,0,0,1-1.277-7.39,23.037,23.037,0,0,1,.171-4.19,24.3,24.3,0,0,1,1.054-4.323,18.89,18.89,0,0,1,5.23-7.917,12.8,12.8,0,0,1,9.512-3.336,7.07,7.07,0,0,1,4.688,2.278,5.757,5.757,0,0,1,1.32,4.873,4.3,4.3,0,0,1-1.261,2.2,5.092,5.092,0,0,1-2.177,1.187,6.4,6.4,0,0,1-4.655-.563,10.692,10.692,0,0,1-3.4-2.9,15.723,15.723,0,0,1-2.14-3.622,16,16,0,0,1-1.191-7.393,15.04,15.04,0,0,1,1.769-5.926,15.617,15.617,0,0,1,2.792-3.745,14.426,14.426,0,0,1,2.3-1.854c.278-.191.51-.307.658-.4a1.058,1.058,0,0,1,.234-.117c.011.018-.291.2-.839.589a15.9,15.9,0,0,0-4.912,5.645,14.884,14.884,0,0,0-1.67,5.829,15.734,15.734,0,0,0,1.217,7.219,15.378,15.378,0,0,0,2.1,3.516,10.3,10.3,0,0,0,3.28,2.772,5.961,5.961,0,0,0,4.343.518,4.185,4.185,0,0,0,3.112-3.063,5.307,5.307,0,0,0-1.227-4.472,6.617,6.617,0,0,0-4.387-2.117,12.374,12.374,0,0,0-9.164,3.218,18.539,18.539,0,0,0-5.125,7.717,24.052,24.052,0,0,0-1.053,4.237,22.888,22.888,0,0,0-.191,4.116,32.632,32.632,0,0,0,1.209,7.317,65.06,65.06,0,0,0,3.926,10.046c.541,1.129.967,2.017,1.273,2.653.134.285.242.513.326.692A1.137,1.137,0,0,1,742.779,4562.581Z" transform="translate(-735.53 -4505.904)" fill="#fafafa"/></g><g transform="translate(8.81 41.791)"><path d="M728.961,4481.212a1.18,1.18,0,0,1,.082.372c.032.247.1.609.13,1.08a23.129,23.129,0,0,1-.007,4,25.474,25.474,0,0,1-14.364,20.884,23.225,23.225,0,0,1-3.735,1.437c-.451.141-.814.207-1.055.265a1.224,1.224,0,0,1-.376.058,10.832,10.832,0,0,1,1.376-.494,28.012,28.012,0,0,0,3.644-1.56,26.074,26.074,0,0,0,14.184-20.622,28.111,28.111,0,0,0,.153-3.96A11.224,11.224,0,0,1,728.961,4481.212Z" transform="translate(-709.636 -4481.212)" fill="#fafafa"/></g><g transform="translate(157.658 80.433)"><path d="M900.242,4524.574a12.849,12.849,0,0,0-3.44,3.142c-.887,1.147-1.776,2.633-2.793,4.278a33.146,33.146,0,0,1-3.808,5.036,32.143,32.143,0,0,1-9.133,6.866,27.82,27.82,0,0,1-3.191,1.366,6.7,6.7,0,0,1-1.224.352,6.554,6.554,0,0,1,1.159-.521c.745-.33,1.829-.793,3.106-1.488a34.37,34.37,0,0,0,8.943-6.891,34.823,34.823,0,0,0,3.788-4.949,45.253,45.253,0,0,1,2.9-4.253,11.163,11.163,0,0,1,2.555-2.368,5.993,5.993,0,0,1,.832-.456C900.128,4524.6,900.235,4524.56,900.242,4524.574Z" transform="translate(-876.652 -4524.571)" fill="#fafafa"/></g><g transform="translate(92.834 11.315)"><path d="M844.164,4448.453a1.425,1.425,0,0,1-.408.1l-1.186.21c-1.031.171-2.527.4-4.379.648-3.7.5-8.839,1.082-14.529,1.5a72.584,72.584,0,0,1-8.052.29,22.883,22.883,0,0,1-6.5-1.111,14.737,14.737,0,0,1-3.967-2,9.724,9.724,0,0,1-.938-.764c-.2-.189-.3-.294-.29-.307.027-.031.462.353,1.33.923a16,16,0,0,0,3.968,1.841,23.52,23.52,0,0,0,6.411,1,78.635,78.635,0,0,0,8-.325c5.681-.417,10.812-.945,14.522-1.362l4.4-.5A10.994,10.994,0,0,1,844.164,4448.453Z" transform="translate(-803.916 -4447.016)" fill="#1a2e35"/></g></g><g transform="translate(89.288 186.297)"><g transform="translate(0 10.659)"><g transform="translate(35.837)"><path d="M906.49,4565.681a23.948,23.948,0,0,1-23.275,28.469l-67.505-.75,1.774-21.858,57.878-8.632" transform="translate(-815.71 -4562.91)" fill="#b78876"/></g><g transform="translate(0 4.036)"><path d="M817.286,4573.029c-.309.1-4.208-1.644-7.7-3.26a25.2,25.2,0,0,0-11.856-2.3l-16.092.818s.994,2.656,2.7,3.6,11.711,1.146,11.711,1.146l-.512.528a11.573,11.573,0,0,1-8.009,3.505l-1.537.039a15.054,15.054,0,0,1-3.359-.656l-3.969-1.6c-1.2-.542-2.47-.454-2.992.756-.473,1.094-.127,2.6,3.151,4.252,1.831.922,8.622,3.271,8.622,3.271a16.379,16.379,0,0,0,.4,2.866c.3.988,2.965,1.977,2.965,1.977a35.314,35.314,0,0,0,2.372,4.25c.31.354,2.726,1.106,5.3,1.828a22.8,22.8,0,0,0,12.68-.1l6.132-1.831v-18.68" transform="translate(-775.499 -4567.439)" fill="#b78876"/></g><g transform="translate(11.653 19.683)"><path d="M796.7,4587.144a18.308,18.308,0,0,1-8.12-2.136c.046-.108,1.8.567,4.039,1.151S796.71,4587.026,796.7,4587.144Z" transform="translate(-788.575 -4584.996)" fill="#aa6550"/></g><g transform="translate(14.907 24.415)"><path d="M796.527,4591.49a5.924,5.924,0,0,1-4.3-1.168,77.734,77.734,0,0,0,4.3,1.168Z" transform="translate(-792.226 -4590.306)" fill="#aa6550"/></g><g transform="translate(11.477 8.177)"><path d="M799.048,4572.088a7.1,7.1,0,0,1-1.242,1.327,20.058,20.058,0,0,1-3.506,2.655,13.96,13.96,0,0,1-4.109,1.585,5.852,5.852,0,0,1-1.812.2,23.474,23.474,0,0,0,5.719-2.131,27.406,27.406,0,0,0,3.52-2.52A9.571,9.571,0,0,1,799.048,4572.088Z" transform="translate(-788.378 -4572.085)" fill="#aa6550"/></g></g><g transform="translate(41.786)"><path d="M824.025,4568.289l-1.639,24.719,63.591.024a23.782,23.782,0,0,0,12.252-3.395h0a23.778,23.778,0,0,0,11.089-24.976,73.161,73.161,0,0,0-4.1-13.711l-31.97,5.261,1.022,3.98Z" transform="translate(-822.386 -4550.95)" fill="#3e73a3"/></g><g transform="translate(44.439 7.17)"><path d="M889.319,4559a3.5,3.5,0,0,1-.643.148l-1.855.333-6.842,1.143-22.6,3.6-22.625,3.463-6.864,1-1.87.248a3.555,3.555,0,0,1-.656.055,3.4,3.4,0,0,1,.643-.148l1.856-.334,6.842-1.142,22.6-3.6,22.62-3.461,6.865-1,1.871-.248A3.462,3.462,0,0,1,889.319,4559Z" transform="translate(-825.363 -4558.996)" fill="#1a2e35"/></g><g transform="translate(62.781 14.992)"><path d="M859.022,4594.88c-.111-.021.38-1.787.442-4.7a18.885,18.885,0,0,0-.093-2.373,22.3,22.3,0,0,0-.39-2.692,25.479,25.479,0,0,0-2.067-5.866,27.059,27.059,0,0,0-3.476-5.167l-.936-1.047c-.308-.334-.64-.627-.943-.929-.6-.615-1.226-1.1-1.781-1.577-2.272-1.824-3.887-2.669-3.834-2.759a6.789,6.789,0,0,1,1.138.577,12.45,12.45,0,0,1,1.279.777c.475.339,1.06.669,1.621,1.147a22.825,22.825,0,0,1,1.84,1.554c.313.3.654.592.972.926l.965,1.05a26.136,26.136,0,0,1,3.567,5.238,24.748,24.748,0,0,1,2.073,5.99,21.365,21.365,0,0,1,.354,2.748,17.858,17.858,0,0,1,.037,2.412,16.472,16.472,0,0,1-.178,1.979,10.188,10.188,0,0,1-.262,1.476A6.75,6.75,0,0,1,859.022,4594.88Z" transform="translate(-845.944 -4567.772)" fill="#fafafa"/></g><g transform="translate(92.421 10.592)"><path d="M901.343,4592.48a13.19,13.19,0,0,1-2.95-.354,15.179,15.179,0,0,1-3.3-1.162,13,13,0,0,1-3.715-2.768,11.816,11.816,0,0,1-2.734-4.9,13.248,13.248,0,0,1-.471-3.113,12.078,12.078,0,0,1,.266-3.331,10.025,10.025,0,0,1,1.316-3.27,7.4,7.4,0,0,1,2.67-2.544,6.628,6.628,0,0,1,3.73-.856,5,5,0,0,1,3.491,1.806,4.916,4.916,0,0,1,1.172,3.757,4.454,4.454,0,0,1-2.189,3.13,10.446,10.446,0,0,1-7.028.965,14.654,14.654,0,0,1-12.393-14.044,10.3,10.3,0,0,1,.253-2.959,22.816,22.816,0,0,0-.072,2.951,15,15,0,0,0,2.536,7.5,14.568,14.568,0,0,0,9.745,6.128,10.07,10.07,0,0,0,6.72-.929,4.005,4.005,0,0,0,1.971-2.808,4.466,4.466,0,0,0-1.07-3.4,4.542,4.542,0,0,0-3.174-1.644,6.174,6.174,0,0,0-3.47.794,8.1,8.1,0,0,0-3.789,5.509,11.731,11.731,0,0,0-.275,3.222,12.982,12.982,0,0,0,.434,3.026,11.546,11.546,0,0,0,2.606,4.783,12.9,12.9,0,0,0,3.591,2.759,15.631,15.631,0,0,0,3.224,1.217C900.283,4592.4,901.351,4592.418,901.343,4592.48Z" transform="translate(-879.201 -4562.835)" fill="#fafafa"/></g></g></g></g><g transform="translate(360.015 4278.088)"><g transform="translate(0 10.544)"><path d="M593.1,4293.9H433.85a35.094,35.094,0,0,0-35.094,35.094v56.753H364.395l34.362,34.361v38.577a35.094,35.094,0,0,0,35.094,35.093H593.1a35.094,35.094,0,0,0,35.094-35.093V4328.991A35.094,35.094,0,0,0,593.1,4293.9Z" transform="translate(-364.395 -4293.897)" fill="#c6ca68"/></g><g transform="translate(64.838 0)"><g transform="translate(33.572)"><g transform="translate(4.375)"><g transform="translate(50.923 13.789)"><path d="M546.807,4300.292c-1.008,2.606.722,5.451,2.661,7.461s4.289,3.925,4.9,6.651c.511,2.288-.336,4.671-.13,7.006.21,2.39,1.5,4.534,2.229,6.819,1.323,4.136.792,8.654-.389,12.833a23.717,23.717,0,0,1-4.777,9.456,12.589,12.589,0,0,1-9.343,4.472,3.664,3.664,0,0,1-2.761-1,4.4,4.4,0,0,1-.8-2.451,239.021,239.021,0,0,1-.008-54" transform="translate(-536.865 -4297.538)" fill="#1a2e35"/></g><g transform="translate(40.421 73.023)"><path d="M543.646,4365.354c7.752-.338,14.914,7.084,14.3,14.819,7.85,1.911,13.394,10.552,11.859,18.484-.506,2.618-1.67,5.111-1.831,7.773-.176,2.9.855,5.726,1.415,8.581a27.033,27.033,0,0,1-1.549,15.469c-1.225,2.95-3.5,6-6.695,6.086a6.568,6.568,0,0,1-5.379-3.144,16.613,16.613,0,0,1-2.161-6.089c-1.383-6.963-1.8-14.121-3.708-20.958s-5.621-13.574-11.806-17.058c-3.416-1.924-7.517-2.833-10.229-5.664a11.121,11.121,0,0,1-2.009-11.5A14.664,14.664,0,0,1,534.59,4364" transform="translate(-525.081 -4364.002)" fill="#1a2e35"/></g><g transform="translate(4.216)"><path d="M485.556,4305c-.094-3.312,2.97-5.873,6.053-7.086s6.511-1.671,9.261-3.521c2.435-1.639,4.07-4.194,6.132-6.284a20.4,20.4,0,0,1,34.308,9.36c1.184,4.718.375,10.3-3.344,13.431-4.316,3.638-10.715,2.83-16.245,1.7s-11.79-2.249-16.407,1c-2.785,1.959-4.381,5.145-6.083,8.093s-3.838,5.958-7.058,7.067-7.591-.806-7.716-4.208" transform="translate(-484.456 -4282.066)" fill="#1a2e35"/><g transform="translate(9.216 16.046)"><path d="M499.745,4307.634a5.543,5.543,0,0,0-4.947,5.633h0l3.307,74.865c.138,8.842,13.063,13.81,22.529,13.589h0c9.56-.222,9.868-4.91,9.987-13.322.2-14.054.184-19.329.189-19.249,0,0,12.075-2.033,14.543-17.8,1.227-7.841.806-20.691.12-31.2-.617-9.454-6.907-21.041-16.326-20.023Z" transform="translate(-494.796 -4300.071)" fill="#ffc19d"/><g transform="translate(39.914 24.661)"><g transform="translate(4.011 3.498)"><path d="M548.117,4333.489a2.021,2.021,0,0,1-1.945,2.044,1.933,1.933,0,0,1-2.087-1.818,2.023,2.023,0,0,1,1.942-2.044A1.936,1.936,0,0,1,548.117,4333.489Z" transform="translate(-544.083 -4331.667)" fill="#1a2e35"/></g><path d="M547.572,4329.859c-.25.264-1.783-.867-3.959-.855-2.173-.021-3.766,1.1-4,.836-.116-.118.138-.594.832-1.1a5.542,5.542,0,0,1,3.2-1,5.326,5.326,0,0,1,3.151,1.01C547.468,4329.264,547.7,4329.74,547.572,4329.859Z" transform="translate(-539.583 -4327.742)" fill="#1a2e35"/></g><g transform="translate(18.535 25.115)"><g transform="translate(4.491 3.044)"><path d="M524.666,4333.489a2.02,2.02,0,0,1-1.945,2.044,1.933,1.933,0,0,1-2.087-1.818,2.023,2.023,0,0,1,1.943-2.044A1.935,1.935,0,0,1,524.666,4333.489Z" transform="translate(-520.632 -4331.667)" fill="#1a2e35"/></g><path d="M523.584,4330.367c-.25.265-1.786-.865-3.96-.854-2.173-.021-3.767,1.1-4,.836-.116-.118.135-.594.832-1.1a5.546,5.546,0,0,1,3.2-1,5.326,5.326,0,0,1,3.151,1.01C523.477,4329.772,523.706,4330.25,523.584,4330.367Z" transform="translate(-515.594 -4328.251)" fill="#1a2e35"/></g><g transform="translate(33.396 25.222)"><path d="M533.327,4346.493a14.36,14.36,0,0,1,3.531-.646c.555-.059,1.081-.17,1.174-.549a2.825,2.825,0,0,0-.374-1.646q-.789-2.013-1.652-4.226c-2.294-6.017-3.956-10.964-3.713-11.055s2.3,4.714,4.594,10.73q.827,2.224,1.583,4.251a3.217,3.217,0,0,1,.293,2.179,1.393,1.393,0,0,1-.912.813,3.8,3.8,0,0,1-.943.134A14.148,14.148,0,0,1,533.327,4346.493Z" transform="translate(-532.268 -4328.371)" fill="#1a2e35"/></g><g transform="translate(14.894 63.496)"><path d="M532.628,4376.9a40.1,40.1,0,0,1-21.12-5.583s5.144,10.815,20.915,9.305Z" transform="translate(-511.508 -4371.317)" fill="#ff9c6a"/></g><g transform="translate(27.06 47.116)"><path d="M531.645,4354.409a3.921,3.921,0,0,0-3.517-1.447,3.577,3.577,0,0,0-2.468,1.331,2.266,2.266,0,0,0-.167,2.593,2.629,2.629,0,0,0,2.853.714,8.214,8.214,0,0,0,2.776-1.665,2.408,2.408,0,0,0,.619-.645.727.727,0,0,0,0-.81" transform="translate(-525.16 -4352.938)" fill="#ff9c6a"/></g><g transform="translate(27.705 44.862)"><path d="M526.234,4350.409c.354-.022.364,2.339,2.388,4.01s4.537,1.406,4.556,1.736c.033.149-.56.461-1.622.491a5.875,5.875,0,0,1-3.8-1.315,5.119,5.119,0,0,1-1.851-3.363C525.811,4350.981,526.073,4350.4,526.234,4350.409Z" transform="translate(-525.884 -4350.409)" fill="#1a2e35"/></g><g transform="translate(17.571 21.799)"><path d="M524.436,4326.152c-.213.592-2.386.316-4.936.629-2.558.262-4.614,1.013-4.953.484-.151-.253.206-.81,1.036-1.385a8.645,8.645,0,0,1,7.534-.849C524.055,4325.407,524.528,4325.872,524.436,4326.152Z" transform="translate(-514.512 -4324.53)" fill="#1a2e35"/></g><g transform="translate(39.683 18.24)"><path d="M546.73,4322.781c-.381.494-1.88-.015-3.682-.035-1.8-.083-3.327.339-3.679-.177-.155-.25.085-.746.75-1.214a5.331,5.331,0,0,1,5.932.17C546.688,4322.031,546.9,4322.54,546.73,4322.781Z" transform="translate(-539.323 -4320.537)" fill="#1a2e35"/></g></g><g transform="translate(3.032 12.684)"><path d="M487.985,4359.078a14,14,0,0,0,16.649-15.477c-.49-3.872-2.577-7.81-1.235-11.474,1.775-4.844,8.565-6.334,10.367-11.168,1.047-2.809.107-6.1,1.294-8.849,1.117-2.589,3.84-4.081,6.492-5.038s5.494-1.621,7.72-3.351,3.615-5,2.179-7.422a149.349,149.349,0,0,0-34.44,8.369c-2.572.96-5.274,2.115-6.795,4.4-1.61,2.419-1.532,5.545-1.4,8.447.66,14.153-1.494,27.41-.833,41.563" transform="translate(-487.858 -4296.299)" fill="#1a2e35"/></g></g><g transform="translate(0 6.135)"><path d="M483.343,4353.836a1.156,1.156,0,0,1-.258-.083,3.64,3.64,0,0,1-.718-.35,5.254,5.254,0,0,1-1.965-2.324,7.786,7.786,0,0,1-.513-4.787,15.277,15.277,0,0,1,2.863-5.724,41.792,41.792,0,0,0,4.325-6.364,9.777,9.777,0,0,0,1.044-4.062,13.325,13.325,0,0,0-.928-4.385,13.459,13.459,0,0,1-.93-4.765,10.641,10.641,0,0,1,5.123-8.607,12.215,12.215,0,0,1,5.192-1.481,21.832,21.832,0,0,0,5.2-.908,6.739,6.739,0,0,0,3.653-3.29,25.349,25.349,0,0,0,1.733-4.648,24.862,24.862,0,0,1,1.777-4.5,16.86,16.86,0,0,1,5.909-6.642,12.777,12.777,0,0,1,7.482-1.94,9.586,9.586,0,0,1,5.887,2.415,9.393,9.393,0,0,1,2.634,4.043,7.608,7.608,0,0,1,.365,3.032,4.727,4.727,0,0,1-.185,1.05c-.03-.005.062-.365.092-1.056a7.849,7.849,0,0,0-.444-2.969,9.233,9.233,0,0,0-8.369-6.187,12.483,12.483,0,0,0-7.259,1.938,16.522,16.522,0,0,0-5.732,6.513,24.57,24.57,0,0,0-1.733,4.434,25.569,25.569,0,0,1-1.757,4.736,8.139,8.139,0,0,1-1.592,2.1,6.926,6.926,0,0,1-2.3,1.4,22.156,22.156,0,0,1-5.311.938,11.778,11.778,0,0,0-5.01,1.417,10.211,10.211,0,0,0-4.914,8.224,13.1,13.1,0,0,0,.894,4.617,13.637,13.637,0,0,1,.93,4.524,10.151,10.151,0,0,1-1.1,4.222,41.4,41.4,0,0,1-4.408,6.392,15.145,15.145,0,0,0-2.874,5.584,7.653,7.653,0,0,0,.424,4.659,5.29,5.29,0,0,0,1.852,2.319C482.993,4353.711,483.359,4353.8,483.343,4353.836Z" transform="translate(-479.726 -4288.951)" fill="#375a64"/></g><g transform="translate(49.423 2.294)"><path d="M535.183,4284.646a1.531,1.531,0,0,1,.612.185,6.584,6.584,0,0,1,1.49.9,7.641,7.641,0,0,1,1.557,10.434,6.616,6.616,0,0,1-1.163,1.3c-.316.263-.513.377-.531.355a21.445,21.445,0,0,0,1.419-1.832,7.7,7.7,0,0,0-1.492-10A21.519,21.519,0,0,0,535.183,4284.646Z" transform="translate(-535.182 -4284.64)" fill="#375a64"/></g><g transform="translate(57.419 81.632)"><path d="M571.074,4402.492a12.024,12.024,0,0,0,.45-1.667,7.694,7.694,0,0,0-.772-4.539,10.454,10.454,0,0,0-4.975-4.635,19.847,19.847,0,0,0-3.872-1.38c-1.391-.359-2.864-.657-4.339-1.132a9.869,9.869,0,0,1-3.979-2.175,6.613,6.613,0,0,1-1.878-3.785c-.242-1.323-.324-2.581-.618-3.7a7.323,7.323,0,0,0-1.435-2.838,8.175,8.175,0,0,0-3.813-2.595c-1.065-.318-1.7-.319-1.692-.368a1.692,1.692,0,0,1,.455-.01,7.026,7.026,0,0,1,1.288.205,8.078,8.078,0,0,1,4.015,2.558,7.583,7.583,0,0,1,1.553,2.948c.322,1.164.417,2.437.667,3.721a6.208,6.208,0,0,0,1.773,3.54,9.532,9.532,0,0,0,3.806,2.06c1.442.464,2.906.765,4.309,1.133a19.831,19.831,0,0,1,3.949,1.437,10.656,10.656,0,0,1,5.082,4.876,7.626,7.626,0,0,1,.652,4.71,5.618,5.618,0,0,1-.4,1.242A1.687,1.687,0,0,1,571.074,4402.492Z" transform="translate(-544.153 -4373.662)" fill="#375a64"/></g></g><g transform="translate(0 13.582)"><path d="M494.979,4366.276c-7.983-2.136-14.881-9.957-17.679-17.732s-2.8-16.273-2.083-24.507c.52-5.967,1.567-12.275,5.529-16.768,5.974-6.771,12.437-10.228,21.462-9.947" transform="translate(-474.817 -4297.306)" fill="#1a2e35"/></g></g><g transform="translate(33.995 84.806)"><path d="M541.641,4392.35l-7.442-1.87a4.237,4.237,0,0,0,1.476-5.19,6.812,6.812,0,0,0-5.686-4.216l-33.941-3.832a2.723,2.723,0,0,0-2.847,1.675q-2.261,5.735-.155,9.448l-.16,0-6.537,1.3-11.057,97.8,72.614-3.4Z" transform="translate(-475.292 -4377.224)" fill="#f5f5f5"/><g transform="translate(20.68 1.527)"><g transform="translate(0 10.357)"><path d="M533.487,4392.3a7.971,7.971,0,0,1-1.364.261c-.881.144-2.164.3-3.753.455a87.62,87.62,0,0,1-24.855-1.235c-1.566-.31-2.826-.6-3.689-.826a7.833,7.833,0,0,1-1.331-.4,7.916,7.916,0,0,1,1.37.219c.873.176,2.141.412,3.709.679a102.954,102.954,0,0,0,24.769,1.231c1.587-.11,2.872-.219,3.758-.308A7.937,7.937,0,0,1,533.487,4392.3Z" transform="translate(-498.496 -4390.558)" fill="#1a2e35"/></g><g transform="translate(2.16 19.45)"><path d="M500.926,4408.955a52.244,52.244,0,0,1,5.47-8.192,52.365,52.365,0,0,1-5.47,8.192Z" transform="translate(-500.919 -4400.761)" fill="#e1e1e1"/></g><g transform="translate(19.481 21.726)"><path d="M526.447,4410.89a50.9,50.9,0,0,1-6.087-7.573,50.913,50.913,0,0,1,6.087,7.573Z" transform="translate(-520.355 -4403.314)" fill="#e1e1e1"/></g><g transform="translate(12.936 31.92)"><path d="M514.776,4424.563a53.435,53.435,0,0,1-1.736-9.811,53.681,53.681,0,0,1,1.736,9.811Z" transform="translate(-513.01 -4414.753)" fill="#e1e1e1"/></g><g transform="translate(23.996 42.499)"><path d="M533.994,4426.626a78.016,78.016,0,0,1-8.57,8.441,78.1,78.1,0,0,1,8.57-8.441Z" transform="translate(-525.42 -4426.623)" fill="#e1e1e1"/></g><g transform="translate(0.873 50.974)"><path d="M507.209,4444.325a20.528,20.528,0,0,1-7.728-8.191c.119-.077,1.488,2.063,3.629,4.317S507.292,4444.21,507.209,4444.325Z" transform="translate(-499.475 -4436.132)" fill="#e1e1e1"/></g><g transform="translate(7.755 72.017)"><path d="M515.747,4459.761c.04.133-2.035.79-4.386,2.039s-4.072,2.576-4.16,2.467a16.868,16.868,0,0,1,8.546-4.506Z" transform="translate(-507.198 -4459.745)" fill="#e1e1e1"/></g><g transform="translate(20.594 61.344)"><path d="M529.838,4459.293a8.719,8.719,0,0,1-1.419-1.525c-.823-.985-1.916-2.385-3.056-3.979s-2.108-3.084-2.773-4.182a8.755,8.755,0,0,1-.982-1.837,10,10,0,0,1,1.257,1.657l2.876,4.092,2.937,4.047A9.9,9.9,0,0,1,529.838,4459.293Z" transform="translate(-521.603 -4447.769)" fill="#e1e1e1"/></g><g transform="translate(19.238 83.821)"><path d="M530.923,4473.012a42.147,42.147,0,0,1-10.841,1.79,143.6,143.6,0,0,1,10.841-1.79Z" transform="translate(-520.082 -4472.989)" fill="#e1e1e1"/></g><g transform="translate(9.166)"><path d="M509.422,4389.659c-.062-.051.367-.539.732-1.482a7.818,7.818,0,0,0,.387-3.871,15.7,15.7,0,0,0-1.15-3.8,7.292,7.292,0,0,1-.6-1.567,5.3,5.3,0,0,1,.9,1.43,12.438,12.438,0,0,1,1.312,3.875,7.183,7.183,0,0,1-.545,4.065A2.968,2.968,0,0,1,509.422,4389.659Z" transform="translate(-508.781 -4378.937)" fill="#e1e1e1"/></g><g transform="translate(23.355 3.396)"><path d="M524.717,4382.75a8.1,8.1,0,0,1,1.435,6.13c-.137,0-.148-1.424-.549-3.1S524.6,4382.816,524.717,4382.75Z" transform="translate(-524.702 -4382.748)" fill="#e1e1e1"/></g></g></g><g transform="translate(137.069 62.19)"><path d="M593.1,4449.07l33.784-59.329,4.07-10.292s10.529-22.641,11.263-24.945c.849-2.663,2.337-2.894,3.3-2.515,1.5.592,1.976,2.822,1.318,5.129-.227.8-4.322,13.233-4.322,13.233a30.869,30.869,0,0,1,3.493-2.592c2.593-1.742,7.349-1.689,11.746-.123s5.491,2.394,4.962,4.131a2.312,2.312,0,0,1-1.409,1.4,4.57,4.57,0,0,1-3.254.071c-7.077-2.412-10.212.778-10.212.778l-.533,1.346s5.318-1.7,8.344.705a4.395,4.395,0,0,1,1.1,1.289,5.848,5.848,0,0,1,2.165,9.854,2.43,2.43,0,0,1-2.684.679,3.109,3.109,0,0,1-1.014-1.167,4.6,4.6,0,0,0-.484-.672l-2.019,3.562s-4.965,7.762-6.743,11.384l-23.25,61.958a16.409,16.409,0,0,1-21.4,9.493h0A16.409,16.409,0,0,1,593.1,4449.07Z" transform="translate(-590.946 -4351.848)" fill="#ffc19d"/><g transform="translate(38.261 25.029)"><g transform="translate(0.002 0.394)"><path d="M633.88,4392.644c1.192.776,2.839.249,3.914-.683s1.8-2.2,2.811-3.2c3.009-3.007,8.045-3.288,10.906-6.437.4-.439.753-1.105.409-1.588-.319-.448-.989-.389-1.529-.282l-13.822,2.737" transform="translate(-633.88 -4380.374)" fill="#ffc19d"/></g><path d="M636.569,4383.138a5.638,5.638,0,0,1,1.464-.449c.954-.238,2.338-.557,4.051-.934l6.028-1.281,1.745-.359a2.8,2.8,0,0,1,2.11.07,1.188,1.188,0,0,1,.451,1.255,2.457,2.457,0,0,1-.541,1.018,9.28,9.28,0,0,1-1.557,1.375c-2.3,1.592-4.825,2.246-6.835,3.3a10.614,10.614,0,0,0-2.625,1.789c-.711.689-1.27,1.473-1.861,2.142a4.962,4.962,0,0,1-3.663,2.056c-1.061-.021-1.493-.519-1.459-.527a4.13,4.13,0,0,0,1.445.214,4.8,4.8,0,0,0,3.241-2.108c.544-.667,1.077-1.479,1.828-2.25a10.973,10.973,0,0,1,2.751-1.974c2.078-1.126,4.589-1.819,6.712-3.3a8.715,8.715,0,0,0,1.413-1.238c.386-.438.522-.967.243-1.113-.279-.207-.914-.081-1.505.041l-1.75.333-6.062,1.112c-1.727.3-3.128.539-4.1.682A5.659,5.659,0,0,1,636.569,4383.138Z" transform="translate(-633.878 -4379.931)" fill="#ff9c6a"/></g><g transform="translate(56.159 19.079)"><path d="M653.972,4377.7a5.815,5.815,0,0,1,1.586-2.137,4.49,4.49,0,0,1,2.671-.878,11.484,11.484,0,0,1,3.524.593,18.254,18.254,0,0,0,3.617.82,5.91,5.91,0,0,0,3.036-.469,2.3,2.3,0,0,0,1.293-1.618,1.365,1.365,0,0,0-.016-.759c-.051,0-.047.27-.18.709a2.169,2.169,0,0,1-1.255,1.337,5.844,5.844,0,0,1-2.836.324,20.335,20.335,0,0,1-3.517-.842,11.154,11.154,0,0,0-3.687-.573,4.709,4.709,0,0,0-2.882,1.07,4.18,4.18,0,0,0-1.2,1.683A1.444,1.444,0,0,0,653.972,4377.7Z" transform="translate(-653.96 -4373.256)" fill="#ff9c6a"/></g><g transform="translate(50.763 4.378)"><path d="M653.27,4356.76a14.706,14.706,0,0,0-.831,2.468l-1.847,5.986c-.726,2.237-1.384,4.261-1.937,5.959a14.7,14.7,0,0,0-.741,2.494A11.643,11.643,0,0,0,649,4371.3c.594-1.5,1.344-3.588,2.086-5.928s1.332-4.481,1.707-6.046A11.712,11.712,0,0,0,653.27,4356.76Z" transform="translate(-647.905 -4356.76)" fill="#ff9c6a"/></g><g transform="translate(58.085 26.279)"><path d="M656.121,4382.293a3.185,3.185,0,0,0,.814-.049,2.414,2.414,0,0,1,1.945.521,1.3,1.3,0,0,1,.314,1.243,6.9,6.9,0,0,1-.634,1.574,2.916,2.916,0,0,0-.329,2.046,2.482,2.482,0,0,0,1.583,1.594,2.821,2.821,0,0,0,2.221-.22,3.54,3.54,0,0,0,1.477-1.438,11.477,11.477,0,0,0,.972-3.206,6.731,6.731,0,0,0,.023-2.255,1.492,1.492,0,0,0-.313-.768c-.043.019.067.288.113.8a7.941,7.941,0,0,1-.185,2.162,12.243,12.243,0,0,1-1.031,3.043,2.791,2.791,0,0,1-3.108,1.4,2,2,0,0,1-1.265-1.247,2.491,2.491,0,0,1,.276-1.707,6.871,6.871,0,0,0,.623-1.7,1.683,1.683,0,0,0-.484-1.579,2.526,2.526,0,0,0-2.226-.457A2.091,2.091,0,0,0,656.121,4382.293Z" transform="translate(-656.121 -4381.334)" fill="#ff9c6a"/></g><g transform="translate(63.757 25.748)"><path d="M662.644,4388.493c-.022-.012-.176.232-.157.727a2.265,2.265,0,0,0,1.036,1.743,3.022,3.022,0,0,0,3,.031,4.943,4.943,0,0,0,2.269-2.89,5.977,5.977,0,0,0,0-3.669,5.712,5.712,0,0,0-1.652-2.5,5.419,5.419,0,0,0-1.719-1.036,1.567,1.567,0,0,0-.718-.154,9.411,9.411,0,0,1,2.187,1.458,5.638,5.638,0,0,1,1.447,2.372,5.7,5.7,0,0,1-.038,3.366,4.59,4.59,0,0,1-2,2.628,2.68,2.68,0,0,1-2.583.076,2.148,2.148,0,0,1-1.027-1.453C662.61,4388.759,662.687,4388.5,662.644,4388.493Z" transform="translate(-662.485 -4380.738)" fill="#ff9c6a"/></g><g transform="translate(48.083 31.94)"><path d="M649.478,4394.832a2.123,2.123,0,0,0-1.2-.366,4.916,4.916,0,0,0-3.1.74l.38.256a14.632,14.632,0,0,0,.257-1.75,11.173,11.173,0,0,0-.9-6.025,28.286,28.286,0,0,1,.386,5.981c-.05.6-.131,1.171-.227,1.7l-.106.583.487-.326a5.146,5.146,0,0,1,2.81-.843C649.015,4394.775,649.458,4394.9,649.478,4394.832Z" transform="translate(-644.898 -4387.686)" fill="#ff9c6a"/></g><g transform="translate(59.655 17.944)"><path d="M657.921,4371.983c-.136.021.059,1.069,1,1.888s2,.882,2,.745c.031-.148-.851-.409-1.663-1.134C658.44,4372.773,658.063,4371.933,657.921,4371.983Z" transform="translate(-657.882 -4371.981)" fill="#ff9c6a"/></g></g><g transform="translate(43.92 25.436)"><path d="M486.428,4310.607" transform="translate(-486.428 -4310.607)" fill="none" stroke="#44555b" stroke-miterlimit="10" stroke-width="1"/></g><g transform="translate(0 96.452)"><g transform="translate(91.293 1.611)"><path d="M539.583,4502.679l35.331.347-5.944-25.641,1.986,4.838a24.351,24.351,0,0,0,22.528,15.1h0c11.173,0,18.9-8.313,23.624-18.437,11.053-23.67,21.7-61.788,21.7-61.788l-21.549-18.928c-15.589,29.494-30.244,55.111-30.244,55.111s-4.232-12.861-7.5-24.335-3.248-17.507-8.27-23.231c-7.721-8.8-18.727-10.99-28.947-13.622l-.381,47.626-2.338,62.955" transform="translate(-539.583 -4392.098)" fill="#6f7302"/></g><path d="M488.028,4467.008l64.342,12.533,3.136,24.72-98.659,0a19.437,19.437,0,0,1-19.639-20.965c1.421-18.016,2.962-40.214,4.133-49.595.913-7.315,3.831-14.881,7.289-21.394,4.977-9.377,21.578-21.421,36.133-22.015l2.756,61.292" transform="translate(-437.147 -4390.291)" fill="#6f7302"/><g transform="translate(31.576 18.865)"><path d="M479.63,4467.521a2.879,2.879,0,0,1-.029-.589c0-.435,0-.993.006-1.687.009-1.521.021-3.625.036-6.2.007-5.233-.091-12.463-.5-20.437-.2-3.988-.461-7.783-.738-11.232a46.126,46.126,0,0,0-1.293-9.052,12.858,12.858,0,0,0-2.837-5.378,18.6,18.6,0,0,0-1.7-1.488,6.9,6.9,0,0,1,1.828,1.362,12.6,12.6,0,0,1,3.021,5.412,44.463,44.463,0,0,1,1.405,9.109c.3,3.451.574,7.251.774,11.244.408,7.984.455,15.226.364,20.464-.045,2.619-.118,4.737-.184,6.2l-.094,1.685A2.742,2.742,0,0,1,479.63,4467.521Z" transform="translate(-472.578 -4411.459)" fill="#1a2e35"/></g><g transform="translate(38.629 74.922)"><path d="M555.841,4490.432a9.916,9.916,0,0,0-2.343-1.9,14.735,14.735,0,0,0-3.287-1.314c-1.334-.378-2.891-.673-4.61-1.025-6.876-1.4-16.369-3.353-26.891-5.318s-20.086-3.552-27.014-4.664l-8.2-1.317-2.229-.373a.4.4,0,1,1,.013-.093l2.241.288c1.946.258,4.757.654,8.228,1.171,6.943,1.028,16.519,2.562,27.049,4.532s20.014,3.97,26.872,5.453c1.713.373,3.273.691,4.616,1.1a14.326,14.326,0,0,1,3.306,1.406,7.655,7.655,0,0,1,1.765,1.429,4.262,4.262,0,0,1,.375.457A.654.654,0,0,1,555.841,4490.432Z" transform="translate(-480.491 -4474.358)" fill="#1a2e35"/></g><g transform="translate(22.545 74.918)"><path d="M478.719,4474.363c.021.084-1.186.362-3.021,1.108a25.325,25.325,0,0,0-3.113,1.536,24.758,24.758,0,0,0-6.476,5.441,25.274,25.274,0,0,0-2.048,2.8c-1.052,1.679-1.534,2.82-1.612,2.785a3.115,3.115,0,0,1,.279-.826,16.336,16.336,0,0,1,1.052-2.128,21.947,21.947,0,0,1,2-2.907,22.986,22.986,0,0,1,6.591-5.539,21.918,21.918,0,0,1,3.207-1.47,16.305,16.305,0,0,1,2.278-.67A3.121,3.121,0,0,1,478.719,4474.363Z" transform="translate(-462.444 -4474.354)" fill="#1a2e35"/></g><g transform="translate(116.384 29.056)"><path d="M573.267,4484.167a3.105,3.105,0,0,1-.133-.612c-.075-.451-.172-1.039-.292-1.77-.247-1.538-.572-3.769-.947-6.529-.751-5.519-1.661-13.163-2.425-21.63s-1.227-16.154-1.471-21.719c-.123-2.784-.2-5.036-.233-6.593-.012-.741-.021-1.337-.029-1.793a3.232,3.232,0,0,1,.021-.626,3.1,3.1,0,0,1,.072.623l.115,1.79c.093,1.608.222,3.844.38,6.583.328,5.558.848,13.232,1.606,21.694s1.62,16.1,2.289,21.63c.332,2.723.6,4.946.8,6.546.085.736.153,1.328.206,1.781A3.142,3.142,0,0,1,573.267,4484.167Z" transform="translate(-567.737 -4422.894)" fill="#1a2e35"/></g><g transform="translate(138.322 62.008)"><path d="M597.28,4478.6c-.026.019-.209-.191-.518-.587a16.477,16.477,0,0,1-1.185-1.768,23.433,23.433,0,0,1-3.163-13.516,16.618,16.618,0,0,1,.278-2.11,2.574,2.574,0,0,1,.2-.755c.08.013-.1,1.107-.153,2.883a26.435,26.435,0,0,0,3.121,13.338C596.7,4477.654,597.346,4478.557,597.28,4478.6Z" transform="translate(-592.352 -4459.867)" fill="#1a2e35"/></g><g transform="translate(6.732 33.526)"><path d="M476.337,4436.2a.936.936,0,0,1-.333.07,8.234,8.234,0,0,1-.97.094,14.887,14.887,0,0,1-3.571-.279,25.837,25.837,0,0,1-5.068-1.588c-1.848-.765-3.808-1.75-5.861-2.77a43.843,43.843,0,0,0-5.931-2.484,20.253,20.253,0,0,0-5.122-1,16.707,16.707,0,0,0-4.78.541c-.005-.015.1-.065.307-.146a7.058,7.058,0,0,1,.924-.311,12.043,12.043,0,0,1,3.561-.412,19.435,19.435,0,0,1,5.238.92,40.958,40.958,0,0,1,6.009,2.476c2.057,1.022,4,2.013,5.821,2.792a27.641,27.641,0,0,0,4.969,1.661A22.607,22.607,0,0,0,476.337,4436.2Z" transform="translate(-444.701 -4427.909)" fill="#fafafa"/></g><g transform="translate(38.82 39.613)"><path d="M491.271,4434.768a61.971,61.971,0,0,1-10.565,1.8,61.882,61.882,0,0,1,10.565-1.8Z" transform="translate(-480.706 -4434.739)" fill="#fafafa"/></g><g transform="translate(3.22 58.77)"><path d="M475.51,4456.238a8.142,8.142,0,0,1-1.3.56c-.848.326-2.083.774-3.628,1.273a92.949,92.949,0,0,1-12.314,3.045c-2.443.428-4.787.74-6.924.953a27.856,27.856,0,0,1-5.72.155,9.782,9.782,0,0,1-3.715-1.059,5.734,5.734,0,0,1-.882-.575c-.188-.15-.281-.235-.271-.249.027-.038.424.277,1.234.662a10.4,10.4,0,0,0,3.664.894,29.6,29.6,0,0,0,5.644-.253c2.126-.236,4.457-.559,6.888-.985a112.688,112.688,0,0,0,12.3-2.9c1.552-.458,2.8-.858,3.665-1.131A8.311,8.311,0,0,1,475.51,4456.238Z" transform="translate(-440.76 -4456.234)" fill="#fafafa"/></g><g transform="translate(39.42 63.302)"><path d="M491.093,4461.485a50.876,50.876,0,0,1-9.714.161,50.983,50.983,0,0,1,9.714-.161Z" transform="translate(-481.379 -4461.32)" fill="#fafafa"/></g><g transform="translate(3.27 74.705)"><path d="M440.82,4503.477a1.93,1.93,0,0,1,.094-.473l.358-1.338.27-.964c.111-.348.262-.716.409-1.118a26.3,26.3,0,0,1,1.1-2.686q.349-.733.726-1.528c.258-.528.587-1.046.9-1.6a38.7,38.7,0,0,1,2.191-3.4,40.7,40.7,0,0,1,13.882-12.074,38.715,38.715,0,0,1,3.672-1.7c.591-.229,1.149-.484,1.708-.666l1.614-.507a26.332,26.332,0,0,1,2.814-.721c.418-.09.8-.188,1.164-.25l.993-.134,1.373-.17a1.885,1.885,0,0,1,.482-.027,1.905,1.905,0,0,1-.471.12l-1.356.255-.98.173c-.356.075-.736.186-1.149.287a28.625,28.625,0,0,0-2.773.781q-.762.255-1.59.531c-.551.189-1.1.45-1.682.685-1.176.446-2.356,1.085-3.617,1.719a41.729,41.729,0,0,0-13.739,11.951c-.8,1.16-1.6,2.241-2.2,3.343-.313.543-.648,1.051-.912,1.571s-.507,1.021-.746,1.5a28.686,28.686,0,0,0-1.158,2.639c-.157.394-.319.756-.443,1.1l-.307.946c-.177.527-.323.959-.44,1.308A1.893,1.893,0,0,1,440.82,4503.477Z" transform="translate(-440.816 -4474.115)" fill="#fafafa"/></g><g transform="translate(34.258 76.693)"><path d="M489.3,4476.346a15.953,15.953,0,0,0-3.661,4.6,22.461,22.461,0,0,0-2.049,6.05,61.834,61.834,0,0,0-.843,7.835,55.491,55.491,0,0,1-.914,7.89,21.479,21.479,0,0,1-2.233,6.1,13.648,13.648,0,0,1-2.716,3.437,9.1,9.1,0,0,1-.938.736,1.374,1.374,0,0,1-.356.216,15.724,15.724,0,0,0,3.723-4.547,22.075,22.075,0,0,0,2.1-6.03,59.005,59.005,0,0,0,.868-7.833,57.992,57.992,0,0,1,.888-7.89,21.826,21.826,0,0,1,2.179-6.12,13.758,13.758,0,0,1,2.672-3.472,9.1,9.1,0,0,1,.926-.751A1.387,1.387,0,0,1,489.3,4476.346Z" transform="translate(-475.586 -4476.344)" fill="#fafafa"/></g><g transform="translate(63.134 79.831)"><path d="M508.033,4514.154c-.128,0,.02-7.685.33-17.15s.666-17.142.794-17.137-.02,7.682-.331,17.152S508.162,4514.158,508.033,4514.154Z" transform="translate(-507.987 -4479.866)" fill="#fafafa"/></g><g transform="translate(85.758 84.141)"><path d="M534.984,4513.359a5.624,5.624,0,0,1-.4-1.112,13.22,13.22,0,0,1-.362-1.336c-.119-.528-.279-1.124-.375-1.8a31.878,31.878,0,0,1-.473-4.758,33.21,33.21,0,0,1,1.769-11.54,31.913,31.913,0,0,1,1.878-4.4c.294-.615.627-1.136.9-1.6a13.146,13.146,0,0,1,.747-1.167,5.8,5.8,0,0,1,.71-.943c.078.05-.882,1.432-2.06,3.86a35.829,35.829,0,0,0-1.766,4.386,35.32,35.32,0,0,0-1.748,11.4,35.8,35.8,0,0,0,.371,4.714C534.571,4511.728,535.073,4513.334,534.984,4513.359Z" transform="translate(-533.372 -4484.703)" fill="#fafafa"/></g><g transform="translate(19.955 10.517)"><path d="M485.875,4405.871c-.034.076-1.412-.543-3.723-1.291a42.181,42.181,0,0,0-18.724-1.654c-2.406.33-3.871.7-3.891.618a4.56,4.56,0,0,1,1.011-.33,27.576,27.576,0,0,1,2.831-.612,37.838,37.838,0,0,1,18.878,1.667,27.557,27.557,0,0,1,2.68,1.1A4.638,4.638,0,0,1,485.875,4405.871Z" transform="translate(-459.538 -4402.091)" fill="#fafafa"/></g><g transform="translate(94.151 50.936)"><path d="M565.332,4448.275a25.487,25.487,0,0,1-3.306-.052c-2.038-.079-4.854-.188-7.964-.266s-5.928-.108-7.968-.13a25.21,25.21,0,0,1-3.3-.113,3.286,3.286,0,0,1,.884-.108c.57-.04,1.4-.077,2.417-.108,2.042-.062,4.865-.082,7.983-.005s5.936.24,7.972.4c1.018.081,1.841.159,2.408.228A3.294,3.294,0,0,1,565.332,4448.275Z" transform="translate(-542.79 -4447.444)" fill="#fafafa"/></g><g transform="translate(118.658 48.43)"><path d="M585.921,4444.639c.027.078-1.118.462-2.855,1.319a27.957,27.957,0,0,0-11.136,9.926c-1.05,1.627-1.562,2.72-1.637,2.686a2.967,2.967,0,0,1,.292-.8,17.977,17.977,0,0,1,1.066-2.059,25.108,25.108,0,0,1,11.275-10.05,17.831,17.831,0,0,1,2.167-.824A3.037,3.037,0,0,1,585.921,4444.639Z" transform="translate(-570.289 -4444.632)" fill="#fafafa"/></g><g transform="translate(95.258 19.695)"><path d="M574.386,4412.56a13.341,13.341,0,0,0-4.53.635,31.256,31.256,0,0,0-4.568,2.032,37.118,37.118,0,0,1-5.65,2.539,23,23,0,0,1-11.168.728,21.145,21.145,0,0,1-3.294-.891,5.815,5.815,0,0,1-1.143-.505,46.138,46.138,0,0,0,4.493,1.073,23.949,23.949,0,0,0,10.97-.847,39.663,39.663,0,0,0,5.6-2.479,28.561,28.561,0,0,1,4.664-1.963,10.471,10.471,0,0,1,3.385-.485,5.584,5.584,0,0,1,.927.088C574.28,4412.519,574.389,4412.544,574.386,4412.56Z" transform="translate(-544.032 -4412.39)" fill="#fafafa"/></g><g transform="translate(92.955 78.749)"><path d="M569.659,4479.5a5.412,5.412,0,0,1-1.037.484c-.338.146-.758.313-1.256.474s-1.058.374-1.7.534a33.161,33.161,0,0,1-4.537.943,34.35,34.35,0,0,1-11.314-.339,33.305,33.305,0,0,1-4.473-1.214c-.629-.2-1.176-.442-1.662-.635s-.9-.382-1.225-.548a5.341,5.341,0,0,1-1.007-.545c.037-.082,1.505.626,4,1.417a37.571,37.571,0,0,0,4.449,1.106,36.824,36.824,0,0,0,11.18.335,37.621,37.621,0,0,0,4.508-.837C568.12,4480.04,569.627,4479.421,569.659,4479.5Z" transform="translate(-541.449 -4478.652)" fill="#fafafa"/></g><g transform="translate(133.582 64.516)"><path d="M595.093,4504.141a1.65,1.65,0,0,1-.346-.284c-.209-.2-.547-.479-.916-.9a21.257,21.257,0,0,1-2.82-3.782,30.792,30.792,0,0,1-3.97-14.925,59.822,59.822,0,0,1,2.021-15.387c.479-1.929.911-3.477,1.223-4.542l.373-1.224a1.62,1.62,0,0,1,.16-.418,1.643,1.643,0,0,1-.07.442c-.078.336-.173.748-.288,1.245l-1.078,4.572a64.39,64.39,0,0,0-1.876,15.3,31.6,31.6,0,0,0,3.79,14.77,23.782,23.782,0,0,0,2.67,3.827C594.689,4503.675,595.123,4504.11,595.093,4504.141Z" transform="translate(-587.034 -4462.682)" fill="#fafafa"/></g><g transform="translate(141.773 58.932)"><path d="M628.528,4473.2a17.818,17.818,0,0,0-4.713-2.651,38.093,38.093,0,0,0-5.707-1.482,64.414,64.414,0,0,1-7.1-1.636,29.209,29.209,0,0,1-11.294-6.791,26.586,26.586,0,0,1-2.668-3c-.29-.375-.488-.686-.629-.891s-.2-.322-.191-.331a10.541,10.541,0,0,1,.961,1.109,33.291,33.291,0,0,0,2.753,2.874,30.349,30.349,0,0,0,11.211,6.587,70.456,70.456,0,0,0,7.042,1.66,35.072,35.072,0,0,1,5.739,1.6,13.7,13.7,0,0,1,3.512,1.957,7.546,7.546,0,0,1,.825.717C628.451,4473.091,628.54,4473.187,628.528,4473.2Z" transform="translate(-596.225 -4456.416)" fill="#fafafa"/></g><g transform="translate(155.568 33.624)"><path d="M640.4,4440.368a6.649,6.649,0,0,1-.955-.828c-.292-.281-.653-.619-1.1-.987s-.917-.818-1.5-1.253a42.046,42.046,0,0,0-4.139-2.929,41.172,41.172,0,0,0-11.373-4.866,41.81,41.81,0,0,0-4.977-.972c-.714-.118-1.367-.156-1.939-.217s-1.066-.093-1.471-.111a6.748,6.748,0,0,1-1.258-.118,6.553,6.553,0,0,1,1.263-.062c.407-.01.906-.008,1.483.033s1.238.052,1.96.149a37.306,37.306,0,0,1,5.043.884,38.65,38.65,0,0,1,11.495,4.919,37.289,37.289,0,0,1,4.12,3.037c.57.456,1.037.923,1.462,1.315s.774.749,1.048,1.05A6.594,6.594,0,0,1,640.4,4440.368Z" transform="translate(-611.704 -4428.02)" fill="#fafafa"/></g><g transform="translate(93.923 5.053)"><path d="M554.9,4395.972a6.563,6.563,0,0,1-1.692.815,32.136,32.136,0,0,1-8.8,2.051,6.546,6.546,0,0,1-1.878.017c-.011-.141,2.833-.38,6.245-1.184C552.192,4396.884,554.85,4395.841,554.9,4395.972Z" transform="translate(-542.534 -4395.96)" fill="#fafafa"/></g></g><g transform="translate(107.647 187.77)"><path d="M588.185,4532.025a2.482,2.482,0,0,1-2.723,3.146h0a2.483,2.483,0,0,1-2.039-1.746l-.751-2.806.111.038a2.589,2.589,0,0,1-2.889,3.058h0c-1.174-.028-2.183-1.706-2.513-2.6h0a4.849,4.849,0,0,1-4.528-2.176l-5.232-8.162-9.687-7.086,5.858-20.935,20.852,13.5c.818.635.943.905,2.245,2.111l13.457,12.373c-1.528.918-2.821.847-4.936,0s-11.415-7.116-11.415-7.116l4.191,18.406" transform="translate(-557.933 -4492.756)" fill="#ffc19d"/><g transform="translate(12.416 22.044)"><path d="M571.866,4517.494c.02-.026.24.1.621.364l.687.48a4.235,4.235,0,0,1,.861.75,3.917,3.917,0,0,1,.708,1.208l.51,1.458,1.139,3.352c.8,2.383,1.493,4.548,1.974,6.121a15.081,15.081,0,0,1,.687,2.575,15.242,15.242,0,0,1-1-2.476c-.561-1.548-1.306-3.693-2.1-6.074-.388-1.183-.758-2.311-1.1-3.359l-.47-1.471a3.718,3.718,0,0,0-.6-1.128,4.35,4.35,0,0,0-.766-.752l-.639-.543C572.029,4517.7,571.846,4517.519,571.866,4517.494Z" transform="translate(-571.864 -4517.49)" fill="#ff9c6a"/></g><g transform="translate(15.994 17.644)"><path d="M584.846,4533.221a3.618,3.618,0,0,1-.3-.864q-.281-1-.671-2.387c-.562-2.015-1.327-4.8-2.3-7.838a28.775,28.775,0,0,0-3.2-7.428,6.35,6.35,0,0,0-1.709-1.7c-.487-.306-.8-.4-.788-.44.005-.016.086,0,.237.037a3,3,0,0,1,.641.246,5.856,5.856,0,0,1,1.882,1.665,25.671,25.671,0,0,1,3.383,7.481c.975,3.052,1.691,5.859,2.173,7.9.239,1.021.418,1.851.529,2.426A3.4,3.4,0,0,1,584.846,4533.221Z" transform="translate(-575.879 -4512.553)" fill="#ff9c6a"/></g><g transform="translate(21.86 16.131)"><path d="M590.941,4534.3a4.222,4.222,0,0,1-.363-.936l-.825-2.6c-.678-2.2-1.583-5.248-2.555-8.622-.94-3.321-1.79-6.325-2.446-8.642a4.228,4.228,0,0,0-1.427-2.179,5.7,5.7,0,0,0-.864-.46c0-.012.094-.019.264.019a2.231,2.231,0,0,1,.7.292,4.188,4.188,0,0,1,1.635,2.217c.734,2.2,1.6,5.249,2.584,8.625s1.827,6.436,2.423,8.659q.4,1.556.684,2.639A4.142,4.142,0,0,1,590.941,4534.3Z" transform="translate(-582.462 -4510.855)" fill="#ff9c6a"/></g></g></g></g><g transform="translate(643.153 4275.724)"><g transform="translate(20.974 33.332)"><g transform="translate(25.356)"><path d="M734.078,4319.935a3.12,3.12,0,1,0,3.119-3.12A3.119,3.119,0,0,0,734.078,4319.935Z" transform="translate(-734.078 -4316.815)" fill="#375a64"/></g><g transform="translate(12.871 0)"><circle cx="3.12" cy="3.12" r="3.12" fill="#375a64"/></g><path d="M706.045,4318.375a3.12,3.12,0,1,0,4.262-1.143A3.12,3.12,0,0,0,706.045,4318.375Z" transform="translate(-705.627 -4316.815)" fill="#375a64"/></g><path d="M718.865,4279.429a3.476,3.476,0,0,0-.631-.011l-1.854.053c-.407.02-.865.019-1.367.06-.5.072-1.046.147-1.634.23l-1.909.274-2.132.528a34.545,34.545,0,0,0-10.334,4.5,36.471,36.471,0,0,0-16.75,27.411,37.829,37.829,0,0,0-.1,5c.059.845.042,1.7.166,2.556s.258,1.709.388,2.574a36.642,36.642,0,0,0,3.472,10.169,39.171,39.171,0,0,0,6.642,9.138,38.371,38.371,0,0,0,9.569,6.875,34.76,34.76,0,0,0,11.664,3.58,23.217,23.217,0,0,0,3.11.265,28.017,28.017,0,0,0,3.145.057,37.317,37.317,0,0,0,6.3-.795,36.837,36.837,0,0,0,12.54-5.277l-.381.038,12.773,5.127.757.3-.216-.785q-1.933-7.032-3.755-13.656l-.064.338a36.655,36.655,0,0,0,6.816-15.605,33.167,33.167,0,0,0,.5-7.994,25.591,25.591,0,0,0-.363-3.84q-.146-.94-.29-1.868c-.114-.615-.3-1.209-.446-1.809a36.532,36.532,0,0,0-14.252-20.776,34.945,34.945,0,0,0-8.482-4.474q-.991-.356-1.91-.685-.944-.239-1.814-.461l-1.659-.41c-.532-.1-1.046-.157-1.527-.231-.966-.123-1.815-.289-2.558-.326l-1.878-.063-1.146-.024a1.7,1.7,0,0,0-.388.014,1.8,1.8,0,0,0,.387.053l1.142.089,1.864.126c.738.058,1.578.244,2.535.385a36.327,36.327,0,0,1,29.045,26.945c.14.588.322,1.173.431,1.777q.136.912.275,1.836a25.017,25.017,0,0,1,.338,3.77,32.531,32.531,0,0,1-.518,7.838,35.986,35.986,0,0,1-6.722,15.265l-.115.152.05.185q1.806,6.619,3.727,13.664l.541-.481-12.768-5.142-.2-.08-.181.119a36.079,36.079,0,0,1-12.26,5.154,36.714,36.714,0,0,1-6.157.779,27.48,27.48,0,0,1-3.076-.057,22.383,22.383,0,0,1-3.042-.257,34,34,0,0,1-11.407-3.488,37.644,37.644,0,0,1-9.373-6.708,38.474,38.474,0,0,1-6.524-8.931,36.014,36.014,0,0,1-3.434-9.95q-.2-1.27-.39-2.522c-.125-.834-.11-1.677-.171-2.506a36.013,36.013,0,0,1,16.394-31.987,34.746,34.746,0,0,1,10.167-4.583l2.105-.561,1.888-.31,1.62-.267c.5-.055.952-.067,1.356-.1l1.844-.134A3.729,3.729,0,0,0,718.865,4279.429Z" transform="translate(-682.093 -4279.414)" fill="#375a64"/></g></g></svg>