<svg xmlns="http://www.w3.org/2000/svg" width="348.802" height="224.487" viewBox="0 0 348.802 224.487"><g transform="translate(-959.734 -2534.136)"><g transform="translate(959.734 2573.991)"><path d="M1054.227,2566.491s31.6,46.877-94.493,60.983c0,0,103.257,5.237,115.864-38.813C1083.272,2561.841,1054.227,2566.491,1054.227,2566.491Z" transform="translate(-959.734 -2566.183)" fill="#e5dec1" opacity="0.75" style="mix-blend-mode:multiply;isolation:isolate"/><path d="M959.734,2627.031c1.247-.036,145.156-2.6,111.041-59.024,0,0,80.354,29.683,81.574,113.708s-76.658,79.271-121.79,47.271C978.711,2692.223,959.734,2627.031,959.734,2627.031Z" transform="translate(-959.734 -2565.739)" fill="#918d7e"/><path d="M959.734,2627.031c1.247-.036,145.156-2.6,111.041-59.024,0,0,80.354,29.683,81.574,113.708s-76.658,79.271-121.79,47.271C978.711,2692.223,959.734,2627.031,959.734,2627.031Z" transform="translate(-959.734 -2565.739)" fill="#e5dec1"/><path d="M1012.223,2615.646c.165-.27.361-.512.53-.78a341.566,341.566,0,0,1-47.446,4.682,199.628,199.628,0,0,0,31.934,60.14C995.627,2657.49,1000.359,2634.935,1012.223,2615.646Z" transform="translate(-958.376 -2554.322)" fill="#e5dec1" opacity="0.75" style="mix-blend-mode:multiply;isolation:isolate"/><path d="M1094.922,2597.015c.318,39.768-4.484,80.64-33.527,109.631a126.551,126.551,0,0,1-26.079,19.734c40.651,18.507,93.322,13.041,92.8-52.308,0-.268.016-.513.012-.782C1127.62,2638.073,1111.806,2613.4,1094.922,2597.015Z" transform="translate(-941.319 -2558.671)" fill="#e5dec1" opacity="0.75" style="mix-blend-mode:multiply;isolation:isolate"/><path d="M999.9,2647.942s41.99,11.52,40.274-23.229c0,0,16.218,25.281-6.386,34.823C1010.864,2669.214,999.9,2647.942,999.9,2647.942Z" transform="translate(-949.948 -2551.923)" fill="#1a1c18"/><path d="M1046.271,2623.153s40.582,10.008,31.413-26.287c0,0,25.054,25.76-2.414,38.039C1061.123,2641.229,1046.271,2623.153,1046.271,2623.153Z" transform="translate(-938.65 -2558.708)" fill="#1a1c18"/><path d="M1059.7,2688.431s-11.094-15.44,1.617-26.423c11.526-9.959,27.725-1.8,34.19,2.276C1095.506,2664.285,1066.432,2662.64,1059.7,2688.431Z" transform="translate(-936.471 -2543.993)" fill="#1a1c18"/></g><g transform="translate(1119.204 2534.136)"><path d="M1135.93,2534.136s-42.69,1.254-13.254,34.9c29.407,33.615,148.6-.42,148.6-.42S1101.751,2590.694,1135.93,2534.136Z" transform="translate(-1082.027 -2534.136)" fill="#3e73a3"/><path d="M1121.676,2539.632s-27.468,61.979,155.618,26.016c0,0-5.484,155.964-112.346,162.57-16.028.991-32.239-2.267-45.672-11.067-26.007-17.039-53.539-60.211-3.179-168.322A61.339,61.339,0,0,1,1121.676,2539.632Z" transform="translate(-1087.962 -2532.797)" fill="#ceb198"/><path d="M1121.676,2539.632s-27.468,61.979,155.618,26.016c0,0-5.484,155.964-112.346,162.57-16.028.991-32.239-2.267-45.672-11.067-26.007-17.039-53.539-60.211-3.179-168.322A61.339,61.339,0,0,1,1121.676,2539.632Z" transform="translate(-1087.962 -2532.797)" fill="#97c2e8"/><path d="M1177.094,2577.078s20.39,9.542,24.368,13.942c17.735,19.617,19.227,35.875,19.612,68.533,23.8-39.737,25.63-91.667,25.63-91.667C1217.589,2573.606,1194.851,2576.359,1177.094,2577.078Z" transform="translate(-1066.246 -2525.913)" fill="#c5c7c5" opacity="0.75" style="mix-blend-mode:screen;isolation:isolate"/><path d="M1187.827,2668.24c-31.588-7.288-58.547-27.575-71.022-58.023a151.92,151.92,0,0,1-9.243-33.748c-28.413,77.723-5.989,110.915,15.365,124.9,12.349,8.091,27.252,11.085,41.988,10.175,34.233-2.117,57.139-20.909,72.471-44.493C1221.211,2671.186,1204.278,2672.035,1187.827,2668.24Z" transform="translate(-1086.449 -2523.822)" fill="#75aee1" opacity="0.75" style="mix-blend-mode:multiply;isolation:isolate"/><path d="M1112.983,2607.2s3.7-18.239,20.952-18.746c13.668-.4,21.563,4.688,25.285,25.042C1159.219,2613.5,1138.1,2592.712,1112.983,2607.2Z" transform="translate(-1081.866 -2520.906)" fill="#1a1c18"/><path d="M1165.866,2616.389s7.263-21.126,27.374-17.276c25.248,4.835,14.283,32.161,14.283,32.161S1199.406,2599.465,1165.866,2616.389Z" transform="translate(-1068.982 -2518.419)" fill="#1a1c18"/><path d="M1127.3,2633.3s12.276,35.428,57.952,17.857c0,0-18.965,27.294-46.235,18.6C1130.727,2667.111,1125.432,2656.663,1127.3,2633.3Z" transform="translate(-1078.469 -2509.975)" fill="#1a1c18"/></g></g></svg>