<svg xmlns="http://www.w3.org/2000/svg" width="455.721" height="290.154" viewBox="0 0 455.721 290.154"><g transform="translate(-798.317 -8534.841)"><g transform="translate(798.317 8536.457)"><path d="M1051.33,8625.926a118.364,118.364,0,0,1-52.783-21.479c-23.314-16.895-72.1-45.644-118.645-31.324-64.2,19.753-64.482,76.894-47.76,107.934s135.3,121.934,289.022,107.472c137.561-12.942,164.369-161.085,91-187.894C1148.534,8577.385,1126.825,8636.627,1051.33,8625.926Z" transform="translate(-796.24 -8533.541)" fill="#eae5cd"/><path d="M1223.838,8626.156c-.007-41.452-33.24-86.875-74.6-89.619q-1.09-.073-2.2-.126c-59.3-2.87-63.815,72.239-117.464,80.709s-94.619-34.292-158.816-6.392c-57.654,25.059-73.271,165.87,96.13,171.518C1102.42,8786.764,1223.856,8749.834,1223.838,8626.156Z" transform="translate(-795.557 -8536.331)" fill="#eae5cd"/><circle cx="10.06" cy="10.06" r="10.06" transform="translate(5.536 152.649) rotate(-78.251)" fill="#eae5cd"/><circle cx="8.65" cy="8.65" r="8.65" transform="translate(162.986 24.944) rotate(-22.322)" fill="#eae5cd"/><circle cx="8.65" cy="8.65" r="8.65" transform="translate(395.783 242.526) rotate(-45)" fill="#eae5cd"/><path d="M1205.432,8585.262a5.214,5.214,0,1,1-5.213-5.214A5.214,5.214,0,0,1,1205.432,8585.262Z" transform="translate(-764.698 -8532.627)" fill="#eae5cd"/><circle cx="5.214" cy="5.214" r="5.214" transform="translate(150.132 18.641) rotate(-77.514)" fill="#eae5cd"/><circle cx="5.214" cy="5.214" r="5.214" transform="translate(0 122.029) rotate(-45)" fill="#eae5cd"/><circle cx="5.214" cy="5.214" r="5.214" transform="translate(424.031 233.117) rotate(-76.674)" fill="#eae5cd"/></g><g transform="translate(1062.828 8630.926)"><g transform="translate(0 6.361)"><path d="M1123.577,8767.875V8629.283h-81.414v138.592a7.119,7.119,0,0,0,7.118,7.119h67.177A7.119,7.119,0,0,0,1123.577,8767.875Z" transform="translate(-1042.163 -8629.283)" fill="#fff"/></g><g transform="translate(34.567 55.387)"><rect width="12.409" height="27.579" fill="#c6ca68"/></g><g transform="translate(34.568 72.284)"><path d="M1085.162,8690.206c.434.023.859.043,1.278.055v10.478H1074.03v-10.5A94.414,94.414,0,0,1,1085.162,8690.206Z" transform="translate(-1074.03 -8690.056)" fill="#a9ab67"/></g><g transform="translate(14.286 70.16)"><rect width="12.409" height="12.805" fill="#c6ca68"/></g><g transform="translate(14.286 73.392)"><path d="M1055.333,8694.96a45.183,45.183,0,0,1,12.409-3.883v9.574h-12.409Z" transform="translate(-1055.333 -8691.077)" fill="#a9ab67"/></g><g transform="translate(54.849 39.501)"><rect width="12.409" height="43.464" fill="#c6ca68"/></g><g transform="translate(54.849 65.443)"><path d="M1105.135,8683.749v17.523h-12.408v-10.955C1098.8,8689.281,1102.608,8686.742,1105.135,8683.749Z" transform="translate(-1092.727 -8683.749)" fill="#a9ab67"/></g><g transform="translate(13.116 19.035)"><path d="M1107.932,8640.967l-11.292,2.423,3.032,2.975-17.289,17.626-6.067-5.952-21.455,21.874a2.115,2.115,0,0,0,.028,2.992h0a2.116,2.116,0,0,0,2.994-.028l18.491-18.851,6.067,5.951,20.254-20.648,3.032,2.975Z" transform="translate(-1054.254 -8640.967)" fill="#c6ca68"/></g><g transform="translate(7.415 91.838)"><g transform="translate(0.014)"><path d="M1079.4,8708.082h-28.734a1.64,1.64,0,0,0-1.653,1.53,1.61,1.61,0,0,0,1.608,1.688H1079.4a1.609,1.609,0,0,0,1.609-1.608h0A1.609,1.609,0,0,0,1079.4,8708.082Z" transform="translate(-1049.012 -8708.082)" fill="#c2daf4"/><g transform="translate(0.001 6.895)"><path d="M1081.01,8716.047a1.608,1.608,0,0,0-1.609-1.608h-28.779a1.608,1.608,0,0,0-1.609,1.608h0a1.61,1.61,0,0,0,1.609,1.61H1079.4a1.61,1.61,0,0,0,1.609-1.61Z" transform="translate(-1049.013 -8714.438)" fill="#c2daf4"/></g><g transform="translate(0.001 13.789)"><path d="M1081.01,8722.4a1.609,1.609,0,0,0-1.609-1.609h-28.779a1.609,1.609,0,0,0-1.609,1.609h0a1.608,1.608,0,0,0,1.609,1.607H1079.4a1.608,1.608,0,0,0,1.609-1.607Z" transform="translate(-1049.013 -8720.794)" fill="#c2daf4"/></g><g transform="translate(0 20.684)"><path d="M1079.4,8727.151h-28.734a1.638,1.638,0,0,0-1.653,1.529,1.61,1.61,0,0,0,1.608,1.688H1079.4a1.609,1.609,0,0,0,1.609-1.609h0A1.608,1.608,0,0,0,1079.4,8727.151Z" transform="translate(-1049.012 -8727.151)" fill="#c2daf4"/></g><g transform="translate(0 27.577)"><path d="M1079.4,8733.5h-28.734a1.64,1.64,0,0,0-1.653,1.532,1.609,1.609,0,0,0,1.608,1.687H1079.4a1.609,1.609,0,0,0,1.609-1.608h0A1.61,1.61,0,0,0,1079.4,8733.5Z" transform="translate(-1049.012 -8733.505)" fill="#c2daf4"/></g></g><g transform="translate(0 37.666)"><rect width="66.688" height="13.25" rx="1.96" fill="#c2daf4"/></g></g><g transform="translate(44.324 92.949)"><path d="M1114.026,8724.605a15.5,15.5,0,1,1-29.8-5.99l14.3,5.99-.734-15.48c.241-.014.487-.018.734-.018A15.5,15.5,0,0,1,1114.026,8724.605Z" transform="translate(-1083.024 -8709.107)" fill="#3e73a3"/></g><g transform="translate(44.127 90.525)"><path d="M1096.407,8706.871a15.51,15.51,0,0,0-13.565,9.49l14.3,5.99Z" transform="translate(-1082.842 -8706.871)" fill="#b3b835"/></g><g transform="translate(7.945 18.447)"><path d="M1053.954,8649.736l0,1.247-1.584,0,0-1.19a6.621,6.621,0,0,1-2.883-.793l.858-1.93a5.369,5.369,0,0,0,2.591.725c.753,0,1.022-.154,1.023-.424,0-.987-4.344-.2-4.338-3.132,0-1.269.926-2.333,2.768-2.588l0-1.224,1.583,0,0,1.2a5.863,5.863,0,0,1,2.277.655l-.8,1.92a4.827,4.827,0,0,0-2.188-.589c-.775,0-1.022.221-1.023.491,0,.942,4.346.166,4.338,3.063C1056.573,8648.385,1055.7,8649.438,1053.954,8649.736Z" transform="translate(-1049.487 -8640.425)" fill="#c2daf4"/><g transform="translate(9.288 1.111)"><path d="M1078.783,8641.449H1059.7a1.641,1.641,0,0,0-1.653,1.532,1.609,1.609,0,0,0,1.608,1.687h19.124a1.61,1.61,0,0,0,1.61-1.61h0A1.61,1.61,0,0,0,1078.783,8641.449Z" transform="translate(-1058.049 -8641.449)" fill="#c2daf4"/></g><g transform="translate(9.288 7.545)"><path d="M1078.783,8647.38H1059.7a1.64,1.64,0,0,0-1.653,1.531,1.609,1.609,0,0,0,1.608,1.687h19.124a1.609,1.609,0,0,0,1.61-1.607h0A1.611,1.611,0,0,0,1078.783,8647.38Z" transform="translate(-1058.049 -8647.38)" fill="#c2daf4"/></g></g><path d="M1123.577,8627.436v8.175h-81.414v-8.175a4.016,4.016,0,0,1,4.017-4.016h73.381A4.015,4.015,0,0,1,1123.577,8627.436Z" transform="translate(-1042.163 -8623.42)" fill="#529ad9"/><g transform="translate(59.437 4.161)"><path d="M1101.357,8629.455a2.2,2.2,0,1,1-2.2-2.2A2.2,2.2,0,0,1,1101.357,8629.455Z" transform="translate(-1096.956 -8627.255)" fill="#75aee1"/><g transform="translate(7.131)"><path d="M1107.93,8629.455a2.2,2.2,0,1,1-2.2-2.2A2.2,2.2,0,0,1,1107.93,8629.455Z" transform="translate(-1103.53 -8627.255)" fill="#3e73a3"/></g><g transform="translate(13.958)"><path d="M1114.225,8629.455a2.2,2.2,0,1,1-2.2-2.2A2.2,2.2,0,0,1,1114.225,8629.455Z" transform="translate(-1109.824 -8627.255)" fill="#b3b835"/></g></g></g><g transform="translate(871.891 8534.841)"><g transform="translate(0 5.868)"><path d="M933.812,8615.145V8540.25H866.143v74.895a6.011,6.011,0,0,0,6.011,6.009H927.8A6.01,6.01,0,0,0,933.812,8615.145Z" transform="translate(-866.143 -8540.25)" fill="#fff"/></g><g transform="translate(10.591 60.273)"><path d="M2.655,0H5.38A2.654,2.654,0,0,1,8.034,2.654V16.76A2.655,2.655,0,0,1,5.38,19.414H2.655A2.655,2.655,0,0,1,0,16.76V2.655A2.655,2.655,0,0,1,2.655,0Z" fill="#97c2e8"/></g><g transform="translate(10.591 70.611)"><path d="M883.941,8600.059v7.762a1.193,1.193,0,0,1-1.192,1.192H877.1a1.192,1.192,0,0,1-1.192-1.192V8601.1C877.339,8600.267,879.78,8599.668,883.941,8600.059Z" transform="translate(-875.907 -8599.937)" fill="#3e73a3"/></g><g transform="translate(22.442 46.486)"><rect width="8.034" height="33.202" rx="2.655" fill="#c6ca68"/></g><g transform="translate(22.441 71.058)"><path d="M894.866,8600.348v7.438a1.193,1.193,0,0,1-1.193,1.192h-5.648a1.193,1.193,0,0,1-1.193-1.192v-7.251A26.526,26.526,0,0,0,894.866,8600.348Z" transform="translate(-886.831 -8600.348)" fill="#787d02"/></g><g transform="translate(35.564 36.312)"><path d="M2.655,0H5.38A2.654,2.654,0,0,1,8.034,2.654V40.722A2.655,2.655,0,0,1,5.38,43.376H2.655A2.655,2.655,0,0,1,0,40.722V2.655A2.655,2.655,0,0,1,2.655,0Z" fill="#97c2e8"/></g><g transform="translate(35.565 64.683)"><path d="M898.929,8599.325a36.89,36.89,0,0,0,8.034-4.854v13.813a1.192,1.192,0,0,1-1.192,1.192h-5.649a1.192,1.192,0,0,1-1.192-1.192Z" transform="translate(-898.929 -8594.471)" fill="#fff"/></g><g transform="translate(35.565 64.683)"><path d="M898.929,8599.325a36.89,36.89,0,0,0,8.034-4.854v13.813a1.192,1.192,0,0,1-1.192,1.192h-5.649a1.192,1.192,0,0,1-1.192-1.192Z" transform="translate(-898.929 -8594.471)" fill="#3e73a3"/></g><g transform="translate(48.419 24.372)"><rect width="8.034" height="55.316" rx="1.1" fill="#c6ca68"/></g><g transform="translate(48.419 59.929)"><path d="M918.814,8591.583v17.071a1.193,1.193,0,0,1-1.193,1.192h-5.648a1.193,1.193,0,0,1-1.193-1.192v-17.583C913.541,8589.362,916.4,8590.109,918.814,8591.583Z" transform="translate(-910.779 -8590.089)" fill="#787d02"/></g><g transform="translate(9.677 19.457)"><path d="M910.335,8552.777l-7.42,1.591,1.993,1.954-11.36,11.582L889.56,8564l-14.1,14.371a1.392,1.392,0,0,0,.018,1.968h0a1.391,1.391,0,0,0,1.968-.02l12.149-12.387,3.988,3.91,13.309-13.567,1.992,1.954Z" transform="translate(-875.064 -8552.777)" fill="#a0a603"/></g><path d="M933.812,8538.18v9.255H866.143v-9.255a3.338,3.338,0,0,1,3.339-3.338h60.992A3.337,3.337,0,0,1,933.812,8538.18Z" transform="translate(-866.143 -8534.842)" fill="#a9ab67"/><g transform="translate(46.883 3.489)"><circle cx="2.2" cy="2.2" r="2.2" fill="#b3b835"/></g><g transform="translate(54.014 3.488)"><path d="M920.337,8540.259a2.2,2.2,0,1,1-2.2-2.2A2.2,2.2,0,0,1,920.337,8540.259Z" transform="translate(-915.937 -8538.058)" fill="#383a01"/></g><g transform="translate(60.841 3.488)"><path d="M926.631,8540.259a2.2,2.2,0,1,1-2.2-2.2A2.2,2.2,0,0,1,926.631,8540.259Z" transform="translate(-922.231 -8538.058)" fill="#97c2e8"/></g></g><g transform="translate(946.569 8539.265)"><g transform="translate(9.553 273.871)"><ellipse cx="57.269" cy="5.929" rx="57.269" ry="5.929" fill="#c2daf4"/></g><g transform="translate(84.345 45.835)"><path d="M1045.809,8630.432a12.765,12.765,0,0,1-6.222-1.538c-2.987-1.634-7.629-5.5-17.071-21-4.869-8-8.746-15.365-8.909-15.675a7.539,7.539,0,0,1,13.349-7.01c.054.1,3.732,7.088,8.242,14.521,6.568,10.822,9.948,14.447,11.155,15.542,1.1-.25,4.06-1.265,9.666-5.4a93.5,93.5,0,0,0,7.881-6.548,7.539,7.539,0,0,1,10.389,10.929,106.73,106.73,0,0,1-11.029,8.982,49.383,49.383,0,0,1-10.153,5.684A20.314,20.314,0,0,1,1045.809,8630.432Zm1.063-14.736h0Z" transform="translate(-1012.742 -8581.174)" fill="#b3b835"/></g><g transform="translate(135.236 73.147)"><path d="M1059.736,8606.958a.991.991,0,1,0,1.3-.527A.991.991,0,0,0,1059.736,8606.958Z" transform="translate(-1059.657 -8606.352)" fill="#383a01"/></g><g transform="translate(131.66 70.956)"><path d="M1067.123,8614.66a9.977,9.977,0,0,1-8.626-4.671,14.807,14.807,0,0,1-2.13-5.162.424.424,0,0,1,.835-.144,14.2,14.2,0,0,0,2.016,4.859,9.128,9.128,0,0,0,8.843,4.234.424.424,0,0,1,.065.845C1067.781,8614.649,1067.447,8614.66,1067.123,8614.66Z" transform="translate(-1056.36 -8604.332)" fill="#383a01"/><g transform="translate(5.874 4.092)"><path d="M1062.2,8613.009a.424.424,0,0,1-.229-.781,11.846,11.846,0,0,0,3.552-3.9.424.424,0,0,1,.749.4,12.5,12.5,0,0,1-3.845,4.216A.412.412,0,0,1,1062.2,8613.009Z" transform="translate(-1061.776 -8608.104)" fill="#383a01"/></g></g><g transform="translate(116.29 66.92)"><path d="M1044.2,8604.629h43.342a2.009,2.009,0,0,0,2.009-2.01h0a2.009,2.009,0,0,0-2.009-2.009H1044.2a2.009,2.009,0,0,0-2.009,2.009h0A2.01,2.01,0,0,0,1044.2,8604.629Z" transform="translate(-1042.191 -8600.61)" fill="#3e73a3"/></g><g transform="translate(127.21 47.375)"><path d="M1054.243,8606.156h32.824a1.984,1.984,0,0,0,1.8-1.158l8.974-19.6a1.984,1.984,0,0,0-1.8-2.809h-32.823a1.984,1.984,0,0,0-1.8,1.157l-8.973,19.595A1.984,1.984,0,0,0,1054.243,8606.156Z" transform="translate(-1052.258 -8582.594)" fill="#294d6d"/></g><g transform="translate(148.997 56.306)"><path d="M1072.343,8593.677a2.85,2.85,0,1,0,2.851-2.851A2.85,2.85,0,0,0,1072.343,8593.677Z" transform="translate(-1072.343 -8590.826)" fill="#75aee1"/></g><g transform="translate(137.22 64.008)"><path d="M1062.163,8607.621a5.156,5.156,0,0,0,4.992,1.953,10.407,10.407,0,0,0,3.013-.978c.735-.373,1.643-1.04,2.284-.971,1.591.174,2.172-.927,2.577-1.027a2.826,2.826,0,0,0,1.558.271,5.3,5.3,0,0,0,1.919-.61h0c1.584-.021,2.966.039,3.411-.271.892-.619,1.761-6.712.24-6.963-2.014-.334-.99,4.159-2.829,5.008,0,0,1.383-5.677-.883-6.1-1.547-.286-1.8,5.375-3.44,6.4,0,0,1.559-5.26-.114-6.1s-1.666,5.5-3.374,5.66c-.349.032,1.384-4.49-.621-4.734s-.884,5.162-6.81,5.039C1061.691,8604.151,1060.717,8605.671,1062.163,8607.621Z" transform="translate(-1061.486 -8597.926)" fill="#ff8c62"/></g><g transform="translate(112.342 80.065)"><g transform="translate(1.053)"><path d="M1039.946,8618.675a.417.417,0,0,1-.223-.064.422.422,0,0,1-.137-.582,47.483,47.483,0,0,1,4.286-5.168.423.423,0,1,1,.616.581,48.162,48.162,0,0,0-4.182,5.032A.425.425,0,0,1,1039.946,8618.675Z" transform="translate(-1039.522 -8612.728)" fill="#383a01"/></g><g transform="translate(0 0.791)"><path d="M1038.976,8615.756a.423.423,0,0,1-.183-.8,16.661,16.661,0,0,1,4.554-1.493.424.424,0,0,1,.037.847,16.276,16.276,0,0,0-4.225,1.41A.416.416,0,0,1,1038.976,8615.756Z" transform="translate(-1038.552 -8613.458)" fill="#383a01"/></g></g><g transform="translate(35.017 254.827)"><path d="M968,8773.837l-.736,10.352,10.627.2.585-9.712Z" transform="translate(-967.268 -8773.837)" fill="#ff8c62"/></g><g transform="translate(34.214 123.476)"><path d="M1010.776,8665.49l-.637,1.715-20.712,55.773c0,23.044-10.417,64.61-10.417,64.61L966.527,8787l3.425-65,.047-.892c.021-.08.04-.16.062-.243,3.2-12.8,9.862-44.784,14.4-60.208q.19-.652.369-1.259c.722-2.454,1.279-4.341,1.611-5.467l.349-1.182,3.5,1.86,1.007.533Z" transform="translate(-966.527 -8652.748)" fill="#1f1118"/></g><g transform="translate(37.638 190.848)"><path d="M976.306,8715.945a13.156,13.156,0,0,1-4.873.883,16.943,16.943,0,0,1-1.75-.094l.047-.891c.021-.08.04-.16.062-.244a15.4,15.4,0,0,0,1.666.09,11.966,11.966,0,0,0,4.432-.793.564.564,0,0,1,.416,1.049Z" transform="translate(-969.684 -8714.856)" fill="#594b54"/></g><g transform="translate(27.243 261.259)"><path d="M980.91,8795.674c0,.084,0,.164,0,.244-.008.365-.024.693-.039.977-.038.623-.082,1-.082,1h-20.63a11.338,11.338,0,0,1-.024-1.98,10.308,10.308,0,0,1,3.684-7.639c3.9-3.016,2.394-2.387,3.195-3.76.09-.154.792-2.49.867-2.65.67-1.428,1.289-2.1,4.984-2.1,4.9,0,5.334,2.377,5.857,3.631a23.476,23.476,0,0,1,.817,2.912c.122.521.246,1.078.368,1.646.3,1.42.585,2.9.777,4.088A21.509,21.509,0,0,1,980.91,8795.674Z" transform="translate(-960.101 -8779.768)" fill="#787d02"/></g><g transform="translate(45.435 267.783)"><path d="M979.488,8795.164c0,.084,0,.164,0,.244-.008.365-.024.693-.039.977a5.752,5.752,0,0,1-2.144-2.777c-1.277-3.477.687-7.648.769-7.826l.041.02c.122.521.246,1.078.368,1.646a9.371,9.371,0,0,0-.256,5.824A4.749,4.749,0,0,0,979.488,8795.164Z" transform="translate(-976.871 -8785.781)" fill="#383a01"/></g><g transform="translate(27.243 277.41)"><path d="M980.906,8794.655c-.027,1.174-.121,1.981-.121,1.981h-20.63a11.353,11.353,0,0,1-.024-1.981Z" transform="translate(-960.101 -8794.655)" fill="#383a01"/></g><g transform="translate(35.007 266.163)"><path d="M972.933,8785.814a.552.552,0,0,1-.148-.019,10.178,10.178,0,0,0-4.783-.1.588.588,0,0,1-.313-1.134,11.288,11.288,0,0,1,5.391.094.588.588,0,0,1-.147,1.157Z" transform="translate(-967.258 -8784.287)" fill="#383a01"/></g><g transform="translate(35.345 263.786)"><path d="M973.246,8783.623a.649.649,0,0,1-.149-.018,10.165,10.165,0,0,0-4.783-.1.589.589,0,0,1-.313-1.136,11.334,11.334,0,0,1,5.391.094.589.589,0,0,1-.146,1.158Z" transform="translate(-967.57 -8782.096)" fill="#383a01"/></g><g transform="translate(34.125 268.026)"><path d="M972.12,8787.532a.586.586,0,0,1-.147-.018,10.321,10.321,0,0,0-4.784-.1.588.588,0,0,1-.312-1.134,11.317,11.317,0,0,1,5.391.094.588.588,0,0,1-.148,1.157Z" transform="translate(-966.445 -8786.006)" fill="#383a01"/></g><g transform="translate(33.088 270.145)"><path d="M971.164,8789.487a.553.553,0,0,1-.147-.021,10.28,10.28,0,0,0-4.784-.1.588.588,0,0,1-.312-1.135,11.324,11.324,0,0,1,5.391.093.589.589,0,0,1-.148,1.159Z" transform="translate(-965.49 -8787.959)" fill="#383a01"/></g><g transform="translate(44.827 138.898)"><path d="M976.876,8786.159a.543.543,0,0,1-.112-.012.562.562,0,0,1-.442-.664c.054-.271,5.474-27.2,6.961-35.48,1.48-8.245,2.1-29.886,2.108-30.1a.571.571,0,0,1,.049-.214c3.519-7.87,19.615-51.9,19.778-52.349a.564.564,0,0,1,1.06.388c-.162.443-16.138,44.145-19.762,52.32-.051,1.7-.683,22.14-2.122,30.159-1.489,8.292-6.911,35.231-6.966,35.5A.562.562,0,0,1,976.876,8786.159Z" transform="translate(-976.312 -8666.966)" fill="#594b54"/></g><g transform="translate(79.608 254.827)"><path d="M1008.374,8773.837l.187,10.369,9.705.184.055-9.754Z" transform="translate(-1008.374 -8773.837)" fill="#ff8c62"/></g><g transform="translate(77.152 262.471)"><path d="M1041.2,8798.137l-34.632-.371a4.832,4.832,0,0,1-.435-1.928c-.185-2.934.8-7.6,1.288-10.539.06-.346.111-.666.151-.957a10.271,10.271,0,0,0,.116-1.2,1.765,1.765,0,0,1,2.15-1.969c3.468,3.473,7.491-1.637,9.791.078,0,0,.989.725,3.713,3.229s7.382,4.186,11.344,5.895c5.116,2.2,6.551,4.365,6.819,5.844A2.708,2.708,0,0,1,1041.2,8798.137Z" transform="translate(-1006.111 -8780.885)" fill="#787d02"/></g><g transform="translate(77.175 277.424)"><path d="M1041.2,8796.968l-34.632-.37a4.833,4.833,0,0,1-.435-1.929l35.371.378A2.7,2.7,0,0,1,1041.2,8796.968Z" transform="translate(-1006.132 -8794.669)" fill="#383a01"/></g><g transform="translate(78.463 265.93)"><path d="M1010,8797.533l-1.028-.012a7.6,7.6,0,0,0,1.92-5.524,9.762,9.762,0,0,0-3.572-6.969c.06-.345.111-.665.151-.956a10.616,10.616,0,0,1,4.247,7.893A8.4,8.4,0,0,1,1010,8797.533Z" transform="translate(-1007.319 -8784.072)" fill="#383a01"/></g><g transform="translate(93.211 266.444)"><path d="M1021.478,8786.2a.571.571,0,0,1-.125-1.126l2.169-.515a.571.571,0,0,1,.263,1.111l-2.168.514A.523.523,0,0,1,1021.478,8786.2Z" transform="translate(-1020.915 -8784.547)" fill="#383a01"/></g><g transform="translate(90.838 264.551)"><path d="M1019.292,8784.458a.571.571,0,0,1-.125-1.126l2.168-.515a.571.571,0,1,1,.264,1.11l-2.17.515A.552.552,0,0,1,1019.292,8784.458Z" transform="translate(-1018.728 -8782.802)" fill="#383a01"/></g><g transform="translate(95.359 267.725)"><path d="M1023.46,8787.384a.571.571,0,0,1-.125-1.127l2.169-.514a.57.57,0,1,1,.262,1.11l-2.168.514A.568.568,0,0,1,1023.46,8787.384Z" transform="translate(-1022.896 -8785.728)" fill="#383a01"/></g><g transform="translate(97.51 268.957)"><path d="M1025.443,8788.52a.571.571,0,0,1-.125-1.127l2.168-.513a.571.571,0,1,1,.264,1.11l-2.17.514A.6.6,0,0,1,1025.443,8788.52Z" transform="translate(-1024.879 -8786.864)" fill="#383a01"/></g><g transform="translate(99.857 270.101)"><path d="M1027.606,8789.573a.571.571,0,0,1-.125-1.127l2.17-.514a.57.57,0,1,1,.262,1.11l-2.168.514A.524.524,0,0,1,1027.606,8789.573Z" transform="translate(-1027.042 -8787.918)" fill="#383a01"/></g><g transform="translate(102.405 271.081)"><path d="M1029.955,8790.478a.571.571,0,0,1-.125-1.127l2.169-.513a.57.57,0,1,1,.262,1.11l-2.168.514A.618.618,0,0,1,1029.955,8790.478Z" transform="translate(-1029.391 -8788.822)" fill="#383a01"/></g><g transform="translate(54.073 106.322)"><path d="M1034.123,8662.392c-3.97,2.65-13.015,4.808-22.169,5.832-11.8,1.319-23.793.763-25.344-3.037q-.262-.643-.478-1.344a.257.257,0,0,0-.012-.04q-.159-.517-.292-1.059c-.161-.646-.3-1.316-.412-2q-.1-.6-.182-1.214a64.84,64.84,0,0,1-.1-13.2l44.781-9.4s4.418,12.781,5.117,20.309c.038.412.064.811.078,1.188C1035.182,8660.4,1034.917,8661.861,1034.123,8662.392Z" transform="translate(-984.835 -8636.935)" fill="#1f1118"/></g><g transform="translate(77.763 128.722)"><path d="M1033.317,8657.605l-.01,1.049c0,.821-.014,1.642-.022,2.459-.005.424-.01.848-.016,1.269,0,.06,0,.117,0,.173,0,.391-.006.778-.011,1.165-.3,25.361-1.2,48.54-3.021,65.171v.008l-.2,1.14-10.213,57.516-13.145-1.111s.477-45.541,3.37-55.934l-.053-63.748,0-9.177,17.715,1.864,1.1-.362.651-.212,1.083-.355Z" transform="translate(-1006.674 -8657.584)" fill="#1f1118"/></g><g transform="translate(92.173 197.931)"><path d="M1029.109,8723.483v.008l-.2,1.14c-.205.01-.409.014-.61.014a17.444,17.444,0,0,1-8.062-2.21.564.564,0,1,1,.577-.97A16.307,16.307,0,0,0,1029.109,8723.483Z" transform="translate(-1019.958 -8721.387)" fill="#594b54"/></g><g transform="translate(79.85 138.078)"><path d="M1009.1,8782.144a.507.507,0,0,0,.067,0,.548.548,0,0,0,.546-.553c-.306-38.4,4.505-53.613,4.554-53.763a.555.555,0,0,0,.027-.179l-.96-60.9a.55.55,0,0,0-1.1.018l.959,60.815c-.4,1.326-4.875,16.95-4.58,54.021A.549.549,0,0,0,1009.1,8782.144Z" transform="translate(-1008.598 -8666.209)" fill="#594b54"/></g><g transform="translate(94.596 113.975)"><path d="M1031.939,8657.834a1.061,1.061,0,0,1-.123-.035,10.63,10.63,0,0,1-2.336-1.134c-.2-.129-.391-.261-.579-.4a12.953,12.953,0,0,1-1.941-1.752,22.4,22.4,0,0,1-4.759-9.874.549.549,0,1,1,1.079-.2c.013.066,1.119,5.807,4.737,9.587a11.653,11.653,0,0,0,1.768,1.525l.286.19a9.735,9.735,0,0,0,1.789.9C1031.9,8657.058,1031.925,8657.456,1031.939,8657.834Z" transform="translate(-1022.192 -8643.989)" fill="#594b54"/></g><g transform="translate(82.937 111.261)"><path d="M1014.152,8665.454a.452.452,0,0,1-.433.464h0a.451.451,0,0,1-.478-.418c-.08-1.657-.178-3.353-.284-5.046-.018-.3-.038-.6-.059-.895-.36-5.534-.817-10.968-1.162-14.8-.028-.311-.054-.611-.082-.9-.076-.842-.146-1.588-.205-2.221.3-.046.606-.1.907-.146.059.632.129,1.384.206,2.235.028.29.054.591.083.9.342,3.8.8,9.189,1.156,14.691.021.3.039.608.06.911C1013.966,8661.98,1014.067,8663.74,1014.152,8665.454Z" transform="translate(-1011.444 -8641.488)" fill="#594b54"/></g><g transform="translate(79.214 111.807)"><path d="M1015.746,8659.571a12.165,12.165,0,0,1-1.6.611c-.284.087-.59.166-.9.229a6.7,6.7,0,0,1-.867.112,3.17,3.17,0,0,1-1.536-.241,1.869,1.869,0,0,1-1.042-1.4c-.333-1.708-1.032-8.759-1.5-13.746-.029-.306-.057-.605-.085-.9-.075-.8-.142-1.522-.2-2.14.3-.037.606-.073.911-.112.056.619.124,1.354.2,2.162.027.288.055.588.083.9.472,4.976,1.168,12.015,1.49,13.671a.983.983,0,0,0,.552.771,3.232,3.232,0,0,0,1.934.025c.308-.067.615-.153.9-.245a10.965,10.965,0,0,0,1.256-.493.465.465,0,0,1,.612.2A.438.438,0,0,1,1015.746,8659.571Z" transform="translate(-1008.012 -8641.991)" fill="#594b54"/></g><g transform="translate(52.142 119.332)"><path d="M992.458,8649.639a24.243,24.243,0,0,1-2.567,5.828,13.32,13.32,0,0,1-4.283,4.5c-.21.128-.424.245-.645.354a7.86,7.86,0,0,1-1.908.66q.19-.652.369-1.258a6.79,6.79,0,0,0,1.042-.414,8.053,8.053,0,0,0,.951-.557,12.629,12.629,0,0,0,3.468-3.817,23.825,23.825,0,0,0,2.481-5.591.565.565,0,0,1,1.091.3Z" transform="translate(-983.055 -8648.928)" fill="#594b54"/></g><g transform="translate(48.459 37.701)"><path d="M1033.756,8653.53c-.013.011-.024.024-.037.034a25.073,25.073,0,0,1-3.146,2.467l-.112.072q-.558.372-1.147.722c-.316.192-.636.379-.964.557-.17.1-.343.191-.516.284-.328.176-.664.35-1,.519a45.15,45.15,0,0,1-9.005,3.27c-.3.077-.6.15-.9.218-.217.051-.436.1-.656.148-.3.068-.6.13-.906.19-.359.074-.724.142-1.088.205-.3.057-.6.107-.9.156-.186.03-.372.059-.558.084-.3.046-.6.091-.909.13a53.3,53.3,0,0,1-9.3.421c-.428-.019-.86-.041-1.292-.072-.658-.044-1.32-.1-1.979-.173-.424-.045-.847-.1-1.271-.155-.067-.007-.134-.017-.2-.026-.025,0-.054-.007-.079-.011-.349-.049-.693-.1-1.039-.157a45.859,45.859,0,0,1-5.531-1.247c-.18-.052-.361-.105-.542-.163-.369-.111-.739-.229-1.105-.354-1.026-.343-2.042-.729-3.038-1.156-.26-.109-.522-.226-.78-.339-.155-.072-.312-.142-.468-.214s-.331-.158-.494-.238a.9.9,0,0,1-.088-.042c-1.891-5.166-3.97-23.608-4.529-29.121q-.166-1.648-.273-3.295c-.2-2.991-.258-5.992-.23-9.047.023-2.346.1-4.719.211-7.143.015-.3.028-.6.045-.909q.081-1.667.183-3.363c.015-.259.03-.517.046-.778,0-.06.005-.121.011-.184l.008-.14c.054-.886.109-1.779.168-2.682q.143-2.282.3-4.642c.054-.858.112-1.724.166-2.6.348-5.522,1.521-9.869,3.477-12.812a11.342,11.342,0,0,1,1.63-1.953,8.991,8.991,0,0,1,1.364-1.066,8.524,8.524,0,0,1,3.289-1.241,24.7,24.7,0,0,0,3.01-.664c.167-.045.333-.095.5-.146.514-.159.995-.329,1.447-.5.524-.2,1-.41,1.441-.618.07-.029.138-.063.205-.1.118-.058.232-.112.346-.172l.015-.008c.307-.158.594-.313.855-.46a19.15,19.15,0,0,0,1.692-1.069c.241-.174.365-.274.365-.274h12.923c.1.146.2.29.309.427l.021.027q.252.327.52.615a9.118,9.118,0,0,0,1.054.98,10.014,10.014,0,0,0,1.477.98c.211.119.426.227.643.332.165.081.336.156.507.231s.351.147.531.218c.422.165.85.311,1.279.452l.013,0c2.663.847,5.363,1.283,7.184,2.818a5.672,5.672,0,0,1,.876.919h0a6.562,6.562,0,0,1,1.152,2.705,6.474,6.474,0,0,1,.112,1.03c.1,2.862-1.125,7.613-1.615,15.441-.163,2.54-.245,5.4-.183,8.634.015.821.039,1.663.077,2.529.008.258.021.519.034.78.024.535.054,1.077.088,1.63v0c.034.554.073,1.117.114,1.687.078,1.065.176,2.166.286,3.292q.148,1.484.336,3.046.193,1.6.434,3.278c.638,4.459,2.066,13.31,3.57,20.744.239,1.171.476,2.3.716,3.383.024.112.047.225.073.335C1033.231,8651.4,1033.5,8652.519,1033.756,8653.53Z" transform="translate(-979.659 -8573.676)" fill="#b3b835"/></g><g transform="translate(59.497 41.451)"><path d="M1009.674,8604.076a.427.427,0,0,1-.34-.17l-19.416-26.1a.423.423,0,1,1,.679-.506l18.932,25.445,8.281-24.888a.424.424,0,1,1,.8.268l-8.538,25.659a.423.423,0,0,1-.335.284A.5.5,0,0,1,1009.674,8604.076Z" transform="translate(-989.835 -8577.132)" fill="#383a01"/></g><g transform="translate(63.985 67.463)"><path d="M1008.345,8608.53a16.217,16.217,0,0,1-6.975-1.765,29.666,29.666,0,0,1-7.308-5.126.321.321,0,0,1-.015-.429.264.264,0,0,1,.4-.018,29.063,29.063,0,0,0,7.166,5.022c5.47,2.621,10.176,2.248,13.989-1.106a.266.266,0,0,1,.394.045.323.323,0,0,1-.041.429,11.262,11.262,0,0,1-7.509,2.947Z" transform="translate(-993.972 -8601.112)" fill="#383a01"/></g><g transform="translate(64.476 95.568)"><path d="M1016.047,8637.891a20.418,20.418,0,0,1-3.495-.31,29.114,29.114,0,0,1-9.088-3.369,43.562,43.562,0,0,1-8.951-6.666.322.322,0,0,1-.012-.43.264.264,0,0,1,.4-.013,43.051,43.051,0,0,0,8.835,6.574c4.783,2.658,11.951,5.215,18.936,2.3a.276.276,0,0,1,.362.174.315.315,0,0,1-.162.395A17.541,17.541,0,0,1,1016.047,8637.891Z" transform="translate(-994.425 -8627.021)" fill="#383a01"/></g><g transform="translate(58.862)"><path d="M1000.72,8571.056s.654,5.448-2.522,3.632c-2.338-1.337-1.09-3.048-3.519-4.518-.991-.6-3.79-1.484-3.585-4.377s1.92-3.453.5-4.482-4.019-3.714-.813-7.22-1.18-6.008,3.274-8.39,6.831-.83,10.371-3.518,7.083-3.992,9.927-2.85c3.889,1.563,1.649,9.69-1.192,10.409S1000.72,8571.056,1000.72,8571.056Z" transform="translate(-989.25 -8538.92)" fill="#1f1118"/><g transform="translate(8.746 28.518)"><path d="M1011.131,8571.294l.457,3.2a9.984,9.984,0,0,1-1.02.956c-5.081,4.133-11.667.858-11.667.858l-1.587-11.1,12.17,5.359Z" transform="translate(-997.313 -8565.209)" fill="#ff8c62"/><g transform="translate(4.1 4.571)"><path d="M1010.81,8570.938l.457,3.2a9.984,9.984,0,0,1-1.02.956c-5-1.2-9.154-5.67-9.154-5.67l8.069.788Z" transform="translate(-1001.093 -8569.424)" fill="#1f1118"/></g></g><g transform="translate(24.536 18.643)"><path d="M1011.869,8557.307s1.511-2.407,2.846-.407,1.165,6.462-1.7,6.146Z" transform="translate(-1011.869 -8556.105)" fill="#ff6a44"/></g><g transform="translate(22.555 9.593)"><path d="M1012.232,8547.769a2.279,2.279,0,0,1,1.653,2.98c-.564,2.532-.4,3.007.134,4.426s-.466,2.787-.914,2.7S1007.038,8547.477,1012.232,8547.769Z" transform="translate(-1010.043 -8547.763)" fill="#1f1118"/></g><g transform="translate(6.355 8.235)"><path d="M1016.3,8565.377s.956,6.615-5.93,7.584c-6.844.966-12.273-3.74-12.552-3.955l-.008-.006-.274-1.38-1.42-7.163-.76-3.829s-1.867-6.823,4.555-9.034c4.693-1.616,9.331-1.461,11.974.729.086.071.169.146.248.221a5.991,5.991,0,0,1,1.762,3.05l1.2,6.9.3,1.691Z" transform="translate(-995.108 -8546.512)" fill="#ff8c62"/></g><g transform="translate(12.925 14.658)"><path d="M1001.165,8554.6h0a1.572,1.572,0,0,0,2.146.5,8.764,8.764,0,0,1,1.486-.733,1.447,1.447,0,0,0,.828-1.931h0S1002.378,8552.6,1001.165,8554.6Z" transform="translate(-1001.165 -8552.432)" fill="#1f1118"/></g><g transform="translate(20.474 14.037)"><path d="M1013.024,8552.865h0a1.571,1.571,0,0,1-1.92,1.081,8.9,8.9,0,0,0-1.632-.289,1.443,1.443,0,0,1-1.335-1.618h0S1011.3,8551.286,1013.024,8552.865Z" transform="translate(-1008.124 -8551.859)" fill="#1f1118"/></g><g transform="translate(6.355 8.235)"><path d="M1012.138,8548.543c-1.135-.229-1.864.238-3.441,1.218-2.279,1.418-5.136.845-7.716-.041s-3.777,1.03-2.8,2.035,1.02,1.926.316,3.485,2.018,1.85.727,3.179a1.5,1.5,0,0,0-.065,1.884,1,1,0,0,1-.926,1.471h0a5.6,5.6,0,0,1-2.113-1.316l-.76-3.829s-1.867-6.823,4.555-9.034c4.693-1.616,9.331-1.461,11.974.729C1011.975,8548.394,1012.058,8548.468,1012.138,8548.543Z" transform="translate(-995.108 -8546.512)" fill="#1f1118"/></g><g transform="translate(13.057 21.741)"><path d="M1005.724,8559.574c.068.48-.868,1.014-2.092,1.188s-2.273-.074-2.341-.555.868-1.016,2.091-1.189S1005.654,8559.092,1005.724,8559.574Z" transform="translate(-1001.287 -8558.961)" fill="#ff6a44"/></g><g transform="translate(23.771 20.217)" opacity="0.8"><path d="M1014.039,8559.248c-.169.042-.347.075-.531.1-1.224.175-2.271-.075-2.341-.556s.868-1.015,2.091-1.189c.165-.023.328-.039.485-.048Z" transform="translate(-1011.164 -8557.557)" fill="#ff6a44"/></g><g transform="translate(16.155 16.417)"><g transform="translate(0 2.119)"><path d="M1005.505,8557.114c.1.661-.128,1.24-.5,1.293s-.747-.439-.842-1.1.129-1.241.5-1.293S1005.411,8556.452,1005.505,8557.114Z" transform="translate(-1004.143 -8556.008)" fill="#1f1118"/></g><g transform="translate(6.548 1.183)"><path d="M1011.541,8556.251c.1.662-.128,1.24-.5,1.295s-.747-.441-.842-1.1.129-1.24.5-1.293S1011.447,8555.589,1011.541,8556.251Z" transform="translate(-1010.179 -8555.146)" fill="#1f1118"/></g><g transform="translate(3.115)"><path d="M1008.444,8560.225a2.35,2.35,0,0,0,2.012-1.487.269.269,0,0,0-.035-.233c-1.432-2.122-2.888-4.3-2.9-4.327a.275.275,0,0,0-.458.306c.014.021,1.417,2.123,2.823,4.207a1.887,1.887,0,0,1-1.518.99.275.275,0,0,0,.078.545Z" transform="translate(-1007.015 -8554.054)" fill="#1f1118"/></g><g transform="translate(1.271 7.265)"><path d="M1010.144,8562.71a4.229,4.229,0,0,0,2.36-1.177.275.275,0,1,0-.38-.4c-2.69,2.565-6.327-.295-6.363-.324a.275.275,0,1,0-.344.429A7.1,7.1,0,0,0,1010.144,8562.71Z" transform="translate(-1005.315 -8560.751)" fill="#1f1118"/></g></g><g transform="translate(8.789 27.737)"><path d="M999.4,8564.489a6.08,6.08,0,0,1-1.771,2.994l-.008-.007-.273-1.38A4.791,4.791,0,0,0,999.4,8564.489Z" transform="translate(-997.352 -8564.489)" fill="#1f1118"/></g><g transform="translate(4.031 21.871)"><path d="M997.907,8560.525s-3.155-3.176-4.694-.106c-1.268,2.53,2.609,8.1,5.477,5.589Z" transform="translate(-992.966 -8559.082)" fill="#ff8c62"/></g><g transform="translate(5.558 23.745)"><path d="M998.057,8564.844l.029-.007a.276.276,0,0,0,.2-.335,5.138,5.138,0,0,0-3.571-3.686.274.274,0,1,0-.129.533h0a4.6,4.6,0,0,1,3.167,3.288A.276.276,0,0,0,998.057,8564.844Z" transform="translate(-994.374 -8560.809)" fill="#1f1118"/></g><g transform="translate(6.15 25.106)"><path d="M995.234,8563.449a.276.276,0,0,0,.163-.086c.209-.226.86-.8,1.346-.746a.276.276,0,0,0,.06-.548c-.847-.092-1.714.817-1.809.921a.275.275,0,0,0,.241.459Z" transform="translate(-994.92 -8562.063)" fill="#1f1118"/></g></g><g transform="translate(63.477 36.607)"><path d="M993.5,8576.762l15.2,22.28,6.864-22.251s-.794-3.273-3.653-3.273a12.653,12.653,0,0,1-5.594,3.283s-5.571-1.2-7.524-4.135C998.792,8572.666,994.779,8573.433,993.5,8576.762Z" transform="translate(-993.504 -8572.666)" fill="#fff"/><g transform="translate(6.141 4.226)"><path d="M999.589,8585.738a.423.423,0,0,1-.339-.678l6.258-8.33a.426.426,0,0,1,.631-.053l6.721,6.407a.423.423,0,1,1-.584.612l-6.377-6.077-5.973,7.949A.421.421,0,0,1,999.589,8585.738Z" transform="translate(-999.166 -8576.562)" fill="#c2daf4"/></g><g transform="translate(10.176 5.268)"><path d="M1002.885,8581.1l3.315,3.938,2.985-4.064-3.589-3.446Z" transform="translate(-1002.885 -8577.523)" fill="#1f1118"/></g><g transform="translate(11.269 11.045)"><path d="M1004.654,8582.849l-.761,9.575,3.926,5.756,2.348-7.611-2.923-7.521Z" transform="translate(-1003.893 -8582.849)" fill="#1f1118"/></g></g><g transform="translate(0 18.836)"><path d="M951.623,8579.321s-3.729,4.925-8.209,3.8c-3.618-.915-5.015-5.589-5.419-7.353-.1-.424-.137-.677-.137-.677a6,6,0,0,1-.605-.3c-.83-.452-2.226-1.407-2.265-2.741-.056-1.9,3.49-1.311,3.49-1.311s-.819-2.2.1-3c.9-.786,3.087.1,3.087.1s-1.469-2.631-.053-3.5c2.129-1.31,3.338,2,3.46,2.217-.057-.244-2.53-10.567-.661-10.27,1.631.26,4.242,8.814,4.925,11.146.109.369.168.58.168.58s.125-.021.338-.041c1.012-.106,4.016-.234,4.834,1.759C955.664,8572.145,951.623,8579.321,951.623,8579.321Z" transform="translate(-934.986 -8556.284)" fill="#ff8c62"/><g transform="translate(2.265 13.326)"><path d="M941.645,8572.061a3.774,3.774,0,0,1,.68,2.269,1.113,1.113,0,0,1-.629.9,2.132,2.132,0,0,1-.947.141,11.666,11.666,0,0,1-2.932-.643c-.1-.423-.136-.676-.136-.676a6.011,6.011,0,0,1-.607-.3.349.349,0,0,1,.2.021c1.239.479,3.452,1.125,4.121.81a.415.415,0,0,0,.227-.354,4.269,4.269,0,0,0-1.462-2.87.356.356,0,0,1,.407-.578c.771.425,2.984,1.422,3.957.963.142-.066.153-.138.156-.176a1.194,1.194,0,0,0-.247-.687,8.749,8.749,0,0,0-1.5-1.687.345.345,0,0,1-.11-.183.352.352,0,0,1,.076-.32.357.357,0,0,1,.5-.031,9.545,9.545,0,0,1,1.518,1.669,3.045,3.045,0,0,1,.416.841,1.237,1.237,0,0,1,.048.5.925.925,0,0,1-.559.721A4.524,4.524,0,0,1,941.645,8572.061Z" transform="translate(-937.074 -8568.568)" fill="#ff6a44"/></g><g transform="translate(8.421 13.089)"><path d="M946.17,8568.385a.351.351,0,0,0-.213.339,2.3,2.3,0,0,1-.164,1.135.405.405,0,0,1-.336.252,1.387,1.387,0,0,1-.609-.135,10.479,10.479,0,0,1-2.1-1.318.345.345,0,0,0,.111.185,8.7,8.7,0,0,1,1.5,1.687c.077.036.155.068.229.1a2.751,2.751,0,0,0,.678.188,1.218,1.218,0,0,0,.259,0,1.108,1.108,0,0,0,.9-.625,2.961,2.961,0,0,0,.252-1.514.347.347,0,0,0-.49-.3Z" transform="translate(-942.749 -8568.35)" fill="#ff6a44"/></g><g transform="translate(11.74 11.153)"><path d="M951.5,8571.82a11.832,11.832,0,0,1-2.8.3,4,4,0,0,1-2.055-.526,1.781,1.781,0,0,1-.8-1.246c-.291-1.869,1.489-3.171,2.577-3.779.109.369.168.58.168.58s.125-.021.338-.041c-.919.489-2.616,1.615-2.379,3.13a1.07,1.07,0,0,0,.491.764c1.05.7,3.455.332,4.292.131a.352.352,0,0,1,.43.261A.357.357,0,0,1,951.5,8571.82Z" transform="translate(-945.809 -8566.565)" fill="#ff6a44"/></g><g transform="translate(10.401 15.677)"><path d="M944.919,8579.22a.351.351,0,0,1-.3-.187.355.355,0,0,1,.144-.481,3.205,3.205,0,0,0,1.726-2.108c.542-2.295-1.421-5.116-1.442-5.145a.357.357,0,0,1,.584-.411c.088.126,2.166,3.115,1.552,5.72a3.888,3.888,0,0,1-2.082,2.57A.355.355,0,0,1,944.919,8579.22Z" transform="translate(-944.575 -8570.736)" fill="#ff6a44"/></g></g><g transform="translate(4.614 42.377)"><path d="M1000.555,8590.049l-.469.744c-.135.209-.271.416-.4.613s-.267.395-.4.588-.267.385-.4.572c-.536.76-1.087,1.482-1.647,2.2-1.115,1.434-2.3,2.793-3.521,4.117a67.414,67.414,0,0,1-7.995,7.326l-1.091.824c-.362.275-.734.541-1.108.8s-.743.533-1.124.789l-1.146.762c-1.549.988-3.128,1.941-4.777,2.791-1.632.875-3.332,1.646-5.053,2.369-1.739.688-3.5,1.342-5.306,1.859-.451.131-.9.268-1.355.391l-1.37.342-.686.17-.171.043-.209.043-.231.043c-.308.057-.616.105-.927.145a12.4,12.4,0,0,1-3.859-.191c-.31-.064-.6-.146-.9-.23-.147-.043-.3-.086-.441-.135s-.273-.1-.41-.148c-.27-.1-.543-.211-.8-.326-.244-.115-.486-.232-.726-.357-.117-.061-.245-.127-.351-.189l-.321-.191c-.21-.129-.431-.264-.627-.4s-.375-.268-.561-.4c-.091-.068-.187-.139-.273-.207l-.246-.2a18.249,18.249,0,0,1-3-3.182,25.488,25.488,0,0,1-1.882-2.922c-.522-.939-.97-1.852-1.378-2.748a53.031,53.031,0,0,1-2.019-5.246c-.282-.857-.542-1.709-.79-2.557s-.47-1.693-.687-2.535c-.427-1.686-.794-3.359-1.137-5.031s-.622-3.344-.881-5.016q-.185-1.254-.35-2.518l-.15-1.271-.07-.645-.068-.691,14.194-2.26.555,2.133q.282,1.1.586,2.209c.393,1.471.809,2.936,1.237,4.383s.87,2.879,1.341,4.277.956,2.77,1.468,4.082,1.055,2.561,1.62,3.67c.279.555.563,1.074.84,1.525a10.3,10.3,0,0,0,.761,1.1c.209.264.377.389.3.311l-.015-.008-.03-.029a.389.389,0,0,0-.072-.051,1.21,1.21,0,0,0-.116-.08l-.064-.035c-.021-.01-.056-.035-.085-.051a1.6,1.6,0,0,0-.187-.088,2.642,2.642,0,0,0-.243-.107l-.129-.041c-.05-.018-.1-.037-.151-.053-.1-.035-.2-.049-.317-.078a4.36,4.36,0,0,0-1.462-.076,3.18,3.18,0,0,0-.334.043l-.081.02-.041.01-.02.006c-.012,0-.008,0,0,0l.12-.031.483-.125.965-.246c.32-.09.637-.191.956-.285,1.278-.375,2.532-.844,3.782-1.33,1.237-.527,2.476-1.057,3.682-1.691.609-.3,1.2-.637,1.8-.961.3-.158.591-.344.888-.514s.594-.34.883-.529c1.175-.713,2.323-1.49,3.455-2.3.557-.418,1.123-.824,1.668-1.264.555-.422,1.1-.869,1.641-1.312,1.084-.895,2.122-1.848,3.151-2.812s2.008-1.984,2.964-3.006c.475-.51.938-1.033,1.381-1.547.113-.131.221-.258.329-.385s.216-.256.318-.379l.3-.365.135-.166.056-.066.026-.031c.008-.01,0,0,0,0l0,.014Z" transform="translate(-939.24 -8577.986)" fill="#b3b835"/></g><g transform="translate(12 45.99)"><path d="M946.127,8581.92a.992.992,0,1,0,1.3-.525A.993.993,0,0,0,946.127,8581.92Z" transform="translate(-946.049 -8581.316)" fill="#383a01"/></g><g transform="translate(22.132 64.609)"><path d="M955.812,8605.2a.418.418,0,0,1-.282-.106.423.423,0,0,1-.032-.6,29.313,29.313,0,0,0,3.776-5.778.423.423,0,1,1,.763.368,29.713,29.713,0,0,1-3.908,5.975A.422.422,0,0,1,955.812,8605.2Z" transform="translate(-955.389 -8598.481)" fill="#383a01"/><g transform="translate(3.714 0.303)"><path d="M959.352,8603.733h-.01a.423.423,0,0,1-.414-.433,34.889,34.889,0,0,0-.107-4.039.423.423,0,1,1,.832-.155,34.352,34.352,0,0,1,.123,4.213A.423.423,0,0,1,959.352,8603.733Z" transform="translate(-958.813 -8598.761)" fill="#383a01"/></g></g><g transform="translate(5.318 43.945)"><g transform="translate(0 4.722)"><path d="M940.312,8587.617a.424.424,0,0,1-.131-.827c4.914-1.6,14.766-2.988,14.864-3a.423.423,0,1,1,.117.839c-.1.016-9.875,1.39-14.719,2.969A.44.44,0,0,1,940.312,8587.617Z" transform="translate(-939.889 -8583.784)" fill="#383a01"/></g><g transform="translate(3.101)"><path d="M944.56,8586.819a.424.424,0,0,1-.414-.336l-1.388-6.541a.424.424,0,0,1,.829-.176l1.388,6.54a.424.424,0,0,1-.326.5A.448.448,0,0,1,944.56,8586.819Z" transform="translate(-942.747 -8579.431)" fill="#383a01"/></g></g><g transform="translate(48.766 64.423)"><path d="M980.366,8606.476a.424.424,0,0,1-.231-.779c.064-.042,6.429-4.191,9.2-7.248a.423.423,0,0,1,.627.568c-2.841,3.14-9.1,7.219-9.364,7.391A.421.421,0,0,1,980.366,8606.476Z" transform="translate(-979.942 -8598.31)" fill="#383a01"/><g transform="translate(6.45 2.193)"><path d="M986.311,8601.6a.424.424,0,0,1-.051-.845l3.44-.424a.424.424,0,1,1,.1.841l-3.441.424A.466.466,0,0,1,986.311,8601.6Z" transform="translate(-985.888 -8600.329)" fill="#383a01"/></g></g></g><g transform="translate(1119.743 8554.373)"><g transform="translate(59.358)"><path d="M1155.62,8557.636s4.828-8.1,18.478-3.235,4.568,22.883,8.124,31.376-.089,8.838-7.118,9.441-21.151,1.01-24.44-2.852C1147.263,8588.373,1151.032,8568.684,1155.62,8557.636Z" transform="translate(-1149.352 -8552.846)" fill="#1f1118"/></g><g transform="translate(0 40.533)"><g transform="translate(0 6.507)"><path d="M1111.65,8614.173s-1.713,5.514-6.009,5.945c-3.47.348-6.184-3.317-7.1-4.739-.219-.34-.334-.552-.334-.552a5.733,5.733,0,0,1-.626-.067c-.873-.132-2.4-.529-2.863-1.69-.654-1.654,2.651-2.261,2.651-2.261s-1.419-1.673-.866-2.667c.544-.979,2.747-.893,2.747-.893s-2.127-1.845-1.16-3.059c1.456-1.829,3.57.7,3.746.849-.128-.2-5.581-8.484-3.844-8.817,1.516-.29,6.53,6.4,7.871,8.231.213.291.332.458.332.458s.1-.058.284-.145c.857-.414,3.455-1.481,4.808.012C1112.921,8606.58,1111.65,8614.173,1111.65,8614.173Z" transform="translate(-1094.631 -8596.213)" fill="#ff8c62"/><g transform="translate(2.947 12.035)"><path d="M1100.828,8610.88a3.526,3.526,0,0,1,1.319,1.778,1.044,1.044,0,0,1-.269.989,1.972,1.972,0,0,1-.787.423,10.88,10.88,0,0,1-2.781.367c-.22-.34-.335-.551-.335-.551a5.471,5.471,0,0,1-.627-.067.346.346,0,0,1,.181-.045c1.24.028,3.391-.108,3.878-.6a.381.381,0,0,0,.088-.383,3.99,3.99,0,0,0-2.2-2.058.333.333,0,0,1,.174-.638c.814.129,3.075.3,3.785-.41.1-.1.09-.17.082-.2a1.115,1.115,0,0,0-.436-.526,8.142,8.142,0,0,0-1.851-1.006.331.331,0,0,1-.156-.127.325.325,0,0,1-.033-.3.333.333,0,0,1,.433-.189,9,9,0,0,1,1.865.985,2.834,2.834,0,0,1,.632.608,1.148,1.148,0,0,1,.2.422.862.862,0,0,1-.261.812A4.23,4.23,0,0,1,1100.828,8610.88Z" transform="translate(-1097.348 -8607.307)" fill="#ff6a44"/></g><g transform="translate(6.733 10.672)"><path d="M1103.758,8606.148a.326.326,0,0,0-.079.364,2.163,2.163,0,0,1,.217,1.052.385.385,0,0,1-.215.329,1.352,1.352,0,0,1-.579.074,9.865,9.865,0,0,1-2.264-.491.331.331,0,0,0,.155.126,8.172,8.172,0,0,1,1.852,1.007c.079.008.157.012.233.015a2.5,2.5,0,0,0,.655-.049,1.093,1.093,0,0,0,.229-.079,1.036,1.036,0,0,0,.591-.834,2.774,2.774,0,0,0-.26-1.412.326.326,0,0,0-.527-.107Z" transform="translate(-1100.838 -8606.051)" fill="#ff6a44"/></g><g transform="translate(9.867 8.24)"><path d="M1109.466,8607.449a10.855,10.855,0,0,1-2.368,1.152,3.736,3.736,0,0,1-1.973.189,1.658,1.658,0,0,1-1.1-.84c-.849-1.551.3-3.26,1.064-4.143.213.291.332.459.332.459s.1-.059.284-.145c-.652.723-1.786,2.252-1.1,3.506a1,1,0,0,0,.675.516c1.147.285,3.143-.8,3.814-1.248a.332.332,0,1,1,.368.553Z" transform="translate(-1103.727 -8603.809)" fill="#ff6a44"/></g><g transform="translate(9.649 13.211)"><path d="M1106.074,8616a.333.333,0,0,1-.35-.539,3,3,0,0,0,.847-2.4c-.254-2.19-2.876-4.048-2.9-4.065a.333.333,0,0,1,.382-.546c.118.083,2.9,2.05,3.183,4.534a3.637,3.637,0,0,1-1.013,2.922A.33.33,0,0,1,1106.074,8616Z" transform="translate(-1103.526 -8608.392)" fill="#ff6a44"/></g></g><g transform="translate(10.082)"><path d="M1147.55,8590.213l-3.38,8.554q-.762,2.147-1.541,4.28c-.515,1.423-1.031,2.842-1.559,4.25s-1.055,2.807-1.592,4.191-1.087,2.748-1.645,4.073-1.117,2.625-1.679,3.781c-.279.572-.56,1.11-.8,1.53l-.159.277-.066.11a.289.289,0,0,0-.019.049.668.668,0,0,0-.035.121c-.01.059.012.088-.012.143s-.1.127-.28.2a5.232,5.232,0,0,1-2.077.228,16.721,16.721,0,0,1-3.287-.538,36.225,36.225,0,0,1-3.7-1.178,67.931,67.931,0,0,1-7.67-3.532c-2.561-1.348-4.442-2.441-6.931-4a11.149,11.149,0,0,1-7.194,8.1,90.082,90.082,0,0,0,7.638,6.207,69.952,69.952,0,0,0,8.6,5.389,44.6,44.6,0,0,0,4.928,2.233,31.5,31.5,0,0,0,5.735,1.6,22.175,22.175,0,0,0,3.364.325,18.736,18.736,0,0,0,3.8-.321,16.117,16.117,0,0,0,4.075-1.364,15.441,15.441,0,0,0,3.726-2.583,16.177,16.177,0,0,0,1.5-1.612l.328-.417.269-.363c.093-.125.167-.232.25-.349s.165-.234.235-.34c.6-.885,1.087-1.689,1.545-2.479.908-1.568,1.682-3.058,2.428-4.544s1.421-2.96,2.091-4.427,1.315-2.932,1.932-4.4,1.23-2.931,1.822-4.4,1.163-2.938,1.731-4.41,1.113-2.949,1.65-4.43l.8-2.229.387-1.121c.131-.379.254-.742.387-1.146Z" transform="translate(-1103.925 -8590.213)" fill="#1f1118"/></g><g transform="translate(14.059 24.719)"><path d="M1108.019,8622.509a.426.426,0,0,1-.112-.838c6.007-1.629,6.019-8.174,6.018-8.238a.428.428,0,0,1,.423-.432h0a.428.428,0,0,1,.427.423c0,.073-.013,7.271-6.648,9.07A.405.405,0,0,1,1108.019,8622.509Z" transform="translate(-1107.592 -8613.001)" fill="#594b54"/></g><g transform="translate(12.953 28.807)"><path d="M1110.931,8620.849a.428.428,0,0,1-.27-.1l-3.932-3.225a.427.427,0,1,1,.541-.659l3.932,3.224a.428.428,0,0,1-.271.758Z" transform="translate(-1106.572 -8616.77)" fill="#594b54"/></g><g transform="translate(16.942 26.504)"><path d="M1111.728,8615.386a.739.739,0,1,1-.739-.739A.738.738,0,0,1,1111.728,8615.386Z" transform="translate(-1110.249 -8614.646)" fill="#594b54"/></g><g transform="translate(40.92 31.438)"><path d="M1135.937,8623.332a.427.427,0,0,1-.342-.171,18.444,18.444,0,0,0-3.063-3.192.427.427,0,0,1,.5-.7,19.016,19.016,0,0,1,3.25,3.376.426.426,0,0,1-.086.6A.414.414,0,0,1,1135.937,8623.332Z" transform="translate(-1132.354 -8619.194)" fill="#594b54"/><g transform="translate(0.256 0.299)"><path d="M1133.016,8623.735a.379.379,0,0,1-.092-.011.426.426,0,0,1-.324-.508,7.837,7.837,0,0,0,.006-3.2.426.426,0,0,1,.82-.233,8.561,8.561,0,0,1,.006,3.621A.426.426,0,0,1,1133.016,8623.735Z" transform="translate(-1132.59 -8619.47)" fill="#594b54"/></g></g></g><g transform="translate(4.949 261.618)"><ellipse cx="50.248" cy="4.502" rx="50.248" ry="4.502" fill="#c2daf4"/></g><g transform="translate(16.818 241.393)"><path d="M1116.862,8791.224c1.552-2.5,15.461-15.844,15.461-15.844s2.843,2.228,2.705,4.684c-.131,2.336-.033,14.637.046,17.14h-1.687l-1.064-6.819s-3.845,6.152-6.732,8.259-12.643,1.728-14.984,1.415S1115.31,8793.726,1116.862,8791.224Z" transform="translate(-1110.135 -8775.38)" fill="#8c8f35"/></g><g transform="translate(22.741 234.772)"><path d="M1133.525,8769.809l-1.846,5.488a6.98,6.98,0,0,1,0,4.447c-.78,2.653-3.734,6.863-6.554,9.987-2.432,2.694-7.646,5.383-9.206,4.681s2.965-6.086,4.291-8.894a31.338,31.338,0,0,0,2.316-7.875c.459-2.422.75-8.367.75-8.367Z" transform="translate(-1115.595 -8769.276)" fill="#ff8c62"/></g><g transform="translate(75.001 240.18)"><path d="M1167.121,8774.262s-3.16,1.288-3.277,5.734-.055,17.3-.055,17.3h1.613l.93-5.429s.555,4.395,2.779,7.2,7.023,2.927,10.182,2.459.819-6.32-.469-9.6-3.98-11.118-3.98-11.118Z" transform="translate(-1163.772 -8774.262)" fill="#8c8f35"/></g><g transform="translate(76.736 233.82)"><path d="M1167.821,8768.4s.1,5.424-.836,6.359-2.224,3.979-1.288,7.725,1.561,9.207,3.746,11.548,7.88,2.417,8.348.546-2.886-8.817-3.043-12.406-.78-13.264-.78-13.264Z" transform="translate(-1165.372 -8768.399)" fill="#ff8c62"/></g><g transform="translate(43.755 91.556)"><path d="M1136.776,8667.8c7.9,4.547,26.991,6.888,39.446,1.942,4.57-1.815,5.369-2.931,5.025-11.134-.013-.3-.027-.611-.043-.915-.032-.646-.075-1.289-.121-1.929-.023-.309-.048-.617-.073-.923-.093-1.146-.2-2.269-.324-3.347-.034-.3-.067-.591-.1-.883a49.668,49.668,0,0,0-1.16-6.229c-.076-.3-.152-.588-.224-.856-.441-1.638-.8-2.62-.8-2.62a52.328,52.328,0,0,1-6.157.6c-.294.012-.587.023-.882.03-10.772.284-21.732-2.155-26.812-3.475l-.853-.227c-1.32-.355-2.065-.586-2.065-.586s-.465.815-1.121,2.161c-.119.248-.247.515-.378.8a44.8,44.8,0,0,0-3.1,8.8c-.011.04-.02.082-.028.123-.064.289-.127.581-.189.873-.012.06-.025.117-.037.177-.515,2.438-.985,5-1.3,7.44h0c-.042.314-.079.627-.116.936C1134.733,8663.922,1134.638,8666.575,1136.776,8667.8Z" transform="translate(-1134.967 -8637.25)" fill="#a9ab67"/></g><g transform="translate(45.564 92.142)"><path d="M1136.635,8650.137c.019-.01.038-.02.057-.031a12.424,12.424,0,0,0,4.236-3.953c.165-.236.325-.484.484-.74h0a27.172,27.172,0,0,0,2.995-7.395l-.853-.227a25.984,25.984,0,0,1-2.942,7.23c-.157.256-.323.5-.491.742a11.8,11.8,0,0,1-3.235,3.2c-.011.041-.02.082-.028.123-.064.289-.127.582-.189.873C1136.66,8650.02,1136.647,8650.076,1136.635,8650.137Z" transform="translate(-1136.635 -8637.791)" fill="#535602"/></g><g transform="translate(80.15 95.814)"><path d="M1168.519,8641.205a24.649,24.649,0,0,0,2.055,7.843q.2.423.422.816a11.891,11.891,0,0,0,3.056,3.678,9.5,9.5,0,0,0,4.186,1.9c-.023-.309-.048-.617-.073-.923a8.62,8.62,0,0,1-3.586-1.681,10.9,10.9,0,0,1-2.669-3.144c-.152-.262-.3-.532-.436-.811a23.334,23.334,0,0,1-2.073-7.705C1169.107,8641.187,1168.814,8641.2,1168.519,8641.205Z" transform="translate(-1168.519 -8641.175)" fill="#535602"/></g><g transform="translate(48.922 93.717)"><path d="M1139.731,8640.039c.609.268,1.264.547,1.962.83.27.109.548.221.832.33a59.068,59.068,0,0,0,15.136,3.811c.22.021.44.043.662.063a82.617,82.617,0,0,0,14.892-.15c.312-.029.622-.059.924-.092,1.846-.189,3.5-.406,4.88-.611-.076-.3-.152-.588-.224-.855-1.414.209-3.118.432-5.016.621-.3.027-.6.059-.911.086a80.2,80.2,0,0,1-15.118.063,58.179,58.179,0,0,1-14.8-3.711h0c-.282-.109-.555-.219-.823-.328-.72-.289-1.4-.576-2.02-.852C1139.989,8639.49,1139.861,8639.758,1139.731,8640.039Z" transform="translate(-1139.731 -8639.242)" fill="#d61326"/></g><g transform="translate(28.918 111.929)"><path d="M1140.8,8758.566c-2.47,8.873-5.121,18.469-7.073,25.547H1121.29l6.783-63.543.113-1.07.259-2.424c.52-22.846,3.411-44.371,8.186-61.045l21.176,9.861c-1.016,25.117-8.284,38.277-13.927,54.934C1143.88,8720.826,1147.373,8736.252,1140.8,8758.566Z" transform="translate(-1121.29 -8656.031)" fill="#a9ab67"/></g><g transform="translate(29.25 236.028)"><path d="M1122.023,8771.462a.427.427,0,0,1-.006-.854l12.252-.174h.006a.426.426,0,0,1,.005.853l-12.252.175Z" transform="translate(-1121.596 -8770.435)" fill="#535602"/></g><g transform="translate(35.701 175.309)"><path d="M1127.543,8715.618a16.179,16.179,0,0,0,2.812.256,13,13,0,0,0,3.145-.371.53.53,0,0,0-.254-1.028,13.21,13.21,0,0,1-5.59.073Z" transform="translate(-1127.543 -8714.459)" fill="#535602"/></g><g transform="translate(39.484 127.174)"><path d="M1137.878,8755.819c-1.689,6.924-3.991,15.979-5.937,23.555h-.911c1.956-7.617,4.285-16.775,5.99-23.765,3.5-14.357,2.354-37.294,2.342-37.525a.431.431,0,0,1,.048-.22,140.117,140.117,0,0,0,13.719-47.37.442.442,0,0,1,.881.062,141.128,141.128,0,0,1-13.76,47.6C1140.334,8719.965,1141.281,8741.869,1137.878,8755.819Z" transform="translate(-1131.03 -8670.085)" fill="#535602"/></g><g transform="translate(66.64 112.92)"><path d="M1179.156,8720.455q-.057,1.868-.125,3.779l-.993,59.8h-11.8c-1.382-8.282-3.446-20.636-5.447-32.594-3.552-21.226.243-29.325.243-29.325s-4.63-41.815-4.973-52.669l23.394-12.5s5.436,18.761-.269,62.379C1179.179,8719.7,1179.169,8720.077,1179.156,8720.455Z" transform="translate(-1156.065 -8656.944)" fill="#a9ab67"/></g><g transform="translate(67.86 126.672)"><path d="M1162.566,8740.936c.514,3.444,3.481,24.1,5.55,38.478h-.9c-2.11-14.36-5.133-34.9-5.644-38.33-1.306-8.757,1.375-19.893,1.658-21.028l-6.04-49.871a.5.5,0,0,1,1-.119l6.051,49.962a.486.486,0,0,1-.013.186C1164.2,8720.329,1161.226,8731.947,1162.566,8740.936Z" transform="translate(-1157.19 -8669.623)" fill="#535602"/></g><g transform="translate(76.114 235.687)"><path d="M1177.012,8770.975h-11.788a.427.427,0,0,1,0-.854h11.788a.427.427,0,0,1,0,.854Z" transform="translate(-1164.798 -8770.121)" fill="#535602"/></g><g transform="translate(81.456 175.299)"><path d="M1170.123,8715.913a12.974,12.974,0,0,0,3.147.374,17.2,17.2,0,0,0,4.728-.705c.013-.378.023-.757.034-1.132a14.53,14.53,0,0,1-7.653.436.529.529,0,0,0-.256,1.027Z" transform="translate(-1169.723 -8714.45)" fill="#d61326"/></g><g transform="translate(61.271 98.552)"><g transform="translate(2.455 0.103)"><path d="M1154.258,8667.693a.439.439,0,0,1-.487.383h0a.441.441,0,0,1-.386-.49c.2-1.643.385-3.328.564-5.014.031-.3.063-.594.092-.891.573-5.508,1.037-10.934,1.343-14.768.024-.311.049-.609.072-.9.065-.84.123-1.588.17-2.219.3,0,.593,0,.886,0-.048.633-.106,1.387-.172,2.236-.023.289-.048.59-.072.9-.3,3.8-.762,9.178-1.33,14.654-.03.3-.063.605-.093.908C1154.656,8664.242,1154.462,8665.99,1154.258,8667.693Z" transform="translate(-1153.378 -8643.795)" fill="#535602"/></g><path d="M1156.654,8662.162a11.521,11.521,0,0,1-1.621.342,8.912,8.912,0,0,1-.9.077,6.035,6.035,0,0,1-.842-.031,2.972,2.972,0,0,1-1.42-.487,1.877,1.877,0,0,1-.758-1.547c-.035-1.736.467-8.794.844-13.781q.034-.458.067-.9c.061-.8.118-1.523.166-2.139.293.013.588.026.884.036-.049.619-.106,1.354-.167,2.161-.022.291-.044.588-.068.9-.374,4.975-.876,12.021-.843,13.7a.984.984,0,0,0,.4.852,3.014,3.014,0,0,0,1.833.341,8.8,8.8,0,0,0,.9-.095,10.526,10.526,0,0,0,1.275-.279.441.441,0,1,1,.253.846Z" transform="translate(-1151.115 -8643.7)" fill="#535602"/></g><g transform="translate(46.176 34.559)"><g transform="translate(4.165 57)"><path d="M1176.833,8637.253l-2.722,11.415c-6.8-.542-14.847-1.527-20.905-4.658,0,0-8.074,2.715-12.168,1.447l3-8.2Z" transform="translate(-1141.039 -8637.253)" fill="#fff"/></g><path d="M1137.2,8650.156c7.842-.053,12.552-1.068,16.83-4.571,8.018,8.335,27.836,8.654,27.836,8.654-1.983-6.4-2.629-17.719-2.629-17.719h0a59.9,59.9,0,0,1,.976-7.365c1.956-5.646,4.242-9.69,6.277-15.523.132-.378.266-.754.4-1.133.088-.246.179-.491.27-.736.669-1.826,1.386-3.644,2.14-5.4,3.28-7.645,3.81-16.261-4.081-18.891-.574-.191-1.139-.374-1.689-.548-3.733-1.181-6.843-1.955-7.709-2.165-.156-.039-.238-.058-.238-.058l-16.566,1.373-1.576.131c-2.314.26-4.769.194-6.319.534-1.364.3-2.19.228-3.578.638-3.265.964-3.173,5.356-4.187,10.81-.017.093-.035.188-.052.285-.006.028-.013.063-.019.092-.177.927-.39,1.843-.629,2.752-.268,1.014-.566,2.016-.88,2.993-1.91,5.991-4.213,8.741-3.819,12.512.357,3.414,3.839,8.069,4.765,9.063.213.228.339.351.339.351,0,.016,0,.034-.006.053-.013.136-.031.278-.05.43-.069.574-.17,1.259-.3,2.033C1141.339,8642.585,1137.2,8650.156,1137.2,8650.156Z" transform="translate(-1137.199 -8584.706)" fill="#1f1118"/><g transform="translate(0.528 11.04)"><path d="M1141.669,8624.523a.427.427,0,0,1-.309-.132c-.2-.215-4.99-5.322-3.322-9.982.463-1.293,1-2.6,1.573-3.986,1.733-4.2,3.7-8.967,4.2-15.146a.427.427,0,1,1,.851.068c-.515,6.313-2.507,11.142-4.264,15.4-.566,1.375-1.1,2.673-1.559,3.949-1.49,4.164,3.09,9.058,3.137,9.106a.426.426,0,0,1-.309.72Z" transform="translate(-1137.686 -8594.883)" fill="#594b54"/></g><g transform="translate(15.858 21.543)"><g transform="translate(2.572)"><circle cx="0.93" cy="0.93" r="0.93" fill="#594b54"/></g><g transform="translate(1.19 8.236)"><path d="M1152.915,8613.089a.93.93,0,1,0,.93-.93A.928.928,0,0,0,1152.915,8613.089Z" transform="translate(-1152.915 -8612.159)" fill="#594b54"/></g><g transform="translate(0.357 16.608)"><path d="M1152.147,8620.808a.93.93,0,1,0,.931-.931A.93.93,0,0,0,1152.147,8620.808Z" transform="translate(-1152.147 -8619.877)" fill="#594b54"/></g><g transform="translate(0 25.22)"><path d="M1151.818,8628.745a.93.93,0,1,0,.93-.929A.929.929,0,0,0,1151.818,8628.745Z" transform="translate(-1151.818 -8627.816)" fill="#594b54"/></g><g transform="translate(0.041 34.177)"><path d="M1151.856,8637a.93.93,0,1,0,.931-.93A.93.93,0,0,0,1151.856,8637Z" transform="translate(-1151.856 -8636.074)" fill="#594b54"/></g></g><g transform="translate(17.601 1.276)"><path d="M1159.545,8585.961a21.578,21.578,0,0,0-6.12.346l.273,9.45,2.15.462-1.81,1.782,2.172,6.342S1159.177,8593.791,1159.545,8585.961Z" transform="translate(-1153.425 -8585.883)" fill="#594b54"/></g><g transform="translate(20.386)"><path d="M1173.991,8584.706l6.582,1.8-7.729,10.273-5.795-.462,2.032,4.433-13.09,3.691s15.159-14.4,16.373-19.6Z" transform="translate(-1155.992 -8584.706)" fill="#594b54"/></g><g transform="translate(20.386 0.77)"><path d="M1172.845,8585.417s-3.781,8.051-16.853,18.966a103.528,103.528,0,0,1,3.33-17.79S1167.015,8589.271,1172.845,8585.417Z" transform="translate(-1155.992 -8585.417)" fill="#fff"/></g><g transform="translate(13.082 19.405)"><path d="M1154.739,8609.666c4.3,0,13.09-6.166,13.462-6.429a.353.353,0,1,0-.408-.576c-.089.063-8.972,6.3-13.054,6.3-3.906,0-4.772-4.267-4.779-4.31a.353.353,0,1,0-.694.133C1149.274,8604.832,1150.256,8609.666,1154.739,8609.666Z" transform="translate(-1149.259 -8602.596)" fill="#594b54"/></g><g transform="translate(23.52 0.77)"><path d="M1159.083,8586l-.177,2.231c-.33,4.159,2.627,5.338,6.933,3.136,3.4-1.742,6.288-4.342,6.761-5.951Z" transform="translate(-1158.881 -8585.417)" fill="#ff8c62"/></g><g transform="translate(5.525 40.772)"><path d="M1166.654,8625.347a.383.383,0,0,1-.332.19.373.373,0,0,1-.189-.05,22.063,22.063,0,0,0-13.876-2.058,23.9,23.9,0,0,1-9.682.107c.018-.151.036-.295.049-.431l.006-.053s-.127-.123-.339-.35a22.818,22.818,0,0,0,9.819-.024,22.435,22.435,0,0,1,14.4,2.145A.383.383,0,0,1,1166.654,8625.347Z" transform="translate(-1142.292 -8622.293)" fill="#594b54"/></g></g><g transform="translate(58.721 1.554)"><g transform="translate(3.225 3.235)"><g transform="translate(0 12.815)"><path d="M1155.27,8570.105s-1.96-2.316-3.068,0-.255,7,2.727,6.234Z" transform="translate(-1151.737 -8569.076)" fill="#ff6a44"/></g><g transform="translate(8.008 22.327)"><path d="M1159.379,8581.243l-.26,6.306s3.414,5.189,13.461-1.49c-.976-2.4-1.762-5.765-.993-8.213a12.354,12.354,0,0,0-1.938.976,6.823,6.823,0,0,1-.8.348C1166.336,8580.223,1162.559,8581.49,1159.379,8581.243Z" transform="translate(-1159.119 -8577.846)" fill="#ff8c62"/><g transform="translate(0.138 0.976)"><path d="M1159.369,8581.167l-.123,2.99c2.73-.608,7.643-2.1,10.392-5.412-.25.11-.517.228-.8.348C1166.325,8580.146,1162.548,8581.414,1159.369,8581.167Z" transform="translate(-1159.246 -8578.745)" fill="#1f1118"/></g></g><g transform="translate(1.357)"><path d="M1154.441,8580.9c5.365,5.549,17.271-1.073,17.653-1.289l.01,0q.166-.746.3-1.477a38.917,38.917,0,0,0,.386-11.605,8.787,8.787,0,0,0-5.7-8.735c-3.745-1.364-7.1.282-9.121.9-3.045.939-4.96,4.876-4.979,10.483C1152.969,8576.059,1153.11,8579.521,1154.441,8580.9Z" transform="translate(-1152.988 -8557.262)" fill="#ff8c62"/></g><g transform="translate(1.359 6.814)"><path d="M1156.531,8563.543s1.114.109.722,1.131-2.624-.1-4.223,1.775C1153.03,8566.449,1152.351,8564,1156.531,8563.543Z" transform="translate(-1152.989 -8563.543)" fill="#1f1118"/></g><g transform="translate(9.14 6.814)"><path d="M1160.968,8563.543s-1.113.109-.723,1.131,2.625-.1,4.223,1.775C1164.468,8566.449,1165.148,8564,1160.968,8563.543Z" transform="translate(-1160.162 -8563.543)" fill="#1f1118"/></g><g transform="translate(10.303 13.832)"><ellipse cx="2.389" cy="0.94" rx="2.389" ry="0.94" fill="#ff6a44"/></g><g transform="translate(0.569 13.831)" opacity="0.8"><path d="M1152.261,8571.865a5.487,5.487,0,0,0,.576.029c1.318,0,2.388-.422,2.388-.941s-1.07-.941-2.388-.941q-.269,0-.52.023Z" transform="translate(-1152.261 -8570.012)" fill="#ff6a44"/></g><g transform="translate(2.811 10.621)"><g transform="translate(7.057)"><path d="M1160.834,8568.345c0,.714.323,1.292.723,1.292s.722-.578.722-1.292-.323-1.292-.722-1.292S1160.834,8567.632,1160.834,8568.345Z" transform="translate(-1160.834 -8567.053)" fill="#1f1118"/></g><path d="M1154.328,8568.345c0,.714.323,1.292.723,1.292s.722-.578.722-1.292-.323-1.292-.722-1.292S1154.328,8567.632,1154.328,8568.345Z" transform="translate(-1154.328 -8567.053)" fill="#1f1118"/><g transform="translate(0.869 6.271)"><path d="M1157.7,8574.661a3.44,3.44,0,0,1-2.48-1.035.294.294,0,0,1,.41-.421c2.146,2.1,5.005-.2,5.126-.3a.294.294,0,0,1,.373.454A6.214,6.214,0,0,1,1157.7,8574.661Z" transform="translate(-1155.13 -8572.835)" fill="#1f1118"/></g><g transform="translate(2.365 0.262)"><path d="M1157.322,8571.045a2.674,2.674,0,0,1-.592-.062.3.3,0,0,1-.187-.146.3.3,0,0,1-.019-.234l1.087-3.111a.293.293,0,1,1,.553.193l-.967,2.771a2.305,2.305,0,0,0,1.2-.26.294.294,0,0,1,.279.518A2.856,2.856,0,0,1,1157.322,8571.045Z" transform="translate(-1156.508 -8567.294)" fill="#1f1118"/></g></g><g transform="translate(18.143 19.456)"><path d="M1168.462,8575.2c.034.078.972,2.256,2.32,2.893l0,0,.006-.006q.166-.747.3-1.477A5.478,5.478,0,0,1,1168.462,8575.2Z" transform="translate(-1168.462 -8575.197)" fill="#1f1118"/></g><g transform="translate(19.45 12.527)"><path d="M1169.667,8570.784s2.852-3.831,4.941-.819c1.723,2.48-1.534,8.945-4.941,6.73Z" transform="translate(-1169.667 -8568.81)" fill="#ff8c62"/></g><g transform="translate(20.958 18.389)"><path d="M1172.505,8574.938a.724.724,0,1,1-.724-.724A.724.724,0,0,1,1172.505,8574.938Z" transform="translate(-1171.057 -8574.214)" fill="#fff"/></g><g transform="translate(19.546 14.479)"><path d="M1170.049,8575.389l-.033,0a.293.293,0,0,1-.259-.323,5.49,5.49,0,0,1,3.215-4.434.294.294,0,0,1,.217.546h0a4.9,4.9,0,0,0-2.849,3.952A.3.3,0,0,1,1170.049,8575.389Z" transform="translate(-1169.755 -8570.609)" fill="#1f1118"/></g><g transform="translate(20.492 16.219)"><path d="M1172.714,8573.474a.292.292,0,0,1-.186-.066c-.255-.206-1.028-.715-1.535-.584a.294.294,0,0,1-.145-.57,2.824,2.824,0,0,1,2.051.7.294.294,0,0,1-.186.521Z" transform="translate(-1170.628 -8572.214)" fill="#1f1118"/></g></g><g transform="translate(2.952)"><path d="M1173.5,8562.961s-3.9,3.562-5.547,2.68,1.012-4.107,1.012-4.107-5.785,3.132-8.006,2.124,1.764-3.709,1.764-3.709-4.416,3.928-6.929,3.7,0-3.4,0-3.4-2.3,4.445-3.816,4.064.52-6.765,5.549-8.936S1175.351,8553.589,1173.5,8562.961Z" transform="translate(-1151.485 -8554.28)" fill="#1f1118"/></g><g transform="translate(21.159 8.681)"><path d="M1168.667,8563.635s-1.284,8.146.768,8.183,4.119-3.135,2.643-9.535Z" transform="translate(-1168.27 -8562.282)" fill="#1f1118"/></g><g transform="translate(0 10.833)"><g transform="translate(0.483 4.601)"><path d="M1149.481,8568.508l3.8.133v.527h-.008l-3.807-.134a.262.262,0,0,1-.254-.271A.258.258,0,0,1,1149.481,8568.508Z" transform="translate(-1149.209 -8568.507)" fill="#fff"/></g><g transform="translate(10.509)"><path d="M1158.452,8568.716a4.449,4.449,0,1,1,4.448,4.449A4.455,4.455,0,0,1,1158.452,8568.716Zm.526,0a3.923,3.923,0,1,0,3.922-3.924A3.927,3.927,0,0,0,1158.978,8568.716Z" transform="translate(-1158.452 -8564.266)" fill="#fff"/></g><path d="M1148.764,8568.716a4.45,4.45,0,1,1,4.449,4.449A4.455,4.455,0,0,1,1148.764,8568.716Zm.526,0a3.923,3.923,0,1,0,3.923-3.924A3.928,3.928,0,0,0,1149.29,8568.716Z" transform="translate(-1148.764 -8564.266)" fill="#fff"/><g transform="translate(18.826 3.124)"><path d="M1171.937,8569.4a.262.262,0,0,0,.246-.357c-1.172-3.064-5.839-1.5-5.886-1.479a.264.264,0,0,0,.173.5c.042-.016,4.23-1.422,5.221,1.17A.263.263,0,0,0,1171.937,8569.4Z" transform="translate(-1166.12 -8567.146)" fill="#fff"/></g></g><g transform="translate(8.341 13.628)"><path d="M1156.717,8567.807a.259.259,0,0,0,.188-.078c.731-.742,1.837-.111,1.847-.105a.263.263,0,0,0,.265-.455,2.083,2.083,0,0,0-2.487.191.263.263,0,0,0,.188.447Z" transform="translate(-1156.453 -8566.842)" fill="#fff"/></g></g><g transform="translate(38.603 122.724)"><g transform="translate(31.17)"><path d="M1180.255,8685.012a1.283,1.283,0,0,1-1.151-1.837l2.728-5.653-17.718-8.551-2.728,5.652a1.28,1.28,0,0,1-2.305-1.112l3.283-6.8a1.282,1.282,0,0,1,1.709-.6l20.023,9.665a1.279,1.279,0,0,1,.6,1.708l-3.285,6.806A1.282,1.282,0,0,1,1180.255,8685.012Z" transform="translate(-1158.954 -8665.982)" fill="#594b54"/></g><g transform="translate(37.536 0.697)"><rect width="3.688" height="16.606" rx="0.615" transform="matrix(0.435, -0.901, 0.901, 0.435, 0, 3.321)" fill="#0070fc"/></g><g transform="translate(0 0.826)"><rect width="40.061" height="55.629" rx="2.423" transform="translate(0 36.078) rotate(-64.236)" fill="#1f1118"/></g><g transform="translate(29.01 26.21)"><path d="M1157.178,8693.479a4.744,4.744,0,1,0,5.939-3.12A4.745,4.745,0,0,0,1157.178,8693.479Z" transform="translate(-1156.962 -8690.144)" fill="#594b54"/></g></g><g transform="translate(76.486 40.91)"><g transform="translate(0 76.275)"><path d="M1174.5,8660.876s-4.808,1.951-6.646,4.12a2.975,2.975,0,0,0-.131,4.019s-3.077,4.347-2.506,5.958a1.826,1.826,0,0,0,2.22,1.16s-.149,1.229.543,1.74,2.281-.145,2.281-.145-.09,2.153.763,2.547,2.254-.594,2.254-.594.787,2.417,2.166,1.793c3.171-1.436,9.033-13.441,9.033-13.441S1179.124,8662.644,1174.5,8660.876Z" transform="translate(-1165.142 -8660.876)" fill="#ff8c62"/><g transform="translate(2.423 3.981)"><path d="M1167.718,8668.717a.335.335,0,0,1-.242-.1.34.34,0,0,1,0-.481c1.553-1.555,3.3-3.458,3.318-3.477a.341.341,0,1,1,.5.461c-.017.019-1.774,1.934-3.338,3.5A.335.335,0,0,1,1167.718,8668.717Z" transform="translate(-1167.376 -8664.547)" fill="#ff6a44"/></g></g><g transform="translate(8.904)"><path d="M1187.026,8590.561l.261.382.215.319.4.619c.263.407.515.812.764,1.214.5.8.966,1.612,1.426,2.423q1.377,2.43,2.6,4.918c.822,1.659,1.583,3.348,2.3,5.057s1.391,3.443,2,5.2,1.179,3.546,1.682,5.355.941,3.648,1.308,5.51a65.488,65.488,0,0,1,1.282,11.426c.018.972.019,1.944-.011,2.921l-.023.734c-.021.4-.047.808-.091,1.154-.038.373-.093.688-.145,1.023l-.088.467c-.029.155-.06.311-.093.454a31.21,31.21,0,0,1-.891,3.177c-.327.973-.673,1.891-1.031,2.781-.715,1.78-1.486,3.456-2.279,5.093s-1.61,3.231-2.454,4.8-1.7,3.112-2.577,4.642-1.773,3.037-2.677,4.537-1.834,2.979-2.769,4.457l-1.415,2.21-.724,1.1-.745,1.119-9.917-6.1,1.181-2.185,1.19-2.219q1.183-2.227,2.325-4.469t2.253-4.48q1.107-2.241,2.147-4.486c.69-1.5,1.364-2.986,1.986-4.47s1.2-2.957,1.7-4.38c.248-.711.473-1.41.659-2.07a17.114,17.114,0,0,0,.414-1.79c.013-.066.018-.123.026-.179l.022-.167c0-.088.021-.2.017-.249a.937.937,0,0,0,0-.128l0-.55c0-.735-.034-1.477-.075-2.217a61.449,61.449,0,0,0-4.045-17.8,86.435,86.435,0,0,0-3.813-8.607c-.711-1.4-1.461-2.79-2.245-4.143-.392-.676-.794-1.343-1.2-2-.2-.325-.4-.648-.6-.96l-.3-.458-.244-.362Z" transform="translate(-1173.35 -8590.561)" fill="#1f1118"/></g><g transform="translate(13.539 76.295)"><path d="M1177.646,8661.662a.977.977,0,1,0,1.164-.744A.976.976,0,0,0,1177.646,8661.662Z" transform="translate(-1177.623 -8660.895)" fill="#594b54"/></g><g transform="translate(11.389 71.799)"><path d="M1185.88,8663.546a.427.427,0,0,1-.245-.076,100.235,100.235,0,0,0-9.765-5.916.426.426,0,1,1,.4-.755,101.448,101.448,0,0,1,9.859,5.972.427.427,0,0,1-.245.775Z" transform="translate(-1175.641 -8656.75)" fill="#594b54"/></g><g transform="translate(10.335 72.692)"><path d="M1175.1,8662.919a.423.423,0,0,1-.208-.054.428.428,0,0,1-.164-.582l2.517-4.49a.426.426,0,1,1,.744.416l-2.517,4.492A.428.428,0,0,1,1175.1,8662.919Z" transform="translate(-1174.669 -8657.574)" fill="#594b54"/></g><g transform="translate(7.919 8.46)"><g transform="translate(1.332)"><path d="M1182.244,8614.473a.426.426,0,0,1-.4-.273c-.039-.1-4-10.284-8.076-15.139a.427.427,0,0,1,.653-.549c4.17,4.963,8.055,14.958,8.219,15.38a.428.428,0,0,1-.4.581Z" transform="translate(-1173.67 -8598.359)" fill="#594b54"/></g><g transform="translate(0 1.813)"><path d="M1176.313,8601.993a.438.438,0,0,1-.131-.021l-3.444-1.11a.427.427,0,1,1,.261-.812l3.444,1.11a.427.427,0,0,1-.13.833Z" transform="translate(-1172.442 -8600.03)" fill="#594b54"/></g></g><g transform="translate(22.902 45.731)"><path d="M1192.039,8634.4a.442.442,0,0,1-.149-.026h0a16.521,16.521,0,0,0-5.21-.8.426.426,0,1,1,0-.853,17.022,17.022,0,0,1,5.508.852.426.426,0,0,1-.15.825Z" transform="translate(-1186.254 -8632.72)" fill="#594b54"/></g><g transform="translate(22.901 44.072)"><path d="M1186.68,8633.7a.427.427,0,0,1-.2-.8c1.318-.721,3.661-1.644,3.76-1.682a.427.427,0,0,1,.313.795c-.024.009-2.393.942-3.663,1.636A.415.415,0,0,1,1186.68,8633.7Z" transform="translate(-1186.254 -8631.188)" fill="#594b54"/></g></g></g><g transform="translate(817.836 8611.129)"><g transform="translate(0 202.007)"><ellipse cx="76.013" cy="5.929" rx="76.013" ry="5.929" fill="#c2daf4"/></g><g transform="translate(27.636)"><g transform="translate(39.766 51.735)"><path d="M893.259,8654.064l-.024.414-.023.539c-.012.371-.021.75-.026,1.133-.015.766-.012,1.549,0,2.332.027,1.572.1,3.16.222,4.748a88.861,88.861,0,0,0,1.19,9.5c.294,1.57.61,3.137.969,4.691s.772,3.1,1.224,4.621c.105.385.228.764.345,1.145s.229.764.357,1.139c.254.754.495,1.512.772,2.256.136.373.265.748.407,1.121l.43,1.109.107.277.053.139.013.035c0,.01.013.033.005.014l-.024-.053c-.039-.072-.061-.119-.093-.168a.957.957,0,0,0-.061-.094c-.072-.09-.044-.029.029.063a7.116,7.116,0,0,0,1,.928c.465.373,1.019.762,1.613,1.148,1.193.775,2.544,1.537,3.943,2.271s2.867,1.439,4.359,2.123,3.012,1.35,4.552,1.992c3.08,1.287,6.223,2.516,9.395,3.691q2.377.888,4.776,1.734l2.4.834,1.2.412,1.169.395-3.141,10.984-1.321-.336-1.288-.336c-.857-.229-1.708-.465-2.559-.7q-2.553-.715-5.1-1.479c-3.387-1.025-6.763-2.121-10.136-3.336s-6.741-2.535-10.141-4.113c-1.7-.795-3.414-1.658-5.167-2.7-.878-.523-1.767-1.09-2.686-1.758a20.916,20.916,0,0,1-2.888-2.5,13.722,13.722,0,0,1-1.569-1.979c-.131-.2-.266-.426-.394-.648-.132-.242-.258-.477-.383-.75l-.136-.3-.069-.16-.141-.322-.56-1.287c-.184-.43-.355-.865-.533-1.3-.361-.865-.683-1.742-1.016-2.615-.167-.437-.316-.881-.474-1.32s-.317-.879-.459-1.324l-.437-1.33c-.143-.445-.273-.893-.41-1.338-.279-.893-.517-1.793-.772-2.689-.481-1.8-.921-3.613-1.3-5.437a103.389,103.389,0,0,1-1.654-11.051c-.166-1.861-.273-3.73-.329-5.619-.025-.943-.039-1.891-.03-2.854.005-.482.017-.969.034-1.463l.033-.758.022-.4.033-.48Z" transform="translate(-878.447 -8652.863)" fill="#b3b835"/><g transform="translate(15.573 35.66)"><g transform="translate(0 0.145)"><path d="M893.227,8689.535a.417.417,0,0,1-.341-.171.423.423,0,0,1,.088-.593,35.665,35.665,0,0,1,4.552-2.855.424.424,0,0,1,.384.756,35.377,35.377,0,0,0-4.431,2.781A.423.423,0,0,1,893.227,8689.535Z" transform="translate(-892.803 -8685.87)" fill="#383a01"/></g><g transform="translate(1.251)"><path d="M894.379,8686.707a.423.423,0,0,1-.031-.846c.017,0,1.677-.124,3.075-.124a.423.423,0,1,1,0,.846c-1.367,0-2.995.122-3.011.123Z" transform="translate(-893.956 -8685.737)" fill="#383a01"/></g></g><g transform="translate(44.731 48.36)"><path d="M920.107,8711.176a.435.435,0,0,1-.122-.017.425.425,0,0,1-.285-.527l3.832-12.885a.424.424,0,0,1,.813.242l-3.832,12.885A.424.424,0,0,1,920.107,8711.176Z" transform="translate(-919.683 -8697.444)" fill="#c2daf4"/><g transform="translate(1.279 9.284)"><path d="M927.175,8708.712a.446.446,0,0,1-.128-.019l-5.89-1.862a.424.424,0,0,1,.256-.808l5.889,1.861a.423.423,0,0,1-.127.827Z" transform="translate(-920.862 -8706.003)" fill="#c2daf4"/></g><g transform="translate(4.656 6.615)"><path d="M925.912,8704.324a.978.978,0,1,1-1.155-.761A.979.979,0,0,1,925.912,8704.324Z" transform="translate(-923.975 -8703.543)" fill="#c2daf4"/></g></g></g><g transform="translate(0 64.875)"><g transform="translate(11.218 106.532)"><path d="M904.24,8767.422H854.246a2.118,2.118,0,0,1,0-4.236H904.24a2.118,2.118,0,0,1,0,4.236Z" transform="translate(-852.129 -8763.186)" fill="#294d6d"/></g><g transform="translate(6.954 70.877)"><path d="M909.173,8802.547a2.118,2.118,0,0,1-2.1-1.837l-8.861-66.16H861.138l-8.722,66.156a2.118,2.118,0,0,1-4.2-.555l8.965-68a2.117,2.117,0,0,1,2.1-1.84h40.788a2.118,2.118,0,0,1,2.1,1.836l9.106,68a2.116,2.116,0,0,1-1.817,2.379A2.01,2.01,0,0,1,909.173,8802.547Z" transform="translate(-848.198 -8730.315)" fill="#3e73a3"/></g><path d="M888.8,8737.97H862.308c-8.393,0-17.38-4.593-18.669-12.886a157.308,157.308,0,0,1-1.667-31.684,38.579,38.579,0,0,1,14.628-28.425h0s5.291,23.061-1.362,54.888C857.779,8731.957,888.8,8737.97,888.8,8737.97Z" transform="translate(-841.788 -8664.976)" fill="#3e73a3"/></g><g transform="translate(75.525 184.209)"><path d="M929.933,8791.1c-1.584-2.546-15.766-16.118-15.766-16.118s-2.893,2.273-2.75,4.772c.135,2.38.05,14.907.087,16.228h1.719l.961-5.717s3.925,6.261,6.866,8.4,12.879,1.744,15.262,1.425S931.516,8793.652,929.933,8791.1Z" transform="translate(-911.412 -8774.986)" fill="#97c2e8"/></g><g transform="translate(76.577 177.455)"><path d="M912.382,8769.315l1.887,5.587a7.1,7.1,0,0,0,0,4.529c.8,2.7,3.812,6.986,6.688,10.164,2.481,2.743,7.794,5.475,9.382,4.758s-3.026-6.2-4.38-9.054a31.931,31.931,0,0,1-2.369-8.019c-.47-2.465-.772-8.521-.772-8.521Z" transform="translate(-912.382 -8768.761)" fill="#ff8c62"/></g><g transform="translate(114.092 186.643)"><path d="M968.654,8786.522c-2.4-1.8-20.543-9.291-20.543-9.291s-1.871,3.168-.83,5.444c.991,2.169,5.462,13.872,5.975,15.089l1.6-.626-1.18-5.677s5.93,4.409,9.45,5.336,12.633-3.051,14.737-4.215S971.054,8788.321,968.654,8786.522Z" transform="translate(-946.966 -8777.231)" fill="#97c2e8"/></g><g transform="translate(111.398 177.177)"><path d="M944.482,8772.812l3.788,4.521a7.11,7.11,0,0,0,1.651,4.219c1.724,2.227,6.088,5.124,9.921,7.042,3.307,1.653,9.251,2.269,10.47,1.023s-5.07-4.672-7.371-6.844a31.929,31.929,0,0,1-5.118-6.61c-1.334-2.127-3.815-7.659-3.815-7.659Z" transform="translate(-944.482 -8768.504)" fill="#ff8c62"/></g><g transform="translate(30.109 101.575)"><path d="M934.7,8710.149c-2.935-2.889-49.678-14.705-65.055-10.412-1.762,3.392,19.583,17.342,25.091,25.286,20.212,3.306,31.491,10.1,31.491,10.1s7.167,16.562,11.426,22.64,12.374,22.949,12.374,22.949l11.409-5.421S942.692,8718.017,934.7,8710.149Z" transform="translate(-869.544 -8698.809)" fill="#1f1118"/></g><g transform="translate(107.378 171.137)"><path d="M941.2,8768.738a.424.424,0,0,1-.168-.812l11.453-4.955a.423.423,0,0,1,.336.776l-11.453,4.957A.412.412,0,0,1,941.2,8768.738Z" transform="translate(-940.777 -8762.936)" fill="#594b54"/></g><g transform="translate(88.245 133.283)"><path d="M945.487,8770.488a.422.422,0,0,1-.387-.252c-.035-.078-.933-2.031-7.509-12.8-7.163-11.732-14.348-28.639-14.42-28.807a.424.424,0,1,1,.78-.332c.072.17,7.233,17.018,14.363,28.7,6.647,10.889,7.525,12.822,7.56,12.9a.423.423,0,0,1-.216.559A.414.414,0,0,1,945.487,8770.488Z" transform="translate(-923.138 -8728.039)" fill="#594b54"/></g><g transform="translate(11.007 98.7)"><path d="M854.762,8696.158s-15.923,35.006,27.812,37.562c19.738,1.153,29.168-1.908,29.168-1.908s.476,17.458,1.4,24.823,3.658,20.5,3.658,20.5h11.831s4.742-53.819-4.8-59.7-26.091-10.306-49.652-12.566C874.17,8704.861,858.232,8697.841,854.762,8696.158Z" transform="translate(-851.935 -8696.158)" fill="#1f1118"/></g><g transform="translate(14.511 102.081)"><path d="M917.987,8770.54a.424.424,0,0,1-.414-.339c-1.706-8.449-2.279-18.966-2.74-27.414-.382-7.007-.742-13.623-1.642-14.419-.729-.645-3.755-.142-7.588.5-7.623,1.265-19.141,3.178-31.844.221-6.92-1.608-12.006-4.97-15.119-9.989-5.368-8.654-2.921-19.386-2.9-19.492a.423.423,0,1,1,.824.193c-.025.1-2.39,10.507,2.794,18.858,2.991,4.817,7.9,8.049,14.588,9.605,12.539,2.917,23.958,1.021,31.513-.232,4.526-.751,7.257-1.205,8.287-.294,1.114.984,1.426,5.823,1.928,15.008.459,8.423,1.031,18.9,2.725,27.291a.424.424,0,0,1-.332.5A.416.416,0,0,1,917.987,8770.54Z" transform="translate(-855.165 -8699.275)" fill="#594b54"/></g><g transform="translate(74.344 172.217)"><path d="M923.9,8765.061h-.01l-13.157-.283a.423.423,0,0,1,.017-.847l13.158.283a.423.423,0,0,1-.009.847Z" transform="translate(-910.323 -8763.931)" fill="#594b54"/></g><g transform="translate(45.025 110.028)"><rect width="47.03" height="6.129" rx="1.15" transform="translate(47.03 6.129) rotate(180)" fill="#75aee1"/></g><g transform="translate(71.825 76.332)"><path d="M933.14,8715.363a3.909,3.909,0,0,0,3.776-2.9l8.8-32.939a3.171,3.171,0,0,0-3.063-3.987H921.591a3.17,3.17,0,0,0-3.052,2.313L908,8715.363Z" transform="translate(-908.001 -8675.537)" fill="#3e73a3"/></g><g transform="translate(69.506 76.331)"><path d="M918.718,8677.852l-10.449,37.2h-2.406l10.449-37.2a3.173,3.173,0,0,1,3.054-2.315h2.406A3.175,3.175,0,0,0,918.718,8677.852Z" transform="translate(-905.863 -8675.536)" fill="#75aee1"/></g><g transform="translate(88.21 93.033)"><path d="M923.206,8694.679a2.883,2.883,0,0,0,2.878,3.746,5,5,0,0,0,4.612-3.746,2.881,2.881,0,0,0-2.878-3.744A5,5,0,0,0,923.206,8694.679Z" transform="translate(-923.106 -8690.935)" fill="#75aee1"/></g><g transform="translate(11.608 42.575)"><path d="M898.178,8681.945c-.021.038-.034.071-.055.108a10.561,10.561,0,0,1-.7,1.182,20.328,20.328,0,0,1-4.634,4.672c-.243.183-.385.273-.385.273a.392.392,0,0,1,0,.048c-.011.13-.022.26-.035.4a18.518,18.518,0,0,0-.08,1.938c.184,8.47.355,9.913.4,13.5-13.645,13.282-37-1.367-37.964-3.53.447-8.457.447-8.457.775-16.662a90.7,90.7,0,0,0-1.26-16.186c-.037-.241-.074-.485-.117-.729-.3-1.811-.639-3.621-1.025-5.372-1.688-7.668.267-13.886,4.962-15.976,1.595-.711,6.156-1.158,8.143-1.187.535-.009,1.062-.012,1.562-.014,2.791.006,4.952.122,4.952.122l12.886,2.628c1.242.389,2.355.768,3.348,1.159.872.332,1.652.675,2.347,1.022,6.229,3.089,5.808,6.6,5.8,13.068a48.164,48.164,0,0,0,.354,5.473c.074.562.148,1.116.221,1.67C898.385,8674.842,899.408,8679.458,898.178,8681.945Z" transform="translate(-852.488 -8644.418)" fill="#b3b835"/><g transform="translate(26.882 12.214)"><path d="M879.114,8656.6a.922.922,0,1,1-.922-.922A.922.922,0,0,1,879.114,8656.6Z" transform="translate(-877.27 -8655.678)" fill="#383a01"/></g><g transform="translate(27.241 16.112)"><path d="M879.445,8660.193a.922.922,0,1,1-.922-.922A.922.922,0,0,1,879.445,8660.193Z" transform="translate(-877.601 -8659.271)" fill="#383a01"/></g><g transform="translate(12.512 0.018)"><path d="M870.742,8644.5s-6.615-.763-6.718,3.137,7.35,9.175,13.648,7.476C877.672,8655.107,870.386,8650.059,870.742,8644.5Z" transform="translate(-864.023 -8644.435)" fill="#fff"/></g><g transform="translate(28.955 2.679)"><path d="M883.074,8646.888s7.471,1.406,7.067,5.567-7.514,5.414-10.96,2.615C879.181,8655.07,882.493,8652.869,883.074,8646.888Z" transform="translate(-879.181 -8646.888)" fill="#fff"/></g><g transform="translate(19.165 0.078)"><path d="M883.843,8646.565l-.422,4.658a4.609,4.609,0,0,1-7.707,2.975c-3.282-3-6.021-6.758-5.492-9.708Z" transform="translate(-870.156 -8644.49)" fill="#ff8c62"/></g><g transform="translate(17.235 40.295)"><path d="M891.053,8685.033a.392.392,0,0,1,0,.048c-.011.13-.022.26-.035.4a22.384,22.384,0,0,1-8.948-1.806,20.736,20.736,0,0,0-13.213-.549.341.341,0,0,1-.19.012.347.347,0,0,1-.266-.237.359.359,0,0,1,.218-.458,21.146,21.146,0,0,1,13.724.564,21.32,21.32,0,0,0,9.1,1.75C891.195,8684.942,891.053,8685.033,891.053,8685.033Z" transform="translate(-868.377 -8681.564)" fill="#383a01"/></g><g transform="translate(19.328 14.344)"><path d="M882.656,8667.263c-4.311-.823-11.927-8.677-12.249-9.011a.36.36,0,0,1,.519-.5c.078.081,7.779,8.022,11.866,8.8,3.909.746,5.593-3.359,5.609-3.4a.36.36,0,1,1,.669.266C889.052,8663.469,887.145,8668.12,882.656,8667.263Z" transform="translate(-870.306 -8657.643)" fill="#383a01"/></g></g><g transform="translate(51.093 79.68)"><path d="M889.8,8695.106a.425.425,0,0,1-.421-.376c-.389-3.4-.49-9.333-.491-9.392a.423.423,0,0,1,.242-.392,12.27,12.27,0,0,0,5.566-6.051.423.423,0,0,1,.791.3,12.88,12.88,0,0,1-5.747,6.387c.025,1.186.143,6.094.482,9.048a.424.424,0,0,1-.372.47Z" transform="translate(-888.889 -8678.624)" fill="#383a01"/></g><g transform="translate(27.324)"><path d="M883.221,8613.76a8.121,8.121,0,1,1-.04-1.4A8.032,8.032,0,0,1,883.221,8613.76Z" transform="translate(-866.977 -8605.169)" fill="#1f1118"/><g transform="translate(2.309 7.039)"><path d="M883.041,8613.21a8.128,8.128,0,0,1-13.936,5.211c2.113-2.739,6.973-7.687,13.9-6.613A8.032,8.032,0,0,1,883.041,8613.21Z" transform="translate(-869.105 -8611.657)" fill="#a9ab67"/></g><g transform="translate(27.042 19.037)"><path d="M893.457,8622.719s2.091,6.406-1.36,8.836l-.191-8.763Z" transform="translate(-891.906 -8622.719)" fill="#1f1118"/></g><g transform="translate(0.107 8.037)"><path d="M891.948,8616.715s-8.022-8.107-17.751-1.619c-9.9,6.6-9.013,23.779-.231,25.975C873.966,8641.07,888.786,8628.484,891.948,8616.715Z" transform="translate(-867.075 -8612.579)" fill="#1f1118"/></g><g transform="translate(3.199 13.338)"><g transform="translate(20.662 14.945)"><path d="M889.822,8631.954s2.4-1.939,3.064.586-1.08,7.043-3.914,5.708Z" transform="translate(-888.973 -8631.242)" fill="#ff6a44"/></g><g transform="translate(0.316 20.938)"><path d="M884.614,8642.491l-.943,6.349s-4.69,4.9-13.454-3.7c2.307-1.76,3.15-5.785,2.85-8.378a12.58,12.58,0,0,1,1.751,1.344,6.65,6.65,0,0,0,.734.5C877.859,8640.144,881.391,8642.131,884.614,8642.491Z" transform="translate(-870.217 -8636.767)" fill="#ff8c62"/><g transform="translate(4.6 1.344)"><path d="M884.254,8642.387l-.447,3.01c-2.612-1.129-7.236-3.555-9.349-7.391.228.159.473.327.734.5C877.5,8640.039,881.032,8642.026,884.254,8642.387Z" transform="translate(-874.458 -8638.006)" fill="#1f1118"/></g></g><g transform="translate(3.149)"><path d="M890.3,8642.788c-5.733,5.364-17.1-4.075-17.446-4.362l-.009-.008q-.023-.776-.015-1.532a39.512,39.512,0,0,1,1.828-11.667,8.939,8.939,0,0,1,7.361-7.64c4-.648,7.042,1.637,8.939,2.643,2.863,1.521,4.025,5.818,2.973,11.424C892.64,8638.526,891.886,8641.306,890.3,8642.788Z" transform="translate(-872.829 -8617.465)" fill="#ff8c62"/></g><g transform="translate(12.594 7.416)"><path d="M885.589,8624.333s1.091.322.507,1.268-2.6-.6-4.558.967C881.537,8626.567,881.326,8623.992,885.589,8624.333Z" transform="translate(-881.535 -8624.302)" fill="#1f1118"/></g><g transform="translate(20.727 8.408)"><path d="M889.993,8625.219s-1.133-.1-.937.991,2.642.4,3.88,2.579C892.936,8628.789,894.081,8626.474,889.993,8625.219Z" transform="translate(-889.033 -8625.216)" fill="#1f1118"/></g><g transform="translate(9.991 13.829)"><path d="M883.917,8631.714c-.1.521-1.249.736-2.567.484s-2.307-.876-2.207-1.4,1.247-.734,2.566-.483S884.015,8631.2,883.917,8631.714Z" transform="translate(-879.136 -8630.215)" fill="#ff6a44"/></g><g transform="translate(21.528 16.033)" opacity="0.8"><path d="M892.565,8634.313c-.188-.019-.382-.045-.58-.083-1.317-.252-2.305-.878-2.206-1.4s1.249-.735,2.565-.484q.268.051.514.123Z" transform="translate(-889.772 -8632.246)" fill="#ff6a44"/></g><g transform="translate(3.149 18.513)"><path d="M875.725,8634.531c-.05.073-1.4,2.066-2.871,2.448h0l-.007-.009q-.023-.776-.015-1.532A5.562,5.562,0,0,0,875.725,8634.531Z" transform="translate(-872.829 -8634.531)" fill="#1f1118"/></g><g transform="translate(0 10.721)"><path d="M875.61,8629.942s-2.117-4.372-4.779-1.763c-2.194,2.149-.176,9.229,3.652,7.666Z" transform="translate(-869.926 -8627.349)" fill="#ff8c62"/></g><g transform="translate(1.814 18.017)"><path d="M873.394,8635.151a.906.906,0,1,1-.72-1.061A.906.906,0,0,1,873.394,8635.151Z" transform="translate(-871.598 -8634.074)" fill="#fff"/></g><g transform="translate(1.917 12.634)"><path d="M874.164,8634.47a.3.3,0,0,1-.242-.316,4.983,4.983,0,0,0-2.092-4.491.3.3,0,0,1,.322-.5,5.588,5.588,0,0,1,2.366,5.043.3.3,0,0,1-.321.273Z" transform="translate(-871.693 -8629.111)" fill="#1f1118"/></g><g transform="translate(1.748 14.701)"><path d="M871.78,8632.008a.3.3,0,0,1-.086-.556,2.878,2.878,0,0,1,2.182-.307.3.3,0,1,1-.254.54,2.328,2.328,0,0,0-1.646.293A.3.3,0,0,1,871.78,8632.008Z" transform="translate(-871.537 -8631.018)" fill="#1f1118"/></g><g transform="translate(14.266 11.121)"><path d="M884.562,8629.153c-.136.713-.569,1.229-.968,1.152s-.612-.715-.476-1.428.57-1.229.969-1.153S884.7,8628.44,884.562,8629.153Z" transform="translate(-883.077 -8627.718)" fill="#1f1118"/><g transform="translate(7.051 1.347)"><path d="M891.062,8630.4c-.136.713-.569,1.228-.969,1.151s-.611-.716-.475-1.428.57-1.228.969-1.152S891.2,8629.683,891.062,8630.4Z" transform="translate(-889.577 -8628.96)" fill="#1f1118"/></g><g transform="translate(0.557 6.477)"><path d="M886.836,8636.139a6.326,6.326,0,0,1-3.176-1.961.3.3,0,1,1,.459-.382c.1.125,2.521,2.968,5.063,1.282a.3.3,0,0,1,.331.5A3.514,3.514,0,0,1,886.836,8636.139Z" transform="translate(-883.591 -8633.688)" fill="#1f1118"/></g></g></g><g transform="translate(8.321 10.037)"><path d="M874.648,8621.553s3.221,4.3,5.031,3.736-.227-4.3-.227-4.3,5.181,4.236,7.593,3.65-1.054-4.041-1.054-4.041,3.661,4.768,6.218,5.016.649-3.4.649-3.4,1.449,4.881,3.037,4.787.771-6.855-3.838-9.984S874.588,8611.838,874.648,8621.553Z" transform="translate(-874.648 -8614.423)" fill="#1f1118"/></g><g transform="translate(7.163 16.296)"><path d="M878.159,8622.669s.394,8.455-2.127,8.927c-2.983.558-3.127-6.126-1.064-11.4Z" transform="translate(-873.58 -8620.191)" fill="#1f1118"/></g><g transform="translate(20.904 25.493)"><path d="M887.65,8632.53a2.891,2.891,0,0,1-1.292-.591.3.3,0,1,1,.376-.463,2.372,2.372,0,0,0,1.152.488l-.437-2.952a.3.3,0,1,1,.59-.087l.491,3.314a.3.3,0,0,1-.064.231.293.293,0,0,1-.213.11A2.66,2.66,0,0,1,887.65,8632.53Z" transform="translate(-886.247 -8628.67)" fill="#1f1118"/></g></g><g transform="translate(8.456 46.984)"><g transform="translate(47.123 57.448)"><path d="M896.294,8701.451s9.874-.271,13.211,2.316l-1.851,6.59s-5.436-1.6-6.986-1.21-2.221,3.067-7.644,2.039Z" transform="translate(-893.024 -8701.443)" fill="#ff8c62"/></g><path d="M868.066,8654.707l-.149.346-.2.488c-.135.336-.267.687-.4,1.042-.264.708-.514,1.44-.748,2.179-.472,1.479-.88,2.992-1.226,4.518a53.22,53.22,0,0,0-1.334,9.233c-.044.771-.064,1.54-.07,2.309s0,1.535.03,2.3.077,1.525.146,2.281.157,1.51.265,2.26.236,1.492.376,2.233.314,1.473.5,2.2.394,1.45.626,2.163c.112.356.235.71.359,1.065l.047.132.018.055-.023-.055a1.61,1.61,0,0,0-.089-.177.544.544,0,0,0-.092-.137c-.018-.014.029.074.141.205a5.991,5.991,0,0,0,.46.479,16.073,16.073,0,0,0,1.455,1.2,43.15,43.15,0,0,0,3.843,2.474c2.784,1.617,5.823,3.116,8.908,4.557s6.262,2.8,9.462,4.123q2.4.995,4.819,1.947l2.422.938,1.207.465,1.182.447-3.524,10.867-1.338-.392-1.3-.39q-1.3-.4-2.59-.811-2.584-.823-5.155-1.7c-3.425-1.176-6.837-2.421-10.241-3.8s-6.8-2.859-10.225-4.639a53.1,53.1,0,0,1-5.208-3.068,29.69,29.69,0,0,1-2.728-2.07c-.47-.406-.949-.852-1.443-1.369a15.142,15.142,0,0,1-1.517-1.864,12.676,12.676,0,0,1-.766-1.281c-.126-.249-.246-.5-.363-.779l-.087-.208-.04-.1-.069-.178c-.188-.474-.374-.949-.546-1.43-.354-.957-.672-1.926-.967-2.9s-.555-1.959-.8-2.947-.449-1.982-.625-2.98a58.249,58.249,0,0,1-.866-12.017,67.8,67.8,0,0,1,1.423-11.8q.625-2.895,1.493-5.742c.291-.951.6-1.9.947-2.852.174-.476.355-.954.548-1.439.1-.243.2-.489.3-.741l.165-.389.091-.206.125-.275Z" transform="translate(-849.583 -8648.483)" fill="#b3b835"/><g transform="translate(11.38 39.94)"><path d="M860.5,8689.267a.423.423,0,0,1-.24-.772,42.972,42.972,0,0,1,5.756-3.155.423.423,0,1,1,.346.772,43.181,43.181,0,0,0-5.622,3.08A.422.422,0,0,1,860.5,8689.267Z" transform="translate(-860.073 -8685.302)" fill="#383a01"/><g transform="translate(1.349 0.105)"><path d="M861.74,8686.465a.424.424,0,0,1-.041-.846c.1-.01,2.39-.233,4.16-.221a.424.424,0,0,1,.42.426.429.429,0,0,1-.427.421c-1.723-.013-4.045.215-4.069.217Z" transform="translate(-861.317 -8685.397)" fill="#383a01"/></g></g><g transform="translate(14.799 8.954)"><path d="M890.692,8702.286a.425.425,0,0,1-.178-.038c-14.678-6.837-24.179-13.257-24.6-13.859a.426.426,0,0,1-.069-.162c-.183-.94-4.474-23.143-1.666-31.2a.423.423,0,1,1,.8.277c-2.627,7.546,1.326,28.809,1.675,30.64.956.836,10.211,7.014,24.22,13.541a.422.422,0,0,1-.179.806Z" transform="translate(-863.226 -8656.737)" fill="#383a01"/><g transform="translate(0.413 1.71)"><path d="M864.03,8661.026a.417.417,0,0,1-.3-.122.423.423,0,0,1-.006-.6l1.831-1.866a.423.423,0,1,1,.6.593l-1.83,1.867A.426.426,0,0,1,864.03,8661.026Z" transform="translate(-863.607 -8658.313)" fill="#383a01"/></g></g><g transform="translate(40.064 55.097)"><path d="M886.94,8710.711a.431.431,0,0,1-.134-.022.423.423,0,0,1-.267-.536l3.557-10.588a.423.423,0,1,1,.8.27l-3.557,10.587A.424.424,0,0,1,886.94,8710.711Z" transform="translate(-886.516 -8699.274)" fill="#383a01"/><g transform="translate(1.067 8.035)"><path d="M893.745,8709.6a.4.4,0,0,1-.141-.024l-5.822-2.066a.423.423,0,0,1,.284-.8l5.821,2.067a.423.423,0,0,1-.142.821Z" transform="translate(-887.5 -8706.683)" fill="#383a01"/></g><g transform="translate(4.517 5.506)"><path d="M892.624,8705.165a.979.979,0,1,1-1.128-.8A.978.978,0,0,1,892.624,8705.165Z" transform="translate(-890.68 -8704.351)" fill="#383a01"/></g></g></g></g><g transform="translate(14.415 155.68)"><g transform="translate(0 8.841)"><rect width="43.185" height="66.913" rx="2.485" transform="translate(0 43.185) rotate(-89.939)" fill="#701118"/><g transform="translate(0.022 0.002)"><path d="M896.533,8780.1l.022-20.5a2.7,2.7,0,0,0-2.692-2.7l-61.523-.066a2.694,2.694,0,0,0-2.7,2.694l-.022,20.494Z" transform="translate(-829.62 -8756.839)" fill="#9c3d48"/></g></g><g transform="translate(24.008)"><path d="M870.726,8751.577l-.006,5.994h-3.041l.005-5.827-2.954,0h-.146l-1.794,0h-.221l-7.786-.01-.009,5.827-3.042,0,.008-6a2.875,2.875,0,0,1,2.875-2.871l7.3.006h.548l1.018,0h.213l4.162.006A2.875,2.875,0,0,1,870.726,8751.577Z" transform="translate(-851.732 -8748.688)" fill="#ff9c00"/></g><g transform="translate(12.597 28.464)"><path d="M.543,0h6.08a.54.54,0,0,1,.54.54V3.7a.54.54,0,0,1-.54.54H.54A.54.54,0,0,1,0,3.7V.543A.543.543,0,0,1,.543,0Z" transform="translate(0 7.163) rotate(-89.938)" fill="#fa8005"/><g transform="translate(0.004)"><path d="M845.463,8775.52l0,2.994-4.244-.006,0-2.992a.588.588,0,0,1,.587-.588l3.072,0A.588.588,0,0,1,845.463,8775.52Z" transform="translate(-841.216 -8774.928)" fill="#ff9c00"/></g><g transform="translate(37.509 0.039)"><path d="M.543,0h6.08a.54.54,0,0,1,.54.54V3.707a.54.54,0,0,1-.54.54H.543A.543.543,0,0,1,0,3.7V.543A.543.543,0,0,1,.543,0Z" transform="translate(0 7.163) rotate(-89.939)" fill="#fa8005"/><g transform="translate(0.004 0.001)"><path d="M880.045,8775.557l0,2.993-4.247-.006,0-2.991a.587.587,0,0,1,.586-.589l3.076,0A.587.587,0,0,1,880.045,8775.557Z" transform="translate(-875.795 -8774.964)" fill="#ff9c00"/></g></g></g></g></g></g></svg>