<svg xmlns="http://www.w3.org/2000/svg" width="145.836" height="143.47" viewBox="0 0 145.836 143.47"><g transform="translate(-325.667 -4700.856)"><g transform="translate(325.667 4700.856)"><path d="M340.2,4807.6c-17.193-20.246-11.169-50.253-.936-59.347s26.473-14.087,35.173-24.714,18.721-18.231,37.037-12.748,18.044,19.723,23.538,28.534,29.993,13.732,28.6,36.344-16.945,22.574-24.036,28.146-18.276,31.879-40.66,32.153C371.476,4836.3,354.746,4824.733,340.2,4807.6Z" transform="translate(-324.561 -4698.424)" fill="#f0f6e6"/><g transform="translate(65.312)" opacity="0.3"><path d="M392.26,4728.982h-4.217l-.979-3.406a11.329,11.329,0,0,1-2.363-.962l-3.137,1.723-2.977-2.939,1.745-3.1a10.975,10.975,0,0,1-.974-2.331l-3.45-.966v-4.168l3.45-.967a10.933,10.933,0,0,1,.974-2.329l-1.745-3.1,2.977-2.937,3.137,1.721a11.276,11.276,0,0,1,2.363-.962l.979-3.406h4.217l.978,3.406a11.22,11.22,0,0,1,2.363.962l3.137-1.721,2.977,2.938-1.745,3.1a10.936,10.936,0,0,1,.974,2.329l3.45.967V4717l-3.45.966a10.952,10.952,0,0,1-.974,2.331l1.745,3.1-2.977,2.941-3.137-1.723a11.272,11.272,0,0,1-2.363.962Zm-3.934-.379h3.649l.958-3.334.1-.029a10.872,10.872,0,0,0,2.473-1.006l.091-.052,3.073,1.688,2.573-2.539-1.709-3.033.055-.093a10.592,10.592,0,0,0,1.019-2.44l.029-.1,3.379-.946v-3.6l-3.379-.945-.029-.1a10.6,10.6,0,0,0-1.019-2.439l-.055-.093,1.709-3.033-2.573-2.539-3.073,1.688-.091-.052a10.875,10.875,0,0,0-2.473-1.007l-.1-.028-.958-3.335h-3.649l-.958,3.335-.1.028a10.874,10.874,0,0,0-2.473,1.007l-.091.052-3.073-1.687-2.573,2.539,1.709,3.033-.053.093a10.549,10.549,0,0,0-1.02,2.439l-.029.1-3.379.945v3.6l3.379.946.029.1a10.538,10.538,0,0,0,1.02,2.44l.053.093-1.709,3.033,2.573,2.539,3.073-1.687.091.052a10.872,10.872,0,0,0,2.473,1.006l.1.029Zm1.825-6.246a7.44,7.44,0,1,1,7.532-7.438A7.494,7.494,0,0,1,390.152,4722.357Zm0-14.5a7.062,7.062,0,1,0,7.155,7.062A7.117,7.117,0,0,0,390.152,4707.857Z" transform="translate(-375.908 -4700.855)" fill="#a3c08c"/></g><g transform="translate(126.754 63.868)" opacity="0.3"><path d="M434.163,4768.829h-2.9l-.655-2.277a7.561,7.561,0,0,1-1.521-.62l-2.1,1.152-2.049-2.023,1.167-2.072a7.317,7.317,0,0,1-.627-1.5l-2.307-.646v-2.869l2.307-.647a7.34,7.34,0,0,1,.627-1.5l-1.167-2.072,2.049-2.023,2.1,1.151a7.651,7.651,0,0,1,1.521-.62l.655-2.277h2.9l.655,2.277a7.589,7.589,0,0,1,1.521.62l2.1-1.151,2.05,2.023-1.169,2.072a7.337,7.337,0,0,1,.627,1.5l2.309.647v2.869l-2.309.646a7.314,7.314,0,0,1-.627,1.5l1.169,2.072-2.05,2.023-2.1-1.152a7.561,7.561,0,0,1-1.521.62Zm-2.617-.377h2.333l.634-2.208.1-.027a7.2,7.2,0,0,0,1.63-.665l.091-.052,2.034,1.118,1.644-1.624-1.131-2.007.053-.093a7.018,7.018,0,0,0,.673-1.608l.029-.1,2.236-.625v-2.3l-2.236-.625-.029-.1a7.078,7.078,0,0,0-.673-1.61l-.053-.092,1.131-2.007-1.644-1.624-2.033,1.118-.092-.052a7.241,7.241,0,0,0-1.63-.664l-.1-.027-.634-2.209h-2.333l-.634,2.209-.1.027a7.227,7.227,0,0,0-1.631.664l-.091.052-2.034-1.118-1.644,1.624,1.132,2.007-.055.092a7.023,7.023,0,0,0-.672,1.61l-.029.1-2.236.625v2.3l2.236.625.029.1a6.945,6.945,0,0,0,.672,1.608l.055.093-1.132,2.007,1.644,1.624,2.034-1.118.091.052a7.184,7.184,0,0,0,1.631.665l.1.027Zm1.167-4.031a5.013,5.013,0,1,1,5.075-5.013A5.051,5.051,0,0,1,432.713,4764.42Zm0-9.648a4.636,4.636,0,1,0,4.7,4.636A4.674,4.674,0,0,0,432.713,4754.772Z" transform="translate(-423.173 -4749.987)" fill="#a3c08c"/></g><g transform="translate(0 69.774)" opacity="0.3"><path d="M349.163,4795.028h-5.971l-1.41-4.907a16.209,16.209,0,0,1-3.485-1.42l-4.52,2.482-4.214-4.16,2.514-4.464a15.739,15.739,0,0,1-1.436-3.437l-4.972-1.392v-5.9l4.972-1.391a15.785,15.785,0,0,1,1.436-3.438l-2.514-4.464,4.214-4.16,4.52,2.482a16.159,16.159,0,0,1,3.485-1.419l1.41-4.908h5.971l1.41,4.908a16.235,16.235,0,0,1,3.485,1.419l4.52-2.482,4.214,4.16L360.279,4767a15.782,15.782,0,0,1,1.436,3.438l4.972,1.391v5.9l-4.972,1.392a15.8,15.8,0,0,1-1.436,3.437l2.514,4.464-4.214,4.16-4.52-2.482a16.234,16.234,0,0,1-3.485,1.42Zm-5.687-.377h5.4l1.391-4.837.1-.028a15.87,15.87,0,0,0,3.594-1.464l.091-.052,4.458,2.448,3.81-3.761-2.479-4.4.053-.093a15.376,15.376,0,0,0,1.483-3.546l.029-.1,4.9-1.372v-5.328l-4.9-1.372-.029-.1a15.36,15.36,0,0,0-1.483-3.548l-.053-.093,2.479-4.4-3.81-3.76-4.458,2.448-.091-.052a15.871,15.871,0,0,0-3.594-1.463l-.1-.027-1.391-4.839h-5.4l-1.39,4.839-.1.027a15.861,15.861,0,0,0-3.593,1.463l-.092.052-4.456-2.448-3.81,3.76,2.479,4.4-.053.093a15.359,15.359,0,0,0-1.483,3.548l-.029.1-4.9,1.372v5.328l4.9,1.372.029.1a15.375,15.375,0,0,0,1.483,3.546l.053.093-2.479,4.4,3.81,3.761,4.456-2.448.092.052a15.885,15.885,0,0,0,3.593,1.464l.1.028Zm2.7-9.2a10.673,10.673,0,1,1,10.808-10.671A10.753,10.753,0,0,1,346.177,4785.451Zm0-20.967a10.3,10.3,0,1,0,10.431,10.3A10.375,10.375,0,0,0,346.177,4764.484Z" transform="translate(-325.667 -4754.53)" fill="#a3c08c"/></g><g transform="translate(1.726 60.381)"><g transform="translate(62.627 64.609)"><path d="M379.06,4804.532h0a7.145,7.145,0,0,1,3.834-3.741l.055-.022-.233-.1a7.149,7.149,0,0,1-3.624-3.586l-.031-.073-.181.354a7.144,7.144,0,0,1-3.212,3.163l-.5.246.03.013a7.164,7.164,0,0,1,3.754,3.529Z" transform="translate(-375.171 -4797.005)" fill="#6d8a42"/><path d="M382.373,4805.438h0a3.588,3.588,0,0,1,1.917-1.871l.027-.01-.117-.053a3.573,3.573,0,0,1-1.811-1.793l-.017-.037-.09.179a3.577,3.577,0,0,1-1.605,1.58l-.248.124.014,0a3.589,3.589,0,0,1,1.877,1.766Z" transform="translate(-373.593 -4795.604)" fill="#a3c08c"/></g><path d="M331.6,4752.931h0a5.341,5.341,0,0,0-2.868-2.8l-.039-.017.173-.078a5.343,5.343,0,0,0,2.709-2.682l.025-.055.134.265a5.334,5.334,0,0,0,2.4,2.365l.37.185-.022.009a5.363,5.363,0,0,0-2.807,2.639Z" transform="translate(-326.486 -4747.304)" fill="#a3c08c"/><path d="M328.45,4753.609h0a2.681,2.681,0,0,0-1.434-1.4l-.021-.007.087-.039a2.661,2.661,0,0,0,1.355-1.342l.013-.026.066.133a2.677,2.677,0,0,0,1.2,1.182l.186.092-.012,0a2.67,2.67,0,0,0-1.4,1.32Z" transform="translate(-326.995 -4746.257)" fill="#6d8a42"/></g></g><g transform="translate(330.75 4704.392)"><rect width="40.852" height="44.404" transform="translate(6.755 20.742) rotate(-7.352)" fill="#f0f6e6"/><rect width="40.852" height="9.677" transform="matrix(0.992, -0.128, 0.128, 0.992, 5.517, 11.145)" fill="#a3c08c"/><rect width="5.562" height="44.404" transform="translate(1.238 21.453) rotate(-7.352)" fill="#b1d489"/><rect width="5.562" height="9.677" transform="translate(0 11.856) rotate(-7.352)" fill="#98c148"/><rect width="6.243" height="8.477" transform="translate(9.886 23.49) rotate(-7.352)" fill="#fefffd"/><rect width="6.243" height="8.477" transform="translate(17.235 22.542) rotate(-7.352)" fill="#fefffd"/><rect width="6.243" height="8.477" transform="matrix(0.992, -0.128, 0.128, 0.992, 24.584, 21.594)" fill="#fefffd"/><rect width="6.243" height="8.477" transform="matrix(0.992, -0.128, 0.128, 0.992, 31.933, 20.646)" fill="#fefffd"/><rect width="6.243" height="8.477" transform="matrix(0.992, -0.128, 0.128, 0.992, 39.281, 19.698)" fill="#fefffd"/><rect width="6.243" height="8.477" transform="translate(11.113 32.996) rotate(-7.352)" fill="#fefffd"/><rect width="6.243" height="8.477" transform="translate(18.462 32.047) rotate(-7.352)" fill="#fefffd"/><rect width="6.243" height="8.477" transform="translate(25.81 31.099) rotate(-7.352)" fill="#fefffd"/><rect width="6.243" height="8.477" transform="translate(33.159 30.151) rotate(-7.352)" fill="#fefffd"/><rect width="6.243" height="8.477" transform="matrix(0.992, -0.128, 0.128, 0.992, 40.508, 29.203)" fill="#fefffd"/><rect width="6.243" height="8.477" transform="translate(12.339 42.5) rotate(-7.352)" fill="#fefffd"/><rect width="6.243" height="8.477" transform="matrix(0.992, -0.128, 0.128, 0.992, 19.688, 41.552)" fill="#fefffd"/><rect width="6.243" height="8.477" transform="translate(27.037 40.604) rotate(-7.351)" fill="#fefffd"/><rect width="6.243" height="8.477" transform="translate(34.385 39.656) rotate(-7.352)" fill="#fefffd"/><rect width="6.243" height="8.477" transform="matrix(0.992, -0.128, 0.128, 0.992, 41.734, 38.708)" fill="#fefffd"/><rect width="6.243" height="8.477" transform="translate(13.566 52.006) rotate(-7.352)" fill="#fefffd"/><rect width="6.243" height="8.477" transform="matrix(0.992, -0.128, 0.128, 0.992, 20.914, 51.057)" fill="#fefffd"/><rect width="6.243" height="8.477" transform="translate(28.263 50.109) rotate(-7.352)" fill="#fefffd"/><rect width="6.243" height="8.477" transform="translate(35.612 49.161) rotate(-7.351)" fill="#fefffd"/><rect width="6.243" height="8.477" transform="matrix(0.992, -0.128, 0.128, 0.992, 42.96, 48.213)" fill="#fefffd"/><path d="M337.989,4719.23a.759.759,0,0,1-.1-1.512,2.367,2.367,0,0,0,2.041-2.646l-.607-4.7a2.364,2.364,0,0,0-2.644-2.041l-1.9.244a2.366,2.366,0,0,0-2.041,2.646l.352,2.726a.76.76,0,1,1-1.507.2l-.352-2.726a3.885,3.885,0,0,1,3.353-4.346l1.9-.245a3.885,3.885,0,0,1,4.346,3.352l.607,4.7a3.885,3.885,0,0,1-3.353,4.346A.671.671,0,0,1,337.989,4719.23Z" transform="translate(-329.088 -4702.609)" fill="#6d8a42"/><path d="M342.148,4718.7a.76.76,0,0,1-.1-1.514,2.363,2.363,0,0,0,2.04-2.646l-.606-4.7a2.363,2.363,0,0,0-2.645-2.04l-1.9.245a2.365,2.365,0,0,0-2.04,2.646l.351,2.726a.76.76,0,1,1-1.507.194l-.351-2.726a3.885,3.885,0,0,1,3.353-4.346l1.9-.244a3.884,3.884,0,0,1,4.346,3.352l.606,4.7a3.885,3.885,0,0,1-3.353,4.345A.728.728,0,0,1,342.148,4718.7Z" transform="translate(-327.841 -4702.771)" fill="#6d8a42"/><path d="M346.306,4718.158a.76.76,0,0,1-.1-1.514,2.365,2.365,0,0,0,2.041-2.645l-.607-4.7A2.364,2.364,0,0,0,345,4707.26l-1.9.244a2.366,2.366,0,0,0-2.041,2.646l.352,2.727a.76.76,0,0,1-1.507.2l-.352-2.727a3.888,3.888,0,0,1,3.353-4.347l1.9-.244a3.879,3.879,0,0,1,4.346,3.353l.607,4.7a3.881,3.881,0,0,1-3.353,4.346A.839.839,0,0,1,346.306,4718.158Z" transform="translate(-326.593 -4702.932)" fill="#6d8a42"/><path d="M350.465,4717.621a.759.759,0,0,1-.1-1.512,2.364,2.364,0,0,0,2.04-2.645l-.606-4.7a2.36,2.36,0,0,0-2.644-2.04l-1.9.245a2.36,2.36,0,0,0-2.041,2.644l.352,2.728a.76.76,0,0,1-1.508.194l-.351-2.726a3.88,3.88,0,0,1,3.353-4.346l1.9-.245a3.881,3.881,0,0,1,4.346,3.353l.606,4.7a3.884,3.884,0,0,1-3.351,4.346A.684.684,0,0,1,350.465,4717.621Z" transform="translate(-325.346 -4703.092)" fill="#6d8a42"/><path d="M354.624,4717.084a.76.76,0,0,1-.1-1.513,2.36,2.36,0,0,0,2.04-2.644l-.606-4.7a2.365,2.365,0,0,0-2.645-2.041l-1.9.245a2.365,2.365,0,0,0-2.041,2.646l.352,2.726a.76.76,0,0,1-1.507.195l-.352-2.727a3.887,3.887,0,0,1,3.353-4.346l1.9-.245a3.882,3.882,0,0,1,4.346,3.353l.606,4.7a3.879,3.879,0,0,1-3.353,4.345A.817.817,0,0,1,354.624,4717.084Z" transform="translate(-324.099 -4703.254)" fill="#6d8a42"/><path d="M358.782,4716.548a.759.759,0,0,1-.1-1.512,2.366,2.366,0,0,0,2.041-2.646l-.607-4.7a2.361,2.361,0,0,0-2.644-2.04l-1.9.245a2.36,2.36,0,0,0-2.041,2.644l.352,2.728a.76.76,0,0,1-1.507.194l-.352-2.727a3.879,3.879,0,0,1,3.353-4.345l1.9-.245a3.88,3.88,0,0,1,4.346,3.352l.607,4.7a3.882,3.882,0,0,1-3.353,4.345A.623.623,0,0,1,358.782,4716.548Z" transform="translate(-322.851 -4703.415)" fill="#6d8a42"/><path d="M362.941,4716.011a.759.759,0,0,1-.1-1.512,2.364,2.364,0,0,0,2.04-2.646l-.606-4.7a2.363,2.363,0,0,0-2.645-2.042l-1.9.245A2.364,2.364,0,0,0,357.7,4708l.351,2.726a.76.76,0,0,1-1.507.195l-.351-2.728a3.881,3.881,0,0,1,3.353-4.345l1.9-.245a3.887,3.887,0,0,1,4.346,3.353l.606,4.7a3.886,3.886,0,0,1-3.353,4.346A.815.815,0,0,1,362.941,4716.011Z" transform="translate(-321.604 -4703.576)" fill="#6d8a42"/></g><g transform="translate(345.863 4722.596)"><circle cx="49.521" cy="49.521" r="49.521" fill="#6d8a42"/><circle cx="49.521" cy="49.521" r="49.521" transform="translate(2.33)" fill="#a3c08c"/><g transform="translate(6.668 4.339)"><path d="M399.235,4790.55c8.937-3.6,17.048-9.6,22.309-17.676,6.111-9.377,7.956-20.748,7.42-32.059a45.187,45.187,0,0,0-76.528,47.974C366.938,4795.646,384.32,4796.567,399.235,4790.55Z" transform="translate(-346.332 -4720.917)" fill="#fff"/><path d="M427.556,4736.224c.536,11.311-1.309,22.682-7.42,32.058-5.261,8.073-13.371,14.071-22.309,17.676-14.916,6.018-32.3,5.1-46.8-1.76a45.186,45.186,0,1,0,76.528-47.974Z" transform="translate(-344.923 -4716.325)" fill="#f0f6e6"/></g><path d="M385.614,4760.5l-21.257-18.949,22.243,17.781Z" transform="translate(-334.257 -4710.391)" fill="#6d8a42"/><path d="M382.13,4755.261l9.81,36.013-11.5-34.941Z" transform="translate(-329.433 -4706.276)" fill="#6d8a42"/><circle cx="3.348" cy="3.348" r="3.348" transform="translate(48.503 46.173)" fill="#fc804b"/><g transform="translate(5.936 3.607)"><path d="M381.257,4731.423a.732.732,0,0,1-.732-.733v-9.6a.733.733,0,0,1,1.465,0v9.6A.733.733,0,0,1,381.257,4731.423Z" transform="translate(-335.343 -4720.354)" fill="#6d8a42"/><path d="M381.257,4793.547a.732.732,0,0,1-.732-.732v-9.605a.733.733,0,0,1,1.465,0v9.605A.733.733,0,0,1,381.257,4793.547Z" transform="translate(-335.343 -4701.719)" fill="#6d8a42"/><path d="M418.23,4756.575h-9.605a.733.733,0,0,1,0-1.465h9.605a.733.733,0,0,1,0,1.465Z" transform="translate(-327.134 -4709.928)" fill="#6d8a42"/><path d="M356.105,4756.575h-9.6a.733.733,0,0,1,0-1.465h9.6a.733.733,0,1,1,0,1.465Z" transform="translate(-345.769 -4709.928)" fill="#6d8a42"/></g><g transform="translate(12.981 10.651)"><path d="M360.026,4743.087a.719.719,0,0,1-.391-.114l-8.108-5.149a.732.732,0,0,1,.785-1.236l8.108,5.15a.732.732,0,0,1-.394,1.35Z" transform="translate(-351.188 -4722.563)" fill="#6d8a42"/><path d="M412.464,4776.4a.739.739,0,0,1-.393-.114l-8.107-5.15a.732.732,0,0,1,.785-1.236l8.107,5.15a.732.732,0,0,1-.393,1.351Z" transform="translate(-335.459 -4712.571)" fill="#6d8a42"/><path d="M395.932,4735.345a.719.719,0,0,1-.391-.115.731.731,0,0,1-.226-1.01l5.15-8.108a.732.732,0,0,1,1.236.785l-5.15,8.108A.732.732,0,0,1,395.932,4735.345Z" transform="translate(-337.986 -4725.773)" fill="#6d8a42"/><path d="M362.62,4787.783a.733.733,0,0,1-.617-1.126l5.15-8.106a.732.732,0,1,1,1.235.785l-5.149,8.106A.734.734,0,0,1,362.62,4787.783Z" transform="translate(-347.978 -4710.043)" fill="#6d8a42"/></g><g transform="translate(12.981 10.651)"><path d="M404.359,4743.087a.732.732,0,0,1-.394-1.35l8.107-5.15a.732.732,0,1,1,.785,1.236l-8.107,5.149A.722.722,0,0,1,404.359,4743.087Z" transform="translate(-335.459 -4722.563)" fill="#6d8a42"/><path d="M351.921,4776.4a.733.733,0,0,1-.394-1.351l8.108-5.15a.732.732,0,0,1,.785,1.236l-8.108,5.15A.731.731,0,0,1,351.921,4776.4Z" transform="translate(-351.188 -4712.571)" fill="#6d8a42"/><path d="M367.772,4735.345a.731.731,0,0,1-.619-.339L362,4726.9a.732.732,0,0,1,1.236-.785l5.149,8.108a.73.73,0,0,1-.225,1.01A.723.723,0,0,1,367.772,4735.345Z" transform="translate(-347.978 -4725.773)" fill="#6d8a42"/><path d="M401.084,4787.783a.733.733,0,0,1-.619-.341l-5.15-8.106a.732.732,0,0,1,1.236-.785l5.15,8.106a.734.734,0,0,1-.617,1.126Z" transform="translate(-337.986 -4710.043)" fill="#6d8a42"/></g></g><g transform="translate(329.137 4797.045)"><rect width="46.632" height="25.63" transform="translate(0 16.525) rotate(-20.755)" fill="#f6aa73"/><path d="M354.68,4795.1l-26.344-3.721,27.417,6.553,16.189-23.077Z" transform="translate(-328.336 -4774.85)" fill="#fc804b"/></g><g transform="translate(407.976 4779.25)"><rect width="41.769" height="53.879" transform="translate(12.378 2.863) rotate(13.282)" fill="#6d8a42"/><rect width="41.769" height="53.879" transform="translate(13.132 3.042) rotate(13.282)" fill="#b1d489"/><rect width="34.929" height="45.529" transform="translate(15.264 8.897) rotate(13.282)" fill="#fff"/><path d="M4.4,0H15.377a4.4,4.4,0,0,1,4.4,4.4v1.32a0,0,0,0,1,0,0H0a0,0,0,0,1,0,0V4.4A4.4,4.4,0,0,1,4.4,0Z" transform="matrix(0.973, 0.23, -0.23, 0.973, 25.148, 0)" fill="#6d8a42"/><g transform="translate(16.094 12.941)"><circle cx="3.358" cy="3.358" r="3.358" transform="translate(0 1.389) rotate(-11.937)" fill="#eef4e5"/><path d="M404.761,4776.148a.605.605,0,0,1-.138-.018.6.6,0,0,1-.374-.27l-1.4-2.27a.6.6,0,1,1,1.027-.635l1.085,1.757,3.523-2.177a.6.6,0,1,1,.634,1.025l-4.036,2.5A.6.6,0,0,1,404.761,4776.148Z" transform="translate(-400.946 -4770.717)" fill="#fc804b"/><g transform="translate(8.955 2.764)"><path d="M428.1,4778.815a.683.683,0,0,1-.139-.015l-18.5-4.368a.6.6,0,1,1,.277-1.174l18.5,4.366a.6.6,0,0,1-.138,1.19Z" transform="translate(-408.03 -4773.242)" fill="#b1d489"/><path d="M427.73,4780.388a.55.55,0,0,1-.139-.017l-18.5-4.366a.6.6,0,0,1,.277-1.175l18.5,4.368a.6.6,0,0,1-.138,1.19Z" transform="translate(-408.141 -4772.771)" fill="#b1d489"/><path d="M427.359,4781.958a.651.651,0,0,1-.139-.015l-18.5-4.368a.6.6,0,0,1,.277-1.174l18.5,4.368a.6.6,0,0,1-.138,1.189Z" transform="translate(-408.253 -4772.299)" fill="#b1d489"/></g></g><g transform="translate(14.259 23.967)"><path d="M406.579,4783.728a3.358,3.358,0,1,1-2.5-4.039A3.359,3.359,0,0,1,406.579,4783.728Z" transform="translate(-399.952 -4779.598)" fill="#eef4e5"/><path d="M402.872,4784.152a.564.564,0,0,1-.139-.017.608.608,0,0,1-.374-.269l-1.4-2.271a.6.6,0,1,1,1.026-.635l1.087,1.757,3.523-2.177a.6.6,0,1,1,.634,1.026l-4.036,2.495A.6.6,0,0,1,402.872,4784.152Z" transform="translate(-399.678 -4779.342)" fill="#fc804b"/><g transform="translate(8.334 2.143)"><path d="M426.21,4786.82a.631.631,0,0,1-.138-.016l-18.5-4.368a.6.6,0,0,1,.277-1.174l18.5,4.369a.6.6,0,0,1-.139,1.189Z" transform="translate(-406.141 -4781.246)" fill="#b1d489"/><path d="M425.839,4788.392a.554.554,0,0,1-.138-.017l-18.5-4.366a.6.6,0,1,1,.277-1.174l18.5,4.366a.6.6,0,0,1-.139,1.19Z" transform="translate(-406.252 -4780.775)" fill="#b1d489"/><path d="M425.468,4789.964a.555.555,0,0,1-.138-.017l-18.5-4.366a.6.6,0,0,1,.277-1.176l18.5,4.368a.6.6,0,0,1-.139,1.191Z" transform="translate(-406.363 -4780.304)" fill="#b1d489"/></g></g><g transform="translate(11.804 34.373)"><circle cx="3.358" cy="3.358" r="3.358" fill="#eef4e5"/><path d="M400.983,4792.156a.633.633,0,0,1-.139-.015.61.61,0,0,1-.374-.271l-1.4-2.271a.6.6,0,0,1,1.027-.634l1.086,1.758,3.523-2.178a.6.6,0,0,1,.634,1.027l-4.036,2.495A.608.608,0,0,1,400.983,4792.156Z" transform="translate(-397.789 -4787.347)" fill="#fc804b"/><g transform="translate(8.333 2.142)"><path d="M424.322,4794.825a.55.55,0,0,1-.139-.017l-18.5-4.368a.6.6,0,1,1,.277-1.173l18.5,4.368a.6.6,0,0,1-.138,1.19Z" transform="translate(-404.251 -4789.25)" fill="#b1d489"/><path d="M423.951,4796.4a.683.683,0,0,1-.139-.015l-18.5-4.368a.6.6,0,1,1,.277-1.174l18.5,4.366a.6.6,0,0,1-.138,1.19Z" transform="translate(-404.362 -4788.779)" fill="#b1d489"/><path d="M423.58,4797.968a.622.622,0,0,1-.139-.016l-18.5-4.368a.6.6,0,1,1,.277-1.174l18.5,4.367a.6.6,0,0,1-.138,1.19Z" transform="translate(-404.473 -4788.308)" fill="#b1d489"/></g></g><path d="M0,0H28.7a0,0,0,0,1,0,0V.725a2.417,2.417,0,0,1-2.417,2.417H2.417A2.417,2.417,0,0,1,0,.725V0A0,0,0,0,1,0,0Z" transform="translate(19.493 4.544) rotate(13.282)" fill="#b1d489" style="mix-blend-mode:multiply;isolation:isolate"/><g transform="translate(9.423 44.796)"><circle cx="3.358" cy="3.358" r="3.358" fill="#eef4e5"/><path d="M399.152,4800.174a.634.634,0,0,1-.139-.016.608.608,0,0,1-.374-.27l-1.4-2.271a.6.6,0,1,1,1.026-.633l1.085,1.757,3.524-2.179a.6.6,0,0,1,.633,1.027l-4.035,2.494A.612.612,0,0,1,399.152,4800.174Z" transform="translate(-395.958 -4795.365)" fill="#fc804b"/><g transform="translate(8.333 2.142)"><path d="M422.491,4802.843a.624.624,0,0,1-.139-.017l-18.5-4.367a.6.6,0,0,1,.277-1.175l18.5,4.368a.6.6,0,0,1-.138,1.19Z" transform="translate(-402.42 -4797.268)" fill="#b1d489"/><path d="M422.12,4804.414a.651.651,0,0,1-.139-.015l-18.5-4.368a.6.6,0,0,1,.277-1.174l18.5,4.368a.6.6,0,0,1-.138,1.189Z" transform="translate(-402.531 -4796.797)" fill="#b1d489"/><path d="M421.749,4805.986a.653.653,0,0,1-.139-.016l-18.5-4.368a.6.6,0,0,1,.277-1.174l18.5,4.367a.6.6,0,0,1-.138,1.191Z" transform="translate(-402.642 -4796.326)" fill="#b1d489"/></g></g></g></g></svg>