<svg xmlns="http://www.w3.org/2000/svg" width="48.931" height="48.931" viewBox="0 0 48.931 48.931"><g transform="translate(-1658.842 -993.95)" opacity="0.995"><rect width="48.931" height="48.931" transform="translate(1658.842 993.95)" fill="none"/><path d="M1683.307,1038.734a4.5,4.5,0,1,1,4.5-4.5A4.508,4.508,0,0,1,1683.307,1038.734Zm0-7.762a3.259,3.259,0,1,0,3.259,3.259A3.263,3.263,0,0,0,1683.307,1030.972Z" fill="#529ad9"/><path d="M1677.888,1036.072a.621.621,0,0,1-.446-.188l-3.2-3.3a4.286,4.286,0,0,1-1.178-3.6l.5-4.593a.623.623,0,0,1,.721-.547l3.207.535a.621.621,0,0,1,.516.684l-.3,2.611a.689.689,0,0,1-.014.079,1.261,1.261,0,0,0,.364.947,20.531,20.531,0,0,0,1.412,1.519.622.622,0,1,1-.86.9,21.193,21.193,0,0,1-1.512-1.626,2.44,2.44,0,0,1-.623-1.994l.227-1.989-1.974-.329-.428,3.957a3.058,3.058,0,0,0,.836,2.585l3.2,3.294a.623.623,0,0,1-.447,1.056Z" fill="#529ad9"/><path d="M1676.943,1025.542a.624.624,0,0,1-.611-.742l.327-1.672a.41.41,0,0,0,0-.261c-.021-.024-.164-.15-.85-.11-.31.016-.553.747-.618,1.862a.622.622,0,1,1-1.242-.073c.114-1.955.718-2.976,1.8-3.032a2.309,2.309,0,0,1,1.855.538,1.478,1.478,0,0,1,.283,1.315l-.328,1.672A.623.623,0,0,1,1676.943,1025.542Z" fill="#529ad9"/><path d="M1688.726,1036.072a.622.622,0,0,1-.446-1.056l3.2-3.294a3.048,3.048,0,0,0,.837-2.565l-.429-3.977-1.974.329.226,1.989a2.437,2.437,0,0,1-.623,1.994,21.193,21.193,0,0,1-1.512,1.626.622.622,0,0,1-.86-.9,20.369,20.369,0,0,0,1.413-1.519,1.269,1.269,0,0,0,.364-.947.531.531,0,0,1-.015-.079l-.3-2.611a.623.623,0,0,1,.516-.684l3.207-.535a.621.621,0,0,1,.721.547l.5,4.613a4.27,4.27,0,0,1-1.18,3.585l-3.2,3.3A.622.622,0,0,1,1688.726,1036.072Z" fill="#529ad9"/><path d="M1689.671,1025.542a.623.623,0,0,1-.61-.5l-.328-1.672a1.478,1.478,0,0,1,.283-1.315,2.311,2.311,0,0,1,1.856-.538c1.076.056,1.68,1.077,1.8,3.032a.623.623,0,0,1-1.243.073c-.065-1.115-.308-1.846-.618-1.862-.687-.04-.829.086-.85.11a.418.418,0,0,0,0,.261l.327,1.671a.621.621,0,0,1-.49.731A.633.633,0,0,1,1689.671,1025.542Z" fill="#529ad9"/><path d="M1699.937,1009.767a4.527,4.527,0,0,1-1.173-.155,4.481,4.481,0,1,1,1.173.155Zm-.013-7.765a3.265,3.265,0,1,0,.849.112A3.289,3.289,0,0,0,1699.924,1002Z" fill="#529ad9"/><path d="M1696.032,1018.679a.611.611,0,0,1-.241-.049.622.622,0,0,1-.342-.355l-1.14-3.044a.621.621,0,0,1,.334-.789l2.409-1.049c.025-.01.05-.019.076-.027a1.264,1.264,0,0,0,.638-.788,20.746,20.746,0,0,0,.61-1.983.622.622,0,1,1,1.208.3,21.187,21.187,0,0,1-.652,2.122,2.439,2.439,0,0,1-1.415,1.537l-1.836.8.7,1.874,3.641-1.608a3.059,3.059,0,0,0,1.82-2.016l1.252-4.421a.622.622,0,1,1,1.2.339l-1.251,4.421a4.285,4.285,0,0,1-2.534,2.823l-4.225,1.867A.624.624,0,0,1,1696.032,1018.679Z" fill="#529ad9"/><path d="M1694.049,1018.86a1.5,1.5,0,0,1-1.351-.688,2.31,2.31,0,0,1-.462-1.876,1.477,1.477,0,0,1,1-.9l1.612-.553a.623.623,0,1,1,.4,1.178l-1.611.552c-.149.051-.217.107-.225.131s-.046.216.329.792c.169.261.924.106,1.922-.4a.623.623,0,0,1,.558,1.113A5.11,5.11,0,0,1,1694.049,1018.86Z" fill="#529ad9"/><path d="M1688.967,1005.373a.623.623,0,0,1-.481-.227l-2.066-2.51a.623.623,0,0,1,.113-.9l3.745-2.738a4.28,4.28,0,0,1,3.7-.77l4.454,1.127a.622.622,0,0,1-.3,1.207l-4.454-1.127a3.045,3.045,0,0,0-2.64.556l-3.229,2.361,1.272,1.545,1.609-1.19a2.434,2.434,0,0,1,2.038-.458,21.118,21.118,0,0,1,2.164.5.622.622,0,0,1-.348,1.2,20.474,20.474,0,0,0-2.023-.464,1.266,1.266,0,0,0-1,.158.608.608,0,0,1-.062.052l-2.112,1.563A.622.622,0,0,1,1688.967,1005.373Z" fill="#529ad9"/><path d="M1686.768,1006.431a1.258,1.258,0,0,1-.241-.023c-.789-.153-1.228-1.014-1.393-1.338-.49-.961.092-1.994,1.729-3.071a.622.622,0,0,1,.684,1.039c-.933.615-1.445,1.19-1.3,1.467.312.613.489.675.521.681a.431.431,0,0,0,.226-.129l1.284-1.12a.622.622,0,0,1,.818.938l-1.284,1.12A1.569,1.569,0,0,1,1686.768,1006.431Z" fill="#529ad9"/><path d="M1666.677,1009.767a4.473,4.473,0,0,1-2.244-.605h0a4.5,4.5,0,1,1,3.417.45A4.527,4.527,0,0,1,1666.677,1009.767Zm.013-7.765a3.29,3.29,0,0,0-.849.112,3.259,3.259,0,0,0-.786,5.97h0a3.259,3.259,0,1,0,1.635-6.082Z" fill="#529ad9"/><path d="M1677.647,1005.373a.621.621,0,0,1-.37-.122l-2.112-1.563a.6.6,0,0,1-.061-.051,1.264,1.264,0,0,0-1-.159,20.416,20.416,0,0,0-2.022.464.622.622,0,0,1-.349-1.2,21.192,21.192,0,0,1,2.164-.5,2.441,2.441,0,0,1,2.038.458l1.61,1.19,1.271-1.545-3.213-2.349a3.058,3.058,0,0,0-2.655-.568l-4.455,1.127a.622.622,0,0,1-.3-1.207l4.454-1.127a4.283,4.283,0,0,1,3.712.783l3.729,2.725a.623.623,0,0,1,.113.9l-2.066,2.51A.623.623,0,0,1,1677.647,1005.373Z" fill="#529ad9"/><path d="M1679.846,1006.431a1.567,1.567,0,0,1-1.039-.436l-1.285-1.12a.622.622,0,0,1,.818-.938l1.284,1.12c.119.1.2.135.226.129s.209-.068.522-.681c.141-.277-.371-.852-1.3-1.467a.622.622,0,0,1,.685-1.039c1.636,1.077,2.218,2.11,1.729,3.071-.166.324-.6,1.185-1.394,1.338A1.258,1.258,0,0,1,1679.846,1006.431Z" fill="#529ad9"/><path d="M1670.582,1018.679a.627.627,0,0,1-.251-.053l-4.244-1.875a4.269,4.269,0,0,1-2.514-2.815l-1.252-4.421a.622.622,0,1,1,1.2-.339l1.252,4.421a3.047,3.047,0,0,0,1.8,2.008l3.659,1.616.7-1.874-1.836-.8a2.441,2.441,0,0,1-1.415-1.537,21.187,21.187,0,0,1-.652-2.122.622.622,0,0,1,1.209-.3,20.268,20.268,0,0,0,.609,1.983,1.264,1.264,0,0,0,.638.788c.026.008.051.017.076.027l2.409,1.049a.622.622,0,0,1,.335.789l-1.141,3.044a.623.623,0,0,1-.583.4Z" fill="#529ad9"/><path d="M1672.565,1018.86a5.11,5.11,0,0,1-2.173-.649.623.623,0,0,1,.558-1.113c1,.5,1.753.657,1.922.4.375-.576.34-.761.329-.792s-.076-.08-.224-.131l-1.612-.552a.622.622,0,0,1,.4-1.178l1.612.553a1.475,1.475,0,0,1,1,.9,2.309,2.309,0,0,1-.462,1.876A1.5,1.5,0,0,1,1672.565,1018.86Z" fill="#529ad9"/><path d="M1692.8,1027.735a.623.623,0,0,1-.39-1.108,14.488,14.488,0,0,0,5.341-9.482.622.622,0,0,1,1.234.16,15.73,15.73,0,0,1-5.8,10.293A.62.62,0,0,1,1692.8,1027.735Z" fill="#529ad9"/><path d="M1678.033,1001.627a.622.622,0,0,1-.216-1.206,15.95,15.95,0,0,1,10.842-.05.622.622,0,1,1-.421,1.171,14.706,14.706,0,0,0-9.989.046A.606.606,0,0,1,1678.033,1001.627Z" fill="#529ad9"/><path d="M1673.644,1027.6a.618.618,0,0,1-.4-.142,15.761,15.761,0,0,1-5.6-10.016.622.622,0,1,1,1.232-.171,14.517,14.517,0,0,0,5.164,9.227.622.622,0,0,1-.4,1.1Z" fill="#529ad9"/></g></svg>