<svg xmlns="http://www.w3.org/2000/svg" width="106.584" height="106.587" viewBox="0 0 106.584 106.587"><g transform="translate(-245.9 -8620.442)"><path d="M299.192,8620.442q2.619,0,5.224.257t5.173.768q2.568.51,5.073,1.271t4.924,1.762q2.418,1,4.728,2.235t4.486,2.688q2.177,1.455,4.2,3.116t3.875,3.513q1.851,1.852,3.512,3.875t3.115,4.2q1.455,2.177,2.689,4.486t2.236,4.728q1,2.418,1.762,4.923t1.271,5.073q.51,2.569.767,5.173t.257,5.225q0,2.618-.257,5.224t-.767,5.174q-.51,2.568-1.271,5.072t-1.762,4.924q-1,2.42-2.236,4.729t-2.689,4.485q-1.455,2.177-3.115,4.2t-3.512,3.875q-1.851,1.852-3.875,3.512t-4.2,3.116q-2.176,1.456-4.486,2.689t-4.728,2.235q-2.418,1-4.924,1.763a52.261,52.261,0,0,1-5.073,1.271q-2.566.513-5.173.769t-5.224.257q-2.619,0-5.224-.257T288.8,8726q-2.568-.51-5.073-1.271t-4.924-1.763q-2.418-1-4.728-2.235t-4.486-2.689q-2.177-1.453-4.2-3.116t-3.875-3.512q-1.85-1.853-3.512-3.875t-3.115-4.2q-1.455-2.177-2.688-4.485t-2.237-4.729q-1-2.418-1.762-4.924t-1.271-5.072q-.51-2.568-.767-5.174t-.257-5.224q0-2.618.257-5.225t.767-5.173q.51-2.566,1.271-5.073t1.762-4.923q1-2.42,2.237-4.728t2.688-4.486q1.455-2.177,3.115-4.2t3.512-3.875q1.852-1.852,3.875-3.513t4.2-3.116q2.176-1.453,4.486-2.688t4.728-2.235q2.418-1,4.924-1.762a51.842,51.842,0,0,1,5.073-1.271q2.566-.513,5.173-.768T299.192,8620.442Z" fill="#a0a603"/><circle cx="50.059" cy="50.059" r="50.059" transform="translate(249.133 8623.676)" fill="#fff"/><path d="M299.192,8628.2a45.538,45.538,0,1,1-45.538,45.538,45.538,45.538,0,0,1,45.538-45.538Z" fill="#aaaf31"/><path d="M316.571,8699.56h-1.782v-26.716h-7.124v26.716h-1.781v-28.5H298.76v28.5h-1.781v-17.811h-7.124v17.811h-2.7a4.4,4.4,0,0,0,.914-2.672v-8.9a2.632,2.632,0,0,1-.891-3.562v-3.112a15.179,15.179,0,0,0,10.828-10.019l5.2-5.2,4.452,4.452,10.687-10.686,3.265,3.266,2.27-13.623-13.622,2.27,3.265,3.267-5.865,5.865-4.452-4.453-5.268,5.268a15.031,15.031,0,0,0-4.3-6.414,7.972,7.972,0,0,0,1.55-4.719v-.89h-4.452a8,8,0,0,0-6.351,3.144,8.02,8.02,0,0,0-7.9-6.706h-4.452v.89a8.01,8.01,0,0,0,3.642,6.709,15.12,15.12,0,0,0,4.372,27.581v3.112a2.633,2.633,0,0,1-.89,3.563v8.9a4.458,4.458,0,0,0,4.452,4.453H323.7V8665.72h-7.124Zm-7.125-24.935h3.562v24.935h-3.562Zm-8.905-1.781H304.1v26.716h-3.562Zm-8.9,10.687H295.2v16.029h-3.562Zm11.577-24.565,4.452,4.452,8.384-8.383-2.078-2.078,7.749-1.291-1.291,7.749-2.077-2.077-10.687,10.687-4.452-4.453-4.529,4.528c.049-.489.076-.985.076-1.487a15.308,15.308,0,0,0-.3-2.9Zm-12.467-7.493h2.608a6.244,6.244,0,0,1-6.171,5.344h-2.608A6.244,6.244,0,0,1,290.746,8651.472Zm2.671,15.14a9.742,9.742,0,0,1-.68,3.562h-3.3l-1.781-2.672h-3.148V8658.6h2.671a7.944,7.944,0,0,0,1.75-.2A9.71,9.71,0,0,1,293.417,8666.611Zm-10.686-8.906v9.8h-1.367l-1.781,2.672h-2.64l-1.438,1.916a9.787,9.787,0,0,1,7.226-15.229Zm-4.9,14.249h2.7l1.781-2.672h4.39l1.781,2.672h3.333a9.775,9.775,0,0,1-15.15,1.55Zm-3.944-24.044H276.5a6.244,6.244,0,0,1,6.171,5.343h-2.609A6.244,6.244,0,0,1,273.889,8647.91Zm-3.625,18.7a13.416,13.416,0,0,1,7.392-11.947,7.949,7.949,0,0,0,2.4.37h2.672v.045a11.573,11.573,0,1,0,8.215,2.575,8.09,8.09,0,0,0,1.5-1.043,13.349,13.349,0,1,1-22.182,10Zm13.357,15.138a15.091,15.091,0,0,0,1.781-.114v2.786a.891.891,0,0,1-.89.891h-1.781a.892.892,0,0,1-.891-.891v-2.786A15.1,15.1,0,0,0,283.621,8681.749Zm-2.671,15.139v-8.9a.892.892,0,0,1,.89-.891H285.4a.892.892,0,0,1,.891.891v8.9a2.671,2.671,0,1,1-5.343,0Zm37.4-29.387h3.562v32.059h-3.562Z" fill="#fff"/></g></svg>