<svg xmlns="http://www.w3.org/2000/svg" width="367.088" height="301.773" viewBox="0 0 367.088 301.773"><g transform="translate(-1315.108 -851.338)"><g transform="translate(1476.123 851.338)"><g transform="translate(0 100.726)"><path d="M1499.031,987.11l-56.238,32.469-56.238-32.469,56.238-32.469Z" transform="translate(-1386.555 -822.56)" fill="#939598"/><path d="M1416.236,1060.584l-8.5-4.906V896.033l8.5,4.906Z" transform="translate(-1359.998 -896.033)" fill="#6d6e71"/><path d="M1420.007,1055.678l-8.5,4.906V900.939l8.5-4.906Z" transform="translate(-1355.272 -896.033)" fill="#a7a9ac"/><path d="M1442.793,1001.518v4.028l-56.238-32.469v-4.028Z" transform="translate(-1386.555 -804.499)" fill="#6d6e71"/><path d="M1442.793,984.382l-40.669,8.989-15.569-8.989,47.741-27.563v22.657Z" transform="translate(-1386.555 -819.831)" fill="#6d6e71" opacity="0.5"/><path d="M1467.748,969.049v4.028l-56.238,32.469v-4.028Z" transform="translate(-1355.272 -804.499)" fill="#a7a9ac"/></g><g transform="translate(46.625)"><path d="M1483.671,986.752l-10.2,5.89v-97.18l10.2-5.89Z" transform="translate(-1324.222 -803.407)" fill="#fa1016"/><g transform="translate(0 5.885)"><path d="M1556.491,1037.3l-149.247-86.168V853.95l149.247,86.169Z" transform="translate(-1407.244 -853.95)" fill="#fff"/><path d="M1466.109,932.581c-.383-1.145-.108-2.231.615-2.409l13.382-3.34c.723-.18.6-.92-.261-1.643l-1.451-1.212a3.033,3.033,0,0,1-1.109-2.833l2.578-8.386a1.622,1.622,0,0,0-1.106-2l-8.081-2.493c-.865-.266-1.582-.5-1.591-.523s-.052-.9-.09-1.943l-.081-2.184c-.038-1.048-.527-1.517-1.086-1.041L1463,906.666c-.559.473-.913.09-.787-.852l.167-1.26c.126-.942.3-2.262.39-2.936s.266-1.995.392-2.936l.68-5.109c.126-.944-.315-1.474-.98-1.176l-1.194.527c-.665.3-1.221.53-1.239.521s-.248-.622-.518-1.363-.83-2.283-1.247-3.428l-3.211-8.83c-.415-1.145-1.1-1.539-1.514-.874l-3.209,5.12-1.2,1.909c-.241.385-1.007-.151-1.7-1.19l-1.246-1.864c-.7-1.041-1.167-1.005-1.052.079l.647,6.015c.117,1.084.277,2.567.356,3.3s.239,2.215.354,3.3l.111,1.03c.117,1.084-.243,1.055-.8-.063l-4.554-9.125c-.559-1.12-1.048-1.215-1.086-.214l-.081,2.091c-.039,1-.079,1.83-.09,1.839s-.728-.584-1.594-1.314l-8.079-6.84c-.865-.732-1.363-.408-1.106.721l2.576,11.365c.257,1.129-.241,1.825-1.109,1.55l-1.449-.462c-.868-.277-.987.327-.266,1.343l13.314,18.746a3.443,3.443,0,0,1,.613,3.121l-.1.187a1.473,1.473,0,0,0,.906,1.988l7.732,3.428a2.814,2.814,0,0,1,1.519,2.522l-.913,19.931a2.939,2.939,0,0,0,1.093,2.493l2.351,1.357c.647.374,1.138-.18,1.093-1.231l-.915-20.986c-.045-1.05.638-1.395,1.521-.768l7.732,5.5c.881.629,1.289.205.906-.942Z" transform="translate(-1380.111 -823.015)" fill="#fa1016"/><path d="M1447.21,974.2l-39.966-23.074V853.95l39.966,23.074Z" transform="translate(-1407.244 -853.95)" fill="#fa1016"/><path d="M1495.7,1002.2l-39.966-23.074v-97.18l39.966,23.074Z" transform="translate(-1346.454 -818.852)" fill="#fa1016"/></g><path d="M1556.491,943.4l-149.247-86.168,10.2-5.89,149.247,86.168Z" transform="translate(-1407.244 -851.338)" fill="#fff"/><path d="M1447.21,880.3l-39.966-23.074,10.2-5.89,39.966,23.074Z" transform="translate(-1407.244 -851.338)" fill="#fa1016"/><path d="M1495.7,908.3l-39.965-23.074,10.2-5.89,39.965,23.074Z" transform="translate(-1346.454 -816.241)" fill="#fa1016"/></g></g><g transform="translate(1315.108 851.753)"><g transform="translate(0 100.311)"><path d="M1427.584,987.11l-56.238,32.469-56.238-32.469,56.238-32.469Z" transform="translate(-1315.108 -822.56)" fill="#939598"/><path d="M1344.789,1060.584l-8.5-4.906V896.033l8.5,4.906Z" transform="translate(-1288.551 -896.033)" fill="#6d6e71"/><path d="M1348.56,1055.678l-8.5,4.906V900.939l8.5-4.906Z" transform="translate(-1283.824 -896.033)" fill="#a7a9ac"/><path d="M1371.346,1001.518v4.028l-56.238-32.469v-4.028Z" transform="translate(-1315.108 -804.499)" fill="#6d6e71"/><path d="M1371.346,984.382l-40.669,8.989-15.569-8.989,47.741-27.563v22.657Z" transform="translate(-1315.108 -819.831)" fill="#6d6e71" opacity="0.5"/><path d="M1396.3,969.049v4.028l-56.238,32.469v-4.028Z" transform="translate(-1283.824 -804.499)" fill="#a7a9ac"/></g><g transform="translate(47.741)"><g transform="translate(0 5.546)"><path d="M1484.573,962.95l-74.14-42.8-74.14-42.8v10.487l148.281,85.61Z" transform="translate(-1336.292 -824.702)" fill="#fff"/><path d="M1369.19,897.514l74.14,42.8V929.832l-74.14-42.8Z" transform="translate(-1295.05 -812.558)" fill="#fff"/><path d="M1369.19,888.319l74.14,42.805V920.435l-74.14-42.805Z" transform="translate(-1295.05 -824.339)" fill="#fff"/><path d="M1484.573,972.257l-148.281-85.61V897.43l148.281,85.61Z" transform="translate(-1336.292 -813.034)" fill="#fff"/><path d="M1369.19,883.464l74.14,42.805V915.781l-74.14-42.805Z" transform="translate(-1295.05 -830.172)" fill="#ed1c24"/><path d="M1369.19,892.861l74.14,42.8V925.178l-74.14-42.805Z" transform="translate(-1295.05 -818.392)" fill="#ed1c24"/><path d="M1369.19,902.168l74.14,42.8V934.485l-74.14-42.8Z" transform="translate(-1295.05 -806.725)" fill="#ed1c24"/><path d="M1484.573,967.6l-148.281-85.61v10.487l148.281,85.61Z" transform="translate(-1336.292 -818.868)" fill="#ed1c24"/><path d="M1336.292,891.432v10.488l148.281,85.61V977.042Z" transform="translate(-1336.292 -807.036)" fill="#ed1c24"/><path d="M1410.432,938.938V896.786h0l-74.14-42.8h0v52.638l74.14,42.805Zm-60.625-56.913,1.129.462.507-.89.5,1.474,1.129.841-.818.448.194,1.411-1.01-1.2-1.012.029.194-1.188Zm-9.01-22.18,1.131.462.5-.89.5,1.474,1.129.843-.818.448.194,1.409-1.01-1.194-1.012.029.194-1.188Zm64.735,39.594-1.01-1.2-1.012.029.194-1.188-.818-1.39,1.129.462.507-.89.5,1.474,1.129.841-.818.448Zm-8.836-5.1-1.012-1.2-1.01.029.194-1.188-.818-1.391,1.129.462.5-.89.5,1.474,1.131.841-.818.448Zm-1.068,4.282.5,1.474,1.129.84-.818.449.194,1.411-1.01-1.2-1.012.029.194-1.188-.818-1.391,1.131.462Zm9.961,26.318-1.01-1.2-1.01.032.191-1.188-.816-1.393,1.129.462.5-.89.5,1.474,1.129.843-.816.448Zm-8.836-5.1-1.01-1.2-1.01.031.191-1.188-.818-1.393,1.131.462.5-.89.5,1.474,1.129.843-.816.448Zm-8.837-5.1-1.01-1.2-1.012.029.194-1.188-.818-1.393,1.129.464.507-.892.5,1.474,1.129.843-.818.449Zm-8.836-5.1-1.012-1.2-1.01.029.194-1.188-.818-1.393,1.129.464.5-.89.507,1.472,1.129.843-.818.448Zm-8.839-5.1-1.01-1.2-1.01.029.192-1.188-.816-1.393,1.129.464.5-.89.5,1.472,1.129.843-.816.449Zm-8.836-5.1-1.01-1.2-1.01.029.192-1.188-.818-1.393,1.131.464.505-.89.5,1.474,1.129.841-.816.448Zm-8.836-5.1-1.01-1.2-1.012.029.194-1.188-.818-1.39,1.129.462.507-.89.5,1.474,1.129.841-.818.448Zm8.665-3.486-1.012-1.2-1.01.029.194-1.188-.818-1.391,1.129.462.5-.89.5,1.474,1.131.841-.818.448Zm8.837,5.1-1.012-1.2-1.01.029.194-1.188-.818-1.391,1.129.462.5-.89.507,1.474,1.129.841-.818.448Zm8.836,5.1-1.01-1.2-1.012.029.194-1.188-.818-1.391,1.132.462.5-.89.5,1.474,1.129.841-.818.449Zm8.836,5.1-1.01-1.2-1.01.029.192-1.188-.816-1.393,1.129.464.5-.89.5,1.474,1.129.841-.816.448Zm8.839,5.1-1.012-1.2-1.01.029.194-1.188-.818-1.393,1.129.464.5-.89.5,1.472,1.132.843-.818.449Zm-8.724-22.013-1.01-1.2-1.01.029.192-1.188-.816-1.391,1.129.462.5-.89.5,1.474,1.129.841-.816.449Zm-1.066,4.282.5,1.474,1.129.841-.818.448.194,1.411-1.01-1.2-1.012.029.194-1.188-.818-1.39,1.129.462Zm-7.771-9.384-1.01-1.2-1.012.029.194-1.188-.818-1.391,1.131.462.5-.89.5,1.474,1.129.841-.816.448Zm-1.068,4.282.5,1.474,1.132.841-.818.448.194,1.411-1.012-1.2-1.01.029.194-1.187-.818-1.391,1.129.462Zm-7.768-9.384-1.01-1.2-1.012.032.194-1.188-.818-1.393,1.129.462.507-.89.5,1.474,1.129.843-.818.446Zm-1.068,4.282.5,1.474,1.129.841-.816.448.192,1.411-1.01-1.2-1.01.029.191-1.188-.816-1.391,1.129.462Zm-7.768-9.384-1.012-1.2-1.01.031.194-1.188-.818-1.393,1.129.462.5-.89.5,1.474,1.131.843-.818.446Zm-1.068,4.282.5,1.474,1.129.841-.818.448.194,1.411-1.01-1.2-1.012.031.194-1.19-.818-1.391,1.131.462Zm-8-9.517-1.01-1.2-1.01.031.191-1.188-.816-1.393,1.129.462.5-.89.5,1.474,1.129.843-.816.448Zm-.78,4.449.5,1.474,1.129.841-.816.449.192,1.411-1.01-1.2-1.01.029.191-1.188-.816-1.391,1.129.462Zm-7.768,16.082-1.012-1.2-1.01.029.194-1.188-.818-1.391,1.129.462.5-.89.507,1.474,1.129.841-.818.448Zm61.686,27.127-1.012-1.2-1.01.029.194-1.188-.818-1.393,1.129.464.5-.89.507,1.472,1.129.843-.818.448Zm-.448-11.156,1.129.841-.816.448.191,1.411-1.01-1.2-1.01.029.191-1.188-.816-1.393,1.129.464.5-.89Zm-62.306-37.156.5,1.474,1.129.841-.816.448.192,1.411-1.01-1.2-1.01.029.191-1.188-.818-1.391,1.132.462Zm-1.692,8.884,1.129.462.5-.89.5,1.474,1.131.841-.818.448.194,1.411-1.012-1.2-1.01.029.194-1.188Zm2.587,20.688-1.01-1.2-1.012.032.194-1.188-.818-1.393,1.131.462.5-.89.5,1.474,1.129.843-.816.446Zm8.836,5.1-1.01-1.2-1.01.031.191-1.188-.816-1.393,1.129.462.5-.89.5,1.474,1.129.841-.816.448Zm8.78,5.068-1.01-1.2-1.012.032.194-1.188-.818-1.393,1.131.462.5-.89.5,1.474,1.129.843-.818.448Zm8.837,5.1-1.01-1.2-1.01.031.191-1.188-.816-1.393,1.129.462.5-.89.5,1.474,1.129.843-.816.446Zm8.839,5.1-1.012-1.2-1.01.032.194-1.188-.818-1.393,1.129.462.5-.89.5,1.474,1.131.843-.818.446Zm8.836,5.1-1.012-1.2-1.01.029.194-1.185-.818-1.393,1.129.462.5-.89.507,1.474,1.129.841-.818.448Zm8.836,5.1-1.01-1.2-1.012.029.194-1.188-.818-1.391,1.131.462.5-.89.5,1.474,1.129.841-.818.448Zm8.836,5.1-1.01-1.2-1.01.029.192-1.188-.816-1.391,1.129.462.5-.89.5,1.474,1.129.841-.816.449ZM1343.5,906.067l-1.012-1.2-1.01.029.194-1.188-.818-1.391,1.129.462.5-.89.5,1.474,1.131.841-.818.449Zm8.836,5.1-1.012-1.2-1.01.029.194-1.188-.818-1.391,1.129.462.5-.89.507,1.474,1.129.841-.818.448Zm8.78,5.068-1.012-1.2-1.01.032.191-1.188-.816-1.393,1.129.462.5-.89.5,1.474,1.131.841-.818.449Zm8.837,5.1-1.012-1.2-1.01.029.194-1.188-.818-1.391,1.129.462.5-.89.507,1.474,1.129.841-.818.448Zm8.836,5.1-1.01-1.2-1.012.029.194-1.188-.818-1.391,1.129.462.507-.89.5,1.474,1.129.841-.818.448Zm8.836,5.1-1.01-1.2-1.01.029.191-1.188-.816-1.391,1.129.462.5-.89.5,1.474,1.129.841-.816.448Zm8.836,5.1-1.01-1.2-1.01.029.192-1.188-.816-1.391,1.129.462.5-.89.5,1.474,1.132.841-.818.448Zm8.839,5.1-1.012-1.2-1.01.029.194-1.187-.818-1.391,1.129.462.5-.89.507,1.474,1.129.841-.818.448Z" transform="translate(-1336.292 -853.983)" fill="#1c75bc"/><path d="M1339.926,859.372l1.01,1.2-.193-1.41.818-.448-1.13-.842-.505-1.474-.505.89-1.13-.463.817,1.392-.193,1.188Z" transform="translate(-1333.786 -850.96)" fill="#fff"/><path d="M1344.353,860.132l-.5-1.474-.505.89-1.13-.463.817,1.392-.193,1.188,1.01-.03,1.01,1.2-.193-1.41.817-.448Z" transform="translate(-1328.87 -848.122)" fill="#fff"/><path d="M1348.376,862.455l-.505-1.474-.505.89-1.129-.463.817,1.392-.193,1.188,1.01-.03,1.01,1.2-.193-1.41.817-.448Z" transform="translate(-1323.826 -845.21)" fill="#fff"/><path d="M1352.3,864.719l-.505-1.474-.505.89-1.13-.463.818,1.392-.193,1.188,1.01-.03,1.01,1.2-.193-1.41.817-.448Z" transform="translate(-1318.91 -842.372)" fill="#fff"/><path d="M1356.218,866.983l-.505-1.474-.505.89-1.129-.463.817,1.392-.193,1.188,1.01-.03,1.01,1.2-.193-1.411.817-.448Z" transform="translate(-1313.995 -839.534)" fill="#fff"/><path d="M1360.14,869.247l-.505-1.474-.505.89L1358,868.2l.817,1.392-.193,1.188,1.01-.03,1.01,1.2-.193-1.41.817-.448Z" transform="translate(-1309.079 -836.695)" fill="#fff"/><path d="M1364.061,871.511l-.5-1.474-.505.891-1.13-.463.817,1.392-.193,1.188,1.01-.03,1.01,1.2-.193-1.411.817-.448Z" transform="translate(-1304.163 -833.857)" fill="#fff"/><path d="M1367.982,873.775l-.505-1.474-.505.89-1.129-.463.817,1.392-.193,1.188,1.01-.03,1.01,1.2-.193-1.41.818-.448Z" transform="translate(-1299.247 -831.019)" fill="#fff"/><path d="M1338.393,860.648l.818,1.392-.193,1.188,1.01-.03,1.01,1.2-.193-1.41.817-.448-1.13-.842-.505-1.474-.505.891Z" transform="translate(-1333.658 -846.164)" fill="#fff"/><path d="M1342.315,862.912l.817,1.392-.193,1.188,1.01-.03,1.01,1.2-.193-1.41.817-.448-1.13-.842-.5-1.474-.505.89Z" transform="translate(-1328.742 -843.326)" fill="#fff"/><path d="M1346.211,865.161l.817,1.392-.193,1.188,1.01-.03,1.01,1.2-.193-1.41.817-.448-1.129-.842-.505-1.474-.505.891Z" transform="translate(-1323.858 -840.507)" fill="#fff"/><path d="M1350.132,867.425l.818,1.392-.193,1.188,1.01-.03,1.01,1.2-.193-1.41.817-.448-1.13-.842-.505-1.474-.505.89Z" transform="translate(-1318.943 -837.668)" fill="#fff"/><path d="M1354.053,869.689l.817,1.392-.193,1.188,1.01-.03,1.01,1.2-.193-1.41.817-.448-1.129-.842-.505-1.474-.505.89Z" transform="translate(-1314.027 -834.83)" fill="#fff"/><path d="M1357.974,871.953l.817,1.392-.193,1.188,1.01-.03,1.01,1.2-.193-1.411.817-.448-1.13-.842-.5-1.474-.505.89Z" transform="translate(-1309.111 -831.992)" fill="#fff"/><path d="M1361.9,874.217l.817,1.392-.193,1.188,1.01-.03,1.01,1.2-.193-1.41.817-.448-1.13-.842-.505-1.474-.505.89Z" transform="translate(-1304.195 -829.154)" fill="#fff"/><path d="M1366.946,876.943l-1.13-.463.817,1.392-.193,1.187,1.01-.03,1.01,1.2-.193-1.41.818-.448-1.13-.842-.5-1.474Z" transform="translate(-1299.279 -826.316)" fill="#fff"/><path d="M1338.993,866.979l1.01-.03,1.01,1.2-.193-1.411.818-.448-1.13-.842-.505-1.474-.505.89-1.13-.463.817,1.392Z" transform="translate(-1333.69 -841.461)" fill="#fff"/><path d="M1342.913,869.243l1.01-.03,1.01,1.2-.193-1.411.817-.448-1.13-.842-.505-1.474-.505.891-1.129-.463.817,1.392Z" transform="translate(-1328.774 -838.623)" fill="#fff"/><path d="M1349.455,870.8l-1.13-.842-.505-1.474-.505.89-1.13-.463L1347,870.3l-.193,1.188,1.01-.03,1.01,1.2-.193-1.41Z" transform="translate(-1323.89 -835.803)" fill="#fff"/><path d="M1353.376,873.064l-1.129-.842-.505-1.474-.505.89-1.13-.463.817,1.392-.193,1.188,1.01-.03,1.01,1.2-.193-1.41Z" transform="translate(-1318.974 -832.965)" fill="#fff"/><path d="M1357.3,875.328l-1.13-.842-.505-1.473-.505.89-1.129-.463.817,1.392-.193,1.188,1.01-.03,1.01,1.2-.193-1.411Z" transform="translate(-1314.059 -830.127)" fill="#fff"/><path d="M1361.218,877.592l-1.13-.842-.505-1.474-.505.89-1.13-.463.817,1.392-.193,1.188,1.01-.03,1.01,1.2-.193-1.411Z" transform="translate(-1309.143 -827.289)" fill="#fff"/><path d="M1365.14,879.856l-1.13-.842-.505-1.474-.505.89-1.13-.463.817,1.392-.193,1.188,1.01-.03,1.01,1.2-.193-1.411Z" transform="translate(-1304.227 -824.451)" fill="#fff"/><path d="M1369.061,882.12l-1.13-.842-.505-1.474-.505.89-1.129-.462.817,1.392-.193,1.188,1.01-.03,1.01,1.2-.193-1.41Z" transform="translate(-1299.311 -821.612)" fill="#fff"/><path d="M1340.559,869.242l-.5-1.474-.505.89-1.13-.463.818,1.392-.193,1.188,1.01-.03,1.01,1.2-.193-1.411.817-.448Z" transform="translate(-1333.626 -836.702)" fill="#fff"/><path d="M1344.48,871.506l-.505-1.474-.505.89-1.129-.463.817,1.392-.193,1.188,1.01-.03,1.01,1.2-.193-1.411.817-.448Z" transform="translate(-1328.71 -833.864)" fill="#fff"/><path d="M1348.4,873.769l-.505-1.474-.505.89-1.13-.463.817,1.392-.193,1.188,1.01-.03,1.01,1.2-.193-1.41.817-.448Z" transform="translate(-1323.794 -831.026)" fill="#fff"/><path d="M1352.323,876.033l-.505-1.473-.5.89-1.13-.463.817,1.392-.193,1.188,1.01-.03,1.01,1.2-.193-1.41.817-.448Z" transform="translate(-1318.878 -828.188)" fill="#fff"/><path d="M1356.244,878.3l-.505-1.474-.505.89-1.13-.463.818,1.392-.193,1.188,1.01-.03,1.01,1.2-.193-1.411.817-.448Z" transform="translate(-1313.963 -825.35)" fill="#fff"/><path d="M1360.165,880.561l-.5-1.474-.505.89-1.13-.463.817,1.392-.193,1.188,1.01-.03,1.01,1.2-.193-1.411.817-.448Z" transform="translate(-1309.047 -822.511)" fill="#fff"/><path d="M1364.087,882.825l-.505-1.474-.505.89-1.13-.463.817,1.392-.193,1.188,1.01-.03,1.01,1.2-.193-1.41.817-.448Z" transform="translate(-1304.131 -819.673)" fill="#fff"/><path d="M1368.007,885.089l-.5-1.474-.505.89-1.13-.463.817,1.392-.193,1.188,1.01-.03,1.01,1.2-.193-1.41.817-.448Z" transform="translate(-1299.215 -816.835)" fill="#fff"/><path d="M1340.482,872.964l-.505-1.474-.505.89-1.13-.463.817,1.392-.193,1.188,1.01-.03,1.01,1.2-.193-1.41.817-.448Z" transform="translate(-1333.722 -832.036)" fill="#fff"/><path d="M1344.4,875.228l-.5-1.474-.505.89-1.13-.463.817,1.392-.193,1.188,1.01-.03,1.01,1.2-.193-1.41.818-.448Z" transform="translate(-1328.806 -829.197)" fill="#fff"/><path d="M1348.3,877.477l-.505-1.474-.505.89-1.13-.463.817,1.392-.193,1.188,1.01-.03,1.01,1.2-.193-1.411.817-.448Z" transform="translate(-1323.922 -826.378)" fill="#fff"/><path d="M1352.221,879.741l-.505-1.474-.505.89-1.129-.463.817,1.392-.193,1.188,1.01-.03,1.01,1.2-.193-1.41.817-.448Z" transform="translate(-1319.007 -823.54)" fill="#fff"/><path d="M1356.142,882l-.505-1.474-.505.89-1.13-.463.817,1.392-.193,1.188,1.01-.03,1.01,1.2-.193-1.41.817-.448Z" transform="translate(-1314.091 -820.702)" fill="#fff"/><path d="M1360.063,884.269l-.505-1.474-.5.89-1.13-.463.817,1.392-.193,1.188,1.01-.03,1.01,1.2-.193-1.41.817-.448Z" transform="translate(-1309.175 -817.864)" fill="#fff"/><path d="M1363.984,886.533l-.505-1.474-.505.89-1.13-.463.818,1.392-.193,1.188,1.01-.03,1.01,1.2-.193-1.41.817-.448Z" transform="translate(-1304.259 -815.025)" fill="#fff"/><path d="M1367.905,888.8l-.505-1.474-.5.89-1.129-.463.817,1.392-.193,1.188,1.01-.03,1.01,1.2-.193-1.41.817-.448Z" transform="translate(-1299.343 -812.187)" fill="#fff"/><path d="M1340.457,876.716l-.5-1.474-.505.89-1.13-.463.817,1.392-.193,1.188,1.01-.03,1.01,1.2-.193-1.411.817-.448Z" transform="translate(-1333.754 -827.332)" fill="#fff"/><path d="M1344.378,878.98l-.505-1.474-.505.89-1.129-.463.817,1.392-.193,1.188,1.01-.03,1.01,1.2-.193-1.41.817-.448Z" transform="translate(-1328.838 -824.494)" fill="#fff"/><path d="M1348.274,881.229l-.505-1.474-.5.891-1.13-.463.817,1.392-.193,1.188,1.01-.03,1.01,1.2-.193-1.41.817-.448Z" transform="translate(-1323.954 -821.674)" fill="#fff"/><path d="M1352.2,883.493l-.505-1.474-.505.89-1.13-.463.817,1.392-.193,1.188,1.01-.03,1.01,1.2-.193-1.41.818-.448Z" transform="translate(-1319.038 -818.836)" fill="#fff"/><path d="M1356.116,885.757l-.505-1.474-.505.89-1.129-.463.817,1.392-.193,1.188,1.01-.03,1.01,1.2-.193-1.41.818-.448Z" transform="translate(-1314.123 -815.998)" fill="#fff"/><path d="M1360.038,888.021l-.505-1.474-.505.89-1.13-.463.818,1.392-.193,1.188,1.01-.03,1.01,1.2-.193-1.41.817-.448Z" transform="translate(-1309.207 -813.16)" fill="#fff"/><path d="M1363.959,890.284l-.505-1.473-.5.89-1.13-.463.818,1.392-.193,1.188,1.01-.03,1.01,1.2-.193-1.411.817-.448Z" transform="translate(-1304.291 -810.322)" fill="#fff"/><path d="M1367.88,892.548l-.505-1.474-.505.89-1.13-.463.817,1.392-.193,1.188,1.01-.03,1.01,1.2-.193-1.41.817-.448Z" transform="translate(-1299.375 -807.484)" fill="#fff"/></g><g transform="translate(148.28 85.585)"><path d="M1402.089,937.144v.194l9.6-5.542V931.6Z" transform="translate(-1402.089 -836.717)" fill="#fff"/><path d="M1411.688,894.152l-9.6,5.542v10.689l9.6-5.542Z" transform="translate(-1402.089 -883.665)" fill="#fff"/><path d="M1411.688,903.549l-9.6,5.542v10.488l9.6-5.543Z" transform="translate(-1402.089 -871.885)" fill="#fff"/><path d="M1411.688,912.856l-9.6,5.542v10.487l9.6-5.542Z" transform="translate(-1402.089 -860.217)" fill="#fff"/><path d="M1411.688,922.163l-9.6,5.542v10.782l9.6-5.542Z" transform="translate(-1402.089 -848.549)" fill="#fff"/><path d="M1411.688,889.5l-9.6,5.542v10.487l9.6-5.542Z" transform="translate(-1402.089 -889.499)" fill="#ed1c24"/><path d="M1411.688,898.9l-9.6,5.542v10.487l9.6-5.542Z" transform="translate(-1402.089 -877.719)" fill="#ed1c24"/><path d="M1411.688,908.2l-9.6,5.543v10.487l9.6-5.542Z" transform="translate(-1402.089 -866.051)" fill="#ed1c24"/><path d="M1411.688,917.51l-9.6,5.542v10.488l9.6-5.542Z" transform="translate(-1402.089 -854.383)" fill="#ed1c24"/><path d="M1411.688,926.948l-9.6,5.542v10.488l9.6-5.542Z" transform="translate(-1402.089 -842.552)" fill="#ed1c24"/></g><g transform="translate(0)"><path d="M1378.79,870.516l-9.6,5.542,74.14,42.8,9.6-5.542Z" transform="translate(-1295.051 -827.711)" fill="#ed1c24"/><path d="M1345.892,851.522l-9.6,5.542,74.14,42.805,9.6-5.542Z" transform="translate(-1336.292 -851.522)" fill="#1c75bc"/></g></g></g></g></svg>