<svg xmlns="http://www.w3.org/2000/svg" width="101.838" height="149.253" viewBox="0 0 101.838 149.253"><g transform="translate(0 49.681)"><path d="M1370.813,970.722,1342.96,986.8l-27.853-16.081,27.853-16.081Z" transform="translate(-1315.108 -889.226)" fill="#939598"/><path d="M1340.5,977.53l-4.208-2.43V896.033l4.208,2.43Z" transform="translate(-1312.647 -896.033)" fill="#6d6e71"/><path d="M1344.271,975.1l-4.208,2.43V898.463l4.208-2.43Z" transform="translate(-1312.21 -896.033)" fill="#a7a9ac"/><path d="M1342.961,985.13v1.995l-27.853-16.081v-1.995Z" transform="translate(-1315.108 -887.552)" fill="#6d6e71"/><path d="M1342.961,970.47l-20.142,4.452-7.711-4.452,23.645-13.651V968.04Z" transform="translate(-1315.108 -888.973)" fill="#6d6e71" opacity="0.5"/><path d="M1367.915,969.049v1.995l-27.853,16.081V985.13Z" transform="translate(-1312.209 -887.552)" fill="#a7a9ac"/></g><g transform="translate(23.645)"><g transform="translate(0 2.747)"><path d="M1409.731,919.74l-36.719-21.2-36.719-21.2v5.194l73.439,42.4Z" transform="translate(-1336.292 -851.27)" fill="#fff"/><path d="M1369.19,892.221l36.719,21.2v-5.194l-36.719-21.2Z" transform="translate(-1332.471 -850.145)" fill="#fff"/><path d="M1369.19,882.924l36.719,21.2V898.83l-36.719-21.2Z" transform="translate(-1332.471 -851.237)" fill="#fff"/><path d="M1409.731,929.047l-73.439-42.4v5.34l73.439,42.4Z" transform="translate(-1336.292 -850.189)" fill="#fff"/><path d="M1369.19,878.171l36.719,21.2v-5.194l-36.719-21.2Z" transform="translate(-1332.471 -851.777)" fill="#ed1c24"/><path d="M1369.19,887.567l36.719,21.2v-5.194l-36.719-21.2Z" transform="translate(-1332.471 -850.685)" fill="#ed1c24"/><path d="M1369.19,896.875l36.719,21.2V912.88l-36.719-21.2Z" transform="translate(-1332.471 -849.604)" fill="#ed1c24"/><path d="M1409.731,924.394l-73.439-42.4v5.194l73.439,42.4Z" transform="translate(-1336.292 -850.73)" fill="#ed1c24"/><path d="M1336.292,891.432v5.194l73.439,42.4v-5.194Z" transform="translate(-1336.292 -849.633)" fill="#ed1c24"/><path d="M1373.011,896.059V875.182h0l-36.719-21.2h0v26.07l36.719,21.2Zm-30.025-28.187.559.229.251-.441.25.73.559.416-.405.222.1.7-.5-.593-.5.015.1-.588Zm-4.462-10.985.56.229.25-.441.25.73.559.417-.405.222.1.7-.5-.592-.5.015.1-.588Zm32.061,19.61-.5-.593-.5.015.1-.588-.405-.689.559.229.251-.441.25.73.559.416-.405.222Zm-4.376-2.527-.5-.593-.5.015.1-.588-.405-.689.559.229.25-.441.25.73.56.416-.405.222Zm-.529,2.121.25.73.559.416-.405.222.1.7-.5-.593-.5.015.1-.588-.405-.689.56.229Zm4.933,13.034-.5-.593-.5.016.095-.588-.4-.69.559.229.25-.441.25.73.559.417-.4.222Zm-4.376-2.527-.5-.593-.5.016.095-.588-.405-.69.56.229.25-.441.25.73.559.418-.4.222Zm-4.376-2.526-.5-.593-.5.014.1-.588-.405-.69.559.23.251-.442.25.73.559.417-.405.222Zm-4.376-2.527-.5-.593-.5.015.1-.588-.405-.69.559.23.25-.441.251.729.559.417-.405.222Zm-4.378-2.527-.5-.593-.5.015.095-.588-.4-.69.559.23.25-.441.25.729.559.417-.4.222Zm-4.376-2.527-.5-.593-.5.015.095-.588-.405-.69.56.23.25-.441.25.73.559.416-.4.222Zm-4.376-2.527-.5-.593-.5.015.1-.588-.405-.689.559.229.251-.441.25.73.559.416-.405.222Zm4.292-1.727-.5-.593-.5.014.1-.588-.405-.689.559.229.25-.441.25.73.56.416-.405.222Zm4.377,2.527-.5-.593-.5.014.1-.588-.405-.689.559.229.25-.441.251.73.559.416-.405.222Zm4.376,2.527-.5-.593-.5.014.1-.588-.406-.689.561.229.25-.441.25.73.559.416-.405.222Zm4.376,2.527-.5-.593-.5.015.1-.588-.4-.69.559.23.25-.441.25.73.559.416-.4.222Zm4.378,2.527-.5-.593-.5.014.1-.588-.405-.69.559.23.25-.441.25.729.56.418-.405.222Zm-4.321-10.9-.5-.593-.5.014.1-.588-.4-.689.559.229.25-.441.25.73.559.416-.4.222Zm-.528,2.121.25.73.559.416-.405.222.1.7-.5-.593-.5.015.1-.588-.405-.688.559.229Zm-3.849-4.648-.5-.593-.5.015.1-.588-.405-.689.56.229.25-.441.25.73.559.416-.4.222Zm-.529,2.121.25.73.56.416-.405.222.1.7-.5-.593-.5.014.1-.588-.405-.689.559.229Zm-3.847-4.648-.5-.593-.5.016.1-.588-.405-.69.559.229.251-.441.25.73.559.417-.405.221Zm-.529,2.121.25.73.559.416-.4.222.095.7-.5-.593-.5.015.095-.588-.4-.689.559.229Zm-3.847-4.648-.5-.593-.5.016.1-.588-.405-.69.559.229.25-.441.25.73.56.417-.405.221Zm-.529,2.121.25.73.559.416-.405.222.1.7-.5-.593-.5.016.1-.589-.405-.689.56.229Zm-3.962-4.713-.5-.593-.5.016.095-.588-.4-.69.559.229.25-.441.25.73.559.417-.4.222Zm-.386,2.2.25.73.559.416-.4.222.095.7-.5-.593-.5.015.095-.588-.4-.689.559.229Zm-3.847,7.965-.5-.593-.5.014.1-.588-.405-.689.559.229.25-.441.251.73.559.416-.405.222Zm30.551,13.435-.5-.593-.5.015.1-.588-.405-.69.559.23.25-.441.251.729.559.417-.405.222Zm-.222-5.525.559.416-.4.222.095.7-.5-.593-.5.014.095-.588-.4-.69.559.23.25-.441Zm-30.858-18.4.25.73.559.416-.4.222.095.7-.5-.593-.5.014.095-.588-.405-.689.56.229Zm-.838,4.4.559.229.25-.441.25.73.56.416-.405.222.1.7-.5-.593-.5.014.1-.588Zm1.281,10.246-.5-.593-.5.016.1-.588-.405-.69.56.229.25-.441.25.73.559.417-.4.221Zm4.376,2.527-.5-.593-.5.016.095-.588-.4-.69.559.229.25-.441.25.73.559.416-.4.222Zm4.348,2.51-.5-.593-.5.016.1-.588-.405-.69.56.229.25-.441.25.73.559.417-.405.222Zm4.377,2.527-.5-.593-.5.016.095-.588-.4-.69.559.229.25-.441.25.73.559.417-.4.221Zm4.378,2.527-.5-.593-.5.016.1-.588-.405-.69.559.229.25-.441.25.73.56.417-.405.221Zm4.376,2.527-.5-.593-.5.015.1-.587-.405-.69.559.229.25-.441.251.73.559.416-.405.222Zm4.376,2.527-.5-.593-.5.015.1-.588-.405-.689.56.229.25-.441.25.73.559.416-.405.222Zm4.376,2.527-.5-.593-.5.015.1-.588-.4-.689.559.229.25-.441.25.73.559.416-.4.222Zm-30.636-13.484-.5-.593-.5.015.1-.588-.405-.689.559.229.25-.441.25.73.56.416-.405.222Zm4.376,2.527-.5-.593-.5.014.1-.588-.405-.689.559.229.25-.441.251.73.559.416-.405.222Zm4.349,2.51-.5-.593-.5.016.095-.588-.4-.69.559.229.25-.441.25.73.56.416-.405.222Zm4.376,2.527-.5-.593-.5.015.1-.588-.4-.689.559.229.25-.441.251.73.559.416-.405.222Zm4.376,2.527-.5-.593-.5.014.1-.588-.405-.689.559.229.251-.441.25.73.559.416-.405.222Zm4.376,2.527-.5-.593-.5.014.095-.588-.4-.689.559.229.25-.441.25.73.559.416-.4.222Zm4.376,2.527-.5-.593-.5.015.095-.588-.4-.689.559.229.25-.441.25.73.56.416-.405.222Zm4.377,2.527-.5-.593-.5.015.1-.588-.405-.689.559.229.25-.441.251.73.559.416-.405.222Z" transform="translate(-1336.292 -853.983)" fill="#1c75bc"/><path d="M1339.1,857.869l.5.593-.1-.7.4-.222-.559-.417-.25-.73-.25.441-.559-.229.4.689-.1.588Z" transform="translate(-1336.06 -853.703)" fill="#fff"/><path d="M1343.272,859.388l-.25-.73-.25.441-.56-.229.4.689-.1.588.5-.015.5.593-.1-.7.4-.222Z" transform="translate(-1335.604 -853.44)" fill="#fff"/><path d="M1347.3,861.711l-.25-.73-.25.441-.56-.229.4.689-.1.588.5-.015.5.593-.1-.7.4-.222Z" transform="translate(-1335.137 -853.17)" fill="#fff"/><path d="M1351.217,863.975l-.25-.73-.25.441-.559-.229.405.689-.1.588.5-.015.5.593-.1-.7.4-.222Z" transform="translate(-1334.682 -852.907)" fill="#fff"/><path d="M1355.138,866.239l-.25-.73-.25.441-.559-.229.4.689-.1.588.5-.015.5.593-.1-.7.4-.222Z" transform="translate(-1334.226 -852.644)" fill="#fff"/><path d="M1359.06,868.5l-.25-.73-.25.441-.559-.229.4.689-.1.588.5-.015.5.593-.1-.7.4-.222Z" transform="translate(-1333.771 -852.381)" fill="#fff"/><path d="M1362.981,870.767l-.25-.73-.25.441-.559-.229.4.69-.1.588.5-.015.5.593-.1-.7.4-.222Z" transform="translate(-1333.315 -852.118)" fill="#fff"/><path d="M1366.9,873.031l-.25-.73-.25.441-.559-.229.4.689-.1.588.5-.015.5.593-.1-.7.405-.222Z" transform="translate(-1332.86 -851.855)" fill="#fff"/><path d="M1338.393,860.432l.405.689-.1.588.5-.015.5.593-.1-.7.4-.222-.559-.417-.25-.73-.25.441Z" transform="translate(-1336.048 -853.259)" fill="#fff"/><path d="M1342.315,862.7l.4.689-.1.588.5-.015.5.593-.1-.7.4-.222-.56-.417-.25-.73-.25.441Z" transform="translate(-1335.593 -852.996)" fill="#fff"/><path d="M1346.211,864.945l.4.689-.1.588.5-.015.5.593-.1-.7.4-.222-.559-.417-.25-.73-.25.441Z" transform="translate(-1335.14 -852.734)" fill="#fff"/><path d="M1350.132,867.209l.405.689-.1.588.5-.015.5.593-.1-.7.4-.222-.559-.417-.25-.73-.25.441Z" transform="translate(-1334.685 -852.471)" fill="#fff"/><path d="M1354.053,869.473l.4.689-.1.588.5-.015.5.593-.1-.7.4-.222-.559-.417-.25-.73-.25.441Z" transform="translate(-1334.229 -852.209)" fill="#fff"/><path d="M1357.974,871.737l.4.689-.1.588.5-.015.5.593-.1-.7.4-.222-.559-.417-.25-.73-.25.441Z" transform="translate(-1333.774 -851.946)" fill="#fff"/><path d="M1361.9,874l.4.689-.1.588.5-.015.5.593-.1-.7.4-.222-.559-.417-.25-.73-.25.441Z" transform="translate(-1333.318 -851.683)" fill="#fff"/><path d="M1366.376,876.494l-.559-.229.4.69-.1.588.5-.015.5.593-.1-.7.4-.222-.56-.417-.25-.73Z" transform="translate(-1332.863 -851.42)" fill="#fff"/><path d="M1338.677,865.461l.5-.015.5.593-.1-.7.4-.222-.559-.417-.25-.73-.25.441-.559-.229.4.689Z" transform="translate(-1336.051 -852.823)" fill="#fff"/><path d="M1342.6,867.725l.5-.015.5.593-.1-.7.4-.222-.56-.417-.25-.73-.25.441-.559-.229.4.689Z" transform="translate(-1335.596 -852.56)" fill="#fff"/><path d="M1347.8,869.632l-.559-.417-.25-.73-.25.441-.56-.229.4.689-.1.588.5-.015.5.593-.1-.7Z" transform="translate(-1335.143 -852.299)" fill="#fff"/><path d="M1351.725,871.9l-.559-.417-.25-.73-.25.441-.559-.229.4.689-.1.588.5-.015.5.593-.1-.7Z" transform="translate(-1334.688 -852.036)" fill="#fff"/><path d="M1355.647,874.16l-.56-.417-.25-.73-.25.441-.559-.229.4.69-.1.588.5-.015.5.593-.1-.7Z" transform="translate(-1334.232 -851.773)" fill="#fff"/><path d="M1359.568,876.424l-.559-.417-.25-.73-.25.441-.56-.229.405.689-.1.588.5-.015.5.593-.1-.7Z" transform="translate(-1333.776 -851.51)" fill="#fff"/><path d="M1363.489,878.687l-.56-.417-.25-.73-.25.441-.559-.229.4.689-.1.588.5-.015.5.593-.1-.7Z" transform="translate(-1333.321 -851.247)" fill="#fff"/><path d="M1367.41,880.951l-.559-.417-.25-.73-.25.441-.56-.229.4.689-.1.588.5-.015.5.593-.1-.7Z" transform="translate(-1332.866 -850.984)" fill="#fff"/><path d="M1339.479,868.5l-.25-.73-.25.441-.56-.229.4.689-.1.588.5-.015.5.593-.1-.7.4-.222Z" transform="translate(-1336.045 -852.382)" fill="#fff"/><path d="M1343.4,870.762l-.25-.73-.25.441-.559-.229.4.689-.1.588.5-.015.5.593-.1-.7.4-.222Z" transform="translate(-1335.59 -852.119)" fill="#fff"/><path d="M1347.321,873.026l-.25-.73-.25.441-.559-.229.4.689-.1.588.5-.015.5.593-.1-.7.4-.222Z" transform="translate(-1335.134 -851.856)" fill="#fff"/><path d="M1351.243,875.289l-.25-.73-.25.441-.559-.229.4.689-.1.588.5-.015.5.593-.1-.7.4-.222Z" transform="translate(-1334.679 -851.593)" fill="#fff"/><path d="M1355.164,877.554l-.25-.73-.25.441-.559-.229.405.689-.1.588.5-.015.5.593-.1-.7.4-.222Z" transform="translate(-1334.223 -851.33)" fill="#fff"/><path d="M1359.085,879.817l-.25-.73-.25.441-.56-.229.4.689-.1.588.5-.015.5.593-.1-.7.4-.222Z" transform="translate(-1333.768 -851.067)" fill="#fff"/><path d="M1363.006,882.081l-.25-.73-.25.441-.559-.229.4.689-.1.588.5-.015.5.593-.1-.7.4-.222Z" transform="translate(-1333.312 -850.804)" fill="#fff"/><path d="M1366.927,884.345l-.25-.73-.25.441-.559-.229.4.689-.1.588.5-.015.5.593-.1-.7.4-.222Z" transform="translate(-1332.857 -850.541)" fill="#fff"/><path d="M1339.4,872.22l-.25-.73-.25.441-.559-.229.4.689-.1.588.5-.015.5.593-.1-.7.4-.222Z" transform="translate(-1336.054 -851.95)" fill="#fff"/><path d="M1343.323,874.484l-.25-.73-.25.441-.559-.229.4.689-.1.588.5-.015.5.593-.1-.7.4-.222Z" transform="translate(-1335.599 -851.687)" fill="#fff"/><path d="M1347.219,876.733l-.25-.73-.25.441-.56-.229.4.689-.1.588.5-.015.5.593-.1-.7.4-.222Z" transform="translate(-1335.146 -851.425)" fill="#fff"/><path d="M1351.141,879l-.25-.73-.25.441-.559-.229.4.689-.1.588.5-.015.5.593-.1-.7.4-.222Z" transform="translate(-1334.691 -851.162)" fill="#fff"/><path d="M1355.062,881.261l-.25-.73-.25.441-.56-.229.4.689-.1.588.5-.015.5.593-.1-.7.4-.222Z" transform="translate(-1334.235 -850.899)" fill="#fff"/><path d="M1358.983,883.525l-.25-.73-.25.441-.559-.229.4.689-.1.588.5-.015.5.593-.1-.7.4-.222Z" transform="translate(-1333.78 -850.637)" fill="#fff"/><path d="M1362.9,885.789l-.25-.73-.25.441-.56-.229.4.69-.1.588.5-.015.5.593-.1-.7.4-.222Z" transform="translate(-1333.324 -850.374)" fill="#fff"/><path d="M1366.825,888.053l-.25-.73-.25.441-.559-.229.405.69-.1.588.5-.015.5.593-.1-.7.4-.222Z" transform="translate(-1332.869 -850.111)" fill="#fff"/><path d="M1339.377,875.972l-.25-.73-.25.441-.559-.229.4.689-.1.588.5-.015.5.593-.1-.7.4-.222Z" transform="translate(-1336.057 -851.514)" fill="#fff"/><path d="M1343.3,878.236l-.25-.73-.25.441-.559-.229.4.689-.1.588.5-.015.5.593-.1-.7.4-.222Z" transform="translate(-1335.601 -851.251)" fill="#fff"/><path d="M1347.194,880.485l-.25-.73-.25.441-.559-.229.4.689-.1.588.5-.015.5.593-.1-.7.4-.222Z" transform="translate(-1335.149 -850.99)" fill="#fff"/><path d="M1351.115,882.749l-.25-.73-.25.441-.56-.229.4.689-.1.588.5-.015.5.593-.1-.7.4-.222Z" transform="translate(-1334.693 -850.727)" fill="#fff"/><path d="M1355.036,885.013l-.25-.73-.25.441-.559-.229.4.689-.1.588.5-.015.5.593-.1-.7.405-.222Z" transform="translate(-1334.238 -850.464)" fill="#fff"/><path d="M1358.957,887.277l-.25-.73-.25.441-.559-.229.4.689-.1.588.5-.015.5.593-.1-.7.4-.222Z" transform="translate(-1333.782 -850.201)" fill="#fff"/><path d="M1362.879,889.541l-.25-.73-.25.441-.56-.229.405.689-.1.588.5-.015.5.593-.1-.7.4-.222Z" transform="translate(-1333.327 -849.938)" fill="#fff"/><path d="M1366.8,891.8l-.25-.73-.25.441-.559-.229.4.689-.1.588.5-.015.5.593-.1-.7.4-.222Z" transform="translate(-1332.872 -849.675)" fill="#fff"/></g><g transform="translate(73.439 42.387)"><path d="M1402.088,934.346v.1l4.755-2.745v-.1Z" transform="translate(-1402.088 -884.608)" fill="#fff"/><path d="M1406.843,894.152l-4.755,2.745v5.294l4.755-2.745Z" transform="translate(-1402.088 -888.958)" fill="#fff"/><path d="M1406.843,903.549l-4.755,2.745v5.194l4.755-2.745Z" transform="translate(-1402.088 -887.867)" fill="#fff"/><path d="M1406.843,912.856l-4.755,2.745V920.8l4.755-2.745Z" transform="translate(-1402.088 -886.786)" fill="#fff"/><path d="M1406.843,922.163l-4.755,2.745v5.34l4.755-2.745Z" transform="translate(-1402.088 -885.705)" fill="#fff"/><path d="M1406.843,889.5l-4.755,2.745v5.194l4.755-2.745Z" transform="translate(-1402.088 -889.499)" fill="#ed1c24"/><path d="M1406.843,898.9l-4.755,2.745v5.194l4.755-2.745Z" transform="translate(-1402.088 -888.407)" fill="#ed1c24"/><path d="M1406.843,908.2l-4.755,2.745v5.194l4.755-2.745Z" transform="translate(-1402.088 -887.326)" fill="#ed1c24"/><path d="M1406.843,917.51l-4.755,2.745v5.194l4.755-2.745Z" transform="translate(-1402.088 -886.245)" fill="#ed1c24"/><path d="M1406.843,926.948l-4.755,2.745v5.194l4.755-2.745Z" transform="translate(-1402.088 -885.149)" fill="#ed1c24"/></g><g transform="translate(0)"><path d="M1373.945,870.516l-4.754,2.745,36.719,21.2,4.754-2.745Z" transform="translate(-1332.471 -849.316)" fill="#ed1c24"/><path d="M1341.046,851.522l-4.754,2.745,36.719,21.2,4.754-2.745Z" transform="translate(-1336.292 -851.522)" fill="#1c75bc"/></g></g></svg>