<svg xmlns="http://www.w3.org/2000/svg" width="154.667" height="154.667" viewBox="0 0 154.667 154.667"><g transform="translate(-473 -4346.676)"><g transform="translate(473 4346.676)"><path d="M2682.54,6466.171q3.8,0,7.58.373t7.507,1.114q3.727.739,7.362,1.843t7.146,2.557q3.51,1.453,6.861,3.244t6.51,3.9q3.158,2.111,6.1,4.521t5.623,5.1q2.687,2.687,5.1,5.623t4.521,6.1q2.111,3.157,3.9,6.509t3.245,6.861q1.454,3.509,2.557,7.145t1.844,7.362q.741,3.727,1.114,7.506t.373,7.581q0,3.8-.373,7.58t-1.114,7.508q-.742,3.726-1.844,7.361t-2.557,7.146q-1.455,3.51-3.245,6.861t-3.9,6.51q-2.111,3.158-4.521,6.1t-5.1,5.623q-2.686,2.689-5.623,5.1t-6.1,4.521q-3.159,2.111-6.51,3.9t-6.861,3.244q-3.509,1.454-7.146,2.557t-7.362,1.844q-3.725.743-7.507,1.114t-7.58.373q-3.8,0-7.58-.373t-7.507-1.114q-3.725-.741-7.362-1.844t-7.146-2.557q-3.51-1.455-6.86-3.244t-6.51-3.9q-3.159-2.109-6.1-4.521t-5.624-5.1q-2.686-2.687-5.1-5.623t-4.521-6.1q-2.111-3.16-3.9-6.51t-3.244-6.861q-1.455-3.509-2.557-7.146t-1.844-7.361q-.741-3.727-1.113-7.508t-.372-7.58q0-3.8.372-7.581t1.113-7.506q.741-3.725,1.844-7.362t2.557-7.145q1.453-3.511,3.244-6.861t3.9-6.509q2.111-3.159,4.521-6.1t5.1-5.623q2.688-2.688,5.624-5.1t6.1-4.521q3.158-2.109,6.51-3.9t6.86-3.244q3.51-1.455,7.146-2.557t7.362-1.843q3.726-.743,7.507-1.114T2682.54,6466.171Z" transform="translate(-2605.207 -6466.171)" fill="#a0a603"/><circle cx="72.641" cy="72.641" r="72.641" transform="translate(4.693 4.693)" fill="#fff"/><path d="M66.08,0A66.08,66.08,0,1,1,0,66.08,66.08,66.08,0,0,1,66.08,0Z" transform="translate(11.253 11.253)" fill="#aaaf31"/></g><g transform="translate(-265.627 -1986.202)"><g transform="translate(777.256 6355.392)"><g transform="translate(11.133 11.273)"><path d="M830.547,6445.151v7.437h25.392v-7.437a26.539,26.539,0,1,0-25.392,0Z" transform="translate(-815.788 -6394.383)" fill="#f7bb17"/><path d="M853.856,6451.421H828.464a.916.916,0,0,1-.916-.917v-6.9a27.456,27.456,0,1,1,27.225,0v6.9A.916.916,0,0,1,853.856,6451.421Zm-24.476-1.833h23.559v-6.521a.916.916,0,0,1,.477-.805,25.623,25.623,0,1,0-24.514,0,.917.917,0,0,1,.477.805Z" transform="translate(-813.704 -6392.3)" fill="#132e47"/></g><path d="M880.466,6505.525a.914.914,0,0,1-.889-1.143l5.826-22.8a4.178,4.178,0,0,1-2.882-1.309,9.9,9.9,0,0,1-4.215,1.833,5.249,5.249,0,0,1-4.843-2.18,8.512,8.512,0,0,1-4.825,1.657,5.232,5.232,0,0,1-3.708-1.486,6.073,6.073,0,0,1-1.125.776l5.909,23.51a.916.916,0,0,1-1.777.447l-6.1-24.254a.916.916,0,0,1,.574-1.084,4.219,4.219,0,0,0,1.4-.863,6.7,6.7,0,0,1-.776-2.48c-.185-1.719.418-2.986,1.535-3.229a2.024,2.024,0,0,1,2.5,1.5,5.658,5.658,0,0,1-.949,4.295,3.385,3.385,0,0,0,2.505,1.039,6.775,6.775,0,0,0,3.8-1.363c-1.1-2.042-1.66-4.707-.739-6.517a3.031,3.031,0,0,1,2.848-1.674,3.542,3.542,0,0,1,2.456.8,2.751,2.751,0,0,1,.868,2.112c0,1.666-1.173,3.9-2.993,5.657a3.545,3.545,0,0,0,3.14,1.537,8.023,8.023,0,0,0,3.5-1.54,5.158,5.158,0,0,1-.027-4.5,2.3,2.3,0,0,1,2.391-1.161,2.122,2.122,0,0,1,1.987,2.138,6.021,6.021,0,0,1-1.962,3.834,2.481,2.481,0,0,0,2.49.583.917.917,0,0,1,1.107,1.117l-6.15,24.066A.916.916,0,0,1,880.466,6505.525Zm3.045-30.619a.478.478,0,0,0-.444.286,3.111,3.111,0,0,0-.1,2.2,3.851,3.851,0,0,0,1.063-2.134c0-.168,0-.289-.4-.343A.968.968,0,0,0,883.511,6474.907Zm-8.965-2.875a1.206,1.206,0,0,0-1.214.672c-.506,1-.25,2.832.537,4.466a6.749,6.749,0,0,0,2.169-4.063.9.9,0,0,0-.265-.752A1.859,1.859,0,0,0,874.547,6472.031Zm-9.537,2.673a3.021,3.021,0,0,0,.044,2.153,3.17,3.17,0,0,0,.268-1.927C865.253,6474.693,865.2,6474.666,865.01,6474.7Z" transform="translate(-835.985 -6435.132)" fill="#132e47"/><path d="M832.636,6420.564s4.3-13.852,17.266-16.175c4.672-.839,5.364,6.789-2.431,7.626A20.449,20.449,0,0,0,832.636,6420.564Z" transform="translate(-815.72 -6389.378)" fill="#fff"/><g transform="translate(0)"><g transform="translate(37.788)"><line y2="6.318" transform="translate(0.916 0.916)" fill="#f7bb17"/><path d="M901.885,6363.542a.916.916,0,0,1-.916-.917v-6.317a.916.916,0,1,1,1.833,0v6.317A.916.916,0,0,1,901.885,6363.542Z" transform="translate(-900.969 -6355.392)" fill="#132e47"/></g><g transform="translate(0 37.788)"><g transform="translate(69.258)"><line x1="6.318" transform="translate(0.916 0.916)" fill="#f7bb17"/><path d="M1011.232,6480.939h-6.318a.917.917,0,0,1,0-1.833h6.318a.917.917,0,0,1,0,1.833Z" transform="translate(-1003.998 -6479.106)" fill="#132e47"/></g><line x1="6.317" transform="translate(0.916 0.916)" fill="#f7bb17"/><path d="M784.489,6480.939h-6.317a.917.917,0,0,1,0-1.833h6.317a.917.917,0,0,1,0,1.833Z" transform="translate(-777.256 -6479.106)" fill="#132e47"/></g><g transform="translate(11.067 11.068)"><g transform="translate(48.973)"><line x1="4.468" y2="4.468" transform="translate(0.916 0.916)" fill="#f7bb17"/><path d="M974.736,6397.928a.916.916,0,0,1-.648-1.564l4.468-4.468a.916.916,0,0,1,1.3,1.3l-4.468,4.468A.914.914,0,0,1,974.736,6397.928Z" transform="translate(-973.82 -6391.627)" fill="#132e47"/></g><g transform="translate(0 48.973)"><line x1="4.467" y2="4.468" transform="translate(0.916 0.916)" fill="#f7bb17"/><path d="M814.405,6558.259a.916.916,0,0,1-.648-1.564l4.468-4.467a.916.916,0,0,1,1.3,1.3l-4.468,4.468A.916.916,0,0,1,814.405,6558.259Z" transform="translate(-813.489 -6551.959)" fill="#132e47"/></g></g><g transform="translate(11.067 11.068)"><g transform="translate(48.973 48.973)"><line x1="4.468" y1="4.468" transform="translate(0.916 0.916)" fill="#f7bb17"/><path d="M979.2,6558.259a.915.915,0,0,1-.648-.268l-4.468-4.468a.916.916,0,0,1,1.3-1.3l4.468,4.467a.916.916,0,0,1-.648,1.564Z" transform="translate(-973.82 -6551.959)" fill="#132e47"/></g><line x1="4.467" y1="4.468" transform="translate(0.916 0.916)" fill="#f7bb17"/><path d="M818.873,6397.928a.915.915,0,0,1-.648-.269l-4.468-4.468a.916.916,0,0,1,1.3-1.3l4.468,4.468a.916.916,0,0,1-.648,1.564Z" transform="translate(-813.489 -6391.627)" fill="#132e47"/></g><g transform="translate(2.315 2.316)"><g transform="translate(46.32)"><line x1="2.178" y2="5.931" transform="translate(0.917 0.916)" fill="#f7bb17"/><path d="M937.4,6370.736a.9.9,0,0,1-.316-.057.916.916,0,0,1-.544-1.175l2.178-5.933a.917.917,0,0,1,1.721.633l-2.177,5.93A.916.916,0,0,1,937.4,6370.736Z" transform="translate(-936.479 -6362.973)" fill="#132e47"/></g><g transform="translate(0 22.447)"><g transform="translate(65.014 23.873)"><line x1="5.931" y1="2.177" transform="translate(0.917 0.916)" fill="#f7bb17"/><path d="M1004.531,6518.629a.918.918,0,0,1-.315-.057l-5.931-2.176a.917.917,0,0,1,.631-1.721l5.931,2.177a.917.917,0,0,1-.316,1.777Z" transform="translate(-997.683 -6514.62)" fill="#132e47"/></g><line x1="5.931" y1="2.179" transform="translate(0.917 0.917)" fill="#f7bb17"/><path d="M791.682,6440.476a.906.906,0,0,1-.315-.057l-5.931-2.178a.917.917,0,0,1,.632-1.721L792,6438.7a.917.917,0,0,1-.316,1.777Z" transform="translate(-784.834 -6436.463)" fill="#132e47"/></g><g transform="translate(1.18 19.6)"><g transform="translate(62.852)"><line x1="5.734" y2="2.653" transform="translate(0.917 0.916)" fill="#f7bb17"/><path d="M995.384,6431.627a.917.917,0,0,1-.385-1.749l5.734-2.654a.917.917,0,0,1,.77,1.665l-5.734,2.652A.913.913,0,0,1,995.384,6431.627Z" transform="translate(-994.467 -6427.139)" fill="#132e47"/></g><g transform="translate(0 29.093)"><line x1="5.734" y2="2.653" transform="translate(0.917 0.916)" fill="#f7bb17"/><path d="M789.614,6526.874a.917.917,0,0,1-.385-1.749l5.734-2.653a.916.916,0,0,1,.769,1.663L790,6526.788A.916.916,0,0,1,789.614,6526.874Z" transform="translate(-788.696 -6522.388)" fill="#132e47"/></g></g><g transform="translate(19.6 1.179)"><line x1="2.654" y1="5.734" transform="translate(0.917 0.917)" fill="#f7bb17"/><path d="M852.572,6374.4a.916.916,0,0,1-.832-.531l-2.654-5.733a.916.916,0,1,1,1.663-.77l2.654,5.733a.916.916,0,0,1-.831,1.3Z" transform="translate(-849.001 -6366.834)" fill="#132e47"/></g></g></g></g><g transform="translate(802.409 6423.978)"><g transform="translate(0 0)"><rect width="25.269" height="12.374" transform="translate(0.916 0.916)" fill="#b3b835"/><path d="M885.79,6594.139H860.521a.917.917,0,0,1-.916-.917v-12.374a.917.917,0,0,1,.916-.917H885.79a.917.917,0,0,1,.916.917v12.374A.917.917,0,0,1,885.79,6594.139Zm-24.352-1.833h23.436v-10.542H861.438Z" transform="translate(-859.605 -6579.931)" fill="#132e47"/></g><g transform="translate(0 12.374)"><path d="M887.874,6623.442H862.605l12.635,26.848Z" transform="translate(-861.689 -6622.526)" fill="#fff"/><path d="M873.156,6649.123a.917.917,0,0,1-.829-.526l-12.634-26.847a.916.916,0,0,1,.829-1.307H885.79a.916.916,0,0,1,.829,1.307L873.985,6648.6A.917.917,0,0,1,873.156,6649.123Zm-11.191-26.848,11.191,23.779,11.19-23.779Z" transform="translate(-859.605 -6620.443)" fill="#132e47"/></g><g transform="translate(6.585 26.367)"><path d="M884.165,6669.255l6.049,12.854,6.049-12.854Z" transform="translate(-883.248 -6668.339)" fill="#132e47"/><path d="M888.13,6680.942a.916.916,0,0,1-.829-.527l-6.049-12.853a.916.916,0,0,1,.829-1.306h12.1a.916.916,0,0,1,.829,1.306l-6.049,12.853A.916.916,0,0,1,888.13,6680.942Zm-4.605-12.854,4.605,9.785,4.6-9.785Z" transform="translate(-881.164 -6666.256)" fill="#132e47"/></g><g transform="translate(8.241 0.138)"><path d="M887.5,6594.314a.917.917,0,0,1-.916-.916v-12.1a.916.916,0,0,1,1.833,0v12.1A.916.916,0,0,1,887.5,6594.314Z" transform="translate(-886.584 -6580.382)" fill="#132e47"/><path d="M916.274,6594.314a.916.916,0,0,1-.916-.916v-12.1a.916.916,0,0,1,1.833,0v12.1A.916.916,0,0,1,916.274,6594.314Z" transform="translate(-906.569 -6580.382)" fill="#132e47"/></g></g></g></g></svg>