<svg xmlns="http://www.w3.org/2000/svg" width="109.826" height="166.893" viewBox="0 0 109.826 166.893"><g transform="translate(-479.023 -4653.664)"><path d="M549.271,4797.631v2.462l-17.556,10.222-17.557,10.242L496.6,4810.315l-17.577-10.222v-2.462Z" fill="#c0c1c5" fill-rule="evenodd"/><path d="M514.158,4820.557v-2.709L496.6,4807.6l-17.351-10.1-.226.124v2.462l17.577,10.222Z" fill="#dce1e4" fill-rule="evenodd"/><path d="M549.271,4797.631l-17.556,10.243-17.557,10.241L496.6,4807.874l-17.577-10.243,35.134-19.244Z" fill="#f2f2f2" fill-rule="evenodd"/><path d="M533.927,4796.162v1.386l-9.874,5.773-9.895,5.752-9.895-5.752-9.9-5.773v-1.386Z" fill="#c0c1c5" fill-rule="evenodd"/><path d="M514.158,4809.073v-1.53l-9.895-5.753-9.772-5.71-.124.083v1.386l9.9,5.773Z" fill="#dce1e4" fill-rule="evenodd"/><path d="M533.927,4796.162l-9.874,5.773-9.895,5.751-9.895-5.751-9.9-5.773,19.79-10.843Z" fill="#ededed" fill-rule="evenodd"/><path d="M514.158,4685.711l2.192,1.283,2.172,1.262V4796.2l-2.172,1.282-2.192,1.263-2.192-1.263-2.192-1.282V4688.256l2.192-1.262Z" fill="#c0c1c5" fill-rule="evenodd"/><path d="M514.158,4798.749l-2.192-1.263-2.192-1.282V4688.256l2.192-1.262,2.192-1.283Z" fill="#e1e5e8" fill-rule="evenodd"/><path d="M514.158,4685.711l4.363,2.462-4.363,2.462-4.383-2.462Z" fill="#f2f2f2" fill-rule="evenodd"/><g transform="translate(509.738 4653.664)" style="isolation:isolate"><g transform="translate(0.134)"><path d="M509.843,4658.683l8.638-5.019,23.447,13.538-8.638,5.019Z" transform="translate(-509.843 -4653.664)" fill="#3d9348"/></g><g transform="translate(23.448 13.537)"><path d="M528.285,4669.314l8.638-5.019-.134,47.154-8.638,5.02Z" transform="translate(-528.151 -4664.295)" fill="#3d9348"/></g><g transform="translate(0 5.019)"><path d="M509.872,4657.605l23.447,13.538-.134,47.155-23.447-13.538Z" transform="translate(-509.738 -4657.605)" fill="#3d9348"/></g></g><g transform="translate(533.186 4667.202)" style="isolation:isolate"><g transform="translate(0.134)"><path d="M528.256,4669.314l8.638-5.019,23.447,13.537-8.638,5.02Z" transform="translate(-528.256 -4664.295)" fill="#f4f4f4"/></g><g transform="translate(23.447 13.537)"><path d="M546.7,4679.945l8.638-5.021-.134,47.155-8.638,5.019Z" transform="translate(-546.564 -4674.925)" fill="#f4f4f4"/></g><g transform="translate(0 5.019)"><path d="M528.285,4668.236l23.448,13.538-.134,47.154-23.448-13.537Z" transform="translate(-528.151 -4668.236)" fill="#f4f4f4"/></g></g><g transform="translate(556.633 4680.738)" style="isolation:isolate"><g transform="translate(0.134)"><path d="M546.669,4679.945l8.638-5.021,23.446,13.538-8.636,5.019Z" transform="translate(-546.669 -4674.925)" fill="#d80031"/></g><g transform="translate(23.447 13.537)"><path d="M565.111,4690.575l8.636-5.019-.132,47.154-8.638,5.02Z" transform="translate(-564.977 -4685.556)" fill="#d80031"/></g><g transform="translate(0 5.02)"><path d="M546.7,4678.867l23.448,13.537-.134,47.155-23.447-13.538Z" transform="translate(-546.564 -4678.867)" fill="#d80031"/></g></g></g></svg>