<svg xmlns="http://www.w3.org/2000/svg" xmlns:xlink="http://www.w3.org/1999/xlink" width="261" height="289.826" viewBox="0 0 261 289.826"><defs><clipPath id="a"><path d="M361.821,3486.818s21.1-9.095,25.1-26.921-11.278-37.473-11.278-37.473-63.3,54.208-49.478,65.486c7.132,5.817,35.654,3.274,35.654,3.274" transform="translate(-324.193 -3422.425)" fill="#1d3542"/></clipPath><clipPath id="b"><path d="M316.247,3618.83s-13.825,21.1-14.553,24.375c0,0-46.931,2.547-57.845,7.276s-14.916,18.918-5.457,26.194,72.4,9.823,89.861,3.638c0,0,90.224,12.006,105.5-5.457s-27.65-34.562-64.03-32.743c0,0-12.733-25.1-19.646-28.377S316.247,3618.83,316.247,3618.83Z" transform="translate(-233.078 -3612.977)" fill="#75aee1"/></clipPath><clipPath id="c"><path d="M301.125,3527.783c.035.727-1.545,5.9-3.1,19.448s-9.424,32.126-9.322,34.307-4.9,4.236-8.837,13.524-12.369,15.875-14.464,17.795a26.089,26.089,0,0,0-9.136-.666c-4.708.584-9.137-.665-9.931-2.085,0,0-2.1,1.919-.194,3.652s6.2.074,7.387,2.2-1.562,5.536-4.157,4.565a6.119,6.119,0,0,1-3.821-3.827c-.414-1.074,1.2-5.52-2.122-6.457,0,0-.991,6.055-.56,7.492,0,0-4.6-4.884-7.041-2.584,0,0,4.548,3.793,4.962,4.866,0,0-3.719-1.647-4.707.585a25.029,25.029,0,0,0,4.843,2.323c1.471.3,2.578.608,3.356,1.664,0,0-4.031-.54-4.293,1.657,0,0,4-.187,5.849.455s8.79,1.045,11.265-.527,36.565-20.285,44.124-37.756c0,0,9.111-31.019,9.135-38.3" transform="translate(-235.83 -3527.783)" fill="#f4a082"/></clipPath><clipPath id="d"><path d="M412.391,3529.574c-.039.727.894,2.875,2.346,16.435s9.188,32.2,9.071,34.374,4.87,4.272,8.738,13.59,12.253,15.965,14.334,17.9a26.107,26.107,0,0,1,9.141-.6c4.7.619,9.141-.6,9.946-2.012,0,0,2.082,1.934.167,3.652s-6.2.03-7.4,2.15,1.522,5.547,4.124,4.6a6.112,6.112,0,0,0,3.848-3.8c.423-1.07-1.158-5.528,2.171-6.441,0,0,.947,6.063.5,7.5,0,0,4.635-4.85,7.06-2.533,0,0-4.576,3.76-5,4.83,0,0,3.731-1.62,4.7.618a25.008,25.008,0,0,1-4.86,2.287c-1.473.285-2.582.59-3.368,1.64,0,0,4.035-.51,4.281,1.688,0,0-4-.217-5.852.412s-8.8.982-11.261-.609-36.416-20.551-43.848-38.077c0,0-8.884-31.085-8.854-38.371" transform="translate(-402.381 -3529.574)" fill="#f4a082"/></clipPath><clipPath id="e"><path d="M335.787,3595.846l-6.913-49.478-8.655-20.411c.022-.013-1.689-5.171,17.75-14.514,19.652-9.446,54.208,1.818,55.475,14.26,1.4,13.712-8.544,18.118-8.544,18.118l-7.64,52.025S359.434,3604.941,335.787,3595.846Z" transform="translate(-320.189 -3507.931)" fill="#f4a082"/></clipPath><clipPath id="f"><path d="M346.05,3503.3c-.6,1.816,10.25-11.249,9.226-30.144h12.278s.015,23.519,12.444,30.859C380,3504.014,360.438,3522.165,346.05,3503.3Z" transform="translate(-346.025 -3473.155)" fill="#f4a082"/></clipPath><clipPath id="g"><path d="M320.343,3525.839c.44.023,60.892,22.275,72.315,10.752,0,0,2.286,18.47,4.873,25.585,2.911,8,5.821,17.1,5.821,17.462,0,0-4-.728-16.371,11.642-16.722,16.721-52.964,1.542-75.051-27.789C311.931,3563.491,314.461,3525.518,320.343,3525.839Z" transform="translate(-311.931 -3525.837)" fill="#ffd2b9"/></clipPath><clipPath id="h"><path d="M382.783,3452.513c0,15.044-16.83,27.239-23.917,27.239s-23.917-12.195-23.917-27.239,10.265-33.881,23.474-33.881S382.783,3437.47,382.783,3452.513Z" transform="translate(-334.95 -3418.632)" fill="#f4a082"/></clipPath><clipPath id="i"><path d="M354.319,3425.992s-12.37,8-18.191,26.194c0,0-3.274,8-1.091,12.37s10.55,10.186,8.731,15.644a20.809,20.809,0,0,1-8,16.007s8-3.274,14.916,9.459c0,0,14.552-7.64,25.1,5.821,0,0,7.64-8.731,15.279,2.547,0,0,6.913-4.73,10.551,4.366,0,0,5.457-4.366,3.638,7.64,0,0,6.185,5.094-1.456,9.823,0,0,1.092,2.546-3.274,5.093l-2.182-6.185a5.264,5.264,0,0,1,3.638-1.091s-2.183-5.094,1.455-7.64a7.914,7.914,0,0,1-5.82-7.64s-6.549,4.365-10.915-3.274c0,0-10.55,8.731-18.918-2.911,0,0-16.735,11.278-24.375-3.638,0,0-20.737,9.459-21.829-9.1,0,0-10.914-14.916,2.911-23.648,0,0-12.7-16.791-5.093-31.651,8-15.644,15.644-38.927,33.106-29.1,0,0,30.56-13.461,26.195,36.745C378.694,3451.822,363.414,3440.18,354.319,3425.992Z" transform="translate(-316.967 -3412.736)" fill="#1d3542"/></clipPath></defs><g transform="translate(-194.537 -3370.6)"><g transform="translate(194.537 3370.6)"><g transform="translate(46.226 47.822)"><path d="M339.461,3433.146c-10.223-1.066-20.258,1.772-29.4,6.187a110.426,110.426,0,0,0-23.121,15.145c-13.215,11.163-24.287,25.644-29.381,42.337a65.386,65.386,0,0,0,5.092,49.826c8.525,16.19,22.447,29.12,38.083,38.352a126.634,126.634,0,0,0,56.495,17.286c18.173,1.1,37.607-1.812,52.86-12.364,13.913-9.625,22.077-25.04,24.259-41.629,2.254-17.142-1.727-34.368-10.247-49.31-9.045-15.862-22.484-28.833-37.3-39.311-16.131-11.409-34.884-21.439-54.933-22.893a62.05,62.05,0,0,0-14.443.652c-.741.12-.427,1.246.311,1.127,20.4-3.309,40.545,4.7,57.722,15.086,15.2,9.188,29.4,20.605,40.225,34.781,10.479,13.725,17.432,30,18.072,47.393.6,16.229-4.074,33.042-15.186,45.2-12.323,13.483-30.782,19.216-48.578,20.167a122.752,122.752,0,0,1-56.1-10.707c-31.365-14-61.569-44.094-57.72-81.115,1.779-17.11,10.662-32.77,22.254-45.182a111,111,0,0,1,19.723-16.659c8.124-5.4,17.035-10.072,26.6-12.255a44.965,44.965,0,0,1,14.715-.948c.747.077.742-1.091,0-1.169Z" transform="translate(-254.778 -3432.921)" fill="#97c2e8"/></g><g transform="translate(17.503 58.371)"><path d="M338.49,3609.408c-10.443,3.622-21.791,2-32.446.276a165.218,165.218,0,0,1-30.024-7.568c-18.366-6.677-35.374-17.879-46.4-34.287a63.5,63.5,0,0,1-9.2-51.286c4.335-17.275,15.025-32.729,28.745-43.929,31.542-25.75,76.553-27.513,115.17-22.665a220.157,220.157,0,0,1,33.372,6.741c9.148,2.628,18.647,5.761,26.152,11.831,7.921,6.406,11.793,15.756,11.477,25.875-.328,10.518-4.923,20.225-10.8,28.755-10.988,15.941-25.439,29.976-40.664,41.845a218.167,218.167,0,0,1-50.186,29.332q-6.47,2.693-13.1,4.956c-.707.242-.4,1.371.31,1.127a219.272,219.272,0,0,0,97.55-67.368c12.192-14.767,24.184-35.28,14.9-54.632-3.994-8.331-11.8-13.825-20.029-17.5-9.876-4.4-20.631-7.085-31.194-9.235a236.484,236.484,0,0,0-65.83-4.323c-20.139,1.639-40.274,6.662-57.684,17.187-30.582,18.488-51.235,57.527-36.273,92.392,7.559,17.612,22.305,31.333,39.115,40.075a132.122,132.122,0,0,0,29.744,10.876c10.492,2.555,21.562,4.663,32.388,4.842a44,44,0,0,0,15.221-2.2c.707-.245.4-1.374-.311-1.127Z" transform="translate(-217.347 -3446.668)" fill="#97c2e8"/></g><circle cx="5.843" cy="5.843" r="5.843" transform="translate(40.43 111.412) rotate(-45)" fill="#97c2e8"/><path d="M272.622,3431.979a3.506,3.506,0,1,1-3.506-3.506A3.506,3.506,0,0,1,272.622,3431.979Z" transform="translate(-211.073 -3384.064)" fill="#97c2e8"/><path d="M248.254,3584.786a3.506,3.506,0,1,1-3.506-3.506A3.506,3.506,0,0,1,248.254,3584.786Z" transform="translate(-205.403 -3419.616)" fill="#97c2e8"/><path d="M441.012,3511.1a2.922,2.922,0,1,1-2.921-2.921A2.921,2.921,0,0,1,441.012,3511.1Z" transform="translate(-250.522 -3402.608)" fill="#97c2e8"/><path d="M310.473,3509.54a1.364,1.364,0,1,1-1.364-1.363A1.363,1.363,0,0,1,310.473,3509.54Z" transform="translate(-220.876 -3402.608)" fill="#97c2e8"/><path d="M425.24,3409.294a2.142,2.142,0,1,1-2.142-2.143A2.142,2.142,0,0,1,425.24,3409.294Z" transform="translate(-247.215 -3379.104)" fill="#97c2e8"/><path d="M425.24,3635.711a2.142,2.142,0,1,1-2.142-2.142A2.143,2.143,0,0,1,425.24,3635.711Z" transform="translate(-247.215 -3431.782)" fill="#97c2e8"/><path d="M531.6,3573.145a5.064,5.064,0,1,1-5.064-5.064A5.064,5.064,0,0,1,531.6,3573.145Z" transform="translate(-270.601 -3416.545)" fill="#97c2e8"/><circle cx="5.454" cy="5.454" r="5.454" transform="translate(3.896 191.659)" fill="#97c2e8"/><path d="M198.822,3469.706a2.142,2.142,0,1,1-2.142-2.143A2.142,2.142,0,0,1,198.822,3469.706Z" transform="translate(-194.537 -3393.158)" fill="#97c2e8"/><circle cx="6.233" cy="6.233" r="6.233" transform="translate(128.552)" fill="#97c2e8"/><circle cx="4.285" cy="4.285" r="4.285" transform="translate(163.222 264.895)" fill="#97c2e8"/><circle cx="5.064" cy="5.064" r="5.064" transform="translate(221.265 84.143)" fill="#97c2e8"/></g><g transform="translate(224.111 3402.932)"><path d="M299.989,3605.827l4-3.274c-1.784-4.078-6.064-4.762-8.47-4.807l-4.1,2.131C292.608,3605.823,299.989,3605.827,299.989,3605.827Z" transform="translate(-246.653 -3455.78)" fill="#1d3542"/><path d="M338.577,3602.373s-6.548-4-10.915,1.091c0,0-4-3.274-10.914,1.819l-2.547,1.091s6.912,5.458,14.553,1.456c0,0,12.006,1.819,12.37-1.456A3.554,3.554,0,0,0,338.577,3602.373Z" transform="translate(-251.953 -3456.508)" fill="#1d3542"/><g transform="translate(69.916 7.435)"><path d="M361.821,3486.818s21.1-9.095,25.1-26.921-11.278-37.473-11.278-37.473-63.3,54.208-49.478,65.486c7.132,5.817,35.654,3.274,35.654,3.274" transform="translate(-324.193 -3422.425)" fill="#1d3542"/><g clip-path="url(#a)"><path d="M340.505,3476.626s6.912,17.462,19.646,16.735,21.694-16.975,22.488-25.223-43.59-.608-42.134,8.488" transform="translate(-327.98 -3432.241)" fill="#1d3542" opacity="0.22" style="mix-blend-mode:multiply;isolation:isolate"/></g></g><g transform="translate(0 153.654)"><path d="M316.247,3618.83s-13.825,21.1-14.553,24.375c0,0-46.931,2.547-57.845,7.276s-14.916,18.918-5.457,26.194,72.4,9.823,89.861,3.638c0,0,90.224,12.006,105.5-5.457s-27.65-34.562-64.03-32.743c0,0-12.733-25.1-19.646-28.377S316.247,3618.83,316.247,3618.83Z" transform="translate(-233.078 -3612.977)" fill="#75aee1"/><g clip-path="url(#b)"><path d="M354.541,3697.708a76.65,76.65,0,0,1-34.412-13.1s10.186,14.188,21.829,16.372S354.541,3697.708,354.541,3697.708Z" transform="translate(-253.331 -3629.643)" fill="#d25a5c" opacity="0.23" style="mix-blend-mode:multiply;isolation:isolate"/><path d="M274.861,3663.1c-.692.761-4.366,2.546-.727,4s23.647,12.37,28.741,10.915S278.5,3659.093,274.861,3663.1Z" transform="translate(-242.262 -3624.499)" fill="#d25a5c" opacity="0.23" style="mix-blend-mode:multiply;isolation:isolate"/><path d="M415.83,3675.65c.781.053,16.425-3.949,23.337-6.86s8.368-5.093,10.187-5.093,1.455-3.638-3.638-3.275-26.195,9.459-26.195,9.459l-3.692,6.3" transform="translate(-275.597 -3624.01)" fill="#d25a5c" opacity="0.23" style="mix-blend-mode:multiply;isolation:isolate"/><path d="M392.826,3664.188s-16.735,3.638-19.282,3.274,5.094-16.008,22.921-17.463c0,0-17.463-.364-29.105,12.733s-21.465-3.274-28.741-6.912c0,0,11.692,14.745,12.213,16.65,0,0,18.1-2.328,23.319-1.485,0,0,13.219.115,19.586-6.979Z" transform="translate(-257.633 -3621.59)" fill="#d25a5c" opacity="0.23" style="mix-blend-mode:multiply;isolation:isolate"/><path d="M328.2,3677.351c6.786,3.115,14.648,2.082,22.071,1.28,12.515-1.352,25.179-1.859,37.683-.413,2.805.325,15.28,4.22,17.91,5.248" transform="translate(-255.209 -3627.953)" fill="none" stroke="#3e73a3" stroke-miterlimit="10" stroke-width="0.237"/><path d="M321.625,3686.381a98.514,98.514,0,0,0,30.667,11.65" transform="translate(-253.68 -3630.055)" fill="none" stroke="#3e73a3" stroke-miterlimit="10" stroke-width="0.237"/><path d="M291.8,3671.67a54.939,54.939,0,0,0-8.461-1.622,19.373,19.373,0,0,0-8.5.962" transform="translate(-242.795 -3626.233)" fill="none" stroke="#3e73a3" stroke-miterlimit="10" stroke-width="0.237"/><path d="M351.857,3676.077l-6.084-8.8" transform="translate(-259.298 -3625.61)" fill="#d25a5c" opacity="0.49" style="mix-blend-mode:multiply;isolation:isolate"/><path d="M410.89,3649.763a38.441,38.441,0,0,0-14.177,4.2" transform="translate(-271.149 -3621.536)" fill="none" stroke="#3e73a3" stroke-miterlimit="10" stroke-width="0.237"/><path d="M320.128,3651.923a15.2,15.2,0,0,1,10.414,4.666" transform="translate(-253.331 -3622.038)" fill="none" stroke="#3e73a3" stroke-miterlimit="10" stroke-width="0.237"/><path d="M402.457,3671.656c-4.885,2.512-9.273,4.26-14.767,4.3" transform="translate(-269.05 -3626.629)" fill="none" stroke="#3e73a3" stroke-miterlimit="10" stroke-width="0.237"/></g></g><g transform="translate(2.111 88.281)"><path d="M301.125,3527.783c.035.727-1.545,5.9-3.1,19.448s-9.424,32.126-9.322,34.307-4.9,4.236-8.837,13.524-12.369,15.875-14.464,17.795a26.089,26.089,0,0,0-9.136-.666c-4.708.584-9.137-.665-9.931-2.085,0,0-2.1,1.919-.194,3.652s6.2.074,7.387,2.2-1.562,5.536-4.157,4.565a6.119,6.119,0,0,1-3.821-3.827c-.414-1.074,1.2-5.52-2.122-6.457,0,0-.991,6.055-.56,7.492,0,0-4.6-4.884-7.041-2.584,0,0,4.548,3.793,4.962,4.866,0,0-3.719-1.647-4.707.585a25.029,25.029,0,0,0,4.843,2.323c1.471.3,2.578.608,3.356,1.664,0,0-4.031-.54-4.293,1.657,0,0,4-.187,5.849.455s8.79,1.045,11.265-.527,36.565-20.285,44.124-37.756c0,0,9.111-31.019,9.135-38.3" transform="translate(-235.83 -3527.783)" fill="#f4a082"/><g clip-path="url(#c)"><path d="M312.069,3574.469s7.64,15.644,17.462,21.829-4.729-33.107-17.462-21.829" transform="translate(-253.568 -3538.168)" fill="#d18161" opacity="0.21" style="mix-blend-mode:multiply;isolation:isolate"/></g></g><g transform="translate(129.913 89.656)"><path d="M412.391,3529.574c-.039.727.894,2.875,2.346,16.435s9.188,32.2,9.071,34.374,4.87,4.272,8.738,13.59,12.253,15.965,14.334,17.9a26.107,26.107,0,0,1,9.141-.6c4.7.619,9.141-.6,9.946-2.012,0,0,2.082,1.934.167,3.652s-6.2.03-7.4,2.15,1.522,5.547,4.124,4.6a6.112,6.112,0,0,0,3.848-3.8c.423-1.07-1.158-5.528,2.171-6.441,0,0,.947,6.063.5,7.5,0,0,4.635-4.85,7.06-2.533,0,0-4.576,3.76-5,4.83,0,0,3.731-1.62,4.7.618a25.008,25.008,0,0,1-4.86,2.287c-1.473.285-2.582.59-3.368,1.64,0,0,4.035-.51,4.281,1.688,0,0-4-.217-5.852.412s-8.8.982-11.261-.609-36.416-20.551-43.848-38.077c0,0-8.884-31.085-8.854-38.371" transform="translate(-402.381 -3529.574)" fill="#f4a082"/><g clip-path="url(#d)"><path d="M413.9,3607.724s6.912-11.642,13.1-13.1S410.631,3580.074,413.9,3607.724Z" transform="translate(-404.986 -3543.694)" fill="#d18161" opacity="0.21" style="mix-blend-mode:multiply;isolation:isolate"/></g></g><g transform="translate(66.844 73.048)"><path d="M335.787,3595.846l-6.913-49.478-8.655-20.411c.022-.013-1.689-5.171,17.75-14.514,19.652-9.446,54.208,1.818,55.475,14.26,1.4,13.712-8.544,18.118-8.544,18.118l-7.64,52.025S359.434,3604.941,335.787,3595.846Z" transform="translate(-320.189 -3507.931)" fill="#f4a082"/><g clip-path="url(#e)"><path d="M334.826,3600.027c-.1.807,33.543,23.26,49.7,10.9S338.1,3573.833,334.826,3600.027Z" transform="translate(-323.594 -3526.665)" fill="#d18161" opacity="0.21" style="mix-blend-mode:multiply;isolation:isolate"/></g></g><g transform="translate(86.669 46.362)"><path d="M346.05,3503.3c-.6,1.816,10.25-11.249,9.226-30.144h12.278s.015,23.519,12.444,30.859C380,3504.014,360.438,3522.165,346.05,3503.3Z" transform="translate(-346.025 -3473.155)" fill="#f4a082"/><g clip-path="url(#f)"><ellipse cx="11.096" cy="8.913" rx="11.096" ry="8.913" transform="translate(4.14 4.366)" fill="#d18161" opacity="0.34" style="mix-blend-mode:multiply;isolation:isolate"/></g></g><path d="M314.73,3673.162s-1.455-4-2.911-8.368-7.64-4.729-12.369-2.182-14.553-3.274-18.191-3.638-8.732,0-7.64,2.909c1.278,3.407,5.821.364,7.64,2.547s22.92,16.008,29.1,16.008C310.364,3680.438,314.73,3679.346,314.73,3673.162Z" transform="translate(-242.476 -3469.998)" fill="#f4a082"/><path d="M407.507,3667.212s1.834-3.843,3.7-8.048,8.06-3.972,12.522-.981,14.8-1.858,18.457-1.869,8.691.841,7.323,3.632c-1.6,3.267-5.829-.2-7.849,1.8s-24.355,13.726-30.511,13.131C411.151,3674.875,406.911,3673.368,407.507,3667.212Z" transform="translate(-273.647 -3469.325)" fill="#f4a082"/><g transform="translate(60.507 86.787)"><path d="M320.343,3525.839c.44.023,60.892,22.275,72.315,10.752,0,0,2.286,18.47,4.873,25.585,2.911,8,5.821,17.1,5.821,17.462,0,0-4-.728-16.371,11.642-16.722,16.721-52.964,1.542-75.051-27.789C311.931,3563.491,314.461,3525.518,320.343,3525.839Z" transform="translate(-311.931 -3525.837)" fill="#ffd2b9"/><g clip-path="url(#g)"><path d="M307.264,3548.088c6.985-3.4,16.211,1.928,23.256-1.366a10.479,10.479,0,0,1,2.393-1,7.19,7.19,0,0,1,2.36.076l22.739,3.279a44.385,44.385,0,0,0,6.131.595c2.7.01,5.474-.463,8.048.284,1.222.355,2.335.971,3.536,1.382,3.147,1.076,6.634.671,9.96.252l13.586-1.711c1.291-.163,3.1.031,3.2,1.226.106,1.285-1.859,1.632-3.26,1.628-4.181-.011-8.253,1.163-12.409,1.578a67.5,67.5,0,0,1-9.017.1q-21.676-.74-43.323-2.026a83.346,83.346,0,0,1-8.324-.782,7.8,7.8,0,0,0-2.946-.13c-.8.183-1.5.636-2.284.868-3.04.9-6.106-1.677-9.292-1.486-1.4.084-2.754.709-4.155.594s-2.786-1.615-1.922-2.638" transform="translate(-310.382 -3530.446)" fill="#fcebe6"/><path d="M303.633,3563.245c.315-1.558,2.563-2.107,4.2-1.629s2.977,1.6,4.576,2.184c4.912,1.807,10.26-1.788,15.544-1.553,3.575.159,6.968,2.081,10.52,1.678,1.047-.119,2.059-.439,3.105-.565a20.018,20.018,0,0,1,6.59.822c7.156,1.567,14.579,1.693,21.935,1.81l13.5.215c4.059.065,8.186.123,12.1-.876a19.652,19.652,0,0,1,4.576-.949c1.568-.018,3.286.653,3.845,2l-13.568,1.782c-2.2.289-4.407.579-6.628.648-3.386.106-6.765-.3-10.15-.442-10.5-.443-21.1,1.643-31.488.13-2.731-.4-5.46-1.044-8.218-.87-2.376.149-4.695.907-7.074.834a24.971,24.971,0,0,1-5.2-.994,54.567,54.567,0,0,0-18.5-1.327l-2.255-3.3,2.737-.115" transform="translate(-309.398 -3534.122)" fill="#fcebe6"/><path d="M304.065,3578.756c3.2-1.932,7.432-1.463,11.086-.423s7.239,2.591,11.064,2.613c3.583.022,7.03-1.31,10.608-1.479,5.688-.268,11.279,2.409,16.915,1.653,2.38-.319,4.643-1.241,7.041-1.409a22.616,22.616,0,0,1,5.3.467l10.539,1.775a14.446,14.446,0,0,0,3.275.3,15.769,15.769,0,0,0,4.115-1.047,76.17,76.17,0,0,1,10.348-2.748c1.9-.364,3.973-.636,5.694.185a12.232,12.232,0,0,0,1.961.981c1.4.383,2.826-.359,4.244-.665s3.4.277,3.326,1.616c-4.01,1.318-8.423.653-12.677.841-4.517.2-8.907,1.373-13.363,2.074a64.345,64.345,0,0,1-21.07-.189,52.7,52.7,0,0,0-7.159-1.061,55.431,55.431,0,0,0-8.552.786c-7.1.844-14.3.36-21.439-.125l-11.745-.8a57.973,57.973,0,0,1-9.027-1.09,2.657,2.657,0,0,1-1.658-.851.869.869,0,0,1,.594-1.363" transform="translate(-309.793 -3537.84)" fill="#fcebe6"/><path d="M320.905,3595.833c2.731-1.151,5.936-.735,8.808.074s5.65,1.989,8.63,2.332c8.472.975,17.282-4.9,25.16-1.872,1.379.53,2.724,1.334,4.217,1.275a14.748,14.748,0,0,0,3.225-.872c3.08-.841,6.344.293,9.317,1.413a5.646,5.646,0,0,0,3.453.51,21.011,21.011,0,0,0,2.3-1.2c1.81-.769,3.9-.007,5.87.264,2.924.4,5.87-.322,8.794-.723s6.15-.414,8.547,1.177a12.311,12.311,0,0,1-6.351,1.725c-7.438.469-15.067-.664-22.274,1.094a13.167,13.167,0,0,1-3.488.6,13.68,13.68,0,0,1-3.745-.941c-4.647-1.508-9.682-1.546-14.608-1.568a58.788,58.788,0,0,0-6.091.182c-4.686.465-9.251,2.051-13.961,1.885-5.687-.2-11.02-2.945-16.711-3a6.759,6.759,0,0,1-2.438-.266c-.756-.3-1.364-1.09-1.093-1.807s1.658-.815,1.832-.073" transform="translate(-313.437 -3541.956)" fill="#fcebe6"/><path d="M307.249,3536.714c1.476-2.515,4.984-3.451,8.077-3.2s6,1.422,9.026,2.071a27.261,27.261,0,0,0,9.576.325,18.424,18.424,0,0,1,5.1-.416,38.714,38.714,0,0,1,4.669,1.44c5.6,1.505,11.287-1.755,17.065-2.487,3.87-.491,7.793.171,11.629.853,9.38,1.669,18.961,3.483,28.414,2.211-.054,2.126-3.073,2.858-5.382,2.93a215.583,215.583,0,0,1-27.357-.888,91.4,91.4,0,0,0-13.7-.775c-3.205.175-6.391.758-9.6.643-5.4-.2-10.563-2.364-15.968-2.446a73.26,73.26,0,0,0-8.3.745,48.625,48.625,0,0,1-11.334-.2,3.371,3.371,0,0,1-2.113-.823c-.5-.559-.3-1.624.472-1.729" transform="translate(-310.733 -3527.614)" fill="#fcebe6"/><path d="M347.2,3610.393c8.544.206,17.132.409,25.6-.654a39.477,39.477,0,0,1,5.685-.5,34.391,34.391,0,0,1,4.995.606q9.178,1.538,18.478,2.334c-5.341,2.371-11.591,2.11-17.465,1.353s-11.789-1.959-17.675-1.3c-3.4.383-6.733,1.385-10.153,1.271a15.364,15.364,0,0,1-7.391-2.176" transform="translate(-320.137 -3545.24)" fill="#fcebe6"/></g></g><g transform="translate(78.17 4.524)"><path d="M382.783,3452.513c0,15.044-16.83,27.239-23.917,27.239s-23.917-12.195-23.917-27.239,10.265-33.881,23.474-33.881S382.783,3437.47,382.783,3452.513Z" transform="translate(-334.95 -3418.632)" fill="#f4a082"/><g clip-path="url(#h)"><path d="M359.818,3428.056s8.6,18.136,22.383,24.725h0l-17.117-25.213-10.236-2.193s-15.171,22.71-12.977,29.567h0s12.571-24.349,20.619-26.778-4.357-3.581-4.357-3.581" transform="translate(-336.51 -3420.017)" fill="#a05940" opacity="0.18" style="mix-blend-mode:multiply;isolation:isolate"/></g></g><g transform="translate(64.372)"><path d="M354.319,3425.992s-12.37,8-18.191,26.194c0,0-3.274,8-1.091,12.37s10.55,10.186,8.731,15.644a20.809,20.809,0,0,1-8,16.007s8-3.274,14.916,9.459c0,0,14.552-7.64,25.1,5.821,0,0,7.64-8.731,15.279,2.547,0,0,6.913-4.73,10.551,4.366,0,0,5.457-4.366,3.638,7.64,0,0,6.185,5.094-1.456,9.823,0,0,1.092,2.546-3.274,5.093l-2.182-6.185a5.264,5.264,0,0,1,3.638-1.091s-2.183-5.094,1.455-7.64a7.914,7.914,0,0,1-5.82-7.64s-6.549,4.365-10.915-3.274c0,0-10.55,8.731-18.918-2.911,0,0-16.735,11.278-24.375-3.638,0,0-20.737,9.459-21.829-9.1,0,0-10.914-14.916,2.911-23.648,0,0-12.7-16.791-5.093-31.651,8-15.644,15.644-38.927,33.106-29.1,0,0,30.56-13.461,26.195,36.745C378.694,3451.822,363.414,3440.18,354.319,3425.992Z" transform="translate(-316.967 -3412.736)" fill="#1d3542"/><g clip-path="url(#i)"><path d="M340.505,3476.626s6.912,17.462,19.646,16.735,21.694-16.975,22.488-25.223-43.59-.608-42.134,8.488" transform="translate(-322.436 -3424.806)" fill="#1d3542" opacity="0.22" style="mix-blend-mode:multiply;isolation:isolate"/></g></g><path d="M340.191,3464.349c.694,2.827-.266,5.492-2.142,5.953s-3.96-1.459-4.654-4.285.266-5.493,2.142-5.953S339.5,3461.522,340.191,3464.349Z" transform="translate(-256.365 -3423.731)" fill="#f4a082"/><path d="M394.115,3461.03c-.694,2.827.266,5.492,2.142,5.953s3.96-1.459,4.654-4.286-.266-5.492-2.142-5.953S394.807,3458.2,394.115,3461.03Z" transform="translate(-270.492 -3422.958)" fill="#f4a082"/><path d="M308.4,3569.2c-7.64-2.547-10.914,6.549-10.914,6.549-5.457-2.183-6.912,4.73-6.912,4.73-4.73,4,0,9.459,0,9.459a8.629,8.629,0,0,0,.164,1.689l4.1-2.131a11.924,11.924,0,0,0-1.717.078c1.819-3.639-1.091-7.64-1.091-7.64a7.263,7.263,0,0,0,7.276-4.366c19.646,7.276,24.739-15.28,24.739-15.28S316.037,3571.748,308.4,3569.2Z" transform="translate(-245.965 -3447.531)" fill="#1d3542"/><path d="M347.763,3464.649A14.66,14.66,0,0,0,357.1,3464a8.077,8.077,0,0,1-9.339.645Z" transform="translate(-259.761 -3424.664)" fill="#2e2430"/><g transform="translate(98.606 55.623)"><path d="M361.792,3486.289a7.572,7.572,0,0,0,6.7-.478.315.315,0,0,0-.318-.544,6.963,6.963,0,0,1-6.219.415c-.376-.152-.539.457-.167.608Z" transform="translate(-361.582 -3485.223)" fill="#a34f31"/></g><path d="M361.965,3478.5c.6.019,1.144.052,1.679.055s1.051-.006,1.568-.042,1.032-.094,1.558-.175,1.06-.185,1.656-.284a3.643,3.643,0,0,1-1.4,1.1,4.965,4.965,0,0,1-3.524.242A3.666,3.666,0,0,1,361.965,3478.5Z" transform="translate(-263.065 -3427.932)" fill="#a34f31"/><path d="M373.387,3464.728a14.673,14.673,0,0,0,9.339-.645,8.076,8.076,0,0,1-9.339.645Z" transform="translate(-265.722 -3424.682)" fill="#2e2430"/><g transform="translate(87.155 32.422)"><path d="M347.392,3458.983a8.868,8.868,0,0,1,8.5-2.958c.551.108.787-.737.233-.845a9.767,9.767,0,0,0-9.357,3.184c-.368.424.249,1.047.62.62Z" transform="translate(-346.658 -3454.988)" fill="#1d3542"/></g><g transform="translate(107.596 32.051)"><path d="M382.971,3457.881a9.762,9.762,0,0,0-9.358-3.184c-.552.108-.318.953.233.845a8.871,8.871,0,0,1,8.5,2.958c.371.427.988-.2.62-.619Z" transform="translate(-373.298 -3454.505)" fill="#1d3542"/></g><path d="M366.141,3428.4a27.461,27.461,0,0,0,2.495,6.74,32.253,32.253,0,0,0,9.385,11.078,32.183,32.183,0,0,0,3.059,2.056c1.049.645,2.177,1.149,3.266,1.733-1.113-.528-2.271-.98-3.355-1.575a32.148,32.148,0,0,1-3.181-1.919,33,33,0,0,1-10.132-10.85,28.577,28.577,0,0,1-2.963-6.978Z" transform="translate(-263.704 -3416.38)" fill="#1d3542"/><path d="M366.548,3426.176a17.176,17.176,0,0,0-1.1,3.8,16.827,16.827,0,0,0-.21,4.016,13.415,13.415,0,0,0,.848,3.957,14.32,14.32,0,0,0,1.979,3.59,14.5,14.5,0,0,1-2.314-3.448,13.931,13.931,0,0,1-1.236-4.016,17.773,17.773,0,0,1-.15-4.237,18.3,18.3,0,0,1,.845-4.223Z" transform="translate(-263.608 -3415.732)" fill="#1d3542"/><path d="M366.914,3427.813a15.135,15.135,0,0,0-1.883,1.473,18.135,18.135,0,0,0-1.707,1.76,16.783,16.783,0,0,0-1.473,1.986,17.1,17.1,0,0,0-1.186,2.2,17.786,17.786,0,0,1,2.072-4.613,19.151,19.151,0,0,1,1.5-2.082,16.314,16.314,0,0,1,1.818-1.9Z" transform="translate(-262.763 -3415.97)" fill="#1d3542"/></g><path d="M452.731,3742.669c0,1.937-50.753,3.506-113.359,3.506s-113.359-1.569-113.359-3.506,50.753-3.506,113.359-3.506S452.731,3740.733,452.731,3742.669Z" transform="translate(-7.323 -85.749)" fill="#97c2e8" opacity="0.56" style="mix-blend-mode:multiply;isolation:isolate"/></g></svg>