<svg xmlns="http://www.w3.org/2000/svg" width="105.36" height="105.36" viewBox="0 0 105.36 105.36"><g transform="translate(-75.22 -4537.625)"><rect width="105.36" height="105.36" transform="translate(75.22 4537.625)" fill="#c6e2f7"/><path d="M103.758,4554.322l1.431.746,3.941,5.03h-5.372Z" fill="#e3e0e1" fill-rule="evenodd" style="mix-blend-mode:multiply;isolation:isolate"/><path d="M102.6,4560.18l52.67-.083,25.313,29.461v53.427H117.561l-19.807-20.958V4619.7l4.843-.021Z" fill="#e3e0e1" fill-rule="evenodd" style="mix-blend-mode:multiply;isolation:isolate"/><rect width="2.354" height="58.726" transform="translate(102.597 4558.667)" fill="#5a5554"/><rect width="0.57" height="0.996" transform="translate(103.489 4557.671)" fill="#484342"/><rect width="8.576" height="2.312" transform="translate(99.486 4617.393)" fill="#5a5554"/><rect width="12.04" height="2.323" transform="translate(97.754 4619.705)" fill="#6d6b6a"/><rect width="1.172" height="58.726" transform="translate(102.597 4558.667)" fill="#6d6b6a"/><path d="M103.758,4557.816a1.747,1.747,0,1,0-1.741-1.742,1.746,1.746,0,0,0,1.741,1.742Z" fill="#6d6b6a" fill-rule="evenodd"/><path d="M104.847,4560.1l10.339,5.97H155.06v-6.006H104.847Z" fill="#153688"/><path d="M104.847,4593.665v.037H155.06v-6.323H115.735Z" fill="#153688"/><path d="M133.918,4576.881l-6.464,3.731H155.06v-7.781H126.9Z" fill="#153688"/><path d="M126.9,4572.831H155.06v-6.766H115.186Z" fill="#fff"/><path d="M115.735,4587.378H155.06v-6.766H127.455Z" fill="#fff"/><path d="M126.9,4572.831l-11.719-6.766-10.339-5.969v33.569l10.888-6.286,11.72-6.767,6.463-3.731Zm-9.526,8.152-2.981-2.166-2.98,2.166,1.138-3.5-1.434-1.042-1.547-1.124h3.685l1.138-3.5,1.139,3.5h3.685l-1.718,1.248-1.263.918Z" fill="#f12533"/><path d="M114.4,4571.809l-1.138,3.5h.611Z" fill="#fff"/><path d="M113.871,4575.313h1.666l-1.139-3.5Z" fill="#fff"/><path d="M114.646,4575.313v.76l.036-.005.084-.117.049.095,4.405-.732h-4.575Z" fill="#fff"/><path d="M114.816,4576.045l.079.152.273.045-.12.165.764-.248.428,1.319,1.263-.918,1.718-1.248Z" fill="#fff"/><path d="M114.646,4576.073v.043l.036-.049Z" fill="#fff"/><path d="M109.575,4575.313l1.547,1.124,1.434,1.042.189-.581Z" fill="#fff"/><path d="M115.048,4576.408l.12-.165-.273-.045.116.223Z" fill="#fff"/><path d="M112.745,4576.9l.24-.738.8.261.243-.47.368.507.248-.341v-.8h-5.071Z" fill="#fff"/><path d="M115.812,4576.16l-.764.248-.037.013.248.479.136.044-.074.076,2.058,3.964-1.139-3.5Z" fill="#fff"/><path d="M114.683,4576.068l-.036.049-.248.341.153.211.708.229-.248-.479-.116-.223-.079-.152-.049-.095Z" fill="#fff"/><path d="M115.322,4577.02l-.3.3.5.682-1.122.815,2.981,2.166Z" fill="#fff"/><path d="M114.4,4576.458l-.368-.507-.243.47.765.249Z" fill="#fff"/><path d="M115.52,4578l-.5-.682-3.607,3.663,2.981-2.166Z" fill="#fff"/><path d="M115.025,4577.32l.3-.3.074-.076-.136-.044-.708-.229-.765-.249-.8-.261-.24.738-.189.581-1.138,3.5Z" fill="#fff"/></g></svg>