<svg xmlns="http://www.w3.org/2000/svg" width="63.096" height="63.096" viewBox="0 0 63.096 63.096"><g transform="translate(-886 -2234.138)"><g transform="translate(886 2234.138)"><path d="M1903.065,6466.171q1.55,0,3.092.151t3.063.455q1.52.3,3,.752t2.915,1.042q1.432.594,2.8,1.324t2.656,1.592q1.288.861,2.487,1.845t2.294,2.079q1.1,1.1,2.079,2.293t1.844,2.487q.861,1.289,1.592,2.655t1.323,2.8q.593,1.431,1.043,2.915t.752,3q.3,1.521.454,3.062t.152,3.093q0,1.55-.152,3.092t-.454,3.063q-.3,1.52-.752,3t-1.043,2.915q-.593,1.432-1.323,2.8t-1.592,2.656q-.861,1.288-1.844,2.486t-2.079,2.294q-1.1,1.1-2.294,2.079t-2.487,1.845q-1.289.86-2.656,1.592t-2.8,1.323q-1.432.593-2.915,1.043t-3,.752q-1.52.3-3.062.455t-3.092.152q-1.55,0-3.092-.152t-3.062-.455q-1.52-.3-3-.752t-2.915-1.043q-1.432-.593-2.8-1.323t-2.656-1.592q-1.289-.862-2.487-1.845t-2.294-2.079q-1.1-1.1-2.079-2.294t-1.844-2.486q-.861-1.289-1.592-2.656t-1.323-2.8q-.593-1.433-1.043-2.915t-.753-3q-.3-1.521-.454-3.063t-.152-3.092q0-1.551.152-3.093t.454-3.062q.3-1.52.753-3t1.043-2.915q.593-1.432,1.323-2.8t1.592-2.655q.861-1.288,1.844-2.487t2.079-2.293q1.1-1.1,2.294-2.079t2.487-1.845q1.289-.86,2.656-1.592t2.8-1.324q1.432-.593,2.915-1.042t3-.752q1.52-.3,3.062-.455T1903.065,6466.171Z" transform="translate(-1871.517 -6466.171)" fill="#a0a603"/><path d="M29.634,0A29.634,29.634,0,1,1,0,29.634,29.6,29.6,0,0,1,29.634,0Z" transform="translate(1.914 1.914)" fill="#fff"/><ellipse cx="26.957" cy="26.957" rx="26.957" ry="26.957" transform="translate(4.591 4.591)" fill="#aaaf31"/></g><path d="M6.439,15.7a4.616,4.616,0,0,0,.4,2.039,2.717,2.717,0,0,0,2.676,1.487,2.966,2.966,0,0,0,2.074-.814,3.025,3.025,0,0,0,.885-2.344,2.64,2.64,0,0,0-1.643-2.7,8.338,8.338,0,0,0-2.945-.382V10.091a7.642,7.642,0,0,0,2.747-.382A2.362,2.362,0,0,0,11.976,7.3a2.69,2.69,0,0,0-.687-1.912,2.513,2.513,0,0,0-1.933-.736,2.446,2.446,0,0,0-2.1.906,3.845,3.845,0,0,0-.644,2.421H2.842a10.128,10.128,0,0,1,.524-2.9A6.534,6.534,0,0,1,4.924,2.855a5.426,5.426,0,0,1,1.883-1.1,8.15,8.15,0,0,1,2.676-.382,7.122,7.122,0,0,1,4.751,1.522,5.07,5.07,0,0,1,1.805,4.085,4.516,4.516,0,0,1-1.076,3.059A3.675,3.675,0,0,1,13.547,11.1a2.913,2.913,0,0,1,1.586.949,5.067,5.067,0,0,1,1.543,3.908,6.583,6.583,0,0,1-1.805,4.581A6.882,6.882,0,0,1,9.526,22.51q-4.361,0-6.061-2.846A8.447,8.447,0,0,1,2.474,15.7ZM19.65,17.78h4.291V22H19.65Z" transform="translate(903.746 2248.708)" fill="#fff"/></g></svg>