<svg xmlns="http://www.w3.org/2000/svg" width="106.584" height="106.587" viewBox="0 0 106.584 106.587"><g transform="translate(-112.495 -8492.908)"><path d="M165.786,8492.908q2.619,0,5.225.257t5.173.768q2.568.51,5.073,1.271t4.924,1.762q2.418,1,4.728,2.235t4.486,2.688q2.176,1.456,4.2,3.116t3.875,3.513q1.851,1.852,3.512,3.875t3.115,4.2q1.455,2.177,2.689,4.486t2.236,4.728q1,2.418,1.762,4.924t1.271,5.072q.51,2.569.767,5.173t.257,5.225q0,2.618-.257,5.224t-.767,5.174q-.511,2.568-1.271,5.072t-1.762,4.924q-1,2.418-2.236,4.729t-2.689,4.485q-1.455,2.177-3.115,4.2t-3.512,3.875q-1.851,1.852-3.875,3.513t-4.2,3.115q-2.178,1.456-4.486,2.689t-4.728,2.235q-2.418,1-4.924,1.763t-5.073,1.271q-2.568.511-5.173.769t-5.225.257q-2.617,0-5.224-.257t-5.173-.769q-2.567-.51-5.073-1.271t-4.924-1.763q-2.418-1-4.727-2.235t-4.486-2.689q-2.177-1.453-4.2-3.115t-3.875-3.513q-1.851-1.852-3.512-3.875t-3.116-4.2q-1.455-2.177-2.688-4.485t-2.236-4.729q-1-2.417-1.762-4.924t-1.271-5.072q-.51-2.568-.767-5.174t-.257-5.224q0-2.618.257-5.225t.767-5.173q.51-2.566,1.271-5.072t1.762-4.924q1-2.418,2.236-4.728t2.688-4.486q1.455-2.177,3.116-4.2t3.512-3.875q1.853-1.852,3.875-3.513t4.2-3.116q2.177-1.453,4.486-2.688t4.727-2.235q2.42-1,4.924-1.762t5.073-1.271q2.568-.513,5.173-.768T165.786,8492.908Z" fill="#a0a603"/><circle cx="50.059" cy="50.059" r="50.059" transform="translate(115.728 8496.142)" fill="#fff"/><path d="M165.787,8500.663a45.538,45.538,0,1,1-45.538,45.538,45.538,45.538,0,0,1,45.538-45.538Z" fill="#aaaf31"/><path d="M183.629,8545.152a4.2,4.2,0,0,1-4.2-4.2,1.048,1.048,0,0,0-1.05-1.05H144.8a1.048,1.048,0,0,0-1.049,1.05,4.2,4.2,0,0,1-4.2,4.2,1.048,1.048,0,0,0-1.05,1.049v8.4a1.049,1.049,0,0,0,1.05,1.05,4.2,4.2,0,0,1,4.2,4.2,1.048,1.048,0,0,0,1.049,1.05h33.585a1.048,1.048,0,0,0,1.05-1.05,4.2,4.2,0,0,1,4.2-4.2,1.05,1.05,0,0,0,1.05-1.05v-8.4A1.049,1.049,0,0,0,183.629,8545.152Zm-1.049,8.482a6.316,6.316,0,0,0-5.161,5.161h-31.66a6.317,6.317,0,0,0-5.161-5.161v-6.471a6.316,6.316,0,0,0,5.161-5.161h31.66a6.315,6.315,0,0,0,5.161,5.161Z" fill="#fff"/><path d="M161.589,8545.152a5.248,5.248,0,1,0,5.248,5.248A5.253,5.253,0,0,0,161.589,8545.152Zm0,8.4a3.148,3.148,0,1,1,3.148-3.147A3.153,3.153,0,0,1,161.589,8553.548Z" fill="#fff"/><path d="M196.223,8527.31H143.747a1.049,1.049,0,0,0-1.05,1.05v3.148h-3.148a1.048,1.048,0,0,0-1.05,1.049v3.149H135.35a1.048,1.048,0,0,0-1.049,1.05v27.287a1.048,1.048,0,0,0,1.049,1.05h52.477a1.048,1.048,0,0,0,1.05-1.05v-3.148h3.148a1.048,1.048,0,0,0,1.05-1.05V8556.7h3.148a1.049,1.049,0,0,0,1.05-1.05v-27.288A1.049,1.049,0,0,0,196.223,8527.31Zm-9.445,32.535v3.149H136.4V8537.8h50.378Zm4.2-1.049h-2.1v-22.04a1.048,1.048,0,0,0-1.05-1.05H140.6v-2.1h50.378Zm4.2-4.2h-2.1v-22.041a1.048,1.048,0,0,0-1.05-1.049H144.8v-2.1h50.378Z" fill="#fff"/></g></svg>