<svg xmlns="http://www.w3.org/2000/svg" width="154.684" height="154.682" viewBox="0 0 154.684 154.682"><g transform="translate(-462.998 -7900.051)"><path d="M540.339,7900.051q3.8,0,7.58.374t7.507,1.113q3.727.739,7.362,1.843t7.146,2.557q3.51,1.452,6.861,3.244t6.51,3.9q3.157,2.11,6.1,4.521a75.468,75.468,0,0,1,5.623,5.1q2.686,2.687,5.1,5.623a75.594,75.594,0,0,1,4.521,6.1q2.111,3.157,3.9,6.509t3.245,6.861q1.453,3.508,2.557,7.145t1.844,7.362q.741,3.726,1.114,7.506t.373,7.581q0,3.8-.373,7.58t-1.114,7.508q-.742,3.726-1.844,7.361t-2.557,7.146q-1.455,3.509-3.245,6.86t-3.9,6.51q-2.11,3.159-4.521,6.1a75.517,75.517,0,0,1-5.1,5.623q-2.687,2.689-5.623,5.1t-6.1,4.521q-3.159,2.112-6.51,3.9t-6.861,3.244q-3.51,1.455-7.146,2.558t-7.362,1.844q-3.726.743-7.507,1.114t-7.58.373q-3.8,0-7.581-.373t-7.507-1.114q-3.724-.743-7.362-1.844t-7.146-2.558q-3.51-1.455-6.86-3.244t-6.51-3.9q-3.159-2.109-6.1-4.521t-5.624-5.1q-2.686-2.687-5.1-5.623a75.436,75.436,0,0,1-4.521-6.1q-2.111-3.16-3.9-6.51t-3.244-6.86q-1.455-3.508-2.557-7.146t-1.844-7.361q-.741-3.727-1.113-7.508t-.372-7.58q0-3.8.372-7.581t1.113-7.506q.741-3.725,1.844-7.362t2.557-7.145q1.453-3.511,3.244-6.861t3.9-6.509q2.11-3.157,4.521-6.1a75.7,75.7,0,0,1,5.1-5.623q2.688-2.688,5.624-5.1t6.1-4.521q3.158-2.109,6.51-3.9t6.86-3.244q3.51-1.455,7.146-2.557t7.362-1.843q3.726-.743,7.507-1.113T540.339,7900.051Z" fill="#a0a603"/><circle cx="72.641" cy="72.641" r="72.641" transform="translate(467.699 7904.745)" fill="#fff"/><path d="M540.339,7911.3a66.08,66.08,0,1,1-66.08,66.08,66.08,66.08,0,0,1,66.08-66.08Z" fill="#aaaf31"/><path d="M497.575,8010.843v8.307H522.5v-8.307Zm22.152,5.538H500.344v-2.769h19.383Z" fill="#fff"/><path d="M497.575,8005.305v8.307H522.5v-8.307Zm22.152,5.538H500.344v-2.769h19.383Z" fill="#fff"/><path d="M497.575,7999.767v8.307H522.5v-8.307Zm22.152,5.538H500.344v-2.769h19.383Z" fill="#fff"/><path d="M553.4,8010.843v8.307h24.921v-8.307Zm22.152,5.538H556.17v-2.769h19.383Z" fill="#fff"/><path d="M553.4,8005.305v8.307h24.921v-8.307Zm22.152,5.538H556.17v-2.769h19.383Z" fill="#fff"/><path d="M553.4,7999.767v8.307h24.921v-8.307Zm22.152,5.538H556.17v-2.769h19.383Z" fill="#fff"/><path d="M533.572,8010.843v2.769h13.845v2.769H528.034v-2.769H530.8v-2.769h-5.538v8.307h24.921v-8.307Z" fill="#fff"/><path d="M525.265,8005.305v6.922h2.769v-4.153h19.383v4.153h2.769v-6.922Z" fill="#fff"/><path d="M525.265,7999.767v8.307h24.921v-8.307Zm22.152,5.538H528.034v-2.769h19.383Z" fill="#fff"/><path d="M525.265,7994.229v8.307h24.921v-8.307Zm22.152,5.538H528.034V7997h19.383Z" fill="#fff"/><path d="M525.265,7988.691V7997h24.921v-8.307Zm22.152,5.538H528.034v-2.769h19.383Z" fill="#fff"/><path d="M504.846,7991.149l23.343-23.343h-11.4a1.212,1.212,0,0,1,0-2.423h15.748v15.748a1.211,1.211,0,1,1-2.422,0v-10.192l-24.439,24.437.422,3.007,21.594-21.6v4.344a3.634,3.634,0,1,0,7.268,0V7962.96H516.785a3.635,3.635,0,0,0,0,7.269h5.556L504.5,7988.074Z" fill="#fff"/><path d="M547.739,7970.457,569.3,7992.02H558.768a1.119,1.119,0,1,0,0,2.238h14.547v-14.547a1.119,1.119,0,1,0-2.238,0v9.416L548.5,7966.553l.39-2.777,19.947,19.948v-4.013a3.357,3.357,0,0,1,6.714,0V7996.5H558.768a3.357,3.357,0,1,1,0-6.714H563.9L547.417,7973.3Z" fill="#fff"/><path d="M540.494,7937.939a2.769,2.769,0,1,1,2.769-2.769h2.769a5.538,5.538,0,1,0-5.538,5.538,2.769,2.769,0,1,1-2.769,2.769h-2.769a5.538,5.538,0,1,0,5.538-5.538Z" fill="#fff"/><rect width="2.769" height="4.154" transform="translate(539.11 7926.863)" fill="#fff"/><rect width="2.769" height="4.154" transform="translate(539.11 7947.63)" fill="#fff"/><rect width="2.769" height="2.769" transform="translate(528.034 7937.939)" fill="#fff"/><rect width="2.769" height="2.769" transform="translate(550.186 7937.939)" fill="#fff"/><path d="M540.494,7921.325a18,18,0,1,0,18,18A18.018,18.018,0,0,0,540.494,7921.325Zm0,33.228a15.229,15.229,0,1,1,15.23-15.23A15.247,15.247,0,0,1,540.494,7954.553Z" fill="#fff"/></g></svg>