<svg xmlns="http://www.w3.org/2000/svg" width="63.096" height="63.096" viewBox="0 0 63.096 63.096"><g transform="translate(-628 -2234.138)"><g transform="translate(628 2234.138)"><path d="M1903.065,6466.171q1.55,0,3.092.151t3.063.455q1.52.3,3,.752t2.915,1.042q1.432.594,2.8,1.324t2.656,1.592q1.288.861,2.487,1.845t2.294,2.079q1.1,1.1,2.079,2.293t1.844,2.487q.861,1.289,1.592,2.655t1.323,2.8q.593,1.431,1.043,2.915t.752,3q.3,1.521.454,3.062t.152,3.093q0,1.55-.152,3.092t-.454,3.063q-.3,1.52-.752,3t-1.043,2.915q-.593,1.432-1.323,2.8t-1.592,2.656q-.861,1.288-1.844,2.486t-2.079,2.294q-1.1,1.1-2.294,2.079t-2.487,1.845q-1.289.86-2.656,1.592t-2.8,1.323q-1.432.593-2.915,1.043t-3,.752q-1.52.3-3.062.455t-3.092.152q-1.55,0-3.092-.152t-3.062-.455q-1.52-.3-3-.752t-2.915-1.043q-1.432-.593-2.8-1.323t-2.656-1.592q-1.289-.862-2.487-1.845t-2.294-2.079q-1.1-1.1-2.079-2.294t-1.844-2.486q-.861-1.289-1.592-2.656t-1.323-2.8q-.593-1.433-1.043-2.915t-.753-3q-.3-1.521-.454-3.063t-.152-3.092q0-1.551.152-3.093t.454-3.062q.3-1.52.753-3t1.043-2.915q.593-1.432,1.323-2.8t1.592-2.655q.861-1.288,1.844-2.487t2.079-2.293q1.1-1.1,2.294-2.079t2.487-1.845q1.289-.86,2.656-1.592t2.8-1.324q1.432-.593,2.915-1.042t3-.752q1.52-.3,3.062-.455T1903.065,6466.171Z" transform="translate(-1871.517 -6466.171)" fill="#a0a603"/><path d="M29.634,0A29.634,29.634,0,1,1,0,29.634,29.6,29.6,0,0,1,29.634,0Z" transform="translate(1.914 1.914)" fill="#fff"/><ellipse cx="26.957" cy="26.957" rx="26.957" ry="26.957" transform="translate(4.591 4.591)" fill="#aaaf31"/></g><path d="M2.616,22a9.648,9.648,0,0,1,.949-4.036,11.41,11.41,0,0,1,4.078-4.347,29.906,29.906,0,0,0,3.611-2.86,4.227,4.227,0,0,0,1.26-2.945,3.263,3.263,0,0,0-.722-2.167,2.543,2.543,0,0,0-2.067-.864A2.521,2.521,0,0,0,7.218,6.155a6.812,6.812,0,0,0-.453,2.521H2.842a9.919,9.919,0,0,1,.949-4.234Q5.405,1.369,9.526,1.369a7.272,7.272,0,0,1,5.183,1.805,6.243,6.243,0,0,1,1.926,4.779A6.47,6.47,0,0,1,15.275,12a13.543,13.543,0,0,1-2.931,2.62L10.729,15.77q-1.515,1.076-2.074,1.558a4.565,4.565,0,0,0-.942,1.119h8.963V22ZM19.65,17.78h4.291V22H19.65Z" transform="translate(645.746 2248.708)" fill="#fff"/></g></svg>